<svg width="16" height="16" viewBox="0 0 16 16" fill="none" xmlns="http://www.w3.org/2000/svg">
<path d="M2.75063 7.26287H11.3378L9.49625 5.55015C9.196 5.2697 9.17598 4.78894 9.45621 4.48846C9.73645 4.18798 10.2168 4.16795 10.5171 4.4484L13.7698 7.45317C13.7698 7.45317 13.7698 7.45317 13.7698 7.46319C13.8198 7.51327 13.8599 7.58338 13.8999 7.64347C13.9099 7.66351 13.9299 7.68354 13.9399 7.70357C13.98 7.79371 14 7.89387 14 8.00405V8.02408C14 8.12424 13.98 8.21438 13.9399 8.29451C13.9299 8.31454 13.9099 8.33457 13.8999 8.3546C13.8599 8.4147 13.8299 8.48481 13.7698 8.53489C13.7698 8.53489 13.7698 8.53489 13.7698 8.54491L10.5171 11.5497C10.377 11.6799 10.1868 11.75 10.0067 11.75C9.80651 11.75 9.60634 11.6699 9.45621 11.5096C9.17598 11.2091 9.196 10.7284 9.49625 10.4479L11.3378 8.74522H2.75063V8.75524C2.34028 8.75524 2 8.4147 2 8.00405C2 7.59339 2.33028 7.25285 2.75063 7.25285V7.26287Z" fill="#18191B"/>
</svg>
