<svg width="24" height="24" viewBox="0 0 24 24" fill="none" xmlns="http://www.w3.org/2000/svg">
<path d="M16.8928 1.98506C12.5049 0.232143 9.08644 1.14366 6.98741 2.21544C4.18871 3.64782 2.00972 6.2822 1.31004 9.07685C0.340491 12.9533 1.68987 16.1787 4.72846 17.2905C7.04739 18.1419 8.75659 17.01 9.89607 16.2688C10.9956 15.5476 11.1155 15.5676 11.3254 15.758C11.5953 15.9984 11.4753 16.8197 11.3754 17.5509C11.1955 18.8331 10.9556 20.596 12.3349 21.798C13.3245 22.6695 14.424 23 15.4735 23C16.6329 23 17.7324 22.5893 18.5521 22.0384C23 19.0735 23 14.0852 23 11.1102C23 5.81142 19.0218 2.81644 16.9128 1.97504L16.8928 1.98506ZM17.4326 20.3756C16.9428 20.7062 15.2236 21.6678 13.6443 20.2855C13.1246 19.8247 13.1845 19.0534 13.3545 17.8214C13.5244 16.5994 13.7143 15.207 12.6448 14.2555C12.125 13.7947 11.6153 13.6244 11.1255 13.6244C10.2559 13.6244 9.44627 14.1553 8.79658 14.586C7.76705 15.2671 6.78751 15.9082 5.41814 15.4074C3.3391 14.6461 2.52948 12.4625 3.24914 9.55765C3.79889 7.34397 5.62804 5.15032 7.90699 3.98839C9.63619 3.10692 12.4649 2.35567 16.1532 3.83814C16.2031 3.85817 20.9809 5.83145 20.9809 11.1202C20.9809 14.7463 20.7111 18.182 17.4326 20.3756Z" fill="black"/>
<path d="M10.6257 5.06017C9.8261 5.2605 9.33633 6.07185 9.53623 6.8832C9.73614 7.68454 10.5458 8.17535 11.3554 7.97502C12.155 7.77468 12.6448 6.96334 12.4449 6.15199C12.245 5.35065 11.4354 4.85984 10.6257 5.06017Z" fill="black"/>
<path d="M6.12781 8.06517C5.32818 8.2655 4.83841 9.07685 5.03832 9.8882C5.23822 10.6895 6.04785 11.1803 6.85747 10.98C7.6571 10.7797 8.14688 9.96833 7.94697 9.15698C7.74706 8.35565 6.93744 7.86483 6.12781 8.06517Z" fill="black"/>
<path d="M15.6234 6.06184C14.8238 6.26217 14.334 7.07352 14.5339 7.88487C14.7338 8.6862 15.5435 9.17702 16.3531 8.97668C17.1527 8.77635 17.6425 7.965 17.4426 7.15365C17.2427 6.35232 16.433 5.8615 15.6234 6.06184Z" fill="black"/>
<path d="M15.6234 16.5793C14.8238 16.7797 14.334 17.591 14.5339 18.4024C14.7338 19.2037 15.5435 19.6945 16.3531 19.4942C17.1527 19.2938 17.6425 18.4825 17.4426 17.6711C17.2427 16.8698 16.433 16.379 15.6234 16.5793Z" fill="black"/>
</svg>
