<svg width="24" height="24" viewBox="0 0 24 24" fill="none" xmlns="http://www.w3.org/2000/svg">
<g clip-path="url(#clip0_7513_4245)">
<path d="M18 7C17.45 7 17 7.45 17 8V16C17 18.76 14.76 21 12 21C9.24 21 7 18.76 7 16V6C7 4.35 8.35 3 10 3C11.65 3 13 4.35 13 6V15C13 15.55 12.55 16 12 16C11.45 16 11 15.55 11 15V7C11 6.45 10.55 6 10 6C9.45 6 9 6.45 9 7V15C9 16.65 10.35 18 12 18C13.65 18 15 16.65 15 15V6C15 3.24 12.76 1 10 1C7.24 1 5 3.24 5 6V16C5 19.86 8.14 23 12 23C15.86 23 19 19.86 19 16V8C19 7.45 18.55 7 18 7Z" fill="#18191B"/>
</g>
<defs>
<clipPath id="clip0_7513_4245">
<rect width="14" height="22" fill="white" transform="translate(5 1)"/>
</clipPath>
</defs>
</svg>
