<svg width="24" height="24" viewBox="0 0 24 24" fill="none" xmlns="http://www.w3.org/2000/svg">
<path d="M22.71 5.2845C21.29 3.864 18.86 2.97369 16.59 3.0037C14.83 3.03371 13.26 3.59391 12 4.62427C10.73 3.60391 9.17 3.04371 7.41 3.0037C5.14 2.93367 2.71 3.864 1.29 5.2845C1.1 5.47456 1 5.72465 1 5.99475V19.9997C1 20.3998 1.24 20.7699 1.62 20.92C1.74 20.97 1.87 21 2 21C2.26 21 2.52 20.9 2.71 20.7099C4.4 19.0193 8.39 18.6492 11.42 20.8199C11.44 20.8299 11.46 20.8399 11.48 20.8499C11.5 20.86 11.52 20.88 11.54 20.9C11.56 20.91 11.58 20.91 11.61 20.92C11.65 20.94 11.69 20.95 11.73 20.96C11.78 20.97 11.82 20.98 11.87 20.99C11.91 20.99 11.95 20.99 11.99 20.99C12.04 20.99 12.09 20.99 12.14 20.99C12.18 20.99 12.22 20.97 12.26 20.96C12.3 20.95 12.35 20.93 12.39 20.92C12.41 20.92 12.43 20.91 12.46 20.9C12.48 20.89 12.5 20.87 12.52 20.8499C12.54 20.8399 12.56 20.8299 12.58 20.8199C15.61 18.6492 19.61 19.0293 21.29 20.7099C21.48 20.9 21.74 21 22 21C22.13 21 22.26 20.98 22.38 20.92C22.75 20.7699 23 20.3998 23 19.9997V5.98474C23 5.71465 22.89 5.46456 22.71 5.27449V5.2845ZM3 6.4349C3.94 5.66463 5.58 4.9944 7.37 5.0144C8.38 5.03441 9.8 5.2945 11 6.40489V18.259C9.61 17.6088 8.15 17.3187 6.76 17.3187C5.37 17.3187 4.09 17.6088 3 18.119V6.4349ZM21 18.109C18.82 17.0786 15.76 16.9686 13 18.249V6.40489C14.2 5.2945 15.62 5.02441 16.63 5.0144C18.43 4.98439 20.07 5.67463 21 6.4349V18.119V18.109Z" fill="#18191B"/>
</svg>
