<svg width="24" height="24" viewBox="0 0 24 24" fill="none" xmlns="http://www.w3.org/2000/svg">
<path d="M19 9V14C19 14.55 19.45 15 20 15C20.55 15 21 14.55 21 14V8C21 8 20.99 7.96 20.99 7.94C20.99 7.85 20.97 7.77 20.94 7.68C20.93 7.65 20.92 7.62 20.91 7.59C20.86 7.48 20.8 7.38 20.71 7.3L14.71 1.29C14.62 1.2 14.52 1.14 14.42 1.09C14.39 1.08 14.36 1.07 14.33 1.06C14.24 1.03 14.16 1.01 14.07 1.01C14.05 1.01 14.03 1 14.01 1H6C4.35 1 3 2.35 3 4V20C3 21.65 4.35 23 6 23H12C12.55 23 13 22.55 13 22C13 21.45 12.55 21 12 21H6C5.45 21 5 20.55 5 20V4C5 3.45 5.45 3 6 3H13V6C13 7.65 14.35 9 16 9H19ZM15 6V4.41L17.59 7H16C15.45 7 15 6.55 15 6Z" fill="#18191B"/>
<path d="M22.61 16.49C22.17 16.15 21.55 16.23 21.21 16.66L18.19 20.54L16.38 19.09C15.95 18.75 15.32 18.82 14.97 19.25C14.62 19.68 14.69 20.31 15.13 20.66L17.73 22.74C17.91 22.88 18.13 22.96 18.35 22.96C18.39 22.96 18.43 22.96 18.47 22.96C18.74 22.93 18.98 22.79 19.14 22.58L22.78 17.9C23.12 17.46 23.04 16.84 22.6 16.5L22.61 16.49Z" fill="#18191B"/>
</svg>
