<svg width="24" height="24" viewBox="0 0 24 24" fill="none" xmlns="http://www.w3.org/2000/svg">
<path d="M20 6.01H14.07C13.74 6.01 13.42 5.84 13.24 5.56L12.43 4.34C11.87 3.5 10.94 3 9.93 3H4C2.35 3.01 1 4.36 1 6.01V18.01C1 19.66 2.35 21.01 4 21.01H20C21.65 21.01 23 19.66 23 18.01V9.01C23 7.36 21.65 6.01 20 6.01ZM4 5.01H9.93C10.26 5.01 10.58 5.18 10.76 5.46L11.13 6.01H4C3.65 6.01 3.31 6.08 3 6.19V6.01C3 5.46 3.45 5.01 4 5.01ZM21 18.01C21 18.56 20.55 19.01 20 19.01H4C3.45 19.01 3 18.56 3 18.01V9.01C3 8.46 3.45 8.01 4 8.01H20C20.55 8.01 21 8.46 21 9.01V18.01Z" fill="#18191B"/>
</svg>
