<svg width="24" height="24" viewBox="0 0 24 24" fill="none" xmlns="http://www.w3.org/2000/svg">
<path d="M20.1119 1H4.11194C3.56194 1 3.11194 1.45 3.11194 2V20C3.11194 21.1 3.71194 22.11 4.68194 22.64C5.13194 22.88 5.62194 23 6.11194 23C6.68194 23 7.26194 22.83 7.75194 22.51L12.1119 19.66L16.4719 22.51C17.3919 23.12 18.5719 23.16 19.5419 22.64C20.5119 22.12 21.1119 21.1 21.1119 20V2C21.1119 1.45 20.6619 1 20.1119 1ZM19.1119 20C19.1119 20.54 18.7419 20.79 18.5919 20.88C18.4319 20.96 18.0219 21.13 17.5719 20.84L12.6719 17.63C12.5019 17.52 12.3119 17.47 12.1219 17.47C11.9319 17.47 11.7419 17.52 11.5719 17.63L6.67194 20.84C6.22194 21.13 5.80194 20.97 5.65194 20.88C5.49194 20.8 5.13194 20.54 5.13194 20V3H19.1319V20H19.1119Z" fill="#18191B"/>
</svg>
