<svg width="24" height="24" viewBox="0 0 24 24" fill="none" xmlns="http://www.w3.org/2000/svg">
<path d="M21.74 7.27876L13.78 1.55876C12.75 0.818756 11.36 0.808756 10.32 1.55876L2.28 7.27876C1.48 7.84876 1 8.77876 1 9.76876V21.9988C1 22.5488 1.45 22.9988 2 22.9988H8C8.55 22.9988 9 22.5488 9 21.9988V15.8588C9 15.2788 9.45 14.8188 10 14.8188H14C14.55 14.8188 15 15.2888 15 15.8588V21.9988C15 22.5488 15.45 22.9988 16 22.9988H22C22.55 22.9988 23 22.5488 23 21.9988V9.76876C23 8.77876 22.53 7.84876 21.74 7.28876V7.27876ZM21 20.9988H17V15.8588C17 14.1788 15.65 12.8088 14 12.8088H10C8.35 12.8088 7 14.1788 7 15.8588V20.9988H3V9.76876C3 9.41876 3.16 9.09876 3.44 8.90876L11.49 3.17876C11.83 2.93876 12.28 2.93876 12.62 3.17876L20.57 8.89876C20.84 9.09876 21 9.41876 21 9.75876V20.9988Z" fill="#18191B"/>
</svg>
