<svg width="24" height="24" viewBox="0 0 24 24" fill="none" xmlns="http://www.w3.org/2000/svg">
<path d="M8.38192 14.87C8.34192 14.52 8.33192 13.33 9.89192 12.97C13.1219 12.23 13.1219 9.81 13.1219 6.99H11.1219C11.1219 10.19 10.9219 10.68 9.45192 11.02C7.09192 11.56 6.21192 13.45 6.40192 15.09C6.59192 16.79 7.93192 18.51 10.1319 18.51H14.1319V16.51H10.1319C9.11192 16.51 8.48192 15.68 8.39192 14.86L8.38192 14.87Z" fill="#18191B"/>
<path d="M9.62192 10V8C9.62192 7.45 9.17192 7 8.62192 7C8.07192 7 7.62192 7.45 7.62192 8V10C7.62192 10.55 8.07192 11 8.62192 11C9.17192 11 9.62192 10.55 9.62192 10Z" fill="#18191B"/>
<path d="M15.6219 7C15.0719 7 14.6219 7.44 14.6219 7.99V9.99C14.6019 10.54 15.0519 10.99 15.6019 11C16.1519 11 16.6019 10.56 16.6019 10.01V8.01C16.6219 7.46 16.1719 7.01 15.6219 7Z" fill="#18191B"/>
<path d="M12.1119 1C6.04192 1 1.11192 5.93 1.11192 12V22C1.11192 22.55 1.56192 23 2.11192 23C2.66192 23 3.11192 22.55 3.11192 22V12C3.11192 7.04 7.15192 3 12.1119 3C17.0719 3 21.1119 7.04 21.1119 12V22C21.1119 22.55 21.5619 23 22.1119 23C22.6619 23 23.1119 22.55 23.1119 22V12C23.1119 5.93 18.1819 1 12.1119 1Z" fill="#18191B"/>
</svg>
