<svg width="24" height="24" viewBox="0 0 24 24" fill="none" xmlns="http://www.w3.org/2000/svg">
<path d="M20 5H18.62L17.9 3.55C17.73 3.21 17.38 3 17.01 3H12.01C11.63 3 11.29 3.21 11.12 3.55L10.4 5H4C2.35 5 1 6.35 1 8V18C1 19.65 2.35 21 4 21H20C21.65 21 23 19.65 23 18V8C23 6.35 21.65 5 20 5ZM21 18C21 18.55 20.55 19 20 19H4C3.45 19 3 18.55 3 18V8C3 7.45 3.45 7 4 7H11C11.38 7 11.72 6.79 11.89 6.45L12.61 5H16.37L17.09 6.45C17.26 6.79 17.61 7 17.98 7H19.98C20.53 7 20.98 7.45 20.98 8V18H21Z" fill="#18191B"/>
<path d="M14.5 7.5C11.74 7.5 9.5 9.74 9.5 12.5C9.5 15.26 11.74 17.5 14.5 17.5C17.26 17.5 19.5 15.26 19.5 12.5C19.5 9.74 17.26 7.5 14.5 7.5ZM14.5 15.5C12.85 15.5 11.5 14.15 11.5 12.5C11.5 10.85 12.85 9.5 14.5 9.5C16.15 9.5 17.5 10.85 17.5 12.5C17.5 14.15 16.15 15.5 14.5 15.5Z" fill="#18191B"/>
<path d="M7 9H5C4.45 9 4 9.45 4 10C4 10.55 4.45 11 5 11H7C7.55 11 8 10.55 8 10C8 9.45 7.55 9 7 9Z" fill="#18191B"/>
</svg>
