<svg width="24" height="24" viewBox="0 0 24 24" fill="none" xmlns="http://www.w3.org/2000/svg">
<path d="M16.503 9.85597C16.2831 9.61608 16.0032 9.42617 15.6833 9.28623C15.3635 9.1463 15.0036 9.07633 14.6038 9.07633C14.204 9.07633 13.8442 9.1463 13.5243 9.28623C13.2045 9.42617 12.9246 9.61608 12.7047 9.85597C12.4848 10.0959 12.3049 10.3957 12.1849 10.7356C12.065 11.0754 12.005 11.4552 12.005 11.8551C12.005 12.2549 12.065 12.6347 12.1849 12.9746C12.3049 13.3144 12.4848 13.6143 12.7047 13.8542C12.9246 14.094 13.2045 14.284 13.5243 14.4239C13.8442 14.5638 14.204 14.6338 14.6038 14.6338C15.0036 14.6338 15.3635 14.5638 15.6833 14.4239C16.0032 14.284 16.2731 14.094 16.503 13.8542C16.7229 13.6143 16.8928 13.3144 17.0227 12.9746C17.1427 12.6347 17.2026 12.2549 17.2026 11.8551C17.2026 11.4552 17.1427 11.0754 17.0227 10.7356C16.9028 10.3957 16.7229 10.0959 16.503 9.85597Z" fill="#18191B"/>
<path d="M5.05816 1C2.81917 1 1 2.81917 1 5.05816V18.9418C1 21.1808 2.81917 23 5.05816 23H18.9418C21.1808 23 23 21.1808 23 18.9418V5.05816C23 2.81917 21.1808 1 18.9418 1H5.05816ZM8.41663 16.2231C8.41663 16.313 8.33666 16.393 8.23671 16.393H6.38755C6.2876 16.393 6.20763 16.313 6.20763 16.2231V7.49705C6.20763 7.40709 6.2876 7.32712 6.38755 7.32712H8.23671C8.33666 7.32712 8.41663 7.40709 8.41663 7.49705V16.2231ZM8.76647 6.09768C8.7065 6.17765 8.59655 6.22762 8.49659 6.22762H6.14766C6.03771 6.22762 5.93776 6.18764 5.87778 6.09768C5.77783 5.96774 5.78782 5.80781 5.89777 5.68787L7.03726 4.42844C7.14721 4.2985 7.34711 4.25852 7.51704 4.34848C7.55702 4.36847 7.58701 4.39846 7.61699 4.42844L8.75647 5.68787C8.85643 5.79782 8.86642 5.96774 8.77647 6.09768H8.76647ZM16.0332 18.3021L14.8937 19.5616C14.7837 19.6915 14.5838 19.7315 14.4139 19.6415C14.3739 19.6215 14.3439 19.5915 14.3139 19.5616L13.1745 18.3021C13.0745 18.1922 13.0645 18.0223 13.1545 17.8923C13.2144 17.8124 13.3244 17.7624 13.4244 17.7624H15.7733C15.8832 17.7624 15.9832 17.8024 16.0432 17.8923C16.1331 18.0223 16.1231 18.1822 16.0232 18.3021H16.0332ZM19.0418 13.7442C18.7919 14.3239 18.4521 14.8437 18.0223 15.2735C17.5925 15.7033 17.0827 16.0432 16.493 16.293C15.9132 16.5429 15.2735 16.6729 14.6038 16.6729C13.9341 16.6729 13.2944 16.5429 12.7147 16.293C12.1349 16.0432 11.6152 15.6933 11.1854 15.2735C10.7556 14.8437 10.4157 14.3339 10.1658 13.7442C9.91595 13.1645 9.796 12.5248 9.796 11.8651C9.796 11.2054 9.92594 10.5657 10.1658 9.99591C10.4157 9.41617 10.7556 8.90641 11.1854 8.46661C11.6152 8.02681 12.1249 7.68696 12.7147 7.43707C13.2944 7.18719 13.9341 7.05725 14.6038 7.05725C15.2735 7.05725 15.9132 7.18719 16.493 7.43707C17.0727 7.68696 17.5925 8.0368 18.0223 8.46661C18.4521 8.90641 18.7919 9.41617 19.0418 9.99591C19.2917 10.5756 19.4116 11.2054 19.4116 11.8651C19.4116 12.5248 19.2817 13.1645 19.0418 13.7442Z" fill="#18191B"/>
</svg>
