<svg width="24" height="24" viewBox="0 0 24 24" fill="none" xmlns="http://www.w3.org/2000/svg">
<path d="M23 10.999C23 9.48902 22.23 8.08902 21 7.25902V1.99902C21 1.65902 20.83 1.33902 20.54 1.15902C20.25 0.979019 19.89 0.949019 19.58 1.08902L8.78 5.99902H4C2.35 5.99902 1 7.34902 1 8.99902V12.999C1 14.299 1.84 15.399 3 15.819V21.999C3 22.549 3.45 22.999 4 22.999H9C9.55 22.999 10 22.549 10 21.999V16.549L19.59 20.909C19.72 20.969 19.86 20.999 20 20.999C20.19 20.999 20.38 20.949 20.54 20.839C20.83 20.659 21 20.339 21 19.999V14.739C22.23 13.909 23 12.509 23 10.999ZM3 8.99902C3 8.44902 3.45 7.99902 4 7.99902H8V13.999H4C3.45 13.999 3 13.549 3 12.999V8.99902ZM8 20.999H5V15.999H8V20.999ZM19 18.449L10 14.359V7.64902L19 3.55902V18.449Z" fill="#18191B"/>
</svg>
