<svg width="24" height="24" viewBox="0 0 24 24" fill="none" xmlns="http://www.w3.org/2000/svg">
<path d="M21.74 13.03L20.94 12.57C20.95 12.37 20.96 12.19 20.96 12.01C20.96 11.83 20.96 11.64 20.94 11.45L21.74 10.99C22.21 10.72 22.54 10.29 22.68 9.77C22.82 9.25 22.75 8.71 22.48 8.24L20.5 4.8C19.95 3.84 18.71 3.51 17.76 4.06L16.96 4.52C16.65 4.31 16.32 4.12 15.99 3.95V3.02C15.99 1.91 15.09 1 13.98 1H10.03C8.92 1 8.02 1.9 8.02 3.02V3.95C7.69 4.12 7.36 4.31 7.05 4.52L6.25 4.06C5.29 3.5 4.06 3.83 3.51 4.8L1.52 8.22C1.25 8.69 1.18 9.23 1.32 9.75C1.46 10.27 1.79 10.71 2.26 10.97L3.06 11.43C3.05 11.63 3.04 11.81 3.04 11.99C3.04 12.17 3.04 12.36 3.06 12.55L2.26 13.01C1.79 13.28 1.46 13.71 1.32 14.23C1.18 14.75 1.25 15.29 1.52 15.76L3.5 19.2C4.05 20.16 5.29 20.49 6.24 19.94L7.04 19.48C7.35 19.69 7.68 19.88 8.01 20.05V20.98C8.01 22.09 8.91 23 10.02 23H13.97C15.08 23 15.98 22.1 15.98 20.98V20.05C16.31 19.88 16.64 19.69 16.95 19.48L17.75 19.94C18.71 20.49 19.94 20.16 20.49 19.2L22.47 15.76C22.74 15.29 22.81 14.75 22.67 14.23C22.53 13.71 22.2 13.27 21.73 13.01L21.74 13.03ZM18.76 18.22L17.4 17.43C17.05 17.23 16.61 17.26 16.29 17.51C15.78 17.91 15.21 18.24 14.62 18.48C14.24 18.63 14 19 14 19.41L13.98 21L10.01 20.98V19.41C10.01 19 9.76 18.64 9.39 18.48C8.8 18.24 8.24 17.91 7.72 17.51C7.54 17.37 7.32 17.3 7.11 17.3C6.94 17.3 6.77 17.34 6.61 17.43L5.23 18.21L3.26 14.75L4.62 13.96C4.97 13.76 5.16 13.36 5.11 12.96C5.06 12.58 5.03 12.28 5.03 11.99C5.03 11.7 5.05 11.4 5.11 11.02C5.16 10.62 4.97 10.22 4.62 10.02L3.25 9.21L5.25 5.77L6.61 6.56C6.96 6.76 7.4 6.73 7.72 6.48C8.24 6.08 8.8 5.75 9.39 5.51C9.77 5.36 10.01 4.99 10.01 4.58L10.03 2.99L14 3.01V4.58C14 4.99 14.25 5.35 14.62 5.51C15.21 5.75 15.77 6.08 16.29 6.48C16.61 6.73 17.05 6.76 17.4 6.56L18.78 5.78L20.75 9.24L19.39 10.03C19.04 10.23 18.85 10.63 18.9 11.03C18.95 11.4 18.98 11.71 18.98 12C18.98 12.29 18.96 12.59 18.9 12.97C18.84 13.37 19.04 13.77 19.39 13.97L20.76 14.78L18.76 18.22Z" fill="#18191B"/>
<path d="M12 7.5C9.53 7.5 7.52 9.52 7.52 12C7.52 14.48 9.53 16.5 12 16.5C14.47 16.5 16.48 14.48 16.48 12C16.48 9.52 14.47 7.5 12 7.5ZM12 14.5C10.63 14.5 9.51 13.38 9.51 12C9.51 10.62 10.63 9.5 12 9.5C13.37 9.5 14.49 10.62 14.49 12C14.49 13.38 13.37 14.5 12 14.5Z" fill="#18191B"/>
</svg>
