<svg width="24" height="24" viewBox="0 0 24 24" fill="none" xmlns="http://www.w3.org/2000/svg">
<g clip-path="url(#clip0_7513_4155)">
<path d="M12.99 11.0045C10.23 11.0045 7.99 13.2456 7.99 16.0068C7.99 17.0273 8.3 17.9677 8.82 18.7581L6.28 21.2992C5.89 21.6894 5.89 22.3197 6.28 22.7099C6.48 22.91 6.73 23 6.99 23C7.25 23 7.5 22.9 7.7 22.7099L10.24 20.1687C11.03 20.6889 11.98 20.9991 12.99 20.9991C15.75 20.9991 17.99 18.7581 17.99 15.9968C17.99 13.2356 15.75 10.9945 12.99 10.9945V11.0045ZM12.99 19.0082C11.34 19.0082 9.99 17.6576 9.99 16.0068C9.99 14.3561 11.34 13.0055 12.99 13.0055C14.64 13.0055 15.99 14.3561 15.99 16.0068C15.99 17.6576 14.64 19.0082 12.99 19.0082Z" fill="#18191B"/>
<path d="M20 1H4C2.35 1 1 2.35061 1 4.00136V14.0059C1 15.6567 2.35 17.0073 4 17.0073H6C6.55 17.0073 7 16.5571 7 16.0068C7 15.4566 6.55 15.0064 6 15.0064H4C3.45 15.0064 3 14.5562 3 14.0059V4.00136C3 3.45111 3.45 3.00091 4 3.00091H20C20.55 3.00091 21 3.45111 21 4.00136V14.0059C21 14.5562 20.55 15.0064 20 15.0064C19.45 15.0064 19 15.4566 19 16.0068C19 16.5571 19.45 17.0073 20 17.0073C21.65 17.0073 23 15.6567 23 14.0059V4.00136C23 2.35061 21.65 1 20 1Z" fill="#18191B"/>
<path d="M13 6.00227C13 5.45202 12.55 5.00182 12 5.00182H6C5.45 5.00182 5 5.45202 5 6.00227C5 6.55252 5.45 7.00273 6 7.00273H12C12.55 7.00273 13 6.55252 13 6.00227Z" fill="#18191B"/>
</g>
<defs>
<clipPath id="clip0_7513_4155">
<rect width="24" height="24" fill="white"/>
</clipPath>
</defs>
</svg>
