<svg width="24" height="24" viewBox="0 0 24 24" fill="none" xmlns="http://www.w3.org/2000/svg">
<path d="M20 1H4C2.35 1 1 2.35 1 4V20C1 21.65 2.35 23 4 23H20C21.65 23 23 21.65 23 20V4C23 2.35 21.65 1 20 1ZM21 20C21 20.55 20.55 21 20 21H4C3.45 21 3 20.55 3 20V4C3 3.45 3.45 3 4 3H20C20.55 3 21 3.45 21 4V20Z" fill="#18191B"/>
<path d="M7 5C6.45 5 6 5.45 6 6V18C6 18.55 6.45 19 7 19C7.55 19 8 18.55 8 18V6C8 5.45 7.55 5 7 5Z" fill="#18191B"/>
<path d="M17 8C16.45 8 16 8.45 16 9V18C16 18.55 16.45 19 17 19C17.55 19 18 18.55 18 18V9C18 8.45 17.55 8 17 8Z" fill="#18191B"/>
<path d="M12 11C11.45 11 11 11.45 11 12V18C11 18.55 11.45 19 12 19C12.55 19 13 18.55 13 18V12C13 11.45 12.55 11 12 11Z" fill="#18191B"/>
</svg>
