<svg width="24" height="24" viewBox="0 0 24 24" fill="none" xmlns="http://www.w3.org/2000/svg">
<path d="M15.84 3.52L10.85 8.51C10.7 8.66 10.6 8.85 10.57 9.06L9.98 12.81C9.93 13.13 10.03 13.45 10.26 13.67C10.45 13.86 10.7 13.96 10.97 13.96C11.02 13.96 11.07 13.96 11.13 13.95L14.88 13.36C15.09 13.33 15.28 13.23 15.43 13.08L22.66 5.85C23.05 5.46 23.05 4.83 22.66 4.44L19.5 1.28C19.12 0.91 18.46 0.91 18.09 1.28L15.85 3.52H15.84ZM14.24 11.45L12.17 11.78L12.5 9.71L16.56 5.65L18.31 7.4L14.25 11.45H14.24ZM18.79 3.4L20.54 5.15L19.71 5.98L17.96 4.23L18.79 3.4Z" fill="#18191B"/>
<path d="M22 9.01C21.45 9.01 21 9.46 21 10.01V20.01C21 20.56 20.55 21.01 20 21.01H4C3.45 21.01 3 20.56 3 20.01V4.01C3 3.46 3.45 3.01 4 3.01H14C14.55 3.01 15 2.56 15 2.01C15 1.46 14.55 1 14 1H4C2.35 1 1 2.35 1 4.01V20C1 21.65 2.35 23 4 23H20C21.65 23 23 21.65 23 20V10C23 9.45 22.55 9 22 9V9.01Z" fill="#18191B"/>
</svg>
