<svg viewBox="0 0 16 16" fill="none" xmlns="http://www.w3.org/2000/svg">
<path d="M15.5281 5.86257L9.27806 2.11257C9.03806 1.97257 8.74806 1.97257 8.50806 2.11257L2.24806 5.86257C2.01806 6.00257 1.88806 6.25257 1.88806 6.52257C1.88806 6.79257 2.04806 7.04257 2.28806 7.16257L3.63806 7.86257V10.2426C3.63806 11.8926 6.10806 13.9926 8.88806 13.9926C11.6681 13.9926 14.1381 11.8926 14.1381 10.2426V7.86257L15.4881 7.16257C15.7281 7.04257 15.8881 6.79257 15.8881 6.52257C15.8881 6.25257 15.7581 5.99257 15.5281 5.85257V5.86257ZM8.88806 3.63257L13.5981 6.46257L8.88806 8.91257L4.17806 6.46257L8.88806 3.63257ZM12.6381 10.2526C12.6381 10.9026 11.0181 12.5026 8.88806 12.5026C6.75806 12.5026 5.13806 10.9026 5.13806 10.2526V8.65257L8.53806 10.4226C8.64806 10.4826 8.76806 10.5026 8.88806 10.5026C9.00806 10.5026 9.12806 10.4726 9.23806 10.4226L12.6381 8.65257V10.2526Z" fill="currentColor"/>
</svg>
