<svg viewBox="0 0 16 16" fill="none" xmlns="http://www.w3.org/2000/svg">
<path d="M13.3211 7.25447C10.6057 6.91422 9.0183 4.99285 8.72879 1.68049C8.69883 1.29021 8.36938 1 7.98003 1C7.59068 1 7.27121 1.30021 7.23128 1.68049C6.94176 4.99285 5.35441 6.92423 2.63894 7.25447C2.28952 7.2945 2 7.61472 2 7.98499C2 8.36526 2.26955 8.68549 2.63894 8.73552C5.36439 9.15582 6.95175 11.0772 7.25125 14.3195C7.29118 14.7098 7.61065 15 8 15C8.38935 15 8.70882 14.6998 8.74875 14.3195C9.03827 11.0872 10.6256 9.15582 13.3611 8.73552C13.7304 8.67548 14 8.35525 14 7.98499C14 7.61472 13.7105 7.2945 13.3411 7.25447H13.3211Z" fill="currentColor"/>
</svg>
