<svg viewBox="0 0 16 16" fill="none" xmlns="http://www.w3.org/2000/svg">
<path d="M14.7812 13.7059L12.3812 11.3076C13.2412 10.2184 13.7512 8.85938 13.7512 7.37044C13.7512 3.85295 10.8912 0.994995 7.37122 0.994995C3.85122 0.994995 1.00122 3.85295 1.00122 7.37044C1.00122 10.8879 3.86122 13.7459 7.38122 13.7459C8.87122 13.7459 10.2312 13.2263 11.3212 12.3769L13.7212 14.7752C13.8712 14.925 14.0612 14.995 14.2512 14.995C14.4412 14.995 14.6312 14.925 14.7812 14.7752C15.0712 14.4854 15.0712 14.0057 14.7812 13.7159V13.7059ZM2.50122 7.37044C2.50122 4.68236 4.69122 2.49392 7.38122 2.49392C10.0712 2.49392 12.2612 4.68236 12.2612 7.37044C12.2612 10.0585 10.0712 12.247 7.38122 12.247C4.69122 12.247 2.50122 10.0485 2.50122 7.37044Z" fill="currentColor"/>
<path d="M10.5012 7.24053C10.5012 6.83083 10.1712 6.49107 9.75122 6.49107H9.50122C9.37122 6.24125 9.20122 6.01141 9.00122 5.83154L9.40122 5.11205C9.60122 4.75231 9.47122 4.29264 9.11122 4.09278C8.75122 3.89293 8.29122 4.02283 8.09122 4.38258L7.60122 5.26195C7.60122 5.26195 7.53122 5.25195 7.50122 5.25195C7.47122 5.25195 7.43122 5.25195 7.40122 5.26195L6.91122 4.38258C6.71122 4.02283 6.25122 3.89293 5.89122 4.09278C5.53122 4.29264 5.40122 4.75231 5.60122 5.11205L6.00122 5.83154C5.79122 6.02141 5.62122 6.24125 5.50122 6.49107H5.25122C4.84122 6.49107 4.50122 6.83083 4.50122 7.24053C4.50122 7.65024 4.84122 7.99 5.25122 7.99V8.48964C4.84122 8.48964 4.50122 8.8294 4.50122 9.23911C4.50122 9.64881 4.84122 9.98857 5.25122 9.98857H5.84122C6.25122 10.4482 6.84122 10.738 7.50122 10.738C8.16122 10.738 8.75122 10.4482 9.16122 9.98857H9.75122C10.1612 9.98857 10.5012 9.64881 10.5012 9.23911C10.5012 8.8294 10.1612 8.48964 9.75122 8.48964V7.99C10.1612 7.99 10.5012 7.65024 10.5012 7.24053ZM7.50122 9.23911C7.09122 9.23911 6.75122 8.89935 6.75122 8.48964V7.49036C6.75122 7.08065 7.09122 6.74089 7.50122 6.74089C7.91122 6.74089 8.25122 7.08065 8.25122 7.49036V8.48964C8.25122 8.89935 7.91122 9.23911 7.50122 9.23911Z" fill="currentColor"/>
</svg>
