<svg viewBox="0 0 16 16" fill="none" xmlns="http://www.w3.org/2000/svg">
<path d="M13.3111 7.26C10.5956 6.92 9.00829 5 8.71878 1.69C8.68883 1.3 8.35937 1.01 7.97002 1C7.58067 1 7.2612 1.3 7.22127 1.68C6.93175 4.99 5.3444 6.91 2.62893 7.25C2.27951 7.3 1.98999 7.62 1.98999 7.99C1.98999 8.36 2.25954 8.69 2.62893 8.74C5.35438 9.15 6.94174 11.08 7.24124 14.32C7.28117 14.71 7.60064 15 7.98999 15C8.37934 15 8.69881 14.7 8.73874 14.32C9.02826 11.09 10.6156 9.16 13.3511 8.75C13.7204 8.69 13.99 8.37 13.99 8C13.99 7.63 13.7005 7.31 13.3311 7.27L13.3111 7.26ZM7.98001 11.11C7.37102 9.73 6.43259 8.69 5.20463 8.02C6.44257 7.37 7.381 6.33 7.98001 4.93C8.58899 6.32 9.51744 7.37 10.7554 8.02C9.51744 8.69 8.57901 9.73 7.98001 11.11Z" fill="currentColor"/>
</svg>
