<svg viewBox="0 0 16 16" fill="none" xmlns="http://www.w3.org/2000/svg">
<path d="M8 2.24872C4.55 2.24872 1.75 5.04872 1.75 8.49872C1.75 10.1387 2.39 11.6387 3.43 12.7487L2.46 13.7187C2.17 14.0087 2.17 14.4887 2.46 14.7787C2.61 14.9287 2.8 14.9987 2.99 14.9987C3.18 14.9987 3.37 14.9287 3.52 14.7787L4.57 13.7287C5.55 14.3687 6.73 14.7487 7.99 14.7487C9.25 14.7487 10.43 14.3687 11.41 13.7287L12.46 14.7787C12.61 14.9287 12.8 14.9987 12.99 14.9987C13.18 14.9987 13.37 14.9287 13.52 14.7787C13.81 14.4887 13.81 14.0087 13.52 13.7187L12.56 12.7487C13.6 11.6287 14.24 10.1387 14.24 8.49872C14.24 5.04872 11.44 2.24872 7.99 2.24872H8ZM3.25 8.49872C3.25 5.87872 5.38 3.74872 8 3.74872C10.62 3.74872 12.75 5.87872 12.75 8.49872C12.75 11.1187 10.62 13.2487 8 13.2487C5.38 13.2487 3.25 11.1187 3.25 8.49872Z" fill="currentColor"/>
<path d="M9.75 7.74872H8.75V5.49872C8.75 5.08872 8.41 4.74872 8 4.74872C7.59 4.74872 7.25 5.08872 7.25 5.49872V8.49872C7.25 8.90872 7.59 9.24872 8 9.24872H9.75C10.16 9.24872 10.5 8.90872 10.5 8.49872C10.5 8.08872 10.16 7.74872 9.75 7.74872Z" fill="currentColor"/>
<path d="M2.28 4.27872L4.28 2.27872C4.57 1.98872 4.57 1.50872 4.28 1.21872C3.99 0.928721 3.51 0.928721 3.22 1.21872L1.22 3.21872C0.930002 3.50872 0.930002 3.98872 1.22 4.27872C1.37 4.42872 1.56 4.49872 1.75 4.49872C1.94 4.49872 2.13 4.42872 2.28 4.27872Z" fill="currentColor"/>
<path d="M14.78 3.21872L12.78 1.21872C12.49 0.928721 12.01 0.928721 11.72 1.21872C11.43 1.50872 11.43 1.98872 11.72 2.27872L13.72 4.27872C13.87 4.42872 14.06 4.49872 14.25 4.49872C14.44 4.49872 14.63 4.42872 14.78 4.27872C15.07 3.98872 15.07 3.50872 14.78 3.21872Z" fill="currentColor"/>
</svg>
