<svg viewBox="0 0 16 16" fill="none" xmlns="http://www.w3.org/2000/svg">
<path d="M11.25 1H4.75C2.68 1 1 2.68 1 4.75V11.25C1 13.32 2.68 15 4.75 15H11.25C13.32 15 15 13.32 15 11.25V4.75C15 2.68 13.32 1 11.25 1ZM13.5 11.25C13.5 12.49 12.49 13.5 11.25 13.5H4.75C3.51 13.5 2.5 12.49 2.5 11.25V4.75C2.5 3.51 3.51 2.5 4.75 2.5H11.25C12.49 2.5 13.5 3.51 13.5 4.75V11.25Z" fill="currentColor"/>
<path d="M10.18 5.76L7.4 8.97L5.71 7.66C5.38 7.4 4.91 7.47 4.66 7.79C4.41 8.12 4.46 8.59 4.79 8.84L7.04 10.59C7.18 10.7 7.34 10.75 7.5 10.75C7.71 10.75 7.92 10.66 8.07 10.49L11.32 6.74C11.59 6.43 11.56 5.95 11.24 5.68C10.93 5.41 10.45 5.44 10.18 5.76Z" fill="currentColor"/>
</svg>
