<svg viewBox="0 0 16 16" fill="none" xmlns="http://www.w3.org/2000/svg">
<path d="M8 1C11.86 1 15 4.14 15 8C15 11.86 11.86 15 8 15C4.14 15 1 11.86 1 8C1 4.14 4.14 1 8 1ZM4.31 8.29C4.35 8.38 4.4 8.46 4.47 8.53L6.47 10.53C6.62 10.68 6.81 10.75 7 10.75C7.19 10.75 7.38 10.68 7.53 10.53C7.82 10.24 7.82 9.76 7.53 9.47L6.81 8.75H11C11.41 8.75 11.75 8.41 11.75 8C11.75 7.59 11.41 7.25 11 7.25H6.81L7.53 6.53C7.82 6.24 7.82 5.76 7.53 5.47C7.24 5.18 6.76 5.18 6.47 5.47L4.47 7.47C4.4 7.54 4.35 7.62 4.31 7.71C4.23 7.89 4.23 8.1 4.31 8.28V8.29Z" fill="currentColor"/>
</svg>
