<svg viewBox="0 0 16 16" fill="none" xmlns="http://www.w3.org/2000/svg">
<path d="M3.05027 3.05025C0.32084 5.77968 0.32084 10.2203 3.05027 12.9497C5.7797 15.6792 10.2203 15.6792 12.9498 12.9497C15.6792 10.2203 15.6792 5.77968 12.9498 3.05025C10.2203 0.320821 5.7797 0.320821 3.05027 3.05025ZM10.8143 5.59584C10.8497 5.68776 10.8709 5.77969 10.8709 5.87868L10.8709 8.70711C10.8709 8.91924 10.786 9.10309 10.6517 9.23744C10.5173 9.37179 10.3335 9.45664 10.1213 9.45664C9.71122 9.45664 9.37181 9.11723 9.37181 8.70711L9.37181 7.68887L6.40903 10.6517C6.11912 10.9416 5.63828 10.9416 5.34837 10.6517C5.05846 10.3617 5.05846 9.8809 5.34837 9.59099L8.31115 6.62821H7.29291C6.88279 6.62821 6.54338 6.2888 6.54338 5.87868C6.54338 5.46856 6.88279 5.12915 7.29291 5.12915H10.1213C10.2203 5.12915 10.3123 5.15036 10.4042 5.18572C10.588 5.25643 10.7365 5.40492 10.8072 5.58877L10.8143 5.59584Z" fill="currentColor"/>
</svg>
