<svg viewBox="0 0 16 16" fill="none" xmlns="http://www.w3.org/2000/svg">
<path d="M13.2494 7.26287H4.66222L6.50375 5.55015C6.804 5.2697 6.82402 4.78894 6.54379 4.48846C6.26355 4.18798 5.78315 4.16795 5.4829 4.4484L2.23019 7.45317C2.23019 7.45317 2.23019 7.45317 2.23019 7.46319C2.18015 7.51327 2.14012 7.58338 2.10008 7.64347C2.09008 7.66351 2.07006 7.68354 2.06005 7.70357C2.02002 7.79371 2 7.89387 2 8.00405V8.02408C2 8.12424 2.02002 8.21438 2.06005 8.29451C2.07006 8.31454 2.09008 8.33457 2.10008 8.3546C2.14012 8.4147 2.17014 8.48481 2.23019 8.53489C2.23019 8.53489 2.23019 8.53489 2.23019 8.54491L5.4829 11.5497C5.62302 11.6799 5.81318 11.75 5.99333 11.75C6.19349 11.75 6.39366 11.6699 6.54379 11.5096C6.82402 11.2091 6.804 10.7284 6.50375 10.4479L4.66222 8.74522H13.2494V8.75524C13.6597 8.75524 14 8.4147 14 8.00405C14 7.59339 13.6697 7.25285 13.2494 7.25285V7.26287Z" fill="currentColor"/>
</svg>
