<svg viewBox="0 0 16 16" fill="none" xmlns="http://www.w3.org/2000/svg">
<path d="M8 1C11.86 1 15 4.14 15 8C15 11.86 11.86 15 8 15C4.14 15 1 11.86 1 8C1 4.14 4.14 1 8 1ZM8 13.5C11.03 13.5 13.5 11.03 13.5 8C13.5 4.97 11.03 2.5 8 2.5C4.97 2.5 2.5 4.97 2.5 8C2.5 11.03 4.97 13.5 8 13.5Z" fill="currentColor"/>
<path d="M4.31 7.71C4.35 7.62 4.4 7.54 4.47 7.47L6.47 5.47C6.76 5.18 7.24 5.18 7.53 5.47C7.82 5.76 7.82 6.24 7.53 6.53L6.81 7.25H11C11.41 7.25 11.75 7.59 11.75 8C11.75 8.41 11.41 8.75 11 8.75H6.81L7.53 9.47C7.82 9.76 7.82 10.24 7.53 10.53C7.38 10.68 7.19 10.75 7 10.75C6.81 10.75 6.62 10.68 6.47 10.53L4.47 8.53C4.4 8.46 4.35 8.38 4.31 8.29C4.23 8.11 4.23 7.9 4.31 7.72V7.71Z" fill="currentColor"/>
</svg>
