<svg viewBox="0 0 16 16" fill="none" xmlns="http://www.w3.org/2000/svg">
<path d="M7.26287 13.2494L7.26287 4.66222L5.55015 6.50375C5.2697 6.804 4.78894 6.82402 4.48846 6.54379C4.18798 6.26355 4.16795 5.78315 4.4484 5.4829L7.45317 2.23019C7.45317 2.23019 7.45317 2.23019 7.46319 2.23019C7.51327 2.18015 7.58338 2.14012 7.64347 2.10008C7.66351 2.09008 7.68354 2.07006 7.70357 2.06005C7.79371 2.02002 7.89387 2 8.00405 2L8.02408 2C8.12424 2 8.21438 2.02002 8.29451 2.06005C8.31454 2.07006 8.33457 2.09008 8.3546 2.10008C8.4147 2.14012 8.48481 2.17014 8.53489 2.23019C8.53489 2.23019 8.53489 2.23019 8.54491 2.23019L11.5497 5.4829C11.6799 5.62302 11.75 5.81318 11.75 5.99333C11.75 6.19349 11.6699 6.39366 11.5096 6.54379C11.2091 6.82402 10.7284 6.804 10.4479 6.50375L8.74522 4.66222L8.74522 13.2494L8.75524 13.2494C8.75524 13.6597 8.4147 14 8.00405 14C7.59339 14 7.25285 13.6697 7.25285 13.2494L7.26287 13.2494Z" fill="currentColor"/>
</svg>
