<svg viewBox="0 0 16 16" fill="none" xmlns="http://www.w3.org/2000/svg">
<g clip-path="url(#clip0_7873_6354)">
<path d="M12.9499 3.05033C10.2204 0.320901 5.77981 0.320901 3.05037 3.05033C0.320942 5.77977 0.320943 10.2204 3.05038 12.9498C5.77981 15.6793 10.2204 15.6793 12.9499 12.9498C15.6793 10.2204 15.6793 5.77977 12.9499 3.05033ZM4.11104 11.8892C1.9685 9.74663 1.9685 6.25353 4.11103 4.11099C6.25357 1.96846 9.74668 1.96846 11.8892 4.11099C14.0317 6.25353 14.0317 9.74663 11.8892 11.8892C9.74668 14.0317 6.25357 14.0317 4.11104 11.8892Z" fill="currentColor"/>
<path d="M10.8144 10.4042C10.8498 10.3123 10.871 10.2204 10.871 10.1214L10.871 7.29297C10.871 6.88285 10.5316 6.54344 10.1214 6.54344C9.71132 6.54344 9.37191 6.88285 9.37191 7.29297L9.37191 8.31121L6.40913 5.34843C6.11922 5.05852 5.63839 5.05852 5.34847 5.34843C5.05856 5.63834 5.05856 6.11918 5.34847 6.40909L8.31125 9.37187L7.29301 9.37187C6.88289 9.37187 6.54348 9.71128 6.54348 10.1214C6.54348 10.3335 6.62833 10.5174 6.76269 10.6517C6.89704 10.7861 7.08088 10.8709 7.29302 10.8709H10.1214C10.2204 10.8709 10.3124 10.8497 10.4043 10.8144C10.5881 10.7437 10.7366 10.5952 10.8073 10.4113L10.8144 10.4042Z" fill="currentColor"/>
</g>
<defs>
<clipPath>
<rect fill="currentColor"/>
</clipPath>
</defs>
</svg>
