<svg viewBox="0 0 16 16" fill="none" xmlns="http://www.w3.org/2000/svg">
<path d="M8 1C4.14 1 1 4.14 1 8C1 11.86 4.14 15 8 15C11.86 15 15 11.86 15 8C15 4.14 11.86 1 8 1ZM8 13.5C4.97 13.5 2.5 11.03 2.5 8C2.5 4.97 4.97 2.5 8 2.5C11.03 2.5 13.5 4.97 13.5 8C13.5 11.03 11.03 13.5 8 13.5Z" fill="currentColor"/>
<path d="M11.69 7.71C11.65 7.62 11.6 7.54 11.53 7.47L9.53 5.47C9.24 5.18 8.76 5.18 8.47 5.47C8.18 5.76 8.18 6.24 8.47 6.53L9.19 7.25H5C4.59 7.25 4.25 7.59 4.25 8C4.25 8.41 4.59 8.75 5 8.75H9.19L8.47 9.47C8.18 9.76 8.18 10.24 8.47 10.53C8.62 10.68 8.81 10.75 9 10.75C9.19 10.75 9.38 10.68 9.53 10.53L11.53 8.53C11.6 8.46 11.65 8.38 11.69 8.29C11.77 8.11 11.77 7.9 11.69 7.72V7.71Z" fill="currentColor"/>
</svg>
