<svg viewBox="0 0 16 16" fill="none" xmlns="http://www.w3.org/2000/svg">
<g clip-path="url(#clip0_7873_6344)">
<path d="M12.9499 12.9499C10.2204 15.6793 5.77981 15.6793 3.05037 12.9499C0.320942 10.2205 0.320943 5.77985 3.05038 3.05042C5.77981 0.320983 10.2204 0.320984 12.9499 3.05042C15.6793 5.77985 15.6793 10.2205 12.9499 12.9499ZM4.11104 4.11108C1.9685 6.25361 1.9685 9.74672 4.11103 11.8893C6.25357 14.0318 9.74668 14.0318 11.8892 11.8893C14.0317 9.74672 14.0317 6.25361 11.8892 4.11108C9.74668 1.96854 6.25357 1.96854 4.11104 4.11108Z" fill="currentColor"/>
<path d="M10.8144 5.596C10.8498 5.68792 10.871 5.77985 10.871 5.87884L10.871 8.70727C10.871 9.11739 10.5316 9.4568 10.1214 9.4568C9.71132 9.4568 9.37191 9.11739 9.37191 8.70727L9.37191 7.68904L6.40913 10.6518C6.11922 10.9417 5.63839 10.9417 5.34847 10.6518C5.05856 10.3619 5.05856 9.88107 5.34847 9.59115L8.31125 6.62838L7.29301 6.62838C6.88289 6.62838 6.54348 6.28897 6.54348 5.87884C6.54348 5.66671 6.62833 5.48286 6.76269 5.34851C6.89704 5.21416 7.08088 5.12931 7.29302 5.12931H10.1214C10.2204 5.12931 10.3124 5.15052 10.4043 5.18588C10.5881 5.25659 10.7366 5.40508 10.8073 5.58893L10.8144 5.596Z" fill="currentColor"/>
</g>
<defs>
<clipPath>
<rect fill="currentColor"/>
</clipPath>
</defs>
</svg>
