<svg viewBox="0 0 16 16" fill="none" xmlns="http://www.w3.org/2000/svg">
<path d="M1 8C1 4.14 4.14 1 8 1C11.86 1 15 4.14 15 8C15 11.86 11.86 15 8 15C4.14 15 1 11.86 1 8ZM8.29 11.69C8.38 11.65 8.46 11.6 8.53 11.53L10.53 9.53C10.68 9.38 10.75 9.19 10.75 9C10.75 8.81 10.68 8.62 10.53 8.47C10.24 8.18 9.76 8.18 9.47 8.47L8.75 9.19L8.75 5C8.75 4.59 8.41 4.25 8 4.25C7.59 4.25 7.25 4.59 7.25 5L7.25 9.19L6.53 8.47C6.24 8.18 5.76 8.18 5.47 8.47C5.18 8.76 5.18 9.24 5.47 9.53L7.47 11.53C7.54 11.6 7.62 11.65 7.71 11.69C7.89 11.77 8.1 11.77 8.28 11.69L8.29 11.69Z" fill="currentColor"/>
</svg>
