<svg viewBox="0 0 16 16" fill="none" xmlns="http://www.w3.org/2000/svg">
<path d="M8 1C4.14 1 1 4.14 1 8C1 11.86 4.14 15 8 15C11.86 15 15 11.86 15 8C15 4.14 11.86 1 8 1ZM11.69 8.29C11.65 8.38 11.6 8.46 11.53 8.53L9.53 10.53C9.38 10.68 9.19 10.75 9 10.75C8.81 10.75 8.62 10.68 8.47 10.53C8.18 10.24 8.18 9.76 8.47 9.47L9.19 8.75H5C4.59 8.75 4.25 8.41 4.25 8C4.25 7.59 4.59 7.25 5 7.25H9.19L8.47 6.53C8.18 6.24 8.18 5.76 8.47 5.47C8.76 5.18 9.24 5.18 9.53 5.47L11.53 7.47C11.6 7.54 11.65 7.62 11.69 7.71C11.77 7.89 11.77 8.1 11.69 8.28V8.29Z" fill="currentColor"/>
</svg>
