<svg viewBox="0 0 16 16" fill="none" xmlns="http://www.w3.org/2000/svg">
<path d="M15 8C15 11.86 11.86 15 8 15C4.14 15 1 11.86 1 8C1 4.14 4.14 1 8 1C11.86 1 15 4.14 15 8ZM7.71 4.31C7.62 4.35 7.54 4.4 7.47 4.47L5.47 6.47C5.32 6.62 5.25 6.81 5.25 7C5.25 7.19 5.32 7.38 5.47 7.53C5.76 7.82 6.24 7.82 6.53 7.53L7.25 6.81L7.25 11C7.25 11.41 7.59 11.75 8 11.75C8.41 11.75 8.75 11.41 8.75 11L8.75 6.81L9.47 7.53C9.76 7.82 10.24 7.82 10.53 7.53C10.82 7.24 10.82 6.76 10.53 6.47L8.53 4.47C8.46 4.4 8.38 4.35 8.29 4.31C8.11 4.23 7.9 4.23 7.72 4.31L7.71 4.31Z" fill="currentColor"/>
</svg>
