<svg viewBox="0 0 16 16" fill="none" xmlns="http://www.w3.org/2000/svg">
<g clip-path="url(#clip0_7873_6339)">
<path d="M12.9498 3.05025C15.6792 5.77969 15.6792 10.2203 12.9498 12.9497C10.2204 15.6792 5.77973 15.6792 3.05029 12.9497C0.320861 10.2203 0.320862 5.77968 3.05029 3.05025C5.77973 0.32082 10.2204 0.320821 12.9498 3.05025ZM4.11095 11.8891C6.25349 14.0316 9.74659 14.0316 11.8891 11.8891C14.0317 9.74655 14.0317 6.25345 11.8891 4.11091C9.7466 1.96838 6.25349 1.96838 4.11095 4.11091C1.96842 6.25345 1.96842 9.74655 4.11095 11.8891Z" fill="currentColor"/>
<path d="M5.59588 5.18572C5.6878 5.15036 5.77973 5.12915 5.87872 5.12915L8.70715 5.12915C9.11727 5.12915 9.45668 5.46856 9.45668 5.87868C9.45668 6.2888 9.11727 6.62821 8.70715 6.62821L7.68891 6.62821L10.6517 9.59099C10.9416 9.8809 10.9416 10.3617 10.6517 10.6517C10.3618 10.9416 9.88095 10.9416 9.59103 10.6517L6.62825 7.68887L6.62825 8.70711C6.62825 9.11723 6.28884 9.45664 5.87872 9.45664C5.66659 9.45664 5.48274 9.37179 5.34839 9.23744C5.21404 9.10309 5.12919 8.91924 5.12919 8.70711V5.87868C5.12919 5.77968 5.1504 5.68776 5.18576 5.59584C5.25647 5.41199 5.40496 5.2635 5.58881 5.19279L5.59588 5.18572Z" fill="currentColor"/>
</g>
<defs>
<clipPath>
<rect fill="currentColor"/>
</clipPath>
</defs>
</svg>
