<svg viewBox="0 0 16 16" fill="none" xmlns="http://www.w3.org/2000/svg">
<path d="M15 4.25125C15 3.94125 14.81 3.67125 14.53 3.55125L8.28 1.05125C8.1 0.981249 7.9 0.981249 7.72 1.05125L1.47 3.55125C1.18 3.66125 1 3.94125 1 4.25125V6.00125C1 6.41125 1.34 6.75125 1.75 6.75125H2.25V13.5012H1.75C1.34 13.5012 1 13.8412 1 14.2512C1 14.6612 1.34 15.0012 1.75 15.0012H14.25C14.66 15.0012 15 14.6612 15 14.2512C15 13.8412 14.66 13.5012 14.25 13.5012H10.5V12.7512C10.5 12.3412 10.16 12.0012 9.75 12.0012C9.34 12.0012 9 12.3412 9 12.7512V13.5012H6.98V6.75125H9V7.75125C9 8.16125 9.34 8.50125 9.75 8.50125C10.16 8.50125 10.5 8.16125 10.5 7.75125V6.75125H14.25C14.66 6.75125 15 6.41125 15 6.00125V4.25125ZM5.48 13.5012H3.75V6.75125H5.48V13.5012ZM13.5 5.25125H2.5V4.76125L8 2.56125L13.5 4.76125V5.25125Z" fill="currentColor"/>
<path d="M14.77 9.71125L13.02 7.97125C12.73 7.68125 12.25 7.68125 11.96 7.97125C11.67 8.26125 11.67 8.74125 11.96 9.03125L12.42 9.49125H8.49C8.08 9.49125 7.74 9.83125 7.74 10.2412C7.74 10.6512 8.08 10.9912 8.49 10.9912H12.43L11.97 11.4612C11.68 11.7512 11.68 12.2312 11.97 12.5212C12.12 12.6712 12.31 12.7412 12.5 12.7412C12.69 12.7412 12.89 12.6712 13.03 12.5212L14.75 10.7812C14.83 10.7112 14.89 10.6212 14.92 10.5212C14.94 10.4612 14.95 10.4112 14.95 10.3512C14.95 10.3112 14.97 10.2812 14.97 10.2412C14.97 10.0512 14.9 9.85125 14.75 9.71125H14.77Z" fill="currentColor"/>
</svg>
