<svg viewBox="0 0 16 16" fill="none" xmlns="http://www.w3.org/2000/svg">
<path d="M14.25 6.75125C14.66 6.75125 15 6.41125 15 6.00125V4.25125C15 3.94125 14.81 3.67125 14.53 3.55125L8.28 1.05125C8.1 0.981249 7.9 0.981249 7.72 1.05125L1.47 3.55125C1.18 3.66125 1 3.94125 1 4.25125V6.00125C1 6.41125 1.34 6.75125 1.75 6.75125H2.25V13.5012H1.75C1.34 13.5012 1 13.8412 1 14.2512C1 14.6612 1.34 15.0012 1.75 15.0012H14.25C14.66 15.0012 15 14.6612 15 14.2512C15 13.8412 14.66 13.5012 14.25 13.5012H13.75V6.75125H14.25ZM2.5 4.76125L8 2.56125L13.5 4.76125V5.25125H2.5V4.76125ZM9 6.75125V13.5012H6.98V6.75125H9ZM3.75 6.75125H5.48V13.5012H3.75V6.75125ZM12.25 13.5012H10.5V6.75125H12.25V13.5012Z" fill="currentColor"/>
</svg>
