<svg fill="none" xmlns="http://www.w3.org/2000/svg" viewBox="0 0 16 16">
  <path
    fill-rule="evenodd"
    clip-rule="evenodd"
    d="M1.76774 4.04112C1.29583 4.28806 1 4.77712 1 5.31032C1 6.04015 1.5452 6.64247 2.25 6.73113V13.4961H1.75C1.33579 13.4961 1 13.8323 1 14.2471C1 14.6619 1.33579 14.9982 1.75 14.9982H14.25C14.6642 14.9982 15 14.6619 15 14.2471C15 13.8323 14.6642 13.4961 14.25 13.4961H7.11523V6.74237H8.88477V7.19136C8.88477 7.60615 9.22055 7.94241 9.63477 7.94241C10.049 7.94241 10.3848 7.60615 10.3848 7.19136V6.74237H13.5696C14.3596 6.74237 15 6.10106 15 5.30995C15 4.77727 14.7048 4.28858 14.2337 4.04127L8.82144 1.20031C8.31332 0.933596 7.70693 0.93321 7.19848 1.19928L1.76774 4.04112ZM7.89319 2.53056C7.96582 2.49255 8.05245 2.49261 8.12504 2.53071L13.287 5.24027H2.71495L7.89319 2.53056ZM5.61523 6.74237H3.75V13.4961H5.61523V6.74237Z"
    fill="currentColor"
  />
  <path
    d="M15 10.2668C15 10.6816 14.6642 11.0179 14.25 11.0179H11.5028L11.7023 11.1679C12.0335 11.417 12.1003 11.8878 11.8516 12.2195C11.6028 12.5511 11.1327 12.6181 10.8015 12.369L8.85837 10.9075C8.64339 10.7754 8.5 10.5379 8.5 10.2668C8.5 10.2434 8.50107 10.2202 8.50317 10.1973C8.52171 9.98552 8.62931 9.79029 8.8009 9.66168L10.8025 8.1615C11.1341 7.91295 11.6042 7.98067 11.8524 8.31275C12.1006 8.64483 12.0329 9.11552 11.7013 9.36407L11.4989 9.51579L14.25 9.51579C14.6642 9.51579 15 9.85204 15 10.2668Z"
    fill="currentColor"
  />
</svg>
