<svg viewBox="0 0 16 16" fill="none" xmlns="http://www.w3.org/2000/svg">
<path d="M14.53 3.5525L8.28 1.0525C8.1 0.9825 7.9 0.9825 7.72 1.0525L1.47 3.5525C1.18 3.6625 1 3.9425 1 4.2525V6.0025C1 6.4125 1.34 6.7525 1.75 6.7525H2.25V13.5025H1.75C1.34 13.5025 1 13.8425 1 14.2525C1 14.6625 1.34 15.0025 1.75 15.0025H7C7.41 15.0025 7.75 14.6625 7.75 14.2525C7.75 13.8425 7.41 13.5025 7 13.5025H6.98V6.7525H9V10.2525C9 10.6625 9.34 11.0025 9.75 11.0025C10.16 11.0025 10.5 10.6625 10.5 10.2525V6.7525H12.25V8.0025C12.25 8.4125 12.59 8.7525 13 8.7525C13.41 8.7525 13.75 8.4125 13.75 8.0025V6.7525H14.25C14.66 6.7525 15 6.4125 15 6.0025V4.2525C15 3.9425 14.81 3.6725 14.53 3.5525ZM2.5 4.7625L8 2.5625L13.5 4.7625V5.2525H2.5V4.7625ZM5.48 13.4925H3.75V6.7425H5.48V13.4925Z" fill="currentColor"/>
<path d="M13.7 9.7325L10.43 13.2025L9 11.9325C8.69 11.6625 8.22 11.6825 7.94 11.9925C7.66 12.3025 7.69 12.7725 8 13.0525L9.98 14.8125C10.12 14.9425 10.3 15.0025 10.48 15.0025C10.68 15.0025 10.88 14.9225 11.03 14.7625L14.8 10.7525C15.08 10.4525 15.07 9.9725 14.77 9.6925C14.47 9.4125 13.99 9.4225 13.71 9.7225L13.7 9.7325Z" fill="currentColor"/>
</svg>
