<svg viewBox="0 0 16 16" fill="none" xmlns="http://www.w3.org/2000/svg">
<path d="M11.13 6.74875H7.99C7.58 6.74875 7.24 6.40875 7.24 5.99875C7.24 5.58875 7.58 5.24875 7.99 5.24875H11.13C11.54 5.24875 11.88 5.58875 11.88 5.99875C11.88 6.40875 11.54 6.74875 11.13 6.74875Z" fill="currentColor"/>
<path d="M11.13 9.74875H7.99C7.58 9.74875 7.24 9.40875 7.24 8.99875C7.24 8.58875 7.58 8.24875 7.99 8.24875H11.13C11.54 8.24875 11.88 8.58875 11.88 8.99875C11.88 9.40875 11.54 9.74875 11.13 9.74875Z" fill="currentColor"/>
<path d="M5.26 6.74875H4.74C4.33 6.74875 3.99 6.40875 3.99 5.99875C3.99 5.58875 4.33 5.24875 4.74 5.24875H5.26C5.67 5.24875 6.01 5.58875 6.01 5.99875C6.01 6.40875 5.67 6.74875 5.26 6.74875Z" fill="currentColor"/>
<path d="M5.26 9.74875H4.74C4.33 9.74875 3.99 9.40875 3.99 8.99875C3.99 8.58875 4.33 8.24875 4.74 8.24875H5.26C5.67 8.24875 6.01 8.58875 6.01 8.99875C6.01 9.40875 5.67 9.74875 5.26 9.74875Z" fill="currentColor"/>
<path d="M14.26 14.9987C14.15 14.9987 14.03 14.9687 13.92 14.9187L11.13 13.5187L8.34 14.9187C8.13 15.0287 7.88 15.0287 7.67 14.9187L4.88 13.5187L2.09 14.9187C1.86 15.0287 1.58 15.0187 1.36 14.8887C1.14 14.7487 1 14.5087 1 14.2487V1.74875C1 1.33875 1.34 0.998749 1.75 0.998749H14.25C14.66 0.998749 15 1.33875 15 1.74875V14.2487C15 14.5087 14.87 14.7487 14.64 14.8887C14.52 14.9587 14.38 14.9987 14.25 14.9987H14.26ZM4.89 11.9387C5 11.9387 5.12 11.9687 5.23 12.0187L8.02 13.4187L10.81 12.0187C11.02 11.9087 11.27 11.9087 11.48 12.0187L13.52 13.0387V2.49875H2.51V13.0387L4.55 12.0187C4.66 11.9687 4.77 11.9387 4.89 11.9387Z" fill="currentColor"/>
</svg>
