<svg viewBox="0 0 16 16" fill="none" xmlns="http://www.w3.org/2000/svg">
<path d="M4.72734 6.74874H5.24697C5.65667 6.74874 5.99643 6.40881 5.99643 5.9989C5.99643 5.58899 5.65667 5.24907 5.24697 5.24907H4.72734C4.31763 5.24907 3.97787 5.58899 3.97787 5.9989C3.97787 6.40881 4.31763 6.74874 4.72734 6.74874Z" fill="currentColor"/>
<path d="M14.2405 6.74874C13.8308 6.74874 13.4911 7.08866 13.4911 7.49857V13.0374L11.4525 12.0176C11.2427 11.9076 10.9929 11.9076 10.783 12.0176L7.995 13.4073L5.207 12.0176C4.99714 11.9076 4.74732 11.9076 4.53747 12.0176L2.49893 13.0374V2.49967H8.49465C8.90435 2.49967 9.24411 2.15975 9.24411 1.74984C9.24411 1.33993 8.90435 1 8.49465 1H1.74946C1.33976 1 1 1.33993 1 1.74984V14.2471C1 14.507 1.12991 14.747 1.35974 14.8869C1.57959 15.0269 1.85939 15.0369 2.08922 14.9169L4.87723 13.5272L7.66524 14.9169C7.87509 15.0269 8.12491 15.0269 8.33476 14.9169L11.1228 13.5272L13.9108 14.9169C14.0207 14.9669 14.1306 14.9969 14.2505 14.9969C14.3904 14.9969 14.5203 14.9569 14.6403 14.8869C14.8601 14.747 15 14.507 15 14.2471V7.49857C15 7.08866 14.6602 6.74874 14.2505 6.74874H14.2405Z" fill="currentColor"/>
<path d="M6.57602 6.4688L6.33619 8.24841H4.72734C4.31763 8.24841 3.97787 8.58833 3.97787 8.99824C3.97787 9.40815 4.31763 9.74808 4.72734 9.74808H6.99572C6.99572 9.74808 7.06567 9.74808 7.09565 9.74808L9.52391 9.42815C9.6838 9.40815 9.83369 9.32817 9.9536 9.21819L14.7702 4.39925C15.06 4.10932 15.06 3.62942 14.7702 3.33949L12.6617 1.21995C12.5218 1.07998 12.3319 1 12.132 1C11.9322 1 11.7423 1.07998 11.6024 1.21995L6.78587 6.03889C6.66595 6.15887 6.596 6.30883 6.57602 6.4688ZM8.02498 6.9187L12.132 2.8096L13.1813 3.85937L9.07423 7.96847L7.8651 8.12843L8.02498 6.9187Z" fill="currentColor"/>
</svg>
