<svg viewBox="0 0 16 16" fill="none" xmlns="http://www.w3.org/2000/svg">
<path d="M12.96 12.93C14.22 11.66 15 9.92 15 8C15 4.14 11.86 1 8 1C6.08 1 4.33 1.78 3.07 3.04C3.07 3.04 3.06 3.04 3.05 3.05C3.05 3.05 3.05 3.06 3.04 3.07C1.78 4.33 1 6.08 1 8C1 11.86 4.14 15 8 15C9.92 15 11.67 14.22 12.93 12.96C12.93 12.96 12.94 12.96 12.95 12.95C12.95 12.95 12.95 12.94 12.96 12.93ZM13.5 8C13.5 9.25 13.08 10.39 12.38 11.32L4.68 3.62C5.6 2.92 6.75 2.5 8 2.5C11.03 2.5 13.5 4.97 13.5 8ZM2.5 8C2.5 6.75 2.92 5.61 3.62 4.68L11.31 12.37C10.39 13.07 9.24 13.49 7.99 13.49C4.96 13.49 2.49 11.02 2.49 7.99L2.5 8Z" fill="currentColor"/>
</svg>
