<svg viewBox="0 0 16 16" xmlns="http://www.w3.org/2000/svg">
<path d="M14.7603 3.46255C13.8516 2.55277 12.3338 1.96291 10.8559 2.0029C9.75749 2.0229 8.78887 2.37281 7.99001 3.00266C7.19116 2.37281 6.22254 2.0229 5.12411 2.0029C3.65621 1.95292 2.12839 2.55277 1.21969 3.46255C1.07989 3.60252 1 3.79247 1 3.99242V13.2502C1 13.5501 1.17974 13.83 1.45934 13.94C1.54922 13.98 1.64907 14 1.74893 14C1.94864 14 2.13837 13.92 2.27817 13.7801C3.29672 12.7603 5.71327 12.5404 7.55064 13.86C7.55064 13.86 7.57061 13.86 7.5806 13.86C7.60057 13.88 7.62054 13.89 7.6505 13.91C7.70043 13.93 7.75036 13.93 7.80028 13.94C7.87019 13.96 7.9301 13.98 8 13.98C8.0699 13.98 8.12981 13.96 8.19971 13.94C8.24964 13.93 8.29957 13.94 8.3495 13.91C8.36947 13.9 8.38944 13.88 8.4194 13.86C8.4194 13.86 8.43937 13.86 8.44936 13.86C10.2867 12.5404 12.7133 12.7603 13.7218 13.7801C13.8616 13.92 14.0514 14 14.2511 14C14.3509 14 14.4408 13.98 14.5407 13.94C14.8203 13.82 15 13.5501 15 13.2502V3.99242C15 3.79247 14.9201 3.60252 14.7803 3.46255H14.7603ZM2.49786 11.8705V4.33234C3.06705 3.89245 4.05563 3.52254 5.10414 3.50254C5.70328 3.51254 6.5321 3.6625 7.24108 4.30235V11.9605C6.40228 11.5906 5.53352 11.4306 4.71469 11.4306C3.89586 11.4306 3.14693 11.5906 2.49786 11.8705ZM13.4822 11.8705C12.1641 11.3007 10.4066 11.2307 8.73894 11.9605V4.31234C9.44793 3.6725 10.2867 3.52254 10.8759 3.51254C11.9344 3.51254 12.913 3.90244 13.4822 4.34234V11.8805V11.8705Z" fill="currentColor"/>
</svg>
