<svg viewBox="0 0 16 16" fill="none" xmlns="http://www.w3.org/2000/svg">
<path d="M13.35 3.18943C12.32 2.77943 11.17 3.04943 10.42 3.85943L9.01 5.38943C8.72 5.69943 8.56 6.08943 8.51 6.49943H7.47C7.43 6.08943 7.26 5.69943 6.98 5.38943L5.57 3.85943C4.84 3.04943 3.69 2.77943 2.65 3.18943C1.63 3.57943 1 4.49943 1 5.56943V10.9294C1 11.8094 1.45 12.6194 2.21 13.0894C2.64 13.3594 3.13 13.4994 3.63 13.4994C4.03 13.4994 4.43 13.4094 4.8 13.2294L6.4 12.4594C6.99 12.1694 7.37 11.6294 7.47 10.9994H8.56C8.66 11.6194 9.04 12.1694 9.63 12.4594L11.23 13.2294C11.6 13.4094 12 13.4994 12.4 13.4994C12.89 13.4994 13.38 13.3594 13.82 13.0894C14.58 12.6194 15.03 11.8094 15.03 10.9294V5.56943C15.03 4.49943 14.4 3.58943 13.38 3.18943H13.35ZM6 10.6994C6 10.8694 5.9 11.0294 5.73 11.1094L4.13 11.8794C3.76 12.0594 3.34 12.0394 3 11.8194C2.68 11.6194 2.5 11.2994 2.5 10.9294V5.56943C2.5 4.90943 3.03 4.64943 3.2 4.58943C3.33 4.53943 3.48 4.50943 3.65 4.50943C3.93 4.50943 4.23 4.60943 4.48 4.87943L5.89 6.40943C5.97 6.48943 6.01 6.59943 6.01 6.69943V7.37943C5.28 7.22943 4.53 7.23943 4.22 7.24943C3.81 7.26943 3.49 7.61943 3.51 8.03943C3.53 8.45943 3.88 8.76943 4.3 8.74943C4.94 8.71943 5.64 8.79943 6.01 8.92943V10.7094L6 10.6994ZM7.5 7.99943H8.5V9.49943H7.5V7.99943ZM13.5 10.9294C13.5 11.2894 13.32 11.6194 13 11.8194C12.66 12.0394 12.23 12.0594 11.87 11.8794L10.27 11.1094C10.1 11.0294 10 10.8694 10 10.6994V8.91943C10.37 8.78943 11.07 8.70943 11.71 8.73943C12.13 8.77943 12.48 8.43943 12.5 8.02943C12.52 7.61943 12.2 7.25943 11.79 7.23943C11.48 7.21943 10.73 7.20943 10 7.35943V6.67943C10 6.56943 10.04 6.46943 10.12 6.37943L11.53 4.84943C11.78 4.57943 12.08 4.47943 12.36 4.47943C12.52 4.47943 12.67 4.50943 12.81 4.55943C12.97 4.61943 13.51 4.87943 13.51 5.53943V10.8994L13.5 10.9294Z" fill="currentColor"/>
</svg>
