<svg viewBox="0 0 16 16" fill="none" xmlns="http://www.w3.org/2000/svg">
<path d="M11.87 3.5V3C11.87 1.9 10.97 1 9.87 1H6.12C5.02 1 4.12 1.9 4.12 3V3.5H3C1.9 3.5 1 4.4 1 5.5V13C1 14.1 1.9 15 3 15H13C14.1 15 15 14.1 15 13V5.5C15 4.4 14.1 3.5 13 3.5H11.87ZM5.61 3C5.61 2.72 5.83 2.5 6.11 2.5H9.86C10.14 2.5 10.36 2.72 10.36 3V3.5H5.61V3ZM12.99 5C13.27 5 13.49 5.22 13.49 5.5V5.96L11.13 8.51C10.99 8.66 10.79 8.75 10.58 8.75H9.4C9.28 8.47 9.01 8.27 8.68 8.27H7.29C6.96 8.27 6.69 8.47 6.57 8.75H5.39C5.18 8.75 4.98 8.66 4.84 8.51L2.48 5.96V5.5C2.48 5.22 2.7 5 2.98 5H12.99ZM12.99 13.5H2.99C2.71 13.5 2.49 13.28 2.49 13V8.17L3.74 9.53C4.16 9.99 4.77 10.25 5.39 10.25H6.62L6.69 10.78C6.74 11.18 7.08 11.48 7.49 11.48H8.48C8.89 11.48 9.23 11.18 9.28 10.78L9.35 10.25H10.58C11.21 10.25 11.81 9.99 12.23 9.53L13.48 8.17V13C13.48 13.28 13.26 13.5 12.98 13.5H12.99Z" fill="currentColor"/>
</svg>
