<svg viewBox="0 0 16 16" fill="none" xmlns="http://www.w3.org/2000/svg">
<path d="M11.75 15H4.25C3.01 15 2 13.99 2 12.75V3.25C2 2.01 3.01 1 4.25 1H11.75C12.99 1 14 2.01 14 3.25V12.75C14 13.99 12.99 15 11.75 15ZM4.25 2.5C3.84 2.5 3.5 2.84 3.5 3.25V12.75C3.5 13.16 3.84 13.5 4.25 13.5H11.75C12.16 13.5 12.5 13.16 12.5 12.75V3.25C12.5 2.84 12.16 2.5 11.75 2.5H4.25Z" fill="currentColor"/>
<path d="M10.75 3.5H5.25C4.83579 3.5 4.5 3.83579 4.5 4.25V5.5C4.5 5.91421 4.83579 6.25 5.25 6.25H10.75C11.1642 6.25 11.5 5.91421 11.5 5.5V4.25C11.5 3.83579 11.1642 3.5 10.75 3.5Z" fill="currentColor"/>
<path d="M6.75 9.25H5.75C5.34 9.25 5 8.91 5 8.5C5 8.09 5.34 7.75 5.75 7.75H6.75C7.16 7.75 7.5 8.09 7.5 8.5C7.5 8.91 7.16 9.25 6.75 9.25Z" fill="currentColor"/>
<path d="M10.27 9.25H9.27C8.86 9.25 8.52 8.91 8.52 8.5C8.52 8.09 8.86 7.75 9.27 7.75H10.27C10.68 7.75 11.02 8.09 11.02 8.5C11.02 8.91 10.68 9.25 10.27 9.25Z" fill="currentColor"/>
<path d="M6.75 12H5.75C5.34 12 5 11.66 5 11.25C5 10.84 5.34 10.5 5.75 10.5H6.75C7.16 10.5 7.5 10.84 7.5 11.25C7.5 11.66 7.16 12 6.75 12Z" fill="currentColor"/>
<path d="M10.27 12H9.27C8.86 12 8.52 11.66 8.52 11.25C8.52 10.84 8.86 10.5 9.27 10.5H10.27C10.68 10.5 11.02 10.84 11.02 11.25C11.02 11.66 10.68 12 10.27 12Z" fill="currentColor"/>
</svg>
