<svg viewBox="0 0 16 16" fill="none" xmlns="http://www.w3.org/2000/svg">
<path d="M12.75 3H12.5V1.75C12.5 1.34 12.16 1 11.75 1C11.34 1 11 1.34 11 1.75V3H5V1.75C5 1.34 4.66 1 4.25 1C3.84 1 3.5 1.34 3.5 1.75V3H3.25C2.01 3 1 4.01 1 5.25V12.75C1 13.99 2.01 15 3.25 15H8.75C9.16 15 9.5 14.66 9.5 14.25C9.5 13.84 9.16 13.5 8.75 13.5H3.25C2.84 13.5 2.5 13.16 2.5 12.75V7.5H13.5V9.25C13.5 9.66 13.84 10 14.25 10C14.66 10 15 9.66 15 9.25V5.25C15 4.01 13.99 3 12.75 3ZM2.5 6V5.25C2.5 4.84 2.84 4.5 3.25 4.5H12.75C13.16 4.5 13.5 4.84 13.5 5.25V6H2.5Z" fill="currentColor"/>
<path d="M14.78 11.22C14.49 10.93 14.01 10.93 13.72 11.22L13 11.94L12.28 11.22C11.99 10.93 11.51 10.93 11.22 11.22C10.93 11.51 10.93 11.99 11.22 12.28L11.94 13L11.22 13.72C10.93 14.01 10.93 14.49 11.22 14.78C11.37 14.93 11.56 15 11.75 15C11.94 15 12.13 14.93 12.28 14.78L13 14.06L13.72 14.78C13.87 14.93 14.06 15 14.25 15C14.44 15 14.63 14.93 14.78 14.78C15.07 14.49 15.07 14.01 14.78 13.72L14.06 13L14.78 12.28C15.07 11.99 15.07 11.51 14.78 11.22Z" fill="currentColor"/>
</svg>
