<svg viewBox="0 0 16 16" fill="none" xmlns="http://www.w3.org/2000/svg">
<path d="M12.75 3H12.5V1.75C12.5 1.34 12.16 1 11.75 1C11.34 1 11 1.34 11 1.75V3H5V1.75C5 1.34 4.66 1 4.25 1C3.84 1 3.5 1.34 3.5 1.75V3H3.25C2.01 3 1 4.01 1 5.25V12.75C1 13.99 2.01 15 3.25 15H12.75C13.99 15 15 13.99 15 12.75V5.25C15 4.01 13.99 3 12.75 3ZM3.25 4.5H12.75C13.16 4.5 13.5 4.84 13.5 5.25V6H2.5V5.25C2.5 4.84 2.84 4.5 3.25 4.5ZM12.75 13.5H3.25C2.84 13.5 2.5 13.16 2.5 12.75V7.5H13.5V12.75C13.5 13.16 13.16 13.5 12.75 13.5Z" fill="currentColor"/>
</svg>
