<svg viewBox="0 0 16 16" fill="none" xmlns="http://www.w3.org/2000/svg">
<path d="M12.75 3H12.5V1.75C12.5 1.34 12.16 1 11.75 1C11.34 1 11 1.34 11 1.75V3H5V1.75C5 1.34 4.66 1 4.25 1C3.84 1 3.5 1.34 3.5 1.75V3H3.25C2.01 3 1 4.01 1 5.25V12.75C1 13.99 2.01 15 3.25 15H8.75C9.16 15 9.5 14.66 9.5 14.25C9.5 13.84 9.16 13.5 8.75 13.5H3.25C2.84 13.5 2.5 13.16 2.5 12.75V7.5H13.5V9.25C13.5 9.66 13.84 10 14.25 10C14.66 10 15 9.66 15 9.25V5.25C15 4.01 13.99 3 12.75 3ZM2.5 6V5.25C2.5 4.84 2.84 4.5 3.25 4.5H12.75C13.16 4.5 13.5 4.84 13.5 5.25V6H2.5Z" fill="currentColor"/>
<path d="M14.25 12H13.5V11.25C13.5 10.84 13.16 10.5 12.75 10.5C12.34 10.5 12 10.84 12 11.25V12H11.25C10.84 12 10.5 12.34 10.5 12.75C10.5 13.16 10.84 13.5 11.25 13.5H12V14.25C12 14.66 12.34 15 12.75 15C13.16 15 13.5 14.66 13.5 14.25V13.5H14.25C14.66 13.5 15 13.16 15 12.75C15 12.34 14.66 12 14.25 12Z" fill="currentColor"/>
</svg>
