<svg viewBox="0 0 16 16" fill="none" xmlns="http://www.w3.org/2000/svg">
<path d="M12.75 3.25H12.11L11.34 2.28C11.2 2.1 10.98 2 10.75 2H7.25C7.02 2 6.81 2.1 6.66 2.28L5.88 3.25H3.24C2.01 3.25 1 4.26 1 5.5V11.75C1 12.99 2.01 14 3.25 14H12.75C13.99 14 15 12.99 15 11.75V5.5C15 4.26 13.99 3.25 12.75 3.25ZM13.5 11.75C13.5 12.16 13.16 12.5 12.75 12.5H3.25C2.84 12.5 2.5 12.16 2.5 11.75V5.5C2.5 5.09 2.84 4.75 3.25 4.75H6.25C6.48 4.75 6.69 4.65 6.84 4.47L7.62 3.5H10.4L11.17 4.47C11.31 4.65 11.53 4.75 11.76 4.75H12.76C13.17 4.75 13.51 5.09 13.51 5.5V11.75H13.5Z" fill="currentColor"/>
<path d="M9 5C7.21 5 5.75 6.46 5.75 8.25C5.75 10.04 7.21 11.5 9 11.5C10.79 11.5 12.25 10.04 12.25 8.25C12.25 6.46 10.79 5 9 5ZM9 10C8.04 10 7.25 9.21 7.25 8.25C7.25 7.29 8.04 6.5 9 6.5C9.96 6.5 10.75 7.29 10.75 8.25C10.75 9.21 9.96 10 9 10Z" fill="currentColor"/>
</svg>
