<svg viewBox="0 0 16 16" fill="none" xmlns="http://www.w3.org/2000/svg">
<path d="M6.93 9.82C6.73 9.82 6.54 9.74 6.4 9.6C6.23 9.43 6.15 9.19 6.19 8.95L6.58 6.45C6.6 6.29 6.68 6.15 6.79 6.04L11.61 1.22C11.9 0.93 12.38 0.93 12.67 1.22L14.78 3.33C14.92 3.47 15 3.66 15 3.86C15 4.06 14.92 4.25 14.78 4.39L9.96 9.21C9.85 9.32 9.7 9.4 9.55 9.42L7.05 9.81C7.05 9.81 6.97 9.81 6.93 9.81V9.82ZM8.03 6.93L7.84 8.17L9.08 7.98L13.2 3.86L12.15 2.81L8.03 6.93Z" fill="currentColor"/>
<path d="M13 15H3C1.9 15 1 14.1 1 13V3C1 1.9 1.9 1 3 1H8C8.41 1 8.75 1.34 8.75 1.75C8.75 2.16 8.41 2.5 8 2.5H3C2.72 2.5 2.5 2.72 2.5 3V13C2.5 13.28 2.72 13.5 3 13.5H13C13.28 13.5 13.5 13.28 13.5 13V8C13.5 7.59 13.84 7.25 14.25 7.25C14.66 7.25 15 7.59 15 8V13C15 14.1 14.1 15 13 15Z" fill="currentColor"/>
</svg>
