<svg viewBox="0 0 16 16" fill="none" xmlns="http://www.w3.org/2000/svg">
<path d="M14.25 13.5H13.75V4.5C13.75 3.54 12.96 2.75 12 2.75H11.94L11.45 1.88C11.14 1.34 10.56 1 9.93 1H6.09C5.46 1 4.88 1.34 4.57 1.88L4.07 2.75H4C3.04 2.75 2.25 3.54 2.25 4.5V13.5H1.75C1.34 13.5 1 13.84 1 14.25C1 14.66 1.34 15 1.75 15H14.25C14.66 15 15 14.66 15 14.25C15 13.84 14.66 13.5 14.25 13.5ZM6.75 13.5V11.75C6.75 11.61 6.86 11.5 7 11.5H9C9.14 11.5 9.25 11.61 9.25 11.75V13.5H6.75ZM10.75 13.5V11.75C10.75 10.79 9.96 10 9 10H7C6.04 10 5.25 10.79 5.25 11.75V13.5H3.75V4.5C3.75 4.36 3.86 4.25 4 4.25H4.5C4.77 4.25 5.02 4.11 5.15 3.87L5.87 2.62C5.91 2.54 6 2.5 6.09 2.5H9.93C10.02 2.5 10.1 2.55 10.15 2.63L10.86 3.88C10.99 4.11 11.24 4.26 11.51 4.26H12.01C12.15 4.26 12.26 4.37 12.26 4.51V13.51H10.76L10.75 13.5Z" fill="currentColor"/>
<path d="M6.75 4.62H5.75C5.34 4.62 5 4.96 5 5.37C5 5.78 5.34 6.12 5.75 6.12H6.75C7.16 6.12 7.5 5.78 7.5 5.37C7.5 4.96 7.16 4.62 6.75 4.62Z" fill="currentColor"/>
<path d="M10.27 4.62H9.27C8.86 4.62 8.52 4.96 8.52 5.37C8.52 5.78 8.86 6.12 9.27 6.12H10.27C10.68 6.12 11.02 5.78 11.02 5.37C11.02 4.96 10.68 4.62 10.27 4.62Z" fill="currentColor"/>
<path d="M6.75 7.38H5.75C5.34 7.38 5 7.72 5 8.13C5 8.54 5.34 8.88 5.75 8.88H6.75C7.16 8.88 7.5 8.54 7.5 8.13C7.5 7.72 7.16 7.38 6.75 7.38Z" fill="currentColor"/>
<path d="M10.27 7.38H9.27C8.86 7.38 8.52 7.72 8.52 8.13C8.52 8.54 8.86 8.88 9.27 8.88H10.27C10.68 8.88 11.02 8.54 11.02 8.13C11.02 7.72 10.68 7.38 10.27 7.38Z" fill="currentColor"/>
</svg>
