<svg viewBox="0 0 16 16" fill="none" xmlns="http://www.w3.org/2000/svg">
<path d="M4 8C5.39 8 6.56 7.04 6.89 5.75H14.25C14.66 5.75 15 5.41 15 5C15 4.59 14.66 4.25 14.25 4.25H6.89C6.55 2.96 5.39 2 4 2C2.35 2 1 3.35 1 5C1 6.65 2.35 8 4 8ZM4 3.5C4.83 3.5 5.5 4.17 5.5 5C5.5 5.83 4.83 6.5 4 6.5C3.17 6.5 2.5 5.83 2.5 5C2.5 4.17 3.17 3.5 4 3.5Z" fill="currentColor"/>
<path d="M12 8C10.61 8 9.44 8.96 9.11 10.25H1.75C1.34 10.25 1 10.59 1 11C1 11.41 1.34 11.75 1.75 11.75H9.11C9.45 13.04 10.61 14 12 14C13.65 14 15 12.65 15 11C15 9.35 13.65 8 12 8ZM12 12.5C11.17 12.5 10.5 11.83 10.5 11C10.5 10.17 11.17 9.5 12 9.5C12.83 9.5 13.5 10.17 13.5 11C13.5 11.83 12.83 12.5 12 12.5Z" fill="currentColor"/>
</svg>
