<svg viewBox="0 0 16 16" fill="none" xmlns="http://www.w3.org/2000/svg">
<path d="M12.75 1H4.25C3.01 1 2 2.01 2 3.25V4H1.75C1.34 4 1 4.34 1 4.75C1 5.16 1.34 5.5 1.75 5.5H2V7.25H1.75C1.34 7.25 1 7.59 1 8C1 8.41 1.34 8.75 1.75 8.75H2V10.5H1.75C1.34 10.5 1 10.84 1 11.25C1 11.66 1.34 12 1.75 12H2V12.75C2 13.99 3.01 15 4.25 15H12.75C13.99 15 15 13.99 15 12.75V3.25C15 2.01 13.99 1 12.75 1ZM13.5 12.75C13.5 13.16 13.16 13.5 12.75 13.5H4.25C3.84 13.5 3.5 13.16 3.5 12.75V12H3.75C4.16 12 4.5 11.66 4.5 11.25C4.5 10.84 4.16 10.5 3.75 10.5H3.5V8.75H3.75C4.16 8.75 4.5 8.41 4.5 8C4.5 7.59 4.16 7.25 3.75 7.25H3.5V5.5H3.75C4.16 5.5 4.5 5.16 4.5 4.75C4.5 4.34 4.16 4 3.75 4H3.5V3.25C3.5 2.84 3.84 2.5 4.25 2.5H12.75C13.16 2.5 13.5 2.84 13.5 3.25V12.75Z" fill="currentColor"/>
<path d="M9.44 7.79C9.9 7.54 10.21 7.05 10.21 6.49C10.21 5.67 9.54 5 8.72 5C7.9 5 7.23 5.67 7.23 6.49C7.23 7.05 7.54 7.53 8 7.79C7.59 7.9 7.2 8.1 6.88 8.42C6.39 8.91 6.12 9.56 6.12 10.26C6.12 10.67 6.46 11.01 6.87 11.01C7.28 11.01 7.62 10.67 7.62 10.26C7.62 9.97 7.73 9.69 7.94 9.48C8.36 9.07 9.08 9.07 9.49 9.48C9.7 9.69 9.81 9.96 9.81 10.26C9.81 10.67 10.15 11.01 10.56 11.01C10.97 11.01 11.31 10.67 11.31 10.26C11.31 9.57 11.04 8.91 10.55 8.42C10.24 8.11 9.85 7.91 9.43 7.79H9.44Z" fill="currentColor"/>
</svg>
