<svg viewBox="0 0 16 16" fill="none" xmlns="http://www.w3.org/2000/svg">
<path d="M12.75 12V1.75C12.75 1.34 12.41 1 12 1H10.25C9.84 1 9.5 1.34 9.5 1.75C9.5 2.16 9.84 2.5 10.25 2.5H11.25V11.25H4.5C4.5 10.84 4.16 10.5 3.75 10.5C3.34 10.5 3 10.84 3 11.25V12C3 12.41 3.34 12.75 3.75 12.75H12C12.41 12.75 12.75 12.41 12.75 12Z" fill="currentColor"/>
<path d="M14.25 3.25C13.84 3.25 13.5 3.59 13.5 4V13.5H6C5.59 13.5 5.25 13.84 5.25 14.25C5.25 14.66 5.59 15 6 15H14.25C14.66 15 15 14.66 15 14.25V4C15 3.59 14.66 3.25 14.25 3.25Z" fill="currentColor"/>
<path d="M7.11 9.7C7.5 9.55 7.69 9.12 7.54 8.73C7.39 8.34 6.96 8.15 6.57 8.3C6.23 8.43 5.87 8.5 5.5 8.5C3.85 8.5 2.5 7.15 2.5 5.5C2.5 3.85 3.85 2.5 5.5 2.5C7.15 2.5 8.5 3.85 8.5 5.5V5.99C8.5 6.3 8.33 6.62 8 6.62C7.52 6.62 7.5 5.94 7.5 5.81V4.25C7.5 3.84 7.16 3.5 6.75 3.5C6.58 3.5 6.42 3.57 6.3 3.67C6.06 3.56 5.79 3.5 5.5 3.5C4.4 3.5 3.5 4.4 3.5 5.5C3.5 6.6 4.4 7.5 5.5 7.5C5.83 7.5 6.14 7.41 6.41 7.27C6.76 7.8 7.32 8.13 8 8.13C9.12 8.13 10 7.19 10 6V5.51C10 3.02 7.98 1 5.5 1C3.02 1 1 3.02 1 5.5C1 7.98 3.02 10 5.5 10C6.06 10 6.6 9.9 7.11 9.7ZM5.5 6C5.22 6 5 5.78 5 5.5C5 5.22 5.22 5 5.5 5C5.78 5 6 5.22 6 5.5C6 5.78 5.78 6 5.5 6Z" fill="currentColor"/>
</svg>
