<svg viewBox="0 0 16 16" fill="none" xmlns="http://www.w3.org/2000/svg">
<path d="M13.99 4.2C13.99 4.13 13.97 4.07 13.95 4.01C13.95 3.99 13.94 3.96 13.92 3.94C13.88 3.86 13.84 3.78 13.77 3.72L11.28 1.22C11.22 1.16 11.14 1.11 11.06 1.07C11.04 1.06 11.01 1.05 10.99 1.04C10.93 1.02 10.86 1.01 10.8 1C10.78 1 10.77 1 10.75 1H6.5C5.44 1 4.58 1.83 4.51 2.88H4C2.9 2.88 2 3.77 2 4.88V13C2 14.1 2.9 15 4 15H10.12C11.22 15 12.12 14.1 12.12 13V12.49C13.16 12.42 14 11.56 14 10.5V4.25C14 4.25 14 4.22 14 4.2H13.99ZM10.12 13.5H4C3.72 13.5 3.5 13.28 3.5 13V4.88C3.5 4.6 3.72 4.38 4 4.38H4.5V10.5C4.5 11.6 5.4 12.5 6.5 12.5H10.62V13C10.62 13.28 10.4 13.5 10.12 13.5ZM12 11H6.5C6.22 11 6 10.78 6 10.5V3C6 2.72 6.22 2.5 6.5 2.5H10V4.25C10 4.66 10.34 5 10.75 5H12.5V10.5C12.5 10.78 12.28 11 12 11Z" fill="currentColor"/>
</svg>
