<svg viewBox="0 0 17 16" fill="none" xmlns="http://www.w3.org/2000/svg">
<path d="M8.88809 1C5.02809 1 1.88809 4.14 1.88809 8C1.88809 11.86 5.02809 15 8.88809 15C12.7481 15 15.8881 11.86 15.8881 8C15.8881 4.14 12.7481 1 8.88809 1ZM12.6081 7.21L11.7481 10.21C11.6581 10.53 11.3581 10.75 11.0281 10.75H6.75809C6.42809 10.75 6.12809 10.53 6.03809 10.21L5.16809 7.21C5.08809 6.93 5.16809 6.63 5.39809 6.44C5.61809 6.25 5.92809 6.2 6.19809 6.32L7.50809 6.91L8.23809 5.63C8.36809 5.4 8.61809 5.25 8.88809 5.25C9.15809 5.25 9.40809 5.39 9.53809 5.63L10.2681 6.91L11.5781 6.32C11.8381 6.2 12.1581 6.25 12.3781 6.44C12.5981 6.63 12.6881 6.93 12.6081 7.21Z" fill="currentColor"/>
</svg>
