<svg viewBox="0 0 17 16" fill="none" xmlns="http://www.w3.org/2000/svg">
<path d="M15.4849 8.22C15.2049 8.07 14.8649 8.11 14.6249 8.33C13.9249 8.97 13.0149 9.33 12.0549 9.33C9.96489 9.33 8.26489 7.64 8.26489 5.57C8.26489 4.29 8.91489 3.12 9.99489 2.42C10.2649 2.25 10.3949 1.92 10.3149 1.61C10.2349 1.3 9.97489 1.07 9.66489 1.04C9.41489 1.01 9.17489 1 8.91489 1C5.04489 1 1.88489 4.14 1.88489 8C1.88489 11.86 5.04489 15 8.92489 15C12.4049 15 15.3949 12.42 15.8849 8.99C15.9249 8.68 15.7749 8.37 15.4949 8.22H15.4849ZM8.92489 13.5C5.87489 13.5 3.38489 11.03 3.38489 8C3.38489 5.4 5.21489 3.21 7.66489 2.64C7.09489 3.49 6.77489 4.51 6.77489 5.57C6.77489 8.47 9.14489 10.83 12.0649 10.83C12.6749 10.83 13.2649 10.73 13.8249 10.53C12.8949 12.3 11.0149 13.5 8.91489 13.5H8.92489Z" fill="currentColor"/>
</svg>
