<svg viewBox="0 0 16 16" fill="none" xmlns="http://www.w3.org/2000/svg">
<path d="M12.75 1H3.25C2.01 1 1 2.01 1 3.25V12.75C1 13.99 2.01 15 3.25 15H12.75C13.99 15 15 13.99 15 12.75V3.25C15 2.01 13.99 1 12.75 1ZM13.5 12.75C13.5 13.16 13.16 13.5 12.75 13.5H3.25C2.84 13.5 2.5 13.16 2.5 12.75V3.25C2.5 2.84 2.84 2.5 3.25 2.5H12.75C13.16 2.5 13.5 2.84 13.5 3.25V12.75Z" fill="currentColor"/>
<path d="M5 4C4.59 4 4.25 4.34 4.25 4.75V11.25C4.25 11.66 4.59 12 5 12C5.41 12 5.75 11.66 5.75 11.25V4.75C5.75 4.34 5.41 4 5 4Z" fill="currentColor"/>
<path d="M11 6C10.59 6 10.25 6.34 10.25 6.75V11.25C10.25 11.66 10.59 12 11 12C11.41 12 11.75 11.66 11.75 11.25V6.75C11.75 6.34 11.41 6 11 6Z" fill="currentColor"/>
<path d="M8 8C7.59 8 7.25 8.34 7.25 8.75V11.25C7.25 11.66 7.59 12 8 12C8.41 12 8.75 11.66 8.75 11.25V8.75C8.75 8.34 8.41 8 8 8Z" fill="currentColor"/>
</svg>
