<svg viewBox="0 0 16 16" fill="none" xmlns="http://www.w3.org/2000/svg">
<path d="M12.75 2.99002H3.25C2.01 2.99002 1 3.99918 1 5.23815V10.7336C1 11.9725 2.01 12.9817 3.25 12.9817H7C7.41 12.9817 7.75 12.642 7.75 12.2323C7.75 11.8227 7.41 11.4829 7 11.4829H3.25C2.84 11.4829 2.5 11.1432 2.5 10.7336V7.23648H13.5V9.7344C13.5 10.1441 13.84 10.4838 14.25 10.4838C14.66 10.4838 15 10.1441 15 9.7344V5.23815C15 3.99918 13.99 2.99002 12.75 2.99002ZM2.5 5.73773V5.23815C2.5 4.82849 2.84 4.48877 3.25 4.48877H12.75C13.16 4.48877 13.5 4.82849 13.5 5.23815V5.73773H2.5Z" fill="currentColor"/>
<path d="M11.22 10.8135C10.79 10.6636 10.56 10.4338 10.56 10.3439C10.56 10.1141 10.82 10.1141 10.83 10.1141C11.06 10.1141 11.32 10.264 11.39 10.3139C11.72 10.5537 12.18 10.4838 12.43 10.164C12.67 9.83432 12.6 9.3747 12.28 9.12491C12.24 9.09493 11.96 8.91508 11.58 8.7752V8.72524C11.58 8.31558 11.25 7.98586 10.84 7.98586C10.43 7.98586 10.1 8.31558 10.1 8.72524V8.79518C9.5 9.06496 9.08 9.64447 9.08 10.3539C9.08 11.1632 9.72 11.8826 10.75 12.2323C11.02 12.3222 11.11 12.5021 11.11 12.562C11.11 12.7119 10.99 12.8318 10.84 12.8318C10.62 12.8318 10.32 12.652 10.21 12.572C9.89 12.3222 9.43 12.3722 9.17 12.6919C8.91 13.0117 8.96 13.4813 9.28 13.7311C9.33 13.771 9.65 14.0108 10.09 14.1807V14.2506C10.09 14.6603 10.42 14.99 10.83 14.99C11.24 14.99 11.57 14.6603 11.57 14.2506V14.1507C12.17 13.871 12.58 13.2715 12.58 12.562C12.58 11.7927 12.03 11.0933 11.21 10.8235L11.22 10.8135Z" fill="currentColor"/>
</svg>
