<svg viewBox="0 0 16 16" fill="none" xmlns="http://www.w3.org/2000/svg">
  <path
    d="M4.3637 7.27261C3.96204 7.27261 3.63642 7.59822 3.63642 7.99988C3.63642 8.40154 3.96204 8.72715 4.3637 8.72715H11.6364C12.0381 8.72715 12.3637 8.40154 12.3637 7.99988C12.3637 7.59822 12.0381 7.27261 11.6364 7.27261H4.3637Z"
    fill="currentColor"
  />
  <path
    fill-rule="evenodd"
    clip-rule="evenodd"
    d="M8.00006 -0.00012207C3.58178 -0.00012207 6.10352e-05 3.5816 6.10352e-05 7.99988C6.10352e-05 12.4182 3.58178 15.9999 8.00006 15.9999C12.4183 15.9999 16.0001 12.4182 16.0001 7.99988C16.0001 3.5816 12.4183 -0.00012207 8.00006 -0.00012207ZM1.45461 7.99988C1.45461 4.38492 4.38511 1.45442 8.00006 1.45442C11.615 1.45442 14.5455 4.38492 14.5455 7.99988C14.5455 11.6148 11.615 14.5453 8.00006 14.5453C4.38511 14.5453 1.45461 11.6148 1.45461 7.99988Z"
    fill="currentColor"
  />

  <defs>
    <clipPath id="clip0_10678_566709">
      <rect width="16" height="16" fill="white" />
    </clipPath>
  </defs>
</svg>
