<svg viewBox="0 0 16 16" fill="none" xmlns="http://www.w3.org/2000/svg">
<path d="M7.99001 15C7.5806 15 7.17119 14.8501 6.85164 14.5604L6.15264 13.931C6.15264 13.931 6.05278 13.871 5.99287 13.881L5.0642 13.9809C4.18545 14.0608 3.39658 13.4913 3.21684 12.6421L3.01712 11.7229C3.00714 11.663 2.9672 11.613 2.91727 11.5831L2.10842 11.1135C1.34951 10.6739 1.04994 9.74469 1.39944 8.94541L1.77889 8.08617C1.79887 8.03622 1.79887 7.96628 1.77889 7.91632L1.39944 7.05709C1.03995 6.25781 1.34951 5.32864 2.10842 4.88903L2.91727 4.41945C2.9672 4.38947 3.00714 4.33952 3.01712 4.27957L3.21684 3.36039C3.39658 2.50116 4.19544 1.93167 5.0642 2.02159L6.00286 2.1215C6.06277 2.1215 6.12268 2.11151 6.16263 2.07154L6.86163 1.44211C7.5107 0.852632 8.49929 0.852632 9.14836 1.44211L9.84736 2.07154C9.84736 2.07154 9.94722 2.13149 10.0071 2.1215L10.9358 2.02159C11.8046 1.94166 12.6034 2.51115 12.7832 3.36039L12.9829 4.27957C12.9929 4.33952 13.0328 4.38947 13.0827 4.41945L13.8916 4.88903C14.6505 5.32864 14.9501 6.25781 14.6006 7.05709L14.2211 7.91632C14.2011 7.96628 14.2011 8.03622 14.2211 8.08617L14.6006 8.94541C14.96 9.74469 14.6505 10.6739 13.8916 11.1135L13.0827 11.5831C13.0328 11.613 12.9929 11.663 12.9829 11.7229L12.7832 12.6421C12.6034 13.5013 11.8046 14.0708 10.9358 13.9809L9.99714 13.881C9.93723 13.881 9.87732 13.891 9.83737 13.931L9.13837 14.5604C8.80884 14.8501 8.40941 15 8 15H7.99001ZM6.01284 12.3823C6.43224 12.3823 6.84166 12.5422 7.15121 12.8219L7.85021 13.4514C7.9301 13.5213 8.04993 13.5213 8.12981 13.4514L8.82881 12.8219C9.1883 12.5022 9.66762 12.3424 10.1469 12.3923L11.0856 12.4922C11.1755 12.4922 11.2853 12.4323 11.3153 12.3324L11.515 11.4132C11.6148 10.9436 11.9144 10.534 12.3338 10.2942L13.1426 9.82462C13.2325 9.77466 13.2725 9.65477 13.2325 9.55486L12.8531 8.69563C12.6533 8.25602 12.6533 7.74648 12.8531 7.30687L13.2325 6.44764C13.2725 6.34773 13.2325 6.23782 13.1426 6.17788L12.3338 5.7083C11.9144 5.46851 11.6148 5.05888 11.515 4.5893L11.3153 3.67012C11.2953 3.57021 11.1954 3.49028 11.0856 3.51026L10.1569 3.61017C9.66762 3.66012 9.19829 3.50027 8.8388 3.18055L8.1398 2.55112C8.05991 2.48118 7.94009 2.48118 7.8602 2.55112L7.1612 3.18055C6.80171 3.50027 6.3224 3.65013 5.84308 3.61017L4.90443 3.51026C4.81455 3.49028 4.70471 3.57021 4.67475 3.67012L4.47504 4.5893C4.37518 5.05888 4.07561 5.46851 3.65621 5.7083L2.84737 6.17788C2.7575 6.22783 2.71755 6.34773 2.7575 6.44764L3.13695 7.30687C3.33667 7.74648 3.33667 8.25602 3.13695 8.69563L2.7575 9.55486C2.71755 9.65477 2.7575 9.76467 2.84737 9.82462L3.65621 10.2942C4.07561 10.534 4.37518 10.9436 4.47504 11.4132L4.67475 12.3324C4.69473 12.4323 4.79458 12.5122 4.90443 12.4922L5.8331 12.3923C5.89301 12.3923 5.95293 12.3923 6.01284 12.3923V12.3823Z" fill="currentColor"/>
<path d="M5.99287 10.7538C5.80314 10.7538 5.61341 10.6839 5.46363 10.534C5.17404 10.2442 5.17404 9.76467 5.46363 9.47493L9.45792 5.48849C9.7475 5.19875 10.2268 5.19875 10.5164 5.48849C10.806 5.77823 10.806 6.25781 10.5164 6.54755L6.52211 10.534C6.37233 10.6839 6.1826 10.7538 5.99287 10.7538Z" fill="currentColor"/>
<path d="M5.99287 7.00714C6.54437 7.00714 6.99144 6.55982 6.99144 6.00803C6.99144 5.45624 6.54437 5.00892 5.99287 5.00892C5.44137 5.00892 4.9943 5.45624 4.9943 6.00803C4.9943 6.55982 5.44137 7.00714 5.99287 7.00714Z" fill="currentColor"/>
<path d="M9.98716 11.0036C10.5387 11.0036 10.9857 10.5563 10.9857 10.0045C10.9857 9.45267 10.5387 9.00535 9.98716 9.00535C9.43566 9.00535 8.98859 9.45267 8.98859 10.0045C8.98859 10.5563 9.43566 11.0036 9.98716 11.0036Z" fill="currentColor"/>
</svg>
