<svg viewBox="0 0 16 16" fill="none" xmlns="http://www.w3.org/2000/svg">
<path d="M13.99 6.46C13.99 6.4 13.98 6.34 13.96 6.29C13.96 6.27 13.95 6.24 13.94 6.22C13.91 6.14 13.87 6.07 13.81 6.01L9.56 1.25C9.5 1.18 9.42 1.13 9.33 1.08C9.31 1.07 9.29 1.06 9.26 1.05C9.19 1.02 9.11 1 9.03 1C9.02 1 9.01 1 9 1H4.25C3.01 1 2 2.01 2 3.25V12.75C2 13.99 3.01 15 4.25 15H11.75C12.99 15 14 13.99 14 12.75V6.5C14 6.5 14 6.47 14 6.46H13.99ZM11.57 5.75H10.5C10.09 5.75 9.75 5.41 9.75 5V3.71L11.57 5.75ZM11.75 13.5H4.25C3.84 13.5 3.5 13.16 3.5 12.75V3.25C3.5 2.84 3.84 2.5 4.25 2.5H8.25V5C8.25 6.24 9.26 7.25 10.5 7.25H12.5V12.75C12.5 13.16 12.16 13.5 11.75 13.5Z" fill="currentColor"/>
<path d="M10.25 8.25H5.75C5.34 8.25 5 8.59 5 9C5 9.41 5.34 9.75 5.75 9.75H10.25C10.66 9.75 11 9.41 11 9C11 8.59 10.66 8.25 10.25 8.25Z" fill="currentColor"/>
<path d="M10.25 11H5.75C5.34 11 5 11.34 5 11.75C5 12.16 5.34 12.5 5.75 12.5H10.25C10.66 12.5 11 12.16 11 11.75C11 11.34 10.66 11 10.25 11Z" fill="currentColor"/>
</svg>
