<svg viewBox="0 0 16 16" fill="none" xmlns="http://www.w3.org/2000/svg">
<path d="M14.7826 3.78872L12.214 1.21872C11.9242 0.928721 11.4444 0.928721 11.1546 1.21872L1.70976 10.6687C1.59982 10.7787 1.51986 10.9287 1.49987 11.0787L1.01014 14.1287C0.97016 14.3687 1.05012 14.6087 1.22002 14.7787C1.35995 14.9187 1.54984 14.9987 1.74973 14.9987C1.78971 14.9987 1.82969 14.9987 1.86967 14.9987L4.918 14.5187C5.07792 14.4987 5.21784 14.4187 5.32778 14.3087L14.7826 4.84872C15.0725 4.55872 15.0725 4.07872 14.7826 3.78872ZM4.44826 13.0687L2.65924 13.3487L2.93908 11.5587L9.25564 5.23872L10.7648 6.74872L4.44826 13.0687ZM11.8242 5.68872L10.3151 4.17872L11.6843 2.80872L13.1935 4.31872L11.8242 5.68872Z" fill="currentColor"/>
</svg>
