<svg viewBox="0 0 16 16" fill="none" xmlns="http://www.w3.org/2000/svg">
<path d="M15.8781 5.38149C15.8781 5.38149 15.8781 5.32152 15.8681 5.29154C15.8481 5.22157 15.8181 5.15161 15.7781 5.09164C15.7481 5.05166 15.7181 5.01169 15.6781 4.97171C15.6581 4.95172 15.6381 4.93173 15.6181 4.92173C15.5881 4.90175 15.5781 4.87176 15.5481 4.85177L14.6481 4.28208V2.36311C14.6481 1.95333 14.3081 1.61351 13.8981 1.61351H10.4481L9.95806 1.30367C9.30806 0.893893 8.46806 0.893893 7.81806 1.30367L7.33806 1.61351H3.88806C3.47806 1.61351 3.13806 1.95333 3.13806 2.36311V4.28208L2.23806 4.85177C2.23806 4.85177 2.18806 4.90175 2.16806 4.92173C2.14806 4.94172 2.12806 4.96171 2.10806 4.9817C2.06806 5.02168 2.03806 5.06166 2.00806 5.10164C1.96806 5.16161 1.93806 5.23157 1.91806 5.30153C1.91806 5.33152 1.91806 5.3615 1.90806 5.39148C1.90806 5.43146 1.88806 5.46145 1.88806 5.50142V13.2473C1.88806 14.2068 2.67806 14.9963 3.63806 14.9963H14.1381C15.0981 14.9963 15.8881 14.2068 15.8881 13.2473V5.50142C15.8881 5.50142 15.8781 5.42147 15.8681 5.39148L15.8781 5.38149ZM13.1481 3.1127V6.14108L9.20806 9.29939C9.02806 9.43931 8.76806 9.43931 8.58806 9.29939L4.64806 6.14108V3.1127H13.1481ZM14.3981 13.2373C14.3981 13.3772 14.2881 13.4871 14.1481 13.4871H3.64806C3.50806 13.4871 3.39806 13.3772 3.39806 13.2373V7.05059L7.64806 10.4588C8.38806 11.0485 9.40806 11.0485 10.1481 10.4588L14.3981 7.05059V13.2373Z" fill="currentColor"/>
<path d="M6.14806 5.99116H8.14806C8.55806 5.99116 8.89806 5.65134 8.89806 5.24156C8.89806 4.83178 8.55806 4.49197 8.14806 4.49197H6.14806C5.73806 4.49197 5.39806 4.83178 5.39806 5.24156C5.39806 5.65134 5.73806 5.99116 6.14806 5.99116Z" fill="currentColor"/>
</svg>
