<svg viewBox="0 0 16 16" fill="none" xmlns="http://www.w3.org/2000/svg">
  <path
    d="M8 9.45455C7.59834 9.45455 7.27273 9.12893 7.27273 8.72727V4.36364C7.27273 3.96197 7.59834 3.63636 8 3.63636C8.40166 3.63636 8.72727 3.96197 8.72727 4.36364V8.72727C8.72727 9.12893 8.40166 9.45455 8 9.45455Z"
    fill="currentColor"
  />
  <path
    d="M7.27273 11.6364C7.27273 11.2347 7.59834 10.9091 8 10.9091C8.40166 10.9091 8.72727 11.2347 8.72727 11.6364C8.72727 12.038 8.40166 12.3636 8 12.3636C7.59834 12.3636 7.27273 12.038 7.27273 11.6364Z"
    fill="currentColor"
  />
  <path
    fill-rule="evenodd"
    clip-rule="evenodd"
    d="M0 8C0 3.58172 3.58172 0 8 0C12.4183 0 16 3.58172 16 8C16 12.4183 12.4183 16 8 16C3.58172 16 0 12.4183 0 8ZM8 1.45455C4.38505 1.45455 1.45455 4.38505 1.45455 8C1.45455 11.615 4.38505 14.5455 8 14.5455C11.615 14.5455 14.5455 11.615 14.5455 8C14.5455 4.38505 11.615 1.45455 8 1.45455Z"
    fill="currentColor"
  />
</svg>
