<svg viewBox="0 0 16 16" fill="none" xmlns="http://www.w3.org/2000/svg">
  <path
    fill-rule="evenodd"
    clip-rule="evenodd"
    d="M5.08424 4.00356C5.73537 4.05367 6.36771 4.29376 6.91049 4.67765L9.10035 2.48779C9.76706 1.82085 10.6064 1.35268 11.5242 1.13593C12.4421 0.91917 13.4021 0.962325 14.2968 1.26056C14.5058 1.33023 14.6698 1.49425 14.7395 1.70327C15.0377 2.59795 15.0809 3.55801 14.8641 4.47584C14.6474 5.39367 14.1793 6.23299 13.5123 6.89972L11.3339 9.07805C11.4542 9.25087 11.5602 9.43301 11.6504 9.62243C11.8403 10.0214 11.9576 10.4481 11.9908 10.8798C12.024 11.3116 11.9725 11.7417 11.8325 12.1435C11.6924 12.5458 11.4672 12.9088 11.1678 13.2083L9.89509 14.481C9.62172 14.7543 9.1785 14.7543 8.90514 14.481C8.27131 13.8471 7.86607 13.0116 7.7992 12.1427C7.77803 11.8676 7.79151 11.5951 7.83891 11.3319L6.64729 12.0905C6.61912 12.1084 6.59006 12.1241 6.56035 12.1376C6.51963 12.3605 6.4479 12.5771 6.34687 12.781C6.20724 13.0627 6.01436 13.3147 5.77898 13.523C4.98461 14.3076 3.94116 14.6654 3.15297 14.8342C2.74789 14.9209 2.38919 14.9622 2.13058 14.9819C2.00084 14.9917 1.89511 14.9963 1.81992 14.9984C1.7823 14.9994 1.75223 14.9998 1.73052 14.9999L1.70431 15L1.69607 15L1.6932 14.9999L1.69208 14.9999C1.69208 14.9999 1.69118 14.9999 1.70004 14.3001L1.69208 14.9999C1.31242 14.9951 1.0049 14.6881 1.00009 14.3084C1.00009 14.3084 1.00009 14.3089 1.70004 14.3001L1.00009 14.3084L1.00007 14.3068L1.00005 14.3039L1 14.2957L1.00005 14.2695C1.00019 14.2478 1.0006 14.2177 1.00163 14.1801C1.0037 14.1049 1.00825 13.9992 1.01814 13.8694C1.03785 13.6108 1.0791 13.2521 1.16585 12.847C1.33463 12.0588 1.69245 11.0154 2.47702 10.221C2.68531 9.98564 2.93728 9.79276 3.21905 9.65313C3.42291 9.5521 3.63951 9.48036 3.86241 9.43964C3.8759 9.40994 3.89159 9.38089 3.90952 9.35273L4.67712 8.14696C4.40001 8.20117 4.11212 8.21751 3.82132 8.19514C2.95236 8.12826 2.11686 7.72302 1.48304 7.08919C1.35176 6.95792 1.27801 6.77987 1.27801 6.59422C1.27801 6.40857 1.35176 6.23052 1.48304 6.09924L2.75574 4.82654C3.36387 4.21841 4.2109 3.93635 5.08424 4.00356ZM13.5082 2.4919C12.9624 2.36754 12.3938 2.36907 11.846 2.49845C11.1813 2.65544 10.5734 2.99447 10.0905 3.47755L6.65205 6.91599L9.08406 9.34803L12.5224 5.90967C13.0055 5.42679 13.3446 4.81881 13.5016 4.15406C13.631 3.60624 13.6325 3.03765 13.5082 2.4919ZM6.31091 10.5496C6.21958 10.3793 6.10808 10.2201 5.97851 10.0756C5.96149 10.0566 5.94343 10.0385 5.92444 10.0215C5.77988 9.89192 5.62069 9.78043 5.45042 9.6891L5.39212 9.6308L6.16807 8.41192L7.58811 9.83197L6.36923 10.6079L6.31091 10.5496ZM4.63842 10.857C4.50879 10.8121 4.37152 10.7934 4.23461 10.8021C4.0976 10.8107 3.96369 10.8466 3.84069 10.9075C3.71769 10.9685 3.60806 11.0533 3.51818 11.1571C3.50724 11.1697 3.49584 11.182 3.48402 11.1938C2.96256 11.7153 2.67983 12.463 2.53481 13.1402C2.50487 13.28 2.48153 13.4133 2.46335 13.5366C2.58665 13.5185 2.72001 13.4951 2.85981 13.4652C3.53701 13.3202 4.28474 13.0374 4.8062 12.516C4.81802 12.5042 4.83026 12.4928 4.8429 12.4818C4.94666 12.3919 5.0315 12.2823 5.09246 12.1593C5.15341 12.0363 5.18927 11.9024 5.19793 11.7654C5.20659 11.6285 5.18792 11.4912 5.143 11.3616L4.63842 10.857ZM9.61212 10.8041L10.3204 10.0958C10.3437 10.1381 10.3657 10.1809 10.3863 10.2241C10.5063 10.4761 10.5756 10.7359 10.5949 10.9872C10.6142 11.2382 10.5833 11.4739 10.5105 11.6829C10.4378 11.8913 10.3241 12.072 10.1778 12.2183L9.46952 12.9266C9.31183 12.6407 9.21811 12.3347 9.19507 12.0352C9.15615 11.5295 9.32014 11.0961 9.61212 10.8041ZM3.03737 6.52481C3.32329 6.6825 3.62932 6.77622 3.92875 6.79926C4.43448 6.83818 4.8679 6.67419 5.15988 6.38221L5.86819 5.67389C5.58227 5.5162 5.27625 5.42248 4.97682 5.39944C4.47108 5.36052 4.03767 5.52451 3.74569 5.81649L3.03737 6.52481Z"
    fill="currentColor"
  />
</svg>
