<svg viewBox="0 0 16 16" fill="none" xmlns="http://www.w3.org/2000/svg">
<path d="M2.02199 11.6289C1.59216 12.0591 1.2123 13.4796 1.01238 14.3798C0.932413 14.74 1.25229 15.0601 1.61215 14.98C2.50181 14.78 3.92126 14.3999 4.36108 13.9697C5.00084 13.3295 5.00084 12.2792 4.36108 11.6389C3.72133 10.9987 2.67174 10.9987 2.03199 11.6389L2.02199 11.6289Z" fill="currentColor"/>
<path d="M13.6875 1.03548L10.2188 2.17585C9.91893 2.27589 9.64904 2.43594 9.42912 2.66601L3.65136 8.4379C3.45144 8.63797 3.45144 8.94807 3.65136 9.14813L6.84013 12.3392C7.04005 12.5392 7.34993 12.5392 7.54985 12.3392L13.3176 6.56729C13.5375 6.34722 13.7075 6.07713 13.8074 5.77703L14.947 2.3059C15.2069 1.52564 14.4672 0.785399 13.6875 1.04548V1.03548Z" fill="currentColor"/>
<path d="M8.21959 13.7997L9.16922 14.75C9.63904 15.2201 10.4487 14.97 10.5687 14.3098L11.3684 9.98841L8.21959 13.1394C8.03966 13.3195 8.03966 13.6096 8.21959 13.7997Z" fill="currentColor"/>
<path d="M2.20192 7.8077C2.38185 7.98775 2.67174 7.98775 2.84167 7.8077L6.00045 4.64666L1.68212 5.44692C1.02238 5.56696 0.772475 6.37723 1.24229 6.84738L2.20192 7.8077Z" fill="currentColor"/>
</svg>
