<svg viewBox="0 0 16 16" fill="none" xmlns="http://www.w3.org/2000/svg">
<path d="M4.58125 14.7448C4.28136 14.7448 3.98147 14.6548 3.72156 14.4649C3.22174 14.095 3.00182 13.4753 3.17176 12.8755L4.03145 9.84668L1.56235 7.89744C1.07253 7.51758 0.882595 6.88783 1.07253 6.29805C1.26246 5.70828 1.79226 5.30843 2.41204 5.28844L5.55089 5.16849L6.6305 2.20963C6.84042 1.62985 7.38023 1.25 8 1.25C8.61977 1.25 9.15958 1.62985 9.3695 2.20963L10.4491 5.16849L13.588 5.28844C14.2077 5.30843 14.7275 5.70828 14.9275 6.29805C15.1174 6.88783 14.9275 7.51758 14.4377 7.89744L11.9686 9.84668L12.8282 12.8755C12.9982 13.4753 12.7883 14.095 12.2784 14.4649C11.7786 14.8348 11.1189 14.8448 10.609 14.4949L8 12.7356L5.39095 14.4949C5.14104 14.6648 4.86114 14.7448 4.58125 14.7448ZM6.78045 6.15811C6.68048 6.44799 6.41058 6.63792 6.10069 6.64792L2.46202 6.78786L5.35097 8.97702C5.59088 9.16695 5.69084 9.47683 5.61087 9.77671L4.61124 13.2954L7.58015 11.2162C7.83006 11.0462 8.15994 11.0462 8.41985 11.2162L11.4487 13.2554L10.3891 9.78671C10.3092 9.49682 10.4091 9.17694 10.649 8.98701L13.518 6.72789L9.89931 6.65791C9.59942 6.64792 9.32952 6.44799 9.21956 6.1681L8 2.73943L6.78045 6.1681V6.15811Z" fill="currentColor"/>
</svg>
