<svg viewBox="0 0 16 16" fill="none" xmlns="http://www.w3.org/2000/svg">
<path d="M14.9275 6.04805C14.7375 5.45828 14.2177 5.05843 13.588 5.03844L10.4491 4.91849L9.3695 1.95963C9.15958 1.37985 8.61977 1 8 1C7.38023 1 6.84042 1.37985 6.6305 1.95963L5.55089 4.91849L2.41204 5.03844C1.79226 5.05843 1.27245 5.45828 1.07253 6.04805C0.882595 6.63783 1.07253 7.26758 1.56235 7.64744L4.03145 9.59668L3.17176 12.6255C3.00182 13.2253 3.21175 13.845 3.72156 14.2149C3.98147 14.4048 4.28136 14.4948 4.58125 14.4948C4.86114 14.4948 5.15104 14.4148 5.39095 14.2449L8 12.4956L10.609 14.2449C11.1289 14.5948 11.7786 14.5848 12.2784 14.2149C12.7783 13.845 12.9982 13.2253 12.8282 12.6255L11.9686 9.59668L14.4377 7.64744C14.9275 7.26758 15.1174 6.63783 14.9275 6.04805Z" fill="currentColor"/>
</svg>
