<svg viewBox="0 0 16 16" fill="none" xmlns="http://www.w3.org/2000/svg">
<path d="M14.25 12.0028H13.5V11.2523C13.5 10.842 13.16 10.5018 12.75 10.5018C12.34 10.5018 12 10.842 12 11.2523V12.0028H11.25C10.84 12.0028 10.5 12.3431 10.5 12.7533C10.5 13.1636 10.84 13.5039 11.25 13.5039H12V14.2544C12 14.6647 12.34 15.0049 12.75 15.0049C13.16 15.0049 13.5 14.6647 13.5 14.2544V13.5039H14.25C14.66 13.5039 15 13.1636 15 12.7533C15 12.3431 14.66 12.0028 14.25 12.0028Z" fill="currentColor"/>
<path d="M9 13.5039H4.25C3.84 13.5039 3.5 13.1636 3.5 12.7533V3.24661C3.5 2.83632 3.84 2.49607 4.25 2.49607H8.25V4.99785C8.25 6.23873 9.26 7.24944 10.5 7.24944H12.5V8.50033C12.5 8.91062 12.84 9.25086 13.25 9.25086C13.66 9.25086 14 8.91062 14 8.50033V6.49891C14 6.49891 14 6.46889 14 6.45888C14 6.39884 13.99 6.3388 13.97 6.28876C13.97 6.26875 13.96 6.23873 13.95 6.21871C13.92 6.13866 13.88 6.06861 13.82 6.00857L9.56 1.24519C9.5 1.17514 9.42 1.1251 9.33 1.08507C9.31 1.07507 9.28 1.06506 9.26 1.05505C9.19 1.02503 9.12 1.01502 9.05 1.00502C9.03 1.00502 9.02 1.00502 9 1.00502H4.25C3.01 0.99501 2 2.00573 2 3.24661V12.7533C2 13.9942 3.01 15.0049 4.25 15.0049H9C9.41 15.0049 9.75 14.6647 9.75 14.2544C9.75 13.8441 9.41 13.5039 9 13.5039ZM9.75 4.99785V3.70693L11.57 5.74838H10.5C10.09 5.74838 9.75 5.40814 9.75 4.99785Z" fill="currentColor"/>
</svg>
