<svg viewBox="0 0 16 16" fill="none" xmlns="http://www.w3.org/2000/svg">
<path d="M13.99 5.45C13.99 5.38 13.97 5.32 13.95 5.26C13.95 5.24 13.94 5.21 13.92 5.19C13.88 5.11 13.84 5.04 13.77 4.97L10.03 1.22C9.97 1.16 9.89 1.11 9.81 1.07C9.79 1.06 9.76 1.05 9.74 1.04C9.68 1.02 9.62 1.01 9.55 1C9.53 1 9.52 1 9.5 1H4C2.9 1 2 1.9 2 3V13C2 14.1 2.9 15 4 15H12C13.1 15 14 14.1 14 13V5.5C14 5.5 14 5.47 14 5.45H13.99ZM11.44 4.75H10.75C10.47 4.75 10.25 4.53 10.25 4.25V3.56L11.44 4.75ZM12 13.5H4C3.72 13.5 3.5 13.28 3.5 13V3C3.5 2.72 3.72 2.5 4 2.5H8.75V4.25C8.75 5.35 9.65 6.25 10.75 6.25H12.5V13C12.5 13.28 12.28 13.5 12 13.5Z" fill="currentColor"/>
</svg>
