<svg viewBox="0 0 16 16" fill="none" xmlns="http://www.w3.org/2000/svg">
<path d="M12.5 6.25V9C12.5 9.41 12.84 9.75 13.25 9.75C13.66 9.75 14 9.41 14 9V5.5C14 5.5 14 5.47 14 5.45C14 5.38 13.98 5.32 13.96 5.26C13.96 5.24 13.95 5.21 13.93 5.19C13.89 5.11 13.85 5.04 13.78 4.97L10.03 1.22C9.97 1.16 9.89 1.11 9.81 1.07C9.79 1.06 9.76 1.05 9.74 1.04C9.68 1.02 9.62 1.01 9.55 1C9.53 1 9.52 1 9.5 1H4C2.9 1 2 1.9 2 3V13C2 14.1 2.9 15 4 15H7.75C8.16 15 8.5 14.66 8.5 14.25C8.5 13.84 8.16 13.5 7.75 13.5H4C3.72 13.5 3.5 13.28 3.5 13V3C3.5 2.72 3.72 2.5 4 2.5H8.75V4.25C8.75 5.35 9.65 6.25 10.75 6.25H12.5ZM10.25 4.25V3.56L11.43 4.74H10.74C10.46 4.74 10.24 4.52 10.24 4.24L10.25 4.25Z" fill="currentColor"/>
<path d="M14.76 10.95C14.46 10.67 13.98 10.68 13.7 10.99L11.63 13.22L10.77 12.51C10.45 12.24 9.98 12.29 9.71 12.61C9.44 12.93 9.49 13.4 9.81 13.67L11.21 14.84C11.35 14.96 11.52 15.01 11.69 15.01C11.89 15.01 12.09 14.93 12.24 14.77L14.8 12.02C15.08 11.72 15.06 11.24 14.76 10.96V10.95Z" fill="currentColor"/>
</svg>
