<svg viewBox="0 0 16 16" fill="none" xmlns="http://www.w3.org/2000/svg">
<path d="M14.99 12.9914C14.99 12.9714 14.98 12.9515 14.98 12.9315C14.98 12.8515 14.96 12.7716 14.9301 12.7016C14.9301 12.6817 14.9001 12.6617 14.8901 12.6417C14.8501 12.5717 14.8101 12.5118 14.7602 12.4618C14.7602 12.4618 14.7602 12.4618 14.7602 12.4518L13.4312 11.2027C13.1314 10.9229 12.6518 10.9329 12.372 11.2427C12.1022 11.5325 12.1122 11.9622 12.372 12.252H10.0038C9.59416 12.252 9.25442 12.5917 9.25442 13.0014C9.25442 13.4111 9.59416 13.7509 10.0038 13.7509H12.382C12.1122 14.0407 12.1122 14.4804 12.382 14.7702C12.5319 14.93 12.7317 15 12.9216 15C13.1115 15 13.2913 14.93 13.4412 14.7901L14.7702 13.541C14.8301 13.4811 14.8801 13.4011 14.9201 13.3312C14.9201 13.3212 14.9301 13.3112 14.94 13.3012C14.98 13.2113 15 13.1114 15 13.0114L14.99 12.9914Z" fill="currentColor"/>
<path d="M12.4919 7.24554V9.24411C12.4919 9.65382 12.8317 9.99358 13.2414 9.99358C13.651 9.99358 13.9908 9.65382 13.9908 9.24411V6.49607C13.9908 6.49607 13.9908 6.4661 13.9908 6.4561C13.9908 6.39615 13.9808 6.33619 13.9608 6.28622C13.9608 6.26624 13.9508 6.23626 13.9408 6.21627C13.9108 6.13633 13.8709 6.06638 13.8109 6.00642L9.55419 1.24982C9.49424 1.17987 9.4143 1.12991 9.32437 1.08994C9.30438 1.07994 9.2744 1.06995 9.25442 1.05996C9.18447 1.02998 9.11453 1.01999 9.04458 1.00999C9.0246 1.00999 9.0146 1 8.99462 1H4.24827C3.00922 1 2 2.00928 2 3.24839V12.7416C2 13.9807 3.00922 14.99 4.24827 14.99H7.49577C7.90546 14.99 8.2452 14.6503 8.2452 14.2405C8.2452 13.8308 7.90546 13.4911 7.49577 13.4911H4.24827C3.83859 13.4911 3.49885 13.1513 3.49885 12.7416V3.24839C3.49885 2.83869 3.83859 2.49893 4.24827 2.49893H8.2452V4.99714C8.2452 6.23626 9.25442 7.24554 10.4935 7.24554H12.4919ZM9.74404 4.99714V3.70807L11.5626 5.74661H10.4935C10.0838 5.74661 9.74404 5.40685 9.74404 4.99714Z" fill="currentColor"/>
</svg>
