<svg viewBox="0 0 16 16" fill="none" xmlns="http://www.w3.org/2000/svg">
<path d="M13.75 4H2.25C1.84 4 1.5 4.34 1.5 4.75C1.5 5.16 1.84 5.5 2.25 5.5H13.75C14.16 5.5 14.5 5.16 14.5 4.75C14.5 4.34 14.16 4 13.75 4Z" fill="currentColor"/>
<path d="M12.5 7.25H3.5C3.09 7.25 2.75 7.59 2.75 8C2.75 8.41 3.09 8.75 3.5 8.75H12.5C12.91 8.75 13.25 8.41 13.25 8C13.25 7.59 12.91 7.25 12.5 7.25Z" fill="currentColor"/>
<path d="M11.25 10.5H4.75C4.34 10.5 4 10.84 4 11.25C4 11.66 4.34 12 4.75 12H11.25C11.66 12 12 11.66 12 11.25C12 10.84 11.66 10.5 11.25 10.5Z" fill="currentColor"/>
</svg>
