<svg viewBox="0 0 16 16" fill="none" xmlns="http://www.w3.org/2000/svg">
<path d="M10.2858 4.78621C10.0357 4.70626 9.75552 4.77622 9.55542 4.95611C9.35531 5.136 9.27527 5.40584 9.3353 5.66568C9.43535 6.13539 9.53541 7.25471 9.17522 7.69444C9.10518 7.78439 8.98512 7.88433 8.68496 7.88433C8.31477 7.88433 8.1747 7.72443 8.08465 7.57452C7.64443 6.83497 7.85453 4.8162 9.34531 2.11784C9.49538 1.83801 9.46537 1.49821 9.25526 1.25836C9.04515 1.01851 8.71498 0.938554 8.41482 1.04849C3.29217 3.04727 1.64132 8.39402 2.44173 11.3222C3.08206 13.6608 5.11311 15 7.99461 15C10.8761 15 12.9072 13.6608 13.5475 11.3222C14.3179 8.54393 12.8171 5.54575 10.2758 4.78621H10.2858ZM12.1067 10.9325C11.6465 12.5915 10.1857 13.5009 7.99461 13.5009C5.80347 13.5009 4.34271 12.5915 3.88248 10.9325C3.39222 9.16355 4.15262 5.6257 7.03411 3.50699C6.25371 5.54575 6.15365 7.26471 6.78398 8.33405C7.18419 9.00365 7.85453 9.37342 8.67496 9.37342C9.54541 9.37342 10.0557 8.96367 10.3358 8.62388C10.746 8.11419 10.8861 7.42461 10.9161 6.81498C11.9367 7.67446 12.557 9.23351 12.0967 10.9225L12.1067 10.9325Z" fill="currentColor"/>
</svg>
