<svg viewBox="0 0 16 16" fill="none" xmlns="http://www.w3.org/2000/svg">
<path d="M14.58 7.02C14.36 6.74 14.07 6.53 13.76 6.4V5.87C13.76 4.77 12.86 3.87 11.76 3.87H9.3C9.13 3.87 8.98 3.79 8.88 3.65L8.37 2.89C8 2.33 7.38 2 6.71 2H3C1.9 2 1 2.9 1 4V12C1 13.1 1.9 14 3 14C3.05 14 3.09 13.98 3.13 13.97C3.21 13.97 3.28 14 3.36 14H12.03C12.94 14 13.74 13.38 13.97 12.5L14.93 8.75C15.08 8.15 14.95 7.52 14.57 7.03L14.58 7.02ZM3 3.5H6.71C6.88 3.5 7.03 3.58 7.13 3.72L7.64 4.48C8.01 5.04 8.63 5.37 9.3 5.37H11.76C12.04 5.37 12.26 5.59 12.26 5.87V6.25H4.33C3.53 6.25 2.82 6.72 2.5 7.43V4C2.5 3.72 2.72 3.5 3 3.5ZM12.52 12.12C12.46 12.34 12.26 12.5 12.04 12.5H3.36C3.15 12.5 3.02 12.38 2.96 12.31C2.9 12.24 2.82 12.09 2.87 11.88L3.83 8.13C3.89 7.91 4.09 7.75 4.32 7.75H12.99C13.2 7.75 13.33 7.87 13.39 7.94C13.45 8.01 13.53 8.16 13.48 8.37L12.52 12.12Z" fill="currentColor"/>
</svg>
