<svg viewBox="0 0 16 16" fill="none" xmlns="http://www.w3.org/2000/svg">
<path d="M9.6 6.76C9.89 7.05 10.37 7.05 10.66 6.76C10.95 6.47 10.95 5.99 10.66 5.7C9.39 4.43 7.33 4.43 6.06 5.7C5.63 6.13 5.34 6.67 5.2 7.25H5.18C4.77 7.25 4.43 7.59 4.43 8C4.43 8.41 4.77 8.75 5.18 8.75H5.2C5.34 9.33 5.62 9.87 6.06 10.3C6.69 10.93 7.53 11.25 8.36 11.25C9.19 11.25 10.03 10.93 10.66 10.3C10.95 10.01 10.95 9.53 10.66 9.24C10.37 8.95 9.89 8.95 9.6 9.24C8.94 9.9 7.79 9.9 7.12 9.24C6.97 9.09 6.87 8.93 6.78 8.75H8.61C9.02 8.75 9.36 8.41 9.36 8C9.36 7.59 9.02 7.25 8.61 7.25H6.78C6.86 7.07 6.97 6.91 7.12 6.76C7.8 6.08 8.91 6.08 9.6 6.76Z" fill="currentColor"/>
<path d="M8 1C4.14 1 1 4.14 1 8C1 11.86 4.14 15 8 15C11.86 15 15 11.86 15 8C15 4.14 11.86 1 8 1ZM8 13.5C4.97 13.5 2.5 11.03 2.5 8C2.5 4.97 4.97 2.5 8 2.5C11.03 2.5 13.5 4.97 13.5 8C13.5 11.03 11.03 13.5 8 13.5Z" fill="currentColor"/>
</svg>
