<svg viewBox="0 0 16 16" fill="none" xmlns="http://www.w3.org/2000/svg">
<path d="M11.25 1H4.75C2.68 1 1 2.68 1 4.75V11.25C1 13.32 2.68 15 4.75 15H11.25C13.32 15 15 13.32 15 11.25V4.75C15 2.68 13.32 1 11.25 1ZM13.5 11.25C13.5 12.49 12.49 13.5 11.25 13.5H4.75C3.51 13.5 2.5 12.49 2.5 11.25V4.75C2.5 3.51 3.51 2.5 4.75 2.5H11.25C12.49 2.5 13.5 3.51 13.5 4.75V11.25Z" fill="currentColor"/>
<path d="M9.47 5.47L6.75 8.19V6.57C6.75 6.16 6.41 5.82 6 5.82C5.59 5.82 5.25 6.16 5.25 6.57V10C5.25 10.1 5.27 10.19 5.31 10.28C5.34 10.36 5.39 10.43 5.45 10.5C5.45 10.5 5.46 10.52 5.47 10.53C5.54 10.6 5.62 10.66 5.72 10.69C5.81 10.73 5.91 10.75 6 10.75H9.43C9.84 10.75 10.18 10.41 10.18 9.99C10.18 9.58 9.84 9.24 9.43 9.24H7.82L10.54 6.53C10.83 6.24 10.83 5.76 10.54 5.47C10.25 5.18 9.77 5.18 9.48 5.47H9.47Z" fill="currentColor"/>
</svg>
