<svg viewBox="0 0 16 16" fill="none" xmlns="http://www.w3.org/2000/svg">
  <path
    fill-rule="evenodd"
    clip-rule="evenodd"
    d="M4.97348 1.25336C5.19407 0.510019 5.87875 0 6.65606 0H11.1235C12.4407 0 13.2882 1.39343 12.6797 2.55847L10.858 6.04639H12.248C12.5428 6.04639 12.8105 6.21823 12.9325 6.48591C13.0546 6.75359 13.0085 7.06772 12.8147 7.28934L5.4224 15.7429C5.20324 15.9936 4.84478 16.0703 4.54177 15.9316C4.23876 15.7928 4.06356 15.4716 4.11137 15.1425L5.03823 8.76204H3.75203C3.5148 8.76204 3.29148 8.6504 3.14952 8.46085C3.00756 8.2713 2.9636 8.02606 3.03093 7.79919L4.97348 1.25336ZM6.65606 1.5C6.54502 1.5 6.44721 1.57286 6.41569 1.67905L4.75888 7.26204H5.90706C6.12532 7.26204 6.33282 7.35661 6.47566 7.5212C6.61851 7.68578 6.68261 7.90414 6.65131 8.11957L5.96567 12.8395L10.5943 7.54639H9.6183C9.35544 7.54639 9.11167 7.40951 8.97533 7.18538C8.839 6.96125 8.8299 6.6824 8.95133 6.4499L11.3458 1.8655C11.4327 1.69906 11.3116 1.5 11.1235 1.5H6.65606Z"
    fill="currentColor"
  />
</svg>
