<svg viewBox="0 0 16 16" xmlns="http://www.w3.org/2000/svg">
<g clip-path="url(#clip0_7513_4318)">
<path d="M14.97 9.7C14.98 9.65 15 9.6 15 9.55C15 9.54 15 9.52 15 9.51C15 9.47 14.98 9.44 14.98 9.4C14.98 9.36 14.98 9.33 14.97 9.29L13.4189 3.6C13.1287 2.64 12.268 2 11.2573 2H9.99643C9.58613 2 9.24589 2.34 9.24589 2.75C9.24589 3.16 9.58613 3.5 9.99643 3.5H11.2573C11.5876 3.5 11.8778 3.71 11.9778 4.03L13.2387 8.76H10.4968C9.78628 8.76 9.16583 9.13 8.81558 9.69C8.5654 9.58 8.2852 9.51 7.995 9.51C7.70479 9.51 7.42459 9.58 7.17441 9.69C6.81415 9.13 6.20372 8.76 5.49321 8.76H2.76126L4.02216 4.03C4.12223 3.71 4.40243 3.5 4.74267 3.5H6.00357C6.41387 3.5 6.75411 3.16 6.75411 2.75C6.75411 2.34 6.41387 2 6.00357 2H4.74267C3.74196 2 2.87134 2.64 2.58113 3.6L1.03002 9.29C1.03002 9.29 1.03002 9.36 1.02001 9.4C1.02001 9.44 1 9.47 1 9.51C1 9.52 1 9.54 1 9.55C1 9.6 1.02001 9.65 1.03002 9.7C1.04003 9.74 1.05004 9.79 1.07005 9.83C1.09006 9.87 1.12009 9.91 1.15011 9.95C1.18013 9.99 1.20014 10.03 1.24017 10.06C1.27019 10.09 1.31022 10.11 1.35025 10.14C1.39028 10.17 1.44031 10.2 1.49035 10.21C1.50036 10.21 1.51036 10.22 1.53038 10.23C1.5604 10.23 1.59042 10.23 1.62044 10.24V11.38C1.62044 12.83 2.80129 14 4.24232 14H4.86276C6.22373 14 7.33452 12.96 7.46462 11.63C7.46462 11.59 7.49464 11.55 7.49464 11.5C7.49464 11.22 7.7148 11 7.995 11C8.2752 11 8.49535 11.22 8.49535 11.5C8.49535 11.54 8.51537 11.58 8.52538 11.63C8.65547 12.96 9.76626 14 11.1272 14H11.7477C13.1987 14 14.3695 12.82 14.3695 11.38V10.24C14.3695 10.24 14.4296 10.24 14.4596 10.23C14.4696 10.23 14.4796 10.22 14.4996 10.21C14.5497 10.19 14.5897 10.16 14.6397 10.14C14.6798 10.12 14.7198 10.1 14.7498 10.06C14.7898 10.03 14.8099 9.99 14.8399 9.95C14.8699 9.91 14.8999 9.88 14.9199 9.83C14.94 9.79 14.95 9.75 14.96 9.7H14.97ZM4.26233 12.5C3.64189 12.5 3.14153 12 3.14153 11.38V10.26H5.52323C5.80343 10.26 6.02359 10.48 6.02359 10.76V11.38C6.02359 12 5.52323 12.5 4.90279 12.5H4.26233ZM12.8885 11.38C12.8885 12 12.3881 12.5 11.7677 12.5H11.1472C10.5268 12.5 10.0264 12 10.0264 11.38V10.76C10.0264 10.48 10.2466 10.26 10.5268 10.26H12.9085V11.38H12.8885Z" fill="currentColor"/>
</g>
</svg>
