<svg viewBox="0 0 16 16" fill="none" xmlns="http://www.w3.org/2000/svg">
<path d="M14.2522 5.34C13.8222 4.8 13.1822 4.5 12.5022 4.5H11.9522C11.7022 2.53 10.0422 1 8.0022 1C5.9622 1 4.3022 2.53 4.0522 4.5H3.5022C2.8122 4.5 2.1822 4.81 1.7522 5.34C1.3222 5.88 1.1622 6.57 1.3022 7.24L2.5522 12.85C2.8322 14.12 3.9322 15 5.2322 15H10.7622C12.0622 15 13.1622 14.11 13.4422 12.85L14.6922 7.24C14.8422 6.57 14.6822 5.88 14.2522 5.34ZM8.0022 2.5C9.2122 2.5 10.2222 3.36 10.4522 4.5H5.5522C5.7822 3.36 6.7922 2.5 8.0022 2.5ZM11.9922 12.52C11.8622 13.09 11.3522 13.5 10.7722 13.5H5.2322C4.6522 13.5 4.1422 13.09 4.0122 12.52L2.7622 6.91C2.7122 6.69 2.7622 6.46 2.9122 6.28C3.0522 6.1 3.2722 6 3.4922 6H12.4922C12.7222 6 12.9322 6.1 13.0722 6.28C13.2122 6.46 13.2722 6.69 13.2222 6.91L11.9722 12.52H11.9922Z" fill="currentColor"/>
</svg>
