<svg viewBox="0 0 16 16" fill="none" xmlns="http://www.w3.org/2000/svg">
<path d="M8 1C4.14 1 1 4.14 1 8C1 11.86 4.14 15 8 15C11.86 15 15 11.86 15 8C15 4.14 11.86 1 8 1ZM8 13.5C4.97 13.5 2.5 11.03 2.5 8C2.5 4.97 4.97 2.5 8 2.5C11.03 2.5 13.5 4.97 13.5 8C13.5 11.03 11.03 13.5 8 13.5Z" fill="currentColor"/>
<path d="M8.54 4.07C7.9 3.91 7.23 4.04 6.72 4.44C6.21 4.84 5.91 5.44 5.91 6.09C5.91 6.5 6.25 6.84 6.66 6.84C7.07 6.84 7.41 6.5 7.41 6.09C7.41 5.91 7.49 5.74 7.64 5.62C7.72 5.55 7.91 5.45 8.17 5.52C8.36 5.57 8.52 5.73 8.57 5.92C8.65 6.24 8.49 6.48 8.32 6.59C7.68 6.99 7.26 7.78 7.26 8.55V8.75C7.26 9.16 7.6 9.5 8.01 9.5C8.42 9.5 8.76 9.16 8.76 8.75V8.55C8.76 8.3 8.93 7.99 9.13 7.86C9.9 7.37 10.26 6.44 10.03 5.55C9.85 4.84 9.27 4.26 8.55 4.07H8.54Z" fill="currentColor"/>
<path d="M8 10C7.45 10 7 10.45 7 11C7 11.55 7.45 12 8 12C8.55 12 9 11.55 9 11C9 10.45 8.55 10 8 10Z" fill="currentColor"/>
</svg>
