<svg viewBox="0 0 16 16" fill="none" xmlns="http://www.w3.org/2000/svg">
  <path
    d="M9.49824 4.9017C9.0837 4.54533 8.54552 4.36351 8.00006 4.36351C7.45461 4.36351 6.91642 4.54533 6.50188 4.9017C6.17461 5.17806 5.99279 5.49806 5.89824 5.81806C5.81824 6.1017 5.81824 6.36351 5.81824 6.52351V6.55261C5.81824 6.95261 6.13824 7.27988 6.53824 7.28715C6.93824 7.28715 7.26552 6.96715 7.27279 6.56715C7.27279 6.38533 7.27279 6.30533 7.30188 6.22533C7.31643 6.17442 7.34551 6.10897 7.44733 6.01442C7.57824 5.90533 7.77461 5.82533 8.00006 5.82533C8.22552 5.82533 8.42188 5.90533 8.55279 6.01442C8.67642 6.12351 8.72733 6.24715 8.72733 6.3417V6.45079C8.72733 6.55261 8.6837 6.67624 8.55279 6.78533L7.95642 7.3017C7.75279 7.47624 7.57824 7.69442 7.46188 7.9417C7.34551 8.18897 7.28006 8.45806 7.28006 8.73442C7.28006 9.13442 7.60733 9.4617 8.00733 9.4617C8.40733 9.4617 8.73461 9.13442 8.73461 8.73442C8.73461 8.68351 8.74915 8.63261 8.77097 8.57442C8.80006 8.51624 8.8437 8.45806 8.90188 8.40715L9.50552 7.89079C9.92006 7.53442 10.1819 7.01806 10.1819 6.45806V6.3417C10.1819 5.77442 9.91279 5.26533 9.49824 4.90897V4.9017Z"
    fill="currentColor"
  />
  <path
    d="M8.00006 11.6362C8.40172 11.6362 8.72733 11.3106 8.72733 10.909C8.72733 10.5073 8.40172 10.1817 8.00006 10.1817C7.5984 10.1817 7.27279 10.5073 7.27279 10.909C7.27279 11.3106 7.5984 11.6362 8.00006 11.6362Z"
    fill="currentColor"
  />
  <path
    fill-rule="evenodd"
    clip-rule="evenodd"
    d="M8.00006 -0.00012207C3.58178 -0.00012207 6.10352e-05 3.5816 6.10352e-05 7.99988C6.10352e-05 12.4182 3.58178 15.9999 8.00006 15.9999C12.4183 15.9999 16.0001 12.4182 16.0001 7.99988C16.0001 3.5816 12.4183 -0.00012207 8.00006 -0.00012207ZM1.45461 7.99988C1.45461 4.38492 4.38511 1.45442 8.00006 1.45442C11.615 1.45442 14.5455 4.38492 14.5455 7.99988C14.5455 11.6148 11.615 14.5453 8.00006 14.5453C4.38511 14.5453 1.45461 11.6148 1.45461 7.99988Z"
    fill="currentColor"
  />
</svg>
