<svg viewBox="0 0 16 16" fill="none" xmlns="http://www.w3.org/2000/svg">
<path d="M14.06 4.82L9.34 1.42C8.56 0.86 7.51 0.86 6.72 1.42L1.94 4.82C1.35 5.24 1 5.93 1 6.65V14.25C1 14.66 1.34 15 1.75 15H5.5C5.91 15 6.25 14.66 6.25 14.25V10.25C6.25 10.11 6.36 10 6.5 10H9.5C9.64 10 9.75 10.11 9.75 10.25V14.25C9.75 14.66 10.09 15 10.5 15H14.25C14.66 15 15 14.66 15 14.25V6.65C15 5.93 14.65 5.25 14.06 4.82ZM13.5 13.5H11.25V10.25C11.25 9.29 10.46 8.5 9.5 8.5H6.5C5.54 8.5 4.75 9.29 4.75 10.25V13.5H2.5V6.65C2.5 6.41 2.62 6.18 2.81 6.04L7.59 2.64C7.85 2.45 8.2 2.45 8.46 2.64L13.18 6.04C13.38 6.18 13.49 6.41 13.49 6.65V13.5H13.5Z" fill="currentColor"/>
</svg>
