<svg viewBox="0 0 16 16" fill="none" xmlns="http://www.w3.org/2000/svg">
<path d="M12.75 1H3.25C2.01 1 1 2.01 1 3.25V12.75C1 13.99 2.01 15 3.25 15H12.75C13.99 15 15 13.99 15 12.75V3.25C15 2.01 13.99 1 12.75 1ZM3.25 2.5H12.75C13.16 2.5 13.5 2.84 13.5 3.25V5H2.5V3.25C2.5 2.84 2.84 2.5 3.25 2.5ZM12.75 13.5H3.25C2.84 13.5 2.5 13.16 2.5 12.75V6.5H13.5V12.75C13.5 13.16 13.16 13.5 12.75 13.5Z" fill="currentColor"/>
<path d="M4 4.5H4.5C4.91 4.5 5.25 4.16 5.25 3.75C5.25 3.34 4.91 3 4.5 3H4C3.59 3 3.25 3.34 3.25 3.75C3.25 4.16 3.59 4.5 4 4.5Z" fill="currentColor"/>
<path d="M7 4.5H7.5C7.91 4.5 8.25 4.16 8.25 3.75C8.25 3.34 7.91 3 7.5 3H7C6.59 3 6.25 3.34 6.25 3.75C6.25 4.16 6.59 4.5 7 4.5Z" fill="currentColor"/>
</svg>
