<svg viewBox="0 0 16 16" fill="none" xmlns="http://www.w3.org/2000/svg">
<path d="M12.75 1H3.25C2.01 1 1 2.01 1 3.25V12.75C1 13.99 2.01 15 3.25 15H9.08C9.49 15 9.83 14.66 9.83 14.25C9.83 13.84 9.49 13.5 9.08 13.5H3.25C2.84 13.5 2.5 13.16 2.5 12.75V12L4.21 9.7L6.65 10.92C6.95 11.07 7.31 11 7.54 10.76L10.11 7.98L11.08 8.63C11.43 8.86 11.89 8.77 12.12 8.42C12.35 8.08 12.26 7.61 11.91 7.38L10.41 6.38C10.1 6.17 9.69 6.22 9.44 6.5L6.82 9.34L4.32 8.09C3.99 7.93 3.6 8.02 3.38 8.31L2.49 9.5V3.25C2.49 2.84 2.83 2.5 3.24 2.5H12.74C13.15 2.5 13.49 2.84 13.49 3.25V9.08C13.49 9.49 13.83 9.83 14.24 9.83C14.65 9.83 14.99 9.49 14.99 9.08V3.25C14.99 2.01 13.98 1 12.74 1H12.75Z" fill="currentColor"/>
<path d="M14.25 11.75H13.25V10.75C13.25 10.34 12.91 10 12.5 10C12.09 10 11.75 10.34 11.75 10.75V11.75H10.75C10.34 11.75 10 12.09 10 12.5C10 12.91 10.34 13.25 10.75 13.25H11.75V14.25C11.75 14.66 12.09 15 12.5 15C12.91 15 13.25 14.66 13.25 14.25V13.25H14.25C14.66 13.25 15 12.91 15 12.5C15 12.09 14.66 11.75 14.25 11.75Z" fill="currentColor"/>
<path d="M5.49 7C6.31843 7 6.99 6.32843 6.99 5.5C6.99 4.67157 6.31843 4 5.49 4C4.66157 4 3.99 4.67157 3.99 5.5C3.99 6.32843 4.66157 7 5.49 7Z" fill="currentColor"/>
</svg>
