<svg viewBox="0 0 16 16" fill="none" xmlns="http://www.w3.org/2000/svg">
  <path
    d="M9 4.99988C9 5.55216 8.55229 5.99988 8 5.99988C7.44772 5.99988 7 5.55216 7 4.99988C7 4.44759 7.44772 3.99988 8 3.99988C8.55229 3.99988 9 4.44759 9 4.99988Z"
    fill="currentColor"
  />
  <path
    d="M8 6.78504C8.41421 6.78504 8.75 7.12082 8.75 7.53504V10.9989C8.75 11.4131 8.41422 11.7489 8 11.7489C7.58579 11.7489 7.25 11.4131 7.25 10.9989V7.53504C7.25 7.12082 7.58579 6.78504 8 6.78504Z"
    fill="currentColor"
  />
  <path
    fill-rule="evenodd"
    clip-rule="evenodd"
    d="M8 15.9999C12.4183 15.9999 16 12.4182 16 7.99988C16 3.5816 12.4183 -0.00012207 8 -0.00012207C3.58172 -0.00012207 0 3.5816 0 7.99988C0 12.4182 3.58172 15.9999 8 15.9999ZM14.5 7.99988C14.5 11.5897 11.5899 14.4999 8 14.4999C4.41015 14.4999 1.5 11.5897 1.5 7.99988C1.5 4.41003 4.41015 1.49988 8 1.49988C11.5899 1.49988 14.5 4.41003 14.5 7.99988Z"
    fill="currentColor"
  />
</svg>
