<svg viewBox="0 0 16 16" fill="none" xmlns="http://www.w3.org/2000/svg">
<path d="M8 1C4.14 1 1 4.14 1 8C1 11.86 4.14 15 8 15C11.86 15 15 11.86 15 8C15 4.14 11.86 1 8 1ZM8 13.5C4.97 13.5 2.5 11.03 2.5 8C2.5 4.97 4.97 2.5 8 2.5C11.03 2.5 13.5 4.97 13.5 8C13.5 11.03 11.03 13.5 8 13.5Z" fill="currentColor"/>
<path d="M8 7C7.59 7 7.25 7.34 7.25 7.75V11.25C7.25 11.66 7.59 12 8 12C8.41 12 8.75 11.66 8.75 11.25V7.75C8.75 7.34 8.41 7 8 7Z" fill="currentColor"/>
<path d="M8 6C8.55228 6 9 5.55228 9 5C9 4.44772 8.55228 4 8 4C7.44772 4 7 4.44772 7 5C7 5.55228 7.44772 6 8 6Z" fill="currentColor"/>
</svg>
