<svg viewBox="0 0 16 16" fill="none" xmlns="http://www.w3.org/2000/svg">
<path d="M5.24 1.005C5.24 1.005 5.21 1.005 5.2 1.005C5.12 1.005 5.05 1.02502 4.98 1.05504C4.96 1.05504 4.93 1.07505 4.91 1.08506C4.83 1.12509 4.75 1.17513 4.68 1.25518L2.43 3.75697C2.37 3.81701 2.33 3.89707 2.3 3.96712C2.3 3.98713 2.29 4.01716 2.28 4.03717C2.26 4.09721 2.25 4.14725 2.25 4.20729C2.25 4.22731 2.25 4.23731 2.25 4.24732V14.2545C2.25 14.6648 2.59 15.005 3 15.005H13C13.41 15.005 13.75 14.6648 13.75 14.2545V1.75554C13.75 1.34525 13.41 1.005 13 1.005H5.24ZM12.24 13.5139H3.74V5.00786H5.24C5.65 5.00786 5.99 4.66762 5.99 4.25733V2.50608H12.24V13.5139Z" fill="currentColor"/>
<path d="M7.95 8.76054C8.27 8.87062 8.37 9.08077 8.37 9.17084C8.37 9.36097 8.21 9.52109 8.02 9.52109C7.77 9.52109 7.44 9.32094 7.31 9.23088C6.99 8.9707 6.52 9.02073 6.26 9.35097C6 9.6712 6.05 10.1415 6.37 10.4017C6.42 10.4417 6.78 10.7119 7.26 10.8821V10.9921C7.26 11.4024 7.6 11.7427 8.01 11.7427C8.42 11.7427 8.76 11.4024 8.76 10.9921V10.852C9.4 10.5618 9.86 9.92137 9.86 9.17084C9.86 8.36026 9.28 7.62974 8.41 7.33953C7.93 7.17942 7.66 6.90922 7.66 6.77913C7.66 6.53896 7.88 6.47891 8 6.47891C8.26 6.47891 8.55 6.64904 8.63 6.69907C8.96 6.94925 9.43 6.8792 9.68 6.53896C9.93 6.20872 9.86 5.73839 9.52 5.48821C9.47 5.45819 9.17 5.24804 8.75 5.10794V5.01787C8.75 4.60758 8.41 4.26733 8 4.26733C7.59 4.26733 7.25 4.60758 7.25 5.01787V5.11794C6.6 5.39814 6.15 6.01859 6.15 6.76912C6.15 7.61973 6.83 8.38027 7.92 8.75054L7.95 8.76054Z" fill="currentColor"/>
</svg>
