<svg viewBox="0 0 17 17" fill="none" xmlns="http://www.w3.org/2000/svg">
<path d="M8.77612 4.03369C6.29612 4.03369 4.27612 6.05369 4.27612 8.53369C4.27612 11.0137 6.29612 13.0337 8.77612 13.0337C11.2561 13.0337 13.2761 11.0137 13.2761 8.53369C13.2761 6.05369 11.2561 4.03369 8.77612 4.03369ZM8.77612 11.5337C7.12612 11.5337 5.77612 10.1837 5.77612 8.53369C5.77612 6.88369 7.12612 5.53369 8.77612 5.53369C10.4261 5.53369 11.7761 6.88369 11.7761 8.53369C11.7761 10.1837 10.4261 11.5337 8.77612 11.5337Z" fill="currentColor"/>
<path d="M8.77612 3.65369C9.18612 3.65369 9.52612 3.31369 9.52612 2.90369V2.28369C9.52612 1.87369 9.18612 1.53369 8.77612 1.53369C8.36612 1.53369 8.02612 1.87369 8.02612 2.28369V2.90369C8.02612 3.31369 8.36612 3.65369 8.77612 3.65369Z" fill="currentColor"/>
<path d="M8.77612 13.4137C8.36612 13.4137 8.02612 13.7537 8.02612 14.1637V14.7837C8.02612 15.1937 8.36612 15.5337 8.77612 15.5337C9.18612 15.5337 9.52612 15.1937 9.52612 14.7837V14.1637C9.52612 13.7537 9.18612 13.4137 8.77612 13.4137Z" fill="currentColor"/>
<path d="M12.7561 5.30369C12.9461 5.30369 13.1361 5.23369 13.2861 5.08369L13.7261 4.64369C14.0161 4.35369 14.0161 3.87369 13.7261 3.58369C13.4361 3.29369 12.9561 3.29369 12.6661 3.58369L12.2261 4.02369C11.9361 4.31369 11.9361 4.79369 12.2261 5.08369C12.3761 5.23369 12.5661 5.30369 12.7561 5.30369Z" fill="currentColor"/>
<path d="M4.26612 11.9837L3.82612 12.4237C3.53612 12.7137 3.53612 13.1937 3.82612 13.4837C3.97612 13.6337 4.16612 13.7037 4.35612 13.7037C4.54612 13.7037 4.73612 13.6337 4.88612 13.4837L5.32612 13.0437C5.61612 12.7537 5.61612 12.2737 5.32612 11.9837C5.03612 11.6937 4.55612 11.6937 4.26612 11.9837Z" fill="currentColor"/>
<path d="M15.0261 7.78369H14.4061C13.9961 7.78369 13.6561 8.12369 13.6561 8.53369C13.6561 8.94369 13.9961 9.28369 14.4061 9.28369H15.0261C15.4361 9.28369 15.7761 8.94369 15.7761 8.53369C15.7761 8.12369 15.4361 7.78369 15.0261 7.78369Z" fill="currentColor"/>
<path d="M3.89612 8.53369C3.89612 8.12369 3.55612 7.78369 3.14612 7.78369H2.52612C2.11612 7.78369 1.77612 8.12369 1.77612 8.53369C1.77612 8.94369 2.11612 9.28369 2.52612 9.28369H3.14612C3.55612 9.28369 3.89612 8.94369 3.89612 8.53369Z" fill="currentColor"/>
<path d="M13.2861 11.9837C12.9961 11.6937 12.5161 11.6937 12.2261 11.9837C11.9361 12.2737 11.9361 12.7537 12.2261 13.0437L12.6661 13.4837C12.8161 13.6337 13.0061 13.7037 13.1961 13.7037C13.3861 13.7037 13.5761 13.6337 13.7261 13.4837C14.0161 13.1937 14.0161 12.7137 13.7261 12.4237L13.2861 11.9837Z" fill="currentColor"/>
<path d="M4.26612 5.08369C4.41612 5.23369 4.60612 5.30369 4.79612 5.30369C4.98612 5.30369 5.17612 5.23369 5.32612 5.08369C5.61612 4.79369 5.61612 4.31369 5.32612 4.02369L4.88612 3.58369C4.59612 3.29369 4.11612 3.29369 3.82612 3.58369C3.53612 3.87369 3.53612 4.35369 3.82612 4.64369L4.26612 5.08369Z" fill="currentColor"/>
</svg>
