<svg viewBox="0 0 16 16" fill="none" xmlns="http://www.w3.org/2000/svg">
<path d="M11.58 2.19C10.36 1.19 8.77002 0.790003 7.20002 1.1C5.13002 1.51 3.48002 3.18 3.09002 5.27C2.77002 7.03 3.29002 8.75 4.53002 10C4.78002 10.25 4.92002 10.56 4.92002 10.87V12.35C4.92002 12.76 5.26002 13.1 5.67002 13.1H5.99002V14C5.99002 14.55 6.44002 15 6.99002 15H9.49002C10.04 15 10.49 14.55 10.49 14V13.1H10.81C11.22 13.1 11.56 12.76 11.56 12.35V10.87C11.56 10.57 11.7 10.26 11.94 10.02C12.94 9.02 13.49 7.69 13.49 6.28C13.49 4.69 12.79 3.2 11.57 2.2L11.58 2.19ZM10.89 8.95C10.36 9.48 10.07 10.16 10.07 10.86V11.59H9.00002V8.73L10.11 7.18C10.35 6.84 10.27 6.38 9.94002 6.13C9.60002 5.89 9.13002 5.97 8.89002 6.3L8.25002 7.2L7.61002 6.3C7.37002 5.96 6.90002 5.88 6.56002 6.13C6.22002 6.37 6.14002 6.84 6.39002 7.18L7.50002 8.73V11.59H6.43002V10.86C6.43002 10.16 6.14002 9.47 5.60002 8.94C4.71002 8.05 4.33002 6.81 4.57002 5.54C4.84002 4.05 6.02002 2.86 7.49002 2.57C8.63002 2.35 9.74002 2.62 10.62 3.35C11.5 4.07 12 5.14 12 6.28C12 7.29 11.61 8.24 10.89 8.96V8.95Z" fill="currentColor"/>
</svg>
