<svg viewBox="0 0 16 16" fill="none" xmlns="http://www.w3.org/2000/svg">
  <path
    fill-rule="evenodd"
    clip-rule="evenodd"
    d="M8 0C3.58172 0 3.86258e-07 3.58172 0 8C-3.86258e-07 12.4183 3.58172 16 8 16C12.4183 16 16 12.4183 16 8C16 3.58172 12.4183 0 8 0ZM11.5738 8.31564C12.6477 7.24169 12.6477 5.50049 11.5738 4.42655C10.4998 3.35261 8.75862 3.35261 7.68468 4.42655L7.33112 4.7801C7.03823 5.073 7.03823 5.54787 7.33112 5.84076C7.62402 6.13366 8.09889 6.13366 8.39178 5.84076L8.74534 5.48721C9.23349 4.99905 10.0249 4.99905 10.5131 5.48721C11.0013 5.97537 11.0013 6.76682 10.5131 7.25498L10.1596 7.60853C9.86666 7.90142 9.86666 8.3763 10.1596 8.66919C10.4524 8.96208 10.9273 8.96208 11.2202 8.66919L11.5738 8.31564ZM9.53835 7.51949C9.83089 7.22624 9.83032 6.75137 9.53707 6.45883C9.24382 6.16629 8.76895 6.16686 8.47641 6.46011L6.46084 8.48057C6.1683 8.77381 6.16888 9.24869 6.46212 9.54122C6.75537 9.83376 7.23024 9.83319 7.52278 9.53994L9.53835 7.51949ZM4.4263 11.575C5.50025 12.6489 7.24145 12.6489 8.31539 11.575L8.66894 11.2214C8.96184 10.9285 8.96184 10.4537 8.66894 10.1608C8.37605 9.86788 7.90118 9.86788 7.60828 10.1608L7.25473 10.5143C6.76658 11.0025 5.97512 11.0025 5.48696 10.5143C4.99881 10.0262 4.99881 9.23472 5.48696 8.74656L5.84052 8.39301C6.13341 8.10011 6.13341 7.62524 5.84052 7.33235C5.54762 7.03945 5.07275 7.03945 4.77986 7.33235L4.4263 7.6859C3.35236 8.75984 3.35236 10.501 4.4263 11.575Z"
    fill="currentColor"
  />
</svg>
