<svg viewBox="0 0 16 16" fill="none" xmlns="http://www.w3.org/2000/svg">
<path d="M14.25 7.25C13.84 7.25 13.5 7.59 13.5 8V12.75C13.5 13.16 13.16 13.5 12.75 13.5H3.25C2.84 13.5 2.5 13.16 2.5 12.75V3.25C2.5 2.84 2.84 2.5 3.25 2.5H8C8.41 2.5 8.75 2.16 8.75 1.75C8.75 1.34 8.41 1 8 1H3.25C2.01 1 1 2.01 1 3.25V12.75C1 13.99 2.01 15 3.25 15H12.75C13.99 15 15 13.99 15 12.75V8C15 7.59 14.66 7.25 14.25 7.25Z" fill="currentColor"/>
<path d="M10.75 6C10.94 6 11.13 5.93 11.28 5.78L13.5 3.56V4.75C13.5 5.16 13.84 5.5 14.25 5.5C14.67 5.5 15 5.16 15 4.75V1.75C15 1.75 14.98 1.72 14.98 1.71C14.98 1.63 14.96 1.54 14.93 1.47C14.9 1.4 14.85 1.34 14.8 1.28C14.79 1.26 14.78 1.24 14.77 1.23H14.76C14.61 1.07 14.42 1 14.24 1H11.25C10.84 1.01 10.5 1.35 10.5 1.76C10.5 2.17 10.84 2.51 11.25 2.51H12.43L10.22 4.72C9.93 5.01 9.93 5.49 10.22 5.78C10.37 5.93 10.56 6 10.75 6Z" fill="currentColor"/>
</svg>
