<svg viewBox="0 0 16 16" fill="none" xmlns="http://www.w3.org/2000/svg">
<path d="M8.91033 11.6787L8.04001 12.5487C6.77956 13.8087 4.71883 13.8087 3.44837 12.5487C2.18792 11.2887 2.18792 9.22872 3.44837 7.95872L4.31869 7.08872C4.60879 6.79872 4.60879 6.31872 4.31869 6.02872C4.02858 5.73872 3.54841 5.73872 3.25831 6.02872L2.388 6.89872C0.537335 8.74872 0.537335 11.7587 2.388 13.6087C3.31833 14.5387 4.52876 14.9987 5.73919 14.9987C6.94962 14.9987 8.17006 14.5387 9.09039 13.6087L9.9607 12.7387C10.2508 12.4487 10.2508 11.9687 9.9607 11.6787C9.6706 11.3887 9.19042 11.3887 8.90032 11.6787H8.91033Z" fill="currentColor"/>
<path d="M13.612 2.38872C11.7613 0.538721 8.75027 0.538721 6.89961 2.38872L6.0293 3.25872C5.73919 3.54872 5.73919 4.02872 6.0293 4.31872C6.3194 4.60872 6.79957 4.60872 7.08967 4.31872L7.95999 3.44872C9.22044 2.18872 11.2812 2.18872 12.5516 3.44872C13.8221 4.70872 13.8121 6.76872 12.5516 8.03872L11.6813 8.90872C11.3912 9.19872 11.3912 9.67872 11.6813 9.96872C11.8314 10.1187 12.0214 10.1887 12.2115 10.1887C12.4016 10.1887 12.5916 10.1187 12.7417 9.96872L13.612 9.09872C15.4627 7.24872 15.4627 4.23872 13.612 2.38872Z" fill="currentColor"/>
<path d="M9.73062 5.20872L5.209 9.72872C4.9189 10.0187 4.9189 10.4987 5.209 10.7887C5.35906 10.9387 5.54912 11.0087 5.73919 11.0087C5.92926 11.0087 6.11933 10.9387 6.26938 10.7887L10.791 6.26872C11.0811 5.97872 11.0811 5.49872 10.791 5.20872C10.5009 4.91872 10.0207 4.91872 9.73062 5.20872Z" fill="currentColor"/>
</svg>
