<svg viewBox="0 0 16 16" fill="none" xmlns="http://www.w3.org/2000/svg">
<path d="M2.44 3H1.75C1.34 3 1 3.34 1 3.75C1 4.16 1.34 4.5 1.75 4.5H2.44C2.85 4.5 3.19 4.16 3.19 3.75C3.19 3.34 2.85 3 2.44 3Z" fill="currentColor"/>
<path d="M2.44 7.25H1.75C1.34 7.25 1 7.59 1 8C1 8.41 1.34 8.75 1.75 8.75H2.44C2.85 8.75 3.19 8.41 3.19 8C3.19 7.59 2.85 7.25 2.44 7.25Z" fill="currentColor"/>
<path d="M2.44 11.5H1.75C1.34 11.5 1 11.84 1 12.25C1 12.66 1.34 13 1.75 13H2.44C2.85 13 3.19 12.66 3.19 12.25C3.19 11.84 2.85 11.5 2.44 11.5Z" fill="currentColor"/>
<path d="M5.92 4.5H14.25C14.66 4.5 15 4.16 15 3.75C15 3.34 14.66 3 14.25 3H5.92C5.51 3 5.17 3.34 5.17 3.75C5.17 4.16 5.51 4.5 5.92 4.5Z" fill="currentColor"/>
<path d="M14.25 7.25H5.92C5.51 7.25 5.17 7.59 5.17 8C5.17 8.41 5.51 8.75 5.92 8.75H14.25C14.66 8.75 15 8.41 15 8C15 7.59 14.66 7.25 14.25 7.25Z" fill="currentColor"/>
<path d="M14.25 11.5H5.92C5.51 11.5 5.17 11.84 5.17 12.25C5.17 12.66 5.51 13 5.92 13H14.25C14.66 13 15 12.66 15 12.25C15 11.84 14.66 11.5 14.25 11.5Z" fill="currentColor"/>
</svg>
