<svg viewBox="0 0 16 16" fill="none" xmlns="http://www.w3.org/2000/svg">
<path d="M15.98 5.3685C15.98 5.3685 15.98 5.30847 15.97 5.27845C15.95 5.20842 15.92 5.14838 15.89 5.08835C15.86 5.03832 15.82 4.9983 15.78 4.95828C15.76 4.93827 15.75 4.92827 15.73 4.90825C15.7 4.88824 15.69 4.85823 15.65 4.83822L10.21 1.35635C9.48 0.886099 8.53 0.886099 7.8 1.35635L2.35 4.82821C2.35 4.82821 2.3 4.87824 2.27 4.89825C2.25 4.91826 2.24 4.92827 2.22 4.94828C2.18 4.9883 2.14 5.02832 2.11 5.07835C2.07 5.13838 2.05 5.19841 2.03 5.26845C2.03 5.29846 2.03 5.32848 2.02 5.3585C2.02 5.39852 2 5.42853 2 5.46855V13.2527C2 14.2232 2.79 15.0037 3.75 15.0037H14.25C15.21 15.0037 16 14.2132 16 13.2527V5.46855C16 5.46855 15.99 5.38851 15.98 5.3585V5.3685ZM8.6 2.62703C8.84 2.46695 9.16 2.46695 9.4 2.62703L13.97 5.5486L9.46 9.17054C9.18 9.39066 8.8 9.39066 8.52 9.17054L4.01 5.5486L8.6 2.62703ZM14.5 13.2627C14.5 13.4028 14.39 13.5129 14.25 13.5129H3.75C3.61 13.5129 3.5 13.4028 3.5 13.2627V7.0494L7.59 10.3412C8.42 11.0115 9.58 11.0115 10.41 10.3412L14.5 7.0494V13.2627Z" fill="currentColor"/>
</svg>
