<svg viewBox="0 0 16 16" fill="none" xmlns="http://www.w3.org/2000/svg">
<path d="M12.6381 3H10.8881V2.5H11.3881C11.7981 2.5 12.1381 2.16 12.1381 1.75C12.1381 1.34 11.7981 1 11.3881 1H10.1381C9.72806 1 9.38806 1.34 9.38806 1.75V3H5.13806C3.34806 3 1.88806 4.44 1.88806 6.21V11.75C1.88806 12.16 2.22806 12.5 2.63806 12.5H5.63806V14.25C5.63806 14.66 5.97806 15 6.38806 15H11.3881C11.7981 15 12.1381 14.66 12.1381 14.25V12.5H15.1381C15.5481 12.5 15.8881 12.16 15.8881 11.75V6.21C15.8881 4.44 14.4281 3 12.6381 3ZM3.38806 6.21C3.38806 5.27 4.17806 4.5 5.13806 4.5C6.09806 4.5 6.88806 5.27 6.88806 6.21V11H3.38806V6.21ZM10.6381 13.5H7.13806V12.5H10.6381V13.5ZM14.3881 11H8.38806V6.21C8.38806 5.58 8.19806 4.99 7.87806 4.5H9.38806V6.75C9.38806 7.16 9.72806 7.5 10.1381 7.5C10.5481 7.5 10.8881 7.16 10.8881 6.75V4.5H12.6381C13.5981 4.5 14.3881 5.27 14.3881 6.21V11Z" fill="currentColor"/>
</svg>
