<svg viewBox="0 0 17 16" fill="none" xmlns="http://www.w3.org/2000/svg">
<path d="M6.67809 10.33C6.64809 10.08 6.67809 9.47 7.52809 9.28C9.63809 8.8 9.63809 6.89 9.63809 4.87H8.13809C8.13809 7.19 7.99809 7.63 7.18809 7.82C5.63809 8.17 5.05809 9.42 5.18809 10.5C5.31809 11.62 6.19809 12.75 7.63809 12.75H10.1381V11.25H7.63809C7.04809 11.25 6.72809 10.77 6.67809 10.33Z" fill="currentColor"/>
<path d="M7.38809 6.75V5.5C7.38809 5.09 7.04809 4.75 6.63809 4.75C6.22809 4.75 5.88809 5.09 5.88809 5.5V6.75C5.88809 7.16 6.22809 7.5 6.63809 7.5C7.04809 7.5 7.38809 7.16 7.38809 6.75Z" fill="currentColor"/>
<path d="M11.1481 4.75C10.7381 4.75 10.3981 5.08 10.3981 5.49V6.74C10.3881 7.15 10.7181 7.49 11.1281 7.5C11.5381 7.5 11.8781 7.17 11.8781 6.76V5.51C11.8881 5.1 11.5581 4.76 11.1481 4.75Z" fill="currentColor"/>
<path d="M8.88809 1C5.02809 1 1.88809 4.14 1.88809 8V14.25C1.88809 14.66 2.22809 15 2.63809 15C3.04809 15 3.38809 14.66 3.38809 14.25V8C3.38809 4.97 5.85809 2.5 8.88809 2.5C11.9181 2.5 14.3881 4.97 14.3881 8V14.25C14.3881 14.66 14.7281 15 15.1381 15C15.5481 15 15.8881 14.66 15.8881 14.25V8C15.8881 4.14 12.7481 1 8.88809 1Z" fill="currentColor"/>
</svg>
