<svg viewBox="0 0 16 16" fill="none" xmlns="http://www.w3.org/2000/svg">
<path d="M13.25 5H2.75C2.34 5 2 4.66 2 4.25C2 3.84 2.34 3.5 2.75 3.5H13.25C13.66 3.5 14 3.84 14 4.25C14 4.66 13.66 5 13.25 5Z" fill="currentColor"/>
<path d="M13.25 8.75H2.75C2.34 8.75 2 8.41 2 8C2 7.59 2.34 7.25 2.75 7.25H13.25C13.66 7.25 14 7.59 14 8C14 8.41 13.66 8.75 13.25 8.75Z" fill="currentColor"/>
<path d="M13.25 12.5H2.75C2.34 12.5 2 12.16 2 11.75C2 11.34 2.34 11 2.75 11H13.25C13.66 11 14 11.34 14 11.75C14 12.16 13.66 12.5 13.25 12.5Z" fill="currentColor"/>
</svg>
