<svg viewBox="0 0 16 16" fill="none" xmlns="http://www.w3.org/2000/svg">
<path d="M10.75 1H5.25C4.01 1 3 2.01 3 3.25V12.75C3 13.99 4.01 15 5.25 15H10.75C11.99 15 13 13.99 13 12.75V3.25C13 2.01 11.99 1 10.75 1ZM11.5 12.75C11.5 13.16 11.16 13.5 10.75 13.5H5.25C4.84 13.5 4.5 13.16 4.5 12.75V3.25C4.5 2.84 4.84 2.5 5.25 2.5H6C6 2.91 6.34 3.25 6.75 3.25H9.25C9.66 3.25 10 2.91 10 2.5H10.75C11.16 2.5 11.5 2.84 11.5 3.25V12.75Z" fill="currentColor"/>
<path d="M9.25 11H6.75C6.34 11 6 11.34 6 11.75C6 12.16 6.34 12.5 6.75 12.5H9.25C9.66 12.5 10 12.16 10 11.75C10 11.34 9.66 11 9.25 11Z" fill="currentColor"/>
</svg>
