<svg viewBox="0 0 16 16" fill="none" xmlns="http://www.w3.org/2000/svg">
<path d="M14.2595 1H1.75054C1.34024 1 1 1.33951 1 1.74893V8.73894C1 9.14836 1.34024 9.48787 1.75054 9.48787H2.88134V10.4864C2.88134 11.8645 3.28163 13.1926 4.04217 14.3409L4.24232 14.6505C4.38242 14.8702 4.62259 14.99 4.87277 14.99C5.01287 14.99 5.16297 14.9501 5.28306 14.8702C5.63331 14.6405 5.72337 14.1812 5.49321 13.8317L5.29307 13.5221C4.69264 12.6234 4.38242 11.5749 4.38242 10.4964V9.49786H8.75554V9.54779C7.67477 9.86733 6.8742 10.8759 6.8742 12.0642V12.3738C6.8742 12.7832 7.21444 13.1227 7.62473 13.1227C8.03502 13.1227 8.37527 12.7832 8.37527 12.3738V12.0642C8.37527 11.4451 8.87563 10.9458 9.49607 10.9458C9.90636 10.9458 10.2466 10.6063 10.2466 10.1969V8.25963C10.2466 7.85021 10.5868 7.5107 10.9971 7.5107C11.4074 7.5107 11.7477 7.85021 11.7477 8.25963V10.826C11.7477 11.6248 11.4375 12.3738 10.867 12.9429L10.0865 13.7218C9.79628 14.0114 9.79628 14.4907 10.0865 14.7803C10.2366 14.9301 10.4267 15 10.6169 15C10.807 15 10.9971 14.9301 11.1472 14.7803L11.9278 14.0014C12.7784 13.1526 13.2487 12.0243 13.2487 10.826V9.50785H14.2495C14.6598 9.50785 15 9.16833 15 8.75892V1.74893C15 1.33951 14.6598 1 14.2495 1H14.2595ZM13.5089 7.99001H13.2287C13.0986 6.87161 12.158 5.99287 11.0071 5.99287C9.85633 5.99287 8.90565 6.87161 8.78556 7.99001H2.50107V2.49786H13.5089V7.99001Z" fill="currentColor"/>
<path d="M8.005 6.43224C8.69585 6.43224 9.2559 5.87339 9.2559 5.18402C9.2559 4.49465 8.69585 3.93581 8.005 3.93581C7.31415 3.93581 6.75411 4.49465 6.75411 5.18402C6.75411 5.87339 7.31415 6.43224 8.005 6.43224Z" fill="currentColor"/>
</svg>
