<svg viewBox="0 0 16 16" fill="none" xmlns="http://www.w3.org/2000/svg">
<path d="M14.3594 9.5C14.0594 9.2 13.6894 9 13.3094 8.91C13.5894 8.23 13.7394 7.5 13.7394 6.75C13.7394 3.58 11.1594 1 7.98939 1C4.81939 1 2.24939 3.58 2.24939 6.75C2.24939 7.25 2.33939 7.73 2.45939 8.21C2.37939 8.25 2.29939 8.29 2.22939 8.34C1.45939 8.85 0.99939 9.71 0.99939 10.64V11.57C0.99939 11.98 1.33939 12.32 1.74939 12.32C2.15939 12.32 2.49939 11.98 2.49939 11.57V10.64C2.49939 10.22 2.70939 9.82 3.05939 9.59C3.47939 9.31 4.02939 9.31 4.50939 9.62C5.18939 10.07 5.96939 10.31 6.77939 10.31H8.77939C8.91939 10.31 9.02939 10.42 9.02939 10.56C9.02939 10.68 8.93939 10.76 8.82939 10.79C8.73939 10.79 8.65939 10.81 8.56939 10.81H5.75939C5.34939 10.81 5.00939 11.15 5.00939 11.56C5.00939 11.97 5.34939 12.31 5.75939 12.31H8.76939C8.90939 12.31 9.04939 12.29 9.17939 12.26C9.90939 12.15 10.5994 11.85 11.1394 11.4L12.3794 10.52C12.6494 10.29 13.0394 10.31 13.2894 10.56C13.4194 10.69 13.4894 10.87 13.4894 11.06C13.4894 11.25 13.3994 11.42 13.2794 11.53L11.5694 12.87C11.0994 13.27 10.4994 13.5 9.87939 13.5H3.75939C3.34939 13.5 3.00939 13.84 3.00939 14.25C3.00939 14.66 3.34939 15 3.75939 15H9.88939C10.8694 15 11.8194 14.65 12.5294 14.03L14.2394 12.69C14.6994 12.3 14.9794 11.73 14.9994 11.12C15.0194 10.52 14.7894 9.92 14.3694 9.5H14.3594ZM5.28939 8.34C4.86939 8.06 4.39939 7.92 3.91939 7.89C3.81939 7.52 3.74939 7.14 3.74939 6.76C3.74939 4.42 5.65939 2.51 7.99939 2.51C10.3394 2.51 12.2494 4.42 12.2494 6.76C12.2494 7.79 11.8794 8.77 11.2094 9.54L10.4594 10.07C10.4094 9.92 10.3494 9.78 10.2694 9.64C10.4094 9.48 10.5194 9.32 10.5794 9.17C10.8394 8.6 10.7894 8.02 10.6594 7.7C10.2594 6.68 9.28939 6.18 8.14939 6.4C7.13939 6.59 7.05939 6.36 6.98939 6.2C6.93939 6.08 6.98939 5.97 7.01939 5.89C7.09939 5.74 7.23939 5.62 7.41939 5.55C7.61939 5.47 7.83939 5.47 8.00939 5.55C8.37939 5.74 8.82939 5.59 9.01939 5.22C9.20939 4.85 9.05939 4.4 8.68939 4.21C8.35939 4.04 7.98939 3.98 7.61939 4C7.45939 3.64 7.03939 3.45 6.65939 3.61C6.28939 3.76 6.10939 4.17 6.22939 4.54C6.00939 4.72 5.82939 4.94 5.69939 5.19C5.43939 5.69 5.39939 6.26 5.59939 6.75C6.20939 8.29 7.87939 7.98 8.42939 7.87C8.99939 7.76 9.17939 8.02 9.25939 8.23C9.25939 8.25 9.33939 8.6 8.90939 8.82C8.86939 8.82 8.82939 8.81 8.77939 8.81H6.77939C6.26939 8.81 5.76939 8.66 5.28939 8.34Z" fill="currentColor"/>
</svg>
