<svg viewBox="0 0 16 16" fill="none" xmlns="http://www.w3.org/2000/svg">
<path d="M13.72 11.14C13.72 11.14 13.75 11.05 13.75 11V9.5C13.75 8.26 12.74 7.25 11.5 7.25H8.75V5C8.75 5 8.73 4.91 8.72 4.86C9.47 4.57 10 3.85 10 3C10 1.9 9.1 1 8 1C6.9 1 6 1.9 6 3C6 3.85 6.53 4.57 7.28 4.86C7.28 4.91 7.25 4.95 7.25 5V7.25H4.5C3.26 7.25 2.25 8.26 2.25 9.5V11C2.25 11 2.27 11.09 2.28 11.14C1.53 11.43 1 12.15 1 13C1 14.1 1.9 15 3 15C4.1 15 5 14.1 5 13C5 12.15 4.47 11.43 3.72 11.14C3.72 11.09 3.75 11.05 3.75 11V9.5C3.75 9.09 4.09 8.75 4.5 8.75H7.25V11C7.25 11 7.27 11.09 7.28 11.14C6.53 11.43 6 12.15 6 13C6 14.1 6.9 15 8 15C9.1 15 10 14.1 10 13C10 12.15 9.47 11.43 8.72 11.14C8.72 11.09 8.75 11.05 8.75 11V8.75H11.5C11.91 8.75 12.25 9.09 12.25 9.5V11C12.25 11 12.27 11.09 12.28 11.14C11.53 11.43 11 12.15 11 13C11 14.1 11.9 15 13 15C14.1 15 15 14.1 15 13C15 12.15 14.47 11.43 13.72 11.14Z" fill="currentColor"/>
</svg>
