<svg viewBox="0 0 16 16" fill="none" xmlns="http://www.w3.org/2000/svg">
<path d="M14.25 6C13.84 6 13.5 6.34 13.5 6.75V12.75C13.5 13.16 13.16 13.5 12.75 13.5H8V10.25C8 9.01 6.99 8 5.75 8H2.5V3.25C2.5 2.84 2.84 2.5 3.25 2.5H9.25C9.66 2.5 10 2.16 10 1.75C10 1.34 9.66 1 9.25 1H3.25C2.01 1 1 2.01 1 3.25V8.75C1 8.75 1 8.78 1 8.8C1 8.87 1.02 8.93 1.04 8.99C1.04 9.01 1.05 9.04 1.07 9.06C1.11 9.14 1.15 9.22 1.22 9.28L6.72 14.78C6.79 14.85 6.87 14.91 6.96 14.94C7.05 14.98 7.15 15 7.25 15H12.75C13.99 15 15 13.99 15 12.75V6.75C15 6.34 14.66 6 14.25 6ZM3.56 9.5H5.75C6.16 9.5 6.5 9.84 6.5 10.25V12.44L3.56 9.5Z" fill="currentColor"/>
<path d="M11.25 4H12V4.75C12 5.16 12.34 5.5 12.75 5.5C13.16 5.5 13.5 5.16 13.5 4.75V4H14.25C14.66 4 15 3.66 15 3.25C15 2.84 14.66 2.5 14.25 2.5H13.5V1.75C13.5 1.34 13.16 1 12.75 1C12.34 1 12 1.34 12 1.75V2.5H11.25C10.84 2.5 10.5 2.84 10.5 3.25C10.5 3.66 10.84 4 11.25 4Z" fill="currentColor"/>
</svg>
