<svg viewBox="0 0 16 16" fill="none" xmlns="http://www.w3.org/2000/svg">
<path d="M5.74044 12.75C5.74044 13.99 6.75044 15 7.99044 15C9.23044 15 10.2404 13.99 10.2404 12.75V12.5H5.74044V12.75Z" fill="currentColor"/>
<path d="M14.5704 9.83C13.4704 9.28 12.7404 8.71 12.7404 7.75V5.69C12.7404 3.02 10.7004 1 7.99044 1C5.28044 1 3.24044 3.02 3.24044 5.69V7.75C3.24044 8.71 2.51044 9.28 1.41044 9.83C1.10044 9.99 0.940438 10.33 1.02044 10.67C1.10044 11.01 1.40044 11.25 1.75044 11.25H14.2504C14.6004 11.25 14.9004 11.01 14.9804 10.67C15.0604 10.33 14.9004 9.98 14.5904 9.83H14.5704Z" fill="currentColor"/>
</svg>
