<svg viewBox="0 0 16 16" fill="none" xmlns="http://www.w3.org/2000/svg">
<path d="M14.6761 11.1345C13.7153 10.4936 13.1349 9.41202 13.1349 8.25036V6.12732C13.1349 3.29328 10.833 1 8.01062 1C5.18829 1 2.87638 3.29328 2.87638 6.11731V8.24034C2.87638 9.402 2.2959 10.4835 1.33511 11.1245C1.05488 11.3047 0.934776 11.6452 1.03486 11.9657C1.13494 12.2861 1.42518 12.4964 1.75545 12.4964H5.70872C5.70872 12.5565 5.68871 12.6166 5.68871 12.6867C5.68871 13.9585 6.72957 15 8.00062 15C9.27167 15 10.3125 13.9585 10.3125 12.6867C10.3125 12.6266 10.3025 12.5665 10.2925 12.4964H14.2458C14.5761 12.4964 14.8663 12.2761 14.9664 11.9657C15.0665 11.6552 14.9363 11.3047 14.6661 11.1245L14.6761 11.1345ZM8.81129 12.6967C8.81129 13.1474 8.45099 13.5079 8.00062 13.5079C7.55024 13.5079 7.18995 13.1474 7.18995 12.6967C7.18995 12.6266 7.18995 12.5665 7.20996 12.5064H8.79127C8.80128 12.5665 8.81129 12.6266 8.81129 12.6967ZM9.24164 11.0043H3.53693C4.07737 10.2031 4.36761 9.24177 4.36761 8.25036V6.12732C4.36761 4.12446 5.99896 2.50215 7.99061 2.50215C9.98225 2.50215 11.6136 4.13448 11.6136 6.12732V8.25036C11.6136 9.25179 11.9138 10.2031 12.4443 11.0043H9.23163H9.24164Z" fill="currentColor"/>
</svg>
