<svg viewBox="0 0 16 16" fill="none" xmlns="http://www.w3.org/2000/svg">
<path d="M14 4.86552C14 4.49499 13.89 4.14449 13.72 3.83405C13.7 3.77396 13.68 3.71388 13.64 3.66381C13.4 3.29328 13.05 2.98283 12.62 2.79256L8.93 1.19027C8.64 1.06009 8.32 1 8 1C7.68 1 7.37 1.06009 7.07 1.19027L3.38 2.79256C2.96 2.97282 2.61 3.27325 2.37 3.64378C2.35 3.67382 2.34 3.71388 2.32 3.75393C2.13 4.08441 2 4.46495 2 4.86552V11.1445C2 11.6052 2.14 12.0358 2.39 12.3963C2.39 12.3963 2.4 12.3963 2.4 12.4063C2.64 12.7468 2.97 13.0272 3.37 13.2074L7.06 14.8097C7.36 14.9399 7.67 15 7.99 15C8.31 15 8.62 14.9399 8.92 14.8097L12.61 13.2074C13.02 13.0272 13.35 12.7468 13.59 12.3963C13.84 12.0358 13.98 11.5951 13.98 11.1445V4.86552H14ZM11.5 9.8927V6.14735L12.5 5.42632V10.6438L11.5 9.8927ZM11.8 4.07439L10.67 4.89557L8.76 4.02432V2.7525L11.81 4.07439H11.8ZM8 10.6938L6 9.78255V6.2475L8 5.33619L10 6.2475V9.78255L8 10.6938ZM7.25 2.7525V4.02432L5.34 4.89557L4.21 4.07439L7.25 2.76252V2.7525ZM3.5 10.6438V5.40629L4.5 6.13734V9.88269L3.5 10.6338V10.6438ZM4.24 11.9657L5.35 11.1345L7.25 12.0057V13.2775L4.24 11.9757V11.9657ZM8.75 13.2675V11.9957L10.66 11.1245L11.77 11.9557L8.76 13.2575L8.75 13.2675Z" fill="currentColor"/>
</svg>
