<svg viewBox="0 0 16 16" fill="none" xmlns="http://www.w3.org/2000/svg">
<path d="M13 11C12.16 11 11.45 11.52 11.15 12.25H4.25C3.29 12.25 2.5 11.46 2.5 10.5C2.5 9.54 3.29 8.75 4.25 8.75H6.15C6.45 9.48 7.16 10 8 10C8.84 10 9.55 9.48 9.85 8.75H11.75C13.54 8.75 15 7.29 15 5.5C15 3.71 13.54 2.25 11.75 2.25H4.85C4.55 1.52 3.84 1 3 1C1.9 1 1 1.9 1 3C1 4.1 1.9 5 3 5C3.84 5 4.55 4.48 4.85 3.75H11.75C12.71 3.75 13.5 4.54 13.5 5.5C13.5 6.46 12.71 7.25 11.75 7.25H9.85C9.55 6.52 8.84 6 8 6C7.16 6 6.45 6.52 6.15 7.25H4.25C2.46 7.25 1 8.71 1 10.5C1 12.29 2.46 13.75 4.25 13.75H11.15C11.45 14.48 12.16 15 13 15C14.1 15 15 14.1 15 13C15 11.9 14.1 11 13 11Z" fill="currentColor"/>
</svg>
