<svg viewBox="0 0 16 16" fill="none" xmlns="http://www.w3.org/2000/svg">
<path d="M8 1C4.14 1 1 4.14 1 8C1 11.86 4.14 15 8 15C11.86 15 15 11.86 15 8C15 4.14 11.86 1 8 1ZM8 13.5C4.97 13.5 2.5 11.03 2.5 8C2.5 4.97 4.97 2.5 8 2.5C11.03 2.5 13.5 4.97 13.5 8C13.5 11.03 11.03 13.5 8 13.5Z" fill="currentColor"/>
<path d="M6.25 5.5C5.84 5.5 5.5 5.84 5.5 6.25V9.75C5.5 10.16 5.84 10.5 6.25 10.5C6.66 10.5 7 10.16 7 9.75V6.25C7 5.84 6.66 5.5 6.25 5.5Z" fill="currentColor"/>
<path d="M9.75 5.5C9.34 5.5 9 5.84 9 6.25V9.75C9 10.16 9.34 10.5 9.75 10.5C10.16 10.5 10.5 10.16 10.5 9.75V6.25C10.5 5.84 10.16 5.5 9.75 5.5Z" fill="currentColor"/>
</svg>
