<svg viewBox="0 0 16 16" fill="none" xmlns="http://www.w3.org/2000/svg">
<path d="M11.25 1H4.75C2.68 1 1 2.68 1 4.75V11.25C1 13.32 2.68 15 4.75 15H11.25C13.32 15 15 13.32 15 11.25V4.75C15 2.68 13.32 1 11.25 1ZM13.5 11.25C13.5 12.49 12.49 13.5 11.25 13.5H4.75C3.51 13.5 2.5 12.49 2.5 11.25V4.75C2.5 3.51 3.51 2.5 4.75 2.5H11.25C12.49 2.5 13.5 3.51 13.5 4.75V11.25Z" fill="currentColor"/>
<path d="M10.69 5.72C10.66 5.64 10.61 5.57 10.55 5.5C10.55 5.5 10.54 5.48 10.53 5.47C10.46 5.4 10.38 5.34 10.28 5.31C10.19 5.27 10.09 5.25 10 5.25H6.57C6.16 5.25 5.82 5.59 5.82 6.01C5.82 6.42 6.16 6.76 6.57 6.76H8.18L5.46 9.47C5.17 9.76 5.17 10.24 5.46 10.53C5.61 10.68 5.8 10.75 5.99 10.75C6.18 10.75 6.37 10.68 6.52 10.53L9.24 7.81V9.43C9.24 9.84 9.58 10.18 9.99 10.18C10.4 10.18 10.74 9.84 10.74 9.43V6C10.74 5.9 10.72 5.81 10.68 5.72H10.69Z" fill="currentColor"/>
</svg>
