<svg viewBox="0 0 16 16" fill="none" xmlns="http://www.w3.org/2000/svg">
<path d="M14.9986 1.75C14.9986 1.75 14.9986 1.74 14.9986 1.73C14.9986 1.64 14.9786 1.55 14.9486 1.46C14.9086 1.37 14.8586 1.28 14.7886 1.21C14.7886 1.21 14.7786 1.21 14.7686 1.2C14.6186 1.07 14.4286 1 14.2486 1H10.7486C10.3386 1.02 9.99858 1.35 9.99858 1.77C9.99858 2.19 10.3586 2.54 10.7486 2.52H12.4286L9.94858 4.99C9.65858 5.28 9.65858 5.76 9.94858 6.05C10.0986 6.2 10.2886 6.27 10.4786 6.27C10.6686 6.27 10.8586 6.2 11.0086 6.05L13.4986 3.56V5.26C13.4986 5.67 13.8386 6.01 14.2486 6.01C14.6586 6.01 14.9986 5.67 14.9986 5.26V1.75Z" fill="currentColor"/>
<path d="M12.6086 9C11.7986 8.19 10.4786 8.19 9.66858 9L9.37858 9.29C9.16858 9.5 8.79858 9.5 8.57858 9.29L6.71858 7.43C6.60858 7.32 6.54858 7.18 6.54858 7.03C6.54858 6.88 6.60858 6.74 6.71858 6.63L7.00858 6.34C7.80858 5.53 7.80858 4.21 7.00858 3.41L5.62858 2.03C4.82858 1.24 3.45858 1.24 2.67858 2.02L1.92858 2.77C0.068583 4.64 1.08858 8.58 4.25858 11.74C6.35858 13.84 8.79858 15 10.7586 15C11.7486 15 12.6186 14.7 13.2486 14.08L13.9986 13.33C14.3886 12.94 14.6086 12.41 14.6086 11.86C14.6086 11.31 14.3886 10.78 13.9986 10.39L12.6086 9ZM12.9286 12.27L12.1786 13.02C11.0986 14.09 8.01858 13.39 5.31858 10.69C2.61858 7.98 1.91858 4.9 2.98858 3.83L3.73858 3.08C3.84858 2.97 3.99858 2.91 4.14858 2.91C4.29858 2.91 4.44858 2.97 4.55858 3.08L5.93858 4.46C6.16858 4.69 6.16858 5.05 5.93858 5.28L5.64858 5.57C5.26858 5.95 5.04858 6.48 5.04858 7.03C5.04858 7.58 5.25858 8.1 5.64858 8.49L7.50858 10.35C8.28858 11.13 9.64858 11.12 10.4186 10.35L10.7086 10.06C10.9386 9.84 11.3086 9.84 11.5286 10.06L12.9086 11.44C13.0186 11.55 13.0786 11.7 13.0786 11.85C13.0786 12 13.0186 12.15 12.9086 12.26L12.9286 12.27Z" fill="currentColor"/>
</svg>
