<svg viewBox="0 0 16 16" fill="none" xmlns="http://www.w3.org/2000/svg">
<path d="M14.6917 4.52737C14.4615 4.35675 14.1613 4.33668 13.9111 4.45712L10.7589 6.04288L8.61734 2.8312C8.47724 2.62044 8.24708 2.5 7.9969 2.5C7.74672 2.5 7.51655 2.63047 7.37645 2.8312L5.24492 6.04288L2.08265 4.45712C1.83247 4.33668 1.53226 4.35675 1.30209 4.52737C1.07193 4.69799 0.961849 4.97901 1.01188 5.26004L2.26278 12.8677C2.32283 13.229 2.63305 13.5 3.00331 13.5H13.0105C13.3808 13.5 13.691 13.229 13.751 12.8677L14.9919 5.26004C15.0319 4.97901 14.9219 4.69799 14.6917 4.52737Z" fill="currentColor"/>
</svg>
