<svg viewBox="0 0 16 16" fill="none" xmlns="http://www.w3.org/2000/svg">
<path d="M14.69 4.53C14.46 4.36 14.16 4.34 13.91 4.46L10.76 6.04L8.62 2.83C8.48 2.62 8.25 2.5 8 2.5C7.75 2.5 7.52 2.63 7.38 2.84L5.25 6.05L2.09 4.46C1.84 4.34 1.54 4.36 1.31 4.53C1.08 4.7 0.97 4.98 1.01 5.26L2.26 12.87C2.32 13.23 2.63 13.5 3 13.5H13.01C13.38 13.5 13.69 13.23 13.75 12.87L14.99 5.26C15.03 4.98 14.92 4.7 14.69 4.53ZM12.37 11.99H3.64L2.73 6.46L5.17 7.68C5.5 7.85 5.92 7.74 6.13 7.42L8 4.6L9.88 7.43C10.09 7.75 10.5 7.85 10.84 7.68L13.27 6.46L12.37 11.99Z" fill="currentColor"/>
</svg>
