<svg viewBox="0 0 16 16" fill="none" xmlns="http://www.w3.org/2000/svg">
<path d="M14.6701 3.25788C14.5701 2.23857 13.7596 1.42911 12.739 1.33917L9.18706 1.00939C8.5467 0.949435 7.93636 1.17928 7.49612 1.61899L1.62285 7.49504C0.792384 8.32448 0.792384 9.67358 1.62285 10.493L5.51501 14.3804C5.92524 14.7901 6.47555 15 7.01585 15C7.55615 15 8.10646 14.7901 8.51669 14.3804L14.3799 8.52435C14.8302 8.07465 15.0503 7.45507 14.9903 6.82549L14.6601 3.25788H14.6701ZM11.8385 5.27653C11.5384 5.57633 11.0381 5.57633 10.7379 5.27653C10.4378 4.97673 10.4378 4.47707 10.7379 4.17727C11.0381 3.87747 11.5384 3.87747 11.8385 4.17727C12.1387 4.47707 12.1387 4.97673 11.8385 5.27653Z" fill="currentColor"/>
</svg>
