<svg viewBox="0 0 16 16" fill="none" xmlns="http://www.w3.org/2000/svg">
<path d="M14.6663 3.24988C14.5663 2.22988 13.7563 1.41988 12.7363 1.32988L9.18628 0.999879C8.54628 0.939879 7.93628 1.16988 7.49628 1.60988L1.62628 7.48988C0.796284 8.31988 0.796284 9.66988 1.62628 10.4999L5.51628 14.3899C5.92628 14.7999 6.47628 15.0099 7.01628 15.0099C7.55628 15.0099 8.10628 14.7999 8.51628 14.3899L14.3763 8.52988C14.8263 8.07988 15.0463 7.45988 14.9863 6.82988L14.6563 3.25988L14.6663 3.24988ZM7.46628 13.3199C7.22628 13.5599 6.82628 13.5599 6.58628 13.3199L2.69628 9.42988C2.45628 9.18988 2.45628 8.78988 2.69628 8.54988L8.55628 2.67988C8.68628 2.54988 8.87628 2.47988 9.05628 2.49988L12.6163 2.81988C12.9163 2.84988 13.1563 3.07988 13.1863 3.37988L13.5163 6.94988C13.5363 7.13988 13.4663 7.31988 13.3363 7.44988L7.46628 13.3199Z" fill="currentColor"/>
<path d="M10.7363 4.16988C10.4363 4.46988 10.4363 4.96988 10.7363 5.26988C11.0363 5.56988 11.5363 5.56988 11.8363 5.26988C12.1363 4.96988 12.1363 4.46988 11.8363 4.16988C11.5363 3.86988 11.0363 3.86988 10.7363 4.16988Z" fill="currentColor"/>
</svg>
