<svg viewBox="0 0 17 17" fill="none" xmlns="http://www.w3.org/2000/svg">
<path d="M8 2C4.14 2 1 5.14 1 9C1 12.86 4.14 16 8 16C11.86 16 15 12.86 15 9C15 5.14 11.86 2 8 2ZM8 14.5C4.97 14.5 2.5 12.03 2.5 9C2.5 5.97 4.97 3.5 8 3.5C11.03 3.5 13.5 5.97 13.5 9C13.5 12.03 11.03 14.5 8 14.5Z" fill="currentColor"/>
<path d="M12.32 9.04C12.32 9.04 12.32 9.01 12.32 9C12.32 8.9 12.3 8.8 12.26 8.71C12.22 8.62 12.17 8.54 12.1 8.47L10.43 6.81C10.14 6.52 9.66 6.52 9.37 6.81C9.08 7.1 9.08 7.58 9.37 7.87L9.75 8.25H7.24C6.83 8.25 6.49 8.59 6.49 9C6.49 9.41 6.83 9.75 7.24 9.75H9.77L9.38 10.14C9.09 10.43 9.09 10.91 9.38 11.2C9.53 11.35 9.72 11.42 9.91 11.42C10.1 11.42 10.3 11.35 10.44 11.2L12.1 9.53C12.1 9.53 12.12 9.5 12.13 9.49C12.18 9.43 12.23 9.36 12.26 9.29C12.29 9.21 12.3 9.13 12.31 9.05L12.32 9.04Z" fill="currentColor"/>
<path d="M4.92 8.25H4.42C4.01 8.25 3.67 8.59 3.67 9C3.67 9.41 4.01 9.75 4.42 9.75H4.92C5.33 9.75 5.67 9.41 5.67 9C5.67 8.59 5.33 8.25 4.92 8.25Z" fill="currentColor"/>
</svg>
