<svg viewBox="0 0 16 16" fill="none" xmlns="http://www.w3.org/2000/svg">
  <path
    d="M9.73559 10.5296C10.0281 10.8229 10.503 10.8235 10.7963 10.531L12.7979 8.53452C12.9388 8.39398 13.018 8.20319 13.0182 8.00418C13.0184 7.80516 12.9395 7.61423 12.7988 7.47344L10.7972 5.46993C10.5045 5.17689 10.0296 5.17666 9.73655 5.46941C9.44351 5.76217 9.44328 6.23704 9.73604 6.53007L10.4592 7.2539L7.00717 7.25388C6.59295 7.25388 6.25716 7.58966 6.25716 8.00388C6.25716 8.41809 6.59295 8.75388 7.00716 8.75388L10.4539 8.7539L9.73695 9.46899C9.44368 9.76151 9.44308 10.2364 9.73559 10.5296Z"
    fill="currentColor"
  />
  <path
    d="M3.75635 7.25391C3.34213 7.25391 3.00635 7.58969 3.00635 8.00391C3.00635 8.41812 3.34213 8.75391 3.75635 8.75391H4.25635C4.67056 8.75391 5.00635 8.41812 5.00635 8.00391C5.00635 7.58969 4.67056 7.25391 4.25635 7.25391H3.75635Z"
    fill="currentColor"
  />
  <path
    fill-rule="evenodd"
    clip-rule="evenodd"
    d="M0 8C0 3.58172 3.58172 0 8 0C12.4183 0 16 3.58172 16 8C16 12.4183 12.4183 16 8 16C3.58172 16 0 12.4183 0 8ZM8 1.45455C4.38505 1.45455 1.45455 4.38505 1.45455 8C1.45455 11.615 4.38505 14.5455 8 14.5455C11.615 14.5455 14.5455 11.615 14.5455 8C14.5455 4.38505 11.615 1.45455 8 1.45455Z"
    fill="currentColor"
  />

  <defs>
    <clipPath id="clip0_10773_586835">
      <rect width="16" height="16" fill="white" />
    </clipPath>
  </defs>
</svg>
