<svg viewBox="0 0 16 16" fill="none" xmlns="http://www.w3.org/2000/svg">
<path d="M8 1C4.14 1 1 4.14 1 8C1 11.86 4.14 15 8 15C11.86 15 15 11.86 15 8C15 4.14 11.86 1 8 1ZM5 8.75H4.25C3.84 8.75 3.5 8.41 3.5 8C3.5 7.59 3.84 7.25 4.25 7.25H5C5.41 7.25 5.75 7.59 5.75 8C5.75 8.41 5.41 8.75 5 8.75ZM12.5 8C12.5 8.11 12.48 8.21 12.43 8.3C12.42 8.32 12.4 8.34 12.39 8.36C12.35 8.43 12.31 8.49 12.26 8.54C12.26 8.54 12.26 8.55 12.25 8.56L10.25 10.31C10.11 10.43 9.93 10.5 9.76 10.5C9.55 10.5 9.34 10.41 9.2 10.24C8.93 9.93 8.96 9.45 9.27 9.18L9.77 8.74H7.27C6.86 8.74 6.52 8.4 6.52 7.99C6.52 7.58 6.86 7.24 7.27 7.24H9.77L9.27 6.81C8.96 6.54 8.93 6.06 9.2 5.75C9.47 5.44 9.95 5.41 10.26 5.68L12.26 7.43C12.26 7.43 12.26 7.44 12.27 7.45C12.32 7.5 12.36 7.56 12.4 7.62C12.41 7.64 12.44 7.66 12.45 7.69C12.49 7.78 12.51 7.88 12.51 7.98C12.51 7.98 12.51 7.98 12.51 7.99L12.5 8Z" fill="currentColor"/>
</svg>
