<svg viewBox="0 0 16 16" fill="none" xmlns="http://www.w3.org/2000/svg">
<path d="M5.68665 6.06V6.46C5.13704 6.75 4.74732 7.33 4.74732 8V9.5C4.74732 10.46 5.53676 11.25 6.49607 11.25H9.49393C10.4532 11.25 11.2427 10.46 11.2427 9.5V8C11.2427 7.33 10.863 6.75 10.3034 6.46V6.06C10.3034 4.79 9.2641 3.75 7.995 3.75C6.72591 3.75 5.68665 4.79 5.68665 6.06ZM9.74375 9.5C9.74375 9.64 9.63383 9.75 9.49393 9.75H6.49607C6.35617 9.75 6.24625 9.64 6.24625 9.5V8C6.24625 7.86 6.35617 7.75 6.49607 7.75H9.49393C9.63383 7.75 9.74375 7.86 9.74375 8V9.5ZM8.80443 6.06V6.25H7.18558V6.06C7.18558 5.61 7.54532 5.25 7.995 5.25C8.44468 5.25 8.80443 5.61 8.80443 6.06Z" fill="currentColor"/>
<path d="M14.4404 2.78L8.21485 1.03C8.08494 0.99 7.94504 0.99 7.81513 1.03L1.54961 2.78C1.22984 2.87 1 3.17 1 3.5V7.52C1 10.4 2.72877 12.95 5.40685 14.02L7.73519 14.95C7.82512 14.99 7.91506 15 8.01499 15C8.11492 15 8.20485 14.98 8.29479 14.95L10.6031 14.02C13.2712 12.95 15 10.4 15 7.52V3.5C15 3.16 14.7802 2.87 14.4504 2.78H14.4404ZM13.4911 7.52C13.4911 9.78 12.132 11.78 10.0435 12.62L8.01499 13.44L5.96645 12.62C3.86795 11.78 2.50892 9.78 2.50892 7.51V4.06L8.01499 2.52L13.5011 4.06V7.51L13.4911 7.52Z" fill="currentColor"/>
</svg>
