<svg viewBox="0 0 16 16" fill="none" xmlns="http://www.w3.org/2000/svg">
<path d="M14.6275 4.89361L11.1175 1.37361C10.8775 1.13361 10.5375 0.973609 10.1975 1.00361C9.8575 1.01361 9.5275 1.16361 9.2975 1.42361L6.2875 4.83361L3.6975 5.12361C3.1475 5.18361 2.6975 5.54361 2.5175 6.06361C2.3375 6.58361 2.4675 7.14361 2.8575 7.53361L5.1375 9.81361L1.2175 13.7236C0.9275 14.0136 0.9275 14.4936 1.2175 14.7836C1.3675 14.9336 1.5575 15.0036 1.7475 15.0036C1.9375 15.0036 2.1275 14.9336 2.2775 14.7836L6.1775 10.8936L8.4575 13.1736C8.7275 13.4436 9.0875 13.5936 9.4575 13.5936C9.6175 13.5936 9.7775 13.5636 9.9275 13.5136C10.4475 13.3336 10.8075 12.8736 10.8675 12.3336L11.1575 9.74361L14.5775 6.73361C14.8375 6.50361 14.9875 6.17361 14.9975 5.83361C15.0075 5.49361 14.8775 5.15361 14.6275 4.91361V4.89361ZM9.9475 8.79361C9.8075 8.91361 9.7175 9.08361 9.6975 9.27361L9.3975 11.9936L4.0075 6.60361L6.7275 6.30361C6.9075 6.28361 7.0875 6.19361 7.2075 6.05361L10.2375 2.62361L13.3775 5.76361L9.9475 8.79361Z" fill="currentColor"/>
</svg>
