<svg viewBox="0 0 16 16" fill="none" xmlns="http://www.w3.org/2000/svg">
<path d="M8.30878 1.25C10.1088 1.25 11.7588 1.92 12.9988 3.06V2C12.9988 1.59 13.3388 1.25 13.7488 1.25C14.1588 1.25 14.4988 1.59 14.4988 2V5.25C14.4988 5.25 14.4788 5.32 14.4788 5.36C14.4788 5.41 14.4688 5.46 14.4488 5.51C14.4288 5.55 14.4088 5.59 14.3788 5.63C14.3488 5.67 14.3288 5.72 14.2888 5.76C14.2888 5.76 14.2888 5.78 14.2688 5.79C14.2388 5.82 14.1988 5.83 14.1688 5.86C14.1388 5.88 14.1188 5.91 14.0788 5.93C14.0788 5.93 14.0588 5.93 14.0488 5.93C13.9988 5.95 13.9488 5.96 13.8988 5.97C13.8488 5.98 13.8088 6 13.7588 6H10.4888C10.0788 6 9.73878 5.66 9.73878 5.25C9.73878 4.84 10.0788 4.5 10.4888 4.5H12.3188C11.3288 3.4 9.88878 2.75 8.30878 2.75C5.37878 2.75 2.99878 5.11 2.99878 8C2.99878 10.89 5.37878 13.25 8.30878 13.25C10.3688 13.25 12.1988 12.16 13.0788 10.41C13.2588 10.04 13.7088 9.89 14.0888 10.08C14.4588 10.27 14.6088 10.72 14.4188 11.09C13.2888 13.35 10.9488 14.75 8.30878 14.75C4.54878 14.75 1.49878 11.72 1.49878 8C1.49878 4.28 4.55878 1.25 8.30878 1.25Z" fill="currentColor"/>
</svg>
