<svg viewBox="0 0 16 16" fill="none" xmlns="http://www.w3.org/2000/svg">
  <path
    d="M13.4694 7.9979C13.4706 7.66727 13.7396 7.4002 14.0702 7.40138C14.4008 7.40257 14.6679 7.67156 14.6667 8.00219C14.6616 9.41911 14.2137 10.7987 13.3861 11.9414C12.5585 13.0842 11.3936 13.9313 10.0588 14.3581C8.72384 14.7849 7.28975 14.7686 5.96456 14.3117C5.15725 14.0333 4.46483 13.5655 3.87422 12.9991V14.0381C3.87422 14.3659 3.60843 14.6317 3.28056 14.6317C2.95269 14.6317 2.68691 14.3659 2.68691 14.0381V11.4472C2.678 11.3797 2.68075 11.3114 2.69459 11.2454C2.74039 10.9631 2.9853 10.7475 3.28056 10.7475H5.97745C6.30532 10.7475 6.5711 11.0133 6.5711 11.3412C6.5711 11.669 6.30532 11.9348 5.97745 11.9348H4.50366C5.04111 12.4999 5.65596 12.9388 6.35486 13.1798C7.43597 13.5525 8.60524 13.5658 9.69415 13.2176C10.7832 12.8694 11.737 12.1772 12.4164 11.2391C13.0959 10.3008 13.4652 9.16568 13.4694 7.9979Z"
    fill="currentColor"
  />
  <path
    d="M1.92989 8.5987C2.26052 8.59988 2.52951 8.33281 2.5307 8.00218C2.53488 6.83441 2.90418 5.69929 3.58368 4.76102C4.26308 3.82289 5.21689 3.13068 6.30593 2.78248C7.39484 2.43431 8.56411 2.44754 9.64522 2.82031C10.3441 3.06129 10.959 3.50016 11.4964 4.06526H10.0226C9.69476 4.06526 9.42898 4.33104 9.42898 4.65891C9.42898 4.98678 9.69476 5.25257 10.0226 5.25257L12.7195 5.25257C13.0148 5.25257 13.2597 5.03701 13.3055 4.75468C13.3193 4.68868 13.3221 4.62041 13.3132 4.55291L13.3132 1.96202C13.3132 1.63416 13.0474 1.36837 12.7195 1.36837C12.3917 1.36837 12.1259 1.63416 12.1259 1.96202V3.00097C11.5352 2.43455 10.8428 1.96674 10.0355 1.68838C8.71033 1.23145 7.27623 1.21519 5.94128 1.64202C4.60646 2.06882 3.44159 2.91591 2.61395 4.05873C1.78642 5.2014 1.33845 6.58097 1.33338 7.99789C1.33219 8.32852 1.59926 8.59751 1.92989 8.5987Z"
    fill="currentColor"
  />
</svg>
