<svg viewBox="0 0 16 16" fill="none" xmlns="http://www.w3.org/2000/svg">
<path d="M14.9472 13.9948C14.9072 13.8848 14.2072 12.0748 12.3872 10.1848C12.5472 10.2248 12.7172 10.2448 12.8772 10.2448C13.3372 10.2448 13.7872 10.0848 14.1472 9.7748C14.6472 9.3648 14.9072 8.7548 14.8572 8.1048L14.4972 2.8748C14.4472 2.1348 14.0172 1.5148 13.3572 1.1948C12.6872 0.884797 11.9372 0.944797 11.3372 1.3748L9.30715 2.8248C9.03715 3.0248 8.81715 3.2848 8.67715 3.5748C8.21715 3.4848 7.72715 3.4848 7.26715 3.5748C7.12715 3.2748 6.90715 3.0148 6.63715 2.8248L4.62715 1.3848C4.02715 0.954797 3.27715 0.884797 2.61715 1.1948C1.94715 1.5148 1.51715 2.1448 1.46715 2.8748L1.11715 8.1048C1.07715 8.7548 1.33715 9.3648 1.82715 9.7748C2.19715 10.0848 2.63715 10.2448 3.09715 10.2448C3.25715 10.2448 3.42715 10.2248 3.58715 10.1848C1.77715 12.0748 1.08715 13.8848 1.04715 13.9948C0.957154 14.2448 0.997154 14.5148 1.15715 14.7248C1.29715 14.9048 1.51715 15.0048 1.74715 15.0048C1.77715 15.0048 1.80715 15.0048 1.84715 15.0048L6.22715 14.4448C6.54715 14.4048 6.80715 14.1648 6.86715 13.8448C6.86715 13.8248 7.19715 12.2648 8.00715 10.7648C8.81715 12.2648 9.13715 13.8248 9.14715 13.8448C9.20715 14.1648 9.46715 14.4048 9.78715 14.4448L14.1672 15.0048C14.1672 15.0048 14.2272 15.0048 14.2672 15.0048C14.4972 15.0048 14.7072 14.9048 14.8572 14.7248C15.0172 14.5148 15.0672 14.2448 14.9772 13.9948H14.9472ZM9.99715 4.4648C9.99715 4.3048 10.0772 4.1448 10.2072 4.0548L12.2372 2.6048C12.4572 2.4548 12.6572 2.5248 12.7372 2.5548C12.8172 2.5948 13.0072 2.7148 13.0272 2.9748L13.3872 8.2048C13.3972 8.3648 13.3372 8.5248 13.2072 8.6248C13.0872 8.7248 12.9172 8.7648 12.7672 8.7248L9.99715 8.0348V7.0848C10.7272 6.5148 11.3472 6.7548 11.4072 6.7848C11.7772 6.9648 12.2272 6.8248 12.4172 6.4548C12.6072 6.0848 12.4572 5.6348 12.0872 5.4448C12.0372 5.4148 11.1172 4.9848 9.99715 5.3748V4.4548V4.4648ZM8.49715 5.0548V7.8748H7.49715V5.0548C7.80715 4.9648 8.18715 4.9648 8.49715 5.0548ZM3.22715 8.7248C3.06715 8.7648 2.90715 8.7248 2.78715 8.6248C2.66715 8.5248 2.59715 8.3648 2.60715 8.2048L2.96715 2.9748C2.98715 2.7048 3.17715 2.5948 3.25715 2.5548C3.29715 2.5348 3.37715 2.5048 3.47715 2.5048C3.55715 2.5048 3.65715 2.5248 3.76715 2.6048L5.79715 4.0548C5.92715 4.1448 6.00715 4.3048 6.00715 4.4648V5.3748C4.88715 4.9748 3.97715 5.4148 3.91715 5.4448C3.54715 5.6248 3.40715 6.0648 3.58715 6.4348C3.76715 6.8048 4.20715 6.9648 4.57715 6.7948C4.65715 6.7648 5.27715 6.5148 6.00715 7.0848V8.0348L3.23715 8.7248H3.22715ZM5.51715 13.0148L3.06715 13.3348C3.71715 12.2548 4.94715 10.6348 6.96715 9.3748H7.05715C7.05715 9.3748 7.06715 9.3848 7.07715 9.3948C6.20715 10.7448 5.73715 12.2448 5.52715 13.0248L5.51715 13.0148ZM10.4872 13.0148C10.2772 12.2348 9.80715 10.7348 8.92715 9.3748H9.03715C11.0572 10.6348 12.2872 12.2548 12.9372 13.3348L10.4872 13.0148Z" fill="currentColor"/>
</svg>
