<svg viewBox="0 0 16 16" fill="none" xmlns="http://www.w3.org/2000/svg">
<path d="M13.25 11C12.84 11 12.5 11.34 12.5 11.75V13C12.5 13.28 12.28 13.5 12 13.5H4C3.72 13.5 3.5 13.28 3.5 13V11.75C3.5 11.34 3.16 11 2.75 11C2.34 11 2 11.34 2 11.75V13C2 14.1 2.9 15 4 15H12C13.1 15 14 14.1 14 13V11.75C14 11.34 13.66 11 13.25 11Z" fill="currentColor"/>
<path d="M2.75 8C3.16 8 3.5 7.66 3.5 7.25V3C3.5 2.72 3.72 2.5 4 2.5H8.75V4.25C8.75 5.35 9.65 6.25 10.75 6.25H12.5V7.25C12.5 7.66 12.84 8 13.25 8C13.66 8 14 7.66 14 7.25V5.5C14 5.5 14 5.47 14 5.45C14 5.38 13.98 5.32 13.96 5.26C13.96 5.24 13.95 5.21 13.93 5.19C13.89 5.11 13.85 5.04 13.78 4.97L10.03 1.22C9.97 1.16 9.89 1.11 9.81 1.07C9.79 1.06 9.76 1.05 9.74 1.04C9.68 1.02 9.62 1.01 9.55 1C9.53 1 9.52 1 9.5 1H4C2.9 1 2 1.9 2 3V7.25C2 7.66 2.34 8 2.75 8ZM11.44 4.75H10.75C10.47 4.75 10.25 4.53 10.25 4.25V3.56L11.44 4.75Z" fill="currentColor"/>
<path d="M14.25 8.75H1.75C1.34 8.75 1 9.09 1 9.5C1 9.91 1.34 10.25 1.75 10.25H14.25C14.66 10.25 15 9.91 15 9.5C15 9.09 14.66 8.75 14.25 8.75Z" fill="currentColor"/>
</svg>
