<svg viewBox="0 0 16 16" fill="none" xmlns="http://www.w3.org/2000/svg">
<path d="M5.47226 10.5481L4.40226 11.4381L5.15226 7.13806L11.6723 5.79806C11.5823 6.03806 11.6223 6.31806 11.8023 6.53806C12.0623 6.85806 12.5423 6.89806 12.8623 6.63806L14.7423 5.08806C14.7423 5.08806 14.7723 5.04806 14.7923 5.03806C14.8223 5.00806 14.8523 4.97806 14.8723 4.94806C14.8923 4.90806 14.9123 4.87806 14.9323 4.83806C14.9523 4.79806 14.9623 4.76806 14.9723 4.72806C14.9823 4.68806 14.9923 4.63806 14.9923 4.59806C14.9923 4.57806 15.0023 4.54806 15.0023 4.52806C15.0023 4.51806 15.0023 4.49806 15.0023 4.48806C15.0023 4.44806 14.9923 4.40806 14.9823 4.35806C14.9823 4.31806 14.9623 4.27806 14.9423 4.23806C14.9423 4.22806 14.9423 4.20806 14.9323 4.19806C14.9223 4.17806 14.9023 4.15806 14.8823 4.12806C14.8623 4.08806 14.8323 4.05806 14.8123 4.01806C14.7923 3.97806 14.7523 3.95806 14.7123 3.92806C14.6823 3.90806 14.6523 3.87806 14.6223 3.85806C14.5823 3.83806 14.5323 3.81806 14.4923 3.80806C14.4623 3.80806 14.4423 3.78806 14.4223 3.77806L1.91226 1.01806C1.62226 0.958062 1.32226 1.06806 1.14226 1.30806C0.962264 1.54806 0.952264 1.86806 1.10226 2.12806L3.71226 6.63806L2.57226 13.1781C2.52226 13.4881 2.66226 13.7981 2.93226 13.9581C3.05226 14.0281 3.18226 14.0581 3.31226 14.0581C3.48226 14.0581 3.65226 13.9981 3.79226 13.8881L6.43226 11.6981C6.75226 11.4381 6.79226 10.9581 6.53226 10.6381C6.26226 10.3181 5.79226 10.2781 5.47226 10.5381V10.5481ZM10.6423 4.46806L4.88226 5.65806L3.25226 2.84806L10.6423 4.47806V4.46806Z" fill="currentColor"/>
<path d="M10.9623 6.93806C8.74226 6.93806 6.93226 8.74806 6.93226 10.9681C6.93226 13.1881 8.74226 14.9981 10.9623 14.9981C13.1823 14.9981 14.9923 13.1881 14.9923 10.9681C14.9923 8.74806 13.1823 6.93806 10.9623 6.93806ZM10.9623 13.4981C9.56226 13.4981 8.43226 12.3581 8.43226 10.9681C8.43226 9.57806 9.57226 8.43806 10.9623 8.43806C12.3523 8.43806 13.4923 9.57806 13.4923 10.9681C13.4923 12.3581 12.3523 13.4981 10.9623 13.4981Z" fill="currentColor"/>
<path d="M11.7123 10.6481V9.85806C11.7123 9.44806 11.3723 9.10806 10.9623 9.10806C10.5523 9.10806 10.2123 9.44806 10.2123 9.85806V10.9581C10.2123 11.1581 10.2923 11.3481 10.4323 11.4881L11.3223 12.3581C11.4723 12.4981 11.6623 12.5781 11.8523 12.5781C12.0423 12.5781 12.2423 12.4981 12.3823 12.3581C12.6723 12.0681 12.6723 11.5881 12.3823 11.2981L11.7223 10.6481H11.7123Z" fill="currentColor"/>
</svg>
