<svg viewBox="0 0 16 16" fill="none" xmlns="http://www.w3.org/2000/svg">
<path d="M11.49 8.02C9.56 8.02 8 9.59 8 11.51C8 13.43 9.57 15 11.49 15C13.41 15 14.98 13.43 14.98 11.51C14.98 9.59 13.41 8.02 11.49 8.02ZM11.49 13.5C10.39 13.5 9.5 12.61 9.5 11.51C9.5 10.41 10.39 9.52 11.49 9.52C12.59 9.52 13.48 10.41 13.48 11.51C13.48 12.61 12.59 13.5 11.49 13.5Z" fill="currentColor"/>
<path d="M12.24 11.19V10.74C12.24 10.33 11.9 9.99 11.49 9.99C11.08 9.99 10.74 10.33 10.74 10.74V11.5C10.74 11.7 10.82 11.9 10.97 12.04L11.47 12.52C11.62 12.66 11.8 12.73 11.99 12.73C12.18 12.73 12.38 12.65 12.53 12.5C12.82 12.2 12.81 11.73 12.51 11.44L12.24 11.18V11.19Z" fill="currentColor"/>
<path d="M12.75 3H12.5V1.75C12.5 1.34 12.16 1 11.75 1C11.34 1 11 1.34 11 1.75V3H5V1.75C5 1.34 4.66 1 4.25 1C3.84 1 3.5 1.34 3.5 1.75V3H3.25C2.01 3 1 4.01 1 5.25V12.75C1 13.99 2.01 15 3.25 15H6.25C6.66 15 7 14.66 7 14.25C7 13.84 6.66 13.5 6.25 13.5H3.25C2.84 13.5 2.5 13.16 2.5 12.75V7.5H14.25C14.66 7.5 15 7.16 15 6.75V5.25C15 4.01 13.99 3 12.75 3ZM2.5 5.25C2.5 4.84 2.84 4.5 3.25 4.5H12.75C13.16 4.5 13.5 4.84 13.5 5.25V6H2.5V5.25Z" fill="currentColor"/>
</svg>
