<svg viewBox="0 0 16 16" fill="none" xmlns="http://www.w3.org/2000/svg">
<path d="M15 1.77C15 1.77 15 1.69 15 1.65C15 1.61 14.99 1.57 14.97 1.53C14.96 1.49 14.94 1.45 14.92 1.41C14.92 1.39 14.91 1.37 14.9 1.35C14.89 1.33 14.8699 1.32 14.8599 1.31C14.8399 1.28 14.8099 1.24 14.7799 1.21C14.7499 1.18 14.7199 1.15 14.6899 1.13C14.6699 1.12 14.6599 1.1 14.6398 1.09C14.6198 1.08 14.5998 1.08 14.5798 1.07C14.5398 1.05 14.4998 1.04 14.4598 1.03C14.4197 1.02 14.3797 1.01 14.3397 1C14.2997 1 14.2597 1 14.2197 1C14.1796 1 14.1396 1 14.0896 1.02C14.0696 1.02 14.0496 1.02 14.0296 1.02L1.53403 4.77C1.2439 4.86 1.03381 5.11 1.00379 5.41C0.97378 5.71 1.12385 6 1.38396 6.15L6.82638 9.17L9.84772 14.61C9.97777 14.85 10.2379 15 10.508 15C10.538 15 10.558 15 10.588 15C10.8882 14.97 11.1383 14.76 11.2283 14.47L14.98 1.96C14.98 1.96 14.98 1.92 14.98 1.9C14.98 1.86 14.99 1.81 15 1.77ZM11.6285 3.32L7.25657 7.69L3.67498 5.7L11.6285 3.32ZM10.2979 12.32L8.30703 8.74L12.679 4.37L10.2979 12.32Z" fill="currentColor"/>
</svg>
