<svg viewBox="0 0 16 16" fill="none" xmlns="http://www.w3.org/2000/svg">
<path d="M14.4404 2.78L8.21485 1.03C8.08494 0.99 7.94504 0.99 7.81513 1.03L1.54961 2.78C1.22984 2.87 1 3.17 1 3.5V7.52C1 10.4 2.72877 12.95 5.40685 14.02L7.73519 14.95C7.82512 14.99 7.91506 15 8.01499 15C8.11492 15 8.20485 14.98 8.29479 14.95L10.6031 14.02C13.2712 12.95 15 10.4 15 7.52V3.5C15 3.16 14.7802 2.87 14.4504 2.78H14.4404ZM13.4911 7.52C13.4911 9.78 12.132 11.78 10.0435 12.62L8.01499 13.44L5.96645 12.62C3.86795 11.78 2.50892 9.78 2.50892 7.51V4.06L8.01499 2.52L13.5011 4.06V7.51L13.4911 7.52Z" fill="currentColor"/>
</svg>
