<svg viewBox="0 0 16 16" fill="none" xmlns="http://www.w3.org/2000/svg">
<path d="M14.269 12.26C13.8584 12.26 13.5179 12.6 13.5179 13.01C13.5179 13.24 13.1674 13.5 12.7067 13.5C12.6767 13.5 12.6567 13.49 12.6266 13.49L13.9886 9.87C14.1588 9.42 14.1388 8.93 13.9285 8.5C13.7182 8.07 13.3577 7.75 12.897 7.59L12.3763 7.42L11.4449 4.26C11.2246 3.52 10.5336 3 9.76252 3H8.76109V2.5H9.2618C9.67239 2.5 10.0129 2.16 10.0129 1.75C10.0129 1.34 9.67239 1 9.2618 1H6.75823C6.34764 1 6.00715 1.34 6.00715 1.75C6.00715 2.16 6.34764 2.5 6.75823 2.5H7.25894V3H6.25751C5.48641 3 4.79542 3.52 4.57511 4.26L3.64378 7.42L3.12303 7.59C2.67239 7.74 2.30186 8.06 2.09156 8.5C1.88126 8.93 1.86123 9.42 2.03147 9.87L3.39342 13.49C3.39342 13.49 3.34335 13.5 3.3133 13.5C2.85265 13.5 2.50215 13.24 2.50215 13.01C2.50215 12.6 2.16166 12.26 1.75107 12.26C1.34049 12.26 1 12.6 1 13.01C1 14.11 2.04149 15 3.3133 15C3.89413 15 4.45494 14.82 4.87554 14.48C5.72675 15.15 7.14878 15.15 8 14.48C8.85122 15.15 10.2732 15.15 11.1245 14.48C11.5551 14.82 12.1059 15 12.6867 15C13.9585 15 15 14.11 15 13.01C15 12.6 14.6595 12.26 14.2489 12.26H14.269ZM5.37625 6.84L6.00715 4.68C6.0372 4.57 6.13734 4.5 6.2475 4.5H9.7525C9.86266 4.5 9.9628 4.57 9.99285 4.68L10.6237 6.84L9.90272 6.6L8.62089 6.17L8.23033 6.04C8.15021 6.01 8.0701 6 7.98999 6C7.90987 6 7.82976 6.01 7.74964 6.04L7.35908 6.17L5.62661 6.75L5.36624 6.84H5.37625ZM8.92132 13.29C8.92132 13.29 8.81116 13.23 8.76109 13.2V10.01C8.76109 9.6 8.4206 9.26 8.01001 9.26C7.59943 9.26 7.25894 9.6 7.25894 10.01V13.2C7.20887 13.23 7.14878 13.25 7.09871 13.29C6.77825 13.56 6.1073 13.56 5.78684 13.29C5.50644 13.05 5.14592 12.95 4.80544 12.97L3.44349 9.35C3.41345 9.26 3.44349 9.19 3.44349 9.15C3.46352 9.11 3.50358 9.05 3.59371 9.02L4.48498 8.72L7.84979 7.6C7.94993 7.57 8.06009 7.57 8.16023 7.6L11.525 8.72L12.4163 9.02C12.5064 9.05 12.5465 9.11 12.5665 9.15C12.5866 9.19 12.6066 9.26 12.5665 9.35L11.2046 12.97C10.8541 12.95 10.5036 13.05 10.2232 13.29C9.90272 13.56 9.23176 13.56 8.9113 13.29H8.92132Z" fill="currentColor"/>
</svg>
