<svg viewBox="0 0 16 16" fill="none" xmlns="http://www.w3.org/2000/svg">
<path d="M14.495 2.9C14.445 1.83 13.555 1 12.485 1H3.52502C2.44502 1 1.56502 1.83 1.51502 2.9L1.00502 12.9C0.975024 13.45 1.17502 13.97 1.55502 14.37C1.93502 14.77 2.46502 15 3.01502 15H12.985C13.535 15 14.065 14.77 14.445 14.37C14.825 13.97 15.025 13.45 14.995 12.9L14.495 2.9ZM13.365 13.34C13.265 13.44 13.135 13.5 12.985 13.5H3.01502C2.87502 13.5 2.73502 13.44 2.63502 13.34C2.54502 13.24 2.49502 13.11 2.49502 12.98L3.01502 2.97C3.02502 2.7 3.25502 2.5 3.52502 2.5H12.485C12.755 2.5 12.985 2.71 12.995 2.98L13.495 12.98C13.495 13.12 13.455 13.24 13.355 13.34H13.365Z" fill="currentColor"/>
<path d="M10.535 3.5C10.125 3.5 9.78502 3.84 9.78502 4.25C9.78502 5.21 8.98502 6 8.00502 6C7.02502 6 6.22502 5.21 6.22502 4.25C6.22502 3.84 5.88502 3.5 5.47502 3.5C5.06502 3.5 4.72502 3.84 4.72502 4.25C4.72502 6.04 6.19502 7.5 8.00502 7.5C9.81502 7.5 11.285 6.04 11.285 4.25C11.285 3.84 10.945 3.5 10.535 3.5Z" fill="currentColor"/>
</svg>
