<svg viewBox="0 0 16 16" fill="none" xmlns="http://www.w3.org/2000/svg">
<path d="M14.252 13.5H13.762V7.01C14.082 6.79 14.372 6.52 14.582 6.18C15.092 5.35 15.142 4.34 14.702 3.47L13.952 1.97C13.652 1.37 13.052 1 12.382 1H3.60203C2.93203 1 2.33203 1.37 2.03203 1.97L1.29203 3.47C0.862028 4.34 0.902028 5.36 1.42203 6.18C1.63203 6.52 1.92203 6.79 2.24203 7.01V13.5H1.75203C1.34203 13.5 1.00203 13.84 1.00203 14.25C1.00203 14.66 1.34203 15 1.75203 15H14.252C14.662 15 15.002 14.66 15.002 14.25C15.002 13.84 14.662 13.5 14.252 13.5ZM12.612 2.64L13.362 4.14C13.562 4.55 13.542 5.01 13.302 5.4C13.062 5.79 12.662 6.01 12.202 6.01C11.582 6.01 11.052 5.57 10.932 4.96L10.512 2.74L10.472 2.51H12.392C12.492 2.51 12.572 2.56 12.612 2.65V2.64ZM6.68203 4.47L7.05203 2.5H8.95203L9.32203 4.47C9.39203 4.85 9.29203 5.24 9.05203 5.53C8.81203 5.82 8.44203 6 8.06203 6H7.96203C7.58203 6 7.21203 5.83 6.97203 5.53C6.72203 5.23 6.62203 4.85 6.69203 4.47H6.68203ZM2.64203 4.13L3.38203 2.63C3.42203 2.54 3.51203 2.49 3.60203 2.49H5.51203L5.06203 4.93C4.95203 5.54 4.41203 5.99 3.79203 5.99C3.33203 5.99 2.93203 5.77 2.69203 5.38C2.45203 4.99 2.43203 4.53 2.63203 4.13H2.64203ZM9.25203 13.5H6.75203V10.25C6.75203 10.11 6.86203 10 7.00203 10H9.00203C9.14203 10 9.25203 10.11 9.25203 10.25V13.5ZM10.752 13.5V10.25C10.752 9.29 9.96203 8.5 9.00203 8.5H7.00203C6.04203 8.5 5.25203 9.29 5.25203 10.25V13.5H3.74203V7.49C3.74203 7.49 3.77203 7.49 3.79203 7.49C4.61203 7.49 5.35203 7.13 5.87203 6.55C6.40203 7.14 7.15203 7.49 7.94203 7.49H8.04203C8.84203 7.49 9.58203 7.15 10.112 6.55C10.632 7.13 11.372 7.49 12.192 7.49C12.192 7.49 12.232 7.49 12.242 7.49V13.5H10.732H10.752Z" fill="currentColor"/>
</svg>
