<svg viewBox="0 0 16 16" fill="none" xmlns="http://www.w3.org/2000/svg">
<path d="M10.4932 11C10.0835 11 9.74375 11.34 9.74375 11.75V13C9.74375 13.28 9.52391 13.5 9.24411 13.5H2.99857C2.71877 13.5 2.49893 13.28 2.49893 13V3C2.49893 2.72 2.71877 2.5 2.99857 2.5H9.24411C9.52391 2.5 9.74375 2.72 9.74375 3V4.25C9.74375 4.66 10.0835 5 10.4932 5C10.9029 5 11.2427 4.66 11.2427 4.25V3C11.2427 1.9 10.3433 1 9.24411 1H2.99857C1.89936 1 1 1.9 1 3V13C1 14.1 1.89936 15 2.99857 15H9.24411C10.3433 15 11.2427 14.1 11.2427 13V11.75C11.2427 11.34 10.9029 11 10.4932 11Z" fill="currentColor"/>
<path d="M14.99 8C14.99 7.98 14.98 7.96 14.98 7.94C14.98 7.86 14.96 7.79 14.93 7.71C14.9001 7.64 14.8601 7.59 14.8101 7.53C14.7901 7.51 14.7901 7.49 14.7702 7.47L12.5318 5.22C12.242 4.93 11.7623 4.92 11.4725 5.22C11.1827 5.51 11.1827 5.99 11.4725 6.28L12.4418 7.25H5.99643C5.58672 7.25 5.24697 7.59 5.24697 8C5.24697 8.41 5.58672 8.75 5.99643 8.75H12.4218L11.4525 9.72C11.1627 10.01 11.1527 10.49 11.4525 10.78C11.6024 10.93 11.7923 11 11.9822 11C12.172 11 12.3619 10.93 12.5118 10.78L14.7802 8.53C14.8501 8.46 14.9001 8.38 14.94 8.29C14.98 8.2 15 8.1 15 8H14.99Z" fill="currentColor"/>
</svg>
