<svg viewBox="0 0 16 16" fill="none" xmlns="http://www.w3.org/2000/svg">
<path d="M12.01 9.81135C11.72 9.70117 11.4 9.77129 11.19 9.99165L10.21 11.0334C9.93 11.3339 9.94 11.8147 10.24 12.0952C10.45 12.2855 10.74 12.3456 10.99 12.2654V14.2487C10.99 14.6594 11.33 15 11.74 15C12.15 15 12.49 14.6594 12.49 14.2487V10.5025C12.49 10.192 12.3 9.92154 12.02 9.80134L12.01 9.81135Z" fill="currentColor"/>
<path d="M12.75 3H3.25C2.01 3 1 4.01169 1 5.25376V10.7629C1 12.005 2.01 13.0167 3.25 13.0167H7.75C8.16 13.0167 8.5 12.6761 8.5 12.2654C8.5 11.8548 8.16 11.5142 7.75 11.5142H3.25C2.84 11.5142 2.5 11.1736 2.5 10.7629V7.2571H13.5V9.76127C13.5 10.172 13.84 10.5125 14.25 10.5125C14.66 10.5125 15 10.172 15 9.76127V5.25376C15 4.01169 13.99 3 12.75 3ZM2.5 5.75459V5.25376C2.5 4.84307 2.84 4.5025 3.25 4.5025H12.75C13.16 4.5025 13.5 4.84307 13.5 5.25376V5.75459H2.5Z" fill="currentColor"/>
</svg>
