<svg viewBox="0 0 16 16" fill="none" xmlns="http://www.w3.org/2000/svg">
<path d="M12.75 1H3.25C2.01 1 1 2.01 1 3.25V12.75C1 13.99 2.01 15 3.25 15H12.75C13.99 15 15 13.99 15 12.75V3.25C15 2.01 13.99 1 12.75 1ZM3.25 2.5H12.75C13.16 2.5 13.5 2.84 13.5 3.25V5H2.5V3.25C2.5 2.84 2.84 2.5 3.25 2.5ZM12.75 13.5H3.25C2.84 13.5 2.5 13.16 2.5 12.75V6.5H13.5V12.75C13.5 13.16 13.16 13.5 12.75 13.5Z" fill="currentColor"/>
<path d="M4 4.5H4.5C4.91 4.5 5.25 4.16 5.25 3.75C5.25 3.34 4.91 3 4.5 3H4C3.59 3 3.25 3.34 3.25 3.75C3.25 4.16 3.59 4.5 4 4.5Z" fill="currentColor"/>
<path d="M7 4.5H7.5C7.91 4.5 8.25 4.16 8.25 3.75C8.25 3.34 7.91 3 7.5 3H7C6.59 3 6.25 3.34 6.25 3.75C6.25 4.16 6.59 4.5 7 4.5Z" fill="currentColor"/>
<path d="M9.99 7.93C9.68 7.66 9.2 7.7 8.93 8.01C8.66 8.32 8.7 8.8 9.01 9.07L10.09 10L9.01 10.93C8.7 11.2 8.66 11.67 8.93 11.99C9.08 12.16 9.29 12.25 9.5 12.25C9.67 12.25 9.85 12.19 9.99 12.07L11.74 10.57C11.91 10.43 12 10.22 12 10C12 9.78 11.9 9.57 11.74 9.43L9.99 7.93Z" fill="currentColor"/>
<path d="M7.07 8.01C6.8 7.7 6.33 7.66 6.01 7.93L4.26 9.43C4.09 9.57 4 9.78 4 10C4 10.22 4.1 10.43 4.26 10.57L6.01 12.07C6.15 12.19 6.32 12.25 6.5 12.25C6.71 12.25 6.92 12.16 7.07 11.99C7.34 11.68 7.3 11.2 6.99 10.93L5.9 10L6.99 9.07C7.3 8.8 7.34 8.33 7.07 8.01Z" fill="currentColor"/>
</svg>
