<svg viewBox="0 0 16 16" fill="none" xmlns="http://www.w3.org/2000/svg">
<path d="M14.25 10.2503H4L5.2 9.35027C5.53 9.10027 5.6 8.63027 5.35 8.30027C5.1 7.97027 4.63 7.90027 4.3 8.15027L1.3 10.4003C1.3 10.4003 1.28 10.4303 1.27 10.4403C1.21 10.4903 1.17 10.5503 1.13 10.6103C1.11 10.6403 1.09 10.6603 1.08 10.6903C1.03 10.7903 1.01 10.8903 1.01 11.0003C1.01 11.1103 1.04 11.2203 1.08 11.3103C1.09 11.3403 1.12 11.3603 1.13 11.3903C1.17 11.4503 1.22 11.5103 1.27 11.5603C1.28 11.5703 1.29 11.5903 1.3 11.6003L4.3 13.8503C4.43 13.9503 4.59 14.0003 4.75 14.0003C4.98 14.0003 5.2 13.9003 5.35 13.7003C5.6 13.3703 5.53 12.9003 5.2 12.6503L4 11.7503H14.25C14.66 11.7503 15 11.4103 15 11.0003C15 10.5903 14.66 10.2503 14.25 10.2503Z" fill="currentColor"/>
<path d="M1.75 5.75027H12L10.8 6.65027C10.47 6.90027 10.4 7.37027 10.65 7.70027C10.8 7.90027 11.02 8.00027 11.25 8.00027C11.41 8.00027 11.56 7.95027 11.7 7.85027L14.7 5.60027C14.7 5.60027 14.72 5.57027 14.73 5.56027C14.79 5.51027 14.83 5.45027 14.87 5.39027C14.89 5.36027 14.91 5.34027 14.92 5.31027C14.97 5.21027 14.99 5.11027 14.99 5.00027C14.99 4.89027 14.96 4.78027 14.92 4.69027C14.91 4.66027 14.88 4.64027 14.87 4.61027C14.83 4.55027 14.78 4.49027 14.73 4.44027C14.72 4.43027 14.71 4.41027 14.7 4.40027L11.7 2.15027C11.37 1.90027 10.9 1.97027 10.65 2.30027C10.4 2.63027 10.47 3.10027 10.8 3.35027L12 4.25027H1.75C1.34 4.25027 1 4.59027 1 5.00027C1 5.41027 1.34 5.75027 1.75 5.75027Z" fill="currentColor"/>
</svg>
