<svg viewBox="0 0 16 16" fill="none" xmlns="http://www.w3.org/2000/svg">
<path d="M8.00539 4.74771C7.59507 4.74771 7.25481 5.08743 7.25481 5.49709V7.995C7.25481 8.40466 7.59507 8.74438 8.00539 8.74438H9.25635C9.66667 8.74438 10.0069 8.40466 10.0069 7.995C10.0069 7.58535 9.66667 7.24563 9.25635 7.24563H8.75597V5.49709C8.75597 5.08743 8.4157 4.74771 8.00539 4.74771Z" fill="currentColor"/>
<path d="M6.00385 8.74438C6.00385 8.33472 5.66359 7.995 5.25327 7.995H1.75058C1.34026 7.995 1 8.33472 1 8.74438C1 9.15404 1.34026 9.49375 1.75058 9.49375H5.25327C5.66359 9.49375 6.00385 9.15404 6.00385 8.74438Z" fill="currentColor"/>
<path d="M7.505 10.7427C7.505 10.3331 7.16474 9.99334 6.75443 9.99334H2.75135C2.34103 9.99334 2.00077 10.3331 2.00077 10.7427C2.00077 11.1524 2.34103 11.4921 2.75135 11.4921H6.75443C7.16474 11.4921 7.505 11.1524 7.505 10.7427Z" fill="currentColor"/>
<path d="M8.00539 2C5.13318 2 2.65127 4.0383 2.11085 6.85595C2.03079 7.26561 2.301 7.65529 2.70131 7.73522C3.11162 7.81515 3.50192 7.54538 3.58199 7.14571C3.9923 5.03747 5.85373 3.50874 8.00539 3.50874C10.4873 3.50874 12.5089 5.52706 12.5089 8.005C12.5089 10.4829 10.4873 12.5012 8.00539 12.5012C7.18476 12.5012 6.38414 12.2814 5.6836 11.8618C5.32333 11.642 4.86297 11.7619 4.65281 12.1116C4.44265 12.4613 4.55273 12.9309 4.903 13.1407C5.83372 13.7002 6.90454 14 7.99538 14C11.3079 14 14 11.3122 14 8.005C14 4.69775 11.3179 2 8.00539 2Z" fill="currentColor"/>
</svg>
