<svg viewBox="0 0 16 16" fill="none" xmlns="http://www.w3.org/2000/svg">
<path d="M14.9439 10.0239C14.9739 9.93392 14.9939 9.85393 14.9939 9.75393C14.9939 9.75393 14.9939 9.75393 14.9939 9.74393C14.9939 9.73392 14.9939 9.74393 14.9939 9.73392C14.9939 9.64392 14.9739 9.55393 14.9439 9.46392C14.9239 9.42392 14.8939 9.39393 14.8739 9.35393C14.8539 9.31393 14.8339 9.27392 14.8039 9.23392L11.5539 5.73393C11.2739 5.43393 10.7939 5.41393 10.4939 5.69393C10.1939 5.97393 10.1739 6.45393 10.4539 6.75393L12.5339 8.99393H8.10393C5.64393 8.99393 3.48393 7.24393 2.97394 4.84393L2.49393 2.58393C2.40393 2.18393 1.99393 1.92393 1.59393 2.01393C1.19393 2.09393 0.933935 2.49393 1.02394 2.90393L1.50394 5.16393C2.16394 8.25393 4.94393 10.5039 8.10393 10.5039H12.5339L10.4539 12.7439C10.1739 13.0439 10.1939 13.5239 10.4939 13.8039C10.6339 13.9339 10.8239 14.0039 11.0039 14.0039C11.2039 14.0039 11.4039 13.9239 11.5539 13.7639L14.8039 10.2639C14.8039 10.2639 14.8539 10.1839 14.8739 10.1439C14.8939 10.1039 14.9239 10.0739 14.9439 10.0339V10.0239Z" fill="currentColor"/>
</svg>
