<svg viewBox="0 0 16 16" xmlns="http://www.w3.org/2000/svg">
<path d="M13.45 12.39C14.42 11.19 15 9.66 15 8C15 6.34 14.42 4.81 13.45 3.61L13.53 3.53C13.82 3.24 13.82 2.76 13.53 2.47C13.24 2.18 12.76 2.18 12.47 2.47L12.39 2.55C11.19 1.58 9.66 1 8 1C6.34 1 4.81 1.58 3.61 2.55L3.53 2.47C3.24 2.18 2.76 2.18 2.47 2.47C2.18 2.76 2.18 3.24 2.47 3.53L2.55 3.61C1.58 4.81 1 6.34 1 8C1 9.66 1.58 11.18 2.55 12.39L2.47 12.47C2.18 12.76 2.18 13.24 2.47 13.53C2.62 13.68 2.81 13.75 3 13.75C3.19 13.75 3.38 13.68 3.53 13.53L3.61 13.45C4.81 14.42 6.34 15 8 15C9.66 15 11.19 14.42 12.39 13.45L12.47 13.53C12.62 13.68 12.81 13.75 13 13.75C13.19 13.75 13.38 13.68 13.53 13.53C13.82 13.24 13.82 12.76 13.53 12.47L13.45 12.39ZM13.5 8C13.5 9.25 13.08 10.39 12.38 11.32L11.13 10.07C11.52 9.48 11.75 8.77 11.75 8.01C11.75 7.25 11.52 6.54 11.13 5.95L12.38 4.7C13.08 5.62 13.5 6.77 13.5 8.02V8ZM5.75 8C5.75 6.76 6.76 5.75 8 5.75C9.24 5.75 10.25 6.76 10.25 8C10.25 9.24 9.24 10.25 8 10.25C6.76 10.25 5.75 9.24 5.75 8ZM8 2.5C9.25 2.5 10.39 2.92 11.32 3.62L10.07 4.87C9.48 4.48 8.77 4.25 8.01 4.25C7.25 4.25 6.54 4.48 5.95 4.87L4.7 3.62C5.62 2.92 6.77 2.5 8.02 2.5H8ZM2.5 8C2.5 6.75 2.92 5.61 3.62 4.68L4.87 5.93C4.48 6.52 4.25 7.23 4.25 7.99C4.25 8.75 4.48 9.46 4.87 10.05L3.62 11.3C2.92 10.38 2.5 9.23 2.5 7.98V8ZM8 13.5C6.75 13.5 5.61 13.08 4.68 12.38L5.93 11.13C6.52 11.52 7.23 11.75 7.99 11.75C8.75 11.75 9.46 11.52 10.05 11.13L11.3 12.38C10.38 13.08 9.23 13.5 7.98 13.5H8Z" fill="currentColor"/>
</svg>
