<svg viewBox="0 0 16 16" fill="none" xmlns="http://www.w3.org/2000/svg">
<path d="M12.0011 2.49893C12.271 2.49893 12.501 2.71877 12.501 2.99857V5.48679C12.501 5.8965 12.8408 6.23626 13.2507 6.23626C13.6605 6.23626 14.0004 5.8965 14.0004 5.48679V2.99857C14.0004 1.89936 13.1007 1 12.0011 1H3.99423C2.89465 1 1.995 1.89936 1.995 2.99857V12.9914C1.995 14.0906 2.89465 14.99 3.99423 14.99H4.99384C5.40368 14.99 5.74355 14.6503 5.74355 14.2405C5.74355 13.8308 5.40368 13.4911 4.99384 13.4911H3.99423C3.72433 13.4911 3.49442 13.2712 3.49442 12.9914V2.99857C3.49442 2.72877 3.71433 2.49893 3.99423 2.49893H5.98346C5.98346 2.90864 6.32333 3.24839 6.73317 3.24839H9.22222C9.63206 3.24839 9.97193 2.90864 9.97193 2.49893H12.0011Z" fill="currentColor"/>
<path d="M14.7601 9.24411L12.7309 7.21556C12.441 6.92577 11.9312 6.92577 11.6413 7.21556L7.60284 11.2627C7.48288 11.3826 7.41291 11.5325 7.38292 11.6924L7.00307 14.1006C6.96308 14.3405 7.04305 14.5903 7.22298 14.7702C7.37293 14.9201 7.56285 15 7.77277 15C7.81276 15 7.85274 15 7.89273 15L10.3018 14.6203C10.4617 14.5903 10.6117 14.5203 10.7316 14.4004L14.7701 10.3533C15.07 10.0535 15.07 9.56388 14.7701 9.2641L14.7601 9.24411ZM9.81199 13.1113L8.70242 13.2912L8.87235 12.182L12.1911 8.86438L13.1307 9.80371L9.81199 13.1213V13.1113Z" fill="currentColor"/>
</svg>
