<svg viewBox="0 0 16 16" fill="none" xmlns="http://www.w3.org/2000/svg">
<path d="M14.7751 13.72L13.5051 12.45C13.8151 11.95 13.9951 11.38 13.9951 10.75C13.9951 8.96 12.5351 7.5 10.7451 7.5C8.95512 7.5 7.49512 8.96 7.49512 10.75C7.49512 12.54 8.95512 14 10.7451 14C11.3651 14 11.9451 13.81 12.4451 13.51L13.7151 14.78C13.8651 14.93 14.0551 15 14.2451 15C14.4351 15 14.6251 14.93 14.7751 14.78C15.0651 14.49 15.0651 14.01 14.7751 13.72ZM9.00512 10.75C9.00512 9.79 9.78512 9 10.7551 9C11.7251 9 12.5051 9.78 12.5051 10.75C12.5051 11.23 12.3051 11.67 11.9951 11.99C11.6751 12.31 11.2451 12.5 10.7551 12.5C9.79512 12.5 9.00512 11.72 9.00512 10.75Z" fill="currentColor"/>
<path d="M6.74512 13.5H4.24512C3.83512 13.5 3.49512 13.16 3.49512 12.75V3.25C3.49512 2.84 3.83512 2.5 4.24512 2.5H6.04512C6.14512 2.79 6.41512 3 6.74512 3H9.25512C9.57512 3 9.84512 2.79 9.95512 2.5H11.7551C12.1651 2.5 12.5051 2.84 12.5051 3.25V6.25C12.5051 6.66 12.8451 7 13.2551 7C13.6651 7 14.0051 6.66 14.0051 6.25V3.25C14.0051 2.01 12.9951 1 11.7551 1H4.24512C3.00512 1 1.99512 2.01 1.99512 3.25V12.75C1.99512 13.99 3.00512 15 4.24512 15H6.74512C7.15512 15 7.49512 14.66 7.49512 14.25C7.49512 13.84 7.15512 13.5 6.74512 13.5Z" fill="currentColor"/>
</svg>
