<svg viewBox="0 0 16 16" fill="none" xmlns="http://www.w3.org/2000/svg">
<path d="M6.11635 9.25451C4.74732 9.25451 3.45824 9.78451 2.49893 10.7545C1.52962 11.7245 1 13.0045 1 14.3745C1 14.7845 1.33976 15.1245 1.74946 15.1245C2.15917 15.1245 2.49893 14.7845 2.49893 14.3745C2.49893 13.4045 2.87866 12.4945 3.55817 11.8145C4.92719 10.4445 7.31549 10.4445 8.68451 11.8145C9.37402 12.4945 9.74375 13.4045 9.74375 14.3745C9.74375 14.7845 10.0835 15.1245 10.4932 15.1245C10.9029 15.1245 11.2427 14.7845 11.2427 14.3745C11.2427 13.0045 10.7131 11.7145 9.74375 10.7545C8.77445 9.78451 7.48537 9.25451 6.12634 9.25451H6.11635Z" fill="currentColor"/>
<path d="M6.12634 8.51451C7.64525 8.51451 8.87438 7.28451 8.87438 5.76451C8.87438 4.24451 7.64525 3.01451 6.12634 3.01451C4.60742 3.01451 3.3783 4.24451 3.3783 5.76451C3.3783 7.28451 4.60742 8.51451 6.12634 8.51451ZM6.12634 4.51451C6.81585 4.51451 7.37545 5.07451 7.37545 5.76451C7.37545 6.45451 6.81585 7.01451 6.12634 7.01451C5.43683 7.01451 4.87723 6.45451 4.87723 5.76451C4.87723 5.07451 5.43683 4.51451 6.12634 4.51451Z" fill="currentColor"/>
<path d="M13.8608 8.51451C12.7516 7.40451 11.0128 7.07451 9.57388 7.70451C9.19415 7.87451 9.02427 8.31451 9.18415 8.69451C9.35403 9.07451 9.79372 9.25451 10.1734 9.08451C11.0628 8.69451 12.1221 8.90451 12.8016 9.58451C13.2512 10.0345 13.5011 10.6245 13.5011 11.2645C13.5011 11.6745 13.8408 12.0145 14.2505 12.0145C14.6602 12.0145 15 11.6745 15 11.2645C15 10.2245 14.6003 9.25451 13.8708 8.52451L13.8608 8.51451Z" fill="currentColor"/>
<path d="M11.1128 5.76451C12.3919 5.76451 13.4311 4.72451 13.4311 3.44451C13.4311 2.16451 12.3919 1.12451 11.1128 1.12451C9.83369 1.12451 8.79443 2.16451 8.79443 3.44451C8.79443 4.72451 9.83369 5.76451 11.1128 5.76451ZM11.1128 2.63451C11.5625 2.63451 11.9322 3.00451 11.9322 3.45451C11.9322 3.90451 11.5625 4.27451 11.1128 4.27451C10.6631 4.27451 10.2934 3.90451 10.2934 3.45451C10.2934 3.00451 10.6631 2.63451 11.1128 2.63451Z" fill="currentColor"/>
</svg>
