<svg viewBox="0 0 16 16" fill="none" xmlns="http://www.w3.org/2000/svg">
<path d="M14.9878 3.26009C14.9578 2.63064 14.6878 2.05113 14.2278 1.6215C13.2678 0.742259 11.7778 0.802207 10.8978 1.76138L5.26779 7.87612C5.26779 7.87612 5.21779 7.87612 5.18779 7.87612C4.23779 7.87612 3.33779 8.24581 2.66779 8.91523C1.99779 9.58466 1.61779 10.4839 1.62779 11.4331C1.62779 13.1416 1.21779 13.7211 1.21779 13.7211C1.00779 13.9309 0.937791 14.2606 1.05779 14.5404C1.17779 14.8202 1.44779 15 1.74779 15H5.18779C7.15779 15 8.75779 13.4014 8.75779 11.4331C8.75779 11.3132 8.73779 11.2033 8.72779 11.0934L14.3778 4.96863C14.8078 4.50902 15.0278 3.89954 14.9978 3.27009L14.9878 3.26009ZM5.17779 13.4913H2.88779C3.01779 12.9917 3.11779 12.3223 3.11779 11.4231C3.11779 10.8735 3.32779 10.354 3.71779 9.96433C4.10779 9.57467 4.62779 9.36484 5.17779 9.36484C5.26779 9.36484 5.35779 9.38483 5.44779 9.39482C6.07779 9.48474 6.62779 9.85442 6.93779 10.384C6.94779 10.404 6.95779 10.4239 6.96779 10.4439C7.05779 10.6138 7.13779 10.7936 7.17779 10.9934C7.20779 11.1333 7.22779 11.2832 7.22779 11.4331C7.22779 12.5721 6.29779 13.5013 5.15779 13.5013L5.17779 13.4913ZM13.2578 3.93951L8.15779 9.47475C7.99779 9.23496 7.81779 9.02514 7.60779 8.8353C7.58779 8.82531 7.57779 8.80533 7.55779 8.79533C7.36779 8.62548 7.15779 8.47561 6.92779 8.34572C6.91779 8.34572 6.89779 8.32574 6.88779 8.31575L11.9978 2.78051C12.3178 2.43081 12.8678 2.41082 13.2078 2.73055C13.3778 2.89041 13.4778 3.10023 13.4878 3.33003C13.4878 3.55984 13.4178 3.77965 13.2578 3.9495V3.93951Z" fill="currentColor"/>
</svg>
