<svg viewBox="0 0 16 16" fill="none" xmlns="http://www.w3.org/2000/svg">
<path d="M1.61726 9.07363C2.11774 9.6639 2.84844 10.0041 3.61917 10.0041H5.20067L4.93042 10.7944C4.42994 12.2951 5.03051 13.9058 6.3818 14.7162C6.90229 15.0263 7.53289 15.0863 8.11345 14.8762C8.694 14.6661 9.13442 14.2059 9.3246 13.6257L10.5358 9.99405H14.2493C14.6597 9.99405 15 9.65389 15 9.24371V1.75034C15 1.34015 14.6597 1 14.2493 1H4.78027C3.17875 1 1.83747 2.14051 1.56722 3.72122L1.03671 6.94267C0.906587 7.70302 1.1268 8.48337 1.62727 9.07363H1.61726ZM13.5086 8.50338H12.0072V2.50067H13.5086V8.50338ZM3.04863 3.96133C3.18876 3.11095 3.91945 2.50067 4.78027 2.50067H10.5057V8.50338H10.0052C9.68494 8.50338 9.39467 8.71347 9.29457 9.01361L7.91326 13.1555C7.84319 13.3556 7.69305 13.4456 7.60296 13.4756C7.52288 13.5056 7.35272 13.5456 7.16254 13.4356C6.43185 12.9954 6.09152 12.085 6.36178 11.2746L6.95234 9.49382C7.03242 9.26372 6.99238 9.0136 6.85225 8.81351C6.71211 8.61342 6.48189 8.50338 6.24166 8.50338H3.60916C3.27884 8.50338 2.96855 8.36331 2.74834 8.1032C2.52813 7.84308 2.43804 7.51293 2.4981 7.19279L3.03862 3.96133H3.04863Z" fill="currentColor"/>
</svg>
