<svg viewBox="0 0 16 16" fill="none" xmlns="http://www.w3.org/2000/svg">
<path d="M14.25 11.4977H13.5V10.7471C13.5 10.3368 13.16 9.99654 12.75 9.99654C12.34 9.99654 12 10.3368 12 10.7471V11.4977H11.25C10.84 11.4977 10.5 11.838 10.5 12.2483C10.5 12.6586 10.84 12.9988 11.25 12.9988H12V13.7494C12 14.1597 12.34 14.5 12.75 14.5C13.16 14.5 13.5 14.1597 13.5 13.7494V12.9988H14.25C14.66 12.9988 15 12.6586 15 12.2483C15 11.838 14.66 11.4977 14.25 11.4977Z" fill="currentColor"/>
<path d="M11.62 9.86644C11.86 9.52617 11.77 9.05581 11.43 8.82563C10.91 8.46536 10.35 8.19515 9.76 8.01501C10.8 7.40454 11.5 6.29369 11.5 5.00269C11.5 3.07121 9.93 1.5 8 1.5C6.07 1.5 4.5 3.07121 4.5 5.00269C4.5 6.29369 5.21 7.40454 6.24 8.01501C3.79 8.75558 2 11.0473 2 13.7494C2 14.1597 2.34 14.5 2.75 14.5C3.16 14.5 3.5 14.1597 3.5 13.7494C3.5 11.2675 5.52 9.24596 8 9.24596C8.93 9.24596 9.81 9.52617 10.57 10.0566C10.91 10.2868 11.38 10.2067 11.61 9.86644H11.62ZM8 2.99115C9.1 2.99115 10 3.89184 10 4.99269C10 6.09353 9.1 6.99423 8 6.99423C6.9 6.99423 6 6.09353 6 4.99269C6 3.89184 6.9 2.99115 8 2.99115Z" fill="currentColor"/>
</svg>
