<svg viewBox="0 0 16 16" fill="none" xmlns="http://www.w3.org/2000/svg">
<path d="M11.84 10.0824C12.1 9.75243 12.04 9.28243 11.72 9.03243C11.12 8.56243 10.46 8.23243 9.75 8.01243C10.79 7.40243 11.51 6.28243 11.51 4.99243C11.51 3.06243 9.94 1.49243 8.01 1.49243C6.08 1.49243 4.51 3.06243 4.51 4.99243C4.51 6.28243 5.22 7.39243 6.25 8.00243C3.79 8.76243 2 11.0424 2 13.7424C2 14.1524 2.34 14.4924 2.75 14.4924C3.16 14.4924 3.5 14.1524 3.5 13.7424C3.5 11.2624 5.52 9.24243 8 9.24243C9.02 9.24243 9.99 9.57243 10.79 10.2124C11.12 10.4724 11.59 10.4124 11.84 10.0924V10.0824ZM8 2.99243C9.1 2.99243 10 3.89243 10 4.99243C10 6.09243 9.1 6.99243 8 6.99243C6.9 6.99243 6 6.09243 6 4.99243C6 3.89243 6.9 2.99243 8 2.99243Z" fill="currentColor"/>
<path d="M14.18 11.0924C13.52 10.8224 12.79 11.0924 12.5 11.7424C12.2 11.1024 11.47 10.8224 10.82 11.0924C10.15 11.3724 9.82 12.1424 10.1 12.8224C10.61 14.0424 12.5 14.9924 12.5 14.9924C12.5 14.9924 14.39 14.0424 14.9 12.8224C15.18 12.1524 14.86 11.3724 14.18 11.0924Z" fill="currentColor"/>
</svg>
