<svg viewBox="0 0 16 16" fill="none" xmlns="http://www.w3.org/2000/svg">
<path d="M7.04653 8.29451C7.51653 8.04451 7.84653 7.54451 7.84653 6.97451C7.84653 6.14451 7.17653 5.47451 6.34653 5.47451C5.51653 5.47451 4.84653 6.14451 4.84653 6.97451C4.84653 7.54451 5.17653 8.03451 5.64653 8.29451C5.21653 8.40451 4.81653 8.61451 4.49653 8.93451C3.99653 9.43451 3.72653 10.0845 3.72653 10.7945C3.72653 11.2045 4.06653 11.5445 4.47653 11.5445C4.88653 11.5445 5.22653 11.2045 5.22653 10.7945C5.22653 10.4945 5.34653 10.2145 5.55653 9.99451C5.97653 9.57451 6.72653 9.56451 7.14653 9.99451C7.35653 10.2045 7.47653 10.4945 7.47653 10.7945C7.47653 11.2045 7.81653 11.5445 8.22653 11.5445C8.63653 11.5445 8.97653 11.2045 8.97653 10.7945C8.97653 10.0945 8.70653 9.43451 8.20653 8.93451C7.88653 8.61451 7.47653 8.40451 7.05653 8.29451H7.04653Z" fill="currentColor"/>
<path d="M12.9665 3.13451H9.58653V2.50451C9.58653 1.74451 8.96653 1.12451 8.20653 1.12451C7.44653 1.12451 6.82653 1.74451 6.82653 2.50451V3.13451H3.44653C2.20653 3.13451 1.19653 4.14451 1.19653 5.38451V11.8845C1.19653 13.1245 2.20653 14.1345 3.44653 14.1345H12.9465C14.1865 14.1345 15.1965 13.1245 15.1965 11.8845V5.38451C15.1965 4.14451 14.1865 3.13451 12.9465 3.13451H12.9665ZM13.7165 11.8845C13.7165 12.2945 13.3765 12.6345 12.9665 12.6345H3.46653C3.05653 12.6345 2.71653 12.2945 2.71653 11.8845V5.38451C2.71653 4.97451 3.05653 4.63451 3.46653 4.63451H12.9665C13.3765 4.63451 13.7165 4.97451 13.7165 5.38451V11.8845Z" fill="currentColor"/>
<path d="M11.9665 5.88451H9.96653C9.55653 5.88451 9.21653 6.22451 9.21653 6.63451C9.21653 7.04451 9.55653 7.38451 9.96653 7.38451H11.9665C12.3765 7.38451 12.7165 7.04451 12.7165 6.63451C12.7165 6.22451 12.3765 5.88451 11.9665 5.88451Z" fill="currentColor"/>
<path d="M11.9665 8.38451H11.2165C10.8065 8.38451 10.4665 8.72451 10.4665 9.13451C10.4665 9.54451 10.8065 9.88451 11.2165 9.88451H11.9665C12.3765 9.88451 12.7165 9.54451 12.7165 9.13451C12.7165 8.72451 12.3765 8.38451 11.9665 8.38451Z" fill="currentColor"/>
</svg>
