<svg viewBox="0 0 16 16" fill="none" xmlns="http://www.w3.org/2000/svg">
<path d="M14.5974 8.94115L14.2174 8.08115C14.1974 8.03115 14.1974 7.96115 14.2174 7.91115L14.5974 7.05115C14.9574 6.25115 14.6474 5.32115 13.8874 4.88115L13.0774 4.41115C13.0274 4.38115 12.9874 4.33115 12.9774 4.27115L12.7774 3.35115C12.5974 2.49115 11.7974 1.93115 10.9274 2.01115L9.99742 2.11115C9.93742 2.11115 9.87742 2.10115 9.83742 2.06115L9.13741 1.43115C8.48741 0.841147 7.49742 0.841147 6.84741 1.43115L6.14742 2.06115C6.14742 2.06115 6.04741 2.12115 5.98741 2.11115L5.04742 2.01115C4.17742 1.93115 3.37742 2.50115 3.19742 3.35115L2.99742 4.27115C2.98742 4.33115 2.94742 4.38115 2.89742 4.41115L2.08742 4.88115C1.34742 5.33115 1.03742 6.26115 1.39742 7.06115L1.77742 7.92115C1.79742 7.97115 1.79742 8.04115 1.77742 8.09115L1.39742 8.95115C1.03742 9.75115 1.34742 10.6811 2.10742 11.1211L2.91742 11.5911C2.96742 11.6211 3.00742 11.6711 3.01742 11.7311L3.21742 12.6511C3.39742 13.5111 4.19742 14.0811 5.06742 13.9911L5.99742 13.8911C6.05742 13.8911 6.11741 13.9011 6.15741 13.9411L6.85742 14.5711C7.18742 14.8611 7.59741 15.0111 7.99742 15.0111C8.39742 15.0111 8.81741 14.8611 9.13741 14.5711L9.83742 13.9411C9.83742 13.9411 9.93742 13.8811 9.99742 13.8911L10.9374 13.9911C11.8074 14.0711 12.6074 13.5011 12.7874 12.6511L12.9874 11.7311C12.9974 11.6711 13.0374 11.6211 13.0874 11.5911L13.8974 11.1211C14.6574 10.6811 14.9574 9.75115 14.6074 8.95115L14.5974 8.94115ZM11.3174 6.74115L8.06742 10.4811C7.91742 10.6511 7.70742 10.7411 7.49742 10.7411C7.33742 10.7411 7.17741 10.6911 7.03742 10.5811L4.78742 8.83115C4.45742 8.58115 4.39742 8.11115 4.65742 7.78115C4.90742 7.46115 5.37742 7.39115 5.70742 7.65115L7.39742 8.96115L10.1774 5.75115C10.4474 5.44115 10.9274 5.40115 11.2374 5.67115C11.5474 5.94115 11.5874 6.41115 11.3174 6.73115V6.74115Z" fill="currentColor"/>
</svg>
