<svg viewBox="0 0 16 16" fill="none" xmlns="http://www.w3.org/2000/svg">
<path d="M14.69 4.64C14.49 4.5 14.24 4.46 14.01 4.54L11.25 5.46V5.25C11.25 4.01 10.24 3 9 3H3.25C2.01 3 1 4.01 1 5.25V10.75C1 11.99 2.01 13 3.25 13H9C10.24 13 11.25 11.99 11.25 10.75V10.54L14.01 11.46C14.09 11.49 14.17 11.5 14.25 11.5C14.41 11.5 14.56 11.45 14.69 11.36C14.89 11.22 15 10.99 15 10.75V5.25C15 5.01 14.88 4.78 14.69 4.64ZM9.75 10.75C9.75 11.16 9.41 11.5 9 11.5H3.25C2.84 11.5 2.5 11.16 2.5 10.75V5.25C2.5 4.84 2.84 4.5 3.25 4.5H9C9.41 4.5 9.75 4.84 9.75 5.25V10.75ZM13.5 9.71L11.25 8.96V7.04L13.5 6.29V9.71Z" fill="currentColor"/>
</svg>
