<svg viewBox="0 0 16 16" fill="none" xmlns="http://www.w3.org/2000/svg">
<path d="M12.82 15H3.17998C2.41998 15 1.72998 14.61 1.32998 13.97C0.929981 13.32 0.889981 12.53 1.22998 11.85L6.04998 2.2C6.41998 1.46 7.16998 1 7.99998 1C8.82998 1 9.57998 1.46 9.94998 2.2L14.77 11.85C15.11 12.53 15.07 13.32 14.67 13.97C14.27 14.62 13.58 15 12.82 15ZM7.99998 2.5C7.86998 2.5 7.55998 2.54 7.39998 2.87L2.56998 12.52C2.41998 12.82 2.53998 13.08 2.59998 13.18C2.65998 13.28 2.82998 13.5 3.17998 13.5H12.82C13.16 13.5 13.34 13.28 13.4 13.18C13.46 13.08 13.58 12.83 13.43 12.52L8.59998 2.87C8.42998 2.53 8.11998 2.5 7.99998 2.5Z" fill="currentColor"/>
<path d="M8 9.5C7.59 9.5 7.25 9.16 7.25 8.75V5.75C7.25 5.34 7.59 5 8 5C8.41 5 8.75 5.34 8.75 5.75V8.75C8.75 9.16 8.41 9.5 8 9.5Z" fill="currentColor"/>
<path d="M8 12.25C8.55228 12.25 9 11.8023 9 11.25C9 10.6977 8.55228 10.25 8 10.25C7.44772 10.25 7 10.6977 7 11.25C7 11.8023 7.44772 12.25 8 12.25Z" fill="currentColor"/>
</svg>
