<svg viewBox="0 0 16 16" fill="none" xmlns="http://www.w3.org/2000/svg">
  <path
    fill-rule="evenodd"
    clip-rule="evenodd"
    d="M7.91987 1H8.09337C8.26171 0.999694 8.42732 1.05194 8.57448 1.15177C8.72163 1.25161 8.84545 1.39572 8.93417 1.57043L14.8465 13.1501C14.9464 13.3426 14.9997 13.5659 15 13.7938C15 14.1137 14.8959 14.4205 14.7107 14.6466C14.5255 14.8728 14.2743 14.9999 14.0123 14.9999H2.00089C1.87008 15.0021 1.74022 14.9724 1.61885 14.9128C1.49749 14.8532 1.38703 14.7647 1.29391 14.6525C1.20078 14.5403 1.12684 14.4066 1.07637 14.2592C1.02591 14.1118 0.999927 13.9536 0.999939 13.7938C1.00024 13.5659 1.05346 13.3426 1.15342 13.1501L7.07907 1.57043C7.16779 1.39572 7.2916 1.25161 7.43876 1.15177C7.58592 1.05194 7.75153 0.999694 7.91987 1ZM7.99994 10.1C7.61334 10.1 7.29994 9.7866 7.29994 9.4V5.9C7.29994 5.5134 7.61334 5.2 7.99994 5.2C8.38654 5.2 8.69994 5.5134 8.69994 5.9V9.4C8.69994 9.7866 8.38654 10.1 7.99994 10.1ZM7.99994 10.8C7.61334 10.8 7.29994 11.1134 7.29994 11.5C7.29994 11.8866 7.61334 12.2 7.99994 12.2C8.38654 12.2 8.69994 11.8866 8.69994 11.5C8.69994 11.1134 8.38654 10.8 7.99994 10.8Z"
    fill="currentColor"
  />
</svg>
