<svg width="774" height="142" viewBox="0 0 774 142" fill="none" xmlns="http://www.w3.org/2000/svg">
<rect x="417.387" y="4.29346" width="5" height="135" fill="#212124"/>
<g clip-path="url(#clip0_9755_6738)">
<path d="M186.328 80.8492C187.023 80.8492 187.609 80.3274 187.709 79.6239C188.007 77.5554 188.153 75.9062 188.153 73.7538C188.153 68.0654 187.119 63.1503 185.079 58.2213C183.048 53.3015 180.788 49.1691 177.233 45.4421C173.679 41.715 169.9 38.7473 165.092 36.6089C160.284 34.4752 155.952 33.3896 150.412 33.3896C144.872 33.3896 139.625 34.4752 134.817 36.6089C130.013 38.7473 125.773 41.715 122.218 45.4421C118.668 49.1598 115.717 53.2922 113.677 58.2213C111.641 63.1456 110.607 68.5313 110.607 74.2197C110.607 79.9081 111.641 84.3946 113.677 89.3749C115.717 94.3552 118.549 98.7438 122.099 102.406C125.649 106.072 129.885 109.017 134.698 111.155C139.506 113.289 144.753 114.374 150.293 114.374C155.833 114.374 161.995 113.289 166.803 111.155C171.615 109.017 175.852 106.072 179.402 102.406C180.884 100.878 182.238 99.2237 183.464 97.4533C183.917 96.8011 183.757 95.8973 183.103 95.45L171.423 87.4787C170.774 87.0362 169.905 87.2318 169.475 87.898C168.743 89.0441 167.91 90.1017 166.99 91.0707C165.097 93.06 162.805 94.6394 160.17 95.7761C157.535 96.9082 153.706 97.4813 150.595 97.4813H150.233C147.127 97.4813 144.213 96.9082 141.578 95.7761C138.943 94.6394 136.647 93.06 134.757 91.0707C132.859 89.0767 131.344 86.6867 130.26 83.9753C129.867 82.9876 129.537 81.9394 129.286 80.8492H186.332H186.328ZM130.256 62.7496C131.34 60.0335 132.854 57.6482 134.753 55.6496C136.642 53.6649 138.938 52.0809 141.574 50.9488C144.209 49.8167 147.123 49.2437 150.229 49.2437H149.675C152.786 49.2437 155.7 49.8167 158.335 50.9488C160.97 52.0809 163.262 53.6649 165.156 55.6496C167.055 57.6482 168.569 60.0335 169.653 62.7496C170.046 63.7373 170.371 64.7856 170.627 65.8757H129.281C129.533 64.7856 129.862 63.7373 130.256 62.7496Z" fill="#212124"/>
<path d="M214.083 3.52637H199.59C198.822 3.52637 198.199 4.16046 198.199 4.94265V109.911C198.199 110.693 198.822 111.327 199.59 111.327H214.083C214.851 111.327 215.473 110.693 215.473 109.911V4.94265C215.473 4.16046 214.851 3.52637 214.083 3.52637Z" fill="#212124"/>
<path d="M239.586 12.0145C239.353 11.7443 239.083 11.4974 238.772 11.3297C237.436 10.5936 235.904 10.943 234.998 11.9866L226.009 22.3618C225.199 23.2936 225.121 24.6446 225.88 25.7069C226.37 26.3964 227.189 26.7551 228.026 26.7551H246.54C247.381 26.7551 248.205 26.3871 248.694 25.6929C249.44 24.6307 249.358 23.2889 248.553 22.3618L239.591 12.0145H239.586Z" fill="#212124"/>
<path d="M244.526 36.4365H230.033C229.265 36.4365 228.643 37.0706 228.643 37.8528V109.911C228.643 110.693 229.265 111.327 230.033 111.327H244.526C245.294 111.327 245.917 110.693 245.917 109.911V37.8528C245.917 37.0706 245.294 36.4365 244.526 36.4365Z" fill="#212124"/>
<path d="M72.0697 34.582C63.9908 34.582 56.8726 37.8339 50.9026 44.2584C44.9326 37.8386 37.8144 34.582 29.7355 34.582C21.6566 34.582 14.0214 37.8479 8.47233 43.7832C3.01015 49.6347 0 57.4895 0 65.908V109.911C0 110.693 0.622158 111.327 1.39071 111.327H15.7461C16.5146 111.327 17.1368 110.693 17.1368 109.911V65.908C17.1368 62.1018 18.3811 58.5983 20.6364 56.0406C22.9329 53.4363 26.1672 51.9968 29.7355 51.9968C33.3037 51.9968 36.5335 53.4317 38.8345 56.0406C41.0899 58.5983 42.3342 62.1018 42.3342 65.908V109.911C42.3342 110.693 42.9563 111.327 43.7249 111.327H58.0848C58.8534 111.327 59.4755 110.693 59.4755 109.911V65.908C59.4755 62.1064 60.7199 58.5983 62.9752 56.0406C65.2763 53.4363 68.506 51.9968 72.0742 51.9968C75.6425 51.9968 78.8722 53.4317 81.1733 56.0406C83.4286 58.5983 84.6729 62.1018 84.6729 65.908V109.911C84.6729 110.693 85.2951 111.327 86.0637 111.327H100.419C101.188 111.327 101.81 110.693 101.81 109.911V65.908C101.81 57.4895 98.7996 49.6347 93.3374 43.7832C87.7929 37.8479 80.2401 34.582 72.0742 34.582H72.0697Z" fill="#212124"/>
<path d="M304.77 123.468H286.257C285.424 123.468 284.601 123.832 284.111 124.516C283.356 125.579 283.429 126.93 284.239 127.862L293.201 138.209C293.434 138.479 293.704 138.726 294.015 138.894C295.351 139.63 296.884 139.28 297.789 138.237L306.779 127.862C307.584 126.934 307.666 125.593 306.92 124.53C306.431 123.832 305.607 123.468 304.766 123.468H304.77Z" fill="#212124"/>
<path d="M331.972 58.1094C329.968 53.2596 327.173 48.9362 323.669 45.265C320.164 41.5939 315.988 38.6635 311.253 36.5623C306.513 34.4565 301.339 33.3896 295.882 33.3896C290.424 33.3896 285.246 34.4565 280.511 36.5623C275.776 38.6681 271.595 41.5939 268.091 45.265C264.591 48.9315 261.8 53.2503 259.788 58.1094C257.779 62.9639 256.764 68.2704 256.764 73.8796C256.764 79.4888 257.779 84.8279 259.788 89.7336C261.796 94.644 264.591 98.9674 268.091 102.583C271.59 106.198 275.767 109.096 280.506 111.202C285.246 113.307 290.42 114.374 295.877 114.374C301.335 114.374 306.509 113.307 311.248 111.202C315.988 109.096 320.169 106.193 323.669 102.583C327.173 98.9628 329.963 94.6394 331.972 89.7336C333.98 84.8232 334.995 79.4888 334.995 73.8796C334.995 68.2704 333.975 62.9686 331.967 58.1094H331.972ZM274.77 73.8796C274.77 70.4833 275.273 67.306 276.261 64.4361C277.249 61.5663 278.658 59.0831 280.461 57.0565C282.258 55.0299 284.486 53.4087 287.089 52.2346C289.692 51.0606 292.652 50.4596 295.882 50.4596C299.112 50.4596 302.067 51.056 304.674 52.2346C307.282 53.4133 309.51 55.0346 311.308 57.0565C313.106 59.0785 314.515 61.5616 315.507 64.4361C316.495 67.3153 316.999 70.4926 316.999 73.8796C316.999 77.2666 316.5 80.4486 315.507 83.3231C314.515 86.1976 313.101 88.6807 311.308 90.7027C309.514 92.7293 307.282 94.3505 304.674 95.5246C302.076 96.6986 299.116 97.2996 295.882 97.2996C292.648 97.2996 289.688 96.7032 287.089 95.5246C284.486 94.3505 282.254 92.7246 280.461 90.7027C278.663 88.6761 277.249 86.1976 276.266 83.3231C275.277 80.4579 274.774 77.2805 274.774 73.8796H274.77Z" fill="#212124"/>
</g>
<path d="M694.377 35.561C687.68 35.561 680.542 41.0125 676.892 52.8799V42.6935C676.892 38.7606 673.84 35.561 670.089 35.561C666.339 35.561 663.287 38.7606 663.287 42.6935L663.287 104.118C663.287 108.051 666.339 111.25 670.089 111.25C673.84 111.25 676.892 108.051 676.892 104.118V75.267C676.892 61.3909 684.364 53.1605 695.839 50.463C699.507 49.6009 701.785 46.6985 701.785 42.8881C701.785 38.574 698.738 35.561 694.377 35.561Z" fill="#212124"/>
<path d="M737.578 35.561C717.677 35.561 701.486 52.5381 701.486 73.4055C701.486 94.2729 717.677 111.25 737.578 111.25C757.479 111.25 773.669 94.2732 773.669 73.4055C773.669 52.5378 757.479 35.561 737.578 35.561ZM737.578 96.9905C725.175 96.9905 715.085 86.4102 715.085 73.4055C715.085 60.4008 725.175 49.8206 737.578 49.8206C749.98 49.8206 760.07 60.4007 760.07 73.4055C760.07 86.4103 749.98 96.9905 737.578 96.9905Z" fill="#212124"/>
<path d="M737.57 63.9561C732.613 63.9561 728.58 68.1845 728.58 73.3822C728.58 78.58 732.613 82.8084 737.57 82.8084C742.527 82.8084 746.559 78.58 746.559 73.3822C746.559 68.1845 742.527 63.9561 737.57 63.9561Z" fill="#212124"/>
<path d="M616.73 35.561C596.82 35.561 580.623 52.5381 580.623 73.4055C580.623 94.4618 596.341 111.25 618.083 111.25C628.695 111.25 637.455 107.867 644.864 100.907C645.664 100.067 647.029 98.2489 647.029 95.6501C647.029 91.7164 644.237 88.75 640.535 88.75C638.626 88.75 637.548 89.3243 636.332 90.3166C630.981 94.9371 625.102 97.1861 618.367 97.1861C606.879 97.1861 597.493 90.0996 594.923 79.4177L644.806 79.4179C649.405 79.3994 652.739 75.5108 652.739 70.1581C652.739 57.2143 640.637 35.561 616.73 35.561ZM594.903 67.3727C597.318 56.9267 605.936 49.4736 616.73 49.4736C627.367 49.4736 636.062 56.1361 638.535 67.3727H594.903Z" fill="#212124"/>
<path d="M578.735 42.6059C578.735 38.7074 575.721 35.561 572.017 35.561C570.222 35.561 568.535 36.2939 567.266 37.6245L542.644 63.442L518.021 37.6245C516.753 36.2939 515.065 35.561 513.271 35.561C509.566 35.561 506.553 38.7074 506.553 42.6059C506.553 44.4876 507.251 46.2567 508.52 47.5871L533.143 73.4046L508.52 99.2219C507.252 100.552 506.553 102.322 506.553 104.203C506.553 108.1 509.558 111.248 513.271 111.248C515.065 111.248 516.753 110.515 518.022 109.185L542.644 83.3672L567.266 109.185C568.535 110.515 570.222 111.248 572.017 111.248C575.729 111.248 578.735 108.1 578.735 104.203C578.735 102.322 578.036 100.552 576.767 99.2219L552.145 73.4045L576.767 47.587C578.036 46.2566 578.735 44.4877 578.735 42.6059Z" fill="#212124"/>
<defs>
<clipPath id="clip0_9755_6738">
<rect width="335" height="141.053" fill="white"/>
</clipPath>
</defs>
</svg>
