<svg width="194" height="80" viewBox="0 0 194 80" fill="none" xmlns="http://www.w3.org/2000/svg">
<g clip-path="url(#clip0_22_746)">
<path d="M107.903 45.8546C108.306 45.8546 108.645 45.5587 108.703 45.1597C108.875 43.9865 108.96 43.0511 108.96 41.8304C108.96 38.6041 108.361 35.8164 107.18 33.0209C106.003 30.2306 104.695 27.8868 102.636 25.773C100.578 23.6591 98.3895 21.9759 95.6052 20.7631C92.8209 19.5529 90.312 18.9373 87.1038 18.9373C83.8956 18.9373 80.857 19.5529 78.0726 20.7631C75.2909 21.9759 72.8351 23.6591 70.7767 25.773C68.7209 27.8815 67.0121 30.2253 65.8306 33.0209C64.6517 35.8138 64.0529 38.8683 64.0529 42.0946C64.0529 45.3209 64.6517 47.8654 65.8306 50.6901C67.0121 53.5147 68.652 56.0038 70.7078 58.0807C72.7636 60.1602 75.2168 61.8301 78.0037 63.043C80.7881 64.2531 83.8267 64.8688 87.0349 64.8688C90.2432 64.8688 93.8117 64.2531 96.596 63.043C99.383 61.8301 101.836 60.1602 103.892 58.0807C104.75 57.214 105.534 56.276 106.244 55.2719C106.507 54.902 106.414 54.3893 106.035 54.1357L99.2717 49.6147C98.8955 49.3636 98.3922 49.4746 98.1431 49.8525C97.7193 50.5025 97.2371 51.1023 96.7046 51.6519C95.6078 52.7802 94.2806 53.6759 92.7546 54.3206C91.2287 54.9627 89.0113 55.2877 87.2098 55.2877H87.0005C85.2017 55.2877 83.5141 54.9627 81.9882 54.3206C80.4622 53.6759 79.1323 52.7802 78.0382 51.6519C76.9388 50.521 76.0619 49.1655 75.434 47.6276C75.2062 47.0675 75.0154 46.4729 74.8697 45.8546H107.906H107.903ZM75.4314 35.5892C76.0592 34.0487 76.9361 32.6958 78.0355 31.5623C79.1297 30.4367 80.4596 29.5383 81.9855 28.8962C83.5115 28.2541 85.199 27.9291 86.9979 27.9291H86.6773C88.4788 27.9291 90.1663 28.2541 91.6923 28.8962C93.2182 29.5383 94.5455 30.4367 95.6423 31.5623C96.7417 32.6958 97.6186 34.0487 98.2465 35.5892C98.4743 36.1494 98.6624 36.7439 98.8108 37.3622H74.8671C75.0128 36.7439 75.2035 36.1494 75.4314 35.5892Z" fill="#212124"/>
<path d="M123.976 2H115.583C115.138 2 114.778 2.35963 114.778 2.80327V62.3375C114.778 62.7811 115.138 63.1408 115.583 63.1408H123.976C124.421 63.1408 124.781 62.7811 124.781 62.3375V2.80327C124.781 2.35963 124.421 2 123.976 2Z" fill="#212124"/>
<path d="M138.745 6.81429C138.61 6.66103 138.454 6.52099 138.273 6.42586C137.5 6.00838 136.612 6.20655 136.088 6.79843L130.882 12.6829C130.413 13.2114 130.368 13.9776 130.808 14.5801C131.091 14.9711 131.566 15.1746 132.05 15.1746H142.772C143.259 15.1746 143.736 14.9659 144.02 14.5722C144.451 13.9697 144.404 13.2087 143.937 12.6829L138.748 6.81429H138.745Z" fill="#212124"/>
<path d="M141.606 20.6654H133.214C132.769 20.6654 132.408 21.025 132.408 21.4687V62.3375C132.408 62.7812 132.769 63.1408 133.214 63.1408H141.606C142.051 63.1408 142.412 62.7812 142.412 62.3375V21.4687C142.412 21.025 142.051 20.6654 141.606 20.6654Z" fill="#212124"/>
<path d="M41.7359 19.6138C37.0573 19.6138 32.9351 21.4581 29.4779 25.1019C26.0207 21.4608 21.8985 19.6138 17.22 19.6138C12.5414 19.6138 8.11987 21.466 4.90636 24.8324C1.74319 28.1511 0 32.6061 0 37.3808V62.3375C0 62.7814 0.360294 63.1408 0.805364 63.1408H9.11863C9.5637 63.1408 9.92399 62.7814 9.92399 62.3375V37.3808C9.92399 35.222 10.6446 33.235 11.9506 31.7843C13.2806 30.3073 15.1536 29.4908 17.22 29.4908C19.2863 29.4908 21.1567 30.3046 22.4893 31.7843C23.7953 33.235 24.5159 35.222 24.5159 37.3808V62.3375C24.5159 62.7814 24.8762 63.1408 25.3213 63.1408H33.6372C34.0823 63.1408 34.4426 62.7814 34.4426 62.3375V37.3808C34.4426 35.2246 35.1631 33.235 36.4692 31.7843C37.8018 30.3073 39.6721 29.4908 41.7385 29.4908C43.8049 29.4908 45.6753 30.3046 47.0078 31.7843C48.3139 33.235 49.0345 35.222 49.0345 37.3808V62.3375C49.0345 62.7814 49.3948 63.1408 49.8398 63.1408H58.1531C58.5982 63.1408 58.9585 62.7814 58.9585 62.3375V37.3808C58.9585 32.6061 57.2153 28.1511 54.0521 24.8324C50.8412 21.466 46.4674 19.6138 41.7385 19.6138H41.7359Z" fill="#212124"/>
<path d="M176.494 70.0266H165.773C165.29 70.0266 164.814 70.2327 164.53 70.6211C164.093 71.2236 164.135 71.9899 164.604 72.5183L169.794 78.3869C169.929 78.5402 170.085 78.6802 170.266 78.7753C171.039 79.1928 171.927 78.9947 172.451 78.4028L177.657 72.5183C178.123 71.9925 178.171 71.2315 177.739 70.6291C177.456 70.2327 176.979 70.0266 176.491 70.0266H176.494Z" fill="#212124"/>
<path d="M192.246 32.9574C191.086 30.2068 189.467 27.7547 187.438 25.6725C185.409 23.5904 182.99 21.9284 180.248 20.7367C177.503 19.5423 174.507 18.9373 171.347 18.9373C168.186 18.9373 165.187 19.5423 162.445 20.7367C159.703 21.931 157.282 23.5904 155.252 25.6725C153.226 27.7521 151.61 30.2015 150.444 32.9574C149.281 35.7107 148.693 38.7203 148.693 41.9017C148.693 45.0831 149.281 48.1112 150.444 50.8935C151.607 53.6786 153.226 56.1306 155.252 58.1811C157.279 60.2315 159.698 61.875 162.442 63.0694C165.187 64.2637 168.183 64.8688 171.344 64.8688C174.504 64.8688 177.501 64.2637 180.245 63.0694C182.99 61.875 185.411 60.2289 187.438 58.1811C189.467 56.128 191.083 53.6759 192.246 50.8935C193.409 48.1085 193.997 45.0831 193.997 41.9017C193.997 38.7203 193.407 35.7134 192.244 32.9574H192.246ZM159.12 41.9017C159.12 39.9755 159.412 38.1734 159.984 36.5457C160.556 34.918 161.372 33.5097 162.416 32.3603C163.457 31.2109 164.747 30.2913 166.255 29.6255C167.762 28.9596 169.476 28.6187 171.347 28.6187C173.217 28.6187 174.928 28.957 176.438 29.6255C177.948 30.294 179.239 31.2135 180.28 32.3603C181.321 33.507 182.137 34.9154 182.712 36.5457C183.284 38.1787 183.575 39.9807 183.575 41.9017C183.575 43.8227 183.287 45.6274 182.712 47.2577C182.137 48.888 181.318 50.2964 180.28 51.4431C179.241 52.5926 177.948 53.5121 176.438 54.1779C174.934 54.8438 173.22 55.1847 171.347 55.1847C169.474 55.1847 167.759 54.8465 166.255 54.1779C164.747 53.5121 163.454 52.5899 162.416 51.4431C161.375 50.2937 160.556 48.888 159.987 47.2577C159.414 45.6327 159.123 43.8306 159.123 41.9017H159.12Z" fill="#212124"/>
</g>
<defs>
<clipPath id="clip0_22_746">
<rect width="194" height="80" fill="white"/>
</clipPath>
</defs>
</svg>
