<svg viewBox="0 0 24 24" fill="none" xmlns="http://www.w3.org/2000/svg">
<path d="M22.93 8.65257C22.93 8.65257 22.91 8.59257 22.89 8.56257C22.85 8.48257 22.8 8.40257 22.74 8.33257C22.72 8.31257 22.71 8.29257 22.7 8.28257C22.63 8.21257 22.55 8.15257 22.46 8.10257L12.45 3.11257C12.17 2.97257 11.84 2.97257 11.56 3.11257L1.55 8.11257C1.21 8.28257 1 8.63257 1 9.00257C1 9.37257 1.21 9.72257 1.55 9.89257L4 11.1126V15.4926C4 17.9826 7.57 20.9926 12 20.9926C16.43 20.9926 20 17.9826 20 15.4926V11.1126L21 10.6126V13.9926C21 14.5426 21.45 14.9926 22 14.9926C22.55 14.9926 23 14.5426 23 13.9926V8.99257C23 8.87257 22.97 8.75257 22.93 8.64257V8.65257ZM12 5.12257L19.76 9.00257L12 12.8826L4.24 9.00257L12 5.12257ZM18 15.5026C18 16.7026 15.47 19.0026 12 19.0026C8.53 19.0026 6 16.7026 6 15.5026V12.1226L11.55 14.9026C11.69 14.9726 11.84 15.0126 12 15.0126C12.16 15.0126 12.31 14.9726 12.45 14.9026L18 12.1226V15.5026Z" fill="currentColor"/>
</svg>
