<svg viewBox="0 0 24 24" xmlns="http://www.w3.org/2000/svg">
<path d="M19.78 4.22C17.7 2.14 14.94 1 12 1C9.06 1 6.3 2.14 4.22 4.22C-0.0699975 8.51 -0.0699975 15.49 4.22 19.78C6.3 21.86 9.06 23 12 23C14.94 23 17.7 21.86 19.78 19.78C24.07 15.49 24.07 8.51 19.78 4.22ZM18.37 18.36C16.67 20.06 14.41 21 12 21C9.59 21 7.33 20.06 5.63 18.36C2.12 14.85 2.12 9.14 5.63 5.63C7.33 3.93 9.59 2.99 12 2.99C14.41 2.99 16.67 3.93 18.37 5.63C21.88 9.14 21.88 14.85 18.37 18.36Z" fill="currentColor"/>
<path d="M16 11H13V8C13 7.45 12.55 7 12 7C11.45 7 11 7.45 11 8V11H8C7.45 11 7 11.45 7 12C7 12.55 7.45 13 8 13H11V16C11 16.55 11.45 17 12 17C12.55 17 13 16.55 13 16V13H16C16.55 13 17 12.55 17 12C17 11.45 16.55 11 16 11Z" fill="currentColor"/>
</svg>
