<svg viewBox="0 0 25 25" fill="none" xmlns="http://www.w3.org/2000/svg">
<path d="M11.8881 7.53363C11.8881 8.08363 12.3381 8.53363 12.8881 8.53363H16.8881C17.4381 8.53363 17.8881 8.08363 17.8881 7.53363C17.8881 6.98363 17.4381 6.53363 16.8881 6.53363H12.8881C12.3381 6.53363 11.8881 6.98363 11.8881 7.53363Z" fill="currentColor"/>
<path d="M17.8881 10.5336H12.8881C12.3381 10.5336 11.8881 10.9836 11.8881 11.5336C11.8881 12.0836 12.3381 12.5336 12.8881 12.5336H17.8881C18.4381 12.5336 18.8881 12.0836 18.8881 11.5336C18.8881 10.9836 18.4381 10.5336 17.8881 10.5336Z" fill="currentColor"/>
<path d="M17.8881 14.5336H12.8881C12.3381 14.5336 11.8881 14.9836 11.8881 15.5336C11.8881 16.0836 12.3381 16.5336 12.8881 16.5336H17.8881C18.4381 16.5336 18.8881 16.0836 18.8881 15.5336C18.8881 14.9836 18.4381 14.5336 17.8881 14.5336Z" fill="currentColor"/>
<path d="M8.88808 6.53363H7.88808C7.33808 6.53363 6.88808 6.98363 6.88808 7.53363C6.88808 8.08363 7.33808 8.53363 7.88808 8.53363H8.88808C9.43808 8.53363 9.88808 8.08363 9.88808 7.53363C9.88808 6.98363 9.43808 6.53363 8.88808 6.53363Z" fill="currentColor"/>
<path d="M8.88808 10.5336H7.88808C7.33808 10.5336 6.88808 10.9836 6.88808 11.5336C6.88808 12.0836 7.33808 12.5336 7.88808 12.5336H8.88808C9.43808 12.5336 9.88808 12.0836 9.88808 11.5336C9.88808 10.9836 9.43808 10.5336 8.88808 10.5336Z" fill="currentColor"/>
<path d="M8.88808 14.5336H7.88808C7.33808 14.5336 6.88808 14.9836 6.88808 15.5336C6.88808 16.0836 7.33808 16.5336 7.88808 16.5336H8.88808C9.43808 16.5336 9.88808 16.0836 9.88808 15.5336C9.88808 14.9836 9.43808 14.5336 8.88808 14.5336Z" fill="currentColor"/>
<path d="M21.8881 9.59363C21.3381 9.59363 20.8881 10.0436 20.8881 10.5936V20.8436L17.8781 19.1736C17.5781 19.0036 17.2081 19.0036 16.9081 19.1736L12.8981 21.4036L8.88808 19.1736C8.58808 19.0036 8.21808 19.0036 7.91808 19.1736L4.90808 20.8436V3.53363H15.8581C16.4081 3.53363 16.8581 3.08363 16.8581 2.53363C16.8581 1.98363 16.4081 1.53363 15.8581 1.53363H3.88808C3.33808 1.53363 2.88808 1.98363 2.88808 2.53363V22.5336C2.88808 22.8836 3.07808 23.2136 3.37808 23.3936C3.68808 23.5736 4.05808 23.5736 4.36808 23.4036L8.37808 21.1736L12.3881 23.4036C12.5381 23.4836 12.7081 23.5336 12.8781 23.5336C13.0481 23.5336 13.2081 23.4936 13.3681 23.4036L17.3781 21.1736L21.3881 23.4036C21.6981 23.5736 22.0781 23.5736 22.3781 23.3936C22.6781 23.2136 22.8681 22.8836 22.8681 22.5336V10.5936C22.8681 10.0436 22.4181 9.59363 21.8681 9.59363H21.8881Z" fill="currentColor"/>
<path d="M22.8881 3.53363H21.8881V2.53363C21.8881 1.98363 21.4381 1.53363 20.8881 1.53363C20.3381 1.53363 19.8881 1.98363 19.8881 2.53363V3.53363H18.8881C18.3381 3.53363 17.8881 3.98363 17.8881 4.53363C17.8881 5.08363 18.3381 5.53363 18.8881 5.53363H19.8881V6.53363C19.8881 7.08363 20.3381 7.53363 20.8881 7.53363C21.4381 7.53363 21.8881 7.08363 21.8881 6.53363V5.53363H22.8881C23.4381 5.53363 23.8881 5.08363 23.8881 4.53363C23.8881 3.98363 23.4381 3.53363 22.8881 3.53363Z" fill="currentColor"/>
</svg>
