<svg viewBox="0 0 24 24" fill="none" xmlns="http://www.w3.org/2000/svg">
<path
  fill-rule="evenodd"
  clip-rule="evenodd"
  d="M4.5 4C4.22386 4 4 4.22386 4 4.5V19C4 19.163 4.09516 19.4227 4.33424 19.6632C4.5725 19.9029 4.83077 20 5 20C5.17393 20 5.43238 19.9026 5.66757 19.6672C5.90289 19.4317 6 19.173 6 19C6 17.7448 7.01754 16.7273 8.27273 16.7273H18V10C18 9.44772 18.4477 9 19 9C19.5523 9 20 9.44772 20 10V16.7773C21.1411 17.0089 22 18.0178 22 19.2273V19.5273C22 20.9329 20.8137 22 19.4571 22H5C4.16923 22 3.4275 21.588 2.91576 21.0731C2.40484 20.5591 2 19.8188 2 19V4.5C2 3.11929 3.11929 2 4.5 2H14C14.5523 2 15 2.44772 15 3C15 3.55228 14.5523 4 14 4H4.5ZM7.80204 20H19.4571C19.7978 20 20 19.7417 20 19.5273V19.2273C20 18.9511 19.7761 18.7273 19.5 18.7273H8.27273C8.1221 18.7273 8 18.8494 8 19C8 19.3522 7.92644 19.6893 7.80204 20Z"
  fill="currentColor"
/>
<path
  d="M16 5C16 4.44772 16.4477 4 17 4H18V3C18 2.44772 18.4477 2 19 2C19.5523 2 20 2.44772 20 3V4H21C21.5523 4 22 4.44772 22 5C22 5.55228 21.5523 6 21 6H20V7.00011C20 7.55239 19.5523 8.00011 19 8.00011C18.4477 8.00011 18 7.55239 18 7.00011V6H17C16.4477 6 16 5.55228 16 5Z"
  fill="currentColor"
/>
<path
  d="M10 10.5C10 9.94772 10.4477 9.5 11 9.5H15C15.5523 9.5 16 9.94772 16 10.5C16 11.0523 15.5523 11.5 15 11.5H11C10.4477 11.5 10 11.0523 10 10.5Z"
  fill="currentColor"
/>
<path
  d="M11 6C10.4477 6 10 6.44772 10 7C10 7.55228 10.4477 8 11 8H15C15.5523 8 16 7.55228 16 7C16 6.44772 15.5523 6 15 6H11Z"
  fill="currentColor"
/>
<path
  d="M10 14C10 13.4477 10.4477 13 11 13H15C15.5523 13 16 13.4477 16 14C16 14.5523 15.5523 15 15 15H11C10.4477 15 10 14.5523 10 14Z"
  fill="currentColor"
/>
<path
  d="M7 9.5C6.44772 9.5 6 9.94772 6 10.5C6 11.0523 6.44772 11.5 7 11.5H8C8.55228 11.5 9 11.0523 9 10.5C9 9.94772 8.55228 9.5 8 9.5H7Z"
  fill="currentColor"
/>
<path
  d="M6 7C6 6.44772 6.44772 6 7 6H8C8.55228 6 9 6.44772 9 7C9 7.55228 8.55228 8 8 8H7C6.44772 8 6 7.55228 6 7Z"
  fill="currentColor"
/>
<path
  d="M7 13C6.44772 13 6 13.4477 6 14C6 14.5523 6.44772 15 7 15H8C8.55228 15 9 14.5523 9 14C9 13.4477 8.55228 13 8 13H7Z"
  fill="currentColor"
/>
</svg>
