<svg viewBox="0 0 24 24" fill="none" xmlns="http://www.w3.org/2000/svg">
<path d="M19.7675 4.22C17.6875 2.14 14.9275 1 11.9875 1C9.0475 1 6.2875 2.14 4.2175 4.22C-0.0725 8.51 -0.0725 15.49 4.2175 19.78C6.2975 21.86 9.0575 23 11.9975 23C14.9375 23 17.6975 21.86 19.7775 19.78C24.0675 15.49 24.0675 8.51 19.7775 4.22H19.7675ZM15.9875 13H12.9875V16C12.9875 16.55 12.5375 17 11.9875 17C11.4375 17 10.9875 16.55 10.9875 16V13H7.9875C7.4375 13 6.9875 12.55 6.9875 12C6.9875 11.45 7.4375 11 7.9875 11H10.9875V8C10.9875 7.45 11.4375 7 11.9875 7C12.5375 7 12.9875 7.45 12.9875 8V11H15.9875C16.5375 11 16.9875 11.45 16.9875 12C16.9875 12.55 16.5375 13 15.9875 13Z" fill="currentColor"/>
</svg>
