<svg viewBox="0 0 24 24" fill="none" xmlns="http://www.w3.org/2000/svg">
<path d="M22.7075 21.2992L18.748 17.3174C20.1578 15.5966 21.0077 13.3956 21.0077 10.9945C20.9977 5.49204 16.5082 1 10.9989 1C5.48949 1 1 5.49204 1 11.0045C1 16.5171 5.48949 21.0091 10.9989 21.0091C13.3986 21.0091 15.6083 20.1587 17.3281 18.7381L21.2877 22.7099C21.4877 22.91 21.7376 23 21.9976 23C22.2576 23 22.5076 22.9 22.7075 22.7099C23.0975 22.3197 23.0975 21.6894 22.7075 21.2992ZM2.99977 11.0045C2.99977 6.59254 6.58937 3.00091 10.9989 3.00091C15.4084 3.00091 18.998 6.59254 18.998 11.0045C18.998 15.4166 15.4084 19.0082 10.9989 19.0082C6.58937 19.0082 2.99977 15.4166 2.99977 11.0045Z" fill="currentColor"/>
<path d="M13.9985 11.5948H14.4985C15.0484 11.5948 15.4984 11.1446 15.4984 10.5944C15.4984 10.0441 15.0484 9.59391 14.4985 9.59391H13.8185C13.6486 9.11369 13.3586 8.68349 12.9786 8.35334L13.5386 7.61301C13.8685 7.17281 13.7785 6.54252 13.3386 6.21237C12.8986 5.88222 12.2687 5.97226 11.9388 6.41246L11.0489 7.603C11.0489 7.603 11.0189 7.603 11.0089 7.603C10.9989 7.603 10.9789 7.603 10.9689 7.603L10.079 6.41246C9.74901 5.97226 9.11908 5.88222 8.67913 6.21237C8.23918 6.54252 8.14919 7.17281 8.47915 7.61301L9.03909 8.35334C8.65913 8.68349 8.36916 9.11369 8.19918 9.59391H7.51926C6.96932 9.59391 6.51937 10.0441 6.51937 10.5944C6.51937 11.1446 6.96932 11.5948 7.51926 11.5948H8.0192V12.5953H7.51926C6.96932 12.5953 6.51937 13.0455 6.51937 13.5957C6.51937 14.146 6.96932 14.5962 7.51926 14.5962H8.79911C9.34905 15.2065 10.139 15.5966 11.0189 15.5966C11.8988 15.5966 12.6887 15.2065 13.2386 14.5962H14.5185C15.0684 14.5962 15.5184 14.146 15.5184 13.5957C15.5184 13.0455 15.0684 12.5953 14.5185 12.5953H14.0185V11.5948H13.9985ZM10.9989 13.5857C10.4489 13.5857 9.99898 13.1355 9.99898 12.5853V10.5844C9.99898 10.0341 10.4489 9.5839 10.9989 9.5839C11.5488 9.5839 11.9988 10.0341 11.9988 10.5844V12.5853C11.9988 13.1355 11.5488 13.5857 10.9989 13.5857Z" fill="currentColor"/>
</svg>
