<svg viewBox="0 0 24 24" fill="none" xmlns="http://www.w3.org/2000/svg">
<path d="M11.995 3.00318C6.48876 3.00318 2.00182 7.49471 2.00182 13.0066C2.00182 15.6575 3.04111 18.0683 4.73995 19.8589L3.30093 21.2994C2.9112 21.6896 2.9112 22.3198 3.30093 22.7099C3.50079 22.91 3.75062 23 4.01045 23C4.27027 23 4.5201 22.9 4.71996 22.7099L6.25891 21.1694C7.8878 22.3198 9.86645 23 12.005 23C14.1435 23 16.1222 22.3198 17.7511 21.1694L19.29 22.7099C19.4899 22.91 19.7397 23 19.9995 23C20.2594 23 20.5092 22.9 20.7091 22.7099C21.0988 22.3198 21.0988 21.6896 20.7091 21.2994L19.27 19.8589C20.9589 18.0683 22.0082 15.6575 22.0082 13.0066C22.0082 7.49471 17.5212 3.00318 12.015 3.00318H11.995ZM4.00045 13.0066C4.00045 8.59509 7.58801 5.00387 11.995 5.00387C16.402 5.00387 19.9896 8.59509 19.9896 13.0066C19.9896 17.4181 16.402 21.0093 11.995 21.0093C7.58801 21.0093 4.00045 17.4181 4.00045 13.0066Z" fill="currentColor"/>
<path d="M15.4926 12.0063H12.9943V7.50472C12.9943 6.95453 12.5446 6.50438 11.995 6.50438C11.4454 6.50438 10.9957 6.95453 10.9957 7.50472V13.0066C10.9957 13.5568 11.4454 14.0069 11.995 14.0069H15.4926C16.0422 14.0069 16.4919 13.5568 16.4919 13.0066C16.4919 12.4564 16.0422 12.0063 15.4926 12.0063Z" fill="currentColor"/>
<path d="M2.71133 6.71445L6.70861 2.71308C7.09834 2.32295 7.09834 1.69274 6.70861 1.3026C6.31887 0.91247 5.6893 0.91247 5.29957 1.3026L1.2923 5.29396C0.902566 5.6841 0.902566 6.31431 1.2923 6.70444C1.49216 6.90451 1.74199 6.99454 2.00182 6.99454C2.26164 6.99454 2.51147 6.89451 2.71133 6.70444V6.71445Z" fill="currentColor"/>
<path d="M22.6977 5.29396L18.7004 1.2926C18.3107 0.902467 17.6811 0.902467 17.2914 1.2926C16.9017 1.68273 16.9017 2.31295 17.2914 2.70308L21.2887 6.70444C21.4885 6.90451 21.7384 6.99454 21.9982 6.99454C22.258 6.99454 22.5078 6.89451 22.7077 6.70444C23.0974 6.31431 23.0974 5.6841 22.7077 5.29396H22.6977Z" fill="currentColor"/>
</svg>
