<svg viewBox="0 0 24 24" fill="none" xmlns="http://www.w3.org/2000/svg">
<path d="M18.97 9.33C18.63 5.78 15.64 3 12 3C8.36 3 5.37 5.78 5.03 9.33C2.65 10.16 1 12.43 1 15C1 18.31 3.69 21 7 21H17C20.31 21 23 18.31 23 15C23 12.43 21.35 10.16 18.97 9.33ZM17 19H7C4.79 19 3 17.21 3 15C3 13.11 4.35 11.46 6.2 11.08C6.67 10.99 7 10.58 7 10.1V10C7 7.24 9.24 5 12 5C14.76 5 17 7.24 17 10V10.1C17 10.58 17.33 10.99 17.8 11.08C19.65 11.46 21 13.11 21 15C21 17.21 19.21 19 17 19Z" fill="currentColor"/>
<path d="M14.71 11.29C14.32 10.9 13.69 10.9 13.3 11.29C12.91 11.68 12.91 12.31 13.3 12.7L14.59 13.99L13.3 15.28C12.91 15.67 12.91 16.3 13.3 16.69C13.5 16.89 13.75 16.98 14.01 16.98C14.27 16.98 14.52 16.88 14.72 16.69L16.72 14.69C17.11 14.3 17.11 13.67 16.72 13.28L14.72 11.28L14.71 11.29Z" fill="currentColor"/>
<path d="M10.71 11.29C10.32 10.9 9.69 10.9 9.3 11.29L7.3 13.29C6.91 13.68 6.91 14.31 7.3 14.7L9.3 16.7C9.5 16.9 9.75 16.99 10.01 16.99C10.27 16.99 10.52 16.89 10.72 16.7C11.11 16.31 11.11 15.68 10.72 15.29L9.43 14L10.72 12.71C11.11 12.32 11.11 11.69 10.72 11.3L10.71 11.29Z" fill="currentColor"/>
</svg>
