<svg viewBox="0 0 24 24" fill="none" xmlns="http://www.w3.org/2000/svg">
<path d="M15.76 8.31L10.85 13.63L8.14 11.38C7.72 11.03 7.08 11.09 6.73 11.51C6.38 11.93 6.43 12.57 6.86 12.92L10.3 15.78C10.49 15.94 10.71 16.01 10.94 16.01C11.21 16.01 11.48 15.9 11.67 15.69L17.22 9.67C17.6 9.26 17.57 8.63 17.16 8.26C16.75 7.88 16.12 7.91 15.75 8.32L15.76 8.31Z" fill="currentColor"/>
<path d="M18 1H6C3.24 1 1 3.24 1 6V18C1 20.76 3.24 23 6 23H18C20.76 23 23 20.76 23 18V6C23 3.24 20.76 1 18 1ZM21 18C21 19.65 19.65 21 18 21H6C4.35 21 3 19.65 3 18V6C3 4.35 4.35 3 6 3H18C19.65 3 21 4.35 21 6V18Z" fill="currentColor"/>
</svg>
