<svg viewBox="0 0 24 24" fill="none" xmlns="http://www.w3.org/2000/svg">
<path d="M20 1H4C2.35 1 1 2.35 1 4V20C1 21.65 2.35 23 4 23H12C12.55 23 13 22.55 13 22C13 21.45 12.55 21 12 21H4C3.45 21 3 20.55 3 20V9H21V13C21 13.55 21.45 14 22 14C22.55 14 23 13.55 23 13V4C23 2.35 21.65 1 20 1ZM3 7V4C3 3.45 3.45 3 4 3H20C20.55 3 21 3.45 21 4V7H3Z" fill="currentColor"/>
<path d="M6 4H5C4.45 4 4 4.45 4 5C4 5.55 4.45 6 5 6H6C6.55 6 7 5.55 7 5C7 4.45 6.55 4 6 4Z" fill="currentColor"/>
<path d="M10 4H9C8.45 4 8 4.45 8 5C8 5.55 8.45 6 9 6H10C10.55 6 11 5.55 11 5C11 4.45 10.55 4 10 4Z" fill="currentColor"/>
<path d="M21.21 16.7L18.19 20.58L16.38 19.13C15.95 18.79 15.32 18.85 14.97 19.29C14.62 19.72 14.69 20.35 15.13 20.7L17.73 22.78C17.91 22.92 18.13 23 18.35 23C18.39 23 18.43 23 18.47 23C18.74 22.97 18.98 22.83 19.14 22.62L22.78 17.94C23.12 17.5 23.04 16.88 22.6 16.54C22.16 16.2 21.54 16.28 21.2 16.72L21.21 16.7Z" fill="currentColor"/>
</svg>
