<svg viewBox="0 0 24 24" fill="none" xmlns="http://www.w3.org/2000/svg">
<path d="M4.2175 4.2225C-0.0725 8.5125 -0.0725 15.4825 4.2175 19.7725C8.5075 24.0625 15.4875 24.0625 19.7775 19.7725C24.0675 15.4825 24.0675 8.5025 19.7775 4.2125C15.4875 -0.0774956 8.5075 -0.0674956 4.2175 4.2225ZM16.2475 7.7625C16.3375 7.8525 16.4175 7.9625 16.4675 8.0925C16.5175 8.2225 16.5475 8.3425 16.5475 8.4725V12.8125C16.5375 13.0925 16.4175 13.3325 16.2375 13.5125C16.0575 13.6925 15.8075 13.8025 15.5275 13.8025C14.9775 13.8025 14.5275 13.3525 14.5275 12.8025V10.8825L9.1775 16.2425C8.7875 16.6325 8.1575 16.6325 7.7675 16.2425C7.3775 15.8525 7.3775 15.2225 7.7675 14.8325L13.1375 9.4625H11.1975C10.6475 9.4625 10.1975 9.0025 10.1975 8.4525C10.1975 7.9025 10.6475 7.4525 11.1975 7.4525H15.5375C15.5375 7.4525 15.5875 7.4825 15.6075 7.4825C15.7175 7.4825 15.8175 7.5025 15.9175 7.5425C16.0275 7.5825 16.1175 7.6525 16.1975 7.7325C16.2075 7.7425 16.2275 7.7525 16.2375 7.7625H16.2475Z" fill="currentColor"/>
</svg>
