<svg viewBox="0 0 24 24" fill="none" xmlns="http://www.w3.org/2000/svg">
<path d="M4.2175 19.7725C8.5075 24.0625 15.4875 24.0625 19.7775 19.7725C24.0675 15.4825 24.0675 8.5025 19.7775 4.2125C15.4875 -0.0774956 8.5075 -0.0674956 4.2175 4.2225C-0.0725 8.5125 -0.0725 15.4925 4.2175 19.7825V19.7725ZM7.7575 7.7425C7.8475 7.6525 7.9575 7.5725 8.0875 7.5225C8.2175 7.4725 8.3375 7.4425 8.4675 7.4425H12.8075C13.0875 7.4525 13.3275 7.5725 13.5075 7.7525C13.6875 7.9325 13.7975 8.1825 13.7975 8.4625C13.7975 9.0125 13.3475 9.4625 12.7975 9.4625H10.8775L16.2375 14.8125C16.6275 15.2025 16.6275 15.8325 16.2375 16.2225C15.8475 16.6125 15.2175 16.6125 14.8275 16.2225L9.4575 10.8525V12.7925C9.4575 13.3425 8.9975 13.7925 8.4475 13.7925C7.8975 13.7925 7.4475 13.3425 7.4475 12.7925V8.4525C7.4475 8.4525 7.4775 8.4025 7.4775 8.3825C7.4775 8.2725 7.4975 8.1725 7.5375 8.0725C7.5775 7.9625 7.6475 7.8725 7.7275 7.7925C7.7375 7.7825 7.7475 7.7625 7.7575 7.7525V7.7425Z" fill="currentColor"/>
</svg>
