<svg viewBox="0 0 24 24" fill="none" xmlns="http://www.w3.org/2000/svg">
<path d="M19.7675 4.2175C15.4775 -0.0725 8.5075 -0.0725 4.2175 4.2175C-0.0725 8.5075 -0.0725 15.4875 4.2175 19.7775C8.5075 24.0675 15.4875 24.0675 19.7775 19.7775C24.0675 15.4875 24.0675 8.5075 19.7775 4.2175H19.7675ZM16.2275 16.2475C16.1375 16.3375 16.0275 16.4175 15.8975 16.4675C15.7675 16.5175 15.6475 16.5475 15.5175 16.5475H11.1775C10.8975 16.5375 10.6575 16.4175 10.4775 16.2375C10.2975 16.0575 10.1875 15.8075 10.1875 15.5275C10.1875 14.9775 10.6375 14.5275 11.1875 14.5275H13.1075L7.7475 9.1775C7.3575 8.7875 7.3575 8.1575 7.7475 7.7675C8.1375 7.3775 8.7675 7.3775 9.1575 7.7675L14.5275 13.1375V11.1975C14.5275 10.6475 14.9875 10.1975 15.5375 10.1975C16.0875 10.1975 16.5375 10.6475 16.5375 11.1975V15.5375C16.5375 15.5375 16.5075 15.5875 16.5075 15.6075C16.5075 15.7175 16.4875 15.8175 16.4475 15.9175C16.4075 16.0275 16.3375 16.1175 16.2575 16.1975C16.2475 16.2075 16.2375 16.2275 16.2275 16.2375V16.2475Z" fill="currentColor"/>
</svg>
