<svg viewBox="0 0 24 24" fill="none" xmlns="http://www.w3.org/2000/svg">
<path d="M20.9224 12.3918C21.0224 12.1515 21.0224 11.8711 20.9224 11.6307C20.8724 11.5105 20.8024 11.4004 20.7024 11.3002L15.7124 6.29293C15.3224 5.90236 14.6924 5.90236 14.3024 6.29293C13.9124 6.6835 13.9124 7.31442 14.3024 7.70499L17.5924 10.9998H4.00244C3.45244 10.9998 3.00244 11.4504 3.00244 12.0013C3.00244 12.5521 3.45244 13.0027 4.00244 13.0027H17.5924L14.3024 16.2975C13.9124 16.6881 13.9124 17.319 14.3024 17.7096C14.5024 17.9099 14.7524 18 15.0124 18C15.2724 18 15.5224 17.8999 15.7224 17.7096L20.7224 12.7023C20.8124 12.6121 20.8924 12.502 20.9424 12.3718L20.9224 12.3918Z" fill="currentColor"/>
</svg>
