<svg viewBox="0 0 24 24" fill="none" xmlns="http://www.w3.org/2000/svg">
<path d="M19.9908 10.9956H6.41216L9.69942 7.70356C10.0891 7.31332 10.0891 6.68293 9.69942 6.29268C9.30974 5.90244 8.68027 5.90244 8.29059 6.29268L3.29475 11.2858C3.20483 11.3759 3.1249 11.4859 3.07494 11.616C2.97502 11.8562 2.97502 12.1363 3.07494 12.3765C3.1249 12.4966 3.19484 12.6066 3.29475 12.7067L8.29059 17.7098C8.49042 17.9099 8.74022 18 9 18C9.25978 18 9.50958 17.8999 9.70941 17.7098C10.0991 17.3196 10.0991 16.6892 9.70941 16.2989L6.42215 13.0069H20.0008C20.5504 13.0069 21 12.5566 21 12.0063C21 11.4559 20.5504 11.0056 20.0008 11.0056L19.9908 10.9956Z" fill="currentColor"/>
</svg>
