<svg viewBox="0 0 24 24" fill="none" xmlns="http://www.w3.org/2000/svg">
<path d="M7.7575 16.2575C7.7475 16.2475 7.7375 16.2275 7.7275 16.2175C7.6475 16.1375 7.5875 16.0375 7.5375 15.9375C7.4975 15.8375 7.4775 15.7375 7.4775 15.6275C7.4775 15.6075 7.4675 15.5775 7.4675 15.5575V11.2175C7.4475 10.6675 7.8975 10.2175 8.4475 10.2175C8.9975 10.2175 9.4475 10.6575 9.4475 11.2175V13.1575L14.8275 7.7875C15.2175 7.3975 15.8475 7.3975 16.2375 7.7875C16.6275 8.1775 16.6275 8.8075 16.2375 9.1975L10.8775 14.5575H12.7975C13.3475 14.5575 13.7975 14.9975 13.7975 15.5475C13.7975 15.8275 13.6875 16.0775 13.5075 16.2575C13.3275 16.4375 13.0775 16.5475 12.8075 16.5475H8.4675V16.5575C8.3375 16.5575 8.2075 16.5275 8.0875 16.4775C7.9675 16.4275 7.8575 16.3575 7.7575 16.2575Z" fill="currentColor"/>
<path d="M4.2175 19.7775C8.5075 24.0675 15.4875 24.0675 19.7775 19.7775C24.0675 15.4875 24.0675 8.5075 19.7775 4.2175C15.4875 -0.0725 8.5075 -0.0725 4.2175 4.2175C-0.0725 8.5075 -0.0725 15.4875 4.2175 19.7775ZM5.6275 18.3675C2.1175 14.8575 2.1175 9.1475 5.6275 5.6375C9.1375 2.1275 14.8475 2.1275 18.3575 5.6375C21.8675 9.1475 21.8675 14.8575 18.3575 18.3675C14.8475 21.8775 9.1375 21.8775 5.6275 18.3675Z" fill="currentColor"/>
</svg>
