<svg viewBox="0 0 24 24" fill="none" xmlns="http://www.w3.org/2000/svg">
<path d="M12 23C18.07 23 23 18.07 23 12C23 5.93 18.07 1 12 1C5.93 1 1 5.93 1 12C1 18.07 5.93 23 12 23ZM6 11.99C6 11.86 6.03 11.73 6.08 11.61C6.13 11.49 6.2 11.38 6.3 11.29L9.38 8.23C9.58 8.04 9.83 7.94 10.09 7.94C10.35 7.94 10.6 8.04 10.8 8.23C11.19 8.62 11.19 9.26 10.8 9.64L9.44 10.99H17.01C17.56 10.99 18.01 11.44 18.01 11.99C18.01 12.54 17.56 12.99 17.01 12.99H9.41L10.78 14.37C11.17 14.76 11.17 15.4 10.78 15.78C10.39 16.17 9.76 16.17 9.37 15.78L6.31 12.7C6.31 12.7 6.29 12.66 6.27 12.64C6.2 12.56 6.14 12.48 6.1 12.38C6.06 12.27 6.04 12.16 6.03 12.05C6.03 12.03 6.03 12.02 6.03 12L6 11.99Z" fill="currentColor"/>
</svg>
