<svg viewBox="0 0 24 24" fill="none" xmlns="http://www.w3.org/2000/svg">
<path d="M16.2575 16.2375C16.2475 16.2475 16.2275 16.2575 16.2175 16.2675C16.1375 16.3475 16.0375 16.4075 15.9375 16.4575C15.8375 16.4975 15.7375 16.5175 15.6275 16.5175C15.6075 16.5175 15.5775 16.5275 15.5575 16.5275H11.2175C10.6675 16.5475 10.2175 16.0975 10.2175 15.5475C10.2175 14.9975 10.6575 14.5475 11.2175 14.5475H13.1575L7.7875 9.1675C7.3975 8.7775 7.3975 8.1475 7.7875 7.7575C8.1775 7.3675 8.8075 7.3675 9.1975 7.7575L14.5575 13.1175V11.1975C14.5575 10.6475 14.9975 10.1975 15.5475 10.1975C15.8275 10.1975 16.0775 10.3075 16.2575 10.4875C16.4375 10.6675 16.5475 10.9175 16.5475 11.1875V15.5275H16.5575C16.5575 15.6575 16.5275 15.7875 16.4775 15.9075C16.4275 16.0275 16.3575 16.1375 16.2575 16.2375Z" fill="currentColor"/>
<path d="M19.7775 19.7775C24.0675 15.4875 24.0675 8.5075 19.7775 4.2175C15.4875 -0.0725 8.5075 -0.0725 4.2175 4.2175C-0.0725 8.5075 -0.0725 15.4875 4.2175 19.7775C8.5075 24.0675 15.4875 24.0675 19.7775 19.7775ZM18.3675 18.3675C14.8575 21.8775 9.1475 21.8775 5.6375 18.3675C2.1275 14.8575 2.1275 9.1475 5.6375 5.6375C9.1475 2.1275 14.8575 2.1275 18.3675 5.6375C21.8775 9.1475 21.8775 14.8575 18.3675 18.3675Z" fill="currentColor"/>
</svg>
