<svg viewBox="0 0 24 24" fill="none" xmlns="http://www.w3.org/2000/svg">
<path d="M11.99 6C12.01 6 12.02 6 12.04 6C12.15 6 12.27 6.02 12.37 6.07C12.47 6.11 12.55 6.18 12.63 6.24C12.65 6.26 12.67 6.26 12.69 6.28L15.77 9.34C16.16 9.73 16.16 10.36 15.77 10.75C15.38 11.14 14.75 11.14 14.36 10.75L12.98 9.38V16.98C12.98 17.53 12.53 17.98 11.98 17.98C11.43 17.98 10.98 17.53 10.98 16.98V9.41L9.63 10.77C9.24 11.16 8.61 11.16 8.22 10.77C8.02 10.57 7.93 10.32 7.93 10.06C7.93 9.81 8.03 9.55 8.22 9.35L11.28 6.27C11.37 6.18 11.48 6.1 11.6 6.05C11.72 6 11.85 5.97 11.98 5.97L11.99 6Z" fill="currentColor"/>
<path d="M12 1C5.93 1 1 5.93 1 12C1 18.07 5.93 23 12 23C18.07 23 23 18.07 23 12C23 5.93 18.07 1 12 1ZM12 3C16.96 3 21 7.04 21 12C21 16.96 16.96 21 12 21C7.04 21 3 16.96 3 12C3 7.04 7.04 3 12 3Z" fill="currentColor"/>
</svg>
