<svg viewBox="0 0 24 24" fill="none" xmlns="http://www.w3.org/2000/svg">
<path d="M18 12.01C18 11.99 18 11.98 18 11.96C18 11.85 17.98 11.73 17.93 11.63C17.89 11.53 17.82 11.45 17.76 11.37C17.74 11.35 17.74 11.33 17.72 11.31L14.66 8.23C14.27 7.84 13.64 7.84 13.25 8.23C12.86 8.62 12.86 9.25 13.25 9.64L14.62 11.02H7.02C6.47 11.02 6.02 11.47 6.02 12.02C6.02 12.57 6.47 13.02 7.02 13.02H14.59L13.23 14.37C12.84 14.76 12.84 15.39 13.23 15.78C13.43 15.98 13.68 16.07 13.94 16.07C14.2 16.07 14.45 15.97 14.65 15.78L17.73 12.72C17.82 12.63 17.9 12.52 17.95 12.4C18 12.28 18.03 12.15 18.03 12.02L18 12.01Z" fill="currentColor"/>
<path d="M12 1C5.93 1 1 5.93 1 12C1 18.07 5.93 23 12 23C18.07 23 23 18.07 23 12C23 5.93 18.07 1 12 1ZM12 21C7.04 21 3 16.96 3 12C3 7.04 7.04 3 12 3C16.96 3 21 7.04 21 12C21 16.96 16.96 21 12 21Z" fill="currentColor"/>
</svg>
