<svg viewBox="0 0 24 24" fill="none" xmlns="http://www.w3.org/2000/svg">
<path d="M17.7198 8.29256L12.7177 3.29256C12.6277 3.20256 12.5177 3.12256 12.3876 3.07256C12.1475 2.97256 11.8674 2.97256 11.6273 3.07256C11.5072 3.12256 11.3972 3.19256 11.2971 3.29256L6.29506 8.29256C5.9049 8.68256 5.9049 9.31256 6.29506 9.70256C6.68523 10.0926 7.31549 10.0926 7.70565 9.70256L10.997 6.41256V20.0026C10.997 20.5526 11.4472 21.0026 11.9974 21.0026C12.5477 21.0026 12.9979 20.5526 12.9979 20.0026V6.41256L16.2892 9.70256C16.4893 9.90256 16.7394 9.99256 16.9995 9.99256C17.2596 9.99256 17.5097 9.89256 17.7098 9.70256C18.1 9.31256 18.1 8.68256 17.7098 8.29256H17.7198Z" fill="currentColor"/>
</svg>
