<svg viewBox="0 0 24 24" fill="none" xmlns="http://www.w3.org/2000/svg">
<path d="M12.01 18C11.99 18 11.98 18 11.96 18C11.85 18 11.73 17.98 11.63 17.93C11.53 17.89 11.45 17.82 11.37 17.76C11.35 17.74 11.33 17.74 11.31 17.72L8.23 14.66C7.84 14.27 7.84 13.64 8.23 13.25C8.62 12.86 9.25 12.86 9.64 13.25L11.02 14.62V7.02C11.02 6.47 11.47 6.02 12.02 6.02C12.57 6.02 13.02 6.47 13.02 7.02V14.59L14.37 13.23C14.76 12.84 15.39 12.84 15.78 13.23C15.98 13.43 16.07 13.68 16.07 13.94C16.07 14.19 15.97 14.45 15.78 14.65L12.72 17.73C12.63 17.82 12.52 17.9 12.4 17.95C12.28 18 12.15 18.03 12.02 18.03L12.01 18Z" fill="currentColor"/>
<path d="M12 23C18.07 23 23 18.07 23 12C23 5.93 18.07 1 12 1C5.93 1 1 5.93 1 12C1 18.07 5.93 23 12 23ZM12 21C7.04 21 3 16.96 3 12C3 7.04 7.04 3 12 3C16.96 3 21 7.04 21 12C21 16.96 16.96 21 12 21Z" fill="currentColor"/>
</svg>
