<svg viewBox="0 0 24 24" fill="none" xmlns="http://www.w3.org/2000/svg">
<path d="M7.7375 7.7575C7.7475 7.7475 7.7675 7.7375 7.7775 7.7275C7.8575 7.6475 7.9575 7.5875 8.0575 7.5375C8.1575 7.4975 8.2575 7.4775 8.3675 7.4775C8.3875 7.4775 8.4175 7.4675 8.4375 7.4675H12.7775C13.3275 7.4475 13.7775 7.8975 13.7775 8.4475C13.7775 8.9975 13.3375 9.4475 12.7775 9.4475H10.8375L16.2075 14.8275C16.5975 15.2175 16.5975 15.8475 16.2075 16.2375C15.8175 16.6275 15.1875 16.6275 14.7975 16.2375L9.4375 10.8775V12.7975C9.4375 13.3475 8.9975 13.7975 8.4475 13.7975C8.1675 13.7975 7.9175 13.6875 7.7375 13.5075C7.5575 13.3275 7.4475 13.0775 7.4475 12.8075V8.4675H7.4375C7.4375 8.3375 7.4675 8.2075 7.5175 8.0875C7.5675 7.9675 7.6375 7.8575 7.7375 7.7575Z" fill="currentColor"/>
<path d="M4.2175 4.2175C-0.0725 8.5075 -0.0725 15.4875 4.2175 19.7775C8.5075 24.0675 15.4875 24.0675 19.7775 19.7775C24.0675 15.4875 24.0675 8.5075 19.7775 4.2175C15.4875 -0.0725 8.5075 -0.0725 4.2175 4.2175ZM5.6275 5.6275C9.1375 2.1175 14.8475 2.1175 18.3575 5.6275C21.8675 9.1375 21.8675 14.8475 18.3575 18.3575C14.8475 21.8675 9.1375 21.8675 5.6275 18.3575C2.1175 14.8475 2.1175 9.1375 5.6275 5.6275Z" fill="currentColor"/>
</svg>
