<svg viewBox="0 0 24 24" fill="none" xmlns="http://www.w3.org/2000/svg">
<path d="M16.2375 7.7375C16.2475 7.7475 16.2575 7.7675 16.2675 7.7775C16.3475 7.8575 16.4075 7.9575 16.4575 8.0575C16.4975 8.1575 16.5175 8.2575 16.5175 8.3675C16.5175 8.3875 16.5275 8.4175 16.5275 8.4375V12.7775C16.5475 13.3275 16.0975 13.7775 15.5475 13.7775C14.9975 13.7775 14.5475 13.3375 14.5475 12.7775V10.8375L9.1675 16.2075C8.7775 16.5975 8.1475 16.5975 7.7575 16.2075C7.3675 15.8175 7.3675 15.1875 7.7575 14.7975L13.1175 9.4375H11.1975C10.6475 9.4375 10.1975 8.9975 10.1975 8.4475C10.1975 8.1675 10.3075 7.9175 10.4875 7.7375C10.6675 7.5575 10.9175 7.4475 11.1875 7.4475H15.5275V7.4375C15.6575 7.4375 15.7875 7.4675 15.9075 7.5175C16.0275 7.5675 16.1375 7.6375 16.2375 7.7375Z" fill="currentColor"/>
<path d="M19.7775 4.2175C15.4875 -0.0725 8.5075 -0.0725 4.2175 4.2175C-0.0725 8.5075 -0.0725 15.4875 4.2175 19.7775C8.5075 24.0675 15.4875 24.0675 19.7775 19.7775C24.0675 15.4875 24.0675 8.5075 19.7775 4.2175ZM18.3675 5.6275C21.8775 9.1375 21.8775 14.8475 18.3675 18.3575C14.8575 21.8675 9.1475 21.8675 5.6375 18.3575C2.1275 14.8475 2.1275 9.1375 5.6375 5.6275C9.1475 2.1175 14.8575 2.1175 18.3675 5.6275Z" fill="currentColor"/>
</svg>
