<svg viewBox="0 0 24 24" fill="none" xmlns="http://www.w3.org/2000/svg">
<path d="M1 12C1 18.07 5.93 23 12 23C18.07 23 23 18.07 23 12C23 5.93 18.07 1 12 1C5.93 1 1 5.93 1 12ZM12.01 6C12.14 6 12.27 6.03 12.39 6.08C12.51 6.13 12.62 6.2 12.71 6.3L15.77 9.38C15.96 9.58 16.06 9.83 16.06 10.09C16.06 10.35 15.96 10.6 15.77 10.8C15.38 11.19 14.74 11.19 14.36 10.8L13.01 9.44V17.01C13.01 17.56 12.56 18.01 12.01 18.01C11.46 18.01 11.01 17.56 11.01 17.01V9.41L9.63 10.78C9.24 11.17 8.6 11.17 8.22 10.78C7.83 10.39 7.83 9.76 8.22 9.37L11.3 6.31C11.3 6.31 11.34 6.29 11.36 6.27C11.44 6.2 11.52 6.14 11.62 6.1C11.73 6.06 11.84 6.04 11.95 6.03C11.97 6.03 11.98 6.03 12 6.03L12.01 6Z" fill="currentColor"/>
</svg>
