<svg viewBox="0 0 24 24" fill="none" xmlns="http://www.w3.org/2000/svg">
<path d="M12 1C5.93 1 1 5.93 1 12C1 18.07 5.93 23 12 23C18.07 23 23 18.07 23 12C23 5.93 18.07 1 12 1ZM18 12.01C18 12.14 17.97 12.27 17.92 12.39C17.87 12.51 17.8 12.62 17.7 12.71L14.62 15.77C14.42 15.96 14.17 16.06 13.91 16.06C13.65 16.06 13.4 15.96 13.2 15.77C12.81 15.38 12.81 14.74 13.2 14.36L14.56 13.01H6.99C6.44 13.01 5.99 12.56 5.99 12.01C5.99 11.46 6.44 11.01 6.99 11.01H14.59L13.22 9.63C12.83 9.24 12.83 8.6 13.22 8.22C13.61 7.83 14.24 7.83 14.63 8.22L17.69 11.3C17.69 11.3 17.71 11.34 17.73 11.36C17.8 11.44 17.86 11.52 17.9 11.62C17.94 11.73 17.96 11.84 17.97 11.95C17.97 11.97 17.97 11.98 17.97 12L18 12.01Z" fill="currentColor"/>
</svg>
