<svg viewBox="0 0 24 24" fill="none" xmlns="http://www.w3.org/2000/svg">
<path d="M6 12.01C6 11.99 6 11.98 6 11.96C6 11.85 6.02 11.73 6.07 11.63C6.11 11.53 6.18 11.45 6.24 11.37C6.26 11.35 6.26 11.33 6.28 11.31L9.34 8.23C9.73 7.84 10.36 7.84 10.75 8.23C11.14 8.62 11.14 9.25 10.75 9.64L9.38 11.02H16.98C17.53 11.02 17.98 11.47 17.98 12.02C17.98 12.57 17.53 13.02 16.98 13.02H9.41L10.77 14.37C11.16 14.76 11.16 15.39 10.77 15.78C10.57 15.98 10.32 16.07 10.06 16.07C9.8 16.07 9.55 15.97 9.35 15.78L6.27 12.72C6.18 12.63 6.1 12.52 6.05 12.4C6 12.28 5.97 12.15 5.97 12.02L6 12.01Z" fill="currentColor"/>
<path d="M1 12C1 18.07 5.93 23 12 23C18.07 23 23 18.07 23 12C23 5.93 18.07 1 12 1C5.93 1 1 5.93 1 12ZM3 12C3 7.04 7.04 3 12 3C16.96 3 21 7.04 21 12C21 16.96 16.96 21 12 21C7.04 21 3 16.96 3 12Z" fill="currentColor"/>
</svg>
