<svg viewBox="0 0 24 24" fill="none" xmlns="http://www.w3.org/2000/svg">
<path d="M17.6901 14.2787C17.3001 13.8889 16.6701 13.8889 16.2801 14.2787L12.9901 17.5669V3.99444C12.9901 3.44475 12.5401 2.995 11.9901 2.995C11.4401 2.995 10.9901 3.44475 10.9901 3.99444V17.5769L7.70006 14.2887C7.31006 13.8989 6.68006 13.8989 6.29006 14.2887C5.90006 14.6785 5.90006 15.3082 6.29006 15.6979L11.2901 20.6952C11.3801 20.7851 11.4901 20.8651 11.6201 20.915C11.7401 20.965 11.8701 20.995 12.0001 20.995C12.1301 20.995 12.2601 20.965 12.3801 20.915C12.5001 20.8651 12.6101 20.7951 12.7101 20.6952L17.7101 15.6979C18.1001 15.3082 18.1001 14.6785 17.7101 14.2887L17.6901 14.2787Z" fill="currentColor"/>
</svg>
