<svg viewBox="0 0 24 24" fill="none" xmlns="http://www.w3.org/2000/svg">
<path d="M19.7688 19.7775C24.0588 15.4875 24.0588 8.5075 19.7688 4.2175C15.4788 -0.0725 8.49875 -0.0725 4.20875 4.2175C-0.071249 8.5175 -0.0712488 15.4875 4.21875 19.7775C8.50875 24.0675 15.4888 24.0675 19.7788 19.7775H19.7688ZM7.73875 16.2375C7.64875 16.1475 7.56875 16.0375 7.51875 15.9075C7.46875 15.7775 7.43875 15.6575 7.43875 15.5275V11.1875C7.44875 10.9075 7.56875 10.6675 7.74875 10.4875C7.92875 10.3075 8.17875 10.1975 8.45875 10.1975C9.00875 10.1975 9.45875 10.6475 9.45875 11.1975V13.1175L14.8088 7.7575C15.1988 7.3675 15.8288 7.3675 16.2188 7.7575C16.6088 8.1475 16.6088 8.7775 16.2188 9.1675L10.8488 14.5375H12.7888C13.3388 14.5375 13.7888 14.9975 13.7888 15.5475C13.7888 16.0975 13.3388 16.5475 12.7888 16.5475H8.44875C8.44875 16.5475 8.39875 16.5175 8.37875 16.5175C8.26875 16.5175 8.16875 16.4975 8.06875 16.4575C7.95875 16.4175 7.86875 16.3475 7.78875 16.2675C7.77875 16.2575 7.75875 16.2475 7.74875 16.2375H7.73875Z" fill="currentColor"/>
</svg>
