<svg viewBox="0 0 24 24" fill="none" xmlns="http://www.w3.org/2000/svg">
<g clip-path="url(#clip0_7873_6372)">
<path d="M23 12C23 5.93 18.07 1 12 1C5.93 1 1 5.93 1 12C1 18.07 5.93 23 12 23C18.07 23 23 18.07 23 12ZM11.99 18C11.86 18 11.73 17.97 11.61 17.92C11.49 17.87 11.38 17.8 11.29 17.7L8.23 14.62C8.04 14.42 7.94 14.17 7.94 13.91C7.94 13.65 8.04 13.4 8.23 13.2C8.62 12.81 9.26 12.81 9.64 13.2L10.99 14.56V6.99C10.99 6.44 11.44 5.99 11.99 5.99C12.54 5.99 12.99 6.44 12.99 6.99V14.59L14.37 13.22C14.76 12.83 15.4 12.83 15.78 13.22C16.17 13.61 16.17 14.24 15.78 14.63L12.7 17.69C12.7 17.69 12.66 17.71 12.64 17.73C12.56 17.8 12.48 17.86 12.38 17.9C12.27 17.94 12.16 17.96 12.05 17.97C12.03 17.97 12.02 17.97 12 17.97L11.99 18Z" fill="currentColor"/>
</g>
<defs>
<clipPath>
<rect fill="currentColor" transform="translate(1 1)"/>
</clipPath>
</defs>
</svg>
