<svg viewBox="0 0 24 24" fill="none" xmlns="http://www.w3.org/2000/svg">
<path d="M21.1013 1.19011C20.8421 1.00038 20.5031 0.950445 20.2041 1.05031L8.20199 5.04479C7.79328 5.1846 7.51417 5.56407 7.52414 5.99348V9.8881C7.52414 9.8881 7.52414 9.93804 7.52414 9.95801V16.3092C7.07555 16.0895 6.56716 15.9497 6.01889 15.9497C4.07503 15.9497 2.5 17.5276 2.5 19.4749C2.5 21.4222 4.07503 23 6.01889 23C7.96275 23 9.53778 21.4222 9.53778 19.4749L9.51784 10.707L19.5063 7.38157V13.3234C19.0477 13.0937 18.5294 12.9639 17.9811 12.9639C16.0373 12.9639 14.4622 14.5417 14.4622 16.489C14.4622 18.4363 16.0373 20.0141 17.9811 20.0141C19.925 20.0141 21.5 18.4363 21.5 16.489V1.999C21.5 1.67944 21.3505 1.37985 21.0813 1.19011H21.1013ZM6.02886 21.0028C5.1915 21.0028 4.50367 20.3137 4.50367 19.4749C4.50367 18.636 5.1915 17.947 6.02886 17.947C6.86621 17.947 7.55404 18.636 7.55404 19.4749C7.55404 20.3137 6.86621 21.0028 6.02886 21.0028ZM9.52781 8.59988V6.71249L19.5163 3.38708V5.27448L9.52781 8.59988ZM17.9911 18.0069C17.1537 18.0069 16.4659 17.3178 16.4659 16.479C16.4659 15.6402 17.1537 14.9511 17.9911 14.9511C18.8284 14.9511 19.5163 15.6402 19.5163 16.479C19.5163 17.3178 18.8284 18.0069 17.9911 18.0069Z" fill="currentColor"/>
</svg>
