<svg viewBox="0 0 24 24" fill="none" xmlns="http://www.w3.org/2000/svg">
<path d="M10.93 16.0249C10.93 16.0249 10.96 16.0249 10.98 16.0249C11.26 16.0149 11.52 15.8842 11.69 15.6731L16.75 9.63276C17.11 9.21064 17.05 8.57746 16.63 8.21564C16.21 7.85382 15.58 7.91412 15.22 8.33624L10.85 13.5525L8.68 11.4419C8.28 11.0599 7.65 11.0599 7.27 11.462C6.89 11.864 6.89 12.4972 7.29 12.8791L10.23 15.7435C10.42 15.9244 10.67 16.0249 10.93 16.0249Z" fill="currentColor"/>
<path d="M19.77 4.22557C15.59 0.0244359 8.87 -0.0660192 4.57 3.914L4.53 3.00945C4.51 2.45667 4.03 2.01445 3.49 2.0446C2.94 2.0647 2.51 2.53707 2.54 3.08985L2.69 6.49699C2.69 6.49699 2.71 6.5573 2.71 6.5975C2.71 6.64775 2.73 6.68795 2.74 6.72815C2.76 6.80856 2.79 6.88896 2.83 6.95932C2.85 6.99952 2.88 7.02967 2.9 7.05982C2.95 7.13018 3.01 7.19048 3.08 7.24073C3.1 7.25078 3.11 7.27088 3.13 7.29099C3.15 7.30104 3.18 7.31109 3.2 7.32114C3.27 7.36134 3.34 7.39149 3.42 7.41159C3.48 7.43169 3.53 7.44174 3.59 7.44174C3.62 7.44174 3.65 7.46184 3.69 7.46184C3.71 7.46184 3.72 7.46184 3.74 7.46184L6.87 7.32114C7.42 7.30104 7.85 6.82866 7.82 6.27588C7.8 5.7231 7.32 5.27082 6.78 5.31103L5.98 5.35123C9.51 2.13505 14.97 2.22551 18.37 5.64269C20.06 7.34124 21 9.60261 21 12.0047C21 12.5575 21.45 13.0098 22 13.0098C22.55 13.0098 23 12.5575 23 12.0047C22.99 9.06993 21.85 6.30603 19.78 4.23562L19.77 4.22557Z" fill="currentColor"/>
<path d="M21.29 17.4119C21.29 17.3616 21.27 17.3114 21.25 17.2611C21.23 17.1807 21.2 17.1104 21.16 17.04C21.14 16.9998 21.11 16.9697 21.08 16.9295C21.02 16.8591 20.96 16.7888 20.89 16.7385C20.88 16.7385 20.87 16.7184 20.86 16.7084C20.84 16.6983 20.82 16.6983 20.8 16.6883C20.72 16.638 20.63 16.5978 20.54 16.5777C20.49 16.5676 20.45 16.5676 20.4 16.5576C20.35 16.5576 20.31 16.5375 20.27 16.5375L17.14 16.6782C16.59 16.6983 16.16 17.1707 16.19 17.7235C16.22 18.2762 16.68 18.7084 17.23 18.6883L18.03 18.6481C14.51 21.8643 9.04 21.7738 5.64 18.3566C3.95 16.6581 3.01 14.3967 3.01 11.9946C3.01 11.4419 2.56 10.9896 2.01 10.9896C1.44 10.9996 1 11.4519 1 12.0047C1.01 14.9395 2.15 17.7034 4.22 19.7738C6.36 21.9246 9.18 23 11.99 23C14.66 23 17.32 22.015 19.42 20.0853L19.46 20.9899C19.48 21.5326 19.93 21.9547 20.46 21.9547C20.48 21.9547 20.49 21.9547 20.51 21.9547C21.06 21.9346 21.49 21.4623 21.46 20.9095L21.31 17.5023C21.31 17.5023 21.29 17.442 21.29 17.4119Z" fill="currentColor"/>
</svg>
