<svg fill="none" xmlns="http://www.w3.org/2000/svg" viewBox="0 0 24 24">
  <path
    fill-rule="evenodd"
    clip-rule="evenodd"
    d="M3.44828 5.37265C2.57133 5.73996 2 6.602 2 7.55785C2 8.61405 2.68748 9.50868 3.63672 9.81331V19.9874H3C2.44772 19.9874 2 20.438 2 20.9937C2 21.5495 2.44772 22 3 22H21C21.5523 22 22 21.5495 22 20.9937C22 20.438 21.5523 19.9874 21 19.9874H10.5488V9.92478H13V10.9308C13 11.4866 13.4477 11.9371 14 11.9371C14.5523 11.9371 15 11.4866 15 10.9308V9.92478H18V10.9308C18 11.4866 18.4477 11.9371 19 11.9371C19.5523 11.9371 20 11.4866 20 10.9308V9.92453C20 9.91923 20 9.91395 19.9999 9.90867C19.9998 9.90527 19.9998 9.90188 19.9997 9.89848C21.1318 9.72762 22 8.74476 22 7.55785C22 6.602 21.4287 5.73996 20.5517 5.37265L12.9607 2.19316C12.3458 1.93561 11.6542 1.93561 11.0393 2.19316L3.44828 5.37265ZM11.8079 4.05121C11.9308 3.9997 12.0692 3.9997 12.1921 4.05121L19.7832 7.2307C19.9145 7.28569 20 7.41475 20 7.55785C20 7.75355 19.8423 7.9122 19.6479 7.9122H4.35214C4.15766 7.9122 4 7.75355 4 7.55785C4 7.41475 4.08553 7.28569 4.21682 7.2307L11.8079 4.05121ZM8.54883 9.92478H5.63672V19.9874H8.54883V9.92478Z"
    fill="currentColor"
  />
  <path
    d="M22 15.9623C22 15.4065 21.5523 14.956 21 14.956H15.7621L16.6402 14.2196C17.0644 13.8638 17.1218 13.2293 16.7682 12.8024C16.4146 12.3754 15.7841 12.3177 15.3598 12.6735L12.3661 15.184C12.3274 15.2159 12.2912 15.2506 12.2578 15.2879C12.1087 15.4539 12.0139 15.6702 12.0014 15.9085C12.0005 15.9264 12 15.9443 12 15.9623C12 15.9814 12.0005 16.0004 12.0016 16.0193C12.0172 16.2967 12.1464 16.5564 12.3598 16.7353L15.3598 19.2511C15.7841 19.6069 16.4146 19.5492 16.7682 19.1222C17.1218 18.6953 17.0644 18.0607 16.6402 17.705L15.762 16.9686H21C21.5523 16.9686 22 16.518 22 15.9623Z"
    fill="currentColor"
  />
</svg>
