<svg viewBox="0 0 24 24" fill="none" xmlns="http://www.w3.org/2000/svg">
<path d="M22.37 5.075L12.37 1.075C12.13 0.975 11.87 0.975 11.63 1.075L1.63 5.075C1.25 5.225 1 5.595 1 6.005V9.005C1 9.555 1.45 10.005 2 10.005H3V21.005H2C1.45 21.005 1 21.455 1 22.005C1 22.555 1.45 23.005 2 23.005H12C12.55 23.005 13 22.555 13 22.005C13 21.455 12.55 21.005 12 21.005H10V10.005H14V16.005C14 16.555 14.45 17.005 15 17.005C15.55 17.005 16 16.555 16 16.005V10.005H19V14.005C19 14.555 19.45 15.005 20 15.005C20.55 15.005 21 14.555 21 14.005V10.005H22C22.55 10.005 23 9.555 23 9.005V6.005C23 5.595 22.75 5.225 22.37 5.075ZM8 21.005H5V10.005H8V21.005ZM21 8.005H3V6.685L12 3.085L21 6.685V8.005Z" fill="currentColor"/>
<path d="M21.21 16.675L18.19 20.555L16.38 19.105C15.95 18.765 15.32 18.835 14.97 19.265C14.63 19.695 14.7 20.325 15.13 20.675L17.73 22.755C17.91 22.895 18.13 22.975 18.35 22.975C18.39 22.975 18.43 22.975 18.47 22.975C18.74 22.945 18.98 22.805 19.14 22.595L22.78 17.915C23.12 17.475 23.04 16.855 22.61 16.515C22.17 16.175 21.55 16.255 21.21 16.685V16.675Z" fill="currentColor"/>
</svg>
