<svg viewBox="0 0 24 24" fill="none" xmlns="http://www.w3.org/2000/svg">
<path d="M23 8.99477V5.9958C23 5.58594 22.75 5.21606 22.37 5.06611L12.37 1.06748C12.13 0.977508 11.87 0.977508 11.63 1.06748L1.63 5.06611C1.25 5.21606 1 5.58594 1 5.9958V8.99477C1 9.54459 1.45 9.99443 2 9.99443H3V21.0007H2C1.45 21.0007 1 21.4505 1 22.0003C1 22.5502 1.45 23 2 23H22C22.55 23 23 22.5502 23 22.0003C23 21.4505 22.55 21.0007 22 21.0007H16V18.9914C16 18.4416 15.55 17.9917 15 17.9917C14.45 17.9917 14 18.4416 14 18.9914V21.0007H10V9.99443H14V11.9938C14 12.5436 14.45 12.9934 15 12.9934C15.55 12.9934 16 12.5436 16 11.9938V9.99443H22C22.55 9.99443 23 9.54459 23 8.99477ZM8 21.0007H5V9.99443H8V21.0007ZM21 7.99512H3V6.67557L12 3.07679L21 6.67557V7.99512Z" fill="currentColor"/>
<path d="M22.92 15.1027C22.87 14.9827 22.8 14.8728 22.7 14.7828L19.74 11.8438C19.35 11.4539 18.72 11.4539 18.33 11.8438C17.94 12.2337 17.94 12.8635 18.33 13.2533L19.57 14.4829H13C12.45 14.4829 12 14.9328 12 15.4826C12 16.0324 12.45 16.4822 13 16.4822H19.6L18.35 17.7318C17.96 18.1217 17.96 18.7514 18.35 19.1413C18.54 19.3313 18.8 19.4312 19.05 19.4312C19.3 19.4312 19.56 19.3313 19.76 19.1313L22.7 16.1723C22.7 16.1723 22.72 16.1423 22.73 16.1223C22.8 16.0424 22.87 15.9524 22.91 15.8424C22.95 15.7425 22.97 15.6325 22.97 15.5225C22.97 15.5026 22.98 15.4826 22.98 15.4626C22.98 15.3326 22.95 15.2027 22.9 15.0827L22.92 15.1027Z" fill="currentColor"/>
</svg>
