<svg viewBox="0 0 24 24" fill="none" xmlns="http://www.w3.org/2000/svg">
<path d="M22 9.99875C22.55 9.99875 23 9.54875 23 8.99875V5.99875C23 5.58875 22.75 5.21875 22.37 5.06875L12.37 1.06875C12.13 0.978751 11.87 0.978751 11.63 1.06875L1.63 5.06875C1.25 5.21875 1 5.58875 1 5.99875V8.99875C1 9.54875 1.45 9.99875 2 9.99875H3V20.9988H2C1.45 20.9988 1 21.4488 1 21.9988C1 22.5487 1.45 22.9988 2 22.9988H22C22.55 22.9988 23 22.5487 23 21.9988C23 21.4488 22.55 20.9988 22 20.9988H21V9.99875H22ZM3 7.99875V6.67875L12 3.07875L21 6.67875V7.99875H3ZM5 9.99875H8V20.9988H5V9.99875ZM10 20.9988V9.99875H14V20.9988H10ZM19 20.9988H16V9.99875H19V20.9988Z" fill="currentColor"/>
</svg>
