<svg viewBox="0 0 24 24" fill="none" xmlns="http://www.w3.org/2000/svg">
<path d="M12.01 8H17.015C17.5656 8 18.016 7.55 18.016 7C18.016 6.45 17.5656 6 17.015 6H12.01C11.4595 6 11.009 6.45 11.009 7C11.009 7.55 11.4595 8 12.01 8Z" fill="currentColor"/>
<path d="M12.01 12H17.015C17.5656 12 18.016 11.55 18.016 11C18.016 10.45 17.5656 10 17.015 10H12.01C11.4595 10 11.009 10.45 11.009 11C11.009 11.55 11.4595 12 12.01 12Z" fill="currentColor"/>
<path d="M12.01 16H17.015C17.5656 16 18.016 15.55 18.016 15C18.016 14.45 17.5656 14 17.015 14H12.01C11.4595 14 11.009 14.45 11.009 15C11.009 15.55 11.4595 16 12.01 16Z" fill="currentColor"/>
<path d="M7.005 8H8.00601C8.55656 8 9.00701 7.55 9.00701 7C9.00701 6.45 8.55656 6 8.00601 6H7.005C6.45445 6 6.004 6.45 6.004 7C6.004 7.55 6.45445 8 7.005 8Z" fill="currentColor"/>
<path d="M7.005 12H8.00601C8.55656 12 9.00701 11.55 9.00701 11C9.00701 10.45 8.55656 10 8.00601 10H7.005C6.45445 10 6.004 10.45 6.004 11C6.004 11.55 6.45445 12 7.005 12Z" fill="currentColor"/>
<path d="M7.005 16H8.00601C8.55656 16 9.00701 15.55 9.00701 15C9.00701 14.45 8.55656 14 8.00601 14H7.005C6.45445 14 6.004 14.45 6.004 15C6.004 15.55 6.45445 16 7.005 16Z" fill="currentColor"/>
<path d="M21.019 1H3.001C2.45045 1 2 1.45 2 2V22C2 22.35 2.19019 22.68 2.49049 22.86C2.79079 23.04 3.17117 23.04 3.48148 22.87L7.4955 20.64L11.5095 22.87C11.6597 22.95 11.8298 23 12 23C12.1702 23 12.3303 22.96 12.4905 22.87L16.5045 20.64L20.5185 22.87C20.8288 23.04 21.2092 23.04 21.5095 22.86C21.8198 22.68 22 22.35 22 22V2C22 1.45 21.5495 1 20.999 1H21.019ZM20.018 20.3L17.005 18.63C16.7047 18.46 16.3343 18.46 16.034 18.63L12.02 20.86L8.00601 18.63C7.85586 18.55 7.68569 18.5 7.51552 18.5C7.34535 18.5 7.18518 18.54 7.02502 18.63L4.01201 20.3V3H20.028V20.3H20.018Z" fill="currentColor"/>
</svg>
