<svg viewBox="0 0 24 24" fill="none" xmlns="http://www.w3.org/2000/svg">
<path d="M12 16.0025H17C17.55 16.0025 18 15.5525 18 15.0025C18 14.4525 17.55 14.0025 17 14.0025H12C11.45 14.0025 11 14.4525 11 15.0025C11 15.5525 11.45 16.0025 12 16.0025Z" fill="currentColor"/>
<path d="M9 6.0025H7C6.45 6.0025 6 6.4525 6 7.0025C6 7.5525 6.45 8.0025 7 8.0025H9C9.55 8.0025 10 7.5525 10 7.0025C10 6.4525 9.55 6.0025 9 6.0025Z" fill="currentColor"/>
<path d="M9 10.0025H7C6.45 10.0025 6 10.4525 6 11.0025C6 11.5525 6.45 12.0025 7 12.0025H9C9.55 12.0025 10 11.5525 10 11.0025C10 10.4525 9.55 10.0025 9 10.0025Z" fill="currentColor"/>
<path d="M9 14.0025H7C6.45 14.0025 6 14.4525 6 15.0025C6 15.5525 6.45 16.0025 7 16.0025H9C9.55 16.0025 10 15.5525 10 15.0025C10 14.4525 9.55 14.0025 9 14.0025Z" fill="currentColor"/>
<path d="M21 11.0025C20.45 11.0025 20 11.4525 20 12.0025V20.4625L16.91 19.0925C16.65 18.9725 16.36 18.9725 16.1 19.0925L12.01 20.9125L7.92 19.0925C7.66 18.9725 7.37 18.9725 7.11 19.0925L4.02 20.4625V3.0025H13.04C13.59 3.0025 14.04 2.5525 14.04 2.0025C14.04 1.4525 13.59 1.0025 13.04 1.0025H3C2.45 1.0025 2 1.4525 2 2.0025V22.0025C2 22.3425 2.17 22.6525 2.46 22.8425C2.74 23.0225 3.1 23.0525 3.41 22.9225L7.5 21.1025L11.59 22.9225C11.85 23.0425 12.14 23.0425 12.4 22.9225L16.49 21.1025L20.58 22.9225C20.71 22.9825 20.85 23.0125 20.99 23.0125C21.18 23.0125 21.37 22.9625 21.53 22.8525C21.81 22.6725 21.99 22.3525 21.99 22.0125V12.0125C21.99 11.4625 21.54 11.0125 20.99 11.0125L21 11.0025Z" fill="currentColor"/>
<path d="M19.71 1.2925C19.32 0.9025 18.69 0.9025 18.3 1.2925L12.3 7.2925C12.11 7.4825 12.01 7.7325 12.01 8.0025V11.0025C12.01 11.5525 12.46 12.0025 13.01 12.0025H16.01C16.28 12.0025 16.53 11.8925 16.72 11.7125L22.72 5.7125C23.11 5.3225 23.11 4.6925 22.72 4.3025L19.71 1.2925ZM20.59 5.0025L20 5.5925L18.41 4.0025L19 3.4125L20.59 5.0025ZM15.59 10.0025H14V8.4125L17 5.4125L18.59 7.0025L15.59 10.0025Z" fill="currentColor"/>
</svg>
