<svg viewBox="0 0 24 24" fill="none" xmlns="http://www.w3.org/2000/svg">
<path d="M21 1H5C4.45 1 4 1.45 4 2V20C4 21.1 4.6 22.11 5.57 22.64C6.02 22.88 6.51 23 7 23C7.57 23 8.15 22.83 8.64 22.51L13 19.66L17.36 22.51C18.28 23.12 19.46 23.16 20.43 22.64C21.4 22.12 22 21.1 22 20V2C22 1.45 21.55 1 21 1ZM20 20C20 20.54 19.63 20.79 19.48 20.88C19.32 20.96 18.91 21.13 18.46 20.84L13.56 17.63C13.39 17.52 13.2 17.47 13.01 17.47C12.82 17.47 12.63 17.52 12.46 17.63L7.56 20.84C7.11 21.13 6.69 20.97 6.54 20.88C6.38 20.8 6.02 20.54 6.02 20V3H20.02V20H20Z" fill="currentColor"/>
</svg>
