<svg viewBox="0 0 24 24" fill="none" xmlns="http://www.w3.org/2000/svg">
<path d="M20.41 4.26089C18.85 3.67057 17.12 4.1008 16.01 5.36149L13.76 7.92288C13.27 8.47318 13 9.18357 13 9.92397V10.014H11V9.92397C11 9.18357 10.73 8.47318 10.24 7.92288L7.99 5.36149C6.88 4.1008 5.16 3.67057 3.59 4.26089C2.02 4.86122 1 6.34202 1 8.03294V16.9778C1 18.3886 1.72 19.6793 2.91 20.4097C3.55 20.8099 4.27 21 4.99 21C5.6 21 6.22 20.8599 6.79 20.5698L9.34 19.2791C10.24 18.8288 10.83 17.9784 10.97 16.9978H13.03C13.16 17.9784 13.76 18.8288 14.66 19.2791L17.21 20.5698C17.78 20.8599 18.39 21 19.01 21C19.73 21 20.45 20.7999 21.09 20.4097C22.29 19.6693 23 18.3886 23 16.9778V8.03294C23 6.34202 21.98 4.86122 20.41 4.26089ZM9 11.4048C7.75 11.0346 6.37 11.0046 6 11.0046C5.45 11.0046 5 11.4548 5 12.0051C5 12.5554 5.45 13.0056 6 13.0056C6.92 13.0056 8.32 13.1857 9 13.5259V16.5976C9 16.9878 8.79 17.338 8.44 17.5081L5.89 18.7988C5.26 19.119 4.56 19.089 3.96 18.7188C3.36 18.3486 3 17.6982 3 16.9878V8.03294C3 6.99238 3.67 6.37204 4.3 6.13191C4.51 6.05187 4.76 6.00184 5.02 6.00184C5.51 6.00184 6.05 6.18194 6.49 6.68221L8.74 9.2436C8.9 9.4337 9 9.67384 9 9.92397V11.4048ZM13 15.0067H11V12.0151H13V15.0067ZM21 16.9778C21 17.6882 20.64 18.3386 20.04 18.7088C19.44 19.079 18.74 19.109 18.11 18.7888L15.56 17.4981C15.22 17.328 15 16.9778 15 16.5876V13.5159C15.68 13.1757 17.08 12.9956 18 12.9956C18.55 12.9956 19 12.5454 19 11.9951C19 11.4448 18.55 10.9946 18 10.9946C17.63 10.9946 16.25 11.0246 15 11.3948V9.91397C15 9.66383 15.09 9.4237 15.26 9.2336L17.51 6.6722C18.18 5.91179 19.08 5.89178 19.7 6.1219C20.33 6.36203 21 6.98237 21 8.02294V16.9778Z" fill="currentColor"/>
</svg>
