<svg viewBox="0 0 24 24" fill="none" xmlns="http://www.w3.org/2000/svg">
<path d="M22.9465 20.6878C22.217 18.5057 20.8779 17.6148 19.8985 17.2545C19.9585 16.8841 19.9985 16.5038 19.9985 16.1134V14.0014H20.9978C21.5474 14.0014 21.9971 13.5509 21.9971 13.0004C21.9971 12.4499 21.5474 11.9994 20.9978 11.9994H19.9785C19.9185 11.0685 19.6787 10.1977 19.2789 9.40694C20.3982 8.97652 21.9272 8.14573 22.7067 6.57422C22.9565 6.08375 22.7566 5.48317 22.257 5.23293C21.7673 4.98269 21.1577 5.18288 20.9179 5.68336C20.3083 6.90453 18.8592 7.48509 18.0797 7.7053C17.9698 7.58519 17.8499 7.47508 17.72 7.36498C17.7799 7.06469 17.8099 6.7644 17.8099 6.4541C17.8099 5.61329 17.5801 4.84255 17.2003 4.15189L18.6893 2.72051C19.0891 2.34015 19.0991 1.69953 18.7193 1.30916C18.3396 0.908772 17.7 0.898762 17.3102 1.27913L15.9112 2.63043C15.1017 2.00983 14.1024 1.62946 13.0031 1.62946C11.9038 1.62946 10.9045 2.00983 10.095 2.63043L8.69592 1.27913C8.29619 0.898762 7.6666 0.908772 7.28685 1.29915C6.9071 1.69953 6.9171 2.33014 7.30684 2.7105L8.78586 4.14188C8.40611 4.83254 8.17627 5.60328 8.17627 6.44409C8.17627 6.75439 8.21624 7.05468 8.26621 7.35497C8.14629 7.46507 8.02636 7.57518 7.91644 7.69529C7.14695 7.46507 5.68791 6.90453 5.07831 5.67335C4.82848 5.18288 4.22887 4.98269 3.7392 5.22292C3.24952 5.47316 3.04965 6.07374 3.28949 6.56421C4.07897 8.13572 5.59797 8.96651 6.71723 9.39693C6.32749 10.1877 6.07765 11.0685 6.01769 11.9994H4.99836C4.44873 11.9994 3.99902 12.4499 3.99902 13.0004C3.99902 13.5509 4.44873 14.0014 4.99836 14.0014H5.9977V16.1134C5.9977 16.4837 6.03768 16.8441 6.08765 17.1944C5.15826 17.5247 3.80915 18.3856 3.04965 20.6878C2.87976 21.2083 3.15958 21.7788 3.67924 21.949C3.77917 21.989 3.8891 21.999 3.99902 21.999C4.41875 21.999 4.80849 21.7388 4.9484 21.3184C5.44807 19.8169 6.21756 19.2964 6.69724 19.1063C7.8165 21.4085 10.165 23 12.8832 23H13.113C15.8212 23 18.1597 21.4285 19.2789 19.1463C19.8186 19.3665 20.5781 19.927 21.0478 21.3184C21.1877 21.7388 21.5774 21.999 21.9971 21.999C22.0971 21.999 22.207 21.979 22.3169 21.949C22.8366 21.7788 23.1264 21.2083 22.9465 20.6878ZM8.05634 11.9194C8.32617 9.47701 10.3748 7.56517 12.8832 7.56517H13.113C15.6213 7.56517 17.67 9.47701 17.9398 11.9194C14.8718 13.5309 11.1243 13.5309 8.05634 11.9194ZM13.0031 3.62138C14.4421 3.62138 15.6213 4.71243 15.7912 6.10376C14.9718 5.75343 14.0624 5.56324 13.123 5.56324H12.8932C11.9438 5.56324 11.0444 5.75343 10.2249 6.10376C10.3948 4.71243 11.574 3.62138 13.0131 3.62138H13.0031ZM14.0024 17.6248C14.0024 17.0743 13.5527 16.6239 13.0031 16.6239C12.4534 16.6239 12.0037 17.0743 12.0037 17.6248V20.918C9.73524 20.4976 8.00638 18.5057 8.00638 16.1134V14.1315C9.58533 14.8121 11.2942 15.1525 13.0031 15.1525C14.7119 15.1525 16.4208 14.8121 17.9998 14.1415V16.1234C17.9998 18.5157 16.2709 20.5076 14.0024 20.928V17.6248Z" fill="currentColor"/>
</svg>
