<svg viewBox="0 0 24 24" fill="none" xmlns="http://www.w3.org/2000/svg">
<path d="M22 21V13C22 11.9 21.1 11 20 11H16V3C16 1.9 15.1 1 14 1H4C2.9 1 2 1.9 2 3V21C1.45 21 1 21.45 1 22C1 22.55 1.45 23 2 23H22C22.55 23 23 22.55 23 22C23 21.45 22.55 21 22 21ZM4 3H14V21H4V3ZM16 21V13H20V21H16Z" fill="currentColor"/>
<path d="M11.5 5H6.5C5.95 5 5.5 5.45 5.5 6C5.5 6.55 5.95 7 6.5 7H11.5C12.05 7 12.5 6.55 12.5 6C12.5 5.45 12.05 5 11.5 5Z" fill="currentColor"/>
<path d="M11.5 9H6.5C5.95 9 5.5 9.45 5.5 10C5.5 10.55 5.95 11 6.5 11H11.5C12.05 11 12.5 10.55 12.5 10C12.5 9.45 12.05 9 11.5 9Z" fill="currentColor"/>
</svg>
