<svg viewBox="0 0 24 24" fill="none" xmlns="http://www.w3.org/2000/svg">
<path d="M20 5H18V4C18 2.35 16.65 1 15 1H9C7.35 1 6 2.35 6 4V5H4C2.35 5 1 6.35 1 8V20C1 21.65 2.35 23 4 23H20C21.65 23 23 21.65 23 20V8C23 6.35 21.65 5 20 5ZM8 4C8 3.45 8.45 3 9 3H15C15.55 3 16 3.45 16 4V5H8V4ZM21 20C21 20.55 20.55 21 20 21H4C3.45 21 3 20.55 3 20V11.76L5.03 14.2C5.98 15.34 7.38 16 8.87 16H9.36L9.39 16.25C9.51 17.25 10.37 18 11.37 18H12.6C13.61 18 14.46 17.25 14.58 16.25L14.61 16H15.1C16.59 16 17.99 15.34 18.94 14.2L20.97 11.76V20H21ZM11.13 14H12.86L12.61 16H11.38L11.13 14ZM21 8.64L17.43 12.92C16.86 13.61 16.02 14 15.13 14H14.86C14.86 13.52 14.69 13.04 14.37 12.68C13.99 12.25 13.44 12 12.87 12H11.14C10.57 12 10.02 12.25 9.64 12.68C9.32 13.05 9.15 13.52 9.15 14H8.88C7.99 14 7.15 13.61 6.58 12.92L3.01 8.64V8C3.01 7.45 3.46 7 4.01 7H20.01C20.56 7 21.01 7.45 21.01 8V8.64H21Z" fill="currentColor"/>
</svg>
