<svg viewBox="0 0 24 24" fill="none" xmlns="http://www.w3.org/2000/svg">
<path d="M17 1H7C4.79 1 3 2.79 3 5V19C3 21.21 4.79 23 7 23H17C19.21 23 21 21.21 21 19V5C21 2.79 19.21 1 17 1ZM19 19C19 20.1 18.1 21 17 21H7C5.9 21 5 20.1 5 19V5C5 3.9 5.9 3 7 3H17C18.1 3 19 3.9 19 5V19Z" fill="currentColor"/>
<path d="M16 5H8C7.44772 5 7 5.44772 7 6V8C7 8.55228 7.44772 9 8 9H16C16.5523 9 17 8.55228 17 8V6C17 5.44772 16.5523 5 16 5Z" fill="currentColor"/>
<path d="M8.5 11H8C7.45 11 7 11.45 7 12C7 12.55 7.45 13 8 13H8.5C9.05 13 9.5 12.55 9.5 12C9.5 11.45 9.05 11 8.5 11Z" fill="currentColor"/>
<path d="M12.25 11H11.75C11.2 11 10.75 11.45 10.75 12C10.75 12.55 11.2 13 11.75 13H12.25C12.8 13 13.25 12.55 13.25 12C13.25 11.45 12.8 11 12.25 11Z" fill="currentColor"/>
<path d="M16 11H15.5C14.95 11 14.5 11.45 14.5 12C14.5 12.55 14.95 13 15.5 13H16C16.55 13 17 12.55 17 12C17 11.45 16.55 11 16 11Z" fill="currentColor"/>
<path d="M8.5 14H8C7.45 14 7 14.45 7 15C7 15.55 7.45 16 8 16H8.5C9.05 16 9.5 15.55 9.5 15C9.5 14.45 9.05 14 8.5 14Z" fill="currentColor"/>
<path d="M12.25 14H11.75C11.2 14 10.75 14.45 10.75 15C10.75 15.55 11.2 16 11.75 16H12.25C12.8 16 13.25 15.55 13.25 15C13.25 14.45 12.8 14 12.25 14Z" fill="currentColor"/>
<path d="M16 14H15.5C14.95 14 14.5 14.45 14.5 15C14.5 15.55 14.95 16 15.5 16H16C16.55 16 17 15.55 17 15C17 14.45 16.55 14 16 14Z" fill="currentColor"/>
<path d="M8.5 17H8C7.45 17 7 17.45 7 18C7 18.55 7.45 19 8 19H8.5C9.05 19 9.5 18.55 9.5 18C9.5 17.45 9.05 17 8.5 17Z" fill="currentColor"/>
<path d="M12.25 17H11.75C11.2 17 10.75 17.45 10.75 18C10.75 18.55 11.2 19 11.75 19H12.25C12.8 19 13.25 18.55 13.25 18C13.25 17.45 12.8 17 12.25 17Z" fill="currentColor"/>
<path d="M16 17H15.5C14.95 17 14.5 17.45 14.5 18C14.5 18.55 14.95 19 15.5 19H16C16.55 19 17 18.55 17 18C17 17.45 16.55 17 16 17Z" fill="currentColor"/>
</svg>
