<svg viewBox="0 0 24 24" fill="none" xmlns="http://www.w3.org/2000/svg">
<path d="M19.9806 4H18.9816V2C18.9816 1.45 18.5321 1 17.9826 1C17.4332 1 16.9837 1.45 16.9837 2V4H6.99387V2C6.99387 1.45 6.54433 1 5.99489 1C5.44545 1 4.99591 1.45 4.99591 2V4H3.99694C2.34862 4 1 5.35 1 7V20C1 21.65 2.34862 23 3.99694 23H12.9877C13.5372 23 13.9867 22.55 13.9867 22C13.9867 21.45 13.5372 21 12.9877 21H3.99694C3.4475 21 2.99796 20.55 2.99796 20V10H20.9796V13C20.9796 13.55 21.4291 14 21.9785 14C22.528 14 22.9775 13.55 22.9775 13V7C22.9775 5.35 21.6289 4 19.9806 4ZM2.99796 8V7C2.99796 6.45 3.4475 6 3.99694 6H19.9806C20.53 6 20.9796 6.45 20.9796 7V8H2.99796Z" fill="currentColor"/>
<path d="M22.6878 17.29C22.2982 16.9 21.6689 16.9 21.2793 17.29L19.9906 18.58L18.7019 17.29C18.3123 16.9 17.6829 16.9 17.2933 17.29C16.9037 17.68 16.9037 18.31 17.2933 18.7L18.582 19.99L17.2933 21.28C16.9037 21.67 16.9037 22.3 17.2933 22.69C17.4931 22.89 17.7429 22.98 18.0026 22.98C18.2623 22.98 18.5121 22.88 18.7119 22.69L20.0006 21.4L21.2892 22.69C21.489 22.89 21.7388 22.98 21.9985 22.98C22.2583 22.98 22.508 22.88 22.7078 22.69C23.0974 22.3 23.0974 21.67 22.7078 21.28L21.4191 19.99L22.7078 18.7C23.0974 18.31 23.0974 17.68 22.7078 17.29H22.6878Z" fill="currentColor"/>
</svg>
