<svg viewBox="0 0 24 24" fill="none" xmlns="http://www.w3.org/2000/svg">
  <path
    fill-rule="evenodd"
    clip-rule="evenodd"
    d="M6 2C6.55228 2 7 2.44772 7 3V4H17V3C17 2.44772 17.4477 2 18 2C18.5523 2 19 2.44772 19 3V4H19.5C20.8807 4 22 5.11929 22 6.5V14C22 14.5523 21.5523 15 21 15C20.4477 15 20 14.5523 20 14V10H4V19.5C4 19.7761 4.22386 20 4.5 20H13C13.5523 20 14 20.4477 14 21C14 21.5523 13.5523 22 13 22H4.5C3.11929 22 2 20.8807 2 19.5V6.5C2 5.11929 3.11929 4 4.5 4H5V3C5 2.44772 5.44772 2 6 2ZM20 8V6.5C20 6.22386 19.7761 6 19.5 6H4.5C4.22386 6 4 6.22386 4 6.5V8H20Z"
    fill="currentColor"
  />
  <path
    d="M14 18.5C14 17.9477 14.4477 17.5 15 17.5L18.2379 17.5L17.3598 16.7682C16.9356 16.4147 16.8782 15.7841 17.2318 15.3598C17.5854 14.9356 18.2159 14.8782 18.6402 15.2318L21.634 17.7266C21.6527 17.742 21.6709 17.758 21.6884 17.7747C21.7085 17.7938 21.7279 17.8137 21.7464 17.8345C21.8931 17.9988 21.9862 18.212 21.9986 18.4466C21.9995 18.4643 22 18.4821 22 18.5C22 18.519 21.9995 18.5379 21.9984 18.5567C21.9828 18.8324 21.8536 19.0904 21.6402 19.2682L18.6402 21.7682C18.2159 22.1218 17.5854 22.0645 17.2318 21.6402C16.8782 21.2159 16.9356 20.5854 17.3598 20.2318L18.238 19.5H15C14.4477 19.5 14 19.0523 14 18.5Z"
    fill="currentColor"
  />
</svg>
