<svg viewBox="0 0 24 24" fill="none" xmlns="http://www.w3.org/2000/svg">
<path d="M20 4H19V2C19 1.45 18.55 1 18 1C17.45 1 17 1.45 17 2V4H7V2C7 1.45 6.55 1 6 1C5.45 1 5 1.45 5 2V4H4C2.35 4 1 5.35 1 7V20C1 21.65 2.35 23 4 23H13C13.55 23 14 22.55 14 22C14 21.45 13.55 21 13 21H4C3.45 21 3 20.55 3 20V10H21V13C21 13.55 21.45 14 22 14C22.55 14 23 13.55 23 13V7C23 5.35 21.65 4 20 4ZM3 8V7C3 6.45 3.45 6 4 6H20C20.55 6 21 6.45 21 7V8H3Z" fill="currentColor"/>
<path d="M22 18.5H20.5V17C20.5 16.45 20.05 16 19.5 16C18.95 16 18.5 16.45 18.5 17V18.5H17C16.45 18.5 16 18.95 16 19.5C16 20.05 16.45 20.5 17 20.5H18.5V22C18.5 22.55 18.95 23 19.5 23C20.05 23 20.5 22.55 20.5 22V20.5H22C22.55 20.5 23 20.05 23 19.5C23 18.95 22.55 18.5 22 18.5Z" fill="currentColor"/>
</svg>
