<svg viewBox="0 0 24 24" fill="none" xmlns="http://www.w3.org/2000/svg">
<path d="M12 1C5.93 1 1 5.93 1 12C1 18.07 5.93 23 12 23C18.07 23 23 18.07 23 12C23 5.93 18.07 1 12 1ZM15.71 14.29C16.1 14.68 16.1 15.31 15.71 15.7C15.51 15.9 15.26 15.99 15 15.99C14.74 15.99 14.49 15.89 14.29 15.7L12 13.41L9.71 15.7C9.51 15.9 9.26 15.99 9 15.99C8.74 15.99 8.49 15.89 8.29 15.7C7.9 15.31 7.9 14.68 8.29 14.29L10.58 12L8.29 9.71C7.9 9.32 7.9 8.69 8.29 8.3C8.68 7.91 9.31 7.91 9.7 8.3L11.99 10.59L14.28 8.3C14.67 7.91 15.3 7.91 15.69 8.3C16.08 8.69 16.08 9.32 15.69 9.71L13.4 12L15.69 14.29H15.71Z" fill="currentColor"/>
</svg>
