<svg viewBox="0 0 24 24" fill="none" xmlns="http://www.w3.org/2000/svg">
<path d="M12 1C5.93 1 1 5.93 1 12C1 18.07 5.93 23 12 23C18.07 23 23 18.07 23 12C23 5.93 18.07 1 12 1ZM12 21C7.04 21 3 16.96 3 12C3 7.04 7.04 3 12 3C16.96 3 21 7.04 21 12C21 16.96 16.96 21 12 21Z" fill="currentColor"/>
<path d="M15.71 8.29C15.32 7.9 14.69 7.9 14.3 8.29L12.01 10.58L9.72 8.29C9.33 7.9 8.7 7.9 8.31 8.29C7.92 8.68 7.92 9.31 8.31 9.7L10.6 11.99L8.31 14.28C7.92 14.67 7.92 15.3 8.31 15.69C8.51 15.89 8.76 15.98 9.02 15.98C9.28 15.98 9.53 15.88 9.73 15.69L12.02 13.4L14.31 15.69C14.51 15.89 14.76 15.98 15.02 15.98C15.28 15.98 15.53 15.88 15.73 15.69C16.12 15.3 16.12 14.67 15.73 14.28L13.44 11.99L15.73 9.7C16.12 9.31 16.12 8.68 15.73 8.29H15.71Z" fill="currentColor"/>
</svg>
