<svg viewBox="0 0 24 24" fill="none" xmlns="http://www.w3.org/2000/svg">
<path d="M18 1H6C3.24 1 1 3.24 1 6V15C1 17.76 3.24 20 6 20H10.76L16.55 22.89C16.69 22.96 16.84 23 17 23C17.18 23 17.37 22.95 17.53 22.85C17.82 22.67 18 22.35 18 22V20C20.76 20 23 17.76 23 15V6C23 3.24 20.76 1 18 1ZM21 15C21 16.65 19.65 18 18 18H17C16.45 18 16 18.45 16 19V20.38L11.45 18.1C11.31 18.03 11.16 17.99 11 17.99H6C4.35 17.99 3 16.64 3 14.99V6C3 4.35 4.35 3 6 3H18C19.65 3 21 4.35 21 6V15Z" fill="currentColor"/>
</svg>
