<svg viewBox="0 0 24 24" fill="none" xmlns="http://www.w3.org/2000/svg">
<path d="M15.23 8.36L10.93 13.52L8.7 11.29C8.31 10.9 7.68 10.9 7.29 11.29C6.9 11.68 6.9 12.31 7.29 12.7L10.29 15.7C10.48 15.89 10.73 15.99 11 15.99C11.02 15.99 11.03 15.99 11.05 15.99C11.33 15.98 11.59 15.85 11.77 15.63L16.77 9.63C17.12 9.21 17.07 8.57 16.64 8.22C16.22 7.87 15.59 7.92 15.23 8.35V8.36Z" fill="currentColor"/>
<path d="M12 1C5.93 1 1 5.93 1 12C1 18.07 5.93 23 12 23C18.07 23 23 18.07 23 12C23 5.93 18.07 1 12 1ZM12 21C7.04 21 3 16.96 3 12C3 7.04 7.04 3 12 3C16.96 3 21 7.04 21 12C21 16.96 16.96 21 12 21Z" fill="currentColor"/>
</svg>
