<svg viewBox="0 0 24 24" fill="none" xmlns="http://www.w3.org/2000/svg">
  <path
    fill-rule="evenodd"
    clip-rule="evenodd"
    d="M12 23C18.0751 23 23 18.0751 23 12C23 5.92487 18.0751 1 12 1C5.92487 1 1 5.92487 1 12C1 18.0751 5.92487 23 12 23ZM16.7809 9.62473C17.1259 9.19347 17.056 8.56418 16.6247 8.21917C16.1934 7.87416 15.5641 7.94408 15.2191 8.37534L11.0948 13.5307L8.68394 11.2705C8.28103 10.8928 7.6482 10.9132 7.27047 11.3161C6.89274 11.719 6.91315 12.3518 7.31606 12.7296L10.5161 15.7296C10.7195 15.9203 10.9933 16.0174 11.2714 15.9975C11.5495 15.9776 11.8067 15.8425 11.9809 15.6247L16.7809 9.62473Z"
    fill="currentColor"
  />
</svg>
