<svg viewBox="0 0 24 24" fill="none" xmlns="http://www.w3.org/2000/svg">
<path d="M14.6525 7.24581C14.2325 6.88581 13.6025 6.92581 13.2425 7.33581L6.9425 14.5358L4.7025 12.2958C4.3125 11.9058 3.6825 11.9058 3.2925 12.2958C2.9025 12.6858 2.9025 13.3158 3.2925 13.7058L6.2925 16.7058C6.4825 16.8958 6.7325 16.9958 7.0025 16.9958C7.0125 16.9958 7.0225 16.9958 7.0325 16.9958C7.3125 16.9958 7.5725 16.8658 7.7525 16.6558L14.7425 8.65581C15.1025 8.23581 15.0625 7.60581 14.6525 7.24581Z" fill="currentColor"/>
<path d="M20.6525 7.24581C20.2325 6.88581 19.6025 6.92581 19.2425 7.33581L12.9425 14.5358L12.7025 14.2958C12.3125 13.9058 11.6825 13.9058 11.2925 14.2958C10.9025 14.6858 10.9025 15.3158 11.2925 15.7058L12.2925 16.7058C12.4825 16.8958 12.7325 16.9958 13.0025 16.9958C13.0125 16.9958 13.0225 16.9958 13.0325 16.9958C13.3125 16.9958 13.5725 16.8658 13.7525 16.6558L20.7525 8.65581C21.1125 8.23581 21.0725 7.60581 20.6625 7.24581H20.6525Z" fill="currentColor"/>
</svg>
