<svg viewBox="0 0 24 24" fill="none" xmlns="http://www.w3.org/2000/svg">
<path d="M16.2797 14.2963L11.995 18.5887L7.71036 14.2963C7.32085 13.9061 6.69164 13.9061 6.30212 14.2963C5.91261 14.6865 5.91261 15.3168 6.30212 15.7071L11.2959 20.7098C11.4856 20.8999 11.7353 21 12.005 21C12.2747 21 12.5243 20.8899 12.7141 20.7098L17.7079 15.7071C18.0974 15.3168 18.0974 14.6865 17.7079 14.2963C17.3184 13.9061 16.6891 13.9061 16.2996 14.2963H16.2797Z" fill="currentColor"/>
<path d="M7.71036 9.71373L11.975 5.41134L16.2796 9.70372C16.4794 9.89383 16.7291 9.99389 16.9888 9.99389C17.2484 9.99389 17.4981 9.89383 17.6979 9.70372C18.0874 9.31351 18.0874 8.68316 17.6979 8.29294L12.6742 3.29016C12.4844 3.10006 12.2347 3 11.965 3C11.6954 3 11.4457 3.11006 11.2559 3.29016L6.29213 8.29294C5.90262 8.68316 5.90262 9.31351 6.29213 9.70372C6.68165 10.0939 7.32085 10.0939 7.71036 9.70372V9.71373Z" fill="currentColor"/>
</svg>
