<svg viewBox="0 0 24 24" fill="none" xmlns="http://www.w3.org/2000/svg">
<path d="M13.4125 12.0025L17.7125 7.7125C18.1025 7.3225 18.1025 6.6925 17.7125 6.3025C17.3225 5.9125 16.6925 5.9125 16.3025 6.3025L12.0125 10.5925L7.7125 6.2925C7.3225 5.9025 6.6825 5.9025 6.2925 6.2925C5.9025 6.6825 5.9025 7.3225 6.2925 7.7125L10.5825 12.0025L6.2925 16.2925C5.9025 16.6825 5.9025 17.3125 6.2925 17.7025C6.4925 17.9025 6.7425 17.9925 7.0025 17.9925C7.2625 17.9925 7.5125 17.8925 7.7125 17.7025L12.0025 13.4125L16.2925 17.7025C16.4925 17.9025 16.7425 17.9925 17.0025 17.9925C17.2625 17.9925 17.5125 17.8925 17.7125 17.7025C18.1025 17.3125 18.1025 16.6825 17.7125 16.2925L13.4225 12.0025H13.4125Z" fill="currentColor"/>
</svg>
