<svg viewBox="0 0 24 24" fill="none" xmlns="http://www.w3.org/2000/svg">
<path d="M13.4096 12.0063L20.6976 4.71321C21.0875 4.32305 21.0875 3.69279 20.6976 3.30263C20.3077 2.91246 19.6779 2.91246 19.288 3.30263L12 10.5957L4.71202 3.29262C4.32213 2.90246 3.68231 2.90246 3.29242 3.29262C2.90253 3.68278 2.90253 4.32305 3.29242 4.71321L10.5804 12.0063L3.29242 19.2993C2.90253 19.6895 2.90253 20.3197 3.29242 20.7099C3.49236 20.91 3.74229 21 4.00222 21C4.26215 21 4.51208 20.9 4.71202 20.7099L12 13.4168L19.288 20.7099C19.4879 20.91 19.7379 21 19.9978 21C20.2577 21 20.5076 20.9 20.7076 20.7099C21.0975 20.3197 21.0975 19.6895 20.7076 19.2993L13.4196 12.0063H13.4096Z" fill="currentColor"/>
</svg>
