<svg viewBox="0 0 24 24" fill="none" xmlns="http://www.w3.org/2000/svg">
<path d="M8 6H7.5C6.95 6 6.5 6.45 6.5 7C6.5 7.55 6.95 8 7.5 8H8C8.55 8 9 7.55 9 7C9 6.45 8.55 6 8 6Z" fill="currentColor"/>
<path d="M12.26 6H11.76C11.21 6 10.76 6.45 10.76 7C10.76 7.55 11.21 8 11.76 8H12.26C12.81 8 13.26 7.55 13.26 7C13.26 6.45 12.81 6 12.26 6Z" fill="currentColor"/>
<path d="M16.5 6H16C15.45 6 15 6.45 15 7C15 7.55 15.45 8 16 8H16.5C17.05 8 17.5 7.55 17.5 7C17.5 6.45 17.05 6 16.5 6Z" fill="currentColor"/>
<path d="M8 9H7.5C6.95 9 6.5 9.45 6.5 10C6.5 10.55 6.95 11 7.5 11H8C8.55 11 9 10.55 9 10C9 9.45 8.55 9 8 9Z" fill="currentColor"/>
<path d="M12.26 9H11.76C11.21 9 10.76 9.45 10.76 10C10.76 10.55 11.21 11 11.76 11H12.26C12.81 11 13.26 10.55 13.26 10C13.26 9.45 12.81 9 12.26 9Z" fill="currentColor"/>
<path d="M16.5 9H16C15.45 9 15 9.45 15 10C15 10.55 15.45 11 16 11H16.5C17.05 11 17.5 10.55 17.5 10C17.5 9.45 17.05 9 16.5 9Z" fill="currentColor"/>
<path d="M8 12H7.5C6.95 12 6.5 12.45 6.5 13C6.5 13.55 6.95 14 7.5 14H8C8.55 14 9 13.55 9 13C9 12.45 8.55 12 8 12Z" fill="currentColor"/>
<path d="M12.26 12H11.76C11.21 12 10.76 12.45 10.76 13C10.76 13.55 11.21 14 11.76 14H12.26C12.81 14 13.26 13.55 13.26 13C13.26 12.45 12.81 12 12.26 12Z" fill="currentColor"/>
<path d="M16.5 12H16C15.45 12 15 12.45 15 13C15 13.55 15.45 14 16 14H16.5C17.05 14 17.5 13.55 17.5 13C17.5 12.45 17.05 12 16.5 12Z" fill="currentColor"/>
<path d="M22 21H21V4C21 3.45 20.55 3 20 3H17.62L16.9 1.55C16.73 1.21 16.38 1 16 1H8C7.62 1 7.28 1.21 7.11 1.55L6.38 3H4C3.45 3 3 3.45 3 4V21H2C1.45 21 1 21.45 1 22C1 22.55 1.45 23 2 23H22C22.55 23 23 22.55 23 22C23 21.45 22.55 21 22 21ZM10 20.9V18H14V20.9H10ZM16 21V17C16 16.45 15.55 16 15 16H9C8.45 16 8 16.45 8 17V21H5V5H7C7.38 5 7.72 4.79 7.89 4.45L8.62 3H15.38L16.1 4.45C16.27 4.79 16.62 5 17 5H19V21H16Z" fill="currentColor"/>
</svg>
