<svg viewBox="0 0 24 24" fill="none" xmlns="http://www.w3.org/2000/svg">
<path d="M8 4C6.14 4 4.59 5.28 4.14 7L2 7C1.45 7 0.999999 7.45 0.999999 8C0.999999 8.55 1.45 9 2 9L4.14 9C4.59 10.72 6.14 12 8 12C9.86 12 11.41 10.72 11.86 9L22 9C22.55 9 23 8.55 23 8C23 7.45 22.55 7 22 7L11.86 7C11.41 5.28 9.86 4 8 4ZM10 8C10 9.1 9.1 10 8 10C6.9 10 6 9.1 6 8C6 6.9 6.9 6 8 6C9.1 6 10 6.9 10 8Z" fill="currentColor"/>
<path d="M12.14 15L2 15C1.45 15 1 15.45 1 16C1 16.55 1.45 17 2 17L12.14 17C12.59 18.72 14.14 20 16 20C17.86 20 19.41 18.72 19.86 17L22 17C22.55 17 23 16.55 23 16C23 15.45 22.55 15 22 15L19.86 15C19.41 13.28 17.86 12 16 12C14.14 12 12.59 13.28 12.14 15ZM18 16C18 17.1 17.1 18 16 18C14.9 18 14 17.1 14 16C14 14.9 14.9 14 16 14C17.1 14 18 14.9 18 16Z" fill="currentColor"/>
</svg>
