<svg viewBox="0 0 25 24" fill="none" xmlns="http://www.w3.org/2000/svg">
<path d="M21 8C21 6.14 19.72 4.59 18 4.14V2C18 1.45 17.55 1 17 1C16.45 1 16 1.45 16 2V4.14C14.28 4.59 13 6.14 13 8C13 9.86 14.28 11.41 16 11.86V22C16 22.55 16.45 23 17 23C17.55 23 18 22.55 18 22V11.86C19.72 11.41 21 9.86 21 8ZM17 10C15.9 10 15 9.1 15 8C15 6.9 15.9 6 17 6C18.1 6 19 6.9 19 8C19 9.1 18.1 10 17 10Z" fill="currentColor"/>
<path d="M10 12.14V2C10 1.45 9.55 1 9 1C8.45 1 8 1.45 8 2V12.14C6.28 12.59 5 14.14 5 16C5 17.86 6.28 19.41 8 19.86V22C8 22.55 8.45 23 9 23C9.55 23 10 22.55 10 22V19.86C11.72 19.41 13 17.86 13 16C13 14.14 11.72 12.59 10 12.14ZM9 18C7.9 18 7 17.1 7 16C7 14.9 7.9 14 9 14C10.1 14 11 14.9 11 16C11 17.1 10.1 18 9 18Z" fill="currentColor"/>
</svg>
