<svg viewBox="0 0 24 24" fill="none" xmlns="http://www.w3.org/2000/svg">
<path d="M22.7274 7.21462C22.3373 6.82449 21.7071 6.82449 21.3169 7.21462L18.0158 10.5157L13.5043 6.00421L16.8054 2.70308C17.1955 2.31295 17.1955 1.68273 16.8054 1.2926C16.4153 0.902467 15.785 0.902467 15.3949 1.2926L12.0938 4.59373L10.5833 3.08321C10.1931 2.69308 9.56292 2.69308 9.17279 3.08321L3.32079 8.90519C2.34046 9.88553 1.80027 11.186 1.80027 12.5764C1.80027 13.4267 2.02035 14.227 2.40048 14.9573L1.96033 15.3974C0.679891 16.6778 0.679891 18.7486 1.96033 20.019L3.98102 22.0397C4.62123 22.6799 5.45152 23 6.2918 23C7.13209 23 7.97238 22.6799 8.60259 22.0397L9.04274 21.5995C9.77299 21.9797 10.5733 22.1997 11.4236 22.1997C12.814 22.1997 14.1145 21.6595 15.0948 20.6792L20.9168 14.8572C21.1069 14.6672 21.2069 14.4171 21.2069 14.147C21.2069 13.8769 21.0969 13.6268 20.9168 13.4367L19.4063 11.9262L22.7074 8.6251C23.0975 8.23497 23.0975 7.60475 22.7074 7.21462H22.7274ZM5.4115 20.6292L3.39082 18.6085C3.15073 18.3684 3.02069 18.0483 3.02069 17.7082C3.02069 17.3681 3.15073 17.048 3.39082 16.8079L3.6409 16.5578L7.4622 20.3791L7.21212 20.6292C6.71195 21.1194 5.91167 21.1194 5.4115 20.6292ZM13.6943 19.2687C12.4939 20.4691 10.3932 20.4691 9.18279 19.2687L4.74128 14.8272C4.14107 14.227 3.81096 13.4267 3.81096 12.5764C3.81096 11.7262 4.14107 10.9259 4.74128 10.3257L9.86302 5.20393L18.8161 14.157L13.6943 19.2787V19.2687Z" fill="currentColor"/>
</svg>
