<svg viewBox="0 0 24 24" xmlns="http://www.w3.org/2000/svg">
<path d="M21.0967 8.95638C20.7365 4.02862 17.3647 1 12.1219 1C6.8791 1 3.5173 4.02862 3.1571 8.94639C1.79637 9.44616 0.925907 10.8455 1.14603 12.3249L1.75635 16.383C1.87642 17.2026 2.31665 17.9223 2.98701 18.4121C3.5273 18.8119 4.16764 19.0218 4.81799 19.0218C4.97808 19.0218 5.12816 19.0118 5.28825 18.9818L5.89857 18.8919C7.58948 18.632 8.76011 17.0527 8.49997 15.3735L7.88964 11.3153C7.76958 10.4957 7.32934 9.77601 6.65898 9.28623C6.21874 8.96638 5.70847 8.77646 5.17819 8.71649C5.58841 5.02817 8.0097 3.00909 12.1219 3.00909C16.2341 3.00909 18.6554 5.02817 19.0656 8.71649C18.5353 8.77646 18.0151 8.96638 17.5748 9.28623C16.9045 9.77601 16.4742 10.4957 16.3442 11.3153L15.7338 15.3735C15.6138 16.1931 15.8139 17.0027 16.3041 17.6724C16.4542 17.8823 16.6343 18.0522 16.8244 18.2122C15.944 19.9114 15.2236 21.0009 14.123 21.0009C14.123 20.4512 13.6727 20.0014 13.1224 20.0014H11.1214C10.5711 20.0014 10.1208 20.4512 10.1208 21.0009V22.0005C10.1208 22.5502 10.5711 23 11.1214 23H14.123C16.5043 23 17.6949 20.9309 18.6954 18.9518L18.9456 18.9918C19.1056 19.0118 19.2557 19.0318 19.4158 19.0318C20.0762 19.0318 20.7065 18.8219 21.2468 18.4221C21.9172 17.9323 22.3474 17.2126 22.4675 16.393L23.0778 12.3348C23.2979 10.8555 22.4374 9.46615 21.0867 8.96638L21.0967 8.95638ZM5.90858 11.6052L6.51891 15.6633C6.55893 15.9532 6.48889 16.2431 6.3188 16.473C6.14871 16.7129 5.88857 16.8628 5.59841 16.9028L4.98808 16.9927C4.69793 17.0327 4.40777 16.9627 4.17765 16.7928C3.93752 16.6229 3.78744 16.363 3.74742 16.0731L3.13709 12.015C3.09707 11.7251 3.16711 11.4353 3.3372 11.2054C3.50729 10.9655 3.76743 10.8155 4.05759 10.7756L4.66791 10.6856C4.72794 10.6856 4.77797 10.6756 4.838 10.6756C5.06813 10.6756 5.29825 10.7456 5.48835 10.8855C5.72848 11.0554 5.87856 11.3153 5.91858 11.6052H5.90858ZM20.4964 16.0831C20.4564 16.373 20.2963 16.6229 20.0662 16.8028C19.826 16.9727 19.5359 17.0527 19.2557 17.0027L18.6454 16.9128C18.3552 16.8728 18.0951 16.7129 17.925 16.483C17.7549 16.2531 17.6749 15.9532 17.7249 15.6733L18.3352 11.6152C18.3753 11.3253 18.5353 11.0754 18.7655 10.8955C19.0056 10.7256 19.2958 10.6456 19.5859 10.6956L20.1962 10.7856C20.4864 10.8255 20.7465 10.9855 20.9166 11.2154C21.0867 11.4552 21.1668 11.7451 21.1167 12.025L20.5064 16.0831H20.4964Z" fill="currentColor"/>
</svg>
