<svg viewBox="0 0 24 24" fill="none" xmlns="http://www.w3.org/2000/svg">
<path d="M14.84 11.36C15.54 10.81 16 9.96 16 9C16 7.34 14.65 6 13 6C11.35 6 10 7.35 10 9C10 9.96 10.46 10.81 11.16 11.36C10.53 11.61 9.96 11.98 9.46 12.47C8.52 13.42 8 14.67 8 16.01C8 16.56 8.45 17.01 9 17.01C9.55 17.01 10 16.56 10 16.01C10 15.21 10.31 14.46 10.88 13.89C12 12.77 14 12.77 15.12 13.89C15.69 14.46 16 15.21 16 16.01C16 16.56 16.45 17.01 17 17.01C17.55 17.01 18 16.56 18 16.01C18 14.68 17.48 13.42 16.54 12.47C16.05 11.98 15.47 11.61 14.84 11.36ZM13 8C13.55 8 14 8.45 14 9C14 9.55 13.55 10 13 10C12.45 10 12 9.55 12 9C12 8.45 12.45 8 13 8Z" fill="currentColor"/>
<path d="M20 1H5.5C3.85 1 2.5 2.35 2.5 4V6H2C1.45 6 1 6.45 1 7C1 7.55 1.45 8 2 8H2.5V11H2C1.45 11 1 11.45 1 12C1 12.55 1.45 13 2 13H2.5V16H2C1.45 16 1 16.45 1 17C1 17.55 1.45 18 2 18H2.5V20C2.5 21.65 3.85 23 5.5 23H20C21.65 23 23 21.65 23 20V4C23 2.35 21.65 1 20 1ZM21 20C21 20.55 20.55 21 20 21H5.5C4.95 21 4.5 20.55 4.5 20V18H5C5.55 18 6 17.55 6 17C6 16.45 5.55 16 5 16H4.5V13H5C5.55 13 6 12.55 6 12C6 11.45 5.55 11 5 11H4.5V8H5C5.55 8 6 7.55 6 7C6 6.45 5.55 6 5 6H4.5V4C4.5 3.45 4.95 3 5.5 3H20C20.55 3 21 3.45 21 4V20Z" fill="currentColor"/>
</svg>
