<svg viewBox="0 0 24 24" fill="none" xmlns="http://www.w3.org/2000/svg">
<path d="M20 19V2C20 1.45 19.55 1 19 1H15C14.45 1 14 1.45 14 2C14 2.55 14.45 3 15 3H18V18H6V17C6 16.45 5.55 16 5 16C4.45 16 4 16.45 4 17V19C4 19.55 4.45 20 5 20H19C19.55 20 20 19.55 20 19Z" fill="currentColor"/>
<path d="M22 4C21.45 4 21 4.45 21 5V21H8C7.45 21 7 21.45 7 22C7 22.55 7.45 23 8 23H22C22.55 23 23 22.55 23 22V5C23 4.45 22.55 4 22 4Z" fill="currentColor"/>
<path d="M10.5 14.54C11.02 14.34 11.27 13.76 11.08 13.25C10.88 12.73 10.3 12.48 9.79 12.67C9.22 12.89 8.62 13 8 13C5.24 13 3 10.76 3 8C3 5.24 5.24 3 8 3C10.76 3 13 5.24 13 8V8.79C13 9.48 12.57 10 12 10C11.26 10 11 9.23 11 8.5V6C11 5.45 10.55 5 10 5C9.72 5 9.47 5.12 9.29 5.3C8.9 5.11 8.47 5 8 5C6.35 5 5 6.35 5 8C5 9.65 6.35 11 8 11C8.56 11 9.08 10.84 9.52 10.57C10.04 11.46 10.92 12 12 12C13.68 12 15 10.59 15 8.79V8C15 4.14 11.86 1 8 1C4.14 1 1 4.14 1 8C1 11.86 4.14 15 8 15C8.86 15 9.7 14.84 10.5 14.54ZM8 9C7.45 9 7 8.55 7 8C7 7.45 7.45 7 8 7C8.55 7 9 7.45 9 8C9 8.55 8.55 9 8 9Z" fill="currentColor"/>
</svg>
