<svg viewBox="0 0 24 24" fill="none" xmlns="http://www.w3.org/2000/svg">
<path d="M21.48 5.94C21.48 5.85 21.46 5.77 21.43 5.68C21.42 5.65 21.41 5.62 21.4 5.59C21.35 5.48 21.29 5.38 21.2 5.3L17.2 1.29C17.11 1.2 17.01 1.14 16.91 1.09C16.88 1.08 16.85 1.07 16.82 1.06C16.74 1.03 16.65 1.01 16.56 1.01C16.54 1.01 16.52 1 16.5 1H9.5C7.85 1 6.5 2.35 6.5 4H5.5C3.85 4 2.5 5.35 2.5 7V20C2.5 21.65 3.85 23 5.5 23H15.5C17.15 23 18.5 21.65 18.5 20V19C20.15 19 21.5 17.65 21.5 16V6C21.5 6 21.49 5.96 21.49 5.94H21.48ZM16.49 20C16.49 20.55 16.04 21 15.49 21H5.49C4.94 21 4.49 20.55 4.49 20V7C4.49 6.45 4.94 6 5.49 6H6.49V16C6.49 17.65 7.84 19 9.49 19H16.49V20ZM18.49 17H9.49C8.94 17 8.49 16.55 8.49 16V4C8.49 3.45 8.94 3 9.49 3H15.49V6C15.49 6.55 15.94 7 16.49 7H19.49V16C19.49 16.55 19.04 17 18.49 17Z" fill="currentColor"/>
</svg>
