<svg viewBox="0 0 24 24" fill="none" xmlns="http://www.w3.org/2000/svg">
<path d="M16.77 10.03L14.1 10.66L12.87 8.51C12.51 7.89 11.49 7.89 11.13 8.51L9.9 10.66L7.22 10.03C6.85 9.94 6.46 10.07 6.22 10.37C5.98 10.66 5.92 11.07 6.08 11.42L7.88 15.42C8.04 15.78 8.4 16.01 8.79 16.01H15.2C15.59 16.01 15.95 15.78 16.11 15.42L17.9 11.42C18.06 11.07 18 10.67 17.76 10.37C17.52 10.08 17.13 9.95 16.76 10.03H16.77Z" fill="currentColor"/>
<path d="M12 1C5.93 1 1 5.93 1 12C1 18.07 5.93 23 12 23C18.07 23 23 18.07 23 12C23 5.93 18.07 1 12 1ZM12 21C7.04 21 3 16.96 3 12C3 7.04 7.04 3 12 3C16.96 3 21 7.04 21 12C21 16.96 16.96 21 12 21Z" fill="currentColor"/>
</svg>
