<svg viewBox="0 0 25 24" fill="none" xmlns="http://www.w3.org/2000/svg">
<path d="M13 1C6.93 1 2 5.93 2 12C2 18.07 6.93 23 13 23C19.07 23 24 18.07 24 12C24 5.93 19.07 1 13 1ZM18.46 10.78L17.17 15.28C17.05 15.71 16.65 16 16.21 16H9.8C9.35 16 8.96 15.71 8.84 15.28L7.54 10.78C7.43 10.41 7.55 10 7.85 9.75C8.14 9.49 8.56 9.43 8.91 9.59L10.99 10.52L12.14 8.5C12.5 7.88 13.52 7.88 13.88 8.5L15.03 10.51L17.1 9.58C17.45 9.42 17.87 9.48 18.16 9.74C18.45 9.99 18.57 10.4 18.47 10.77L18.46 10.78Z" fill="currentColor"/>
</svg>
