<svg viewBox="0 0 24 24" fill="none" xmlns="http://www.w3.org/2000/svg">
<path d="M20.1916 3.62C18.7616 1.96 16.6916 1 14.5016 1H8.00165C7.52165 1 7.11165 1.34 7.02165 1.8L6.38165 5H4.00165C3.45165 5 3.00165 5.45 3.00165 6C3.00165 6.55 3.45165 7 4.00165 7H5.98165L5.38165 10H3.00165C2.45165 10 2.00165 10.45 2.00165 11C2.00165 11.55 2.45165 12 3.00165 12H4.98165L3.02165 21.8C2.96165 22.09 3.04165 22.4 3.23165 22.63C3.42165 22.86 3.70165 23 4.00165 23H10.0016C10.4816 23 10.8916 22.66 10.9816 22.2L12.2216 16H14.5016C18.2316 16 21.3516 13.33 21.9116 9.64C22.2416 7.47 21.6216 5.28 20.1916 3.62ZM8.02165 7H14.5016C15.3316 7 16.0016 7.67 16.0016 8.5C16.0016 9.33 15.3316 10 14.5016 10H7.42165L8.02165 7ZM19.9416 9.34C19.5216 12.04 17.2416 14 14.5016 14H11.4016C10.9216 14 10.5116 14.34 10.4216 14.8L9.18165 21H5.22165L7.02165 12H14.5016C16.4316 12 18.0016 10.43 18.0016 8.5C18.0016 6.57 16.4316 5 14.5016 5H8.42165L8.82165 3H14.5016C16.1116 3 17.6316 3.7 18.6716 4.92C19.7216 6.14 20.1716 7.75 19.9316 9.34H19.9416Z" fill="currentColor"/>
</svg>
