<svg viewBox="0 0 24 24" fill="none" xmlns="http://www.w3.org/2000/svg">
<path d="M21.99 21.0082H20.99V10.6588C21.51 10.4086 21.98 10.0282 22.32 9.53776C22.96 8.61692 23.11 7.43585 22.71 6.3849L21.42 2.95177C20.98 1.78071 19.85 1 18.61 1H5.36C4.12 1 2.99 1.79072 2.55 2.95177L1.28 6.3849C0.89 7.43585 1.04 8.60692 1.68 9.52775C2.02 10.0182 2.48 10.3885 3 10.6388V20.9982H2C1.45 20.9982 1 21.4486 1 21.9991C1 22.5496 1.45 23 2 23H7.96C7.96 23 7.99 23 8.01 23C8.03 23 8.04 23 8.06 23H15.96C15.96 23 15.99 23 16.01 23C16.03 23 16.04 23 16.06 23H22C22.55 23 23 22.5496 23 21.9991C23 21.4486 22.55 20.9982 22 20.9982L21.99 21.0082ZM18.62 3.00182C19.04 3.00182 19.41 3.26206 19.56 3.65241L20.85 7.08553C21.02 7.52593 20.96 8.00637 20.69 8.39672C20.42 8.78708 20 9.00728 19.52 9.00728C18.84 9.00728 18.25 8.51683 18.12 7.84622L17.21 3.00182H18.62ZM12.99 3.00182H15.17L15.96 7.23567C16.04 7.67607 15.93 8.11647 15.64 8.46679C15.36 8.8071 14.94 9.00728 14.49 9.00728H14.48C13.66 9.00728 12.99 8.33667 12.99 7.51592V3.00182ZM10.99 7.51592C10.99 8.33667 10.32 9.00728 9.5 9.00728C9.06 9.00728 8.64 8.8071 8.35 8.46679C8.07 8.12648 7.95 7.67607 8.03 7.24568L8.81 3.01183H10.98V7.52593L10.99 7.51592ZM3.15 7.08553L4.43 3.65241C4.58 3.26206 4.95 3.00182 5.37 3.00182H6.78L5.88 7.83621C5.76 8.50682 5.17 8.99727 4.48 8.99727C4.01 8.99727 3.58 8.77707 3.31 8.38672C3.04 7.99636 2.98 7.52593 3.15 7.08553ZM12 16.0136C11.45 16.0136 11 15.5632 11 15.0127C11 14.4622 11.45 14.0118 12 14.0118C12.55 14.0118 13 14.4622 13 15.0127C13 15.5632 12.55 16.0136 12 16.0136ZM14.12 19.8972C14.44 20.2175 14.67 20.5978 14.81 21.0082H9.18C9.33 20.5978 9.56 20.2075 9.87 19.8972C10.99 18.7661 12.99 18.7762 14.11 19.8972H14.12ZM16.9 21.0082C16.71 20.0573 16.24 19.1865 15.54 18.4859C15.05 17.9954 14.47 17.6251 13.84 17.3749C14.54 16.8244 15 15.9736 15 15.0227C15 13.3712 13.65 12.02 12 12.02C10.35 12.02 9 13.3712 9 15.0227C9 15.9836 9.46 16.8244 10.16 17.3749C9.53 17.6251 8.96 17.9954 8.46 18.4859C7.76 19.1865 7.29 20.0573 7.1 21.0082H4.99V10.9591C5.77 10.8389 6.46 10.4686 6.98 9.9081C7.64 10.5987 8.53 11.0091 9.5 11.0091C10.47 11.0091 11.36 10.6087 11.99 9.95814C12.62 10.6087 13.51 11.0091 14.48 11.0091H14.49C15.45 11.0091 16.35 10.5987 17.01 9.9081C17.53 10.4586 18.22 10.8389 18.99 10.9591V21.0082H16.9Z" fill="currentColor"/>
</svg>
