<svg viewBox="0 0 25 24" fill="none" xmlns="http://www.w3.org/2000/svg">
<path d="M22.47 12.39C22.1 12.19 21.64 12.25 21.33 12.54C20.3 13.48 18.97 14 17.58 14C14.53 14 12.04 11.53 12.04 8.5C12.04 6.64 12.98 4.91 14.56 3.89C14.92 3.66 15.09 3.23 14.99 2.82C14.89 2.41 14.54 2.1 14.12 2.06C13.77 2.02 13.41 2 13.05 2C7.51 2 3 6.49 3 12C3 17.51 7.51 22 13.05 22C18.02 22 22.29 18.31 22.99 13.42C23.05 13 22.84 12.59 22.47 12.39ZM13.05 20C8.61 20 5 16.41 5 12C5 8.14 7.76 4.91 11.43 4.16C10.54 5.41 10.04 6.91 10.04 8.5C10.04 12.64 13.42 16 17.58 16C18.51 16 19.43 15.83 20.28 15.5C18.96 18.18 16.18 20 13.05 20Z" fill="currentColor"/>
</svg>
