<svg viewBox="0 0 24 24" fill="none" xmlns="http://www.w3.org/2000/svg">
<path d="M20 4H4C2.35 4 1 5.35071 1 7.00158V17.0068C1 18.6577 2.35 20.0084 4 20.0084H12C12.55 20.0084 13 19.5582 13 19.0079C13 18.4576 12.55 18.0074 12 18.0074H4C3.45 18.0074 3 17.5571 3 17.0068V10.0032H21V17.0068C21 17.5571 21.45 18.0074 22 18.0074C22.55 18.0074 23 17.5571 23 17.0068V7.00158C23 5.35071 21.65 4 20 4ZM3 8.00211V7.00158C3 6.45129 3.45 6.00105 4 6.00105H20C20.55 6.00105 21 6.45129 21 7.00158V8.00211H3Z" fill="currentColor"/>
<path d="M6 14.0053C5.45 14.0053 5 14.4555 5 15.0058C5 15.5561 5.45 16.0063 6 16.0063H11C11.55 16.0063 12 15.5561 12 15.0058C12 14.4555 11.55 14.0053 11 14.0053H6Z" fill="currentColor"/>
<path d="M16.98 15.0758C17.47 15.0758 17.72 15.346 17.82 15.5061C18.12 15.9663 18.74 16.1064 19.2 15.8062C19.66 15.5061 19.8 14.8857 19.5 14.4255C19.13 13.8552 18.6 13.465 17.98 13.2549V13.0147C17.98 12.4645 17.53 12.0142 16.98 12.0142C16.43 12.0142 15.98 12.4645 15.98 13.0147V13.2749C15.06 13.6651 14.41 14.5856 14.41 15.6461C14.41 16.3465 14.73 17.6372 16.91 18.3676C17.42 18.5377 17.64 19.0379 17.64 19.258C17.64 19.6182 17.35 19.9084 16.99 19.9084C16.74 19.9084 16.49 19.6582 16.23 19.128C15.98 18.6377 15.38 18.4376 14.88 18.6977C14.39 18.9479 14.19 19.5482 14.45 20.0484C14.87 20.8689 15.39 21.4092 15.99 21.6893V21.9995C15.99 22.5498 16.44 23 16.99 23C17.54 23 17.99 22.5498 17.99 21.9995V21.7093C18.96 21.3091 19.64 20.3586 19.64 19.248C19.64 18.2075 18.92 16.9168 17.55 16.4566C17 16.2765 16.41 15.9563 16.41 15.6261C16.41 15.2959 16.67 15.0558 16.98 15.0558V15.0758Z" fill="currentColor"/>
</svg>
