<svg viewBox="0 0 24 24" fill="none" xmlns="http://www.w3.org/2000/svg">
<path d="M15.9882 5C15.9882 2.79 14.199 1 11.99 1C9.781 1 7.99181 2.79 7.99181 5H1.99454C1.44479 5 0.994995 5.45 0.994995 6C0.994995 6.55 1.44479 7 1.99454 7H3.11403L4.78327 20.37C4.97319 21.87 6.2526 23 7.76192 23H16.2281C17.7374 23 19.0168 21.87 19.2067 20.37L20.876 7H21.9954C22.5452 7 22.995 6.55 22.995 6C22.995 5.45 22.5452 5 21.9954 5H15.9882ZM11.99 3C13.0895 3 13.9891 3.9 13.9891 5H9.99091C9.99091 3.9 10.8905 3 11.99 3ZM17.2176 20.12C17.1576 20.62 16.7278 21 16.2281 21H7.76192C7.26215 21 6.83234 20.62 6.77237 20.12L5.13311 7H18.8569L17.2176 20.12Z" fill="currentColor"/>
</svg>
