<svg viewBox="0 0 24 24" fill="none" xmlns="http://www.w3.org/2000/svg">
<path d="M21.21 16.67L18.19 20.55L16.38 19.1C15.95 18.76 15.32 18.82 14.97 19.26C14.62 19.69 14.69 20.32 15.13 20.67L17.73 22.75C17.91 22.89 18.13 22.97 18.35 22.97C18.39 22.97 18.43 22.97 18.47 22.97C18.74 22.94 18.98 22.8 19.14 22.59L22.78 17.91C23.12 17.47 23.04 16.85 22.6 16.51C22.16 16.17 21.54 16.25 21.2 16.69L21.21 16.67Z" fill="currentColor"/>
<path d="M15.33 14.42C15.33 12.58 14.3 11.24 12.56 10.85C10.78 10.45 10.78 9.83 10.78 9.33C10.78 8.66 11.32 8.11 11.99 8.11C12.66 8.11 13.21 8.66 13.21 9.33C13.21 9.88 13.66 10.33 14.21 10.33C14.76 10.33 15.21 9.88 15.21 9.33C15.21 7.91 14.28 6.72 13 6.29V6.02C13 5.47 12.55 5.02 12 5.02C11.45 5.02 11 5.47 11 6.02V6.28C9.72 6.7 8.78 7.9 8.78 9.32C8.78 11.15 9.87 12.29 12.12 12.8C12.42 12.87 13.33 13.07 13.33 14.42C13.33 15.15 12.73 15.75 12 15.75C11.27 15.75 10.67 15.15 10.67 14.42C10.67 13.87 10.22 13.42 9.67 13.42C9.12 13.42 8.67 13.87 8.67 14.42C8.67 15.91 9.65 17.15 11 17.58V17.97C11 18.52 11.45 18.97 12 18.97C12.55 18.97 13 18.52 13 17.97V17.58C14.35 17.15 15.33 15.91 15.33 14.42Z" fill="currentColor"/>
<path d="M17 1H7C3.69 1 1 3.69 1 7V17C1 20.31 3.69 23 7 23H12C12.55 23 13 22.55 13 22C13 21.45 12.55 21 12 21H7C4.79 21 3 19.21 3 17V7C3 4.79 4.79 3 7 3H17C19.21 3 21 4.79 21 7V13C21 13.55 21.45 14 22 14C22.55 14 23 13.55 23 13V7C23 3.69 20.31 1 17 1Z" fill="currentColor"/>
</svg>
