<svg viewBox="0 0 24 24" fill="none" xmlns="http://www.w3.org/2000/svg">
<path d="M21.9085 11.9887L22.7874 10.1087C23.2368 9.13872 22.8573 7.98872 21.9284 7.46872L19.9909 6.38872L19.5315 4.31872C19.3118 3.31872 18.3929 2.63872 17.3543 2.74872L15.0272 2.96872L13.2994 1.48872C12.5404 0.838721 11.4318 0.838721 10.6728 1.48872L8.92497 2.97872L6.61791 2.74872C5.5992 2.64872 4.6604 3.31872 4.44067 4.31872L3.96128 6.40872L2.03373 7.46872C1.10491 7.97872 0.725397 9.13872 1.17483 10.1087L2.05371 12.0087L1.17483 13.8887C0.725397 14.8587 1.10491 16.0087 2.03373 16.5287L3.97127 17.6087L4.43069 19.6787C4.65041 20.6787 5.57923 21.3587 6.60792 21.2487L8.93496 21.0287L10.6628 22.5087C11.0423 22.8387 11.5117 22.9987 11.9811 22.9987C12.4505 22.9987 12.9199 22.8387 13.2994 22.5087L15.0472 21.0187L17.3543 21.2487C18.373 21.3587 19.3118 20.6787 19.5315 19.6787L20.0109 17.5887L21.9384 16.5287C22.8673 16.0187 23.2468 14.8587 22.7973 13.8887L21.9185 11.9887H21.9085ZM8.47555 7.00872C9.30449 7.00872 9.97364 7.67872 9.97364 8.50872C9.97364 9.33872 9.30449 10.0087 8.47555 10.0087C7.6466 10.0087 6.97745 9.33872 6.97745 8.50872C6.97745 7.67872 7.6466 7.00872 8.47555 7.00872ZM15.4667 17.0087C14.6377 17.0087 13.9686 16.3387 13.9686 15.5087C13.9686 14.6787 14.6377 14.0087 15.4667 14.0087C16.2956 14.0087 16.9648 14.6787 16.9648 15.5087C16.9648 16.3387 16.2956 17.0087 15.4667 17.0087ZM16.6751 8.70872L8.68528 16.7087C8.48553 16.9087 8.23585 16.9987 7.97618 16.9987C7.71651 16.9987 7.46683 16.8987 7.26708 16.7087C6.87758 16.3187 6.87758 15.6887 7.26708 15.2987L15.2569 7.29872C15.6464 6.90872 16.2756 6.90872 16.6651 7.29872C17.0546 7.68872 17.0546 8.31872 16.6651 8.70872H16.6751Z" fill="currentColor"/>
</svg>
