<svg viewBox="0 0 24 24" fill="none" xmlns="http://www.w3.org/2000/svg">
<path d="M9.05496 16.0087C8.80496 16.0087 8.54496 15.9089 8.35496 15.7191C7.96496 15.3296 7.96496 14.7004 8.35496 14.3109L14.325 8.31835C14.715 7.92884 15.345 7.92884 15.735 8.31835C16.125 8.70787 16.125 9.33708 15.735 9.72659L9.76496 15.7191C9.57496 15.9189 9.31496 16.0087 9.06496 16.0087H9.05496Z" fill="currentColor"/>
<path d="M9.05496 10.5655C9.90548 10.5655 10.595 9.87245 10.595 9.01748C10.595 8.16251 9.90548 7.46941 9.05496 7.46941C8.20444 7.46941 7.51496 8.16251 7.51496 9.01748C7.51496 9.87245 8.20444 10.5655 9.05496 10.5655Z" fill="currentColor"/>
<path d="M15.025 16.5581C15.8755 16.5581 16.565 15.865 16.565 15.01C16.565 14.155 15.8755 13.4619 15.025 13.4619C14.1744 13.4619 13.485 14.155 13.485 15.01C13.485 15.865 14.1744 16.5581 15.025 16.5581Z" fill="currentColor"/>
<path d="M11.995 23C11.515 23 11.045 22.8302 10.665 22.4806L9.07496 21.0424L6.94496 21.2622C5.91496 21.372 5.00496 20.6929 4.78496 19.6841L4.34496 17.5868L2.49496 16.5081C1.60496 15.9988 1.25496 14.9001 1.67496 13.9613L2.54496 12.0037L1.67496 10.0362C1.25496 9.09738 1.61496 7.99875 2.49496 7.48939L4.34496 6.41074L4.79496 4.31336C5.00496 3.30462 5.93496 2.62547 6.95496 2.73533L9.08496 2.95506L10.675 1.51685C11.435 0.827715 12.585 0.827715 13.335 1.51685L14.925 2.95506L17.055 2.73533C18.065 2.62547 18.995 3.30462 19.215 4.31336L19.655 6.41074L21.505 7.48939C22.395 7.99875 22.745 9.09738 22.325 10.0362L21.455 11.9938L22.325 13.9613C22.735 14.9001 22.385 15.9988 21.495 16.5081L19.645 17.5868L19.195 19.6841C18.985 20.6929 18.055 21.362 17.035 21.2622L14.905 21.0424L13.315 22.4806C12.935 22.8202 12.455 23 11.985 23H11.995ZM9.07496 19.0449C9.56496 19.0449 10.045 19.2247 10.405 19.5543L11.995 20.9925L13.585 19.5543C14.005 19.1748 14.565 18.995 15.125 19.0549L17.255 19.2747L17.705 17.1773C17.825 16.618 18.175 16.1386 18.655 15.8589L20.505 14.7903L19.635 12.8227C19.405 12.3034 19.405 11.7141 19.635 11.1948L20.505 9.2372L18.655 8.15855C18.165 7.8789 17.825 7.3995 17.705 6.8402L17.255 4.74282L15.125 4.96255C14.555 5.02247 14.005 4.83271 13.585 4.46317L11.995 3.02497L10.405 4.46317C9.98496 4.8427 9.42496 5.02247 8.86496 4.96255L6.73496 4.74282L6.28496 6.8402C6.16496 7.3995 5.81496 7.8789 5.33496 8.15855L3.48496 9.22722L4.35496 11.1948C4.58496 11.7141 4.58496 12.3034 4.35496 12.8227L3.48496 14.7803L5.33496 15.8589C5.82496 16.1386 6.16496 16.618 6.28496 17.1773L6.73496 19.2747L8.86496 19.0549C8.93496 19.0549 9.00496 19.0449 9.07496 19.0449Z" fill="currentColor"/>
</svg>
