<svg viewBox="0 0 24 24" fill="none" xmlns="http://www.w3.org/2000/svg">
<path d="M12 1C5.93 1 1 5.93 1 12C1 18.07 5.93 23 12 23C18.07 23 23 18.07 23 12C23 5.93 18.07 1 12 1ZM13 17.58V17.97C13 18.52 12.55 18.97 12 18.97C11.45 18.97 11 18.52 11 17.97V17.58C9.65 17.15 8.67 15.91 8.67 14.42C8.67 13.87 9.12 13.42 9.67 13.42C10.22 13.42 10.67 13.87 10.67 14.42C10.67 15.15 11.27 15.75 12 15.75C12.73 15.75 13.33 15.15 13.33 14.42C13.33 13.07 12.42 12.87 12.12 12.8C9.87 12.29 8.78 11.16 8.78 9.32C8.78 7.9 9.72 6.7 11 6.28V6.02C11 5.47 11.45 5.02 12 5.02C12.55 5.02 13 5.47 13 6.02V6.29C14.28 6.71 15.21 7.91 15.21 9.33C15.21 9.88 14.76 10.33 14.21 10.33C13.66 10.33 13.21 9.88 13.21 9.33C13.21 8.66 12.67 8.12 12 8.12C11.33 8.12 10.78 8.66 10.78 9.33C10.78 9.83 10.78 10.45 12.56 10.85C14.29 11.24 15.33 12.58 15.33 14.42C15.33 15.91 14.35 17.15 13 17.58Z" fill="currentColor"/>
</svg>
