<svg viewBox="0 0 24 24" fill="none" xmlns="http://www.w3.org/2000/svg">
<path d="M12 1C5.93 1 1 5.93 1 12C1 18.07 5.93 23 12 23C18.07 23 23 18.07 23 12C23 5.93 18.07 1 12 1ZM12 21C7.04 21 3 16.96 3 12C3 7.04 7.04 3 12 3C16.96 3 21 7.04 21 12C21 16.96 16.96 21 12 21Z" fill="currentColor"/>
<path d="M12.56 10.85C10.78 10.45 10.78 9.83 10.78 9.33C10.78 8.66 11.32 8.12 11.99 8.12C12.66 8.12 13.21 8.66 13.21 9.33C13.21 9.88 13.66 10.33 14.21 10.33C14.76 10.33 15.21 9.88 15.21 9.33C15.21 7.91 14.28 6.72 13 6.29V6.02C13 5.47 12.55 5.02 12 5.02C11.45 5.02 11 5.47 11 6.02V6.28C9.72 6.7 8.78 7.9 8.78 9.32C8.78 11.15 9.87 12.29 12.12 12.8C12.42 12.87 13.33 13.07 13.33 14.42C13.33 15.15 12.73 15.75 12 15.75C11.27 15.75 10.67 15.15 10.67 14.42C10.67 13.87 10.22 13.42 9.67 13.42C9.12 13.42 8.67 13.87 8.67 14.42C8.67 15.91 9.65 17.15 11 17.58V17.97C11 18.52 11.45 18.97 12 18.97C12.55 18.97 13 18.52 13 17.97V17.58C14.35 17.15 15.33 15.91 15.33 14.42C15.33 12.58 14.29 11.24 12.56 10.85Z" fill="currentColor"/>
</svg>
