<svg viewBox="0 0 24 24" fill="none" xmlns="http://www.w3.org/2000/svg">
<path d="M11.29 16.71C11.38 16.8 11.49 16.88 11.62 16.93C11.74 16.98 11.87 17.01 12 17.01C12.13 17.01 12.26 16.98 12.38 16.93C12.5 16.88 12.61 16.81 12.71 16.71L16.71 12.71C17.1 12.32 17.1 11.69 16.71 11.3C16.32 10.91 15.69 10.91 15.3 11.3L13.01 13.59V2C13.01 1.45 12.56 1 12.01 1C11.46 1 11.01 1.45 11.01 2V13.59L8.72 11.3C8.33 10.91 7.7 10.91 7.31 11.3C6.92 11.69 6.92 12.32 7.31 12.71L11.31 16.71H11.29Z" fill="currentColor"/>
<path d="M22 14C21.45 14 21 14.45 21 15V20C21 20.55 20.55 21 20 21H4C3.45 21 3 20.55 3 20V15C3 14.45 2.55 14 2 14C1.45 14 1 14.45 1 15V20C1 21.65 2.35 23 4 23H20C21.65 23 23 21.65 23 20V15C23 14.45 22.55 14 22 14Z" fill="currentColor"/>
</svg>
