<svg viewBox="0 0 24 24" fill="none" xmlns="http://www.w3.org/2000/svg">
<path d="M22.715 5.41773L18.595 1.29632C18.205 0.90619 17.565 0.90619 17.175 1.29632L2.06505 16.4215C1.91505 16.5715 1.81505 16.7616 1.78505 16.9717L1.01505 21.8533C0.965047 22.1734 1.06505 22.4936 1.29505 22.7136C1.48505 22.9037 1.74505 23.0037 2.00505 23.0037C2.05505 23.0037 2.10505 23.0037 2.16505 22.9937L7.04505 22.2235C7.25505 22.1934 7.44505 22.0934 7.59505 21.9434L22.705 6.82821C23.095 6.43808 23.095 5.79786 22.705 5.40772L22.715 5.41773ZM6.41505 20.3028L3.21505 20.803L3.71505 17.6019L14.965 6.34805L17.665 9.04897L6.41505 20.3028ZM19.085 7.62848L16.385 4.92756L17.885 3.42705L20.585 6.12797L19.085 7.62848Z" fill="currentColor"/>
</svg>
