<svg viewBox="0 0 24 24" fill="none" xmlns="http://www.w3.org/2000/svg">
<path d="M20.01 3H3.99C2.34 3 1 4.34 1 5.99V18.01C1 19.66 2.34 21 3.99 21H20.01C21.66 21 23 19.66 23 18.01V5.99C23 4.34 21.66 3 20.01 3ZM3.99 5H20.01C20.56 5 21 5.44 21 5.99C21 6.31 20.84 6.62 20.58 6.8L12.57 12.41C12.23 12.65 11.77 12.65 11.43 12.41L3.42 6.8C3.16 6.61 3 6.31 3 5.99C3 5.44 3.44 5 3.99 5ZM20.01 19H3.99C3.44 19 3 18.56 3 18.01V8.95L10.28 14.05C10.79 14.41 11.39 14.59 12 14.59C12.61 14.59 13.2 14.41 13.71 14.05L21 8.95V18.01C21 18.56 20.56 19 20.01 19Z" fill="currentColor"/>
</svg>
