<svg viewBox="0 0 25 24" fill="none" xmlns="http://www.w3.org/2000/svg">
<path d="M13 1C6.93 1 2 5.93 2 12C2 18.07 6.93 23 13 23C19.07 23 24 18.07 24 12C24 5.93 19.07 1 13 1ZM14.5 8C14.5 7.45 14.95 7 15.5 7C16.05 7 16.5 7.45 16.5 8V10C16.5 10.55 16.05 11 15.5 11C14.95 11 14.5 10.55 14.5 10V8ZM9.5 8C9.5 7.45 9.95 7 10.5 7C11.05 7 11.5 7.45 11.5 8V10C11.5 10.55 11.05 11 10.5 11C9.95 11 9.5 10.55 9.5 10V8ZM18.92 14.4C17.89 16.75 15.57 18.27 13 18.27C10.43 18.27 8.11 16.75 7.08 14.4C6.86 13.89 7.08 13.3 7.6 13.08C8.11 12.86 8.7 13.08 8.92 13.6C9.63 15.22 11.23 16.27 13 16.27C14.77 16.27 16.37 15.22 17.08 13.6C17.3 13.09 17.89 12.86 18.4 13.08C18.91 13.3 19.14 13.89 18.92 14.4Z" fill="currentColor"/>
</svg>
