<svg viewBox="0 0 24 24" fill="none" xmlns="http://www.w3.org/2000/svg">
<path d="M23.99 7.84344C23.99 7.84344 23.99 7.76346 23.97 7.72347C23.95 7.66349 23.93 7.6135 23.9 7.56351C23.85 7.46353 23.79 7.37355 23.7 7.28357C23.68 7.26358 23.67 7.25358 23.65 7.23358C23.61 7.20359 23.58 7.1536 23.54 7.12361L22 6.14383V2.98455C22 2.43467 21.55 1.98478 21 1.98478H15.43L14.6 1.46489C13.63 0.845035 12.37 0.845035 11.39 1.46489L10.57 1.98478H5.01C4.46 1.98478 4.01 2.43467 4.01 2.98455V6.16383L2.47 7.1436C2.47 7.1436 2.4 7.21359 2.36 7.25358C2.34 7.27357 2.33 7.28357 2.31 7.30357C2.23 7.38355 2.16 7.47353 2.11 7.5835C2.08 7.63349 2.06 7.68348 2.04 7.74347C2.03 7.78346 2.03 7.82345 2.02 7.86344C2.02 7.91343 2 7.96342 2 8.01341V20.0007C2 21.6603 3.35 23 5 23H21C22.65 23 24 21.6503 24 20.0007V7.99341C24 7.94342 23.99 7.89343 23.98 7.84344H23.99ZM20.01 3.98432V9.12315L13.63 14.232C13.26 14.5219 12.75 14.5219 12.38 14.232L6 9.12315V3.98432H20.01ZM22.01 19.9907C22.01 20.5406 21.56 20.9905 21.01 20.9905H5.01C4.46 20.9905 4.01 20.5406 4.01 19.9907V10.0829L11.14 15.7916C12.24 16.6714 13.78 16.6714 14.89 15.7916L22.02 10.0829V19.9907H22.01Z" fill="currentColor"/>
<path d="M9.01 7.47353H12.01C12.56 7.47353 13.01 7.02363 13.01 6.47376C13.01 5.92388 12.56 5.47398 12.01 5.47398H9.01C8.46 5.47398 8.01 5.92388 8.01 6.47376C8.01 7.02363 8.46 7.47353 9.01 7.47353Z" fill="currentColor"/>
<path d="M9.01 10.4828H14.51C15.06 10.4828 15.51 10.0329 15.51 9.48307C15.51 8.9332 15.06 8.4833 14.51 8.4833H9.01C8.46 8.4833 8.01 8.9332 8.01 9.48307C8.01 10.0329 8.46 10.4828 9.01 10.4828Z" fill="currentColor"/>
</svg>
