<svg viewBox="0 0 24 24" fill="none" xmlns="http://www.w3.org/2000/svg">
<path d="M12 23C5.93 23 1 18.07 1 12C1 5.93 5.93 1 12 1C18.07 1 23 5.93 23 12C23 18.07 18.07 23 12 23ZM12 3C7.04 3 3 7.04 3 12C3 16.96 7.04 21 12 21C16.96 21 21 16.96 21 12C21 7.04 16.96 3 12 3Z" fill="currentColor"/>
<path d="M12 14C11.45 14 11 13.55 11 13V8C11 7.45 11.45 7 12 7C12.55 7 13 7.45 13 8V13C13 13.55 12.55 14 12 14Z" fill="currentColor"/>
<path d="M12 15C12.5523 15 13 15.4477 13 16C13 16.5523 12.5523 17 12 17C11.4477 17 11 16.5523 11 16C11 15.4477 11.4477 15 12 15Z" fill="currentColor"/>
</svg>
