<svg viewBox="0 0 24 24" fill="none" xmlns="http://www.w3.org/2000/svg">
<path d="M1 12C1 12.55 1.45 13 2 13H14.6L12.05 15.57C11.66 15.96 11.66 16.6 12.05 16.98C12.25 17.17 12.5 17.27 12.76 17.27C13.02 17.27 13.27 17.17 13.47 16.98L17.71 12.71C17.8 12.62 17.87 12.51 17.92 12.39C17.96 12.3 17.97 12.21 17.98 12.11C17.98 12.07 18 12.04 18 12C18 11.87 17.97 11.74 17.92 11.62C17.87 11.5 17.8 11.39 17.7 11.3L13.4 7.03C13.01 6.64 12.38 6.64 11.99 7.03C11.6 7.42 11.6 8.05 11.99 8.44L14.57 11H2C1.45 11 1 11.45 1 12Z" fill="currentColor"/>
<path d="M20 1H4C2.35 1 1 2.35 1 4V6C1 6.55 1.45 7 2 7C2.55 7 3 6.55 3 6V4C3 3.45 3.45 3 4 3H20C20.55 3 21 3.45 21 4V20C21 20.55 20.55 21 20 21H4C3.45 21 3 20.55 3 20V18C3 17.45 2.55 17 2 17C1.45 17 1 17.45 1 18V20C1 21.65 2.35 23 4 23H20C21.65 23 23 21.65 23 20V4C23 2.35 21.65 1 20 1Z" fill="currentColor"/>
</svg>
