<svg viewBox="0 0 24 24" fill="none" xmlns="http://www.w3.org/2000/svg">
<path d="M13.1351 18.9584C12.6451 19.4484 12.6451 20.2384 13.1351 20.7184L15.1351 22.7184C15.5051 23.0884 16.1051 23.0884 16.4851 22.7184C16.7351 22.4684 16.8251 22.0884 16.7151 21.7484L16.5551 21.2484C16.3551 20.6384 16.4451 19.9784 16.8051 19.4484L17.3751 18.5884C18.2351 17.2884 18.4251 15.6684 17.9051 14.1984L13.1451 18.9584H13.1351Z" fill="currentColor"/>
<path d="M3.27506 10.8584C3.75506 11.3384 4.54506 11.3384 5.02506 10.8584L9.76506 6.11843C8.30506 5.59843 6.69506 5.79843 5.40506 6.64843L4.54506 7.21843C4.01506 7.56843 3.35506 7.65843 2.75506 7.45843L2.25506 7.29843C1.91506 7.18843 1.54506 7.27843 1.29506 7.52843C0.925056 7.89843 0.925056 8.49843 1.29506 8.86843L3.28506 10.8584H3.27506Z" fill="currentColor"/>
<path d="M22.5851 1.40843C22.2551 1.07843 21.7851 0.93843 21.3251 1.02843L17.5451 1.79843C15.8651 2.13843 14.3151 2.97843 13.1051 4.18843L11.2551 6.03843L9.37506 7.90843L5.55506 11.7184C5.16506 12.1084 5.16506 12.7484 5.55506 13.1484L10.8151 18.4184C11.2051 18.8084 11.8451 18.8084 12.2451 18.4184L16.0651 14.6084L17.9451 12.7384L19.7951 10.8884C21.0151 9.67843 21.8451 8.12843 22.1951 6.44843L22.9751 2.66843C23.0651 2.20843 22.9251 1.73843 22.5951 1.40843H22.5851ZM17.9351 8.17843C17.3351 8.76843 16.3851 8.75843 15.7951 8.15843C15.2051 7.55843 15.2151 6.60843 15.8151 6.01843C16.4151 5.42843 17.3651 5.43843 17.9551 6.03843C18.5451 6.63843 18.5351 7.58843 17.9351 8.17843Z" fill="currentColor"/>
<path d="M2.62506 17.2884C1.76506 18.1484 1.21506 20.7384 1.01506 21.8184C0.955056 22.1384 1.05506 22.4684 1.29506 22.7084C1.48506 22.8984 1.73506 22.9984 2.00506 22.9984C2.06506 22.9984 2.12506 22.9984 2.18506 22.9784C3.25506 22.7784 5.84506 22.2284 6.71506 21.3684C7.83506 20.2484 7.83506 18.4084 6.71506 17.2884C5.59506 16.1584 3.75506 16.1684 2.63506 17.2884H2.62506Z" fill="currentColor"/>
</svg>
