<svg viewBox="0 0 24 24" fill="none" xmlns="http://www.w3.org/2000/svg">
  <path
    d="M14.5 8C13.6716 8 13 8.67157 13 9.5C13 10.3284 13.6716 11 14.5 11C15.3284 11 16 10.3284 16 9.5C16 8.67157 15.3284 8 14.5 8Z"
    fill="currentColor"
  />
  <path
    fill-rule="evenodd"
    clip-rule="evenodd"
    d="M7.83463 6.2908C8.76481 6.36238 9.66814 6.70537 10.4435 7.25379L13.5719 4.12541C14.5244 3.17265 15.7235 2.50383 17.0346 2.19419C18.3458 1.88453 19.7173 1.94618 20.9954 2.37223C21.294 2.47176 21.5283 2.70607 21.6278 3.00467C22.0539 4.28279 22.1155 5.6543 21.8059 6.96549C21.4962 8.27667 20.8275 9.47569 19.8747 10.4282L16.7628 13.5401C16.9346 13.787 17.086 14.0472 17.2149 14.3178C17.4862 14.8877 17.6536 15.4973 17.7011 16.1139C17.7486 16.7309 17.675 17.3452 17.475 17.9192C17.2748 18.4939 16.9531 19.0126 16.5254 19.4403L14.7073 21.2585C14.3167 21.649 13.6836 21.649 13.293 21.2585C12.3876 20.353 11.8087 19.1595 11.7131 17.9181C11.6829 17.5251 11.7021 17.1359 11.7699 16.7599L10.0675 17.8436C10.0273 17.8692 9.9858 17.8916 9.94335 17.9109C9.88518 18.2293 9.7827 18.5387 9.63838 18.8299C9.4389 19.2324 9.16337 19.5924 8.82711 19.89C7.6923 21.0108 6.20165 21.5219 5.07566 21.7631C4.49699 21.887 3.98456 21.9459 3.61511 21.9741C3.42977 21.9882 3.27872 21.9947 3.17132 21.9976C3.11757 21.9991 3.07461 21.9997 3.0436 21.9999L3.00615 22L2.99439 21.9999L2.99029 21.9999L2.98869 21.9999C2.98838 21.9999 2.9874 21.9998 3.00005 21.0001L2.9874 21.9998C2.44502 21.993 2.00699 21.5544 2.00013 21.012C2.00013 21.0123 2.00013 21.0128 3.00005 21.0001L2.00013 21.012L2.0001 21.0097L2.00007 21.0056L2 20.9938L2.00007 20.9564C2.00027 20.9254 2.00086 20.8824 2.00233 20.8287C2.00528 20.7213 2.01179 20.5702 2.02591 20.3849C2.05407 20.0154 2.113 19.503 2.23692 18.9243C2.47805 17.7983 2.98921 16.3077 4.11002 15.1729C4.40758 14.8366 4.76753 14.5611 5.17006 14.3616C5.4613 14.2173 5.77072 14.1148 6.08916 14.0566C6.10842 14.0142 6.13084 13.9727 6.15645 13.9325L7.25303 12.2099C6.85715 12.2874 6.44589 12.3107 6.03046 12.2788C4.78908 12.1832 3.59552 11.6043 2.69005 10.6988C2.50252 10.5113 2.39716 10.257 2.39716 9.99173C2.39716 9.72652 2.50252 9.47216 2.69005 9.28463L4.5082 7.46648C5.37696 6.59772 6.58699 6.19478 7.83463 6.2908ZM19.8688 4.13129C19.0892 3.95363 18.2769 3.95582 17.4943 4.14064C16.5446 4.36491 15.6762 4.84925 14.9864 5.53935L10.0743 10.4514L13.5486 13.9257L18.4606 9.01381C19.1507 8.32398 19.6352 7.45543 19.8594 6.5058C20.0443 5.7232 20.0464 4.91092 19.8688 4.13129ZM9.587 15.6423C9.45653 15.399 9.29725 15.1716 9.11216 14.9651C9.08783 14.9379 9.06204 14.9122 9.0349 14.8878C8.82839 14.7027 8.60097 14.5435 8.35774 14.413L8.27445 14.3297L9.38295 12.5884L11.4116 14.6171L9.67032 15.7256L9.587 15.6423ZM7.19774 16.0814C7.01255 16.0173 6.81646 15.9906 6.62086 16.0029C6.42514 16.0153 6.23384 16.0665 6.05813 16.1536C5.88241 16.2407 5.72579 16.3619 5.5974 16.5101C5.58177 16.5282 5.56549 16.5457 5.5486 16.5626C4.80366 17.3075 4.39975 18.3757 4.19258 19.3431C4.14982 19.5428 4.11647 19.7333 4.0905 19.9095C4.26664 19.8835 4.45716 19.8502 4.65687 19.8074C5.6243 19.6002 6.69248 19.1963 7.43742 18.4514C7.45431 18.4345 7.47179 18.4182 7.48985 18.4026C7.63809 18.2742 7.75928 18.1176 7.84636 17.9419C7.93344 17.7661 7.98466 17.5748 7.99704 17.3791C8.00941 17.1835 7.98273 16.9874 7.91857 16.8023L7.19774 16.0814ZM14.303 16.0059L15.3149 14.994C15.3482 15.0544 15.3796 15.1155 15.409 15.1773C15.5804 15.5373 15.6794 15.9085 15.707 16.2674C15.7346 16.626 15.6903 16.9628 15.5864 17.2613C15.4826 17.5591 15.3201 17.8172 15.1112 18.0261L14.0993 19.038C13.874 18.6296 13.7402 18.1924 13.7072 17.7646C13.6516 17.0421 13.8859 16.423 14.303 16.0059ZM4.91053 9.89258C5.31899 10.1179 5.75617 10.2517 6.18392 10.2847C6.9064 10.3403 7.52556 10.106 7.94267 9.68886L8.95455 8.67698C8.5461 8.4517 8.10892 8.31782 7.68117 8.2849C6.95868 8.2293 6.33953 8.46358 5.92241 8.8807L4.91053 9.89258Z"
    fill="currentColor"
  />
</svg>
