<svg viewBox="0 0 24 24" fill="none" xmlns="http://www.w3.org/2000/svg">
<path d="M22.888 9.38348C22.6476 8.64502 21.9865 8.14607 21.2153 8.12611L15.636 7.91655L13.7128 2.69749C13.4424 1.96902 12.7713 1.5 11.99 1.5C11.2087 1.5 10.5376 1.96902 10.2671 2.69749L8.34395 7.91655L2.76472 8.12611C1.98342 8.15605 1.33235 8.64502 1.09195 9.38348C0.851551 10.1219 1.09195 10.9103 1.70296 11.3893L6.09022 14.8221L4.5677 20.1709C4.35735 20.9193 4.6278 21.6977 5.25884 22.1467C5.88989 22.6058 6.71125 22.6157 7.36233 22.1866L12 19.0931L16.6377 22.1866C16.9482 22.3962 17.3088 22.496 17.6594 22.496C18.04 22.496 18.4106 22.3762 18.7412 22.1467C19.3722 21.6877 19.6426 20.9193 19.4323 20.1709L17.9098 14.8221L22.297 11.3893C22.9081 10.9103 23.1484 10.1219 22.9081 9.38348H22.888Z" fill="currentColor"/>
</svg>
