<svg viewBox="0 0 24 24" fill="none" xmlns="http://www.w3.org/2000/svg">
<path d="M6.3418 22C5.9618 22 5.5918 21.88 5.2618 21.65C4.6318 21.19 4.3618 20.42 4.5718 19.67L6.1018 14.32L1.7018 10.89C1.0918 10.41 0.851797 9.63 1.0918 8.89C1.3318 8.15 1.9918 7.66 2.7718 7.63L8.3518 7.42L10.2718 2.2C10.5418 1.47 11.2218 1 11.9918 1C12.7618 1 13.4418 1.47 13.7118 2.2L15.6318 7.42L21.2118 7.63C21.9918 7.66 22.6518 8.15 22.8918 8.89C23.1318 9.63 22.8918 10.41 22.2818 10.89L17.8918 14.32L19.4218 19.67C19.6318 20.42 19.3618 21.19 18.7318 21.65C18.1018 22.11 17.2718 22.12 16.6318 21.69L11.9918 18.59L7.3518 21.69C7.0418 21.9 6.6818 22 6.3318 22H6.3418ZM12.0018 16.39C12.1918 16.39 12.3918 16.45 12.5618 16.56L17.3818 19.77L15.8018 14.22C15.6918 13.83 15.8318 13.41 16.1518 13.16L20.7118 9.6L14.9218 9.38C14.5118 9.36 14.1618 9.11 14.0218 8.73L12.0218 3.31L10.0218 8.73C9.8818 9.11 9.5218 9.37 9.1218 9.38L3.3318 9.6L7.8918 13.16C8.2118 13.41 8.3518 13.83 8.2418 14.22L6.6618 19.77L11.4818 16.56C11.6518 16.45 11.8418 16.39 12.0418 16.39H12.0018Z" fill="currentColor"/>
</svg>
