<svg viewBox="0 0 24 24" fill="none" xmlns="http://www.w3.org/2000/svg">
<path d="M19 9V14C19 14.55 19.45 15 20 15C20.55 15 21 14.55 21 14V8C21 8 20.99 7.96 20.99 7.94C20.99 7.85 20.97 7.77 20.94 7.68C20.93 7.65 20.92 7.62 20.91 7.59C20.86 7.48 20.8 7.38 20.71 7.3L14.71 1.29C14.62 1.2 14.52 1.14 14.42 1.09C14.39 1.08 14.36 1.07 14.32 1.06C14.24 1.03 14.15 1.02 14.07 1.01C14.05 1.01 14.03 1 14 1H6C4.35 1 3 2.35 3 4V20C3 21.65 4.35 23 6 23H11C11.55 23 12 22.55 12 22C12 21.45 11.55 21 11 21H6C5.45 21 5 20.55 5 20V4C5 3.45 5.45 3 6 3H13V6C13 7.65 14.35 9 16 9H19ZM15 6V4.41L17.59 7H16C15.45 7 15 6.55 15 6Z" fill="currentColor"/>
<path d="M22.99 20.05C22.99 20.05 23 20.01 23 19.99C23 19.86 22.97 19.73 22.92 19.61C22.87 19.49 22.8 19.38 22.7 19.29L20.7 17.3C20.31 16.91 19.68 16.91 19.29 17.3C18.9 17.69 18.9 18.32 19.29 18.71L19.57 18.99H14.99C14.44 18.99 13.99 19.44 13.99 19.99C13.99 20.54 14.44 20.99 14.99 20.99H19.59L19.29 21.29C18.9 21.68 18.9 22.31 19.29 22.7C19.49 22.89 19.74 22.99 20 22.99C20.26 22.99 20.51 22.89 20.71 22.69L22.7 20.69C22.79 20.6 22.86 20.49 22.91 20.37C22.95 20.27 22.97 20.16 22.97 20.05H22.99Z" fill="currentColor"/>
</svg>
