<svg viewBox="0 0 24 24" fill="none" xmlns="http://www.w3.org/2000/svg">
<path d="M21.41 20L22.7 18.71C23.09 18.32 23.09 17.69 22.7 17.3C22.31 16.91 21.68 16.91 21.29 17.3L20 18.59L18.71 17.3C18.32 16.91 17.69 16.91 17.3 17.3C16.91 17.69 16.91 18.32 17.3 18.71L18.59 20L17.3 21.29C16.91 21.68 16.91 22.31 17.3 22.7C17.5 22.9 17.75 22.99 18.01 22.99C18.27 22.99 18.52 22.89 18.72 22.7L20.01 21.41L21.3 22.7C21.5 22.9 21.75 22.99 22.01 22.99C22.27 22.99 22.52 22.89 22.72 22.7C23.11 22.31 23.11 21.68 22.72 21.29L21.43 20H21.41Z" fill="currentColor"/>
<path d="M16 9H19V14C19 14.55 19.45 15 20 15C20.55 15 21 14.55 21 14V8C21 8 20.99 7.96 20.99 7.94C20.99 7.85 20.97 7.77 20.94 7.68C20.93 7.65 20.92 7.62 20.91 7.59C20.86 7.48 20.8 7.38 20.71 7.3L14.71 1.29C14.62 1.2 14.52 1.14 14.42 1.09C14.39 1.08 14.36 1.07 14.33 1.06C14.24 1.03 14.16 1.01 14.07 1.01C14.05 1.01 14.03 1 14.01 1H6C4.35 1 3 2.35 3 4V20C3 21.65 4.35 23 6 23H14C14.55 23 15 22.55 15 22C15 21.45 14.55 21 14 21H6C5.45 21 5 20.55 5 20V4C5 3.45 5.45 3 6 3H13V6C13 7.65 14.35 9 16 9ZM17.59 7H16C15.45 7 15 6.55 15 6V4.41L17.59 7Z" fill="currentColor"/>
</svg>
