<svg viewBox="0 0 24 24" fill="none" xmlns="http://www.w3.org/2000/svg">
<path d="M15.5954 7.04604C15.2555 6.94608 14.8856 7.02605 14.6256 7.26596C14.3657 7.50587 14.2557 7.86573 14.3257 8.2156C14.5257 9.14525 14.6256 10.8846 14.0358 11.6243C13.8958 11.7942 13.6659 11.9942 13.096 11.9942C12.5262 11.9942 12.1962 11.8142 11.9563 11.4044C11.2265 10.1749 11.5464 6.85611 13.9658 2.47777C14.1657 2.10791 14.1158 1.64809 13.8458 1.3382C13.5659 1.01833 13.126 0.918364 12.7261 1.06831C4.64812 4.21711 2.02877 12.6439 3.30846 17.2722C4.3182 20.9108 7.47742 23 11.9963 23C16.5152 23 19.6744 20.9108 20.6841 17.2722C21.8838 12.9238 19.5544 8.24559 15.5954 7.05604V7.04604ZM18.7546 16.7324C17.9948 19.4813 15.5954 21.0008 11.9963 21.0008C8.39719 21.0008 5.99779 19.4913 5.23797 16.7324C4.40818 13.7435 5.76784 7.63582 10.9066 4.2471C9.48692 7.6958 9.21698 10.6947 10.2367 12.424C10.8366 13.4336 11.8463 13.9934 13.096 13.9934C14.4157 13.9934 15.1755 13.3836 15.5954 12.8738C16.3152 11.9742 16.4952 10.7246 16.4852 9.68504C18.4947 11.1245 19.5044 14.0134 18.7546 16.7324Z" fill="currentColor"/>
</svg>
