<svg viewBox="0 0 24 24" fill="none" xmlns="http://www.w3.org/2000/svg">
<path d="M19.5 16C17.92 16 16.6 17.06 16.16 18.5H14C13.45 18.5 13 18.05 13 17.5V6.5C13 5.95 13.45 5.5 14 5.5H16.16C16.59 6.94 17.92 8 19.5 8C21.43 8 23 6.43 23 4.5C23 2.57 21.43 1 19.5 1C17.92 1 16.6 2.06 16.16 3.5H14C12.35 3.5 11 4.85 11 6.5V11H7.84C7.41 9.56 6.08 8.5 4.5 8.5C2.57 8.5 1 10.07 1 12C1 13.93 2.57 15.5 4.5 15.5C6.08 15.5 7.4 14.44 7.84 13H11V17.5C11 19.15 12.35 20.5 14 20.5H16.16C16.59 21.94 17.92 23 19.5 23C21.43 23 23 21.43 23 19.5C23 17.57 21.43 16 19.5 16ZM19.5 3C20.33 3 21 3.67 21 4.5C21 5.33 20.33 6 19.5 6C18.67 6 18 5.33 18 4.5C18 3.67 18.67 3 19.5 3ZM4.5 13.5C3.67 13.5 3 12.83 3 12C3 11.17 3.67 10.5 4.5 10.5C5.33 10.5 6 11.17 6 12C6 12.83 5.33 13.5 4.5 13.5ZM19.5 21C18.67 21 18 20.33 18 19.5C18 18.67 18.67 18 19.5 18C20.33 18 21 18.67 21 19.5C21 20.33 20.33 21 19.5 21Z" fill="currentColor"/>
</svg>
