<svg viewBox="0 0 24 24" fill="none" xmlns="http://www.w3.org/2000/svg">
<path d="M21.21 16.7L18.19 20.59L16.38 19.14C15.95 18.8 15.32 18.86 14.97 19.3C14.62 19.73 14.69 20.36 15.13 20.71L17.73 22.79C17.91 22.93 18.13 23.01 18.35 23.01C18.39 23.01 18.43 23.01 18.47 23.01C18.74 22.98 18.98 22.84 19.14 22.63L22.78 17.94C23.12 17.5 23.04 16.88 22.6 16.54C22.16 16.2 21.54 16.28 21.2 16.72L21.21 16.7Z" fill="currentColor"/>
<path d="M20 6.01H14.07C13.74 6.01 13.42 5.84 13.24 5.56L12.43 4.34C11.87 3.5 10.94 3 9.93 3H4C2.35 3 1 4.35 1 6V18.02C1 19.68 2.35 21.02 4 21.02H11C11.55 21.02 12 20.57 12 20.02C12 19.47 11.55 19.02 11 19.02H4C3.45 19.02 3 18.57 3 18.02V9.01C3 8.46 3.45 8.01 4 8.01H20C20.55 8.01 21 8.46 21 9.01V13.01C21 13.56 21.45 14.01 22 14.01C22.55 14.01 23 13.56 23 13.01V9.01C23 7.35 21.65 6.01 20 6.01ZM3 6.19V6C3 5.45 3.45 5 4 5H9.93C10.26 5 10.58 5.17 10.76 5.45L11.13 6.01H4C3.65 6.01 3.31 6.08 3 6.19Z" fill="currentColor"/>
</svg>
