<svg viewBox="0 0 24 24" fill="none" xmlns="http://www.w3.org/2000/svg">
<path d="M20 5.99006H14.07C13.74 5.99006 13.42 5.82006 13.24 5.55006L12.43 4.33006C11.87 3.50006 10.94 3.00006 9.93 3.00006H4C2.35 2.99006 1 4.33006 1 5.99006V17.9801C1 19.6301 2.35 20.9801 4 20.9801H9C9.55 20.9801 10 20.5301 10 19.9801C10 19.4301 9.55 18.9801 9 18.9801H4C3.45 18.9801 3 18.5301 3 17.9801V8.99006C3 8.44006 3.45 7.99006 4 7.99006H20C20.55 7.99006 21 8.44006 21 8.99006V12.9801C21 13.5301 21.45 13.9801 22 13.9801C22.55 13.9801 23 13.5301 23 12.9801V8.99006C23 7.34006 21.65 5.99006 20 5.99006ZM4 5.99006C3.65 5.99006 3.31 6.06006 3 6.17006V5.99006C3 5.44006 3.45 4.99006 4 4.99006H9.93C10.26 4.99006 10.58 5.16006 10.76 5.43006L11.13 5.98006H4V5.99006Z" fill="currentColor"/>
<path d="M22.89 18.5901C22.84 18.4701 22.76 18.3601 22.67 18.2701L19.65 15.2801C19.26 14.8901 18.63 14.8901 18.24 15.2801C17.85 15.6701 17.85 16.3001 18.24 16.6901L19.53 17.9701H13.99C13.44 17.9701 12.99 18.4201 12.99 18.9701C12.99 19.5201 13.44 19.9701 13.99 19.9701H19.55L18.25 21.2801C17.86 21.6701 17.86 22.3001 18.25 22.6901C18.45 22.8801 18.7 22.9801 18.96 22.9801C19.22 22.9801 19.47 22.8801 19.67 22.6901L22.66 19.6801C22.66 19.6801 22.66 19.6601 22.68 19.6601C22.76 19.5701 22.83 19.4701 22.88 19.3601C22.92 19.2701 22.93 19.1701 22.94 19.0701C22.94 19.0401 22.96 19.0101 22.96 18.9701C22.96 18.8401 22.93 18.7101 22.88 18.5901H22.89Z" fill="currentColor"/>
</svg>
