<svg viewBox="0 0 24 24" fill="none" xmlns="http://www.w3.org/2000/svg">
<path d="M22.3651 10.166C22.0051 9.70627 21.5352 9.38645 21.0054 9.19656V9.00666C21.0054 7.35758 19.6557 6.00833 18.0061 6.00833H14.077C13.7371 6.00833 13.4271 5.83842 13.2472 5.55858L12.4374 4.33926C11.8775 3.49972 10.9477 3 9.93793 3H3.99931C2.34969 3.00999 1 4.35924 1 6.00833V18.0017C1 19.6507 2.34969 21 3.99931 21C4.06929 21 4.13927 20.97 4.20926 20.96C4.32923 20.98 4.4492 21 4.57917 21H18.456C19.8256 21 21.0254 20.0705 21.3653 18.7512L22.9049 12.7546C23.1349 11.8551 22.9449 10.9056 22.3651 10.176V10.166ZM3.99931 5.00888H9.92793C10.2679 5.00888 10.5778 5.17879 10.7577 5.45863L11.5676 6.67796C12.1274 7.51749 13.0572 8.01721 14.067 8.01721H17.9961C18.5459 8.01721 18.9958 8.46696 18.9958 9.01666H6.11882C4.74913 9.01666 3.54941 9.94614 3.20949 11.2654L2.99954 12.0949V6.00833C2.99954 5.45863 3.44943 5.00888 3.99931 5.00888ZM20.9654 12.2549L19.4257 18.2515C19.3158 18.6913 18.9159 19.0011 18.456 19.0011H4.57917C4.26924 19.0011 3.97931 18.8612 3.78935 18.6113C3.5994 18.3615 3.52941 18.0516 3.6094 17.7518L5.14904 11.7551C5.25902 11.3154 5.65892 11.0056 6.11882 11.0056H19.9956C20.3055 11.0056 20.5955 11.1455 20.7854 11.3953C20.9754 11.6452 21.0454 11.955 20.9654 12.2549Z" fill="currentColor"/>
</svg>
