<svg viewBox="0 0 24 24" fill="none" xmlns="http://www.w3.org/2000/svg">
<path d="M16.7766 11.6953C17.9357 11.6953 19.0849 11.1951 19.8743 10.2347L22.0827 7.55358C22.7622 6.72323 23.082 5.6828 22.9821 4.62236C22.8821 3.55192 22.3625 2.59152 21.5431 1.91123C19.8344 0.510651 17.3062 0.750751 15.8972 2.45146L13.6889 5.13257C13.0093 5.96292 12.6896 7.00335 12.7895 8.06379C12.8595 8.78409 13.1293 9.45437 13.539 10.0246L12.13 11.7353L10.1115 9.31431C10.5212 8.74407 10.791 8.0738 10.8509 7.3535C10.9509 6.29306 10.6211 5.25262 9.94159 4.43228L7.38346 1.361C7.03372 0.94083 6.40418 0.880805 5.97449 1.23095C5.5548 1.5811 5.49485 2.21136 5.84459 2.64154L8.40272 5.71281C8.74247 6.12298 8.90235 6.6432 8.86238 7.17342C8.8424 7.3535 8.80243 7.51356 8.74247 7.67363L5.07515 3.2718C4.72541 2.85162 4.09587 2.7916 3.66618 3.14175C3.24649 3.49189 3.18653 4.12215 3.53628 4.55233L7.2036 8.94416C6.52409 9.06421 5.80462 8.82411 5.32497 8.26387L2.76684 5.1926C2.4171 4.76242 1.78756 4.7124 1.35787 5.06254C0.938179 5.41269 0.878223 6.04295 1.22797 6.47313L3.7861 9.54441C4.57552 10.4948 5.71468 10.985 6.86384 10.985C7.44342 10.985 8.023 10.8449 8.5626 10.5848L10.8209 13.296L4.17581 21.3593C3.82607 21.7895 3.88602 22.4198 4.31571 22.7699C4.50557 22.92 4.72541 23 4.95524 23C5.24503 23 5.52482 22.8799 5.72468 22.6399L12.13 14.8666L18.6152 22.6399C18.8151 22.8799 19.0949 23 19.3847 23C19.6145 23 19.8344 22.92 20.0242 22.7699C20.4439 22.4198 20.5039 21.7895 20.1541 21.3593L13.429 13.296L15.0778 11.2951C15.6174 11.5452 16.187 11.6853 16.7666 11.6853L16.7766 11.6953ZM15.2277 6.41311L17.4361 3.73199C18.1456 2.87163 19.4147 2.75158 20.264 3.46188C20.6737 3.80202 20.9336 4.28222 20.9835 4.82244C21.0335 5.36267 20.8736 5.88288 20.5338 6.29306L18.3255 8.97417C17.616 9.83453 16.3469 9.95458 15.4975 9.24428C15.0878 8.90414 14.828 8.42394 14.7781 7.88372C14.7281 7.3535 14.888 6.83328 15.2277 6.41311Z" fill="currentColor"/>
</svg>
