<svg viewBox="0 0 24 24" fill="none" xmlns="http://www.w3.org/2000/svg">
<path d="M14.71 9.88C15.1 10.27 15.73 10.27 16.12 9.88C16.51 9.49 16.51 8.86 16.12 8.47C14.17 6.52 11 6.52 9.05 8.47C8.35 9.17 7.88 10.05 7.69 11.01H7.5C6.95 11.01 6.5 11.46 6.5 12.01C6.5 12.56 6.95 13.01 7.5 13.01H7.69C7.88 13.96 8.35 14.84 9.05 15.55C10.02 16.53 11.31 17.01 12.59 17.01C13.87 17.01 15.15 16.52 16.13 15.55C16.52 15.16 16.52 14.53 16.13 14.14C15.74 13.75 15.11 13.75 14.72 14.14C13.55 15.31 11.65 15.31 10.48 14.14C10.16 13.82 9.93 13.43 9.78 13.02H13.01C13.56 13.02 14.01 12.57 14.01 12.02C14.01 11.47 13.56 11.02 13.01 11.02H9.78C9.93 10.6 10.16 10.22 10.48 9.9C11.65 8.73 13.55 8.73 14.72 9.9L14.71 9.88Z" fill="currentColor"/>
<path d="M12 1C5.93 1 1 5.93 1 12C1 18.07 5.93 23 12 23C18.07 23 23 18.07 23 12C23 5.93 18.07 1 12 1ZM12 21C7.04 21 3 16.96 3 12C3 7.04 7.04 3 12 3C16.96 3 21 7.04 21 12C21 16.96 16.96 21 12 21Z" fill="currentColor"/>
</svg>
