<svg viewBox="0 0 24 24" fill="none" xmlns="http://www.w3.org/2000/svg">
  <path
    fill-rule="evenodd"
    clip-rule="evenodd"
    d="M10.1525 3.50038C11.0501 3.14508 12.0248 2.95048 13.0436 2.95048C17.4971 2.95048 21.1074 6.67122 21.1074 11.261C21.1074 12.9161 20.5632 14.5091 19.5834 15.8564C19.8066 15.026 19.9258 14.1512 19.9258 13.2476C19.9258 7.86153 15.6891 3.49524 10.4629 3.49524C10.3591 3.49524 10.2556 3.49696 10.1525 3.50038ZM6.22599 6.78114L6.24327 6.79252L6.26891 6.75143C7.4695 5.92653 8.91172 5.44571 10.4629 5.44571C14.6439 5.44571 18.0332 8.93875 18.0332 13.2476C18.0332 15.457 17.1421 17.4519 15.7101 18.8714C15.6694 18.8884 15.6286 18.9052 15.5876 18.9217L15.6067 18.972C14.2563 20.2614 12.4489 21.0495 10.4629 21.0495C6.28193 21.0495 2.89258 17.5565 2.89258 13.2476C2.89258 10.5565 4.21467 8.18358 6.22599 6.78114ZM4.89821 5.35883C6.69877 2.72419 9.67551 1 13.0436 1C18.5424 1 23 5.59401 23 11.261C23 15.2746 20.5087 18.8225 16.7527 20.5341C15.0808 22.068 12.8775 23 10.4629 23C5.23669 23 1 18.6337 1 13.2476C1 10.005 2.53559 7.13198 4.89821 5.35883ZM11.6379 9.15619C10.4335 9.15619 9.37921 9.81876 8.79955 10.8095H12.2303C12.7529 10.8095 13.1766 11.2462 13.1766 11.7848C13.1766 12.3234 12.7529 12.76 12.2303 12.76H8.3259V13.7352H12.2303C12.7529 13.7352 13.1766 14.1719 13.1766 14.7105C13.1766 15.2491 12.7529 15.6857 12.2303 15.6857H8.79719C9.37634 16.6787 10.4318 17.3431 11.6379 17.3431H12.2305C12.7531 17.3431 13.1768 17.7797 13.1768 18.3183C13.1768 18.8569 12.7531 19.2936 12.2305 19.2936H11.6379C9.36022 19.2936 7.42425 17.7857 6.71861 15.6857H6.07846C5.55583 15.6857 5.13217 15.2491 5.13217 14.7105C5.13217 14.1719 5.55583 13.7352 6.07846 13.7352H6.43331V12.76H6.07846C5.55583 12.76 5.13217 12.3234 5.13217 11.7848C5.13217 11.2462 5.55583 10.8095 6.07846 10.8095H6.71997C7.42674 8.71165 9.36168 7.20571 11.6379 7.20571H12.2305C12.7531 7.20571 13.1768 7.64234 13.1768 8.18095C13.1768 8.71956 12.7531 9.15619 12.2305 9.15619H11.6379Z"
    fill="currentColor"
  />
</svg>
