<svg viewBox="0 0 24 24" fill="none" xmlns="http://www.w3.org/2000/svg">
<path d="M12 1C5.93 1 1 5.93 1 12C1 18.07 5.93 23 12 23C18.07 23 23 18.07 23 12C23 5.93 18.07 1 12 1ZM12 21C7.04 21 3 16.96 3 12C3 7.04 7.04 3 12 3C16.96 3 21 7.04 21 12C21 16.96 16.96 21 12 21Z" fill="currentColor"/>
<path d="M16.5 7C15.95 7 15.5 7.45 15.5 8V14C15.5 14.55 15.05 15 14.5 15H12.5C11.95 15 11.5 14.55 11.5 14V11C11.5 10.45 11.05 10 10.5 10C9.95 10 9.5 10.45 9.5 11V14C9.5 15.65 10.85 17 12.5 17H14.5C16.15 17 17.5 15.65 17.5 14V8C17.5 7.45 17.05 7 16.5 7Z" fill="currentColor"/>
<path d="M11.5 9C12.05 9 12.5 9.45 12.5 10V13C12.5 13.55 12.95 14 13.5 14C14.05 14 14.5 13.55 14.5 13V10C14.5 8.35 13.15 7 11.5 7H9.5C7.85 7 6.5 8.35 6.5 10V16C6.5 16.55 6.95 17 7.5 17C8.05 17 8.5 16.55 8.5 16V10C8.5 9.45 8.95 9 9.5 9H11.5Z" fill="currentColor"/>
</svg>
