<svg viewBox="0 0 24 24" fill="none" xmlns="http://www.w3.org/2000/svg">
<path d="M15.05 15.5H11.46C11.88 14.66 12.05 13.83 11.97 13.01H14.55C15.1 13.01 15.55 12.56 15.55 12.01C15.55 11.46 15.1 11.01 14.55 11.01H11.28C10.77 9.95 10.62 9.32 11.06 8.83C12.17 7.57 13.68 8.3 14.4 8.92C14.82 9.29 15.45 9.24 15.81 8.82C16.17 8.4 16.13 7.77 15.71 7.41C14.01 5.92 11.35 5.48 9.56 7.5C8.54 8.65 8.72 9.96 9.1 11.01H8.05C7.5 11.01 7.05 11.46 7.05 12.01C7.05 12.56 7.5 13.01 8.05 13.01H9.95C10.11 13.86 9.73 14.79 8.81 15.83C8.55 16.12 8.48 16.54 8.64 16.9C8.8 17.26 9.16 17.49 9.55 17.49H15.05C15.6 17.49 16.05 17.04 16.05 16.49C16.05 15.94 15.6 15.49 15.05 15.49V15.5Z" fill="currentColor"/>
<path d="M12 1C5.93 1 1 5.93 1 12C1 18.07 5.93 23 12 23C18.07 23 23 18.07 23 12C23 5.93 18.07 1 12 1ZM12 21C7.04 21 3 16.96 3 12C3 7.04 7.04 3 12 3C16.96 3 21 7.04 21 12C21 16.96 16.96 21 12 21Z" fill="currentColor"/>
</svg>
