<svg viewBox="0 0 24 24" fill="none" xmlns="http://www.w3.org/2000/svg">
<path d="M22.62 11.2201L12.62 3.22014C12.32 2.98014 11.91 2.93014 11.56 3.10014C11.21 3.27014 10.99 3.62014 10.99 4.00014V8.34014C6.02001 9.41014 1.00001 12.7001 1.00001 19.0001C1.00001 19.4301 1.28001 19.8101 1.68001 19.9501C2.09001 20.0901 2.54001 19.9501 2.80001 19.6001C5.30001 16.2701 7.83001 15.5401 11 15.7001V20.0001C11 20.3801 11.22 20.7301 11.57 20.9001C11.71 20.9701 11.86 21.0001 12 21.0001C12.22 21.0001 12.44 20.9301 12.62 20.7801L22.62 12.7801C22.86 12.5901 23 12.3001 23 12.0001C23 11.7001 22.86 11.4101 22.62 11.2201ZM13 17.9201V14.7701C13 14.2501 12.61 13.8201 12.09 13.7701C11.47 13.7101 10.84 13.6701 10.21 13.6701C8.00001 13.6701 5.74001 14.1401 3.57001 15.8901C5.29001 11.6501 10.38 10.4401 12.16 10.1501C12.64 10.0701 13 9.65014 13 9.16014V6.07014L20.4 11.9901L13 17.9101V17.9201Z" fill="currentColor"/>
</svg>
