<svg viewBox="0 0 24 24" fill="none" xmlns="http://www.w3.org/2000/svg">
<path d="M22 1H16C15.45 1 15 1.45 15 2C15 2.55 15.45 3 16 3H21V8C21 8.55 21.45 9 22 9C22.55 9 23 8.55 23 8V2C23 1.45 22.55 1 22 1Z" fill="currentColor"/>
<path d="M8 1H2C1.45 1 1 1.45 1 2V8C1 8.55 1.45 9 2 9C2.55 9 3 8.55 3 8V3H8C8.55 3 9 2.55 9 2C9 1.45 8.55 1 8 1Z" fill="currentColor"/>
<path d="M8 21H3V16C3 15.45 2.55 15 2 15C1.45 15 1 15.45 1 16V22C1 22.55 1.45 23 2 23H8C8.55 23 9 22.55 9 22C9 21.45 8.55 21 8 21Z" fill="currentColor"/>
<path d="M22 15C21.45 15 21 15.45 21 16V21H16C15.45 21 15 21.45 15 22C15 22.55 15.45 23 16 23H22C22.55 23 23 22.55 23 22V16C23 15.45 22.55 15 22 15Z" fill="currentColor"/>
</svg>
