<svg viewBox="0 0 24 24" fill="none" xmlns="http://www.w3.org/2000/svg">
<path d="M21.2568 15.3435L19.6568 9.83598C19.1868 8.22672 18.0468 6.86733 16.5268 6.11767L16.2768 5.99773C15.9968 5.85779 15.6968 5.73785 15.4068 5.6279C16.3768 4.71831 16.9868 3.4289 16.9868 1.99955C16.9868 1.4498 16.5368 1 15.9868 1H7.98684C7.43684 1 6.98684 1.4498 6.98684 1.99955C6.98684 3.4289 7.59684 4.71831 8.56684 5.6279C8.26684 5.73785 7.97684 5.85779 7.69684 5.99773L7.44684 6.11767C5.92684 6.86733 4.78684 8.21672 4.31684 9.83598L2.73684 15.3435C2.21684 17.1527 2.56684 19.0518 3.69684 20.5711C4.85684 22.1104 6.63684 23 8.57684 23H15.4168C17.3568 23 19.1368 22.1204 20.2968 20.5711C21.4368 19.0618 21.7868 17.1527 21.2568 15.3435ZM14.8268 2.99909C14.4168 4.15856 13.3068 4.99818 11.9968 4.99818C10.6868 4.99818 9.57684 4.15856 9.16684 2.99909H14.8268ZM18.6968 19.3617C17.9168 20.3912 16.7268 20.9909 15.4168 20.9909H8.57684C7.26684 20.9909 6.07684 20.4012 5.29684 19.3617C4.54684 18.3621 4.30684 17.0927 4.65684 15.8932L6.25684 10.3857C6.56684 9.31622 7.32684 8.40663 8.34684 7.90686L8.59684 7.78691C9.64684 7.26715 10.8268 6.99727 11.9968 6.99727C13.1668 6.99727 14.3468 7.26715 15.3968 7.78691L15.6468 7.90686C16.6668 8.40663 17.4268 9.31622 17.7368 10.3857L19.3368 15.8932C19.6868 17.0927 19.4568 18.3521 18.6968 19.3617Z" fill="currentColor"/>
<path d="M11.9868 12.5048C12.3568 12.5048 12.5468 12.6847 12.6468 12.8446C12.9468 13.3044 13.5668 13.4443 14.0268 13.1445C14.4868 12.8446 14.6268 12.2249 14.3268 11.7651C13.9968 11.2653 13.5268 10.9155 12.9868 10.7056V10.5657C12.9868 10.0159 12.5368 9.56611 11.9868 9.56611C11.4368 9.56611 10.9868 10.0159 10.9868 10.5657V10.7356C10.1568 11.1154 9.57684 11.945 9.57684 12.9146C9.57684 13.5743 9.87685 14.7737 11.8768 15.4434C12.2868 15.5834 12.4568 15.9932 12.4568 16.1331C12.4568 16.393 12.2468 16.6129 11.9768 16.6129C11.8068 16.6129 11.6068 16.393 11.3868 15.9732C11.1368 15.4834 10.5368 15.2835 10.0368 15.5434C9.54684 15.7933 9.34684 16.393 9.60684 16.8928C9.97684 17.6124 10.4368 18.0822 10.9768 18.3521V18.592C10.9768 19.1418 11.4268 19.5915 11.9768 19.5915C12.5268 19.5915 12.9768 19.1418 12.9768 18.592V18.4021C13.8468 18.0123 14.4568 17.1527 14.4568 16.1431C14.4568 15.1336 13.7868 13.9841 12.5168 13.5543C11.9568 13.3644 11.5768 13.1145 11.5768 12.9246C11.5768 12.7047 11.7568 12.5248 11.9768 12.5248L11.9868 12.5048Z" fill="currentColor"/>
</svg>
