<svg viewBox="0 0 24 24" fill="none" xmlns="http://www.w3.org/2000/svg">
  <path
    fill-rule="evenodd"
    clip-rule="evenodd"
    d="M7.316 1.77354C7.42131 1.32058 7.82498 1 8.29002 1H18.5C18.8528 1 19.1796 1.18595 19.3598 1.48931C19.54 1.79266 19.5469 2.16853 19.3782 2.47838L15.8254 9H17.4336C17.8197 9 18.1713 9.22227 18.3369 9.57105C18.5026 9.91983 18.4526 10.3328 18.2086 10.632L8.42217 22.632C8.13894 22.9793 7.65923 23.0958 7.24828 22.917C6.83733 22.7382 6.59551 22.3078 6.65652 21.8639L7.59977 15H5.50001C5.19497 15 4.90662 14.8608 4.71692 14.6219C4.52722 14.383 4.45691 14.0706 4.52599 13.7735L7.316 1.77354ZM9.08419 3L6.75918 13H8.74659C9.03555 13 9.31039 13.125 9.5003 13.3428C9.6902 13.5606 9.77662 13.8499 9.73728 14.1361L9.12267 18.6085L15.3277 11H14.1419C13.7891 11 13.4624 10.8141 13.2822 10.5107C13.102 10.2073 13.095 9.83147 13.2638 9.52162L16.8165 3H9.08419Z"
    fill="currentColor"
  />
</svg>
