<svg viewBox="0 0 24 24" fill="none" xmlns="http://www.w3.org/2000/svg">
<path d="M17 1H7C3.69 1 1 3.69 1 7V17C1 20.31 3.69 23 7 23H17C20.31 23 23 20.31 23 17V7C23 3.69 20.31 1 17 1ZM21 17C21 19.21 19.21 21 17 21H7C4.79 21 3 19.21 3 17V7C3 4.79 4.79 3 7 3H17C19.21 3 21 4.79 21 7V17Z" fill="currentColor"/>
<path d="M14.29 8.29L10 12.58V9.84C10 9.29 9.55 8.84 9 8.84C8.45 8.84 8 9.29 8 9.84V14.99C8 14.99 8 15 8 15.01C8 15.13 8.02 15.25 8.07 15.37C8.12 15.49 8.19 15.6 8.29 15.7C8.38 15.79 8.5 15.87 8.62 15.92C8.74 15.97 8.87 16 9 16H14.14C14.69 15.99 15.14 15.54 15.14 14.99C15.14 14.44 14.69 13.99 14.14 13.99H11.42L15.71 9.71C16.1 9.32 16.1 8.69 15.71 8.3C15.32 7.91 14.69 7.91 14.3 8.3L14.29 8.29Z" fill="currentColor"/>
</svg>
