<svg viewBox="0 0 24 24" fill="none" xmlns="http://www.w3.org/2000/svg">
<path d="M21 5H20.5C20.5 2.79 18.71 1 16.5 1C14.29 1 13.14 2.67 12 4.33C10.86 2.68 9.65 1 7.5 1C5.35 1 3.5 2.79 3.5 5H3C1.9 5 1 5.9 1 7V9C1 10.1 1.9 11 3 11H11V7H13V11H21C22.1 11 23 10.1 23 9V7C23 5.9 22.1 5 21 5ZM5.5 5C5.5 3.9 6.4 3 7.5 3C8.46 3 9.14 3.75 10.03 5H5.5ZM13.97 5C14.86 3.75 15.54 3 16.5 3C17.6 3 18.5 3.9 18.5 5H13.97Z" fill="currentColor"/>
<path d="M2.5 13V20C2.5 21.65 3.85 23 5.5 23H11V13H2.5Z" fill="currentColor"/>
<path d="M13 13V23H18.5C20.15 23 21.5 21.65 21.5 20V13H13Z" fill="currentColor"/>
</svg>
