<svg viewBox="0 0 24 24" fill="none" xmlns="http://www.w3.org/2000/svg">
<path d="M21 5H20.5C20.5 2.79 18.71 1 16.5 1C14.29 1 13.14 2.67 12 4.33C10.86 2.68 9.66 1 7.5 1C5.34 1 3.5 2.79 3.5 5H3C1.9 5 1 5.9 1 7V10C1 10.93 1.64 11.71 2.5 11.93V20C2.5 21.65 3.85 23 5.5 23H18.5C20.15 23 21.5 21.65 21.5 20V11.93C22.36 11.71 23 10.93 23 10V7C23 5.9 22.1 5 21 5ZM21 7V10H13V7H21ZM16.5 3C17.6 3 18.5 3.9 18.5 5H13.97C14.86 3.75 15.54 3 16.5 3ZM7.5 3C8.46 3 9.14 3.75 10.03 5H5.5C5.5 3.9 6.4 3 7.5 3ZM3 7H11V10H3V7ZM4.5 20V12H11V21H5.5C4.95 21 4.5 20.55 4.5 20ZM19.5 20C19.5 20.55 19.05 21 18.5 21H13V12H19.5V20Z" fill="currentColor"/>
</svg>
