<svg viewBox="0 0 24 24" xmlns="http://www.w3.org/2000/svg">
<path d="M22.95 14.2611C22.97 14.1911 22.99 14.1311 22.99 14.061C22.99 14.041 23 14.031 23 14.011C23 13.961 22.98 13.9209 22.97 13.8709C22.97 13.8209 22.97 13.7709 22.96 13.7208L20.6 5.85647C20.09 4.14552 18.55 3.00488 16.77 3.00488H15C14.45 3.00488 14 3.45513 14 4.00544C14 4.55574 14.45 5.00599 15 5.00599H16.77C17.66 5.00599 18.43 5.57631 18.69 6.43679L20.66 13.0104H16C14.93 13.0104 14 13.5708 13.47 14.4112C13.03 14.1611 12.54 14.011 12 14.011C11.46 14.011 10.97 14.1611 10.53 14.4112C10 13.5708 9.07 13.0104 8 13.0104H3.34L5.31 6.43679C5.57 5.58632 6.34 5.00599 7.23 5.00599H9C9.55 5.00599 10 4.55574 10 4.00544C10 3.45513 9.55 3.00488 9 3.00488H7.23C5.45 3.00488 3.91 4.15552 3.4 5.85647L1.04 13.7108C1.04 13.7108 1.04 13.8109 1.03 13.8609C1.03 13.9109 1 13.951 1 14.001C1 14.021 1 14.031 1.01 14.051C1.01 14.1211 1.03 14.1911 1.05 14.2511C1.07 14.3112 1.08 14.3712 1.1 14.4212C1.13 14.4813 1.17 14.5313 1.21 14.5813C1.25 14.6313 1.28 14.6814 1.33 14.7314C1.37 14.7714 1.43 14.8014 1.48 14.8315C1.54 14.8715 1.6 14.9015 1.66 14.9315C1.68 14.9315 1.69 14.9515 1.71 14.9615C1.81 14.9915 1.9 15.0015 2 15.0015V17.0027C2 19.2139 3.79 21.0049 6 21.0049H7C9.21 21.0049 11 19.2139 11 17.0027C11 16.4524 11.45 16.0021 12 16.0021C12.55 16.0021 13 16.4524 13 17.0027C13 19.2139 14.79 21.0049 17 21.0049H18C20.21 21.0049 22 19.2139 22 17.0027V15.0015C22.09 15.0015 22.19 14.9915 22.29 14.9615C22.31 14.9615 22.32 14.9415 22.34 14.9315C22.41 14.9115 22.46 14.8715 22.52 14.8315C22.57 14.8014 22.63 14.7714 22.67 14.7314C22.72 14.6914 22.75 14.6313 22.79 14.5813C22.83 14.5313 22.87 14.4813 22.9 14.4212C22.93 14.3712 22.94 14.3112 22.95 14.2511V14.2611ZM7 19.0038H6C4.9 19.0038 4 18.1033 4 17.0027V15.0015H8C8.55 15.0015 9 15.4518 9 16.0021V17.0027C9 18.1033 8.1 19.0038 7 19.0038ZM20 17.0027C20 18.1033 19.1 19.0038 18 19.0038H17C15.9 19.0038 15 18.1033 15 17.0027V16.0021C15 15.4518 15.45 15.0015 16 15.0015H20V17.0027Z" fill="currentColor"/>
</svg>
