<svg viewBox="0 0 24 24" fill="none" xmlns="http://www.w3.org/2000/svg">
<path d="M20.9904 3.0005V1.71053C20.9904 1.08055 20.2308 0.760558 19.781 1.21055L18.2817 2.71051C18.0918 2.9005 17.9918 3.1505 17.9918 3.42049V4.59046L17.3122 5.27044C15.593 3.86048 13.3841 3.0105 10.9952 3.0105C5.48785 3.0005 1 7.48039 1 13.0003C1 18.5201 5.48785 23 10.9952 23C16.5026 23 20.9904 18.5101 20.9904 13.0003C20.9904 10.6003 20.1408 8.40037 18.7315 6.68041L19.4112 6.00043H20.5806C20.8505 6.00043 21.1004 5.89043 21.2903 5.71043L22.7895 4.21047C23.2393 3.76048 22.9195 3.0005 22.2898 3.0005H20.9904ZM18.9914 13.0003C18.9914 17.4101 15.4031 21 10.9952 21C6.58732 21 2.99904 17.4101 2.99904 13.0003C2.99904 8.59036 6.58732 5.00045 10.9952 5.00045C12.8443 5.00045 14.5335 5.63044 15.8929 6.69041L14.4635 8.12037C13.484 7.42039 12.2846 7.0104 10.9952 7.0104C7.68679 7.0104 4.99808 9.70033 4.99808 13.0103C4.99808 16.3202 7.68679 19.0101 10.9952 19.0101C14.3036 19.0101 16.9923 16.3202 16.9923 13.0103C16.9923 11.7203 16.5725 10.5203 15.8729 9.54034L17.3022 8.11037C18.3517 9.47034 18.9914 11.1603 18.9914 13.0103V13.0003ZM14.9933 13.0003C14.9933 15.2102 13.2041 17.0002 10.9952 17.0002C8.78627 17.0002 6.99712 15.2102 6.99712 13.0003C6.99712 10.7903 8.78627 9.00035 10.9952 9.00035C11.7349 9.00035 12.4145 9.22035 13.0142 9.57034L11.505 11.0803C11.345 11.0403 11.1751 11.0103 10.9952 11.0103C9.89573 11.0103 8.99616 11.9103 8.99616 13.0103C8.99616 14.1102 9.89573 15.0102 10.9952 15.0102C12.0947 15.0102 12.9942 14.1102 12.9942 13.0103C12.9942 12.8303 12.9643 12.6603 12.9243 12.5003L14.4336 10.9903C14.7834 11.5803 15.0033 12.2703 15.0033 13.0103L14.9933 13.0003Z" fill="currentColor"/>
</svg>
