<svg viewBox="0 0 24 24" fill="none" xmlns="http://www.w3.org/2000/svg">
<path d="M22.9062 4.62C22.8063 4.38 22.6063 4.18 22.3664 4.08C22.2465 4.03 22.1165 4 21.9866 4H16.9883C16.4385 4 15.9886 4.45 15.9886 5C15.9886 5.55 16.4385 6 16.9883 6H19.5774L13.6894 11.89L6.24203 10.03C5.79218 9.91 5.31235 10.13 5.10242 10.55L1.10381 18.55C0.853893 19.04 1.05382 19.64 1.55365 19.89C1.6936 19.96 1.85355 20 2.00349 20C2.37337 20 2.72325 19.8 2.90318 19.45L6.54192 12.17L13.7594 13.97C14.0993 14.06 14.4592 13.96 14.7091 13.71L20.9969 7.42V10.01C20.9969 10.56 21.4468 11.01 21.9966 11.01C22.5464 11.01 22.9962 10.56 22.9962 10.01V5C22.9962 4.87 22.9662 4.74 22.9162 4.62H22.9062Z" fill="currentColor"/>
</svg>
