<svg viewBox="0 0 24 24" fill="none" xmlns="http://www.w3.org/2000/svg">
<path d="M21.815 7.09C21.245 6.4 20.405 6 19.505 6H17.875C17.395 3.17 14.945 1 11.995 1C9.04503 1 6.59503 3.17 6.11503 6H4.48503C3.58503 6 2.74503 6.4 2.17503 7.09C1.60503 7.79 1.37503 8.7 1.55503 9.59L3.42503 18.98C3.88503 21.31 5.93503 23 8.30503 23H15.695C18.055 23 20.115 21.31 20.575 18.98L22.445 9.59C22.625 8.7 22.395 7.79 21.825 7.09H21.815ZM11.995 3C13.835 3 15.375 4.28 15.825 6H8.17503C8.61503 4.28 10.155 3 12.005 3H11.995ZM18.605 18.59C18.325 19.99 17.105 21 15.685 21H8.29503C6.88503 21 5.65503 19.99 5.37503 18.59L3.50503 9.2C3.44503 8.9 3.52503 8.6 3.71503 8.36C3.82503 8.23 4.07503 8 4.47503 8H19.495C19.895 8 20.145 8.23 20.255 8.36C20.445 8.59 20.525 8.9 20.465 9.2L18.595 18.59H18.605Z" fill="currentColor"/>
</svg>
