<svg viewBox="0 0 24 24" fill="none" xmlns="http://www.w3.org/2000/svg">
<path d="M18 5C18 2.79 16.21 1 14 1H10C7.79 1 6 2.79 6 5C3.79 5 2 6.79 2 9V19C2 21.21 3.79 23 6 23H18C20.21 23 22 21.21 22 19V9C22 6.79 20.21 5 18 5ZM10 3H14C15.1 3 16 3.9 16 5H8C8 3.9 8.9 3 10 3ZM20 19C20 20.1 19.1 21 18 21H6C4.9 21 4 20.1 4 19V9C4 7.9 4.9 7 6 7H18C19.1 7 20 7.9 20 9V19Z" fill="currentColor"/>
<path d="M15 13H13V11C13 10.45 12.55 10 12 10C11.45 10 11 10.45 11 11V13H9C8.45 13 8 13.45 8 14C8 14.55 8.45 15 9 15H11V17C11 17.55 11.45 18 12 18C12.55 18 13 17.55 13 17V15H15C15.55 15 16 14.55 16 14C16 13.45 15.55 13 15 13Z" fill="currentColor"/>
</svg>
