<svg viewBox="0 0 24 24" fill="none" xmlns="http://www.w3.org/2000/svg">
<path d="M19.1467 3.48786C16.5759 2.40774 13.7149 3.17783 11.9943 5.23806C10.2937 3.17783 7.42277 2.40774 4.8519 3.48786C1.68083 4.82802 0.160317 8.53845 1.47076 11.7588C3.58147 16.9294 11.144 21.65 11.4641 21.85C11.6242 21.95 11.8043 22 11.9943 22C12.1844 22 12.3544 21.95 12.5145 21.85C12.8346 21.65 20.4272 16.9294 22.5279 11.7588C23.8383 8.53845 22.3278 4.81802 19.1467 3.48786ZM20.6773 11.0087C19.1167 14.8592 13.7049 18.6796 11.9943 19.8097C10.2837 18.6696 4.89192 14.8492 3.33139 11.0087C2.43109 8.78847 3.46143 6.24818 5.63217 5.32807C6.16235 5.10805 6.71253 4.99804 7.25272 4.99804C8.85326 4.99804 10.3738 5.92814 11.094 7.50833C11.2541 7.86837 11.6142 8.08839 12.0043 8.08839C12.3945 8.08839 12.7546 7.85837 12.9146 7.50833C13.875 5.39808 16.2758 4.43797 18.3765 5.32807C20.5472 6.23818 21.5776 8.78847 20.6773 11.0087Z" fill="currentColor"/>
</svg>
