<svg viewBox="0 0 24 24" fill="none" xmlns="http://www.w3.org/2000/svg">
<path d="M12 1C5.93 1 1 5.93 1 12C1 18.07 5.93 23 12 23C18.07 23 23 18.07 23 12C23 5.93 18.07 1 12 1ZM12 21C7.04 21 3 16.96 3 12C3 7.04 7.04 3 12 3C16.96 3 21 7.04 21 12C21 16.96 16.96 21 12 21Z" fill="currentColor"/>
<path d="M14.96 8.9C13.82 8.43 12.51 8.95 12 10.06C11.48 8.95 10.18 8.43 9.04 8.9C7.87 9.39 7.31 10.73 7.79 11.91C8.67 14.04 12 16.05 12 16.05C12 16.05 15.33 14.03 16.21 11.91C16.7 10.74 16.14 9.39 14.96 8.9Z" fill="currentColor"/>
</svg>
