<svg viewBox="0 0 24 24" fill="none" xmlns="http://www.w3.org/2000/svg">
<path d="M12 1C5.93 1 1 5.93 1 12C1 18.07 5.93 23 12 23C18.07 23 23 18.07 23 12C23 5.93 18.07 1 12 1ZM12 21C7.04 21 3 16.96 3 12C3 7.04 7.04 3 12 3C16.96 3 21 7.04 21 12C21 16.96 16.96 21 12 21Z" fill="currentColor"/>
<path d="M12.73 7.11C11.83 6.88 10.9 7.07 10.17 7.63C9.44 8.2 9 9.06 9 9.94C9 10.49 9.45 10.94 10 10.94C10.55 10.94 11 10.49 11 9.94C11 9.69 11.16 9.4 11.4 9.22C11.57 9.09 11.85 8.95 12.23 9.05C12.58 9.14 12.87 9.43 12.96 9.78C13.11 10.36 12.81 10.79 12.5 10.99C11.59 11.57 11 12.71 11 13.89V14.01C11 14.56 11.45 15.01 12 15.01C12.55 15.01 13 14.56 13 14.01V13.89C13 13.41 13.25 12.89 13.57 12.68C14.7 11.96 15.23 10.6 14.89 9.29C14.62 8.24 13.77 7.39 12.72 7.13L12.73 7.11Z" fill="currentColor"/>
<path d="M12 18.01C12.5523 18.01 13 17.5623 13 17.01C13 16.4577 12.5523 16.01 12 16.01C11.4477 16.01 11 16.4577 11 17.01C11 17.5623 11.4477 18.01 12 18.01Z" fill="currentColor"/>
</svg>
