<svg viewBox="0 0 24 24" fill="none" xmlns="http://www.w3.org/2000/svg">
  <path
    d="M14.06 7.74C13.49 7.25 12.75 7 12 7C11.25 7 10.51 7.25 9.94 7.74C9.49 8.12 9.24 8.56 9.11 9C9 9.39 9 9.75 9 9.97V10.01C9 10.56 9.44 11.01 9.99 11.02C10.54 11.02 10.99 10.58 11 10.03C11 9.78 11 9.67 11.04 9.56C11.06 9.49 11.1 9.4 11.24 9.27C11.42 9.12 11.69 9.01 12 9.01C12.31 9.01 12.58 9.12 12.76 9.27C12.93 9.42 13 9.59 13 9.72V9.87C13 10.01 12.94 10.18 12.76 10.33L11.94 11.04C11.66 11.28 11.42 11.58 11.26 11.92C11.1 12.26 11.01 12.63 11.01 13.01C11.01 13.56 11.46 14.01 12.01 14.01C12.56 14.01 13.01 13.56 13.01 13.01C13.01 12.94 13.03 12.87 13.06 12.79C13.1 12.71 13.16 12.63 13.24 12.56L14.07 11.85C14.64 11.36 15 10.65 15 9.88V9.72C15 8.94 14.63 8.24 14.06 7.75V7.74Z"
    fill="currentColor"
  />
  <path
    d="M12 17C12.5523 17 13 16.5523 13 16C13 15.4477 12.5523 15 12 15C11.4477 15 11 15.4477 11 16C11 16.5523 11.4477 17 12 17Z"
    fill="currentColor"
  />
  <path
    fill-rule="evenodd"
    clip-rule="evenodd"
    d="M12 1C5.92487 1 1 5.92487 1 12C1 18.0751 5.92487 23 12 23C18.0751 23 23 18.0751 23 12C23 5.92487 18.0751 1 12 1ZM3 12C3 7.02944 7.02944 3 12 3C16.9706 3 21 7.02944 21 12C21 16.9706 16.9706 21 12 21C7.02944 21 3 16.9706 3 12Z"
    fill="currentColor"
  />
</svg>
