<svg viewBox="0 0 24 24" fill="none" xmlns="http://www.w3.org/2000/svg">
<path d="M12 1C5.93 1 1 5.93 1 12C1 18.07 5.93 23 12 23C18.07 23 23 18.07 23 12C23 5.93 18.07 1 12 1ZM12 18.01C11.45 18.01 11 17.56 11 17.01C11 16.46 11.45 16.01 12 16.01C12.55 16.01 13 16.46 13 17.01C13 17.56 12.55 18.01 12 18.01ZM13.57 12.67C13.24 12.88 13 13.4 13 13.88V14C13 14.55 12.55 15 12 15C11.45 15 11 14.55 11 14V13.88C11 12.7 11.59 11.56 12.5 10.98C12.81 10.79 13.11 10.36 12.96 9.77C12.87 9.42 12.58 9.13 12.23 9.04C11.84 8.94 11.56 9.08 11.4 9.21C11.16 9.39 11 9.69 11 9.93C11 10.48 10.55 10.93 10 10.93C9.45 10.93 9 10.48 9 9.93C9 9.05 9.44 8.19 10.17 7.62C10.9 7.06 11.83 6.86 12.73 7.1C13.78 7.37 14.63 8.22 14.9 9.26C15.24 10.57 14.71 11.94 13.58 12.65L13.57 12.67Z" fill="currentColor"/>
</svg>
