<svg viewBox="0 0 24 24" fill="none" xmlns="http://www.w3.org/2000/svg">
<path d="M22.9214 11.61C22.7914 11.3 19.5714 4 12.0014 4C4.43135 4 1.21135 11.3 1.08135 11.61C0.951355 11.91 0.981355 12.24 1.14135 12.52C1.22135 12.65 2.28135 14.38 4.54135 15.86L3.61135 17.6C3.35135 18.09 3.53135 18.69 4.02135 18.95C4.17135 19.03 4.33135 19.07 4.49135 19.07C4.85135 19.07 5.19135 18.88 5.37135 18.54L6.29135 16.82C7.59135 17.4 9.15135 17.84 10.9914 17.96V20C10.9914 20.55 11.4414 21 11.9914 21C12.5414 21 12.9914 20.55 12.9914 20V17.96C14.8314 17.84 16.3914 17.41 17.6914 16.82L18.6114 18.54C18.7914 18.88 19.1414 19.07 19.4914 19.07C19.6514 19.07 19.8114 19.03 19.9614 18.95C20.4514 18.69 20.6314 18.08 20.3714 17.6L19.4414 15.86C21.7014 14.38 22.7714 12.64 22.8414 12.52C23.0114 12.24 23.0314 11.91 22.9014 11.61H22.9214ZM17.6714 14.6C17.6714 14.6 17.6614 14.6 17.6514 14.6C17.6514 14.6 17.6414 14.61 17.6314 14.62C16.2214 15.39 14.3714 16 12.0014 16C9.63135 16 7.78135 15.39 6.38135 14.62C6.38135 14.62 6.37136 14.61 6.36135 14.6H6.34135C4.67135 13.67 3.64135 12.53 3.17135 11.91C3.96135 10.41 6.73135 6 12.0114 6C17.2914 6 20.0614 10.41 20.8514 11.91C20.3814 12.52 19.3514 13.67 17.6814 14.6H17.6714Z" fill="currentColor"/>
</svg>
