<svg viewBox="0 0 25 24" fill="none" xmlns="http://www.w3.org/2000/svg">
<path d="M13.003 5.49796C12.4531 5.49796 12.0032 5.94775 12.0032 6.4975V11.995C12.0032 12.3948 12.2432 12.7547 12.6031 12.9146L16.1121 14.4239C16.2421 14.4739 16.3721 14.5039 16.512 14.5039C16.9019 14.5039 17.2718 14.274 17.4318 13.9041C17.6517 13.3944 17.4118 12.8046 16.9119 12.5947L14.0127 11.3453V6.5075C14.0127 5.95775 13.5628 5.50795 13.013 5.50795L13.003 5.49796Z" fill="currentColor"/>
<path d="M13.003 1C9.54392 1 6.33478 2.64925 4.28534 5.30804L4.00542 2.87915C3.94543 2.3294 3.44557 1.93957 2.89572 1.99955C2.34586 2.06951 1.94597 2.56929 2.00596 3.11904L2.64578 8.58655C2.64578 8.64652 2.67578 8.6965 2.69577 8.74648C2.71576 8.79646 2.71576 8.85643 2.74576 8.90641C2.78575 8.97637 2.83573 9.03635 2.88572 9.09632C2.91571 9.12631 2.93571 9.16629 2.9657 9.20627C3.05567 9.29623 3.16564 9.3562 3.28561 9.40618C3.29561 9.40618 3.3156 9.40618 3.3256 9.40618C3.42557 9.43616 3.52555 9.46615 3.63552 9.46615C3.64551 9.46615 3.65551 9.46615 3.66551 9.46615C3.66551 9.46615 3.6755 9.46615 3.6855 9.46615C3.7055 9.46615 3.71549 9.46615 3.73549 9.46615L8.71414 8.96638C9.26399 8.9164 9.66388 8.42662 9.6139 7.87687C9.56391 7.32712 9.07404 6.9373 8.52419 6.97728L5.35505 7.29714C6.97461 4.67833 9.86383 2.99909 13.003 2.99909C17.9616 2.99909 22.0005 7.03726 22.0005 11.995C22.0005 16.9527 17.9616 20.9909 13.003 20.9909C8.73413 20.9909 5.02514 17.9623 4.18537 13.7942C4.0754 13.2544 3.54554 12.9046 3.00569 13.0145C2.46583 13.1245 2.11593 13.6542 2.2259 14.194C3.25562 19.2917 7.79439 23 13.003 23C19.0713 23 24 18.0722 24 12.005C24 5.93776 19.0713 1 13.003 1Z" fill="currentColor"/>
</svg>
