<svg viewBox="0 0 24 24" fill="none" xmlns="http://www.w3.org/2000/svg">
<path d="M21.4788 12.8173C22.4088 11.5773 23.0888 10.4273 23.5188 9.38731C24.8288 6.22731 23.3688 2.8273 20.1388 1.4873C17.5688 0.427305 14.7088 1.1873 12.9988 3.2173C11.2888 1.1773 8.4188 0.417305 5.8588 1.4773C2.6288 2.8173 1.1688 6.21731 2.4788 9.37731C2.9188 10.4373 3.6188 11.6073 4.5788 12.8773C4.3088 12.9773 4.0488 13.1073 3.8088 13.2673C2.6888 14.0173 2.0288 15.2673 2.0288 16.6073V17.9973C2.0288 18.5473 2.4788 18.9973 3.0288 18.9973C3.5788 18.9973 4.0288 18.5473 4.0288 17.9973V16.6073C4.0288 15.9373 4.3588 15.3173 4.9188 14.9473C5.5888 14.4973 6.4588 14.4973 7.1988 14.9973C8.1888 15.6573 9.3288 16.0073 10.5188 16.0073H13.4988C13.7688 16.0073 13.9988 16.2273 13.9988 16.5073C13.9988 16.7073 13.8788 16.8873 13.6988 16.9673C13.5288 16.9873 13.3588 17.0073 13.1888 17.0073H9.0088C8.4588 17.0073 8.0088 17.4573 8.0088 18.0073C8.0088 18.5573 8.4588 19.0073 9.0088 19.0073H13.4988C13.7088 19.0073 13.8988 18.9773 14.0888 18.9273C15.1588 18.7673 16.1788 18.3173 17.0188 17.6173L20.1288 15.0173C20.5788 14.6473 21.2288 14.6773 21.6388 15.0873C21.8588 15.3073 21.9788 15.6073 21.9688 15.9273C21.9588 16.2473 21.8188 16.5373 21.5788 16.7373L17.7388 20.0373C17.0188 20.6573 16.0988 20.9973 15.1488 20.9973H6.0188C5.4688 20.9973 5.0188 21.4473 5.0188 21.9973C5.0188 22.5473 5.4688 22.9973 6.0188 22.9973H15.1488C16.5788 22.9973 17.9588 22.4873 19.0488 21.5473L22.8888 18.2473C23.5488 17.6773 23.9388 16.8573 23.9788 15.9973C24.0088 15.1273 23.6788 14.2773 23.0688 13.6673C22.6188 13.2173 22.0688 12.9373 21.4888 12.8173H21.4788ZM13.4988 13.9973H10.5188C9.7288 13.9973 8.9688 13.7673 8.2288 13.2773C7.8488 13.0273 7.4388 12.8473 7.0088 12.7373C5.7188 11.1873 4.8088 9.79731 4.3188 8.6173C3.4288 6.4673 4.3988 4.2473 6.6188 3.3273C8.7288 2.4573 11.1288 3.3973 12.0888 5.4673C12.2488 5.8173 12.6088 6.04731 12.9988 6.04731C13.3888 6.04731 13.7388 5.8173 13.9088 5.4673C14.8688 3.3973 17.2688 2.4473 19.3788 3.3273C21.5988 4.2473 22.5688 6.4773 21.6788 8.6173C20.9288 10.4273 19.1588 12.7673 16.5688 15.3873L15.9288 15.9273C15.6688 14.8273 14.6888 14.0073 13.5088 14.0073L13.4988 13.9973Z" fill="currentColor"/>
</svg>
