<svg viewBox="0 0 24 24" fill="none" xmlns="http://www.w3.org/2000/svg">
<path d="M20 1H4C2.35 1 1 2.35 1 4V20C1 21.65 2.35 23 4 23H20C21.65 23 23 21.65 23 20V4C23 2.35 21.65 1 20 1ZM4 3H20C20.55 3 21 3.45 21 4V7H3V4C3 3.45 3.45 3 4 3ZM20 21H4C3.45 21 3 20.55 3 20V9H21V20C21 20.55 20.55 21 20 21Z" fill="currentColor"/>
<path d="M5 6H6C6.55 6 7 5.55 7 5C7 4.45 6.55 4 6 4H5C4.45 4 4 4.45 4 5C4 5.55 4.45 6 5 6Z" fill="currentColor"/>
<path d="M9 6H10C10.55 6 11 5.55 11 5C11 4.45 10.55 4 10 4H9C8.45 4 8 4.45 8 5C8 5.55 8.45 6 9 6Z" fill="currentColor"/>
</svg>
