<svg viewBox="0 0 24 24" fill="none" xmlns="http://www.w3.org/2000/svg">
<path d="M22 19H21V18C21 17.45 20.55 17 20 17C19.45 17 19 17.45 19 18V19H18C17.45 19 17 19.45 17 20C17 20.55 17.45 21 18 21H19V22C19 22.55 19.45 23 20 23C20.55 23 21 22.55 21 22V21H22C22.55 21 23 20.55 23 20C23 19.45 22.55 19 22 19Z" fill="currentColor"/>
<path d="M7.22 15.19L11.09 16.91C11.47 17.08 11.91 16.99 12.2 16.7L15.65 13.25L17.48 14.35C17.95 14.63 18.57 14.48 18.85 14.01C19.13 13.54 18.98 12.92 18.51 12.64L16.01 11.14C15.62 10.9 15.11 10.97 14.79 11.29L11.28 14.8L7.41 13.08C7.03 12.91 6.59 12.99 6.3 13.29L4.01 15.58V5C4.01 4.45 4.46 4 5.01 4H19.01C19.56 4 20.01 4.45 20.01 5V14C20.01 14.55 20.46 15 21.01 15C21.56 15 22.01 14.55 22.01 14V5C22.01 3.35 20.66 2 19.01 2H5C3.35 2 2 3.35 2 5V19C2 20.65 3.35 22 5 22H14C14.55 22 15 21.55 15 21C15 20.45 14.55 20 14 20H5C4.45 20 4 19.55 4 19V18.41L7.22 15.19Z" fill="currentColor"/>
<path d="M8 10C9.10457 10 10 9.10457 10 8C10 6.89543 9.10457 6 8 6C6.89543 6 6 6.89543 6 8C6 9.10457 6.89543 10 8 10Z" fill="currentColor"/>
</svg>
