<svg viewBox="0 0 24 24" fill="none" xmlns="http://www.w3.org/2000/svg">
<path d="M22 9.28V8C22 6.89 21.39 5.94 20.5 5.42V4C20.5 2.35 19.15 1 17.5 1H6.5C4.85 1 3.5 2.35 3.5 4V5.42C2.61 5.94 2 6.9 2 8V9.28C1.41 9.63 1 10.26 1 11V20C1 21.65 2.35 23 4 23H20C21.65 23 23 21.65 23 20V11C23 10.26 22.59 9.63 22 9.28ZM18 9C16.35 9 15 10.35 15 12C15 12.55 14.55 13 14 13H10C9.45 13 9 12.55 9 12C9 10.35 7.65 9 6 9H4V8C4 7.45 4.45 7 5 7H19C19.55 7 20 7.45 20 8V9H18ZM6.5 3H17.5C18.05 3 18.5 3.45 18.5 4V5H5.5V4C5.5 3.45 5.95 3 6.5 3ZM21 20C21 20.55 20.55 21 20 21H4C3.45 21 3 20.55 3 20V11H6C6.55 11 7 11.45 7 12C7 13.65 8.35 15 10 15H14C15.65 15 17 13.65 17 12C17 11.45 17.45 11 18 11H21V20Z" fill="currentColor"/>
</svg>
