<svg viewBox="0 0 24 24" fill="none" xmlns="http://www.w3.org/2000/svg">
<path d="M22.88 9.63V9.61C22.84 9.48 22.81 9.36 22.76 9.23L20.44 3.82C19.97 2.72 18.88 2 17.68 2H6.32C5.12 2 4.04 2.71 3.56 3.82L1.24 9.23C1.19 9.35 1.16 9.48 1.12 9.61C1.12 9.61 1.12 9.62 1.12 9.63C1.05 9.89 1 10.15 1 10.41V19C1 20.65 2.35 22 4 22H20C21.65 22 23 20.65 23 19V10.41C23 10.14 22.95 9.88 22.88 9.63ZM5.4 4.61C5.56 4.24 5.92 4 6.32 4H17.68C18.08 4 18.44 4.24 18.6 4.61L20.48 9H18C16.35 9 15 10.35 15 12C15 12.55 14.55 13 14 13H10C9.45 13 9 12.55 9 12C9 10.35 7.65 9 6 9H3.52L5.4 4.61ZM20 20H4C3.45 20 3 19.55 3 19V11H6C6.55 11 7 11.45 7 12C7 13.65 8.35 15 10 15H14C15.65 15 17 13.65 17 12C17 11.45 17.45 11 18 11H21V19C21 19.55 20.55 20 20 20Z" fill="currentColor"/>
</svg>
