<svg viewBox="0 0 24 24" fill="none" xmlns="http://www.w3.org/2000/svg">
<path d="M20.24 19.0182L19.66 19.5884V15.9968C19.66 15.4466 19.2 14.9964 18.64 14.9964C18.08 14.9964 17.62 15.4466 17.62 15.9968V19.6085L16.95 18.9582C16.55 18.568 15.91 18.568 15.51 18.9582C15.11 19.3483 15.11 19.9786 15.51 20.3688L17.92 22.7099C17.92 22.7099 17.96 22.7399 17.99 22.7499C18.07 22.8199 18.16 22.8799 18.25 22.92C18.37 22.97 18.51 23 18.64 23C18.77 23 18.91 22.97 19.03 22.92C19.16 22.8699 19.27 22.7899 19.36 22.6999L21.68 20.4088C22.08 20.0186 22.08 19.3884 21.68 18.9982C21.28 18.608 20.64 18.608 20.24 18.9982V19.0182Z" fill="currentColor"/>
<path d="M22.93 9.75398C23.07 9.23374 23 8.6935 22.72 8.22328L20.7 4.79172C20.13 3.83129 18.87 3.50114 17.89 4.05139L17.07 4.5116C16.75 4.3015 16.42 4.11141 16.08 3.94134V3.01091C16.08 1.90041 15.16 1 14.03 1H9.98C8.85 1 7.93 1.90041 7.93 3.01091V3.94134C7.59 4.11141 7.25 4.3015 6.93 4.5116L6.11 4.05139C5.13 3.49113 3.87 3.83129 3.3 4.79172L1.28 8.22328C1.01 8.6935 0.93 9.23374 1.07 9.75398C1.21 10.2742 1.55 10.7044 2.03 10.9745L2.85 11.4347C2.84 11.6348 2.83 11.8149 2.83 11.995C2.83 12.1751 2.83 12.3652 2.85 12.5553L2.03 13.0155C1.55 13.2856 1.21 13.7158 1.07 14.236C0.93 14.7563 1 15.2965 1.28 15.7667L3.3 19.1983C3.87 20.1587 5.13 20.4889 6.11 19.9386L6.93 19.4784C7.25 19.6885 7.58 19.8786 7.93 20.0487V20.9791C7.93 22.0896 8.85 22.99 9.98 22.99H14.03C14.59 22.99 15.05 22.5398 15.05 21.9895C15.05 21.4393 14.59 20.9891 14.03 20.9891L9.97 20.9691V19.3984C9.97 18.9882 9.72 18.628 9.33 18.4679C8.72 18.2278 8.15 17.8977 7.62 17.4975C7.29 17.2474 6.84 17.2174 6.48 17.4175L5.07 18.1978L3.05 14.7362L4.44 13.9459C4.8 13.7458 5 13.3456 4.94 12.9454C4.89 12.5653 4.86 12.2651 4.86 11.975C4.86 11.6849 4.88 11.3847 4.94 11.0045C5 10.6044 4.8 10.2042 4.44 10.0041L3.04 9.19373L5.09 5.75216L6.48 6.54252C6.84 6.74261 7.29 6.7126 7.62 6.46248C8.15 6.0623 8.72 5.73215 9.33 5.49204C9.72 5.34197 9.97 4.97181 9.97 4.56162L9.99 2.9709L14.05 2.99091V4.56162C14.05 4.97181 14.3 5.33197 14.69 5.49204C15.3 5.73215 15.87 6.0623 16.4 6.46248C16.73 6.7126 17.18 6.74261 17.54 6.54252L18.95 5.76217L20.97 9.22374L19.58 10.0141C19.22 10.2142 19.02 10.6144 19.08 11.0146C19.13 11.3947 19.16 11.6949 19.16 11.985C19.16 12.2751 19.14 12.5753 19.08 12.9554C19.02 13.3556 19.22 13.7558 19.58 13.9559L20.97 14.7462C21.45 15.0264 22.08 14.8563 22.36 14.3761C22.64 13.8959 22.47 13.2856 21.99 13.0155L21.17 12.5553C21.18 12.3552 21.19 12.1751 21.19 11.995C21.19 11.8149 21.19 11.6248 21.17 11.4347L21.99 10.9745C22.47 10.7044 22.81 10.2742 22.95 9.75398H22.93Z" fill="currentColor"/>
<path d="M12 7.51296C9.47 7.51296 7.41 9.53388 7.41 12.015C7.41 14.4961 9.47 16.5171 12 16.5171C14.53 16.5171 16.59 14.4961 16.59 12.015C16.59 9.53388 14.53 7.51296 12 7.51296ZM12 14.5061C10.59 14.5061 9.45 13.3856 9.45 12.005C9.45 10.6244 10.59 9.50387 12 9.50387C13.41 9.50387 14.55 10.6244 14.55 12.005C14.55 13.3856 13.41 14.5061 12 14.5061Z" fill="currentColor"/>
</svg>
