<svg viewBox="0 0 24 24" fill="none" xmlns="http://www.w3.org/2000/svg">
<path d="M17.21 11.5248C17.54 11.8449 17.96 12.005 18.38 12.005C18.8 12.005 19.22 11.8449 19.54 11.5248C20.74 10.3543 22.75 8.0132 22.75 5.51206C22.75 4.38155 22.28 3.27105 21.46 2.48069C20.63 1.68032 19.54 1.24012 18.38 1.24012C17.22 1.24012 16.12 1.68032 15.3 2.48069C14.48 3.28105 14.01 4.38155 14.01 5.51206C14.01 8.0132 16.02 10.3543 17.22 11.5248H17.21ZM16.68 3.92134C17.12 3.49115 17.74 3.24103 18.37 3.24103C19 3.24103 19.62 3.49115 20.06 3.92134C20.5 4.35154 20.74 4.91179 20.74 5.52207C20.74 7.21283 19.14 9.06367 18.36 9.86404C17.59 9.06367 15.98 7.20283 15.98 5.52207C15.98 4.9218 16.22 4.35154 16.66 3.92134H16.68Z" fill="currentColor"/>
<path d="M18.38 6.66259C18.9986 6.66259 19.5 6.16092 19.5 5.54208C19.5 4.92324 18.9986 4.42157 18.38 4.42157C17.7614 4.42157 17.26 4.92324 17.26 5.54208C17.26 6.16092 17.7614 6.66259 18.38 6.66259Z" fill="currentColor"/>
<path d="M22 10.9946C21.45 10.9946 21 11.4448 21 11.995C21 12.7954 19.48 13.8358 16.88 14.4661C16.89 14.3361 16.91 14.206 16.92 14.086C16.96 13.5357 16.55 13.0555 16 13.0055C15.43 12.9454 14.97 13.3756 14.92 13.9259C14.89 14.246 14.86 14.5462 14.83 14.8363C13.96 14.9463 13.02 15.0064 12 15.0064C10.98 15.0064 10.04 14.9463 9.17 14.8363C9.06 13.9659 9 13.0155 9 12.005C9 10.9946 9.06 10.0441 9.17 9.17373C10.04 9.06367 10.99 9.00365 12 9.00365C12.55 9.00365 13 8.55344 13 8.00319C13 7.45294 12.55 7.00274 12 7.00274C11.18 7.00274 10.35 7.05276 9.53 7.1328C10.15 4.53162 11.19 3.00092 12 3.00092C12.31 3.00092 12.62 3.02093 12.92 3.05095C13.46 3.11097 13.96 2.71079 14.02 2.16054C14.08 1.61029 13.68 1.12007 13.13 1.06004C12.76 1.02002 12.39 1.00002 12.01 1.00002C5.93 0.990011 1 5.92225 1 11.995C1 18.0678 5.93 23 12 23C18.07 23 23 18.0678 23 11.995C23 11.4448 22.55 10.9946 22 10.9946ZM12 16.9973C12.82 16.9973 13.65 16.9473 14.47 16.8672C13.83 19.5784 12.75 20.9991 12 20.9991C11.2 20.9991 10.15 19.4684 9.53 16.8672C10.35 16.9473 11.17 16.9973 12 16.9973ZM7.13 14.4661C4.53 13.8458 3 12.8054 3 11.995C3 11.1846 4.53 10.1442 7.13 9.52388C7.05 10.3443 7 11.1646 7 11.995C7 12.8254 7.05 13.6458 7.13 14.4661ZM8.68 3.63121C8.14 4.69169 7.72 6.00229 7.44 7.42293C6.02 7.70306 4.71 8.11324 3.65 8.66349C4.56 6.37245 6.39 4.54162 8.68 3.63121ZM3.64 15.3165C4.7 15.8568 6.01 16.2769 7.43 16.5571C7.71 17.9777 8.12 19.2883 8.67 20.3488C6.38 19.4384 4.55 17.6076 3.64 15.3165ZM15.33 20.3488C15.88 19.2783 16.3 17.9577 16.58 16.5571C18 16.2769 19.3 15.8668 20.36 15.3165C19.45 17.6076 17.62 19.4384 15.33 20.3488Z" fill="currentColor"/>
</svg>
