<svg viewBox="0 0 24 24" fill="none" xmlns="http://www.w3.org/2000/svg">
<path d="M20 1.005H8C8 1.005 7.96 1.01501 7.94 1.01501C7.85 1.01501 7.77 1.03502 7.69 1.06503C7.66 1.07504 7.63 1.08504 7.6 1.09505C7.49 1.14507 7.39 1.2051 7.31 1.29514L3.29 5.29696C3.2 5.387 3.14 5.48704 3.09 5.58709C3.08 5.6171 3.07 5.64712 3.06 5.67713C3.03 5.75716 3.01 5.84721 3.01 5.93725C3.01 5.95726 3 5.97726 3 5.99727V22.0046C3 22.5548 3.45 23.005 4 23.005H20C20.55 23.005 21 22.5548 21 22.0046V2.00546C21 1.45521 20.55 1.005 20 1.005ZM19 21.0141H5V7.00773H8C8.55 7.00773 9 6.55753 9 6.00728V3.00591H19V21.0141Z" fill="currentColor"/>
<path d="M8 9.00864C7.45 9.00864 7 9.45885 7 10.0091C7 10.5593 7.45 11.0096 8 11.0096H10C10.55 11.0096 11 10.5593 11 10.0091C11 9.45885 10.55 9.00864 10 9.00864H8Z" fill="currentColor"/>
<path d="M8 15.0114H10C10.55 15.0114 11 14.5612 11 14.0109C11 13.4607 10.55 13.0105 10 13.0105H8C7.45 13.0105 7 13.4607 7 14.0109C7 14.5612 7.45 15.0114 8 15.0114Z" fill="currentColor"/>
<path d="M16 17.0123H8C7.45 17.0123 7 17.4625 7 18.0127C7 18.563 7.45 19.0132 8 19.0132H16C16.55 19.0132 17 18.563 17 18.0127C17 17.4625 16.55 17.0123 16 17.0123Z" fill="currentColor"/>
<path d="M14.77 12.3602C14.6 12.3602 14.4 12.1401 14.18 11.7199C13.93 11.2297 13.33 11.0296 12.83 11.2897C12.34 11.5398 12.15 12.1401 12.4 12.6403C12.77 13.3606 13.23 13.8308 13.77 14.101V14.3411C13.77 14.8913 14.22 15.3415 14.77 15.3415C15.32 15.3415 15.77 14.8913 15.77 14.3411V14.151C16.64 13.7608 17.25 12.9004 17.25 11.89C17.25 10.8795 16.58 9.72897 15.31 9.29877C14.75 9.10869 14.37 8.85857 14.37 8.66849C14.37 8.44839 14.55 8.26831 14.77 8.26831C15.14 8.26831 15.33 8.44839 15.43 8.60846C15.73 9.06867 16.35 9.20873 16.81 8.9086C17.27 8.60846 17.41 7.98818 17.11 7.52797C16.78 7.02774 16.31 6.67758 15.77 6.46749V6.32742C15.77 5.77717 15.32 5.32697 14.77 5.32697C14.22 5.32697 13.77 5.77717 13.77 6.32742V6.4975C12.94 6.87767 12.36 7.70805 12.36 8.67849C12.36 9.33879 12.66 10.5393 14.66 11.2096C15.07 11.3497 15.24 11.7599 15.24 11.91C15.24 12.1701 15.03 12.3902 14.76 12.3902L14.77 12.3602Z" fill="currentColor"/>
</svg>
