<svg viewBox="0 0 24 24" fill="none" xmlns="http://www.w3.org/2000/svg">
<path d="M22 15H21V6C21 4.35 19.65 3 18 3H6C4.35 3 3 4.35 3 6V15H2C1.45 15 1 15.45 1 16V18C1 19.65 2.35 21 4 21H20C21.65 21 23 19.65 23 18V16C23 15.45 22.55 15 22 15ZM5 6C5 5.45 5.45 5 6 5H9C9 5.55 9.45 6 10 6H14C14.55 6 15 5.55 15 5H18C18.55 5 19 5.45 19 6V15H5V6ZM21 18C21 18.55 20.55 19 20 19H4C3.45 19 3 18.55 3 18V17H9.75C9.75 17.55 10.2 18 10.75 18H13.25C13.8 18 14.25 17.55 14.25 17H21V18Z" fill="currentColor"/>
</svg>
