<svg viewBox="0 0 25 25" fill="none" xmlns="http://www.w3.org/2000/svg">
<path d="M13 6C9.14 6 6 9.14 6 13C6 16.86 9.14 20 13 20C16.86 20 20 16.86 20 13C20 9.14 16.86 6 13 6ZM13 18C10.24 18 8 15.76 8 13C8 10.24 10.24 8 13 8C15.76 8 18 10.24 18 13C18 15.76 15.76 18 13 18Z" fill="currentColor"/>
<path d="M13 5C13.55 5 14 4.55 14 4V3C14 2.45 13.55 2 13 2C12.45 2 12 2.45 12 3V4C12 4.55 12.45 5 13 5Z" fill="currentColor"/>
<path d="M13 21C12.45 21 12 21.45 12 22V23C12 23.55 12.45 24 13 24C13.55 24 14 23.55 14 23V22C14 21.45 13.55 21 13 21Z" fill="currentColor"/>
<path d="M19.36 7.64C19.62 7.64 19.87 7.54 20.07 7.35L20.78 6.64C21.17 6.25 21.17 5.62 20.78 5.23C20.39 4.84 19.76 4.84 19.37 5.23L18.66 5.94C18.27 6.33 18.27 6.96 18.66 7.35C18.86 7.55 19.11 7.64 19.37 7.64H19.36Z" fill="currentColor"/>
<path d="M5.93 18.66L5.22 19.37C4.83 19.76 4.83 20.39 5.22 20.78C5.42 20.98 5.67 21.07 5.93 21.07C6.19 21.07 6.44 20.97 6.64 20.78L7.35 20.07C7.74 19.68 7.74 19.05 7.35 18.66C6.96 18.27 6.33 18.27 5.94 18.66H5.93Z" fill="currentColor"/>
<path d="M23 12H22C21.45 12 21 12.45 21 13C21 13.55 21.45 14 22 14H23C23.55 14 24 13.55 24 13C24 12.45 23.55 12 23 12Z" fill="currentColor"/>
<path d="M4 12H3C2.45 12 2 12.45 2 13C2 13.55 2.45 14 3 14H4C4.55 14 5 13.55 5 13C5 12.45 4.55 12 4 12Z" fill="currentColor"/>
<path d="M20.07 18.66C19.68 18.27 19.05 18.27 18.66 18.66C18.27 19.05 18.27 19.68 18.66 20.07L19.37 20.78C19.57 20.98 19.82 21.07 20.08 21.07C20.34 21.07 20.59 20.97 20.79 20.78C21.18 20.39 21.18 19.76 20.79 19.37L20.08 18.66H20.07Z" fill="currentColor"/>
<path d="M5.93 7.34C6.13 7.54 6.38 7.63 6.64 7.63C6.9 7.63 7.15 7.53 7.35 7.34C7.74 6.95 7.74 6.32 7.35 5.93L6.64 5.22C6.25 4.83 5.62 4.83 5.23 5.22C4.84 5.61 4.84 6.24 5.23 6.63L5.94 7.34H5.93Z" fill="currentColor"/>
</svg>
