<svg viewBox="0 0 24 24" fill="none" xmlns="http://www.w3.org/2000/svg">
<path d="M17.09 2.81995C15.24 1.29995 12.8 0.689946 10.41 1.14995C7.25002 1.76995 4.73002 4.30995 4.14002 7.47995C3.65002 10.1499 4.45002 12.7599 6.34002 14.6499C6.76002 15.0799 7.00002 15.5899 7.00002 16.0999V18.9999C7.00002 19.5499 7.45002 19.9999 8.00002 19.9999C8.00002 21.6499 9.35002 22.9999 11 22.9999H13C14.65 22.9999 16 21.6499 16 19.9999C16.55 19.9999 17 19.5499 17 18.9999V16.0999C17 15.5899 17.23 15.0799 17.64 14.6699C19.16 13.1599 20 11.1399 20 8.99995C20 6.59995 18.94 4.34995 17.09 2.81995ZM13 20.9999H11C10.45 20.9999 10 20.5499 10 19.9999H14C14 20.5499 13.55 20.9999 13 20.9999ZM16.23 13.2499C15.44 14.0399 15 15.0499 15 16.0999V17.9999H13V12.4099L14.71 10.6999C15.1 10.3099 15.1 9.67995 14.71 9.28995C14.32 8.89995 13.69 8.89995 13.3 9.28995L12.01 10.5799L10.72 9.28995C10.33 8.89995 9.70002 8.89995 9.31002 9.28995C8.92002 9.67995 8.92002 10.3099 9.31002 10.6999L11.02 12.4099V17.9999H9.02002V16.0999C9.02002 15.0599 8.58002 14.0399 7.78002 13.2299C6.36002 11.8099 5.76002 9.83995 6.13002 7.83995C6.57002 5.46995 8.45002 3.56995 10.81 3.10995C12.62 2.75995 14.45 3.20995 15.84 4.35995C17.23 5.50995 18.03 7.18995 18.03 8.98995C18.03 10.5999 17.4 12.1099 16.26 13.2399L16.23 13.2499Z" fill="currentColor"/>
</svg>
