<svg viewBox="0 0 24 24" fill="none" xmlns="http://www.w3.org/2000/svg">
<path d="M17.1161 2.81995C15.2639 1.29995 12.821 0.689946 10.4281 1.14995C7.26438 1.76995 4.74139 4.30995 4.15068 7.47995C3.6601 10.1499 4.46105 12.7599 6.3533 14.6499C6.7738 15.0799 7.01408 15.5899 7.01408 16.0999V16.9999C7.01408 17.5499 7.46462 17.9999 8.01527 17.9999H11.0188V12.4099L9.30681 10.6999C8.91634 10.3099 8.91634 9.67995 9.30681 9.28995C9.69727 8.89995 10.328 8.89995 10.7185 9.28995L12.01 10.5799L13.3016 9.28995C13.692 8.89995 14.3228 8.89995 14.7132 9.28995C15.1037 9.67995 15.1037 10.3099 14.7132 10.6999L13.0012 12.4099V17.9999H16.0048C16.5554 17.9999 17.006 17.5499 17.006 16.9999V16.0999C17.006 15.5899 17.2362 15.0799 17.6467 14.6699C19.1685 13.1599 20.0095 11.1399 20.0095 8.99995C20.0095 6.59995 18.9483 4.34995 17.0961 2.81995H17.1161Z" fill="currentColor"/>
<path d="M8.01527 19.9999V20.9999C8.01527 22.0999 8.91634 22.9999 10.0177 22.9999H14.0224C15.1237 22.9999 16.0248 22.0999 16.0248 20.9999V19.9999H8.01527Z" fill="currentColor"/>
</svg>
