<svg viewBox="0 0 24 24" fill="none" xmlns="http://www.w3.org/2000/svg">
  <path
    fill-rule="evenodd"
    clip-rule="evenodd"
    d="M12 23C18.0751 23 23 18.0751 23 12C23 5.92487 18.0751 1 12 1C5.92487 1 1 5.92487 1 12C1 18.0751 5.92487 23 12 23ZM17.7276 6.51532C19.2897 8.07742 19.2897 10.6101 17.7276 12.1722L17.0205 12.8793C16.63 13.2698 15.9968 13.2698 15.6063 12.8793C15.2158 12.4888 15.2158 11.8556 15.6063 11.4651L16.3134 10.758C17.0944 9.97691 17.0944 8.71059 16.3134 7.92954C15.5323 7.14849 14.266 7.14849 13.485 7.92954L12.7779 8.63664C12.3873 9.02717 11.7542 9.02717 11.3636 8.63664C10.9731 8.24612 10.9731 7.61295 11.3636 7.22243L12.0708 6.51532C13.6328 4.95323 16.1655 4.95323 17.7276 6.51532ZM9.24264 13.5859C8.85211 13.9764 8.85211 14.6096 9.24264 15.0001C9.63316 15.3906 10.2663 15.3906 10.6568 15.0001L14.8995 10.7574C15.29 10.3669 15.29 9.73374 14.8995 9.34322C14.509 8.95269 13.8758 8.95269 13.4853 9.34322L9.24264 13.5859ZM6.41425 12.1716C4.85215 13.7337 4.85215 16.2663 6.41425 17.8284C7.97635 19.3905 10.509 19.3905 12.0711 17.8284L12.7782 17.1213C13.1687 16.7308 13.1687 16.0976 12.7782 15.7071C12.3877 15.3166 11.7545 15.3166 11.364 15.7071L10.6569 16.4142C9.87584 17.1953 8.60951 17.1953 7.82846 16.4142C7.04741 15.6332 7.04741 14.3668 7.82846 13.5858L8.53557 12.8787C8.92609 12.4882 8.92609 11.855 8.53557 11.4645C8.14504 11.0739 7.51188 11.0739 7.12135 11.4645L6.41425 12.1716Z"
    fill="currentColor"
  />
</svg>
