<svg viewBox="0 0 24 24" fill="none" xmlns="http://www.w3.org/2000/svg">
<path d="M12 1C5.93 1 1 5.93 1 12C1 18.07 5.93 23 12 23C18.07 23 23 18.07 23 12C23 5.93 18.07 1 12 1ZM12 21C7.04 21 3 16.96 3 12C3 7.04 7.04 3 12 3C16.96 3 21 7.04 21 12C21 16.96 16.96 21 12 21Z" fill="currentColor"/>
<path d="M12.11 14.84L11.56 15.39C10.75 16.2 9.43 16.2 8.61 15.39C7.79 14.58 7.8 13.26 8.61 12.44L9.16 11.89C9.55 11.5 9.55 10.87 9.16 10.48C8.77 10.09 8.14 10.09 7.75 10.48L7.2 11.03C5.61 12.62 5.61 15.21 7.2 16.81C8 17.61 9.04 18 10.09 18C11.14 18 12.18 17.6 12.98 16.81L13.53 16.26C13.92 15.87 13.92 15.24 13.53 14.85C13.14 14.46 12.51 14.46 12.12 14.85L12.11 14.84Z" fill="currentColor"/>
<path d="M11.03 7.2L10.48 7.75C10.09 8.14 10.09 8.77 10.48 9.16C10.87 9.55 11.5 9.55 11.89 9.16L12.44 8.61C13.25 7.8 14.57 7.8 15.39 8.61C16.21 9.42 16.2 10.74 15.39 11.56L14.84 12.11C14.45 12.5 14.45 13.13 14.84 13.52C15.04 13.72 15.29 13.81 15.55 13.81C15.81 13.81 16.06 13.71 16.26 13.52L16.81 12.97C18.4 11.38 18.4 8.79 16.81 7.19C15.22 5.6 12.63 5.6 11.03 7.19V7.2Z" fill="currentColor"/>
<path d="M12.65 9.94L9.94 12.65C9.55 13.04 9.55 13.67 9.94 14.06C10.14 14.26 10.39 14.35 10.65 14.35C10.91 14.35 11.16 14.25 11.36 14.06L14.07 11.35C14.46 10.96 14.46 10.33 14.07 9.94C13.68 9.55 13.05 9.55 12.66 9.94H12.65Z" fill="currentColor"/>
</svg>
