<svg viewBox="0 0 24 24" fill="none" xmlns="http://www.w3.org/2000/svg">
<path d="M13.3602 17.3631L12.1002 18.6131C11.2002 19.5131 10.0102 20.0031 8.74022 20.0031C7.47022 20.0031 6.28022 19.5131 5.38022 18.6131C4.48022 17.7131 3.99022 16.5231 3.99022 15.2531C3.99022 13.9831 4.48022 12.7931 5.38022 11.8931L6.63022 10.6331C7.02022 10.2431 7.02022 9.61312 6.63022 9.22312C6.24022 8.83312 5.61022 8.83312 5.22022 9.22312L3.97022 10.4831C2.70022 11.7531 1.99022 13.4531 1.99022 15.2531C1.99022 17.0531 2.69022 18.7531 3.97022 20.0231C5.25022 21.2931 6.94022 22.0031 8.74022 22.0031C10.5402 22.0031 12.2402 21.3031 13.5102 20.0231L14.7702 18.7731C15.1602 18.3831 15.1602 17.7531 14.7702 17.3631C14.3802 16.9731 13.7502 16.9731 13.3602 17.3631Z" fill="currentColor"/>
<path d="M20.0002 8.75312C20.0002 10.0231 19.5102 11.2131 18.6102 12.1131L17.3602 13.3731C16.9702 13.7631 16.9702 14.3931 17.3602 14.7831C17.5602 14.9831 17.8102 15.0731 18.0702 15.0731C18.3302 15.0731 18.5802 14.9731 18.7802 14.7831L20.0302 13.5231C21.3002 12.2531 22.0102 10.5531 22.0102 8.75312C22.0102 6.95312 21.3102 5.25312 20.0302 3.98312C18.7502 2.71312 17.0602 2.00312 15.2602 2.00312C13.4602 2.00312 11.7602 2.70312 10.4902 3.98312L9.23022 5.23312C8.84022 5.62312 8.84022 6.25312 9.23022 6.64312C9.62022 7.03312 10.2502 7.03312 10.6402 6.64312L11.9002 5.39312C12.8002 4.49312 13.9902 4.00312 15.2602 4.00312C16.5302 4.00312 17.7202 4.49312 18.6202 5.39312C19.5202 6.29312 20.0102 7.48312 20.0102 8.75312H20.0002Z" fill="currentColor"/>
<path d="M6.50022 5.50312C6.56022 5.50312 6.63022 5.50312 6.70022 5.48312C7.24022 5.37312 7.59022 4.85312 7.48022 4.30312L6.98022 1.80312C6.87022 1.26312 6.35022 0.903123 5.80022 1.02312C5.26022 1.13312 4.91022 1.65312 5.02022 2.20312L5.52022 4.70312C5.61022 5.18312 6.03022 5.50312 6.50022 5.50312Z" fill="currentColor"/>
<path d="M4.50022 7.50312C4.97022 7.50312 5.38022 7.17312 5.48022 6.70312C5.59022 6.16312 5.24022 5.63312 4.70022 5.52312L2.20022 5.02312C1.66022 4.91312 1.13022 5.26312 1.02022 5.80312C0.910216 6.34312 1.26022 6.87312 1.80022 6.98312L4.30022 7.48312C4.37022 7.49312 4.43022 7.50312 4.50022 7.50312Z" fill="currentColor"/>
<path d="M17.3002 18.5231C16.7602 18.6331 16.4102 19.1531 16.5202 19.7031L17.0202 22.2031C17.1102 22.6831 17.5302 23.0031 18.0002 23.0031C18.0602 23.0031 18.1302 23.0031 18.2002 22.9831C18.7402 22.8731 19.0902 22.3531 18.9802 21.8031L18.4802 19.3031C18.3702 18.7631 17.8502 18.4031 17.3002 18.5231Z" fill="currentColor"/>
<path d="M22.2002 17.0231L19.7002 16.5231C19.1602 16.4131 18.6302 16.7631 18.5202 17.3031C18.4102 17.8431 18.7602 18.3731 19.3002 18.4831L21.8002 18.9831C21.8702 18.9931 21.9302 19.0031 22.0002 19.0031C22.4702 19.0031 22.8802 18.6731 22.9802 18.2031C23.0902 17.6631 22.7402 17.1331 22.2002 17.0231Z" fill="currentColor"/>
</svg>
