<svg viewBox="0 0 24 24" fill="none" xmlns="http://www.w3.org/2000/svg">
<path d="M13.3624 17.3625L12.1024 18.6225C10.2524 20.4725 7.24244 20.4725 5.38244 18.6225C3.53244 16.7725 3.53244 13.7525 5.38244 11.9025L6.64244 10.6425C7.03244 10.2525 7.03244 9.6225 6.64244 9.2325C6.25244 8.8425 5.62244 8.8425 5.23244 9.2325L3.97244 10.4925C1.34244 13.1225 1.34244 17.4025 3.97244 20.0425C5.29244 21.3625 7.01244 22.0125 8.74244 22.0125C10.4724 22.0125 12.2024 21.3525 13.5124 20.0425L14.7724 18.7825C15.1624 18.3925 15.1624 17.7625 14.7724 17.3725C14.3824 16.9825 13.7524 16.9825 13.3624 17.3725V17.3625Z" fill="currentColor"/>
<path d="M20.0324 3.9725C17.4024 1.3425 13.1124 1.3425 10.4824 3.9725L9.22244 5.2325C8.83244 5.6225 8.83244 6.2525 9.22244 6.6425C9.61244 7.0325 10.2424 7.0325 10.6324 6.6425L11.8924 5.3825C13.7424 3.5325 16.7624 3.5325 18.6124 5.3825C20.4624 7.2325 20.4624 10.2525 18.6124 12.1025L17.3524 13.3625C16.9624 13.7525 16.9624 14.3825 17.3524 14.7725C17.5524 14.9725 17.8024 15.0625 18.0624 15.0625C18.3224 15.0625 18.5724 14.9625 18.7724 14.7725L20.0324 13.5125C22.6624 10.8825 22.6624 6.6025 20.0324 3.9625V3.9725Z" fill="currentColor"/>
<path d="M14.5524 8.0425L8.04244 14.5525C7.65244 14.9425 7.65244 15.5725 8.04244 15.9625C8.24244 16.1625 8.49244 16.2525 8.75244 16.2525C9.01244 16.2525 9.26244 16.1525 9.46244 15.9625L15.9724 9.4525C16.3624 9.0625 16.3624 8.4325 15.9724 8.0425C15.5824 7.6525 14.9524 7.6525 14.5624 8.0425H14.5524Z" fill="currentColor"/>
</svg>
