<svg viewBox="0 0 24 24" fill="none" xmlns="http://www.w3.org/2000/svg">
<path d="M21.9905 11C21.4407 11 20.9909 11.45 20.9909 12V20C20.9909 20.55 20.5411 21 19.9914 21H3.99864C3.44889 21 2.99909 20.55 2.99909 20V4C2.99909 3.45 3.44889 3 3.99864 3H11.995C12.5448 3 12.9945 2.55 12.9945 2C12.9945 1.45 12.5448 1 11.995 1H3.99864C2.34939 1 1 2.35 1 4V20C1 21.65 2.34939 23 3.99864 23H19.9914C21.6406 23 22.99 21.65 22.99 20V12C22.99 11.45 22.5402 11 21.9905 11Z" fill="currentColor"/>
<path d="M16.323 8.66C16.5829 8.66 16.8328 8.56 17.0327 8.37L20.9909 4.41V7.01C21.0009 7.56 21.4507 8.01 22.0005 8.01C22.5502 8.01 23 7.56 23 7.01L22.98 2.01C22.98 2.01 22.97 1.96 22.97 1.94C22.97 1.84 22.95 1.73 22.91 1.63C22.8701 1.53 22.8001 1.43 22.7201 1.35C22.7101 1.34 22.7001 1.32 22.6901 1.31C22.6002 1.22 22.4802 1.14 22.3603 1.09C22.2403 1.04 22.1104 1.01 21.9805 1.01L17.0027 1.03C16.453 1.03 16.0032 1.48 16.0032 2.03C16.0032 2.58 16.453 3.03 17.0027 3.03H19.5616L15.6234 6.96C15.2335 7.35 15.2335 7.98 15.6234 8.37C15.8233 8.57 16.0731 8.66 16.333 8.66H16.323Z" fill="currentColor"/>
</svg>
