<svg viewBox="0 0 24 24" fill="none" xmlns="http://www.w3.org/2000/svg">
<path d="M4 5H3C2.45 5 2 5.45 2 6C2 6.55 2.45 7 3 7H4C4.55 7 5 6.55 5 6C5 5.45 4.55 5 4 5Z" fill="currentColor"/>
<path d="M4 11H3C2.45 11 2 11.45 2 12C2 12.55 2.45 13 3 13H4C4.55 13 5 12.55 5 12C5 11.45 4.55 11 4 11Z" fill="currentColor"/>
<path d="M4 17H3C2.45 17 2 17.45 2 18C2 18.55 2.45 19 3 19H4C4.55 19 5 18.55 5 18C5 17.45 4.55 17 4 17Z" fill="currentColor"/>
<path d="M9 7H21C21.55 7 22 6.55 22 6C22 5.45 21.55 5 21 5H9C8.45 5 8 5.45 8 6C8 6.55 8.45 7 9 7Z" fill="currentColor"/>
<path d="M21 11H9C8.45 11 8 11.45 8 12C8 12.55 8.45 13 9 13H21C21.55 13 22 12.55 22 12C22 11.45 21.55 11 21 11Z" fill="currentColor"/>
<path d="M21 17H9C8.45 17 8 17.45 8 18C8 18.55 8.45 19 9 19H21C21.55 19 22 18.55 22 18C22 17.45 21.55 17 21 17Z" fill="currentColor"/>
</svg>
