<svg viewBox="0 0 24 24" fill="none" xmlns="http://www.w3.org/2000/svg">
<path d="M11.9999 11.66C13.3806 11.66 14.4999 10.5407 14.4999 9.16C14.4999 7.77929 13.3806 6.66 11.9999 6.66C10.6192 6.66 9.49993 7.77929 9.49993 9.16C9.49993 10.5407 10.6192 11.66 11.9999 11.66Z" fill="currentColor"/>
<path d="M16.9999 21H14.0099C16.4999 18.51 20.3199 13.9 20.3199 9.1C20.3199 6.96 19.4299 4.87 17.8699 3.36C16.2999 1.84 14.2199 1 11.9999 1C9.77993 1 7.69993 1.84 6.12993 3.36C4.56993 4.87 3.67993 6.96 3.67993 9.1C3.67993 13.9 7.49993 18.51 9.98993 21H6.99993C6.44993 21 5.99993 21.45 5.99993 22C5.99993 22.55 6.44993 23 6.99993 23H16.9999C17.5499 23 17.9999 22.55 17.9999 22C17.9999 21.45 17.5499 21 16.9999 21ZM5.67993 9.1C5.67993 7.5 6.34993 5.93 7.51993 4.8C8.69993 3.66 10.3299 3 11.9999 3C13.6699 3 15.2999 3.66 16.4799 4.8C17.6499 5.93 18.3199 7.5 18.3199 9.1C18.3199 13.52 14.1199 18.1 12.3099 19.87C12.1299 20.05 11.8699 20.05 11.6899 19.87C9.87993 18.1 5.67993 13.52 5.67993 9.1Z" fill="currentColor"/>
</svg>
