<svg viewBox="0 0 24 24" fill="none" xmlns="http://www.w3.org/2000/svg">
<path d="M19 9H18V7C18 3.69 15.31 1 12 1C8.69 1 6 3.69 6 7V9H5C3.35 9 2 10.35 2 12V20C2 21.65 3.35 23 5 23H19C20.65 23 22 21.65 22 20V12C22 10.35 20.65 9 19 9ZM8 7C8 4.79 9.79 3 12 3C14.21 3 16 4.79 16 7V9H8V7ZM20 20C20 20.55 19.55 21 19 21H5C4.45 21 4 20.55 4 20V12C4 11.45 4.45 11 5 11H19C19.55 11 20 11.45 20 12V20Z" fill="currentColor"/>
<path d="M11.57 13.06C10.85 13.21 10.25 13.79 10.08 14.5C9.85 15.43 10.28 16.28 11 16.7V18C11 18.55 11.45 19 12 19C12.55 19 13 18.55 13 18V16.7C13.59 16.36 13.98 15.73 13.98 15C13.98 13.76 12.85 12.79 11.57 13.06Z" fill="currentColor"/>
</svg>
