<svg viewBox="0 0 24 24" fill="none" xmlns="http://www.w3.org/2000/svg">
<path d="M21 10.9945V3.59118C21 3.59118 21 3.59118 21 3.58117C21 2.16053 19.84 1 18.42 1H5.58C4.16 1 3 2.16053 3 3.58117C3 3.58117 3 3.58117 3 3.59118V10.9945C1.9 10.9945 1 11.895 1 12.9955V19.9986C1 21.6494 2.35 23 4 23H20C21.65 23 23 21.6494 23 19.9986V12.9955C23 11.895 22.1 10.9945 21 10.9945ZM18.4 2.99091C18.73 2.99091 18.99 3.25102 19 3.58117C19 3.76126 18.91 3.94134 18.76 4.04138L12.34 8.54343C12.14 8.68349 11.88 8.68349 11.68 8.54343L5.25 4.04138C5.1 3.93133 5.01 3.76126 5.01 3.58117C5.01 3.25102 5.28 2.99091 5.61 2.99091H18.41H18.4ZM5 6.31241L10.52 10.1742C10.96 10.4843 11.48 10.6344 12 10.6344C12.52 10.6344 13.04 10.4843 13.48 10.1742L19 6.31241V10.9945H18C16.35 10.9945 15 12.3452 15 13.9959C15 14.5462 14.55 14.9964 14 14.9964H10C9.45 14.9964 9 14.5462 9 13.9959C9 12.3452 7.65 10.9945 6 10.9945H5V6.31241ZM21 19.9986C21 20.5489 20.55 20.9991 20 20.9991H4C3.45 20.9991 3 20.5489 3 19.9986V12.9955H6C6.55 12.9955 7 13.4457 7 13.9959C7 15.6467 8.35 16.9973 10 16.9973H14C15.65 16.9973 17 15.6467 17 13.9959C17 13.4457 17.45 12.9955 18 12.9955H21V19.9986Z" fill="currentColor"/>
</svg>
