<svg viewBox="0 0 24 24" fill="none" xmlns="http://www.w3.org/2000/svg">
<path d="M19 4H16V3H17C17.55 3 18 2.55 18 2C18 1.45 17.55 1 17 1H15C14.45 1 14 1.45 14 2V4H7C4.24 4 2 6.24 2 9V18C2 18.55 2.45 19 3 19H8V22C8 22.55 8.45 23 9 23H17C17.55 23 18 22.55 18 22V19H23C23.55 19 24 18.55 24 18V9C24 6.24 21.76 4 19 4ZM4 17V9C4 7.35 5.35 6 7 6C8.65 6 10 7.35 10 9V17H4ZM16 21H10V19H16V21ZM22 17H12V9C12 7.87 11.61 6.84 10.97 6H14V10C14 10.55 14.45 11 15 11C15.55 11 16 10.55 16 10V6H19C20.65 6 22 7.35 22 9V17Z" fill="currentColor"/>
</svg>
