<svg viewBox="0 0 24 24" fill="none" xmlns="http://www.w3.org/2000/svg">
<path d="M23.99 7.85656C23.99 7.85656 23.99 7.77654 23.97 7.73653C23.95 7.67652 23.92 7.6165 23.89 7.55649C23.84 7.45647 23.78 7.37645 23.7 7.29643C23.68 7.27643 23.67 7.26642 23.65 7.24642C23.61 7.21641 23.59 7.1664 23.54 7.1464L14.61 1.46511C13.64 0.844965 12.38 0.844965 11.4 1.46511L2.47 7.1464C2.47 7.1464 2.4 7.21641 2.36 7.24642C2.34 7.26642 2.33 7.27643 2.31 7.29643C2.23 7.37645 2.17 7.45647 2.12 7.55649C2.09 7.6165 2.06 7.67652 2.04 7.73653C2.03 7.77654 2.03 7.81655 2.02 7.85656C2.02 7.90657 2 7.95658 2 8.00659V19.9993C2 21.6597 3.35 23 5 23H21C22.65 23 24 21.6497 24 19.9993V8.00659C24 7.95658 23.99 7.90657 23.98 7.85656H23.99ZM12.48 3.15549C12.8 2.95544 13.22 2.95544 13.54 3.15549L21.31 8.08661L13.64 14.238C13.27 14.5281 12.76 14.5281 12.39 14.238L4.71 8.09661L12.48 3.16549V3.15549ZM22.01 20.0093C22.01 20.5594 21.56 21.0095 21.01 21.0095H5.01C4.46 21.0095 4.01 20.5594 4.01 20.0093V10.0971L11.13 15.8084C12.23 16.6886 13.78 16.6886 14.88 15.8084L22 10.0971V20.0093H22.01Z" fill="currentColor"/>
</svg>
