<svg viewBox="0 0 25 24" fill="none" xmlns="http://www.w3.org/2000/svg">
<path d="M9.27 14.87C9.23 14.52 9.22 13.33 10.78 12.97C14.01 12.23 14.01 9.81 14.01 6.99H12.01C12.01 10.19 11.81 10.68 10.34 11.02C7.98 11.56 7.1 13.45 7.29 15.09C7.48 16.79 8.82 18.51 11.02 18.51H15.02V16.51H11.02C10 16.51 9.37 15.68 9.28 14.86L9.27 14.87Z" fill="currentColor"/>
<path d="M10.51 10V8C10.51 7.45 10.06 7 9.51 7C8.96 7 8.51 7.45 8.51 8V10C8.51 10.55 8.96 11 9.51 11C10.06 11 10.51 10.55 10.51 10Z" fill="currentColor"/>
<path d="M16.51 7C15.96 7 15.51 7.44 15.51 7.99V9.99C15.49 10.54 15.94 10.99 16.49 11C17.04 11 17.49 10.56 17.49 10.01V8.01C17.51 7.46 17.06 7.01 16.51 7Z" fill="currentColor"/>
<path d="M13 1C6.93 1 2 5.93 2 12V22C2 22.55 2.45 23 3 23C3.55 23 4 22.55 4 22V12C4 7.04 8.04 3 13 3C17.96 3 22 7.04 22 12V22C22 22.55 22.45 23 23 23C23.55 23 24 22.55 24 22V12C24 5.93 19.07 1 13 1Z" fill="currentColor"/>
</svg>
