<svg viewBox="0 0 24 24" fill="none" xmlns="http://www.w3.org/2000/svg">
<path d="M22.0484 14.525C21.5284 14.005 20.8884 13.715 20.2284 13.605C20.7284 12.475 20.9984 11.245 20.9984 9.98499C20.9984 5.02499 16.9584 0.994995 11.9984 0.994995C7.03842 0.994995 3.00842 5.02499 3.00842 9.98499C3.00842 10.815 3.12842 11.635 3.34842 12.425C3.18842 12.505 3.03842 12.585 2.88842 12.685C1.71842 13.465 1.00842 14.775 1.00842 16.195V17.685C1.00842 18.235 1.45842 18.685 2.00842 18.685C2.55842 18.685 3.00842 18.235 3.00842 17.685V16.195C3.00842 15.455 3.37842 14.765 3.99842 14.355C4.74842 13.855 5.70842 13.855 6.44842 14.355C6.44842 14.355 6.52842 14.415 6.53842 14.415C7.58842 15.115 8.80842 15.485 10.0684 15.485H13.2684C13.5984 15.485 13.8784 15.755 13.8784 16.095C13.8784 16.345 13.7284 16.555 13.5084 16.655C13.3184 16.685 13.1284 16.705 12.9384 16.705H8.44842C7.89842 16.705 7.44842 17.155 7.44842 17.705C7.44842 18.255 7.89842 18.705 8.44842 18.705H13.2684C13.4884 18.705 13.6884 18.675 13.8884 18.625C15.0284 18.455 16.0984 17.985 16.9384 17.285L18.9184 15.885C19.4284 15.455 20.1684 15.485 20.6484 15.965C20.8984 16.225 21.0384 16.565 21.0184 16.925C21.0084 17.285 20.8484 17.615 20.6084 17.815L17.8784 19.955C17.0884 20.635 16.0784 21.005 15.0384 21.005H5.21842C4.66842 21.005 4.21842 21.455 4.21842 22.005C4.21842 22.555 4.66842 23.005 5.21842 23.005H15.0184C16.5384 23.005 18.0084 22.465 19.1184 21.505L21.8484 19.365C22.5384 18.775 22.9584 17.915 22.9884 17.005C23.0284 16.095 22.6784 15.205 22.0284 14.555L22.0484 14.525ZM15.8184 15.615C15.5984 14.405 14.5384 13.485 13.2584 13.485H10.0584C9.19842 13.485 8.35842 13.235 7.64842 12.755C7.64842 12.755 7.56842 12.695 7.55842 12.695C6.86842 12.235 6.08842 12.005 5.29842 11.995C5.10842 11.345 5.00842 10.675 5.00842 9.995C5.00842 6.135 8.14842 2.995 12.0084 2.995C15.8684 2.995 19.0084 6.135 19.0084 9.995C19.0084 11.685 18.3984 13.305 17.2884 14.585L15.8284 15.625L15.8184 15.615Z" fill="currentColor"/>
<path d="M15.9284 10.725C16.1384 9.63499 15.7284 8.535 14.7984 7.98499C13.6084 7.285 12.2684 7.535 11.2984 8.63499C10.5184 9.51499 10.2784 9.375 10.1384 9.295C9.94842 9.185 9.89842 8.805 10.0984 8.455C10.2184 8.245 10.4184 8.095 10.6184 8.055C11.1584 7.94499 11.5084 7.415 11.3984 6.875C11.2884 6.335 10.7584 5.975 10.2184 6.095C9.77842 6.185 9.37842 6.395 9.02842 6.685C8.56842 6.475 8.01842 6.625 7.75842 7.075C7.49842 7.515 7.62842 8.06499 8.02842 8.365C7.82842 9.415 8.22842 10.485 9.12842 11.015C10.9284 12.075 12.3384 10.475 12.7984 9.955C13.2284 9.475 13.5384 9.555 13.7884 9.705C14.0084 9.835 14.0884 10.255 13.8484 10.655C13.6584 10.975 13.3784 11.115 13.1684 11.115C12.6184 11.115 12.1684 11.565 12.1684 12.115C12.1684 12.665 12.6184 13.115 13.1684 13.115C13.7984 13.115 14.3984 12.855 14.8984 12.435C15.0584 12.525 15.2284 12.575 15.3984 12.575C15.7384 12.575 16.0784 12.395 16.2584 12.085C16.5384 11.615 16.3784 11.015 15.9184 10.735L15.9284 10.725Z" fill="currentColor"/>
</svg>
