<svg viewBox="0 0 24 24" fill="none" xmlns="http://www.w3.org/2000/svg">
<path d="M22 1H2C1.45 1 1 1.45 1 2V13C1 13.55 1.45 14 2 14H4.01V16C4.01 18.16 4.64 20.26 5.83 22.06L6.16 22.55C6.35 22.84 6.67 23 6.99 23C7.18 23 7.37 22.95 7.54 22.83C8 22.53 8.13 21.91 7.82 21.44L7.49 20.95C6.51 19.47 6 17.76 6 15.99V13.99H13.99V14.62C12.27 15.07 10.99 16.63 10.99 18.49V18.99C10.99 19.54 11.44 19.99 11.99 19.99C12.54 19.99 12.99 19.54 12.99 18.99V18.49C12.99 17.39 13.89 16.49 14.99 16.49C15.54 16.49 15.99 16.04 15.99 15.49V11.99C15.99 11.44 16.44 10.99 16.99 10.99C17.54 10.99 17.99 11.44 17.99 11.99V16.5C17.99 17.84 17.47 19.09 16.53 20.04L15.29 21.28C14.9 21.67 14.9 22.3 15.29 22.69C15.49 22.89 15.74 22.98 16 22.98C16.26 22.98 16.51 22.88 16.71 22.69L17.95 21.45C19.27 20.13 20 18.37 20 16.5V13.99H22C22.55 13.99 23 13.54 23 12.99V2C23 1.45 22.55 1 22 1ZM21 12H20C20 10.35 18.65 9 17 9C15.35 9 14 10.35 14 12H3V3H21V12Z" fill="currentColor"/>
<path d="M12 9.5C13.1046 9.5 14 8.60457 14 7.5C14 6.39543 13.1046 5.5 12 5.5C10.8954 5.5 10 6.39543 10 7.5C10 8.60457 10.8954 9.5 12 9.5Z" fill="currentColor"/>
</svg>
