<svg viewBox="0 0 25 24" fill="none" xmlns="http://www.w3.org/2000/svg">
<path d="M12.2238 1C6.15382 1 1.22382 5.93 1.22382 12C1.22382 18.07 6.15382 23 12.2238 23C18.2938 23 23.2238 18.07 23.2238 12C23.2238 5.93 18.2938 1 12.2238 1ZM7.72382 13.5C6.89382 13.5 6.22382 12.83 6.22382 12C6.22382 11.17 6.89382 10.5 7.72382 10.5C8.55382 10.5 9.22382 11.17 9.22382 12C9.22382 12.83 8.55382 13.5 7.72382 13.5ZM12.2238 13.5C11.3938 13.5 10.7238 12.83 10.7238 12C10.7238 11.17 11.3938 10.5 12.2238 10.5C13.0538 10.5 13.7238 11.17 13.7238 12C13.7238 12.83 13.0538 13.5 12.2238 13.5ZM16.7238 13.5C15.8938 13.5 15.2238 12.83 15.2238 12C15.2238 11.17 15.8938 10.5 16.7238 10.5C17.5538 10.5 18.2238 11.17 18.2238 12C18.2238 12.83 17.5538 13.5 16.7238 13.5Z" fill="currentColor"/>
</svg>
