<svg viewBox="0 0 24 24" fill="none" xmlns="http://www.w3.org/2000/svg">
<path d="M10.9725 18H3.98167C3.43239 18 2.98298 17.55 2.98298 17V10H20.9594V12C20.9594 12.55 21.4088 13 21.9581 13C22.5074 13 22.9568 12.55 22.9568 12V7C22.9568 5.35 21.6086 4 19.9607 4H3.98167C2.33383 4 0.985596 5.35 0.985596 7V17C0.985596 18.65 2.33383 20 3.98167 20H10.9725C11.5218 20 11.9712 19.55 11.9712 19C11.9712 18.45 11.5218 18 10.9725 18ZM3.98167 6H19.9607C20.51 6 20.9594 6.45 20.9594 7V8H2.98298V7C2.98298 6.45 3.43239 6 3.98167 6Z" fill="currentColor"/>
<path d="M10.9725 14H5.97905C5.42977 14 4.98036 14.45 4.98036 15C4.98036 15.55 5.42977 16 5.97905 16H10.9725C11.5218 16 11.9712 15.55 11.9712 15C11.9712 14.45 11.5218 14 10.9725 14Z" fill="currentColor"/>
<path d="M22.6272 16.81C22.4175 16.3 21.8383 16.05 21.3289 16.26C20.8196 16.47 20.5699 17.05 20.7796 17.56C21.0293 18.18 21.0293 18.86 20.7697 19.47C20.51 20.08 20.0306 20.56 19.4114 20.81C18.7923 21.06 18.1131 21.06 17.5039 20.8C16.8947 20.54 16.4154 20.06 16.1657 19.44C15.916 18.82 15.916 18.14 16.1757 17.53C16.3554 17.1 16.6551 16.74 17.0346 16.47C16.725 16.92 16.8348 17.54 17.2742 17.86C17.444 17.98 17.6537 18.04 17.8535 18.04C18.1631 18.04 18.4727 17.89 18.6724 17.62L20.1904 15.47C20.1904 15.47 20.2004 15.44 20.2104 15.42C20.2404 15.37 20.2603 15.31 20.2903 15.25C20.3202 15.18 20.3402 15.12 20.3502 15.05C20.3502 15.03 20.3602 15.02 20.3702 15C20.3702 14.95 20.3602 14.91 20.3602 14.87C20.3602 14.82 20.3702 14.77 20.3602 14.72C20.3602 14.7 20.3402 14.68 20.3402 14.66C20.3202 14.6 20.3003 14.54 20.2703 14.48C20.2404 14.42 20.2204 14.36 20.1804 14.31C20.1405 14.26 20.0906 14.21 20.0506 14.17C20.0206 14.14 19.9907 14.1 19.9507 14.07L17.8035 12.55C17.3541 12.23 16.725 12.34 16.4154 12.79C16.0958 13.24 16.2056 13.87 16.6551 14.18L16.8348 14.31C16.8348 14.31 16.8049 14.31 16.7949 14.33C15.6863 14.78 14.8175 15.64 14.3481 16.75C13.8787 17.86 13.8687 19.08 14.3281 20.19C14.7775 21.3 15.6364 22.17 16.7449 22.64C17.3042 22.88 17.9034 23 18.4926 23C19.0819 23 19.6411 22.89 20.1804 22.67C21.289 22.22 22.1578 21.36 22.6272 20.25C23.0966 19.14 23.1066 17.92 22.6472 16.81H22.6272Z" fill="currentColor"/>
</svg>
