<svg viewBox="0 0 24 24" fill="none" xmlns="http://www.w3.org/2000/svg">
<path d="M12.8454 11.3247L9.07367 15.4166L7.07276 13.7458C6.64257 13.3956 6.01228 13.4557 5.66212 13.8759C5.31196 14.296 5.36198 14.9363 5.79218 15.2865L8.52342 17.5575C8.71351 17.7176 8.93361 17.7876 9.16371 17.7876C9.43383 17.7876 9.70396 17.6776 9.89404 17.4675L14.3161 12.6753C14.6962 12.2651 14.6662 11.6348 14.256 11.2647C13.8458 10.8945 13.2156 10.9145 12.8454 11.3247Z" fill="currentColor"/>
<path d="M19.1883 1H8.82356C6.7126 1 5.00182 2.71078 5.00182 4.82174V5.00182H4.82174C2.71078 5.00182 1 6.7126 1 8.82356V19.1783C1 21.2892 2.71078 23 4.82174 23H15.1764C17.2874 23 18.9982 21.2892 18.9982 19.1783V18.9982H19.1783C21.2892 18.9982 23 17.2874 23 15.1764V4.82174C23 2.71078 21.2892 1 19.1783 1H19.1883ZM17.0073 19.1883C17.0073 20.1887 16.1869 21.0091 15.1864 21.0091H4.82174C3.82128 21.0091 3.00091 20.1887 3.00091 19.1883V8.82356C3.00091 7.8231 3.82128 7.00273 4.82174 7.00273H15.1764C16.1769 7.00273 16.9973 7.8231 16.9973 8.82356V19.1783L17.0073 19.1883ZM21.0091 15.1864C21.0091 16.1869 20.1887 17.0073 19.1883 17.0073H19.0082V8.82356C19.0082 6.7126 17.2974 5.00182 15.1864 5.00182H7.00273V4.82174C7.00273 3.82128 7.8231 3.00091 8.82356 3.00091H19.1783C20.1787 3.00091 20.9991 3.82128 20.9991 4.82174V15.1764L21.0091 15.1864Z" fill="currentColor"/>
</svg>
