<svg viewBox="0 0 24 24" fill="none" xmlns="http://www.w3.org/2000/svg">
<path d="M18 1H6C3.24 1 1 3.24 1 6V18C1 20.76 3.24 23 6 23H18C20.76 23 23 20.76 23 18V6C23 3.24 20.76 1 18 1ZM21 6V7H15.89L17.22 3H18C19.65 3 21 4.35 21 6ZM8.89 7L10.22 3H15.11L13.78 7H8.89ZM6 3H8.11L6.78 7H3V6C3 4.35 4.35 3 6 3ZM18 21H6C4.35 21 3 19.65 3 18V9H21V18C21 19.65 19.65 21 18 21Z" fill="currentColor"/>
<path d="M14.5 13.63L11 11.63C10.69 11.45 10.31 11.46 10 11.63C9.69 11.81 9.5 12.14 9.5 12.5V16.5C9.5 16.86 9.69 17.19 10 17.37C10.16 17.46 10.33 17.5 10.5 17.5C10.67 17.5 10.84 17.46 11 17.37L14.5 15.37C14.81 15.19 15 14.86 15 14.5C15 14.14 14.81 13.81 14.5 13.63Z" fill="currentColor"/>
</svg>
