<svg viewBox="0 0 24 24" fill="none" xmlns="http://www.w3.org/2000/svg">
<path d="M20.5 16.16V14C20.5 12.35 19.15 11 17.5 11H13V7.84C14.44 7.41 15.5 6.08 15.5 4.5C15.5 2.57 13.93 1 12 1C10.07 1 8.5 2.57 8.5 4.5C8.5 6.08 9.56 7.4 11 7.84V11H6.5C4.85 11 3.5 12.35 3.5 14V16.16C2.06 16.59 1 17.92 1 19.5C1 21.43 2.57 23 4.5 23C6.43 23 8 21.43 8 19.5C8 17.92 6.94 16.6 5.5 16.16V14C5.5 13.45 5.95 13 6.5 13H11V16.16C9.56 16.59 8.5 17.92 8.5 19.5C8.5 21.43 10.07 23 12 23C13.93 23 15.5 21.43 15.5 19.5C15.5 17.92 14.44 16.6 13 16.16V13H17.5C18.05 13 18.5 13.45 18.5 14V16.16C17.06 16.59 16 17.92 16 19.5C16 21.43 17.57 23 19.5 23C21.43 23 23 21.43 23 19.5C23 17.92 21.94 16.6 20.5 16.16ZM10.5 4.5C10.5 3.67 11.17 3 12 3C12.83 3 13.5 3.67 13.5 4.5C13.5 5.33 12.83 6 12 6C11.17 6 10.5 5.33 10.5 4.5ZM6 19.5C6 20.33 5.33 21 4.5 21C3.67 21 3 20.33 3 19.5C3 18.67 3.67 18 4.5 18C5.33 18 6 18.67 6 19.5ZM13.5 19.5C13.5 20.33 12.83 21 12 21C11.17 21 10.5 20.33 10.5 19.5C10.5 18.67 11.17 18 12 18C12.83 18 13.5 18.67 13.5 19.5ZM19.5 21C18.67 21 18 20.33 18 19.5C18 18.67 18.67 18 19.5 18C20.33 18 21 18.67 21 19.5C21 20.33 20.33 21 19.5 21Z" fill="currentColor"/>
</svg>
