<svg viewBox="0 0 24 24" fill="none" xmlns="http://www.w3.org/2000/svg">
<path d="M12 15.8467C14.7594 15.8467 16.9989 13.6057 16.9989 10.8445V8.42337L22.7076 2.71078C23.0975 2.3206 23.0975 1.69031 22.7076 1.30014C22.3177 0.909959 21.6878 0.909959 21.2979 1.30014L1.29243 21.2992C0.902522 21.6894 0.902522 22.3197 1.29243 22.7099C1.49239 22.91 1.74233 23 2.00227 23C2.26221 23 2.51216 22.9 2.71211 22.7099L7.27108 18.1478C8.41082 18.8581 9.67053 19.2883 11.0102 19.4384V20.9991H8.01091C7.46103 20.9991 7.01113 21.4493 7.01113 21.9995C7.01113 22.5498 7.46103 23 8.01091 23H16.0091C16.559 23 17.0089 22.5498 17.0089 21.9995C17.0089 21.4493 16.559 20.9991 16.0091 20.9991H13.0098V19.4384C17.4988 18.9382 21.008 15.1164 21.008 10.4943C21.008 9.94407 20.5581 9.49386 20.0082 9.49386C19.4583 9.49386 19.0084 9.94407 19.0084 10.4943C19.0084 14.3561 15.8691 17.4975 12.01 17.4975C10.8503 17.4975 9.74051 17.2174 8.74074 16.6871L10.0105 15.4166C10.6403 15.6867 11.3102 15.8367 12.01 15.8367L12 15.8467ZM14.9993 10.8445C14.9993 12.4952 13.6496 13.8458 12 13.8458C11.87 13.8458 11.7301 13.8358 11.6001 13.8158L14.9993 10.4143V10.8445Z" fill="currentColor"/>
<path d="M8.00091 11.8449C8.55078 11.8449 9.00068 11.3947 9.00068 10.8445V6.00227C9.00068 4.35152 10.3504 3.00091 12 3.00091C12.9798 3.00091 13.8996 3.48113 14.4594 4.2915C14.7794 4.7417 15.3992 4.86176 15.8491 4.54161C16.299 4.22146 16.419 3.60118 16.0991 3.15098C15.1593 1.81037 13.6296 1 11.99 1C9.23063 1 6.99114 3.24102 6.99114 6.00227V10.8445C6.99114 11.3947 7.44104 11.8449 7.99091 11.8449H8.00091Z" fill="currentColor"/>
<path d="M5.00159 15.3765C5.16155 15.3765 5.33152 15.3365 5.48148 15.2465C5.96137 14.9764 6.14133 14.3661 5.87139 13.8859C5.30152 12.8554 5.00159 11.6849 5.00159 10.4943C5.00159 9.94407 4.55169 9.49386 4.00182 9.49386C3.45194 9.49386 3.00205 9.94407 3.00205 10.4943C3.00205 12.025 3.39196 13.5257 4.12179 14.8563C4.30175 15.1864 4.64167 15.3665 5.00159 15.3665V15.3765Z" fill="currentColor"/>
</svg>
