<svg viewBox="0 0 25 24" fill="none" xmlns="http://www.w3.org/2000/svg">
<path d="M22.4589 6.40139L4.76009 1.09184C4.01057 0.861857 3.19109 1.07184 2.63144 1.63179C2.0718 2.19175 1.86193 3.00168 2.09179 3.76161L7.39842 21.4701C7.66825 22.3601 8.42777 22.95 9.35718 23C9.38716 23 9.42713 23 9.45711 23C10.3366 23 11.1161 22.48 11.4459 21.6501L14.6238 13.7108C14.6238 13.7108 14.6638 13.6408 14.7038 13.6308L22.6487 10.4511C23.5082 10.1111 24.0379 9.29115 23.9979 8.36123C23.9579 7.4413 23.3583 6.67137 22.4689 6.40139H22.4589ZM21.8992 8.59121L13.9543 11.7709C13.4146 11.9909 12.9749 12.4209 12.765 12.9608L9.58703 20.9002C9.58703 20.9002 9.54706 20.9902 9.44712 20.9902C9.34718 20.9902 9.3272 20.9202 9.3172 20.8902L4.01057 3.19166C4.01057 3.19166 3.98059 3.11167 4.05054 3.05167C4.11051 2.99168 4.17047 3.01168 4.19046 3.01168L21.8892 8.32123C21.8892 8.32123 21.9892 8.35123 21.9892 8.45122C21.9892 8.55121 21.9292 8.58121 21.8992 8.59121Z" fill="currentColor"/>
</svg>
