<svg viewBox="0 0 24 24" fill="none" xmlns="http://www.w3.org/2000/svg">
<path d="M13 1C13 1 12.98 1 12.97 1C12.97 1 12.97 1 12.96 1C12.95 1 12.94 1 12.93 1C6.89 1.04 2 5.96 2 12C2 18.04 6.89 22.96 12.93 23C12.94 23 12.95 23 12.96 23C12.96 23 12.96 23 12.97 23C12.97 23 12.99 23 13 23C19.07 23 24 18.07 24 12C24 5.93 19.07 1 13 1ZM17.98 11C17.87 8.27 17.3 5.55 16.31 3.64C19.34 4.84 21.57 7.64 21.95 11H17.98ZM12.97 21C12.97 21 12.95 21 12.94 21C11.78 20.97 10.14 17.9 9.94 13H15.98C15.78 17.9 14.13 20.98 12.97 21ZM9.94 11C10.14 6.11 11.78 3.03 12.94 3C12.94 3 12.96 3 12.97 3C14.13 3.02 15.78 6.1 15.98 11H9.94ZM9.59 3.67C8.61 5.58 8.05 8.28 7.94 11H4.06C4.43 7.68 6.61 4.9 9.59 3.67ZM4.06 13H7.94C8.05 15.71 8.61 18.42 9.59 20.33C6.61 19.11 4.42 16.33 4.06 13ZM16.31 20.36C17.3 18.45 17.87 15.73 17.98 13H21.94C21.57 16.36 19.34 19.16 16.3 20.36H16.31Z" fill="currentColor"/>
</svg>
