<svg viewBox="0 0 24 24" fill="none" xmlns="http://www.w3.org/2000/svg">
<path d="M6.5487 11C6.5487 11.54 6.9787 11.98 7.5187 11.99L9.7287 10H7.5487C6.9987 10 6.5487 10.45 6.5487 11Z" fill="currentColor"/>
<path d="M22.7287 2.33C22.3587 1.92 21.7287 1.89 21.3187 2.26L14.9387 8L13.9687 8.88L5.5287 16.48L4.9987 16.96L1.4187 20.18L1.3287 20.26C0.918701 20.63 0.888701 21.26 1.2587 21.67C1.4587 21.89 1.7287 22 1.9987 22C2.2387 22 2.4787 21.92 2.6687 21.74L2.9987 21.44V21.99C2.9987 22.34 3.1787 22.66 3.4687 22.84C3.7587 23.02 4.1287 23.04 4.4387 22.88L7.9887 21.1L11.5387 22.88C11.8187 23.02 12.1487 23.02 12.4287 22.88L15.9787 21.1L19.5287 22.88C19.6687 22.95 19.8187 22.99 19.9787 22.99C20.1587 22.99 20.3487 22.94 20.5087 22.84C20.7987 22.66 20.9787 22.34 20.9787 21.99V5.25L22.6487 3.75C23.0587 3.38 23.0887 2.75 22.7187 2.34L22.7287 2.33ZM18.9887 20.38L16.4387 19.1C16.1587 18.96 15.8287 18.96 15.5487 19.1L11.9987 20.88L8.4487 19.1C8.3087 19.03 8.1587 18.99 7.9987 18.99C7.8387 18.99 7.6887 19.03 7.5487 19.1L4.9987 20.38V19.64L9.0487 15.99H16.4387C16.9887 15.99 17.4387 15.54 17.4387 14.99C17.4387 14.44 16.9887 13.99 16.4387 13.99H11.2687L13.4887 11.99H16.4387C16.9887 11.99 17.4387 11.54 17.4387 10.99C17.4387 10.44 16.9887 9.99 16.4387 9.99H15.7087L18.9887 7.04V20.38Z" fill="currentColor"/>
<path d="M4.9887 3H17.5087L19.7287 1H3.9887C3.4387 1 2.9887 1.45 2.9887 2V16.06L4.9887 14.26V3Z" fill="currentColor"/>
<path d="M14.1687 6H7.5387C6.9887 6 6.5387 6.45 6.5387 7C6.5387 7.55 6.9887 8 7.5387 8H11.9387L14.1587 6H14.1687Z" fill="currentColor"/>
</svg>
