<svg viewBox="0 0 24 24" fill="none" xmlns="http://www.w3.org/2000/svg">
<path d="M22 9C21.45 9 21 9.45 21 10V20C21 20.55 20.55 21 20 21H10V17C10 15.35 8.65001 14 7.00001 14H3.00001V4C3.00001 3.45 3.45001 3 4.00001 3H14C14.55 3 15 2.55 15 2C15 1.45 14.55 1 14 1H4.00001C2.35001 1 1.00001 2.35 1.00001 4V15C1.00001 15 1.01001 15.04 1.01001 15.06C1.01001 15.15 1.03001 15.23 1.06001 15.32C1.07001 15.35 1.08001 15.38 1.09001 15.41C1.14001 15.52 1.20001 15.62 1.29001 15.7L8.29001 22.7C8.38001 22.79 8.50001 22.87 8.62001 22.92C8.74001 22.97 8.87001 23 9.00001 23H20C21.65 23 23 21.65 23 20V10C23 9.45 22.55 9 22 9ZM4.41001 16H7.00001C7.55001 16 8.00001 16.45 8.00001 17V19.59L4.41001 16Z" fill="currentColor"/>
<path d="M18 5H19V6C19 6.55 19.45 7 20 7C20.55 7 21 6.55 21 6V5H22C22.55 5 23 4.55 23 4C23 3.45 22.55 3 22 3H21V2C21 1.45 20.55 1 20 1C19.45 1 19 1.45 19 2V3H18C17.45 3 17 3.45 17 4C17 4.55 17.45 5 18 5Z" fill="currentColor"/>
</svg>
