<svg viewBox="0 0 24 24" fill="none" xmlns="http://www.w3.org/2000/svg">
<path d="M22.5367 17.1774C20.9373 16.1069 19.9877 14.3261 19.9877 12.4052V9.01364C19.9877 4.59163 16.399 1 11.9906 1C7.58223 1 3.99355 4.59163 3.99355 9.00364V12.3952C3.99355 14.3161 3.0339 16.1069 1.44449 17.1673C1.07462 17.4075 0.914684 17.8677 1.04464 18.2879C1.17459 18.708 1.56444 18.9982 2.00428 18.9982H8.54188C8.52189 19.1583 8.50189 19.3283 8.50189 19.4984C8.50189 21.4293 10.0713 23 12.0006 23C13.9299 23 15.4993 21.4293 15.4993 19.4984C15.4993 19.3283 15.4793 19.1583 15.4593 18.9982H21.9969C22.4368 18.9982 22.8266 18.708 22.9566 18.2879C23.0865 17.8677 22.9166 17.4075 22.5567 17.1673L22.5367 17.1774ZM13.4901 19.5084C13.4901 20.3388 12.8203 21.0091 11.9906 21.0091C11.1609 21.0091 10.4912 20.3388 10.4912 19.5084C10.4912 19.3183 10.5311 19.1483 10.5811 19.0082H13.4001C13.4501 19.1483 13.4901 19.3183 13.4901 19.5084ZM4.47337 17.0073C5.44302 15.6967 5.99282 14.0859 5.99282 12.3952V9.00364C5.99282 5.69213 8.68183 3.00091 11.9906 3.00091C15.2994 3.00091 17.9884 5.69213 17.9884 9.00364V12.3952C17.9884 14.0859 18.5282 15.6867 19.5078 17.0073H4.47337Z" fill="currentColor"/>
</svg>
