<svg viewBox="0 0 24 24" fill="none" xmlns="http://www.w3.org/2000/svg">
<path d="M22.0468 16.1669C20.5473 15.1764 19.6476 13.5257 19.6476 11.7449V8.56344C19.6476 4.39154 16.2187 1 12 1C7.78134 1 4.35242 4.38154 4.35242 8.55343V11.7349C4.35242 13.5157 3.45271 15.1664 1.95318 16.1569C1.5833 16.397 1.41335 16.8572 1.54331 17.2774C1.67327 17.6976 2.06315 17.9877 2.50301 17.9877H21.497C21.9369 17.9877 22.3267 17.6976 22.4567 17.2774C22.5866 16.8572 22.4167 16.397 22.0468 16.1569V16.1669Z" fill="currentColor"/>
<path d="M12 23C13.7594 23 15.199 21.6894 15.4489 19.9986H8.55109C8.80101 21.6894 10.2406 23 12 23Z" fill="currentColor"/>
</svg>
