<svg viewBox="0 0 24 24" fill="none" xmlns="http://www.w3.org/2000/svg">
<path d="M23.5446 17.17C21.9446 16.1 20.9946 14.32 20.9946 12.4V9.01C20.9946 8.04 20.8146 7.1 20.4746 6.2L23.7246 2.69C24.1046 2.28 24.0746 1.65 23.6746 1.28C23.2646 0.9 22.6346 0.93 22.2646 1.34L3.76456 21.32C3.38456 21.73 3.41456 22.36 3.81456 22.73C4.00456 22.91 4.25456 23 4.49456 23C4.76456 23 5.03456 22.89 5.22456 22.68L8.62456 19H9.52456C9.50456 19.16 9.48456 19.33 9.48456 19.5C9.48456 21.43 11.0546 23 12.9846 23C14.9146 23 16.4846 21.43 16.4846 19.5C16.4846 19.33 16.4646 19.16 16.4446 19H22.9846C23.4246 19 23.8146 18.71 23.9446 18.29C24.0746 17.87 23.9046 17.41 23.5446 17.17ZM12.9946 21C12.1646 21 11.4946 20.33 11.4946 19.5C11.4946 19.31 11.5346 19.14 11.5846 19H14.4046C14.4546 19.14 14.4946 19.31 14.4946 19.5C14.4946 20.33 13.8246 21 12.9946 21ZM10.4846 17L18.8946 7.91C18.9646 8.27 19.0046 8.63 19.0046 9V12.39C19.0046 14.08 19.5446 15.68 20.5246 17H10.4846Z" fill="currentColor"/>
<path d="M6.99456 12.39V9C6.99456 5.69 9.68456 3 12.9946 3C14.1946 3 15.3446 3.35 16.3346 4.01C16.7946 4.32 17.4146 4.19 17.7246 3.74C18.0346 3.28 17.9146 2.66 17.4546 2.35C16.1246 1.47 14.5846 1 12.9946 1C8.58456 1 4.99456 4.59 4.99456 9V12.39C4.99456 14.31 4.03456 16.1 2.44456 17.16C1.98456 17.47 1.86456 18.09 2.16456 18.55C2.35456 18.84 2.67456 19 2.99456 19C3.18456 19 3.37456 18.95 3.54456 18.83C5.70456 17.39 6.99456 14.99 6.99456 12.39Z" fill="currentColor"/>
</svg>
