<svg viewBox="0 0 24 24" fill="none" xmlns="http://www.w3.org/2000/svg">
<path d="M22 9.97632H18.58L22.68 5.86885C23.07 5.47814 23.07 4.84699 22.68 4.45628L19.52 1.29053C19.33 1.10018 19.08 1 18.81 1C18.54 1 18.29 1.1102 18.1 1.29053L9.43 9.97632H2C1.45 9.97632 1 10.4271 1 10.9781V21.9982C1 22.5492 1.45 23 2 23H22C22.55 23 23 22.5492 23 21.9982V10.9781C23 10.4271 22.55 9.97632 22 9.97632ZM10.86 11.3689L16.27 5.93898L18.02 7.69217L12.61 13.112L10.34 13.633L10.86 11.3588V11.3689ZM18.8 3.40437L20.55 5.15756L19.43 6.2796L17.68 4.52641L18.8 3.40437ZM21 20.9964H3V11.98H8.67L8.03 14.765C7.95 15.1056 8.05 15.4563 8.3 15.6967C8.49 15.8871 8.75 15.9873 9.01 15.9873C9.09 15.9873 9.16 15.9872 9.23 15.9572L13.34 15.0055C13.52 14.9654 13.69 14.8752 13.82 14.735L16.58 11.9699H21V20.9964Z" fill="currentColor"/>
<path d="M14 16.9891H6C5.45 16.9891 5 17.4399 5 17.9909C5 18.5419 5.45 18.9927 6 18.9927H14C14.55 18.9927 15 18.5419 15 17.9909C15 17.4399 14.55 16.9891 14 16.9891Z" fill="currentColor"/>
</svg>
