<svg viewBox="0 0 24 24" fill="none" xmlns="http://www.w3.org/2000/svg">
<path d="M19.145 3.60512L13.255 1.24512C12.855 1.08512 12.435 1.00512 12.015 0.995117H11.995C11.545 0.995117 11.095 1.07512 10.665 1.24512L4.835 3.60512C3.715 4.05512 2.995 5.15512 2.995 6.39512V17.6051C2.995 18.8451 3.715 19.9451 4.835 20.3951L10.655 22.7451C11.075 22.9151 11.515 23.0051 11.965 23.0051C12.415 23.0051 12.845 22.9251 13.265 22.7551L19.155 20.3951C20.275 19.9451 21.005 18.8451 21.005 17.6051V6.39512C21.005 5.14512 20.275 4.05512 19.155 3.60512H19.145ZM16.995 8.53512L18.995 7.21512V16.7551L16.995 15.3751V8.53512ZM18.165 5.36512L15.925 6.84512L12.995 5.37512V3.29512L18.165 5.36512ZM11.995 16.8751L8.995 15.3751V8.61512L11.995 7.11512L14.995 8.61512V15.3751L11.995 16.8751ZM10.995 3.26512V5.37512L8.065 6.84512L5.825 5.36512L10.995 3.27512V3.26512ZM4.995 16.7751V7.20512L6.995 8.52512V15.4451L4.995 16.7651V16.7751ZM5.825 18.6251L8.065 17.1451L10.995 18.6151V20.7251L5.825 18.6351V18.6251ZM12.995 18.6151L16.005 17.1151L18.185 18.6251L12.995 20.7051V18.6151Z" fill="currentColor"/>
</svg>
