<svg viewBox="0 0 24 24" fill="none" xmlns="http://www.w3.org/2000/svg">
<path d="M19.5 16C17.92 16 16.6 17.06 16.16 18.5H5.75C4.23 18.5 3 17.27 3 15.75C3 14.23 4.23 13 5.75 13H8.66C9.09 14.44 10.42 15.5 12 15.5C13.58 15.5 14.9 14.44 15.34 13H18.25C20.87 13 23 10.87 23 8.25C23 5.63 20.87 3.5 18.25 3.5H7.84C7.41 2.06 6.08 1 4.5 1C2.57 1 1 2.57 1 4.5C1 6.43 2.57 8 4.5 8C6.08 8 7.4 6.94 7.84 5.5H18.25C19.77 5.5 21 6.73 21 8.25C21 9.77 19.77 11 18.25 11H15.34C14.91 9.56 13.58 8.5 12 8.5C10.42 8.5 9.1 9.56 8.66 11H5.75C3.13 11 1 13.13 1 15.75C1 18.37 3.13 20.5 5.75 20.5H16.16C16.59 21.94 17.92 23 19.5 23C21.43 23 23 21.43 23 19.5C23 17.57 21.43 16 19.5 16ZM4.5 6C3.67 6 3 5.33 3 4.5C3 3.67 3.67 3 4.5 3C5.33 3 6 3.67 6 4.5C6 5.33 5.33 6 4.5 6ZM12 10.5C12.83 10.5 13.5 11.17 13.5 12C13.5 12.83 12.83 13.5 12 13.5C11.17 13.5 10.5 12.83 10.5 12C10.5 11.17 11.17 10.5 12 10.5ZM19.5 21C18.67 21 18 20.33 18 19.5C18 18.67 18.67 18 19.5 18C20.33 18 21 18.67 21 19.5C21 20.33 20.33 21 19.5 21Z" fill="currentColor"/>
</svg>
