<svg viewBox="0 0 24 24" fill="none" xmlns="http://www.w3.org/2000/svg">
<path d="M12 1C5.93 1 1 5.93 1 12C1 18.07 5.93 23 12 23C18.07 23 23 18.07 23 12C23 5.93 18.07 1 12 1ZM12 21C7.04 21 3 16.96 3 12C3 7.04 7.04 3 12 3C16.96 3 21 7.04 21 12C21 16.96 16.96 21 12 21Z" fill="currentColor"/>
<path d="M9 8C8.45 8 8 8.45 8 9V15C8 15.55 8.45 16 9 16C9.55 16 10 15.55 10 15V9C10 8.45 9.55 8 9 8Z" fill="currentColor"/>
<path d="M15 8C14.45 8 14 8.45 14 9V15C14 15.55 14.45 16 15 16C15.55 16 16 15.55 16 15V9C16 8.45 15.55 8 15 8Z" fill="currentColor"/>
</svg>
