<svg viewBox="0 0 24 24" fill="none" xmlns="http://www.w3.org/2000/svg">
  <path
    d="M9.5 7C10.0523 7 10.5 7.44772 10.5 8V16C10.5 16.5523 10.0523 17 9.5 17C8.94771 17 8.5 16.5523 8.5 16L8.5 8C8.5 7.44772 8.94772 7 9.5 7Z"
    fill="currentColor"
  />
  <path
    d="M14.5 7C15.0523 7 15.5 7.44772 15.5 8V16C15.5 16.5523 15.0523 17 14.5 17C13.9477 17 13.5 16.5523 13.5 16V8C13.5 7.44772 13.9477 7 14.5 7Z"
    fill="currentColor"
  />
  <path
    fill-rule="evenodd"
    clip-rule="evenodd"
    d="M12 1C5.92487 1 1 5.92487 1 12C1 18.0751 5.92487 23 12 23C18.0751 23 23 18.0751 23 12C23 5.92487 18.0751 1 12 1ZM3 12C3 7.02944 7.02944 3 12 3C16.9706 3 21 7.02944 21 12C21 16.9706 16.9706 21 12 21C7.02944 21 3 16.9706 3 12Z"
    fill="currentColor"
  />
</svg>
