<svg viewBox="0 0 24 24" fill="none" xmlns="http://www.w3.org/2000/svg">
<path d="M17 1H7C3.69 1 1 3.69 1 7V17C1 20.31 3.69 23 7 23H17C20.31 23 23 20.31 23 17V7C23 3.69 20.31 1 17 1ZM21 17C21 19.21 19.21 21 17 21H7C4.79 21 3 19.21 3 17V7C3 4.79 4.79 3 7 3H17C19.21 3 21 4.79 21 7V17Z" fill="currentColor"/>
<path d="M15.99 8.98C15.99 8.86 15.97 8.74 15.92 8.62C15.87 8.5 15.8 8.39 15.7 8.29C15.61 8.2 15.49 8.12 15.37 8.07C15.25 8.02 15.12 7.99 14.99 7.99H9.85C9.3 8 8.85 8.45 8.85 9C8.85 9.55 9.3 10 9.85 10H12.57L8.28 14.28C7.89 14.67 7.89 15.3 8.28 15.69C8.48 15.89 8.73 15.98 8.99 15.98C9.25 15.98 9.5 15.88 9.7 15.69L13.99 11.4V14.14C13.99 14.69 14.44 15.14 14.99 15.14C15.54 15.14 15.99 14.69 15.99 14.14V8.99C15.99 8.99 15.99 8.98 15.99 8.97V8.98Z" fill="currentColor"/>
</svg>
