<svg viewBox="0 0 24 24" fill="none" xmlns="http://www.w3.org/2000/svg">
<path d="M20 16V5C20 4.45 19.55 4 19 4H2.00005C1.45005 4 1.00005 4.45 1.00005 5V16C1.00005 16.55 1.45005 17 2.00005 17H19C19.55 17 20 16.55 20 16ZM18 15H3.00005V6H18V15Z" fill="currentColor"/>
<path d="M22 6C21.45 6 21 6.45 21 7V18H4.00005C3.45005 18 3.00005 18.45 3.00005 19C3.00005 19.55 3.45005 20 4.00005 20H22C22.55 20 23 19.55 23 19V7C23 6.45 22.55 6 22 6Z" fill="currentColor"/>
<path d="M10.5 12.5C11.6046 12.5 12.5 11.6046 12.5 10.5C12.5 9.39543 11.6046 8.5 10.5 8.5C9.39548 8.5 8.50005 9.39543 8.50005 10.5C8.50005 11.6046 9.39548 12.5 10.5 12.5Z" fill="currentColor"/>
</svg>
