<svg id="paypal" viewBox="0 0 24 24" xmlns="http://www.w3.org/2000/svg">
<path fill-rule="evenodd" clip-rule="evenodd" d="M6.1844 18.4251H3.8464C2.62228 18.4251 1.69382 17.3012 1.94896 16.0971C1.95365 16.0678 1.95964 16.0387 1.96693 16.0099L5.21695 3.15983C5.53954 1.88483 6.68981 0.995117 7.9964 0.995117H12.7464C15.6964 0.995117 18.0154 3.20762 18.3747 5.9194C21.0053 6.88338 22.6553 9.72895 21.9159 12.64C21.2837 15.154 19.0142 16.925 16.4164 16.925H13.4545L12.2867 21.5369C12.075 22.3947 11.2931 23.005 10.4064 23.005H7.5064C6.25573 23.005 5.31369 21.8318 5.62723 20.5986C5.63705 20.5599 5.64915 20.522 5.6634 20.4851L6.1844 18.4251ZM3.92489 16.4251L7.15585 3.6504C7.25329 3.26545 7.60303 2.99512 7.9964 2.99512H12.7464C14.4313 2.99512 15.7972 4.10879 16.2563 5.57495H11.6664C10.3598 5.57495 9.20954 6.46466 8.88695 7.73967L7.86767 11.7697C7.8647 11.7804 7.8618 11.791 7.859 11.8018L6.68827 16.4251H3.92489ZM18.246 8.0599C19.6138 8.84664 20.401 10.4817 19.9772 12.1486L19.9765 12.1513C19.5683 13.7765 18.0981 14.925 16.4164 14.925H13.4064C12.5118 14.925 11.7517 15.5313 11.529 16.3816L10.3583 21.005H7.59489L9.78512 12.3451H12.7464C15.3442 12.3451 17.6138 10.574 18.246 8.0599C18.246 8.05982 18.246 8.05998 18.246 8.0599ZM16.3057 7.57495C15.8962 9.19831 14.4269 10.3451 12.7464 10.3451H10.291L10.8258 8.23023C10.9233 7.84528 11.273 7.57495 11.6664 7.57495H16.3057Z" fill="currentColor"/>
</svg>
