<svg viewBox="0 0 24 24" fill="none" xmlns="http://www.w3.org/2000/svg">
<path d="M22.98 2.00954C22.98 2.00954 22.97 1.94957 22.96 1.91958C22.96 1.81963 22.94 1.71967 22.9 1.62971C22.86 1.53975 22.8 1.46979 22.74 1.38982C22.72 1.35984 22.71 1.32985 22.68 1.29986C22.59 1.2099 22.47 1.12994 22.35 1.07996C22.23 1.02999 22.0999 1 21.9699 1L16.9896 1.01999C16.4396 1.01999 15.9896 1.46979 15.9896 2.01954C15.9896 2.56929 16.4396 3.01908 16.9896 3.01908H19.5498L15.6095 6.9473C15.2195 7.33712 15.2195 7.96683 15.6095 8.35666C15.8095 8.55657 16.0596 8.64652 16.3196 8.64652C16.5796 8.64652 16.8296 8.54657 17.0296 8.35666L20.9899 4.39846V6.99727C20.9999 7.54702 21.4499 7.99682 21.9999 7.99682C22.55 7.99682 23 7.54702 23 6.99727L22.98 1.99955V2.00954Z" fill="currentColor"/>
<path d="M18.2097 14.204C17.0496 13.0445 15.1495 13.0345 13.9794 14.194L13.5394 14.6338C13.1694 15.0036 12.5293 15.0036 12.1693 14.6338L9.37913 11.8451C9.19911 11.6652 9.09911 11.4153 9.09911 11.1554C9.09911 10.8955 9.19911 10.6556 9.38913 10.4657L9.81915 10.0259C10.9792 8.85643 10.9692 6.95729 9.80915 5.79782L7.73902 3.72876C6.60895 2.59927 4.62882 2.59927 3.49875 3.72876L2.36867 4.85825C-0.391503 7.597 1.1486 13.4343 5.8589 18.1422C8.9891 21.2708 12.6193 23 15.5195 23C16.9796 23 18.2397 22.5602 19.1698 21.6406L20.2898 20.5111C21.4599 19.3417 21.4599 17.4425 20.2898 16.2731L18.2197 14.204H18.2097ZM18.8797 19.1018L17.7597 20.2213C16.0696 21.9005 11.4593 20.901 7.27899 16.7229C3.09872 12.5547 2.08866 7.93685 3.76876 6.25761L4.88884 5.13812C5.07885 4.94821 5.32886 4.84825 5.59888 4.84825C5.8689 4.84825 6.11892 4.94821 6.30893 5.13812L8.37906 7.20718C8.76909 7.597 8.76909 8.22672 8.37906 8.61654L7.94903 9.05634C7.389 9.61608 7.07898 10.3657 7.07898 11.1554C7.07898 11.945 7.389 12.6947 7.94903 13.2544L10.7492 16.0532C11.8693 17.1726 13.8294 17.1726 14.9495 16.0532L15.3895 15.6234C15.7795 15.2335 16.4096 15.2435 16.7996 15.6234L18.8697 17.7024C19.2598 18.0922 19.2598 18.7219 18.8697 19.1118L18.8797 19.1018Z" fill="currentColor"/>
</svg>
