<svg viewBox="0 0 25 24" fill="none" xmlns="http://www.w3.org/2000/svg">
<path d="M23.703 5.84C23.193 4.96 21.853 4.12 18.493 4.87C16.973 3.7 15.063 3 13.003 3C8.02297 3 3.96297 7.04 3.96297 12C3.96297 12.4 3.99297 12.78 4.04297 13.16C1.70297 15.7 1.78297 17.28 2.29297 18.16C2.81297 19.06 3.85297 19.44 5.20297 19.44C5.90297 19.44 6.69297 19.33 7.52297 19.15C9.04297 20.31 10.933 21.01 12.993 21.01C17.973 21.01 22.023 16.97 22.023 12.01C22.023 11.61 21.993 11.23 21.943 10.84C22.953 9.74 23.643 8.69 23.883 7.77C24.123 6.86 23.913 6.22 23.693 5.84H23.703ZM13.003 5C16.253 5 18.983 7.2 19.793 10.18C18.483 11.44 16.623 12.85 14.283 14.19C11.813 15.61 9.70297 16.47 8.03297 16.94C6.76297 15.67 5.97297 13.92 5.97297 11.99C5.97297 8.13 9.13297 4.99 13.003 4.99V5ZM4.02297 17.16C3.96297 17.05 3.98297 16.52 4.68297 15.53C4.97297 16.21 5.35297 16.84 5.79297 17.42C4.78297 17.53 4.16297 17.4 4.02297 17.16ZM13.003 19C11.973 19 10.993 18.77 10.103 18.37C11.813 17.74 13.603 16.89 15.273 15.93C17.063 14.9 18.673 13.79 20.003 12.68C19.663 16.22 16.653 19.01 13.003 19.01V19ZM21.963 7.25C21.873 7.59 21.643 8.01 21.313 8.47C21.023 7.8 20.653 7.18 20.213 6.6C21.443 6.48 21.913 6.74 21.973 6.84C22.003 6.89 22.013 7.03 21.953 7.25H21.963Z" fill="currentColor"/>
</svg>
