<svg viewBox="0 0 24 24" fill="none" xmlns="http://www.w3.org/2000/svg">
  <path
    fill-rule="evenodd"
    clip-rule="evenodd"
    d="M10.5145 8.14251C10.2056 7.95715 9.82081 7.95229 9.5073 8.1298C9.19379 8.30731 9 8.63973 9 9V15C9 15.3603 9.19379 15.6927 9.5073 15.8702C9.82081 16.0477 10.2056 16.0429 10.5145 15.8575L15.5145 12.8575C15.8157 12.6768 16 12.3513 16 12C16 11.6487 15.8157 11.3232 15.5145 11.1425L10.5145 8.14251ZM13.0563 12L11 13.2338V10.7662L13.0563 12Z"
    fill="currentColor"
  />
  <path
    fill-rule="evenodd"
    clip-rule="evenodd"
    d="M12 1C5.92487 1 1 5.92487 1 12C1 18.0751 5.92487 23 12 23C18.0751 23 23 18.0751 23 12C23 5.92487 18.0751 1 12 1ZM3 12C3 7.02944 7.02944 3 12 3C16.9706 3 21 7.02944 21 12C21 16.9706 16.9706 21 12 21C7.02944 21 3 16.9706 3 12Z"
    fill="currentColor"
  />
</svg>
