<svg viewBox="0 0 24 24" fill="none" xmlns="http://www.w3.org/2000/svg">
<path d="M12 1C5.93 1 1 5.93 1 12C1 18.07 5.93 23 12 23C18.07 23 23 18.07 23 12C23 5.93 18.07 1 12 1ZM12 21C7.04 21 3 16.96 3 12C3 7.04 7.04 3 12 3C16.96 3 21 7.04 21 12C21 16.96 16.96 21 12 21Z" fill="currentColor"/>
<path d="M15.36 11.13L10.99 8.67C10.68 8.5 10.3 8.5 9.99 8.67C9.68 8.85 9.49 9.18 9.49 9.53V14.46C9.49 14.82 9.68 15.14 9.99 15.32C10.15 15.41 10.32 15.46 10.49 15.46C10.66 15.46 10.83 15.42 10.98 15.33L15.35 12.87C15.66 12.69 15.86 12.36 15.86 12C15.86 11.64 15.67 11.31 15.35 11.13H15.36Z" fill="currentColor"/>
</svg>
