<svg viewBox="0 0 24 24" fill="none" xmlns="http://www.w3.org/2000/svg">
  <path
    fill-rule="evenodd"
    clip-rule="evenodd"
    d="M12.0001 4C12.3344 4 12.6466 4.1671 12.8321 4.4453L16.2271 9.53776L20.3754 6.21913C20.7036 5.95657 21.1609 5.92726 21.5199 6.14577C21.879 6.36428 22.0631 6.78398 21.9806 7.19612L19.9806 19.1961C19.8871 19.6635 19.4767 20 19.0001 20H5.00005C4.52337 20 4.11296 19.6635 4.01947 19.1961L2.01947 7.19612C1.93705 6.78398 2.12113 6.36428 2.48016 6.14577C2.8392 5.92726 3.29655 5.95657 3.62475 6.21913L7.77303 9.53776L11.168 4.4453C11.3535 4.1671 11.6657 4 12.0001 4ZM12.0001 6.80278L8.8321 11.5547C8.67663 11.7879 8.43043 11.9452 8.15347 11.9882C7.87651 12.0312 7.59422 11.956 7.37536 11.7809L4.51902 9.4958L5.81986 18H18.1803L19.4811 9.4958L16.6247 11.7809C16.4059 11.956 16.1236 12.0312 15.8466 11.9882C15.5697 11.9452 15.3235 11.7879 15.168 11.5547L12.0001 6.80278Z"
    fill="currentColor"
  />
</svg>
