<svg viewBox="0 0 24 24" fill="none" xmlns="http://www.w3.org/2000/svg">
<path d="M23 9C23 9 22.98 8.93 22.98 8.89C23 8.21 22.85 7.52 22.48 6.91L20.44 3.47C19.9 2.56 18.91 2 17.86 2H6.14C5.09 2 4.1 2.56 3.56 3.47L1.5 6.95C1.14 7.55 0.99 8.24 1.02 8.92C1.02 8.95 1 8.97 1 9C1 9.07 1.03 9.14 1.04 9.2C1.12 9.85 1.37 10.49 1.8 11.02L9.9 21C10.41 21.63 11.18 22 11.99 22C12.8 22 13.57 21.64 14.08 21L22.16 11.05C22.57 10.54 22.82 9.94 22.92 9.32C22.96 9.22 22.99 9.11 22.99 9H23ZM6.35 10C6.37 10.05 6.38 10.1 6.4 10.15L9.27 17.05L3.55 10H6.35ZM13.83 4L15.5 8H8.5L10.17 4H13.84H13.83ZM15.5 10L12 18.4L8.5 10H15.5ZM17.6 10.15C17.6 10.15 17.63 10.05 17.65 10H20.46L14.73 17.05L17.61 10.15H17.6ZM18.72 4.49L20.76 7.93C20.76 7.93 20.78 7.98 20.79 8H17.65C17.63 7.95 17.62 7.9 17.6 7.85L16 4.01H17.86C18.21 4.01 18.54 4.2 18.72 4.5V4.49ZM5.28 4.49C5.46 4.19 5.79 4 6.14 4H8L6.4 7.84C6.4 7.84 6.37 7.94 6.35 7.99H3.21C3.21 7.99 3.21 7.97 3.22 7.96L5.28 4.49Z" fill="currentColor"/>
</svg>
