<svg viewBox="0 0 24 24" fill="none" xmlns="http://www.w3.org/2000/svg">
<path d="M22.5871 6.67C22.2872 6.45 21.8873 6.41 21.5474 6.58L16.3488 9.19L12.8398 3.92C12.4699 3.36 11.5501 3.36 11.1802 3.92L7.67117 9.2L2.45261 6.58C2.1127 6.41 1.71281 6.45 1.41289 6.67C1.10298 6.9 0.95302 7.27 1.013 7.64L3.01245 19.66C3.09243 20.14 3.51232 20.5 4.00218 20.5H20.0178C20.5076 20.5 20.9275 20.15 21.0075 19.66L22.987 7.64C23.0469 7.27 22.897 6.89 22.5971 6.67H22.5871ZM19.168 18.5H4.85195L3.31237 9.25L7.5612 11.38C8.01108 11.61 8.56093 11.46 8.84085 11.04L12.01 6.28L15.1791 11.04C15.459 11.46 16.0089 11.61 16.4588 11.38L20.6876 9.26L19.168 18.5Z" fill="currentColor"/>
</svg>
