<svg viewBox="0 0 24 24" fill="none" xmlns="http://www.w3.org/2000/svg">
<path d="M22.4656 4.42358C22.3256 2.88388 21.1053 1.66412 19.5649 1.53414L13.8734 1.01424C12.9231 0.924259 12.0029 1.26419 11.3227 1.93406L1.94025 11.3223C1.34009 11.9221 1 12.732 1 13.5818C1 14.4317 1.33009 15.2415 1.94025 15.8414L8.16187 22.0602C8.76203 22.6601 9.57224 23 10.4225 23C11.2727 23 12.0829 22.6701 12.6831 22.0602L22.0655 12.682C22.7357 12.0121 23.0758 11.0723 22.9858 10.1325L22.4656 4.42358ZM20.6551 11.2723L11.2727 20.6505C10.8226 21.1004 10.0324 21.1004 9.57224 20.6505L3.35061 14.4317C3.12055 14.2017 3.00052 13.9018 3.00052 13.5818C3.00052 13.2619 3.12055 12.9619 3.35061 12.732L12.7331 3.35379C12.9631 3.12383 13.2632 3.00386 13.5833 3.00386C13.6233 3.00386 13.6533 3.00386 13.6933 3.00386L19.3948 3.51376C19.975 3.56375 20.4251 4.02366 20.4851 4.59355L21.0052 10.3025C21.0352 10.6624 20.9152 11.0123 20.6551 11.2623V11.2723Z" fill="currentColor"/>
<path d="M16.374 5.8733C15.8839 6.36321 15.8839 7.15306 16.374 7.63297C16.8642 8.12287 17.6544 8.12287 18.1445 7.63297C18.6346 7.14306 18.6346 6.35321 18.1445 5.8733C17.6544 5.3934 16.8642 5.3834 16.374 5.8733Z" fill="currentColor"/>
</svg>
