<svg viewBox="0 0 24 24" fill="none" xmlns="http://www.w3.org/2000/svg">
<path d="M22.4656 4.4208C22.3256 2.8808 21.1053 1.6608 19.5649 1.5308L13.8734 1.0108C12.9231 0.930797 11.9929 1.2608 11.3227 1.9308L1.94025 11.3208C1.34009 11.9208 1 12.7308 1 13.5808C1 14.4308 1.33009 15.2408 1.94025 15.8408L8.16187 22.0608C8.76203 22.6608 9.57224 23.0008 10.4225 23.0008C11.2727 23.0008 12.0829 22.6708 12.6831 22.0608L22.0655 12.6808C22.7357 12.0108 23.0758 11.0708 22.9858 10.1308L22.4656 4.4208ZM18.1345 7.6308C17.6444 8.1208 16.8541 8.1208 16.364 7.6308C15.8739 7.1408 15.8739 6.3508 16.364 5.8708C16.8541 5.3808 17.6444 5.3808 18.1345 5.8708C18.6246 6.3608 18.6246 7.1508 18.1345 7.6308Z" fill="currentColor"/>
</svg>
