<svg viewBox="0 0 24 24" xmlns="http://www.w3.org/2000/svg">
<path d="M20 6H19V2C19 1.45 18.55 1 18 1H6C5.45 1 5 1.45 5 2V6H4C2.35 6 1 7.35 1 9V16.15C1 17.8 2.35 19.15 4 19.15V22C4 22.55 4.45 23 5 23H19C19.55 23 20 22.55 20 22V19.15C21.65 19.15 23 17.8 23 16.15V9C23 7.35 21.65 6 20 6ZM7 3H17V6H7V3ZM18 21H6V15H18V21ZM21 16.15C21 16.7 20.55 17.15 20 17.15V14C20 13.45 19.55 13 19 13H5C4.45 13 4 13.45 4 14V17.15C3.45 17.15 3 16.7 3 16.15V9C3 8.45 3.45 8 4 8H20C20.55 8 21 8.45 21 9V16.15Z" fill="currentColor"/>
<path d="M8 10H6C5.45 10 5 10.45 5 11C5 11.55 5.45 12 6 12H8C8.55 12 9 11.55 9 11C9 10.45 8.55 10 8 10Z" fill="currentColor"/>
</svg>
