<svg viewBox="0 0 24 24" fill="none" xmlns="http://www.w3.org/2000/svg">
<path d="M12 1C5.93 1 1 5.93 1 12C1 18.07 5.93 23 12 23C18.07 23 23 18.07 23 12C23 5.93 18.07 1 12 1ZM12 21C7.04 21 3 16.96 3 12C3 7.04 7.04 3 12 3C16.96 3 21 7.04 21 12C21 16.96 16.96 21 12 21Z" fill="currentColor"/>
<path d="M19.75 12.63C19.82 12.55 19.88 12.47 19.92 12.37C19.96 12.27 19.98 12.16 19.98 12.05C19.98 12.03 19.99 12.01 19.99 11.99C19.99 11.86 19.96 11.73 19.91 11.61C19.86 11.49 19.78 11.38 19.69 11.28L16.69 8.29C16.3 7.9 15.67 7.9 15.28 8.29C14.89 8.68 14.89 9.31 15.28 9.7L16.57 10.98H11.99C11.44 10.98 10.99 11.43 10.99 11.98C10.99 12.53 11.44 12.98 11.99 12.98H16.59L15.3 14.29C14.91 14.68 14.92 15.32 15.3 15.7C15.49 15.89 15.75 15.99 16 15.99C16.25 15.99 16.52 15.89 16.71 15.69L19.68 12.68C19.7 12.66 19.7 12.64 19.72 12.62L19.75 12.63Z" fill="currentColor"/>
<path d="M9 11H8C7.45 11 7 11.45 7 12C7 12.55 7.45 13 8 13H9C9.55 13 10 12.55 10 12C10 11.45 9.55 11 9 11Z" fill="currentColor"/>
<path d="M4.29 11.29C4.11 11.48 4 11.74 4 12C4 12.26 4.11 12.52 4.29 12.71C4.48 12.89 4.74 13 5 13C5.26 13 5.52 12.89 5.71 12.71C5.89 12.52 6 12.26 6 12C6 11.74 5.89 11.48 5.71 11.29C5.34 10.92 4.67 10.92 4.29 11.29Z" fill="currentColor"/>
</svg>
