<svg viewBox="0 0 24 24" fill="none" xmlns="http://www.w3.org/2000/svg">
<path d="M12 1C5.93 1 1 5.93 1 12C1 18.07 5.93 23 12 23C18.07 23 23 18.07 23 12C23 5.93 18.07 1 12 1ZM5 13C4.45 13 4 12.55 4 12C4 11.45 4.45 11 5 11C5.55 11 6 11.45 6 12C6 12.55 5.55 13 5 13ZM9 13H8C7.45 13 7 12.55 7 12C7 11.45 7.45 11 8 11H9C9.55 11 10 11.45 10 12C10 12.55 9.55 13 9 13ZM19.71 12.71L16.71 15.71C16.51 15.91 16.26 16 16 16C15.74 16 15.49 15.9 15.29 15.71C14.9 15.32 14.9 14.69 15.29 14.3L16.58 13.01H11.99C11.44 13.01 10.99 12.56 10.99 12.01C10.99 11.46 11.44 11.01 11.99 11.01H16.58L15.29 9.72C14.9 9.33 14.9 8.7 15.29 8.31C15.68 7.92 16.31 7.92 16.7 8.31L19.7 11.31C19.79 11.4 19.87 11.51 19.92 11.64C20.02 11.88 20.02 12.16 19.92 12.4C19.87 12.52 19.8 12.63 19.7 12.73L19.71 12.71Z" fill="currentColor"/>
</svg>
