<svg viewBox="0 0 24 24" fill="none" xmlns="http://www.w3.org/2000/svg">
  <path
    d="M14.9398 10.5156C14.5685 10.2126 14.5184 9.6721 14.8277 9.30843C15.1371 8.94477 15.6888 8.89563 16.0601 9.19869L18.6718 11.3307C18.8719 11.4878 19 11.7292 19 12C19 12.2701 18.8725 12.511 18.6732 12.6681L16.0601 14.8013C15.6888 15.1044 15.1371 15.0552 14.8277 14.6916C14.5184 14.3279 14.5685 13.7874 14.9398 13.4844L15.7081 12.8571L11.9998 12.8571C11.5166 12.8571 11.1248 12.4734 11.1248 12C11.1248 11.5266 11.5166 11.1428 11.9998 11.1428L15.7081 11.1428L14.9398 10.5156Z"
    fill="black"
  />
  <path
    d="M5 12C5 11.5266 5.39174 11.1428 5.87497 11.1428H6.31246C6.79569 11.1428 7.18743 11.5266 7.18743 12C7.18743 12.4734 6.79569 12.8571 6.31246 12.8571H5.87497C5.39174 12.8571 5 12.4734 5 12Z"
    fill="black"
  />
  <path
    d="M8.06241 12C8.06241 11.5266 8.45415 11.1428 8.93738 11.1428H9.37487C9.8581 11.1428 10.2498 11.5266 10.2498 12C10.2498 12.4734 9.8581 12.8571 9.37487 12.8571H8.93738C8.45415 12.8571 8.06241 12.4734 8.06241 12Z"
    fill="black"
  />
  <path
    fill-rule="evenodd"
    clip-rule="evenodd"
    d="M12 1C5.92487 1 1 5.92487 1 12C1 18.0751 5.92487 23 12 23C18.0751 23 23 18.0751 23 12C23 5.92487 18.0751 1 12 1ZM3 12C3 7.02944 7.02944 3 12 3C16.9706 3 21 7.02944 21 12C21 16.9706 16.9706 21 12 21C7.02944 21 3 16.9706 3 12Z"
    fill="black"
  />
</svg>
