<svg viewBox="0 0 24 24" fill="none" xmlns="http://www.w3.org/2000/svg">
<path d="M20.43 6.93159L20 6.73159V15.2716L20.43 15.0616C21.99 14.3216 23 12.7216 23 10.9916C23 9.26159 21.99 7.67159 20.43 6.92159V6.93159Z" fill="currentColor"/>
<path d="M3 22.0016C3 22.5516 3.45 23.0016 4 23.0016H8C8.55 23.0016 9 22.5516 9 22.0016V18.0016H3V22.0016Z" fill="currentColor"/>
<path d="M8 16.0016V6.00159H4C2.34 6.00159 1 7.34159 1 9.00159V13.0016C1 14.6616 2.34 16.0016 4 16.0016H8Z" fill="currentColor"/>
<path d="M16.64 1.14159L9 6.00159V16.0016L16.64 20.8616C17.23 21.2316 18 20.8116 18 20.1216V1.88159C18 1.18159 17.23 0.761591 16.64 1.14159Z" fill="currentColor"/>
</svg>
