<svg viewBox="0 0 24 24" fill="none" xmlns="http://www.w3.org/2000/svg">
<path d="M22.3792 6.91269L17.0825 1.61028C16.6827 1.20009 16.1131 1 15.5434 1C14.9738 1.02001 14.4241 1.28013 14.0444 1.71032L9.28734 7.10277L4.99001 7.58299C4.18052 7.67303 3.52093 8.20327 3.2511 8.97362C2.98127 9.74397 3.17115 10.5744 3.74079 11.1446L7.59839 15.0064L1.29232 21.2992C0.902561 21.6894 0.902561 22.3197 1.29232 22.7099C1.49219 22.91 1.74204 23 2.00188 23C2.26171 23 2.51156 22.9 2.71143 22.7099L9.0175 16.397L12.8651 20.2588C13.2649 20.6589 13.7945 20.869 14.3342 20.869C14.564 20.869 14.8039 20.829 15.0338 20.749C15.8033 20.4789 16.3329 19.8085 16.4229 19.0082L16.9026 14.7062L22.2892 9.94407C22.719 9.56389 22.9788 9.01364 22.9988 8.44338C23.0188 7.87312 22.7889 7.30287 22.3892 6.90268L22.3792 6.91269ZM20.9601 8.45339L15.2836 13.4657C15.0937 13.6357 14.9838 13.8558 14.9538 14.106L14.4341 18.7881L14.2842 18.8381L5.15991 9.72397L5.20988 9.5739L9.88696 9.05366C10.1368 9.02365 10.3567 8.90359 10.5266 8.72351L15.5334 3.04093H15.6634L20.9601 8.34334V8.4734V8.45339Z" fill="currentColor"/>
</svg>
