<svg viewBox="0 0 24 24" fill="none" xmlns="http://www.w3.org/2000/svg">
<path d="M8 11H4C2.35 11 1 9.65 1 8V4C1 2.35 2.35 1 4 1H8C9.65 1 11 2.35 11 4V8C11 9.65 9.65 11 8 11ZM4 3C3.45 3 3 3.45 3 4V8C3 8.55 3.45 9 4 9H8C8.55 9 9 8.55 9 8V4C9 3.45 8.55 3 8 3H4Z" fill="currentColor"/>
<path d="M20 11H16C14.35 11 13 9.65 13 8V4C13 2.35 14.35 1 16 1H20C21.65 1 23 2.35 23 4V8C23 9.65 21.65 11 20 11ZM16 3C15.45 3 15 3.45 15 4V8C15 8.55 15.45 9 16 9H20C20.55 9 21 8.55 21 8V4C21 3.45 20.55 3 20 3H16Z" fill="currentColor"/>
<path d="M8 23H4C2.35 23 1 21.65 1 20V16C1 14.35 2.35 13 4 13H8C9.65 13 11 14.35 11 16V20C11 21.65 9.65 23 8 23ZM4 15C3.45 15 3 15.45 3 16V20C3 20.55 3.45 21 4 21H8C8.55 21 9 20.55 9 20V16C9 15.45 8.55 15 8 15H4Z" fill="currentColor"/>
<path d="M19 5H17V7H19V5Z" fill="currentColor"/>
<path d="M6.97 5H4.97V7H6.97V5Z" fill="currentColor"/>
<path d="M6.97 17H4.97V19H6.97V17Z" fill="currentColor"/>
<path d="M14 19C13.45 19 13 18.55 13 18V14C13 13.45 13.45 13 14 13H16C16.55 13 17 13.45 17 14C17 14.55 16.55 15 16 15H15V18C15 18.55 14.55 19 14 19Z" fill="currentColor"/>
<path d="M22 23C21.45 23 21 22.55 21 22V19H18C17.45 19 17 18.55 17 18C17 17.45 17.45 17 18 17H22C22.55 17 23 17.45 23 18V22C23 22.55 22.55 23 22 23Z" fill="currentColor"/>
<path d="M18 23H14C13.45 23 13 22.55 13 22C13 21.45 13.45 21 14 21H18C18.55 21 19 21.45 19 22C19 22.55 18.55 23 18 23Z" fill="currentColor"/>
<path d="M22 15H20C19.45 15 19 14.55 19 14C19 13.45 19.45 13 20 13H22C22.55 13 23 13.45 23 14C23 14.55 22.55 15 22 15Z" fill="currentColor"/>
</svg>
