<svg viewBox="0 0 24 24" fill="none" xmlns="http://www.w3.org/2000/svg">
<path d="M2.00908 11.9995C2.55858 11.9995 3.00817 11.5494 3.00817 10.9994C3.00817 9.34931 4.35695 7.99923 6.00545 7.99923H18.9936L17.3951 9.1993C16.9555 9.52932 16.8656 10.1594 17.1953 10.5994C17.3951 10.8594 17.6948 10.9994 17.9946 10.9994C18.2044 10.9994 18.4142 10.9294 18.594 10.7994L22.5904 7.79922C22.5904 7.79922 22.6104 7.76922 22.6303 7.74921C22.7103 7.67921 22.7702 7.59921 22.8302 7.5192C22.8501 7.4892 22.8801 7.4592 22.9001 7.41919C22.96 7.28919 23 7.14918 23 6.99917C23 6.84916 22.96 6.70915 22.9001 6.57914C22.8801 6.53914 22.8501 6.51914 22.8302 6.47914C22.7702 6.38913 22.7103 6.30913 22.6303 6.24912C22.6104 6.23912 22.6104 6.21912 22.5904 6.19912L18.594 3.19894C18.1544 2.86892 17.525 2.95893 17.1953 3.39896C16.8656 3.83898 16.9555 4.46902 17.3951 4.79904L18.9936 5.99911H6.00545C3.24796 5.99911 1.00999 8.23924 1.00999 10.9994C1.00999 11.5494 1.45958 11.9995 2.00908 11.9995Z" fill="currentColor"/>
<path d="M21.9909 11.9995C21.4414 11.9995 20.9918 12.4495 20.9918 12.9995C20.9918 14.6496 19.6431 15.9997 17.9946 15.9997H5.00636L6.6049 14.7996C7.0445 14.4696 7.13442 13.8396 6.80472 13.3995C6.47502 12.9595 5.84559 12.8695 5.40599 13.1995L1.40963 16.1997C1.40963 16.1997 1.38965 16.2297 1.36966 16.2497C1.28974 16.3197 1.22979 16.3997 1.16985 16.4797C1.14986 16.5097 1.11989 16.5397 1.09991 16.5797C1.03996 16.7097 1 16.8498 1 16.9998C1 17.1498 1.03996 17.2898 1.09991 17.4198C1.11989 17.4598 1.14986 17.4798 1.16985 17.5198C1.22979 17.6098 1.28974 17.6898 1.36966 17.7498C1.38965 17.7598 1.38965 17.7798 1.40963 17.7998L5.40599 20.8C5.58583 20.93 5.79564 21 6.00545 21C6.30518 21 6.6049 20.86 6.80472 20.6C7.13442 20.16 7.0445 19.5299 6.6049 19.1999L5.00636 17.9998H17.9946C20.752 17.9998 22.99 15.7597 22.99 12.9995C22.99 12.4495 22.5404 11.9995 21.9909 11.9995Z" fill="currentColor"/>
</svg>
