<svg viewBox="0 0 24 24" fill="none" xmlns="http://www.w3.org/2000/svg">
<path d="M14 8C14 8.55 14.45 9 15 9H20C20.55 9 21 8.55 21 7.99V3C21 2.45 20.55 2 20 2C19.45 2 19 2.45 19 3V4.94C17.16 3.09 14.67 2 11.97 2C6.47 2 2 6.49 2 12C2 17.51 6.47 22 11.97 22C15.78 22 19.2 19.87 20.9 16.44C21.14 15.94 20.94 15.35 20.45 15.1C19.95 14.85 19.35 15.06 19.11 15.55C17.75 18.29 15.02 20 11.97 20C7.58 20 4 16.41 4 12C4 7.59 7.57 4 11.97 4C14.43 4 16.67 5.12 18.17 7H15.01C14.46 7 14.01 7.45 14.01 8H14Z" fill="currentColor"/>
</svg>
