<svg viewBox="0 0 24 24" fill="none" xmlns="http://www.w3.org/2000/svg">
<path d="M12 1C5.93 1 1 5.93 1 12C1 18.07 5.93 23 12 23C18.07 23 23 18.07 23 12C23 5.93 18.07 1 12 1ZM12 21C7.04 21 3 16.96 3 12C3 7.04 7.04 3 12 3C16.96 3 21 7.04 21 12C21 16.96 16.96 21 12 21Z" fill="currentColor"/>
<path d="M16.82 8.27C17.37 8.22 17.77 7.73 17.72 7.18C17.67 6.63 17.19 6.23 16.63 6.28L14.14 6.52C14.14 6.52 14.05 6.55 14.01 6.56C13.96 6.57 13.91 6.58 13.86 6.6C13.79 6.63 13.73 6.67 13.67 6.71C13.62 6.74 13.58 6.78 13.54 6.82C13.52 6.84 13.49 6.86 13.47 6.88C13.44 6.91 13.43 6.95 13.41 6.99C13.39 7.02 13.36 7.04 13.34 7.08C13.33 7.11 13.33 7.13 13.32 7.16C13.3 7.22 13.28 7.28 13.27 7.34C13.26 7.41 13.25 7.48 13.25 7.56C13.25 7.58 13.25 7.6 13.25 7.62L13.49 10.11C13.54 10.63 13.98 11.01 14.48 11.01C14.51 11.01 14.55 11.01 14.58 11.01C15.1 10.96 15.47 10.52 15.47 10.01C15.81 10.61 16.01 11.29 16.01 12.01C16.01 13.7 14.94 15.22 13.34 15.78C12.82 15.96 12.55 16.53 12.73 17.06C12.87 17.47 13.26 17.73 13.67 17.73C13.78 17.73 13.89 17.71 14 17.67C16.39 16.82 18 14.55 18 12.01C18 10.62 17.53 9.33 16.71 8.29H16.82V8.27Z" fill="currentColor"/>
<path d="M10 6.34C7.61 7.19 6 9.46 6 12C6 13.39 6.47 14.68 7.29 15.72H7.18C6.63 15.78 6.23 16.27 6.28 16.82C6.33 17.34 6.77 17.72 7.27 17.72C7.3 17.72 7.34 17.72 7.37 17.72L9.86 17.48C9.86 17.48 9.92 17.46 9.95 17.45C10.02 17.44 10.08 17.42 10.15 17.39C10.19 17.37 10.23 17.36 10.27 17.34C10.36 17.29 10.45 17.22 10.52 17.13C10.52 17.13 10.54 17.12 10.54 17.11C10.55 17.09 10.56 17.07 10.57 17.05C10.6 17.01 10.64 16.97 10.66 16.92C10.67 16.89 10.67 16.87 10.68 16.84C10.7 16.78 10.72 16.72 10.73 16.66C10.74 16.59 10.75 16.52 10.75 16.44C10.75 16.42 10.75 16.4 10.75 16.38L10.51 13.89C10.46 13.34 9.98 12.94 9.42 12.99C8.9 13.04 8.53 13.48 8.53 13.99C8.19 13.39 7.99 12.71 7.99 11.99C7.99 10.3 9.06 8.78 10.66 8.22C11.18 8.04 11.45 7.47 11.27 6.94C11.09 6.42 10.51 6.15 9.99 6.33L10 6.34Z" fill="currentColor"/>
</svg>
