<svg viewBox="0 0 24 24" fill="none" xmlns="http://www.w3.org/2000/svg">
<path d="M12 1C5.93 1 1 5.93 1 12C1 18.07 5.93 23 12 23C18.07 23 23 18.07 23 12C23 5.93 18.07 1 12 1ZM10.33 7.29C8.34 7.99 7 9.89 7 12C7 13.16 7.4 14.25 8.1 15.12L8.04 14.49C7.99 13.94 8.39 13.45 8.94 13.4C9.49 13.35 9.98 13.75 10.03 14.3L10.32 17.29C10.32 17.29 10.32 17.33 10.32 17.35C10.32 17.43 10.32 17.5 10.3 17.58C10.29 17.64 10.28 17.7 10.25 17.75C10.24 17.77 10.25 17.8 10.23 17.83C10.2 17.88 10.17 17.92 10.14 17.96C10.12 17.99 10.11 18.01 10.09 18.04C10.02 18.12 9.94 18.19 9.84 18.24C9.8 18.26 9.76 18.27 9.72 18.29C9.65 18.32 9.59 18.34 9.52 18.35C9.49 18.35 9.46 18.37 9.43 18.38L6.44 18.67C6.44 18.67 6.37 18.67 6.34 18.67C5.83 18.67 5.4 18.28 5.35 17.77C5.3 17.22 5.7 16.73 6.25 16.68L6.77 16.63C5.66 15.38 5.02 13.75 5.02 12C5.02 9.04 6.9 6.38 9.69 5.4C10.21 5.22 10.78 5.49 10.97 6.01C11.15 6.53 10.88 7.1 10.36 7.29H10.33ZM14.33 18.6C14.22 18.64 14.11 18.66 14 18.66C13.59 18.66 13.2 18.4 13.06 17.99C12.88 17.47 13.15 16.9 13.67 16.71C15.66 16.01 17 14.11 17 12C17 10.84 16.6 9.75 15.9 8.88L15.96 9.51C16.01 10.06 15.61 10.55 15.06 10.6C15.03 10.6 14.99 10.6 14.96 10.6C14.45 10.6 14.02 10.21 13.97 9.7L13.68 6.71C13.68 6.71 13.68 6.67 13.68 6.65C13.68 6.57 13.68 6.5 13.7 6.42C13.71 6.36 13.72 6.3 13.75 6.25C13.76 6.23 13.75 6.2 13.77 6.17C13.79 6.14 13.82 6.12 13.84 6.08C13.88 6.02 13.92 5.96 13.97 5.91C14.01 5.87 14.05 5.84 14.09 5.81C14.15 5.76 14.22 5.73 14.29 5.7C14.34 5.68 14.38 5.67 14.43 5.66C14.48 5.65 14.52 5.62 14.57 5.62L17.56 5.33C18.11 5.28 18.6 5.68 18.65 6.23C18.7 6.78 18.3 7.27 17.75 7.32L17.23 7.37C18.34 8.62 18.98 10.25 18.98 12C18.98 14.96 17.1 17.62 14.31 18.6H14.33Z" fill="currentColor"/>
</svg>
