<svg viewBox="0 0 24 24" fill="none" xmlns="http://www.w3.org/2000/svg">
<path d="M23.0015 4.89C23.0315 4.34 22.6015 3.87 22.0515 3.84L17.2915 3.59C17.2315 3.59 17.1815 3.61 17.1315 3.61C17.0915 3.61 17.0515 3.61 17.0115 3.63C16.9215 3.65 16.8515 3.68 16.7715 3.73C16.7315 3.75 16.7015 3.77 16.6615 3.8C16.6315 3.82 16.6015 3.83 16.5815 3.85C16.5415 3.89 16.5215 3.93 16.4915 3.98C16.4715 4.01 16.4415 4.02 16.4215 4.05C16.4115 4.07 16.4115 4.09 16.4015 4.1C16.3615 4.17 16.3415 4.24 16.3115 4.31C16.2915 4.37 16.2815 4.42 16.2715 4.48C16.2715 4.5 16.2515 4.52 16.2515 4.55L16.0215 8.95C15.9915 9.5 16.4215 9.97 16.9715 10C16.9915 10 17.0115 10 17.0215 10C17.5515 10 17.9915 9.59 18.0215 9.05L18.1415 6.67C21.2815 10 21.2315 15.25 17.9815 18.51C16.3815 20.11 14.2615 20.99 12.0015 21C11.4515 21 11.0015 21.45 11.0015 22C11.0015 22.55 11.4515 23 12.0015 23C14.7915 23 17.4115 21.9 19.3815 19.92C23.2615 16.04 23.4515 9.86 19.9815 5.74L21.9415 5.84C22.5015 5.87 22.9615 5.44 22.9915 4.89H23.0015Z" fill="currentColor"/>
<path d="M7.04148 15C6.48148 14.96 6.02148 15.39 5.99148 15.95L5.87148 18.33C2.73148 15 2.78148 9.75 6.03148 6.49C7.63148 4.89 9.75148 4.01 12.0115 4C12.5615 4 13.0115 3.55 13.0115 3C13.0115 2.45 12.5615 2 12.0115 2C9.22148 2 6.60148 3.1 4.63148 5.08C0.741479 8.95 0.541479 15.13 4.01148 19.25L2.05148 19.15C1.49148 19.12 1.03148 19.55 1.00148 20.1C0.971479 20.65 1.40148 21.12 1.95148 21.15L6.71148 21.4C6.71148 21.4 6.75148 21.4 6.76148 21.4C6.79148 21.4 6.82148 21.39 6.85148 21.38C6.92148 21.38 6.99148 21.36 7.05148 21.34C7.09148 21.33 7.14148 21.31 7.18148 21.29C7.25148 21.26 7.31148 21.22 7.37148 21.17C7.39148 21.15 7.42148 21.15 7.43148 21.13C7.45148 21.12 7.45148 21.09 7.47148 21.08C7.51148 21.04 7.56148 20.99 7.59148 20.94C7.60148 20.92 7.60148 20.9 7.61148 20.89C7.65148 20.82 7.67148 20.75 7.70148 20.68C7.72148 20.62 7.73148 20.57 7.74148 20.51C7.74148 20.49 7.76148 20.47 7.76148 20.44L7.99148 16.04C8.02148 15.49 7.59148 15.02 7.04148 14.99V15Z" fill="currentColor"/>
</svg>
