<svg viewBox="0 0 24 24" fill="none" xmlns="http://www.w3.org/2000/svg">
  <path
    d="M20.204 11.9968C20.2058 11.5008 20.6093 11.1002 21.1052 11.102C21.6012 11.1038 22.0018 11.5073 22 12.0032C21.9924 14.1286 21.3204 16.198 20.0791 17.912C18.8377 19.6262 17.0904 20.8968 15.0881 21.537C13.0857 22.1773 10.9346 22.1529 8.94678 21.4675C7.73582 21.0499 6.69719 20.3482 5.81126 19.4986V21.057C5.81126 21.5488 5.41258 21.9475 4.92078 21.9475C4.42898 21.9475 4.0303 21.5488 4.0303 21.057V17.1707C4.01694 17.0694 4.02106 16.967 4.04183 16.868C4.11053 16.4445 4.4779 16.1212 4.92078 16.1212H8.96611C9.45791 16.1212 9.8566 16.5199 9.8566 17.0117C9.8566 17.5035 9.45791 17.9022 8.96611 17.9022H6.75544C7.56161 18.7498 8.48388 19.4081 9.53222 19.7696C11.1539 20.3288 12.9078 20.3486 14.5412 19.8263C16.1747 19.304 17.6054 18.2657 18.6245 16.8585C19.6438 15.4511 20.1977 13.7485 20.204 11.9968Z"
    fill="currentColor"
  />
  <path
    d="M2.89478 12.898C3.39073 12.8998 3.79421 12.4992 3.79599 12.0032C3.80226 10.2515 4.35621 8.54887 5.37546 7.14147C6.39456 5.73428 7.82528 4.69596 9.45883 4.17366C11.0922 3.65141 12.8461 3.67125 14.4678 4.2304C15.5161 4.59188 16.4384 5.25018 17.2446 6.09782H15.0339C14.5421 6.09782 14.1434 6.4965 14.1434 6.98831C14.1434 7.48011 14.5421 7.87879 15.0339 7.87879L19.0792 7.87879C19.5221 7.87879 19.8895 7.55546 19.9582 7.13197C19.9789 7.03296 19.9831 6.93055 19.9697 6.8293L19.9697 2.94297C19.9697 2.45117 19.571 2.05249 19.0792 2.05249C18.5874 2.05249 18.1887 2.45117 18.1887 2.94297V4.50139C17.3028 3.65176 16.2642 2.95005 15.0532 2.53251C13.0654 1.84711 10.9143 1.82273 8.91186 2.46298C6.90963 3.10317 5.16232 4.3738 3.92086 6.08803C2.67956 7.80204 2.00762 9.8714 2.00001 11.9968C1.99823 12.4927 2.39883 12.8962 2.89478 12.898Z"
    fill="currentColor"
  />
</svg>
