<svg viewBox="0 0 24 24" fill="none" xmlns="http://www.w3.org/2000/svg">
<path d="M17.9923 4H5.99773C3.23898 4 1 6.23882 1 8.99737V14.9942C1 17.7528 3.23898 19.9916 5.99773 19.9916H6.99727C7.54702 19.9916 7.99682 19.5418 7.99682 18.9921C7.99682 18.4424 7.54702 17.9926 6.99727 17.9926H5.99773C4.34848 17.9926 2.99909 16.6433 2.99909 14.9942V8.99737C2.99909 7.34824 4.34848 5.99895 5.99773 5.99895H17.9923C19.6415 5.99895 20.9909 7.34824 20.9909 8.99737V14.9942C20.9909 16.6433 19.6415 17.9926 17.9923 17.9926H14.4039L15.6933 16.7033C16.0831 16.3135 16.0831 15.6839 15.6933 15.2941C15.3035 14.9043 14.6738 14.9043 14.284 15.2941L11.2853 18.2925C11.1954 18.3824 11.1154 18.4924 11.0654 18.6223C10.9655 18.8622 10.9655 19.142 11.0654 19.3819C11.1154 19.5018 11.1854 19.6118 11.2853 19.7117L14.284 22.7102C14.4839 22.91 14.7338 23 14.9936 23C15.2535 23 15.5034 22.9001 15.7033 22.7102C16.0931 22.3204 16.0931 21.6907 15.7033 21.3009L14.4139 20.0116H18.0023C20.761 20.0116 23 17.7728 23 15.0142V9.01736C23 6.25881 20.761 4.01999 18.0023 4.01999L17.9923 4Z" fill="currentColor"/>
</svg>
