<svg viewBox="0 0 24 24" fill="none" xmlns="http://www.w3.org/2000/svg">
<path d="M21.71 11.2925L16.71 6.2925C16.32 5.9025 15.69 5.9025 15.3 6.2925C14.91 6.6825 14.91 7.3125 15.3 7.7025L19.59 11.9925L15.3 16.2925C14.91 16.6825 14.91 17.3125 15.3 17.7025C15.5 17.8925 15.75 17.9925 16.01 17.9925C16.27 17.9925 16.52 17.8925 16.72 17.7025L21.72 12.7025C21.91 12.5125 22.01 12.2625 22.01 11.9925C22.01 11.7225 21.9 11.4725 21.72 11.2825L21.71 11.2925Z" fill="currentColor"/>
<path d="M8.71 6.2925C8.32 5.9025 7.69 5.9025 7.3 6.2925L2.29 11.3225C2.1 11.5025 2 11.7625 2 12.0225C2 12.2825 2.11 12.5425 2.29 12.7325L7.29 17.7125C7.49 17.9025 7.74 18.0025 8 18.0025C8.26 18.0025 8.51 17.9025 8.71 17.7125C9.1 17.3225 9.1 16.6925 8.71 16.3025L4.41 12.0225L8.71 7.7125C9.1 7.3225 9.1 6.6925 8.71 6.3025V6.2925Z" fill="currentColor"/>
</svg>
