<svg viewBox="0 0 24 24" fill="none" xmlns="http://www.w3.org/2000/svg">
<path d="M22.9392 21.6508C22.8692 21.4709 21.6593 18.2827 18.3996 15.1146L19.0895 15.2845C19.3395 15.3445 19.5795 15.3744 19.8295 15.3744C20.5194 15.3744 21.1894 15.1346 21.7393 14.6748C22.4893 14.0552 22.8792 13.1357 22.8092 12.1663L22.2393 3.80117C22.1693 2.70181 21.5193 1.76235 20.5294 1.29263C19.5295 0.822898 18.3996 0.92284 17.5096 1.56247L14.2598 3.88112C13.8099 4.20093 13.4899 4.64068 13.2699 5.13039C12.45 4.93051 11.56 4.93051 10.7401 5.13039C10.5301 4.64068 10.2001 4.20093 9.75015 3.88112L6.50038 1.58246C5.60044 0.932834 4.47052 0.832892 3.47059 1.30262C2.47066 1.77235 1.8307 2.7118 1.76071 3.81116L1.19075 12.1763C1.12075 13.1457 1.51073 14.0552 2.26067 14.6848C2.81064 15.1446 3.48059 15.3844 4.17054 15.3844C4.42053 15.3844 4.66051 15.3544 4.91049 15.2945L5.60044 15.1246C2.34067 18.2827 1.13075 21.4809 1.06076 21.6508C0.940766 21.9806 1.00076 22.3504 1.22075 22.6202C1.41073 22.8601 1.70071 23 2.00069 23C2.04069 23 2.08069 23 2.13068 23L9.1302 22.1005C9.56017 22.0406 9.90014 21.7207 9.98014 21.301C9.98014 21.271 10.5501 18.5226 12 15.9941C13.4499 18.5226 14.0099 21.261 14.0199 21.301C14.0999 21.7207 14.4498 22.0406 14.8698 22.1005L21.8693 23C21.8693 23 21.9593 23 21.9993 23C22.2993 23 22.5893 22.8601 22.7793 22.6202C22.9992 22.3504 23.0592 21.9806 22.9392 21.6508ZM14.9998 10.4473C16.2897 9.37792 17.4296 9.82766 17.5496 9.87763C18.0396 10.1275 18.6395 9.9276 18.8895 9.42789C19.1395 8.93818 18.9395 8.33853 18.4396 8.08867C18.3596 8.0487 16.8197 7.30913 14.9898 8.08867V6.3297C14.9898 6.00988 15.1498 5.70006 15.4098 5.51017L18.6595 3.19152C19.0895 2.8817 19.5095 3.02162 19.6695 3.10157C19.8295 3.18153 20.2094 3.41139 20.2394 3.94108L20.8094 12.3062C20.8294 12.636 20.6994 12.9359 20.4494 13.1457C20.1994 13.3556 19.8795 13.4256 19.5695 13.3456L14.9898 12.1963V10.4273L14.9998 10.4473ZM4.42053 13.3556C4.11055 13.4356 3.79057 13.3556 3.54059 13.1557C3.2906 12.9458 3.16061 12.646 3.18061 12.3162L3.75057 3.95108C3.79057 3.42139 4.16054 3.19152 4.32053 3.11157C4.40053 3.07159 4.56052 3.01163 4.7605 3.01163C4.93049 3.01163 5.13048 3.0516 5.33046 3.20151L8.58024 5.52017C8.84022 5.71006 9.00021 6.00988 9.00021 6.33969V8.09867C7.17033 7.31912 5.63044 8.0487 5.55045 8.09867C5.06048 8.34852 4.87049 8.92818 5.10048 9.4179C5.34046 9.90761 5.93042 10.1175 6.43039 9.88763C6.56038 9.82766 7.7003 9.37792 9.00021 10.4473V12.2163L4.42053 13.3656V13.3556ZM8.18026 20.2016L3.72057 20.7813C4.7205 19.0323 6.76036 16.184 10.2801 13.9952H10.5601C10.6201 14.0652 10.6901 14.1352 10.7501 14.2051C9.26019 16.4638 8.49024 18.9923 8.18026 20.2016ZM12.9999 11.9864H11.0001V7.13923C11.61 6.93934 12.39 6.93934 12.9999 7.13923V11.9864ZM15.8197 20.2016C15.4998 18.9524 14.6898 16.3039 13.1099 13.9952H13.7199C17.2396 16.184 19.2795 19.0323 20.2794 20.7813L15.8197 20.2016Z" fill="currentColor"/>
</svg>
