<svg viewBox="0 0 24 24" fill="none" xmlns="http://www.w3.org/2000/svg">
<path d="M22.3 6.8L18.36 2.08C17.79 1.39 16.95 1 16.06 1H4C2.35 1 1 2.35 1 4V20C1 21.65 2.35 23 4 23H20C21.65 23 23 21.65 23 20V8.72C23 8.02 22.75 7.34 22.3 6.8ZM7 21V15C7 14.45 7.45 14 8 14H16C16.55 14 17 14.45 17 15V21H7ZM21 20C21 20.55 20.55 21 20 21H19V15C19 13.35 17.65 12 16 12H8C6.35 12 5 13.35 5 15V21H4C3.45 21 3 20.55 3 20V4C3 3.45 3.45 3 4 3H16.06C16.36 3 16.64 3.13 16.83 3.36L20.77 8.08C20.92 8.26 21 8.49 21 8.72V20Z" fill="currentColor"/>
<path d="M16 6H7C6.45 6 6 6.45 6 7C6 7.55 6.45 8 7 8H16C16.55 8 17 7.55 17 7C17 6.45 16.55 6 16 6Z" fill="currentColor"/>
</svg>
