<svg viewBox="0 0 24 24" fill="none" xmlns="http://www.w3.org/2000/svg">
<path d="M20 18.03C19.45 18.03 19 18.48 19 19.03V20C19 20.55 18.55 21 18 21H6C5.45 21 5 20.55 5 20V19.06C5 18.51 4.55 18.06 4 18.06C3.45 18.06 3 18.51 3 19.06V20C3 21.65 4.35 23 6 23H18C19.65 23 21 21.65 21 20V19.03C21 18.48 20.55 18.03 20 18.03Z" fill="currentColor"/>
<path d="M4 12C4.55 12 5 11.55 5 11V4C5 3.45 5.45 3 6 3H13V6C13 7.65 14.35 9 16 9H19V11C19 11.55 19.45 12 20 12C20.55 12 21 11.55 21 11V8C21 8 20.99 7.96 20.99 7.94C20.99 7.85 20.97 7.77 20.94 7.68C20.93 7.65 20.92 7.62 20.91 7.59C20.86 7.48 20.8 7.38 20.71 7.3L14.71 1.29C14.62 1.2 14.52 1.14 14.42 1.09C14.39 1.08 14.36 1.07 14.33 1.06C14.24 1.03 14.16 1.01 14.07 1.01C14.05 1.01 14.03 1 14.01 1H6C4.35 1 3 2.35 3 4V11C3 11.55 3.45 12 4 12ZM17.59 7H16C15.45 7 15 6.55 15 6V4.41L17.59 7Z" fill="currentColor"/>
<path d="M22 14H2C1.45 14 1 14.45 1 15C1 15.55 1.45 16 2 16H22C22.55 16 23 15.55 23 15C23 14.45 22.55 14 22 14Z" fill="currentColor"/>
</svg>
