<svg viewBox="0 0 24 24" fill="none" xmlns="http://www.w3.org/2000/svg">
<path d="M8.07892 16.2297L6.08891 17.8797L7.83891 9.84974L18.3189 7.74974C17.9389 8.10974 17.8989 8.70974 18.2389 9.11974C18.5889 9.53974 19.2189 9.59974 19.6489 9.24974L22.6489 6.75974C22.6489 6.75974 22.6889 6.70974 22.7089 6.68974C22.7489 6.64974 22.7889 6.60974 22.8189 6.55974C22.8489 6.50974 22.8789 6.45974 22.8989 6.40974C22.9189 6.35974 22.9389 6.31974 22.9589 6.25974C22.9789 6.19974 22.9889 6.13974 22.9889 6.07974C22.9889 6.04974 23.0089 6.01974 23.0089 5.97974C23.0089 5.95974 23.0089 5.94974 23.0089 5.92974C23.0089 5.86974 22.9889 5.80974 22.9789 5.74974C22.9689 5.69974 22.9589 5.63974 22.9389 5.58974C22.9389 5.57974 22.9389 5.55974 22.9289 5.53974C22.9089 5.49974 22.8789 5.46974 22.8589 5.43974C22.8289 5.38974 22.7989 5.34974 22.7689 5.30974C22.7289 5.25974 22.6789 5.22974 22.6389 5.18974C22.5989 5.15974 22.5589 5.12974 22.5189 5.09974C22.4589 5.06974 22.3989 5.04974 22.3389 5.02974C22.2989 5.01974 22.2689 4.99974 22.2389 4.98974L2.18892 1.01974C1.78892 0.939741 1.36891 1.10974 1.14891 1.45974C0.928915 1.79974 0.938915 2.24974 1.17891 2.57974L5.91891 9.21974L3.50891 20.2897C3.41891 20.7097 3.59891 21.1397 3.96891 21.3597C4.12891 21.4597 4.30891 21.5097 4.48891 21.5097C4.71891 21.5097 4.93891 21.4297 5.12891 21.2797L9.34891 17.7797C9.77891 17.4297 9.82891 16.7997 9.47891 16.3697C9.12891 15.9497 8.49891 15.8797 8.06891 16.2397L8.07892 16.2297ZM16.8889 5.99974L7.42892 7.88974L4.26891 3.47974L16.8889 5.99974Z" fill="currentColor"/>
<path d="M16.7289 10.4997C13.2789 10.4997 10.4789 13.2997 10.4789 16.7497C10.4789 20.1997 13.2789 22.9997 16.7289 22.9997C20.1789 22.9997 22.9789 20.1997 22.9789 16.7497C22.9789 13.2997 20.1789 10.4997 16.7289 10.4997ZM16.7289 20.9997C14.3889 20.9997 12.4789 19.0897 12.4789 16.7497C12.4789 14.4097 14.3889 12.4997 16.7289 12.4997C19.0689 12.4997 20.9789 14.4097 20.9789 16.7497C20.9789 19.0897 19.0689 20.9997 16.7289 20.9997Z" fill="currentColor"/>
<path d="M17.7289 14.9797C17.7289 14.4297 17.2789 13.9797 16.7289 13.9797C16.1789 13.9797 15.7289 14.4297 15.7289 14.9797V16.7497C15.7289 17.0197 15.8389 17.2697 16.0289 17.4597L17.4489 18.8597C17.6489 19.0497 17.8989 19.1497 18.1489 19.1497C18.3989 19.1497 18.6689 19.0497 18.8589 18.8497C19.2489 18.4597 19.2389 17.8197 18.8489 17.4397L17.7289 16.3397V14.9797Z" fill="currentColor"/>
</svg>
