<svg viewBox="0 0 24 24" fill="none" xmlns="http://www.w3.org/2000/svg">
<path d="M20 4H19V2C19 1.45 18.55 1 18 1C17.45 1 17 1.45 17 2V4H7V2C7 1.45 6.55 1 6 1C5.45 1 5 1.45 5 2V4H4C2.35 4 1 5.35 1 7V20C1 21.65 2.35 23 4 23H10C10.55 23 11 22.55 11 22C11 21.45 10.55 21 10 21H4C3.45 21 3 20.55 3 20V10H21V11C21 11.55 21.45 12 22 12C22.55 12 23 11.55 23 11V7C23 5.35 21.65 4 20 4ZM3 8V7C3 6.45 3.45 6 4 6H20C20.55 6 21 6.45 21 7V8H3Z" fill="currentColor"/>
<path d="M17.49 12.02C14.46 12.02 12 14.48 12 17.51C12 20.54 14.46 23 17.49 23C20.52 23 22.98 20.54 22.98 17.51C22.98 14.48 20.52 12.02 17.49 12.02ZM17.49 21C15.57 21 14 19.44 14 17.51C14 15.58 15.56 14.02 17.49 14.02C19.42 14.02 20.98 15.58 20.98 17.51C20.98 19.44 19.42 21 17.49 21Z" fill="currentColor"/>
<path d="M18.49 17.09V16C18.49 15.45 18.04 15 17.49 15C16.94 15 16.49 15.45 16.49 16V17.51C16.49 17.78 16.6 18.03 16.79 18.22L18 19.41C18.19 19.6 18.45 19.7 18.7 19.7C18.95 19.7 19.22 19.6 19.41 19.4C19.8 19.01 19.79 18.37 19.4 17.99L18.49 17.09Z" fill="currentColor"/>
</svg>
