<svg viewBox="0 0 24 24" fill="none" xmlns="http://www.w3.org/2000/svg">
<path d="M22.99 1.86117C22.99 1.81111 22.97 1.76104 22.96 1.71097C22.94 1.65089 22.92 1.60082 22.9 1.55075C22.89 1.53072 22.88 1.50068 22.87 1.47064C22.86 1.45061 22.84 1.43059 22.82 1.41056C22.79 1.36049 22.7501 1.32044 22.7101 1.28038C22.6701 1.24033 22.6301 1.21029 22.5801 1.17023C22.5601 1.1502 22.5401 1.13018 22.5201 1.12016C22.4901 1.10014 22.4701 1.10014 22.4401 1.09012C22.3901 1.0701 22.3402 1.05007 22.2902 1.03004C22.2302 1.01001 22.1802 1 22.1202 1C22.0702 1 22.0202 1 21.9702 1C21.9102 1 21.8503 1 21.8003 1.02003C21.7703 1.02003 21.7503 1.02003 21.7203 1.02003L1.71489 7.02822C1.32498 7.14838 1.05504 7.47884 1.00505 7.87938C0.965061 8.27993 1.16502 8.67046 1.51494 8.86072L9.36313 13.2267L15.3018 7.27856C15.6917 6.88803 16.3215 6.88803 16.7114 7.27856C17.1014 7.66909 17.1014 8.29995 16.7114 8.69049L10.7728 14.6386L15.1318 22.4893C15.3118 22.8097 15.6417 23 16.0016 23C16.0416 23 16.0716 23 16.1116 23C16.5115 22.9599 16.8514 22.6796 16.9614 22.289L22.97 2.27173C22.97 2.27173 22.97 2.22167 22.98 2.19162C22.99 2.13154 23 2.08147 23 2.02139C23 1.97132 23 1.91124 23 1.86117H22.99Z" fill="currentColor"/>
</svg>
