<svg viewBox="0 0 24 24" fill="none" xmlns="http://www.w3.org/2000/svg">
<path d="M23 2.02139C23 1.97132 23 1.91124 23 1.86117C23 1.81111 22.98 1.76104 22.97 1.71097C22.95 1.65089 22.93 1.60082 22.91 1.55075C22.9 1.53072 22.89 1.50068 22.88 1.47064C22.87 1.45061 22.85 1.43059 22.83 1.41056C22.8 1.36049 22.7601 1.32044 22.7201 1.28038C22.6801 1.24033 22.6401 1.21029 22.6001 1.17023C22.5801 1.1502 22.5601 1.13018 22.5401 1.12016C22.5101 1.11015 22.4901 1.10014 22.4601 1.09012C22.4101 1.0701 22.3601 1.05007 22.3102 1.03004C22.2602 1.01001 22.2002 1 22.1502 1C22.1002 1 22.0502 1 21.9902 1C21.9302 1 21.8803 1 21.8203 1.02003C21.7903 1.02003 21.7703 1.02003 21.7403 1.03004L1.71489 7.02822C1.32498 7.14838 1.05504 7.47884 1.00505 7.87938C0.965061 8.27993 1.16502 8.67046 1.51494 8.86072L10.2629 13.7274L15.1218 22.4893C15.3018 22.8097 15.6317 23 15.9916 23C16.0316 23 16.0616 23 16.1016 23C16.5015 22.9599 16.8414 22.6796 16.9514 22.289L22.97 2.27173C22.97 2.27173 22.97 2.22167 22.98 2.19162C22.99 2.13154 23 2.08147 23 2.02139ZM18.501 4.08421L10.8328 11.7547L4.56423 8.26991L18.501 4.08421ZM15.7317 19.4452L12.2525 13.1666L19.9207 5.49613L15.7417 19.4452H15.7317Z" fill="currentColor"/>
</svg>
