<svg viewBox="0 0 24 24" fill="none" xmlns="http://www.w3.org/2000/svg">
<path d="M19.3881 14C17.9281 14 16.6281 14.71 15.8081 15.8L10.6181 13.47C10.7781 13.01 10.8881 12.51 10.8881 12C10.8881 11.49 10.7781 10.99 10.6181 10.53L15.8081 8.2C16.6281 9.29 17.9181 10 19.3881 10C21.8681 10 23.8881 7.98 23.8881 5.5C23.8881 3.02 21.8681 1 19.3881 1C16.9081 1 14.8881 3.02 14.8881 5.5C14.8881 5.8 14.9181 6.1 14.9781 6.38L9.55806 8.81C8.74806 8 7.62806 7.5 6.38806 7.5C3.90806 7.5 1.88806 9.52 1.88806 12C1.88806 14.48 3.90806 16.5 6.38806 16.5C7.62806 16.5 8.74806 16 9.55806 15.19L14.9781 17.62C14.9181 17.91 14.8881 18.2 14.8881 18.5C14.8881 20.98 16.9081 23 19.3881 23C21.8681 23 23.8881 20.98 23.8881 18.5C23.8881 16.02 21.8681 14 19.3881 14ZM19.3881 3C20.7681 3 21.8881 4.12 21.8881 5.5C21.8881 6.88 20.7681 8 19.3881 8C18.0081 8 16.8881 6.88 16.8881 5.5C16.8881 4.12 18.0081 3 19.3881 3ZM6.38806 14.5C5.00806 14.5 3.88806 13.38 3.88806 12C3.88806 10.62 5.00806 9.5 6.38806 9.5C7.76806 9.5 8.88806 10.62 8.88806 12C8.88806 13.38 7.76806 14.5 6.38806 14.5ZM19.3881 21C18.0081 21 16.8881 19.88 16.8881 18.5C16.8881 17.12 18.0081 16 19.3881 16C20.7681 16 21.8881 17.12 21.8881 18.5C21.8881 19.88 20.7681 21 19.3881 21Z" fill="currentColor"/>
</svg>
