<svg viewBox="0 0 24 24" fill="none" xmlns="http://www.w3.org/2000/svg">
<path d="M21.3103 4.05215L12.3348 1.05249C12.1249 0.982502 11.905 0.982502 11.7051 1.05249L2.67966 4.05215C2.26987 4.19214 2 4.57209 2 5.00205V11.2213C2 15.7308 4.45877 19.7404 8.25687 21.4202L11.6152 22.91C11.7451 22.97 11.8851 23 12.025 23C12.1649 23 12.3048 22.97 12.4348 22.91L15.7631 21.4302C19.5512 19.7404 22 15.7408 22 11.2313V4.99205C22 4.5621 21.7301 4.18214 21.3203 4.04215L21.3103 4.05215ZM19.991 11.2413C19.991 14.9509 18.002 18.2405 14.9335 19.6104L12.015 20.9102L9.06647 19.6004C5.98801 18.2305 3.999 14.9509 3.999 11.2313V5.73196L12.015 3.06227L19.991 5.73196V11.2513V11.2413Z" fill="currentColor"/>
</svg>
