<svg viewBox="0 0 24 24" fill="none" xmlns="http://www.w3.org/2000/svg">
<path d="M21.3103 4.05215L12.3348 1.05249C12.1249 0.982502 11.905 0.982502 11.7051 1.05249L2.67966 4.05215C2.26987 4.19214 2 4.57209 2 5.00205V11.2213C2 15.7308 4.45877 19.7404 8.25687 21.4202L11.6152 22.91C11.7451 22.97 11.8851 23 12.025 23C12.1649 23 12.3048 22.97 12.4348 22.91L15.7631 21.4302C19.5512 19.7404 22 15.7408 22 11.2313V4.99205C22 4.5621 21.7301 4.18214 21.3203 4.04215L21.3103 4.05215ZM19.991 11.2413C19.991 14.9509 18.002 18.2405 14.9335 19.6104L12.015 20.9102L9.06647 19.6004C5.98801 18.2305 3.999 14.9509 3.999 11.2313V5.73196L12.015 3.06227L19.991 5.73196V11.2413Z" fill="currentColor"/>
<path d="M8.8066 11.5713C8.38681 11.2213 7.75712 11.2813 7.3973 11.7013C7.04748 12.1212 7.09745 12.7612 7.52724 13.1111L10.4258 15.5308C10.6157 15.6908 10.8356 15.7608 11.0655 15.7608C11.3353 15.7608 11.6052 15.6508 11.8051 15.4409L16.4928 10.3614C16.8626 9.95148 16.8426 9.32155 16.4328 8.9516C16.033 8.57164 15.3933 8.60164 15.0235 9.01159L10.9755 13.3911L8.8066 11.5813V11.5713Z" fill="currentColor"/>
</svg>
