<svg viewBox="0 0 24 24" fill="none" xmlns="http://www.w3.org/2000/svg">
<path d="M21.98 19.0082C21.43 19.0082 20.98 19.4584 20.98 20.0086C20.98 20.4789 20.36 20.9991 19.48 20.9991C19.34 20.9991 19.21 20.9591 19.08 20.9391L21.19 15.3065C21.48 14.5362 21.44 13.7058 21.09 12.9554C20.74 12.2151 20.11 11.6648 19.33 11.4047L18.8 11.2246L17.36 6.18236C16.99 4.90177 15.81 4.00136 14.48 4.00136H12.99V3.00091H13.99C14.54 3.00091 14.99 2.5507 14.99 2.00045C14.99 1.4502 14.54 1 13.99 1H9.99C9.44 1 8.99 1.4502 8.99 2.00045C8.99 2.5507 9.44 3.00091 9.99 3.00091H10.99V4.00136H9.5C8.17 4.00136 6.98 4.90177 6.62 6.18236L5.18 11.2246L4.65 11.4047C3.87 11.6648 3.25 12.2151 2.89 12.9554C2.54 13.6958 2.5 14.5362 2.79 15.3065L4.9 20.9391C4.77 20.9691 4.64 20.9991 4.5 20.9991C3.62 20.9991 3 20.4789 3 20.0086C3 19.4584 2.55 19.0082 2 19.0082C1.45 19.0082 1 19.4584 1 20.0086C1 21.6594 2.57 23 4.5 23C5.43 23 6.31 22.6899 7.03 22.1296C7.69 22.6899 8.57 23 9.5 23C10.43 23 11.31 22.6899 12.03 22.1296C12.69 22.6899 13.57 23 14.5 23C15.43 23 16.31 22.6899 17.03 22.1296C17.69 22.6899 18.57 23 19.5 23C21.43 23 23 21.6594 23 20.0086C23 19.4584 22.55 19.0082 22 19.0082H21.98ZM8.53 6.73261C8.65 6.30241 9.05 6.00227 9.49 6.00227H14.47C14.91 6.00227 15.31 6.30241 15.43 6.73261L16.5 10.4643L12.3 9.06367C12.09 8.99363 11.87 8.99363 11.67 9.06367L7.47 10.4643L8.54 6.73261H8.53ZM15.66 20.6089C15.07 21.1091 13.89 21.1091 13.31 20.6089C13.21 20.5189 13.1 20.4488 12.99 20.3888V15.0064C12.99 14.4561 12.54 14.0059 11.99 14.0059C11.44 14.0059 10.99 14.4561 10.99 15.0064V20.3888C10.88 20.4488 10.77 20.5289 10.67 20.6089C10.08 21.1091 8.9 21.1091 8.32 20.6089C7.87 20.2287 7.29 20.0687 6.74 20.1387L4.66 14.5962C4.56 14.3361 4.58 14.0559 4.69 13.8158C4.81 13.5657 5.02 13.3856 5.28 13.2956L6.31 12.9554L11.68 11.1646C11.89 11.0946 12.11 11.0946 12.31 11.1646L17.68 12.9554L18.71 13.2956C18.97 13.3856 19.18 13.5657 19.3 13.8158C19.42 14.0659 19.43 14.3461 19.33 14.5962L17.25 20.1387C16.7 20.0687 16.12 20.2187 15.67 20.6089H15.66Z" fill="currentColor"/>
</svg>
