<svg viewBox="0 0 24 24" fill="none" xmlns="http://www.w3.org/2000/svg">
<path d="M22.8 5.4C22.61 5.15 22.31 5 22 5H5.29L4.64 1.8C4.55 1.33 4.14 1 3.66 1H2C1.45 1 1 1.45 1 2C1 2.55 1.45 3 2 3H2.84L5.52 16.2C5.61 16.67 6.02 17 6.5 17H19C19.44 17 19.83 16.71 19.96 16.29L22.96 6.29C23.05 5.99 22.99 5.66 22.8 5.41V5.4ZM18.26 15H7.32L5.7 7H20.66L18.26 15Z" fill="currentColor"/>
<path d="M7.53 18.58C6.31 18.58 5.32 19.57 5.32 20.79C5.32 22.01 6.31 23 7.53 23C8.75 23 9.74 22.01 9.74 20.79C9.74 19.57 8.75 18.58 7.53 18.58Z" fill="currentColor"/>
<path d="M18.58 18.58C17.36 18.58 16.37 19.57 16.37 20.79C16.37 22.01 17.36 23 18.58 23C19.8 23 20.79 22.01 20.79 20.79C20.79 19.57 19.8 18.58 18.58 18.58Z" fill="currentColor"/>
</svg>
