<svg viewBox="0 0 24 24" fill="none" xmlns="http://www.w3.org/2000/svg">
<path d="M21 21V10.65C21.52 10.4 21.98 10.02 22.32 9.53C22.96 8.61 23.11 7.43 22.71 6.38L21.42 2.95C20.98 1.78 19.85 1 18.61 1H5.36C4.12 1 2.99 1.79 2.55 2.95L1.28 6.39C0.89 7.44 1.04 8.61 1.68 9.53C2.02 10.01 2.47 10.39 2.99 10.64V21H2C1.45 21 1 21.45 1 22C1 22.55 1.45 23 2 23H22C22.55 23 23 22.55 23 22C23 21.45 22.55 21 22 21H21ZM19.55 3.65L20.84 7.08C21.01 7.52 20.95 8 20.68 8.39C20.41 8.78 19.99 9 19.51 9C18.83 9 18.24 8.51 18.11 7.84L17.93 6.89V6.87L17.2 3.01H18.61C19.02 3.01 19.4 3.27 19.55 3.66V3.65ZM12.99 3H15.16L15.96 7.26C16.03 7.69 15.92 8.13 15.64 8.46C15.36 8.8 14.94 9 14.49 9H14.48C13.66 9 12.99 8.33 12.99 7.51V3ZM8.03 7.24L8.81 3H10.98V7.51C10.98 8.33 10.31 9 9.49 9C9.05 9 8.63 8.8 8.34 8.46C8.05 8.12 7.94 7.67 8.02 7.23L8.03 7.24ZM3.15 7.08L4.43 3.65C4.58 3.26 4.95 3 5.37 3H6.78L5.88 7.84C5.76 8.51 5.17 9 4.48 9C4.01 9 3.58 8.78 3.31 8.39C3.04 8 2.98 7.53 3.15 7.08ZM8.99 21V16C8.99 15.45 9.44 15 9.99 15H14C14.55 15 15 15.45 15 16V21H8.99ZM16.99 21V16C16.99 14.35 15.65 13 14 13H9.99C8.34 13 6.99 14.35 6.99 16V21H4.98V10.96C5.76 10.85 6.46 10.47 6.98 9.91C7.64 10.6 8.54 11.01 9.5 11.01C10.46 11.01 11.36 10.6 11.99 9.95C12.62 10.6 13.51 11.01 14.48 11.01H14.49C15.45 11.01 16.35 10.6 17 9.92C17.52 10.48 18.21 10.85 18.99 10.97V21.02H16.98L16.99 21Z" fill="currentColor"/>
</svg>
