<svg viewBox="0 0 24 24" fill="none" xmlns="http://www.w3.org/2000/svg">
<path d="M19.9774 23H4.02265C3.19292 23 2.39319 22.66 1.82337 22.06C1.25356 21.46 0.96366 20.67 1.00365 19.85L1.81338 3.85C1.89335 2.25 3.22291 1 4.83238 1H19.1676C20.7771 1 22.1066 2.25 22.1866 3.85L22.9964 19.85C23.0363 20.68 22.7464 21.46 22.1766 22.06C21.6068 22.66 20.8071 23 19.9774 23ZM4.83238 3C4.29256 3 3.84271 3.42 3.81272 3.95L3.00298 19.95C2.99299 20.22 3.08296 20.48 3.27289 20.68C3.47283 20.89 3.73274 21 4.02265 21H19.9774C20.2673 21 20.5272 20.89 20.7271 20.68C20.917 20.48 21.017 20.22 20.997 19.95L20.1873 3.95C20.1573 3.42 19.7174 3 19.1676 3H4.83238Z" fill="currentColor"/>
<path d="M12 11C9.22092 11 6.96167 8.76 6.96167 6C6.96167 5.45 7.41152 5 7.96134 5C8.51116 5 8.96101 5.45 8.96101 6C8.96101 7.65 10.3206 9 12 9C13.6794 9 15.039 7.65 15.039 6C15.039 5.45 15.4888 5 16.0387 5C16.5885 5 17.0383 5.45 17.0383 6C17.0383 8.76 14.7791 11 12 11Z" fill="currentColor"/>
</svg>
