<svg viewBox="0 0 24 24" fill="none" xmlns="http://www.w3.org/2000/svg">
<path d="M11.8906 14.6685C13.5474 14.6685 14.8906 13.3254 14.8906 11.6685C14.8906 10.0117 13.5474 8.66852 11.8906 8.66852C10.2337 8.66852 8.89059 10.0117 8.89059 11.6685C8.89059 13.3254 10.2337 14.6685 11.8906 14.6685Z" fill="currentColor"/>
<path d="M22.8106 11.2785C22.6806 10.9685 19.4606 3.66852 11.8906 3.66852C4.32059 3.66852 1.10059 10.9685 0.970592 11.2785C0.860592 11.5285 0.860592 11.8185 0.970592 12.0685C1.10059 12.3785 4.32059 19.6785 11.8906 19.6785C19.4606 19.6785 22.6806 12.3785 22.8106 12.0685C22.9206 11.8185 22.9206 11.5285 22.8106 11.2785ZM11.8906 17.6685C6.49059 17.6685 3.72059 13.0685 3.00059 11.6685C3.72059 10.2585 6.49059 5.66852 11.8906 5.66852C17.2906 5.66852 20.0606 10.2585 20.7806 11.6685C20.0606 13.0785 17.2906 17.6685 11.8906 17.6685Z" fill="currentColor"/>
</svg>
