<svg viewBox="0 0 24 24" fill="none" xmlns="http://www.w3.org/2000/svg">
<path d="M22.99 12.06C22.99 12.06 23 12.02 23 12C23 11.87 22.97 11.74 22.92 11.62C22.87 11.5 22.8 11.39 22.7 11.3L19.68 8.3C19.29 7.91 18.66 7.91 18.27 8.3C17.88 8.69 17.88 9.33 18.27 9.71L19.57 11H10C9.45 11 9 11.45 9 12C9 12.55 9.45 13 10 13H19.6L18.31 14.29C17.92 14.68 17.92 15.32 18.31 15.7C18.51 15.89 18.76 15.99 19.02 15.99C19.28 15.99 19.53 15.89 19.73 15.7L22.71 12.7C22.71 12.7 22.71 12.69 22.72 12.68C22.81 12.59 22.88 12.49 22.92 12.37C22.96 12.27 22.98 12.16 22.98 12.05L22.99 12.06Z" fill="currentColor"/>
<path d="M16 17C15.45 17 15 17.45 15 18V20C15 20.55 14.55 21 14 21H4C3.45 21 3 20.55 3 20V4C3 3.45 3.45 3 4 3H14C14.55 3 15 3.45 15 4V6C15 6.55 15.45 7 16 7C16.55 7 17 6.55 17 6V4C17 2.35 15.65 1 14 1H4C2.35 1 1 2.35 1 4V20C1 21.65 2.35 23 4 23H14C15.65 23 17 21.65 17 20V18C17 17.45 16.55 17 16 17Z" fill="currentColor"/>
</svg>
