<svg viewBox="0 0 24 24" fill="none" xmlns="http://www.w3.org/2000/svg">
<path d="M16 17C15.45 17 15 17.45 15 18V20C15 20.55 14.55 21 14 21H4C3.45 21 3 20.55 3 20V4C3 3.45 3.45 3 4 3H14C14.55 3 15 3.45 15 4V6C15 6.55 15.45 7 16 7C16.55 7 17 6.55 17 6V4C17 2.35 15.65 1 14 1H4C2.35 1 1 2.35 1 4V20C1 21.65 2.35 23 4 23H14C15.65 23 17 21.65 17 20V18C17 17.45 16.55 17 16 17Z" fill="currentColor"/>
<path d="M22 11H12.43L13.73 9.71C14.12 9.32 14.12 8.69 13.73 8.3C13.34 7.91 12.71 7.91 12.32 8.3L9.3 11.3C9.21 11.39 9.13 11.5 9.08 11.62C9.03 11.74 9 11.87 9 12C9 12.02 9.01 12.04 9.01 12.06C9.01 12.17 9.03 12.28 9.08 12.38C9.13 12.5 9.2 12.6 9.28 12.69C9.28 12.69 9.28 12.7 9.29 12.71L12.27 15.71C12.47 15.91 12.72 16 12.98 16C13.24 16 13.49 15.9 13.69 15.71C14.08 15.32 14.08 14.69 13.69 14.3L12.4 13.01H22C22.55 13.01 23 12.56 23 12.01C23 11.46 22.55 11.01 22 11.01V11Z" fill="currentColor"/>
</svg>
