<svg viewBox="0 0 24 24" fill="none" xmlns="http://www.w3.org/2000/svg">
<path d="M6 14C5.45 14 5 14.45 5 15C5 15.55 5.45 16 6 16H10C10.55 16 11 15.55 11 15C11 14.45 10.55 14 10 14H6Z" fill="currentColor"/>
<path d="M17.5 12C14.47 12 12 14.47 12 17.5C12 20.53 14.47 23 17.5 23C20.53 23 23 20.53 23 17.5C23 14.47 20.53 12 17.5 12ZM17.5 21C15.57 21 14 19.43 14 17.5C14 15.57 15.57 14 17.5 14C19.43 14 21 15.57 21 17.5C21 19.43 19.43 21 17.5 21Z" fill="currentColor"/>
<path d="M18.14 15.1C17.8 14.93 17.39 14.97 17.09 15.2L16.09 15.96C15.65 16.29 15.56 16.92 15.9 17.36C16.1 17.62 16.39 17.76 16.7 17.76V19C16.7 19.55 17.15 20 17.7 20C18.25 20 18.7 19.55 18.7 19V16C18.7 15.62 18.48 15.27 18.14 15.1Z" fill="currentColor"/>
<path d="M10 18H4C3.45 18 3 17.55 3 17V10H21V11C21 11.55 21.45 12 22 12C22.55 12 23 11.55 23 11V7C23 5.35 21.65 4 20 4H4C2.35 4 1 5.35 1 7V17C1 18.65 2.35 20 4 20H10C10.55 20 11 19.55 11 19C11 18.45 10.55 18 10 18ZM4 6H20C20.55 6 21 6.45 21 7V8H3V7C3 6.45 3.45 6 4 6Z" fill="currentColor"/>
</svg>
