<svg viewBox="0 0 24 24" fill="none" xmlns="http://www.w3.org/2000/svg">
<path d="M20 1H4C2.35 1 1 2.35 1 4V20C1 21.65 2.35 23 4 23H20C21.65 23 23 21.65 23 20V4C23 2.35 21.65 1 20 1ZM4 3H20C20.55 3 21 3.45 21 4V7H3V4C3 3.45 3.45 3 4 3ZM20 21H4C3.45 21 3 20.55 3 20V9H21V20C21 20.55 20.55 21 20 21Z" fill="currentColor"/>
<path d="M5.08 6H6C6.55 6 7 5.55 7 5C7 4.45 6.55 4 6 4H5.08C4.53 4 4.08 4.45 4.08 5C4.08 5.55 4.53 6 5.08 6Z" fill="currentColor"/>
<path d="M9.08 6H10.08C10.63 6 11.08 5.55 11.08 5C11.08 4.45 10.63 4 10.08 4H9.08C8.53 4 8.08 4.45 8.08 5C8.08 5.55 8.53 6 9.08 6Z" fill="currentColor"/>
<path d="M15.13 11.26C14.74 10.87 14.11 10.87 13.72 11.26C13.33 11.65 13.33 12.28 13.72 12.67L16.04 14.99L13.72 17.31C13.33 17.7 13.33 18.33 13.72 18.72C13.92 18.92 14.17 19.01 14.43 19.01C14.69 19.01 14.94 18.91 15.14 18.72L18.17 15.69C18.56 15.3 18.56 14.67 18.17 14.28L15.14 11.25L15.13 11.26Z" fill="currentColor"/>
<path d="M10.44 11.26C10.05 10.87 9.42 10.87 9.03 11.26L6 14.29C5.61 14.68 5.61 15.31 6 15.7L9.03 18.73C9.23 18.93 9.48 19.02 9.74 19.02C10 19.02 10.25 18.92 10.45 18.73C10.84 18.34 10.84 17.71 10.45 17.32L8.13 15L10.45 12.68C10.84 12.29 10.84 11.66 10.45 11.27L10.44 11.26Z" fill="currentColor"/>
</svg>
