<svg viewBox="0 0 24 24" fill="none" xmlns="http://www.w3.org/2000/svg">
<path d="M21.9859 16.0037H4.4119L6.69982 13.7152C7.08946 13.3254 7.08946 12.6958 6.69982 12.3061C6.31017 11.9163 5.68074 11.9163 5.2911 12.3061L1.29473 16.2936C1.20481 16.3835 1.12489 16.4934 1.07493 16.6234C0.975023 16.8632 0.975023 17.143 1.07493 17.3829C1.12489 17.5028 1.19482 17.6127 1.29473 17.7127L5.2911 21.7102C5.49092 21.9101 5.74069 22 6.00045 22C6.26022 22 6.50999 21.9001 6.70981 21.7102C7.09945 21.3204 7.09945 20.6908 6.70981 20.3011L4.42189 18.0125H21.9959C22.5454 18.0125 22.995 17.5628 22.995 17.0131C22.995 16.4635 22.5454 16.0137 21.9959 16.0137L21.9859 16.0037Z" fill="currentColor"/>
<path d="M2.00409 8.00874H19.5781L17.2902 10.2973C16.9005 10.6871 16.9005 11.3167 17.2902 11.7064C17.49 11.9063 17.7398 11.9963 17.9995 11.9963C18.2593 11.9963 18.5091 11.8963 18.7089 11.7064L22.7053 7.70893C22.7952 7.61899 22.8751 7.50906 22.9251 7.37914C23.025 7.13929 23.025 6.85946 22.9251 6.61961C22.8751 6.49969 22.8052 6.38976 22.7053 6.28982L18.7089 2.29232C18.3193 1.90256 17.6898 1.90256 17.3002 2.29232C16.9105 2.68207 16.9105 3.31168 17.3002 3.70144L19.5881 5.99001H2.00409C1.45459 5.99001 1.005 6.43972 1.005 6.98938C1.005 7.53904 1.45459 7.98876 2.00409 7.98876V8.00874Z" fill="currentColor"/>
</svg>
