<svg viewBox="0 0 24 24" fill="none" xmlns="http://www.w3.org/2000/svg">
<path d="M21.7173 5.29207L17.7143 1.2948C17.6242 1.20486 17.5141 1.12491 17.384 1.07495C17.1439 0.975017 16.8636 0.975017 16.6235 1.07495C16.5034 1.12491 16.3933 1.19487 16.2932 1.2948L12.2902 5.29207C11.8999 5.68181 11.8999 6.31138 12.2902 6.70111C12.6805 7.09085 13.311 7.09085 13.7013 6.70111L15.993 4.41267V21.9907C15.993 22.5403 16.4433 22.99 16.9937 22.99C17.5442 22.99 17.9945 22.5403 17.9945 21.9907V4.41267L20.2862 6.70111C20.4864 6.90098 20.7366 6.99092 20.9967 6.99092C21.2569 6.99092 21.5071 6.89098 21.7073 6.70111C22.0976 6.31138 22.0976 5.68181 21.7073 5.29207H21.7173Z" fill="currentColor"/>
<path d="M10.2887 17.2839L7.997 19.5723V2.00432C7.997 1.45469 7.54666 1.005 6.99625 1.005C6.44583 1.005 5.9955 1.45469 5.9955 2.00432V19.5823L3.70378 17.2939C3.31349 16.9042 2.68301 16.9042 2.29272 17.2939C1.90243 17.6836 1.90243 18.3132 2.29272 18.7029L6.29572 22.7002C6.38579 22.7901 6.49587 22.8701 6.62597 22.9201C6.74606 22.97 6.87616 23 7.00625 23C7.13635 23 7.26645 22.97 7.38654 22.9201C7.50663 22.8701 7.61671 22.8001 7.71679 22.7002L11.7198 18.7029C12.1101 18.3132 12.1101 17.6836 11.7198 17.2939C11.3295 16.9042 10.699 16.9042 10.3087 17.2939L10.2887 17.2839Z" fill="currentColor"/>
</svg>
