<svg viewBox="0 0 24 24" fill="none" xmlns="http://www.w3.org/2000/svg">
<path d="M12 15.84C14.76 15.84 17 13.6 17 10.84V6C17 3.24 14.76 1 12 1C9.24 1 7 3.24 7 6V10.84C7 13.6 9.24 15.84 12 15.84ZM9 6C9 4.35 10.35 3 12 3C13.65 3 15 4.35 15 6V10.84C15 12.49 13.65 13.84 12 13.84C10.35 13.84 9 12.49 9 10.84V6Z" fill="currentColor"/>
<path d="M21 10.5C21 9.95 20.55 9.5 20 9.5C19.45 9.5 19 9.95 19 10.5C19 14.36 15.86 17.5 12 17.5C8.14 17.5 5 14.36 5 10.5C5 9.95 4.55 9.5 4 9.5C3.45 9.5 3 9.95 3 10.5C3 15.12 6.51 18.94 11 19.44V21H8C7.45 21 7 21.45 7 22C7 22.55 7.45 23 8 23H16C16.55 23 17 22.55 17 22C17 21.45 16.55 21 16 21H13V19.44C17.49 18.94 21 15.12 21 10.5Z" fill="currentColor"/>
</svg>
