<svg viewBox="0 0 24 24" fill="none" xmlns="http://www.w3.org/2000/svg">
  <path
    d="M6.55573 2.0025C6.55573 1.44883 7.00344 1 7.55573 1H16.4446C16.9969 1 17.4446 1.44883 17.4446 2.0025C17.4446 2.55616 16.9969 3.00499 16.4446 3.00499H7.55573C7.00344 3.00499 6.55573 2.55616 6.55573 2.0025Z"
    fill="currentColor"
  />
  <path
    d="M13.0001 9.79926C13.0001 9.2456 12.5523 8.79676 12.0001 8.79676C11.4478 8.79676 11.0001 9.2456 11.0001 9.79926V13.9764C11.0001 14.5301 11.4478 14.9789 12.0001 14.9789H15.3334C15.8857 14.9789 16.3334 14.5301 16.3334 13.9764C16.3334 13.4228 15.8857 12.9739 15.3334 12.9739H13.0001V9.79926Z"
    fill="currentColor"
  />
  <path
    fill-rule="evenodd"
    clip-rule="evenodd"
    d="M3.00006 13.9776C3.00006 8.99464 7.02947 4.95516 12 4.95516C16.9705 4.95516 21 8.99464 21 13.9776C21 18.9605 16.9705 23 12 23C7.02947 23 3.00006 18.9605 3.00006 13.9776ZM12 6.96016C8.13404 6.96016 5.00006 10.102 5.00006 13.9776C5.00006 17.8532 8.13404 20.995 12 20.995C15.866 20.995 19 17.8532 19 13.9776C19 10.102 15.866 6.96016 12 6.96016Z"
    fill="currentColor"
  />
</svg>
