<svg viewBox="0 0 24 24" fill="none" xmlns="http://www.w3.org/2000/svg">
<path d="M12 4C6.76 4 2.5 8.26 2.5 13.5C2.5 18.74 6.76 23 12 23C17.24 23 21.5 18.74 21.5 13.5C21.5 8.26 17.24 4 12 4ZM12 21C7.86 21 4.5 17.64 4.5 13.5C4.5 9.36 7.86 6 12 6C16.14 6 19.5 9.36 19.5 13.5C19.5 17.64 16.14 21 12 21Z" fill="currentColor"/>
<path d="M7 3H17C17.55 3 18 2.55 18 2C18 1.45 17.55 1 17 1H7C6.45 1 6 1.45 6 2C6 2.55 6.45 3 7 3Z" fill="currentColor"/>
<path d="M14.5 12.5H13V9C13 8.45 12.55 8 12 8C11.45 8 11 8.45 11 9V13.5C11 14.05 11.45 14.5 12 14.5H14.5C15.05 14.5 15.5 14.05 15.5 13.5C15.5 12.95 15.05 12.5 14.5 12.5Z" fill="currentColor"/>
</svg>
