<svg viewBox="0 0 24 24" fill="none" xmlns="http://www.w3.org/2000/svg">
  <path
    d="M7.52797 1C6.97225 1 6.52175 1.44999 6.52175 2.00508C6.52175 2.56017 6.97225 3.01016 7.52797 3.01016H16.4721C17.0278 3.01016 17.4783 2.56017 17.4783 2.00508C17.4783 1.44999 17.0278 1 16.4721 1H7.52797Z"
    fill="currentColor"
  />
  <path
    fill-rule="evenodd"
    clip-rule="evenodd"
    d="M12 23C16.9706 23 21 18.9751 21 14.0102C21 9.04521 16.9706 5.02032 12 5.02032C7.02944 5.02032 3 9.04521 3 14.0102C3 18.9751 7.02944 23 12 23ZM11.9999 8.81685C12.5556 8.81685 13.0061 9.26684 13.0061 9.82193V13.0048H15.354C15.9097 13.0048 16.3602 13.4548 16.3602 14.0098C16.3602 14.5649 15.9097 15.0149 15.354 15.0149H11.9999C11.4442 15.0149 10.9937 14.5649 10.9937 14.0098V9.82193C10.9937 9.26684 11.4442 8.81685 11.9999 8.81685Z"
    fill="currentColor"
  />
</svg>
