<svg viewBox="0 0 24 24" fill="none" xmlns="http://www.w3.org/2000/svg">
<path d="M12 5.998C11.45 5.998 11 6.44778 11 6.9975V11.995C11 12.5447 11.45 12.9945 12 12.9945H15C15.55 12.9945 16 12.5447 16 11.995C16 11.4453 15.55 10.9955 15 10.9955H13V6.9975C13 6.44778 12.55 5.998 12 5.998Z" fill="currentColor"/>
<path d="M8 14.9935C8.55 14.9935 9 14.5437 9 13.994C9 13.4443 8.55 12.9945 8 12.9945H2C1.45 12.9945 1 13.4443 1 13.994C1 14.5437 1.45 14.9935 2 14.9935H8Z" fill="currentColor"/>
<path d="M12 16.9925C12 16.4428 11.55 15.993 11 15.993H3C2.45 15.993 2 16.4428 2 16.9925C2 17.5422 2.45 17.992 3 17.992H11C11.55 17.992 12 17.5422 12 16.9925Z" fill="currentColor"/>
<path d="M12 2C7.3 2 3.29 5.1984 2.25 9.77611C2.13 10.3158 2.47 10.8456 3 10.9755C3.54 11.0955 4.07 10.7556 4.2 10.2259C5.03 6.56772 8.24 4.009 12 4.009C16.41 4.009 20 7.5972 20 12.005C20 15.3933 17.86 18.4218 14.67 19.5412C12.96 20.1409 11.05 20.1409 9.34 19.5412C8.82 19.3613 8.25 19.6312 8.06 20.1509C7.88 20.6707 8.15 21.2404 8.67 21.4303C9.74 21.8101 10.86 22 12 22C13.14 22 14.26 21.8101 15.33 21.4303C19.32 20.021 22 16.2329 22 12.005C22 6.48776 17.51 2 12 2Z" fill="currentColor"/>
</svg>
