<svg viewBox="0 0 24 24" fill="none" xmlns="http://www.w3.org/2000/svg">
<path d="M22.925 15.3858C23.025 15.1457 23.025 14.8655 22.925 14.6253C22.875 14.5052 22.8049 14.3951 22.7049 14.295L17.703 9.29134C17.3128 8.90105 16.6826 8.90105 16.2925 9.29134C15.9023 9.68163 15.9023 10.3121 16.2925 10.7024L19.5837 13.9948H12.341C7.98933 13.9948 4.25791 10.8825 3.47762 6.59935L2.98743 3.81729C2.8874 3.27689 2.3572 2.91662 1.81699 3.0167C1.27679 3.10676 0.916652 3.62715 1.01669 4.17755L1.52688 6.96962C2.47724 12.2035 7.02896 16.0063 12.351 16.0063H19.5937L16.3025 19.2987C15.9123 19.689 15.9123 20.3195 16.3025 20.7098C16.5025 20.9099 16.7526 21 17.0127 21C17.2728 21 17.5229 20.8999 17.723 20.7098L22.7249 15.7061C22.8149 15.616 22.895 15.5059 22.945 15.3758L22.925 15.3858Z" fill="currentColor"/>
</svg>
