<svg viewBox="0 0 24 24" xmlns="http://www.w3.org/2000/svg">
<path d="M20.45 19.0364C22.04 17.1247 23 14.6724 23 12C23 9.32757 22.04 6.86533 20.45 4.9636L20.71 4.70337C21.1 4.31301 21.1 3.68244 20.71 3.29208C20.32 2.90173 19.69 2.90173 19.3 3.29208L19.04 3.55232C17.13 1.96087 14.68 1 12.01 1C9.34 1 6.87 1.95086 4.97 3.54231L4.71 3.28207C4.32 2.89172 3.69 2.89172 3.3 3.28207C2.91 3.67243 2.91 4.303 3.3 4.69336L3.56 4.95359C1.96 6.86533 1 9.32757 1 12C1 14.6724 1.96 17.1347 3.55 19.0364L3.29 19.2966C2.9 19.687 2.9 20.3176 3.29 20.7079C3.49 20.9081 3.74 20.9982 4 20.9982C4.26 20.9982 4.51 20.8981 4.71 20.7079L4.97 20.4477C6.88 22.0391 9.33 23 12 23C14.67 23 17.13 22.0391 19.03 20.4477L19.29 20.7079C19.49 20.9081 19.74 20.9982 20 20.9982C20.26 20.9982 20.51 20.8981 20.71 20.7079C21.1 20.3176 21.1 19.687 20.71 19.2966L20.45 19.0364ZM21 12C21 14.1219 20.26 16.0737 19.03 17.6151L16.89 15.4732C17.59 14.4923 18 13.2912 18 12C18 10.7088 17.58 9.50773 16.89 8.52684L19.03 6.3849C20.26 7.9263 21 9.87807 21 12ZM8 12C8 9.78799 9.79 7.99636 12 7.99636C14.21 7.99636 16 9.78799 16 12C16 14.212 14.21 16.0036 12 16.0036C9.79 16.0036 8 14.212 8 12ZM12 2.99181C14.12 2.99181 16.07 3.73248 17.61 4.9636L15.47 7.10555C14.49 6.40491 13.29 5.99454 12 5.99454C10.71 5.99454 9.51 6.41492 8.53 7.10555L6.39 4.9636C7.93 3.73248 9.88 2.99181 12 2.99181ZM3 12C3 9.87807 3.74 7.9263 4.97 6.3849L7.11 8.52684C6.41 9.50773 6 10.7088 6 12C6 13.2912 6.42 14.4923 7.11 15.4732L4.97 17.6151C3.74 16.0737 3 14.1219 3 12ZM12 21.0082C9.88 21.0082 7.93 20.2675 6.39 19.0364L8.53 16.8944C9.51 17.5951 10.71 18.0055 12 18.0055C13.29 18.0055 14.49 17.5851 15.47 16.8944L17.61 19.0364C16.07 20.2675 14.12 21.0082 12 21.0082Z" fill="currentColor"/>
</svg>
