<svg viewBox="0 0 24 24" fill="none" xmlns="http://www.w3.org/2000/svg">
<path d="M22.925 12.3825C23.025 12.1425 23.025 11.8625 22.925 11.6225C22.875 11.5025 22.805 11.3925 22.705 11.2925L17.715 6.2925C17.325 5.9025 16.695 5.9025 16.305 6.2925C15.915 6.6825 15.915 7.3125 16.305 7.7025L19.595 10.9925H4.415L7.705 7.7025C8.095 7.3125 8.095 6.6825 7.705 6.2925C7.315 5.9025 6.685 5.9025 6.295 6.2925L1.295 11.2925C1.205 11.3825 1.125 11.4925 1.075 11.6225C0.975 11.8625 0.975 12.1425 1.075 12.3825C1.125 12.5025 1.195 12.6125 1.295 12.7125L6.295 17.7125C6.495 17.9125 6.745 18.0025 7.005 18.0025C7.265 18.0025 7.515 17.9025 7.715 17.7125C8.105 17.3225 8.105 16.6925 7.715 16.3025L4.425 13.0125H19.595L16.305 16.3025C15.915 16.6925 15.915 17.3225 16.305 17.7125C16.505 17.9125 16.755 18.0025 17.015 18.0025C17.275 18.0025 17.525 17.9025 17.725 17.7125L22.725 12.7125C22.815 12.6225 22.895 12.5125 22.945 12.3825H22.925Z" fill="currentColor"/>
</svg>
