<svg viewBox="0 0 24 24" fill="none" xmlns="http://www.w3.org/2000/svg">
<path d="M11.9882 21H5.9919C5.44224 21 4.99253 20.55 4.99253 20V4C4.99253 3.45 5.44224 3 5.9919 3H8.99003C8.99003 3.55 9.43975 4 9.9894 4H13.9869C14.5366 4 14.9863 3.55 14.9863 3H17.9844C18.5341 3 18.9838 3.45 18.9838 4V10C18.9838 10.55 19.4335 11 19.9832 11C20.5328 11 20.9825 10.55 20.9825 10V4C20.9825 2.35 19.6334 1 17.9844 1H5.9919C4.34293 1 2.99377 2.35 2.99377 4V20C2.99377 21.65 4.34293 23 5.9919 23H11.9882C12.5378 23 12.9875 22.55 12.9875 22C12.9875 21.45 12.5378 21 11.9882 21Z" fill="currentColor"/>
<path d="M22.6915 21.29L20.283 18.88C20.7227 18.19 20.9825 17.37 20.9825 16.49C20.9825 14.01 18.9638 11.99 16.4853 11.99C14.0069 11.99 11.9882 14.01 11.9882 16.49C11.9882 18.97 14.0069 20.99 16.4853 20.99C17.3648 20.99 18.1743 20.73 18.8739 20.29L21.2823 22.7C21.4822 22.9 21.7321 22.99 21.9919 22.99C22.2517 22.99 22.5016 22.89 22.7015 22.7C23.0912 22.31 23.0912 21.68 22.7015 21.29H22.6915ZM13.9869 16.5C13.9869 15.12 15.1062 14 16.4853 14C17.8645 14 18.9838 15.12 18.9838 16.5C18.9838 17.88 17.8645 19 16.4853 19C15.1062 19 13.9869 17.88 13.9869 16.5Z" fill="currentColor"/>
</svg>
