<svg viewBox="0 0 24 24" fill="none" xmlns="http://www.w3.org/2000/svg">
<path d="M15 3H18C18.55 3 19 3.45 19 4V8C19 8.55 19.45 9 20 9C20.55 9 21 8.55 21 8V4C21 2.35 19.65 1 18 1H6C4.35 1 3 2.35 3 4V20C3 21.65 4.35 23 6 23H8C8.55 23 9 22.55 9 22C9 21.45 8.55 21 8 21H6C5.45 21 5 20.55 5 20V4C5 3.45 5.45 3 6 3H9C9 3.55 9.45 4 10 4H14C14.55 4 15 3.55 15 3Z" fill="currentColor"/>
<path d="M22.71 14.41L19.55 11.25C19.17 10.87 18.51 10.87 18.14 11.25L11.85 17.54C11.7 17.69 11.6 17.88 11.57 18.09L10.98 21.84C10.93 22.16 11.03 22.48 11.26 22.7C11.45 22.89 11.7 22.99 11.97 22.99C12.02 22.99 12.07 22.99 12.13 22.98L15.88 22.39C16.09 22.36 16.28 22.26 16.43 22.11L22.71 15.83C23.1 15.44 23.1 14.81 22.71 14.42V14.41ZM18.84 13.37L20.59 15.12L19.76 15.95L18.01 14.2L18.84 13.37ZM15.23 20.47L13.16 20.8L13.49 18.73L16.6 15.62L18.35 17.37L15.24 20.48L15.23 20.47Z" fill="currentColor"/>
</svg>
