<svg viewBox="0 0 24 24" fill="none" xmlns="http://www.w3.org/2000/svg">
<path d="M9 13.139C6.86 13.139 4.85 13.9686 3.34 15.4778C1.83 16.9871 1 18.9961 1 21.125C1 21.6747 1.45 22.1245 2 22.1245C2.55 22.1245 3 21.6747 3 21.125C3 19.5258 3.62 18.0166 4.76 16.8871C5.89 15.7577 7.4 15.128 9 15.128C10.6 15.128 12.11 15.7477 13.24 16.8871C14.37 18.0166 15 19.5258 15 21.125C15 21.6747 15.45 22.1245 16 22.1245C16.55 22.1245 17 21.6747 17 21.125C17 18.9861 16.17 16.9871 14.66 15.4778C13.15 13.9686 11.14 13.139 9 13.139Z" fill="currentColor"/>
<path d="M9 12.1395C11.21 12.1395 13 10.3504 13 8.1415C13 5.93261 11.21 4.1435 9 4.1435C6.79 4.1435 5 5.93261 5 8.1415C5 10.3504 6.79 12.1395 9 12.1395ZM9 6.1425C10.1 6.1425 11 7.04205 11 8.1415C11 9.24095 10.1 10.1405 9 10.1405C7.9 10.1405 7 9.24095 7 8.1415C7 7.04205 7.9 6.1425 9 6.1425Z" fill="currentColor"/>
<path d="M21.24 11.8996C20.11 10.7702 18.6 10.1405 17 10.1405C16.17 10.1405 15.36 10.3104 14.6 10.6403C14.09 10.8601 13.86 11.4498 14.08 11.9596C14.3 12.4693 14.89 12.6992 15.4 12.4793C16.89 11.8297 18.68 12.1695 19.83 13.3189C20.59 14.0685 21 15.078 21 16.1475C21 16.6972 21.45 17.147 22 17.147C22.55 17.147 23 16.6972 23 16.1475C23 14.5483 22.38 13.0391 21.24 11.9096V11.8996Z" fill="currentColor"/>
<path d="M17 9.141C18.93 9.141 20.51 7.57179 20.51 5.63276C20.51 3.69373 18.94 2.12451 17 2.12451C15.06 2.12451 13.49 3.69373 13.49 5.63276C13.49 7.57179 15.06 9.141 17 9.141ZM17 4.13351C17.83 4.13351 18.51 4.81317 18.51 5.64275C18.51 6.47234 17.83 7.152 17 7.152C16.17 7.152 15.49 6.47234 15.49 5.64275C15.49 4.81317 16.17 4.13351 17 4.13351Z" fill="currentColor"/>
</svg>
