<svg viewBox="0 0 24 24" fill="none" xmlns="http://www.w3.org/2000/svg">
<path d="M21.7406 15.74L16.6029 10.6C16.7229 10.04 16.7928 9.47 16.7928 8.9C16.7928 4.54 13.2544 1 8.89641 1C7.77692 1 6.67742 1.24 5.64789 1.7C5.34802 1.83 5.13812 2.11 5.07815 2.43C5.01817 2.75 5.11813 3.08 5.35802 3.32L9.16629 7.13L7.12721 9.17L3.31895 5.36C3.08905 5.13 2.7592 5.02 2.42935 5.08C2.1095 5.14 1.82962 5.35 1.69968 5.65C1.2299 6.68 1 7.77 1 8.9C1 13.26 4.53839 16.8 8.89641 16.8C9.46615 16.8 10.0359 16.74 10.5956 16.61L15.7333 21.75C16.5329 22.55 17.6025 23 18.7419 23C19.8814 23 20.9409 22.56 21.7506 21.75C22.5502 20.95 23 19.88 23 18.74C23 17.6 22.5602 16.54 21.7506 15.73L21.7406 15.74ZM20.3312 20.34C19.4816 21.19 18.0023 21.19 17.1427 20.34L11.6052 14.8C11.4153 14.61 11.1554 14.51 10.8955 14.51C10.7955 14.51 10.7056 14.52 10.6056 14.55C10.0459 14.72 9.47615 14.8 8.89641 14.8C5.64789 14.8 2.99909 12.15 2.99909 8.9C2.99909 8.58 3.02908 8.26 3.07905 7.94L6.41754 11.28C6.80736 11.67 7.43707 11.67 7.8269 11.28L11.2753 7.83C11.6652 7.44 11.6652 6.81 11.2753 6.42L7.93685 3.08C8.24671 3.03 8.56656 3 8.89641 3C12.1449 3 14.7937 5.65 14.7937 8.9C14.7937 9.48 14.7038 10.05 14.5438 10.61C14.4339 10.96 14.5338 11.35 14.7937 11.61L20.3312 17.15C20.761 17.58 20.9909 18.14 20.9909 18.74C20.9909 19.34 20.761 19.91 20.3312 20.33V20.34Z" fill="currentColor"/>
</svg>
