<svg viewBox="0 0 24 24" fill="none" xmlns="http://www.w3.org/2000/svg">
<path d="M21.8354 1.94029C20.3854 0.61029 18.1154 0.70029 16.7854 2.15029L9.11542 10.4703C8.69542 10.9203 8.42542 11.4703 8.29542 12.0503C8.03542 12.0103 7.77542 11.9903 7.50542 11.9903C6.03542 11.9903 4.65542 12.5603 3.61542 13.6003C2.57542 14.6403 2.00542 16.0203 2.00542 17.4903C2.00542 20.3603 1.29542 21.2903 1.29542 21.2903C1.00542 21.5803 0.925421 22.0103 1.07542 22.3803C1.22542 22.7503 1.59542 23.0003 1.99542 23.0003H7.50542C10.5454 23.0003 13.0154 20.5303 13.0154 17.5003C13.0154 17.0803 12.9654 16.6703 12.8754 16.2803C13.4454 16.0903 13.9654 15.7803 14.3854 15.3303L22.0554 7.00029C22.7054 6.30029 23.0354 5.39029 22.9954 4.43029C22.9554 3.47029 22.5454 2.60029 21.8454 1.95029L21.8354 1.94029ZM7.49542 21.0003H3.55542C3.79542 20.2003 3.98542 19.0603 3.98542 17.5003C3.98542 16.5603 4.34542 15.6803 5.01542 15.0203C5.67542 14.3603 6.55542 13.9903 7.49542 13.9903C7.97542 13.9903 8.42542 14.0903 8.83542 14.2603C8.93542 14.3003 9.02542 14.3603 9.12542 14.4103C9.21542 14.4603 9.30542 14.5003 9.38542 14.5503C9.53542 14.6503 9.66542 14.7603 9.79542 14.8703C9.81542 14.8903 9.83542 14.9003 9.85542 14.9203C10.1554 15.2003 10.4054 15.5303 10.5954 15.9003C10.5954 15.9003 10.6054 15.9203 10.6154 15.9303C10.8554 16.4003 10.9954 16.9303 10.9954 17.4903C10.9954 19.4203 9.42542 20.9903 7.48542 20.9903L7.49542 21.0003ZM12.0654 14.4303C11.7054 13.8903 11.2454 13.4303 10.7254 13.0503C10.7254 13.0503 10.7254 13.0503 10.7154 13.0503C10.5454 12.9303 10.3754 12.8203 10.2054 12.7203C10.2054 12.7203 10.1954 12.7203 10.1854 12.7103C10.2254 12.3903 10.3554 12.0903 10.5854 11.8403L11.3154 11.0503C11.3854 11.1003 11.4554 11.1403 11.5254 11.1803C11.5954 11.2303 11.6654 11.2803 11.7354 11.3403C12.0054 11.5403 12.2654 11.7503 12.5054 11.9803C12.5154 11.9903 12.5254 12.0003 12.5354 12.0103C12.7954 12.2503 13.0254 12.5103 13.2554 12.7703C13.3154 12.8403 13.3754 12.9103 13.4254 12.9803C13.4854 13.0503 13.5354 13.1303 13.5854 13.2003L12.8754 13.9703C12.6554 14.2103 12.3654 14.3703 12.0454 14.4403L12.0654 14.4303ZM20.5654 5.64029L14.9954 11.6903C14.9954 11.6903 14.9654 11.6603 14.9454 11.6403C14.6454 11.2803 14.3254 10.9303 13.9854 10.6103C13.9554 10.5903 13.9354 10.5603 13.9154 10.5303C13.5454 10.1903 13.1554 9.87029 12.7554 9.58029C12.7354 9.57029 12.7254 9.55029 12.7054 9.54029L18.2654 3.51029C18.8554 2.87029 19.8554 2.83029 20.4954 3.42029C20.8054 3.70029 20.9854 4.09029 21.0054 4.51029C21.0254 4.93029 20.8754 5.33029 20.5854 5.64029H20.5654Z" fill="currentColor"/>
</svg>
