<svg viewBox="0 0 24 24" fill="none" xmlns="http://www.w3.org/2000/svg">
<path d="M21.9997 1H6.84526C4.38454 1 2.31393 2.7616 1.91382 5.1838L1.05357 10.3485C0.86351 11.5096 1.1836 12.6906 1.94383 13.5914C2.70405 14.4923 3.81437 15.0027 4.99472 15.0027H8.60578L8.09563 16.5341C7.3254 18.8362 8.24567 21.3185 10.3263 22.5696C10.8064 22.8599 11.3366 23 11.8767 23C12.2268 23 12.5869 22.9399 12.927 22.8098C13.7873 22.4895 14.4475 21.8089 14.7376 20.9381L16.7182 14.9927H21.9997C22.5499 14.9927 23 14.5423 23 13.9918V2.00091C23 1.45041 22.5499 1 21.9997 1ZM15.9979 13.0109C15.5678 13.0109 15.1877 13.2912 15.0477 13.6915L12.837 20.3176C12.737 20.6078 12.5169 20.838 12.2268 20.9481C11.9368 21.0582 11.6167 21.0282 11.3566 20.8681C10.0862 20.1074 9.52605 18.586 9.99619 17.1747L10.9465 14.3221C11.0465 14.0218 10.9965 13.6815 10.8064 13.4213C10.6164 13.1611 10.3163 13.0009 9.99619 13.0009H4.99472C4.40455 13.0009 3.84438 12.7407 3.46427 12.2903C3.08416 11.8399 2.92411 11.2493 3.01414 10.6688L3.87439 5.49409C4.11446 4.04277 5.36483 2.9818 6.83526 2.9818H16.9882V12.9909H15.9879L15.9979 13.0109ZM20.9994 13.0109H18.9988V3.00182H20.9994V13.0109Z" fill="currentColor"/>
</svg>
