<svg viewBox="0 0 24 24" fill="none" xmlns="http://www.w3.org/2000/svg">
<path d="M22.0002 1H20.0006C19.4485 1 19.0008 1.44783 19.0008 2.00025V14.0033C19.0008 14.5557 19.4485 15.0035 20.0006 15.0035H22.0002C22.5524 15.0035 23 14.5557 23 14.0033V2.00025C23 1.44783 22.5524 1 22.0002 1Z" fill="currentColor"/>
<path d="M3.05423 14.5034C3.66411 14.8535 4.36396 15.0035 5.06381 15.0035H9.00297C9.00297 15.0035 9.04296 15.0035 9.06296 15.0035H10.0128L9.28291 17.1941C8.58306 19.3046 9.47287 21.6152 11.4225 22.7055C12.6822 23.4157 14.1419 22.7855 14.5918 21.4152L16.7613 14.7535C16.9213 14.2534 17.0113 13.7332 17.0113 13.2131C17.0113 10.6724 17.0113 3.00051 17.0113 3.00051C17.0113 1.90023 16.1115 1 15.0117 1H6.85343C4.40395 1 2.32439 2.77045 1.92447 5.18106L1.05466 10.3424C0.784717 11.9628 1.52456 13.6232 3.05423 14.5034Z" fill="currentColor"/>
</svg>
