<svg viewBox="0 0 24 24" fill="none" xmlns="http://www.w3.org/2000/svg">
<path d="M22.0562 10.3995C21.2959 9.49947 20.1856 8.98945 19.0053 8.98945H15.3942L15.9044 7.45939C16.6746 5.1593 15.7543 2.6792 13.6737 1.42916C12.8835 0.959138 11.9432 0.869134 11.073 1.18915C10.2127 1.50916 9.55251 2.18919 9.26242 3.05922L7.28184 8.99945H2.00029C1.45013 8.99945 1 9.44947 1 9.99949V22C1 22.55 1.45013 23 2.00029 23H17.1547C19.6055 23 21.6861 21.2399 22.0862 18.8198L22.9464 13.6596C23.1365 12.4996 22.8164 11.3195 22.0562 10.4195V10.3995ZM3.00059 10.9895H5.00117V20.9899H3.00059V10.9895ZM20.9759 13.3196L20.1156 18.4898C19.8755 19.9399 18.6252 20.9999 17.1547 20.9999H7.00176V10.9995H8.00205C8.43218 10.9995 8.81229 10.7195 8.95233 10.3195L11.163 3.69924C11.263 3.40923 11.4831 3.17922 11.7732 3.06922C12.0632 2.95922 12.3833 2.98922 12.6434 3.14922C13.9138 3.90925 14.474 5.42931 14.0038 6.83937L13.0535 9.68948C12.9535 9.98949 13.0035 10.3295 13.1936 10.5895C13.3836 10.8495 13.6837 11.0095 14.0038 11.0095H19.0053C19.5955 11.0095 20.1556 11.2695 20.5357 11.7196C20.9158 12.1696 21.0759 12.7596 20.9859 13.3396L20.9759 13.3196Z" fill="currentColor"/>
</svg>
