<svg viewBox="0 0 24 24" fill="none" xmlns="http://www.w3.org/2000/svg">
<path d="M4.00209 8.99646H2.0007C1.44803 8.99646 1 9.44428 1 9.99671V21.9997C1 22.5522 1.44803 23 2.0007 23H4.00209C4.55476 23 5.00279 22.5522 5.00279 21.9997V9.99671C5.00279 9.44428 4.55476 8.99646 4.00209 8.99646Z" fill="currentColor"/>
<path d="M20.9639 9.49658C20.3535 9.14649 19.653 8.99646 18.9525 8.99646H15.0098C15.0098 8.99646 14.9697 8.99646 14.9497 8.99646H13.9991L14.7296 6.8059C15.4301 4.69537 14.5394 2.38478 12.5881 1.29451C11.3272 0.584326 9.86618 1.21449 9.41586 2.58483L7.24435 9.24652C7.08424 9.74665 6.99418 10.2668 6.99418 10.7869C6.99418 13.3276 6.99418 20.9995 6.99418 20.9995C6.99418 22.0998 7.8948 23 8.99557 23H17.1513C19.593 23 21.6844 21.2296 22.0847 18.8189L22.9453 13.6476C23.2155 12.0272 22.475 10.3668 20.9439 9.48658L20.9639 9.49658Z" fill="currentColor"/>
</svg>
