<svg viewBox="0 0 24 24" fill="none" xmlns="http://www.w3.org/2000/svg">
<path d="M19.0004 8.99H16.6204L19.9004 2.44C20.0604 2.13 20.0404 1.76 19.8604 1.47C19.6804 1.18 19.3604 1 19.0104 1H9.00038C8.57038 1 8.19038 1.28 8.05038 1.68L4.05038 13.67C3.95038 13.98 4.00038 14.31 4.19038 14.57C4.38038 14.83 4.68038 14.99 5.00038 14.99H7.96038L7.01038 21.85C6.95038 22.28 7.18038 22.71 7.57038 22.89C7.71038 22.95 7.85038 22.99 8.00038 22.99C8.27038 22.99 8.54038 22.88 8.74038 22.67L19.7404 10.67C20.0104 10.38 20.0804 9.95 19.9204 9.59C19.7604 9.23 19.4004 8.99 19.0004 8.99ZM9.43038 18.95L10.1004 14.13C10.1404 13.84 10.0504 13.55 9.86038 13.34C9.67038 13.12 9.40038 13 9.11038 13H6.39038L9.72038 2.99H17.3804L14.1004 9.54C13.9404 9.85 13.9604 10.22 14.1404 10.51C14.3204 10.8 14.6404 10.98 14.9904 10.98H16.7204L9.42038 18.94L9.43038 18.95Z" fill="currentColor"/>
</svg>
