<svg viewBox="0 0 24 24" fill="none" xmlns="http://www.w3.org/2000/svg">
<path d="M14.27 10.85L11.01 14.61L9.62 13.45C9.19 13.1 8.56 13.16 8.21 13.58C7.86 14 7.91 14.64 8.34 14.99L10.49 16.78C10.68 16.94 10.9 17.01 11.13 17.01C11.41 17.01 11.69 16.89 11.89 16.66L15.79 12.16C16.15 11.74 16.11 11.11 15.69 10.75C15.27 10.39 14.64 10.43 14.28 10.85H14.27Z" fill="currentColor"/>
<path d="M18 2.5H17.32C16.91 1.34 15.81 0.5 14.5 0.5H9.5C8.2 0.5 7.1 1.34 6.68 2.5H6C4.35 2.5 3 3.85 3 5.5V20.5C3 22.15 4.35 23.5 6 23.5H18C19.65 23.5 21 22.15 21 20.5V5.5C21 3.85 19.65 2.5 18 2.5ZM9.5 2.5H14.5C15.05 2.5 15.5 2.95 15.5 3.5C15.5 4.05 15.05 4.5 14.5 4.5H9.5C8.95 4.5 8.5 4.05 8.5 3.5C8.5 2.95 8.95 2.5 9.5 2.5ZM19 20.5C19 21.05 18.55 21.5 18 21.5H6C5.45 21.5 5 21.05 5 20.5V5.5C5 4.95 5.45 4.5 6 4.5H6.68C7.09 5.66 8.19 6.5 9.5 6.5H14.5C15.8 6.5 16.9 5.66 17.32 4.5H18C18.55 4.5 19 4.95 19 5.5V20.5Z" fill="currentColor"/>
</svg>
