<svg viewBox="0 0 24 24" fill="none" xmlns="http://www.w3.org/2000/svg">
<path d="M22.57 11.51L19.86 6.99C19.68 6.69 19.35 6.5 19 6.5H17V5.5C17 3.85 15.65 2.5 14 2.5H4C2.35 2.5 1 3.85 1 5.5V15.5C1 17.15 2.35 18.5 4 18.5C4 20.15 5.35 21.5 7 21.5C8.65 21.5 10 20.15 10 18.5H15C15 20.15 16.35 21.5 18 21.5C19.65 21.5 21 20.15 21 18.5C21 18.44 20.99 18.38 20.98 18.32C22.15 17.91 23 16.81 23 15.5V13.05C23 12.51 22.85 11.97 22.57 11.51ZM3 5.5C3 4.95 3.45 4.5 4 4.5H14C14.55 4.5 15 4.95 15 5.5V10.5H3V5.5ZM7 19.5C6.45 19.5 6 19.05 6 18.5C6 17.95 6.45 17.5 7 17.5C7.55 17.5 8 17.95 8 18.5C8 19.05 7.55 19.5 7 19.5ZM9.22 16.5C8.67 15.89 7.88 15.5 7 15.5C6.12 15.5 5.33 15.89 4.78 16.5H4C3.45 16.5 3 16.05 3 15.5V12.5H15V16.5H9.22ZM18 19.5C17.45 19.5 17 19.05 17 18.5C17 17.95 17.45 17.5 18 17.5C18.55 17.5 19 17.95 19 18.5C19 19.05 18.55 19.5 18 19.5ZM21 15.5C21 15.98 20.65 16.37 20.19 16.46C19.64 15.87 18.87 15.5 18 15.5C17.65 15.5 17.31 15.57 17 15.68V8.5H18.43L20.85 12.54C20.94 12.7 20.99 12.87 20.99 13.06V15.51L21 15.5Z" fill="currentColor"/>
</svg>
