<svg viewBox="0 0 24 24" fill="none" xmlns="http://www.w3.org/2000/svg">
<path d="M8.71 6.715L11 4.425V16.015C11 16.565 11.45 17.015 12 17.015C12.55 17.015 13 16.565 13 16.015V4.415L15.29 6.705C15.49 6.905 15.74 6.995 16 6.995C16.26 6.995 16.51 6.895 16.71 6.705C17.1 6.315 17.1 5.685 16.71 5.295L12.71 1.295C12.62 1.205 12.51 1.125 12.38 1.075C12.14 0.975 11.86 0.975 11.62 1.075C11.5 1.125 11.39 1.195 11.29 1.295L7.29 5.295C6.9 5.685 6.9 6.315 7.29 6.705C7.68 7.095 8.31 7.095 8.7 6.705L8.71 6.715Z" fill="currentColor"/>
<path d="M22 14.005C21.45 14.005 21 14.455 21 15.005V20.005C21 20.555 20.55 21.005 20 21.005H4C3.45 21.005 3 20.555 3 20.005V15.005C3 14.455 2.55 14.005 2 14.005C1.45 14.005 1 14.455 1 15.005V20.005C1 21.655 2.35 23.005 4 23.005H20C21.65 23.005 23 21.655 23 20.005V15.005C23 14.455 22.55 14.005 22 14.005Z" fill="currentColor"/>
</svg>
