<svg viewBox="0 0 24 24" fill="none" xmlns="http://www.w3.org/2000/svg">
<path d="M15.777 15.1133C16.1168 14.6835 16.0468 14.0539 15.6071 13.714C14.2078 12.6147 12.4488 12.005 10.6598 12.005C8.52099 12.005 6.51211 12.8345 5.00295 14.3437C3.49378 15.8529 2.66425 17.8617 2.66425 20.0006C2.66425 20.5502 3.114 21 3.66369 21C4.21338 21 4.66314 20.5502 4.66314 20.0006C4.66314 18.4014 5.28279 16.8923 6.42216 15.7629C7.56152 14.6335 9.06069 14.0039 10.6598 14.0039C11.9991 14.0039 13.3183 14.4636 14.3677 15.2832C14.8075 15.623 15.4272 15.553 15.767 15.1133H15.777Z" fill="currentColor"/>
<path d="M15.1673 7.4975C15.1673 5.01888 13.1484 3 10.6698 3C8.19117 3 6.1723 5.01888 6.1723 7.4975C6.1723 9.97612 8.19117 11.995 10.6698 11.995C13.1484 11.995 15.1673 9.97612 15.1673 7.4975ZM10.6698 9.99611C9.29056 9.99611 8.17119 8.87673 8.17119 7.4975C8.17119 6.11827 9.29056 4.99889 10.6698 4.99889C12.049 4.99889 13.1684 6.11827 13.1684 7.4975C13.1684 8.87673 12.049 9.99611 10.6698 9.99611Z" fill="currentColor"/>
<path d="M19.6648 16.9922H18.6654V15.9928C18.6654 15.4431 18.2156 14.9933 17.6659 14.9933C17.1162 14.9933 16.6665 15.4431 16.6665 15.9928V16.9922H15.667C15.1173 16.9922 14.6676 17.442 14.6676 17.9917C14.6676 18.5414 15.1173 18.9911 15.667 18.9911H16.6665V19.9906C16.6665 20.5403 17.1162 20.99 17.6659 20.99C18.2156 20.99 18.6654 20.5403 18.6654 19.9906V18.9911H19.6648C20.2145 18.9911 20.6642 18.5414 20.6642 17.9917C20.6642 17.442 20.2145 16.9922 19.6648 16.9922Z" fill="currentColor"/>
</svg>
