<svg viewBox="0 0 24 24" fill="none" xmlns="http://www.w3.org/2000/svg">
<path d="M13 1C6.93 1 2 5.93 2 12C2 15.27 3.44 18.2 5.72 20.22C5.75 20.26 5.79 20.29 5.83 20.32C7.76 21.99 10.26 23 13 23C19.07 23 24 18.07 24 12C24 5.93 19.07 1 13 1ZM7.68 19.24C7.96 18.69 8.32 18.2 8.76 17.76C9.89 16.63 11.4 16 13 16C14.6 16 16.11 16.62 17.24 17.76C17.68 18.2 18.04 18.7 18.32 19.24C16.83 20.34 14.99 21 13 21C11.01 21 9.17 20.34 7.68 19.24ZM13 13C11.62 13 10.5 11.88 10.5 10.5C10.5 9.12 11.62 8 13 8C14.38 8 15.5 9.12 15.5 10.5C15.5 11.88 14.38 13 13 13ZM19.83 17.85C19.5 17.31 19.11 16.8 18.66 16.35C17.71 15.4 16.57 14.72 15.32 14.35C16.62 13.56 17.51 12.14 17.51 10.51C17.51 8.03 15.49 6.01 13.01 6.01C10.53 6.01 8.51 8.03 8.51 10.51C8.51 12.14 9.39 13.56 10.7 14.35C9.45 14.73 8.31 15.41 7.36 16.35C6.9 16.81 6.52 17.31 6.19 17.85C4.84 16.28 4.02 14.24 4.02 12C4 7.04 8.04 3 13 3C17.96 3 22 7.04 22 12C22 14.23 21.18 16.27 19.83 17.85Z" fill="currentColor"/>
</svg>
