<svg viewBox="0 0 24 24" fill="none" xmlns="http://www.w3.org/2000/svg">
<path d="M20.86 15.6C19.95 15.22 18.91 15.64 18.5 16.52C18.09 15.63 17.05 15.22 16.14 15.6C15.2 15.99 14.76 17.06 15.15 18C15.85 19.7 18.5 21 18.5 21C18.5 21 21.16 19.7 21.86 18C22.25 17.06 21.8 15.99 20.87 15.6H20.86Z" fill="currentColor"/>
<path d="M15.54 13.89C15.75 13.38 15.5 12.8 14.99 12.59C14.03 12.2 13.02 12.01 11.99 12.01C9.85 12.01 7.85 12.84 6.34 14.35C4.83 15.86 4 17.87 4 20.01C4 20.56 4.45 21.01 5 21.01C5.55 21.01 6 20.56 6 20.01C6 18.41 6.62 16.9 7.76 15.77C9.44 14.09 12.04 13.56 14.25 14.45C14.76 14.66 15.35 14.41 15.55 13.9L15.54 13.89Z" fill="currentColor"/>
<path d="M11.99 12C14.47 12 16.49 9.98 16.49 7.5C16.49 5.02 14.47 3 11.99 3C9.51 3 7.49 5.02 7.49 7.5C7.49 9.98 9.51 12 11.99 12ZM11.99 5C13.37 5 14.49 6.12 14.49 7.5C14.49 8.88 13.37 10 11.99 10C10.61 10 9.49 8.88 9.49 7.5C9.49 6.12 10.61 5 11.99 5Z" fill="currentColor"/>
</svg>
