<svg viewBox="0 0 24 24" fill="none" xmlns="http://www.w3.org/2000/svg">
<path d="M17.1041 15.1133C17.4439 14.6835 17.374 14.0539 16.9342 13.714C15.535 12.6147 13.776 12.005 11.987 12.005C9.84814 12.005 7.83926 12.8345 6.33009 14.3437C4.82093 15.8529 3.99139 17.8617 3.99139 20.0006C3.99139 20.5502 4.44114 21 4.99084 21C5.54053 21 5.99028 20.5502 5.99028 20.0006C5.99028 18.4014 6.60994 16.8923 7.74931 15.7629C8.88867 14.6335 10.3878 14.0039 11.987 14.0039C13.3262 14.0039 14.6455 14.4636 15.6949 15.2832C16.1247 15.623 16.7543 15.553 17.0941 15.1133H17.1041Z" fill="currentColor"/>
<path d="M11.9969 11.995C14.4756 11.995 16.4944 9.97612 16.4944 7.4975C16.4944 5.01888 14.4756 3 11.9969 3C9.51832 3 7.49944 5.01888 7.49944 7.4975C7.49944 9.97612 9.51832 11.995 11.9969 11.995ZM11.9969 4.99889C13.3762 4.99889 14.4956 6.11827 14.4956 7.4975C14.4956 8.87673 13.3762 9.99611 11.9969 9.99611C10.6177 9.99611 9.49833 8.87673 9.49833 7.4975C9.49833 6.11827 10.6177 4.99889 11.9969 4.99889Z" fill="currentColor"/>
<path d="M20.9919 16.9922H16.9942C16.4445 16.9922 15.9947 17.442 15.9947 17.9917C15.9947 18.5414 16.4445 18.9911 16.9942 18.9911H20.9919C21.5416 18.9911 21.9914 18.5414 21.9914 17.9917C21.9914 17.442 21.5416 16.9922 20.9919 16.9922Z" fill="currentColor"/>
</svg>
