<svg viewBox="0 0 24 24" fill="none" xmlns="http://www.w3.org/2000/svg">
<path d="M22.24 17.76C21.53 17.06 20.68 16.55 19.76 16.26C20.8 15.65 21.5 14.54 21.5 13.25C21.5 11.32 19.93 9.75 18 9.75C16.07 9.75 14.5 11.32 14.5 13.25C14.5 14.54 15.21 15.65 16.24 16.26C15.31 16.54 14.46 17.05 13.76 17.76C13.47 18.05 13.22 18.36 13 18.68C12.78 18.35 12.53 18.04 12.24 17.76C11.53 17.05 10.68 16.55 9.76 16.26C10.8 15.65 11.5 14.54 11.5 13.25C11.5 11.32 9.93 9.75 8 9.75C6.07 9.75 4.5 11.32 4.5 13.25C4.5 14.54 5.21 15.65 6.24 16.26C5.31 16.54 4.46 17.05 3.76 17.76C2.63 18.89 2 20.4 2 22C2 22.55 2.45 23 3 23C3.55 23 4 22.55 4 22C4 20.93 4.42 19.93 5.17 19.17C6.68 17.66 9.31 17.66 10.83 19.17C11.59 19.92 12 20.93 12 22C12 22.55 12.45 23 13 23C13.55 23 14 22.55 14 22C14 20.93 14.42 19.93 15.17 19.17C16.68 17.66 19.32 17.66 20.83 19.17C21.58 19.93 22 20.93 22 22C22 22.55 22.45 23 23 23C23.55 23 24 22.55 24 22C24 20.4 23.38 18.89 22.24 17.76ZM8 11.75C8.83 11.75 9.5 12.42 9.5 13.25C9.5 14.08 8.83 14.75 8 14.75C7.17 14.75 6.5 14.08 6.5 13.25C6.5 12.42 7.17 11.75 8 11.75ZM18 11.75C18.83 11.75 19.5 12.42 19.5 13.25C19.5 14.08 18.83 14.75 18 14.75C17.17 14.75 16.5 14.08 16.5 13.25C16.5 12.42 17.17 11.75 18 11.75Z" fill="currentColor"/>
<path d="M10 6H12V8C12 8.55 12.45 9 13 9C13.55 9 14 8.55 14 8V6H16C16.55 6 17 5.55 17 5C17 4.45 16.55 4 16 4H14V2C14 1.45 13.55 1 13 1C12.45 1 12 1.45 12 2V4H10C9.45 4 9 4.45 9 5C9 5.55 9.45 6 10 6Z" fill="currentColor"/>
</svg>
