<svg viewBox="0 0 24 24" fill="none" xmlns="http://www.w3.org/2000/svg">
<path d="M9.88655 13.6245C10.6766 13.2045 11.2166 12.3845 11.2166 11.4245C11.2166 10.0445 10.0966 8.92452 8.71655 8.92452C7.33655 8.92452 6.21655 10.0445 6.21655 11.4245C6.21655 12.3745 6.75655 13.1945 7.54655 13.6245C6.92655 13.8145 6.35655 14.1345 5.88655 14.6045C5.12655 15.3645 4.71655 16.3645 4.71655 17.4345C4.71655 17.9845 5.16655 18.4345 5.71655 18.4345C6.26655 18.4345 6.71655 17.9845 6.71655 17.4345C6.71655 16.8845 6.92655 16.3945 7.30655 16.0245C8.06655 15.2645 9.37655 15.2645 10.1366 16.0245C10.5066 16.3945 10.7266 16.9145 10.7266 17.4345C10.7266 17.9845 11.1766 18.4345 11.7266 18.4345C12.2766 18.4345 12.7266 17.9845 12.7266 17.4345C12.7266 16.3645 12.3066 15.3645 11.5566 14.6045C11.0866 14.1345 10.5166 13.8145 9.89655 13.6245H9.88655ZM8.71655 10.9245C8.99655 10.9245 9.21655 11.1445 9.21655 11.4245C9.21655 11.7045 8.99655 11.9245 8.71655 11.9245C8.43655 11.9245 8.21655 11.7045 8.21655 11.4245C8.21655 11.1445 8.43655 10.9245 8.71655 10.9245Z" fill="currentColor"/>
<path d="M20.2166 5.13452H14.2166V4.13452C14.2166 3.03452 13.3166 2.13452 12.2166 2.13452C11.1166 2.13452 10.2166 3.03452 10.2166 4.13452V5.13452H4.21655C2.56655 5.13452 1.21655 6.48452 1.21655 8.13452V19.1345C1.21655 20.7845 2.56655 22.1345 4.21655 22.1345H20.2166C21.8666 22.1345 23.2166 20.7845 23.2166 19.1345V8.13452C23.2166 6.48452 21.8666 5.13452 20.2166 5.13452ZM21.2166 19.1345C21.2166 19.6845 20.7666 20.1345 20.2166 20.1345H4.21655C3.66655 20.1345 3.21655 19.6845 3.21655 19.1345V8.13452C3.21655 7.58452 3.66655 7.13452 4.21655 7.13452H20.2166C20.7666 7.13452 21.2166 7.58452 21.2166 8.13452V19.1345Z" fill="currentColor"/>
<path d="M18.2166 10.1345H14.2166C13.6666 10.1345 13.2166 10.5845 13.2166 11.1345C13.2166 11.6845 13.6666 12.1345 14.2166 12.1345H18.2166C18.7666 12.1345 19.2166 11.6845 19.2166 11.1345C19.2166 10.5845 18.7666 10.1345 18.2166 10.1345Z" fill="currentColor"/>
<path d="M18.2166 13.1345H16.2166C15.6666 13.1345 15.2166 13.5845 15.2166 14.1345C15.2166 14.6845 15.6666 15.1345 16.2166 15.1345H18.2166C18.7666 15.1345 19.2166 14.6845 19.2166 14.1345C19.2166 13.5845 18.7666 13.1345 18.2166 13.1345Z" fill="currentColor"/>
</svg>
