<svg viewBox="0 0 24 24" fill="none" xmlns="http://www.w3.org/2000/svg">
<path d="M17.66 14.34C16.15 12.83 14.14 12 12 12C9.86 12 7.85 12.83 6.34 14.34C4.83 15.85 4 17.86 4 20C4 20.55 4.45 21 5 21C5.55 21 6 20.55 6 20C6 18.4 6.62 16.89 7.76 15.76C8.9 14.63 10.4 14 12 14C13.6 14 15.11 14.62 16.24 15.76C17.37 16.9 18 18.4 18 20C18 20.55 18.45 21 19 21C19.55 21 20 20.55 20 20C20 17.86 19.17 15.85 17.66 14.34Z" fill="currentColor"/>
<path d="M12 12C14.48 12 16.5 9.98 16.5 7.5C16.5 5.02 14.48 3 12 3C9.52 3 7.5 5.02 7.5 7.5C7.5 9.98 9.52 12 12 12ZM12 5C13.38 5 14.5 6.12 14.5 7.5C14.5 8.88 13.38 10 12 10C10.62 10 9.5 8.88 9.5 7.5C9.5 6.12 10.62 5 12 5Z" fill="currentColor"/>
</svg>
