<svg viewBox="0 0 24 24" fill="none" xmlns="http://www.w3.org/2000/svg">
<path d="M21.6881 15.2832C21.2988 14.8934 20.6699 14.8934 20.2806 15.2832L16.9965 18.5713L15.7089 17.2821C15.3196 16.8923 14.6907 16.8923 14.3014 17.2821C13.9121 17.6718 13.9121 18.3015 14.3014 18.6913L16.2978 20.6902C16.4974 20.8901 16.747 20.98 17.0065 20.98C17.266 20.98 17.5156 20.8801 17.7152 20.6902L21.708 16.6924C22.0973 16.3026 22.0973 15.673 21.708 15.2832H21.6881Z" fill="currentColor"/>
<path d="M17.0964 15.1133C17.4357 14.6835 17.3659 14.0539 16.9267 13.714C15.5292 12.6147 13.7724 12.005 11.9856 12.005C9.84944 12.005 7.84306 12.8345 6.33578 14.3437C4.8285 15.8529 4 17.8617 4 20.0006C4 20.5502 4.44919 21 4.9982 21C5.54721 21 5.9964 20.5502 5.9964 20.0006C5.9964 18.4014 6.61528 16.8923 7.75322 15.7629C8.89117 14.6335 10.3885 14.0039 11.9856 14.0039C13.3232 14.0039 14.6408 14.4636 15.6889 15.2832C16.1181 15.623 16.747 15.553 17.0864 15.1133H17.0964Z" fill="currentColor"/>
<path d="M11.9956 11.995C14.4711 11.995 16.4875 9.97612 16.4875 7.4975C16.4875 5.01888 14.4711 3 11.9956 3C9.52003 3 7.50367 5.01888 7.50367 7.4975C7.50367 9.97612 9.52003 11.995 11.9956 11.995ZM11.9956 4.99889C13.3731 4.99889 14.4911 6.11827 14.4911 7.4975C14.4911 8.87673 13.3731 9.99611 11.9956 9.99611C10.6181 9.99611 9.50007 8.87673 9.50007 7.4975C9.50007 6.11827 10.6181 4.99889 11.9956 4.99889Z" fill="currentColor"/>
</svg>
