<svg viewBox="0 0 24 24" fill="none" xmlns="http://www.w3.org/2000/svg">
<path d="M22.83 7.65C22.83 7.65 22.83 7.63 22.82 7.61C22.74 7.38 22.63 7.16 22.5 6.95L19.43 2.34C18.87 1.5 17.94 1 16.93 1H7.07C6.06 1 5.13 1.5 4.57 2.34L1.5 6.96C1.36 7.17 1.26 7.39 1.18 7.62C1.18 7.63 1.18 7.64 1.17 7.65C1.06 7.96 1 8.29 1 8.62V20.01C1 21.66 2.35 23.01 4 23.01H20C21.65 23.01 23 21.66 23 20.01V8.63C23 8.3 22.94 7.97 22.83 7.66V7.65ZM17.76 3.47L20.13 7.02H13V3.02H16.93C17.26 3.02 17.58 3.19 17.76 3.47ZM6.24 3.47C6.43 3.19 6.74 3.02 7.07 3.02H11V7.02H3.87L6.24 3.47ZM20 21.02H4C3.45 21.02 3 20.57 3 20.02V9.02H11V13.02C11 13.57 11.45 14.02 12 14.02C12.55 14.02 13 13.57 13 13.02V9.02H21V20.02C21 20.57 20.55 21.02 20 21.02Z" fill="currentColor"/>
<path d="M8 18.02H5C4.45 18.02 4 18.47 4 19.02C4 19.57 4.45 20.02 5 20.02H8C8.55 20.02 9 19.57 9 19.02C9 18.47 8.55 18.02 8 18.02Z" fill="currentColor"/>
</svg>
