<svg viewBox="0 0 24 24" fill="none" xmlns="http://www.w3.org/2000/svg">
<path d="M21.9309 11.9938L22.811 10.1144C23.261 9.14472 22.881 7.99512 21.9509 7.47529L20.0107 6.39566L19.5507 4.31637C19.3307 3.31671 18.4106 2.63694 17.3805 2.7469L15.0503 2.96683L13.3201 1.48733C12.5601 0.837555 11.4499 0.837555 10.6899 1.48733L8.93972 2.97683L6.6295 2.7469C5.60941 2.64694 4.67932 3.31671 4.4593 4.31637L3.97926 6.40566L2.04908 7.4653C1.11899 7.97512 0.738957 9.13473 1.189 10.1044L2.06908 12.0037L1.189 13.8831C0.738957 14.8528 1.11899 16.0024 2.04908 16.5222L3.98926 17.6018L4.4493 19.6811C4.66932 20.6808 5.59941 21.3606 6.6195 21.2506L8.94972 21.0307L10.6799 22.5102C11.0599 22.8401 11.53 23 11.99 23C12.45 23 12.9201 22.8401 13.3001 22.5102L15.0503 21.0207L17.3605 21.2506C18.3806 21.3606 19.3107 20.6808 19.5307 19.6811L20.0107 17.5918L21.9409 16.5322C22.871 16.0224 23.251 14.8628 22.801 13.8931L21.9209 11.9938H21.9309ZM16.7704 9.64455L11.77 15.6425C11.59 15.8624 11.3299 15.9924 11.0499 16.0024C11.0399 16.0024 11.0199 16.0024 11.0099 16.0024C10.7499 16.0024 10.4899 15.9024 10.2998 15.7125L7.29957 12.7135C6.90953 12.3236 6.90953 11.6939 7.29957 11.304C7.6896 10.9141 8.31966 10.9141 8.7097 11.304L10.9399 13.5332L15.2403 8.37499C15.5903 7.95513 16.2204 7.89515 16.6504 8.24503C17.0705 8.59491 17.1305 9.2247 16.7804 9.65455L16.7704 9.64455Z" fill="currentColor"/>
</svg>
