<svg viewBox="0 0 24 24" fill="none" xmlns="http://www.w3.org/2000/svg">
<path d="M22.3294 13.9762L21.4601 12.0075L22.3294 10.0388C22.7391 9.10947 22.3894 8.02021 21.51 7.50057L19.6614 6.4213L19.2118 4.31274C19.0019 3.30343 18.0726 2.62389 17.0434 2.73382L14.925 2.95367L13.3462 1.52464C12.5767 0.825119 11.4276 0.825119 10.6582 1.52464L9.07937 2.95367L6.96096 2.73382C5.94173 2.62389 5.01243 3.30343 4.79259 4.30275L4.34293 6.41131L2.49432 7.49057C1.61498 8.00023 1.25525 9.09948 1.67493 10.0288L2.54428 11.9975L1.67493 13.9662C1.26524 14.8955 1.61498 15.9848 2.49432 16.5044L4.34293 17.5837L4.79259 19.6923C5.00244 20.7016 5.94173 21.3711 6.96096 21.2712L9.07937 21.0513L10.6582 22.4804C11.0379 22.8301 11.5175 23 11.9972 23C12.4768 23 12.9565 22.8301 13.3362 22.4804L14.915 21.0513L17.0334 21.2712C18.0526 21.3811 18.9819 20.7016 19.2018 19.7022L19.6514 17.5937L21.5 16.5144C22.3794 16.0048 22.7391 14.9055 22.3194 13.9762H22.3294ZM19.6314 12.8169L20.5008 14.7856L18.6522 15.8649C18.1626 16.1447 17.8128 16.6243 17.7029 17.184L17.2532 19.2925L15.1448 19.0727C14.5752 19.0127 14.0157 19.1926 13.596 19.5823L12.0172 21.0114L10.4384 19.5823C10.0686 19.2526 9.58899 19.0627 9.09936 19.0627C9.02941 19.0627 8.95946 19.0627 8.88952 19.0727L6.77111 19.2925L6.32144 17.184C6.20153 16.6343 5.86179 16.1547 5.37216 15.8749L3.52355 14.7956L4.39289 12.8269C4.62272 12.3173 4.62272 11.7277 4.39289 11.208L3.52355 9.23938L5.37216 8.16012C5.86179 7.88031 6.20153 7.40064 6.32144 6.84102L6.77111 4.73246L8.87952 4.95231C9.4491 5.01226 10.0087 4.83239 10.4284 4.44265L12.0072 3.01363L13.586 4.44265C14.0057 4.82239 14.5752 5.01226 15.1348 4.95231L17.2532 4.73246L17.7029 6.84102C17.8228 7.39064 18.1725 7.87032 18.6522 8.15012L20.5008 9.22939L19.6314 11.208C19.4016 11.7177 19.4016 12.3073 19.6314 12.8269V12.8169Z" fill="currentColor"/>
<path d="M15.0649 8.99955L11.0379 13.3866L8.87952 11.5778C8.45984 11.218 7.83031 11.278 7.47058 11.6977C7.12084 12.1174 7.17081 12.747 7.59049 13.1067L10.4783 15.5251C10.6682 15.685 10.888 15.7549 11.1178 15.7549C11.3876 15.7549 11.6574 15.645 11.8573 15.4352L16.5338 10.3386C16.9035 9.92891 16.8835 9.29934 16.4738 8.92959C16.0641 8.55985 15.4346 8.57983 15.0649 8.98955V8.99955Z" fill="currentColor"/>
</svg>
