<svg viewBox="0 0 24 24" fill="none" xmlns="http://www.w3.org/2000/svg">
<path d="M22.5527 7.37251C22.2727 7.18251 21.9227 7.15251 21.6227 7.27251L17.9927 8.72251V7.20251C17.9927 5.55251 16.6427 4.20251 14.9927 4.20251H3.99268C2.34268 4.20251 0.992676 5.55251 0.992676 7.20251V17.2025C0.992676 18.8525 2.34268 20.2025 3.99268 20.2025H14.9927C16.6427 20.2025 17.9927 18.8525 17.9927 17.2025V15.6825L21.6227 17.1325C21.7427 17.1825 21.8727 17.2025 21.9927 17.2025C22.1927 17.2025 22.3827 17.1425 22.5527 17.0325C22.8227 16.8425 22.9927 16.5325 22.9927 16.2025V8.20251C22.9927 7.87251 22.8227 7.56251 22.5527 7.37251ZM15.9927 17.2025C15.9927 17.7525 15.5427 18.2025 14.9927 18.2025H3.99268C3.44268 18.2025 2.99268 17.7525 2.99268 17.2025V7.20251C2.99268 6.65251 3.44268 6.20251 3.99268 6.20251H14.9927C15.5427 6.20251 15.9927 6.65251 15.9927 7.20251V17.2025ZM20.9927 14.7225L17.9927 13.5225V10.8725L20.9927 9.67251V14.7225Z" fill="currentColor"/>
<path d="M7.99268 8.20251H5.99268C5.44268 8.20251 4.99268 8.65251 4.99268 9.20251C4.99268 9.75251 5.44268 10.2025 5.99268 10.2025H7.99268C8.54268 10.2025 8.99268 9.75251 8.99268 9.20251C8.99268 8.65251 8.54268 8.20251 7.99268 8.20251Z" fill="currentColor"/>
</svg>
