<svg viewBox="0 0 24 24" fill="none" xmlns="http://www.w3.org/2000/svg">
<path d="M12 1C11.45 1 11 1.45 11 2V22C11 22.55 11.45 23 12 23C12.55 23 13 22.55 13 22V2C13 1.45 12.55 1 12 1Z" fill="currentColor"/>
<path d="M17 6C16.45 6 16 6.45 16 7V17C16 17.55 16.45 18 17 18C17.55 18 18 17.55 18 17V7C18 6.45 17.55 6 17 6Z" fill="currentColor"/>
<path d="M7 6C6.45 6 6 6.45 6 7V17C6 17.55 6.45 18 7 18C7.55 18 8 17.55 8 17V7C8 6.45 7.55 6 7 6Z" fill="currentColor"/>
<path d="M22 10.38C21.45 10.38 21 10.83 21 11.38V12.63C21 13.18 21.45 13.63 22 13.63C22.55 13.63 23 13.18 23 12.63V11.38C23 10.83 22.55 10.38 22 10.38Z" fill="currentColor"/>
<path d="M2 10.38C1.45 10.38 1 10.83 1 11.38V12.63C1 13.18 1.45 13.63 2 13.63C2.55 13.63 3 13.18 3 12.63V11.38C3 10.83 2.55 10.38 2 10.38Z" fill="currentColor"/>
</svg>
