<svg viewBox="0 0 24 24" fill="none" xmlns="http://www.w3.org/2000/svg">
<path d="M22 10.78V8.99999C22 7.69999 21.16 6.59999 20 6.17999V3.99999C20 3.13999 19.63 2.32999 18.99 1.75999C18.35 1.18999 17.5 0.919989 16.65 1.01999L3.65 2.54999C2.14 2.72999 1 4.00999 1 5.52999V20C1 21.65 2.35 23 4 23H19C20.65 23 22 21.65 22 20V18.22C22.61 17.67 23 16.88 23 16V13C23 12.12 22.61 11.33 22 10.78ZM21 13V16C21 16.55 20.55 17 20 17H14C13.45 17 13 16.55 13 16V13C13 12.45 13.45 12 14 12H20C20.55 12 21 12.45 21 13ZM3.88 4.53999L16.88 3.00999C17.16 2.96999 17.44 3.05999 17.66 3.25999C17.88 3.45999 18 3.71999 18 4.00999V6.00999H4C3.65 6.00999 3.31 6.07999 3 6.18999V5.53999C3 5.02999 3.38 4.60999 3.88 4.54999V4.53999ZM20 20C20 20.55 19.55 21 19 21H4C3.45 21 3 20.55 3 20V8.99999C3 8.44999 3.45 7.99999 4 7.99999H19C19.55 7.99999 20 8.44999 20 8.99999V9.99999H14C12.35 9.99999 11 11.35 11 13V16C11 17.65 12.35 19 14 19H20V20Z" fill="currentColor"/>
<path d="M15.5 15.5C16.0523 15.5 16.5 15.0523 16.5 14.5C16.5 13.9477 16.0523 13.5 15.5 13.5C14.9477 13.5 14.5 13.9477 14.5 14.5C14.5 15.0523 14.9477 15.5 15.5 15.5Z" fill="currentColor"/>
</svg>
