<svg viewBox="0 0 24 24" fill="none" xmlns="http://www.w3.org/2000/svg">
  <path
    fill-rule="evenodd"
    clip-rule="evenodd"
    d="M11.8856 2H12.1335C12.374 1.99956 12.6105 2.07419 12.8208 2.21682C13.031 2.35944 13.2079 2.56532 13.3346 2.8149L21.7808 19.3573C21.9236 19.6323 21.9996 19.9512 22 20.2769C22 20.7339 21.8514 21.1721 21.5868 21.4952C21.3222 21.8183 20.9633 21.9998 20.5891 21.9998H3.42993C3.24306 22.0029 3.05754 21.9606 2.88416 21.8754C2.71078 21.7902 2.55299 21.6638 2.41995 21.5035C2.28691 21.3432 2.18128 21.1522 2.10919 20.9417C2.0371 20.7311 1.99998 20.5052 2 20.2769C2.00043 19.9512 2.07646 19.6323 2.21926 19.3573L10.6845 2.8149C10.8112 2.56532 10.9881 2.35944 11.1983 2.21682C11.4085 2.07419 11.6451 1.99956 11.8856 2ZM12 15C11.4477 15 11 14.5523 11 14V9C11 8.44772 11.4477 8 12 8C12.5523 8 13 8.44772 13 9V14C13 14.5523 12.5523 15 12 15ZM12 16C11.4477 16 11 16.4477 11 17C11 17.5523 11.4477 18 12 18C12.5523 18 13 17.5523 13 17C13 16.4477 12.5523 16 12 16Z"
    fill="currentColor"
  />
</svg>
