<svg viewBox="0 0 24 24" fill="none" xmlns="http://www.w3.org/2000/svg">
<path d="M22.6593 18.25L14.9393 2.81C14.3793 1.69 13.2593 1 11.9993 1C10.7393 1 9.6193 1.7 9.0593 2.81L1.3493 18.25C0.839298 19.28 0.889298 20.47 1.4893 21.44C2.0893 22.41 3.1393 23 4.2793 23H19.7193C20.8693 23 21.9093 22.42 22.5093 21.44C23.1093 20.46 23.1693 19.27 22.6493 18.25H22.6593ZM11.9993 19C11.4493 19 10.9993 18.55 10.9993 18C10.9993 17.45 11.4493 17 11.9993 17C12.5493 17 12.9993 17.45 12.9993 18C12.9993 18.55 12.5493 19 11.9993 19ZM12.9993 14C12.9993 14.55 12.5493 15 11.9993 15C11.4493 15 10.9993 14.55 10.9993 14V9C10.9993 8.45 11.4493 8 11.9993 8C12.5493 8 12.9993 8.45 12.9993 9V14Z" fill="currentColor"/>
</svg>
