<svg viewBox="0 0 24 24" fill="none" xmlns="http://www.w3.org/2000/svg">
  <path
    d="M11 14C11 14.5523 11.4477 15 12 15C12.5523 15 13 14.5523 13 14V9C13 8.44772 12.5523 8 12 8C11.4477 8 11 8.44772 11 9V14Z"
    fill="currentColor"
  />
  <path
    d="M12 16C11.4477 16 11 16.4477 11 17C11 17.5523 11.4477 18 12 18C12.5523 18 13 17.5523 13 17C13 16.4477 12.5523 16 12 16Z"
    fill="currentColor"
  />
  <path
    fill-rule="evenodd"
    clip-rule="evenodd"
    d="M12 2C11.5026 2 11.0234 2.14856 10.6099 2.41728C10.1979 2.68499 9.86898 3.05975 9.64178 3.4921L9.63939 3.49667L2.34327 17.5564L2.33654 17.5696C2.11469 18.0131 2.00121 18.507 2.00001 19.0035C1.99881 19.5 2.10988 19.9944 2.32943 20.439C2.5491 20.8839 2.87458 21.2724 3.28725 21.5526C3.70152 21.834 4.18587 21.9935 4.69119 21.9999L4.70388 22H19.2961L19.3088 21.9999C19.8141 21.9935 20.2985 21.834 20.7128 21.5526C21.1254 21.2724 21.4509 20.8839 21.6706 20.439C21.8901 19.9944 22.0012 19.5 22 19.0035C21.9988 18.507 21.8853 18.0131 21.6635 17.5696L21.6567 17.5564L14.3606 3.49667L14.3582 3.4921C14.131 3.05975 13.8021 2.68499 13.3901 2.41728C12.9766 2.14856 12.4974 2 12 2ZM11.6997 4.09426C11.8022 4.02762 11.9052 4 12 4C12.0948 4 12.1978 4.02762 12.3003 4.09426C12.4039 4.16162 12.507 4.26945 12.5868 4.42054L12.5878 4.42246L19.8775 18.4699C19.9549 18.6267 19.9995 18.8127 20 19.0083C20.0005 19.2063 19.9557 19.3948 19.8773 19.5535C19.799 19.712 19.6949 19.8263 19.589 19.8982C19.4864 19.9679 19.3831 19.9979 19.288 20H4.71196C4.61694 19.9979 4.51358 19.9679 4.41098 19.8982C4.30511 19.8263 4.20098 19.712 4.12271 19.5535C4.04433 19.3948 3.99952 19.2063 4 19.0083C4.00048 18.8127 4.04513 18.6268 4.12244 18.47L11.4122 4.42246L11.4132 4.42054C11.493 4.26945 11.5961 4.16162 11.6997 4.09426Z"
    fill="currentColor"
  />
</svg>
