<svg viewBox="0 0 24 24" fill="none" xmlns="http://www.w3.org/2000/svg">
<path d="M22.6602 18.25L14.9376 2.81C14.3774 1.69 13.2571 1 12.0066 1C10.7562 1 9.62584 1.7 9.07566 2.81L1.35308 18.25C0.842907 19.28 0.892923 20.47 1.49312 21.44C2.09332 22.41 3.14368 23 4.28406 23H19.7192C20.8696 23 21.91 22.42 22.5102 21.44C23.1104 20.46 23.1704 19.27 22.6502 18.25H22.6602ZM20.8196 20.39C20.5795 20.78 20.1794 21 19.7292 21H4.28406C3.83391 21 3.43377 20.78 3.19369 20.39C2.95361 20 2.93361 19.55 3.13367 19.14L10.8563 3.71C11.0763 3.27 11.5065 3 12.0066 3C12.5068 3 12.9269 3.26 13.157 3.71L20.8796 19.15C21.0797 19.56 21.0597 20.01 20.8196 20.4V20.39Z" fill="currentColor"/>
<path d="M12.0066 15C12.5568 15 13.007 14.55 13.007 14V9C13.007 8.45 12.5568 8 12.0066 8C11.4565 8 11.0063 8.45 11.0063 9V14C11.0063 14.55 11.4565 15 12.0066 15Z" fill="currentColor"/>
<path d="M12.0066 19C12.8353 19 13.5071 18.3284 13.5071 17.5C13.5071 16.6716 12.8353 16 12.0066 16C11.1779 16 10.5061 16.6716 10.5061 17.5C10.5061 18.3284 11.1779 19 12.0066 19Z" fill="currentColor"/>
</svg>
