<svg viewBox="0 0 24 24" fill="none" xmlns="http://www.w3.org/2000/svg">
<path d="M11.9718 1C6.26178 1 1.54178 5.28805 1.00178 10.9755C1.00178 10.9755 1.00178 10.9755 1.00178 10.9855C0.991776 11.1154 1.00178 11.2453 1.05178 11.3653C1.05178 11.3953 1.07178 11.4153 1.08178 11.4453C1.13178 11.5652 1.19178 11.6751 1.29178 11.7751L12.2218 22.7001C12.3118 22.7901 12.4318 22.8701 12.5518 22.92C12.6718 22.97 12.8018 23 12.9318 23C12.9618 23 12.9918 23 13.0218 23C18.7118 22.4602 23.0018 17.7524 23.0018 12.035C23.0018 5.94775 18.0518 1 11.9718 1ZM4.59178 12.1749C5.00178 12.2449 5.39178 12.3548 5.78178 12.4748C5.86178 12.4948 5.93178 12.5248 6.00178 12.5547C6.35178 12.6847 6.69178 12.8246 7.02178 12.9945C7.07178 13.0245 7.12178 13.0445 7.18178 13.0645C7.54178 13.2544 7.87178 13.4743 8.20178 13.7042C8.27178 13.7542 8.34178 13.8142 8.41178 13.8642C9.06178 14.3539 9.63178 14.9337 10.1318 15.5834C10.1818 15.6533 10.2418 15.7233 10.2918 15.8033C10.5218 16.1231 10.7418 16.463 10.9318 16.8228C10.9618 16.8728 10.9818 16.9328 11.0118 16.9827C11.1718 17.3026 11.3218 17.6424 11.4418 17.9923C11.4718 18.0722 11.5018 18.1422 11.5218 18.2222C11.6518 18.602 11.7518 19.0018 11.8218 19.4016C11.8218 19.4316 11.8218 19.4616 11.8318 19.4916L4.50178 12.1649C4.50178 12.1649 4.56178 12.1649 4.58178 12.1749H4.59178ZM13.9818 20.811C13.9818 20.6411 13.9618 20.4811 13.9518 20.3112C13.9418 20.1413 13.9318 19.9814 13.9218 19.8114C13.9018 19.6115 13.8618 19.4116 13.8318 19.2117C13.8018 19.0518 13.7818 18.8919 13.7518 18.7319C13.7118 18.532 13.6518 18.3421 13.6018 18.1422C13.5618 17.9923 13.5218 17.8423 13.4818 17.6924C13.4218 17.5025 13.3418 17.3126 13.2718 17.1227C13.2218 16.9827 13.1718 16.8328 13.1118 16.6929C13.0318 16.503 12.9318 16.323 12.8418 16.1331C12.7718 16.0032 12.7218 15.8732 12.6518 15.7433C12.5518 15.5534 12.4318 15.3735 12.3118 15.1935C12.2418 15.0836 12.1718 14.9637 12.1018 14.8537C11.9618 14.6538 11.8118 14.4639 11.6618 14.274C11.5918 14.194 11.5418 14.104 11.4718 14.0241C11.0218 13.4843 10.5318 12.9945 9.99178 12.5448C9.91178 12.4848 9.83178 12.4248 9.75178 12.3648C9.55178 12.2149 9.36178 12.055 9.15178 11.915C9.05177 11.8451 8.94178 11.7851 8.83178 11.7151C8.64178 11.5952 8.45178 11.4752 8.25178 11.3653C8.13178 11.2953 8.00178 11.2453 7.88178 11.1854C7.69178 11.0854 7.50178 10.9955 7.30178 10.9055C7.17178 10.8455 7.03178 10.8055 6.89178 10.7456C6.70178 10.6756 6.50178 10.5956 6.30178 10.5357C6.15178 10.4857 6.00178 10.4557 5.86178 10.4157C5.66178 10.3657 5.47178 10.3058 5.26178 10.2658C5.10178 10.2358 4.95178 10.2158 4.79178 10.1858C4.59178 10.1558 4.39178 10.1159 4.18178 10.0959C4.02178 10.0759 3.85178 10.0759 3.68178 10.0659C3.51178 10.0559 3.35178 10.0359 3.18178 10.0359C4.09178 5.95775 7.69178 3.01908 11.9818 3.01908C16.9618 3.01908 21.0118 7.06724 21.0118 12.035C21.0118 16.323 18.0618 19.9214 13.9918 20.831L13.9818 20.811Z" fill="currentColor"/>
</svg>
