<svg viewBox="0 0 24 24" fill="none" xmlns="http://www.w3.org/2000/svg">
<path d="M3.98 8.99C4.53 8.99 4.98 8.54 4.98 7.99V4C4.98 3.45 5.43 3 5.98 3H17.98C18.53 3 18.98 3.45 18.98 4C18.98 4.55 19.43 5 19.98 5C20.53 5 20.98 4.55 20.98 4C20.98 2.35 19.63 1 17.98 1H5.98C4.33 1 2.98 2.35 2.98 4V7.99C2.98 8.54 3.43 8.99 3.98 8.99Z" fill="currentColor"/>
<path d="M19.98 14.89C19.43 14.89 18.98 15.34 18.98 15.89V20C18.98 20.55 18.53 21 17.98 21H5.98C5.43 21 4.98 20.55 4.98 20C4.98 19.45 4.53 19 3.98 19C3.43 19 2.98 19.45 2.98 20C2.98 21.65 4.33 23 5.98 23H17.98C19.63 23 20.98 21.65 20.98 20V15.89C20.98 15.34 20.53 14.89 19.98 14.89Z" fill="currentColor"/>
<path d="M21.97 9.55C21.97 9.55 21.98 9.51 21.98 9.49C21.98 9.36 21.95 9.23 21.9 9.11C21.85 8.99 21.78 8.88 21.68 8.79L18.84 5.97C18.45 5.58 17.82 5.58 17.43 5.97C17.04 6.36 17.04 6.99 17.43 7.38L18.55 8.49H10.98C10.43 8.49 9.98 8.94 9.98 9.49C9.98 10.04 10.43 10.49 10.98 10.49H18.58L17.46 11.62C17.07 12.01 17.07 12.64 17.46 13.03C17.66 13.22 17.91 13.32 18.17 13.32C18.43 13.32 18.68 13.22 18.88 13.02L21.69 10.19C21.78 10.1 21.85 9.99 21.9 9.87C21.94 9.77 21.96 9.66 21.96 9.55H21.97Z" fill="currentColor"/>
<path d="M5.11 18.04C5.31 18.23 5.56 18.33 5.82 18.33C6.08 18.33 6.33 18.23 6.53 18.03C6.92 17.64 6.92 17.01 6.53 16.62L5.41 15.51H12.98C13.53 15.51 13.98 15.06 13.98 14.51C13.98 13.96 13.53 13.51 12.98 13.51H5.38L6.5 12.38C6.89 11.99 6.89 11.36 6.5 10.97C6.11 10.58 5.48 10.58 5.09 10.97L2.28 13.8C2.19 13.89 2.12 14 2.07 14.12C2.03 14.22 2.01 14.33 2.01 14.44C2.01 14.46 2 14.48 2 14.5C2 14.63 2.03 14.76 2.08 14.88C2.13 15 2.2 15.11 2.3 15.2L5.14 18.02L5.11 18.04Z" fill="currentColor"/>
</svg>
