<svg viewBox="0 0 24 24" fill="none" xmlns="http://www.w3.org/2000/svg">
<path d="M22.7075 21.2992L17.0282 15.6166C18.258 14.0759 18.998 12.1251 18.998 10.0041C18.998 5.04184 14.9584 1 9.99898 1C5.03954 1 1 5.04184 1 10.0041C1 14.9663 5.03954 19.0082 9.99898 19.0082C12.1187 19.0082 14.0685 18.2679 15.6083 17.0273L21.2877 22.7099C21.4877 22.91 21.7376 23 21.9976 23C22.2576 23 22.5076 22.9 22.7075 22.7099C23.0975 22.3197 23.0975 21.6894 22.7075 21.2992ZM2.99977 10.0041C2.99977 6.14234 6.13942 3.00091 9.99898 3.00091C13.8585 3.00091 16.9982 6.14234 16.9982 10.0041C16.9982 13.8658 13.8585 17.0073 9.99898 17.0073C6.13942 17.0073 2.99977 13.8658 2.99977 10.0041Z" fill="currentColor"/>
<path d="M12.9986 9.00364H10.9989V7.00273C10.9989 6.45248 10.5489 6.00227 9.99898 6.00227C9.44904 6.00227 8.99909 6.45248 8.99909 7.00273V9.00364H6.99932C6.44938 9.00364 5.99943 9.45384 5.99943 10.0041C5.99943 10.5543 6.44938 11.0045 6.99932 11.0045H8.99909V13.0055C8.99909 13.5557 9.44904 14.0059 9.99898 14.0059C10.5489 14.0059 10.9989 13.5557 10.9989 13.0055V11.0045H12.9986C13.5486 11.0045 13.9985 10.5543 13.9985 10.0041C13.9985 9.45384 13.5486 9.00364 12.9986 9.00364Z" fill="currentColor"/>
</svg>
