<svg viewBox="0 0 16 16" fill="none" xmlns="http://www.w3.org/2000/svg">
  <path
    fill-rule="evenodd"
    clip-rule="evenodd"
    d="M2.75 2.5C2.61193 2.5 2.5 2.61193 2.5 2.75V12.8611C2.5 12.9561 2.55748 13.1231 2.71596 13.2825C2.87382 13.4413 3.03974 13.5 3.13889 13.5C3.24156 13.5 3.40762 13.4409 3.56318 13.2852C3.71883 13.1294 3.77778 12.9632 3.77778 12.8611V12.131C3.77778 11.1645 4.56128 10.381 5.52778 10.381H11.75V8.01888C11.75 7.60466 12.0858 7.26888 12.5 7.26888C12.9142 7.26888 13.25 7.60466 13.25 8.01888V10.381C14.2165 10.381 15 11.1645 15 12.131V12.8611C15 13.3251 14.814 13.8197 14.5493 14.1971C14.2958 14.5587 13.8311 15 13.1786 15H3.13889C2.54359 15 2.01507 14.7051 1.6521 14.34C1.28974 13.9754 1 13.4479 1 12.8611V2.75C1 1.7835 1.7835 1 2.75 1H8.50081C8.91503 1 9.25081 1.33579 9.25081 1.75C9.25081 2.16421 8.91503 2.5 8.50081 2.5H2.75ZM5.16513 13.5H13.1593C13.1632 13.4979 13.1686 13.4948 13.1756 13.49C13.2111 13.4661 13.2642 13.4172 13.3212 13.3359C13.445 13.1594 13.5 12.9596 13.5 12.8611V12.131C13.5 11.9929 13.3881 11.881 13.25 11.881H5.52778C5.38971 11.881 5.27778 11.9929 5.27778 12.131V12.8611C5.27778 13.0848 5.2364 13.2996 5.16513 13.5Z"
    fill="currentColor"
  />
  <path
    d="M4.27344 5C4.27344 4.58579 4.60922 4.25 5.02344 4.25H9.02344C9.43765 4.25 9.77344 4.58579 9.77344 5C9.77344 5.41421 9.43765 5.75 9.02344 5.75H5.02344C4.60922 5.75 4.27344 5.41421 4.27344 5Z"
    fill="currentColor"
  />
  <path
    d="M5.02344 7.25C4.60922 7.25 4.27344 7.58579 4.27344 8C4.27344 8.41421 4.60922 8.75 5.02344 8.75H9.02344C9.43765 8.75 9.77344 8.41421 9.77344 8C9.77344 7.58579 9.43765 7.25 9.02344 7.25H5.02344Z"
    fill="currentColor"
  />
  <path
    d="M10.2422 3.25C10.2422 2.83579 10.578 2.5 10.9922 2.5H11.7422V1.75C11.7422 1.33579 12.078 1 12.4922 1C12.9064 1 13.2422 1.33579 13.2422 1.75V2.5H13.9922C14.4064 2.5 14.7422 2.83579 14.7422 3.25C14.7422 3.66421 14.4064 4 13.9922 4H13.2422V4.75C13.2422 5.16421 12.9064 5.5 12.4922 5.5C12.078 5.5 11.7422 5.16421 11.7422 4.75V4H10.9922C10.578 4 10.2422 3.66421 10.2422 3.25Z"
    fill="currentColor"
  />
</svg>
