<svg viewBox="0 0 16 16" xmlns="http://www.w3.org/2000/svg">
<path d="M12.95 3.05C11.63 1.73 9.87 1 8 1C6.13 1 4.37 1.73 3.05 3.05C1.73 4.37 1 6.13 1 8C1 9.87 1.73 11.63 3.05 12.95C4.37 14.27 6.13 15 8 15C9.87 15 11.63 14.27 12.95 12.95C14.27 11.63 15 9.87 15 8C15 6.13 14.27 4.37 12.95 3.05ZM11.89 11.89C10.85 12.93 9.47 13.5 8 13.5C6.53 13.5 5.15 12.93 4.11 11.89C3.07 10.85 2.5 9.47 2.5 8C2.5 6.53 3.07 5.15 4.11 4.11C5.15 3.07 6.53 2.5 8 2.5C9.47 2.5 10.85 3.07 11.89 4.11C12.93 5.15 13.5 6.53 13.5 8C13.5 9.47 12.93 10.85 11.89 11.89Z" fill="currentColor"/>
<path d="M10.5 7.25H8.75V5.5C8.75 5.09 8.41 4.75 8 4.75C7.59 4.75 7.25 5.09 7.25 5.5V7.25H5.5C5.09 7.25 4.75 7.59 4.75 8C4.75 8.41 5.09 8.75 5.5 8.75H7.25V10.5C7.25 10.91 7.59 11.25 8 11.25C8.41 11.25 8.75 10.91 8.75 10.5V8.75H10.5C10.91 8.75 11.25 8.41 11.25 8C11.25 7.59 10.91 7.25 10.5 7.25Z" fill="currentColor"/>
</svg>
