<svg viewBox="0 0 17 17" fill="none" xmlns="http://www.w3.org/2000/svg">
<path d="M8.86809 7.28363H10.8881C11.2981 7.28363 11.6381 6.94363 11.6381 6.53363C11.6381 6.12363 11.2981 5.78363 10.8881 5.78363H8.86809C8.45809 5.78363 8.11809 6.12363 8.11809 6.53363C8.11809 6.94363 8.45809 7.28363 8.86809 7.28363Z" fill="currentColor"/>
<path d="M8.86809 10.2836H12.0081C12.4181 10.2836 12.7581 9.94363 12.7581 9.53363C12.7581 9.12363 12.4181 8.78363 12.0081 8.78363H8.86809C8.45809 8.78363 8.11809 9.12363 8.11809 9.53363C8.11809 9.94363 8.45809 10.2836 8.86809 10.2836Z" fill="currentColor"/>
<path d="M6.13809 5.78363H5.61809C5.20809 5.78363 4.86809 6.12363 4.86809 6.53363C4.86809 6.94363 5.20809 7.28363 5.61809 7.28363H6.13809C6.54809 7.28363 6.88809 6.94363 6.88809 6.53363C6.88809 6.12363 6.54809 5.78363 6.13809 5.78363Z" fill="currentColor"/>
<path d="M6.13809 8.78363H5.61809C5.20809 8.78363 4.86809 9.12363 4.86809 9.53363C4.86809 9.94363 5.20809 10.2836 5.61809 10.2836H6.13809C6.54809 10.2836 6.88809 9.94363 6.88809 9.53363C6.88809 9.12363 6.54809 8.78363 6.13809 8.78363Z" fill="currentColor"/>
<path d="M15.1381 6.53363C14.7281 6.53363 14.3881 6.87363 14.3881 7.28363V13.6936L12.1581 12.8336C11.9781 12.7636 11.7781 12.7636 11.5981 12.8336L8.88809 13.9636L6.17809 12.8336C5.99809 12.7636 5.79809 12.7536 5.61809 12.8336L3.38809 13.6936V3.03363H10.1381C10.5481 3.03363 10.8881 2.69363 10.8881 2.28363C10.8881 1.87363 10.5481 1.53363 10.1381 1.53363H2.63809C2.22809 1.53363 1.88809 1.87363 1.88809 2.28363V14.7836C1.88809 15.0336 2.00809 15.2636 2.21809 15.4036C2.41809 15.5436 2.67809 15.5736 2.90809 15.4836L5.87809 14.3436L8.59809 15.4736C8.77809 15.5536 8.98809 15.5536 9.17809 15.4736L11.8981 14.3436L14.8681 15.4836C14.9581 15.5136 15.0481 15.5336 15.1381 15.5336C15.2881 15.5336 15.4381 15.4936 15.5581 15.4036C15.7581 15.2636 15.8881 15.0336 15.8881 14.7836V7.28363C15.8881 6.87363 15.5481 6.53363 15.1381 6.53363Z" fill="currentColor"/>
<path d="M12.1381 4.53363H12.8881V5.28363C12.8881 5.69363 13.2281 6.03363 13.6381 6.03363C14.0481 6.03363 14.3881 5.69363 14.3881 5.28363V4.53363H15.1381C15.5481 4.53363 15.8881 4.19363 15.8881 3.78363C15.8881 3.37363 15.5481 3.03363 15.1381 3.03363H14.3881V2.28363C14.3881 1.87363 14.0481 1.53363 13.6381 1.53363C13.2281 1.53363 12.8881 1.87363 12.8881 2.28363V3.03363H12.1381C11.7281 3.03363 11.3881 3.37363 11.3881 3.78363C11.3881 4.19363 11.7281 4.53363 12.1381 4.53363Z" fill="currentColor"/>
</svg>
