<svg viewBox="0 0 16 16" fill="none" xmlns="http://www.w3.org/2000/svg">
<path d="M9.78 6.97C9.49 6.68 9.01 6.68 8.72 6.97C8.43 7.26 8.43 7.74 8.72 8.03L9.69 9L8.72 9.97C8.43 10.26 8.43 10.74 8.72 11.03C8.87 11.18 9.06 11.25 9.25 11.25C9.44 11.25 9.63 11.18 9.78 11.03L11.28 9.53C11.57 9.24 11.57 8.76 11.28 8.47L9.78 6.97Z" fill="currentColor"/>
<path d="M7.28 6.97C6.99 6.68 6.51 6.68 6.22 6.97L4.72 8.47C4.43 8.76 4.43 9.24 4.72 9.53L6.22 11.03C6.37 11.18 6.56 11.25 6.75 11.25C6.94 11.25 7.13 11.18 7.28 11.03C7.57 10.74 7.57 10.26 7.28 9.97L6.31 9L7.28 8.03C7.57 7.74 7.57 7.26 7.28 6.97Z" fill="currentColor"/>
<path d="M12.45 5.87C12.15 3.66 10.28 2 8 2C5.72 2 3.86 3.66 3.55 5.87C2.01 6.54 1 8.04 1 9.75C1 12.09 2.91 14 5.25 14H10.75C13.09 14 15 12.09 15 9.75C15 8.04 13.99 6.54 12.45 5.87ZM10.75 12.5H5.25C3.73 12.5 2.5 11.27 2.5 9.75C2.5 8.53 3.29 7.48 4.47 7.13C4.78 7.04 5 6.75 5.01 6.43C5.05 4.79 6.36 3.5 8 3.5C9.64 3.5 10.95 4.79 10.99 6.43C10.99 6.76 11.21 7.04 11.53 7.13C12.71 7.48 13.5 8.53 13.5 9.75C13.5 11.27 12.27 12.5 10.75 12.5Z" fill="currentColor"/>
</svg>
