<svg viewBox="0 0 16 16" fill="none" xmlns="http://www.w3.org/2000/svg">
<path d="M13.64 10.31L11.56 13.22L10.66 12.62C10.31 12.39 9.85 12.48 9.62 12.83C9.39 13.17 9.48 13.64 9.83 13.87L11.33 14.87C11.46 14.95 11.6 15 11.75 15C11.98 15 12.21 14.89 12.36 14.69L14.86 11.19C15.1 10.85 15.02 10.38 14.69 10.14C14.35 9.9 13.88 9.98 13.64 10.31Z" fill="currentColor"/>
<path d="M12.75 1H3.25C2.01 1 1 2.01 1 3.25V12.75C1 13.99 2.01 15 3.25 15H8C8.41 15 8.75 14.66 8.75 14.25C8.75 13.84 8.41 13.5 8 13.5H3.25C2.84 13.5 2.5 13.16 2.5 12.75V6.5H13.5V8C13.5 8.41 13.84 8.75 14.25 8.75C14.66 8.75 15 8.41 15 8V3.25C15 2.01 13.99 1 12.75 1ZM2.5 5V3.25C2.5 2.84 2.84 2.5 3.25 2.5H12.75C13.16 2.5 13.5 2.84 13.5 3.25V5H2.5Z" fill="currentColor"/>
<path d="M4.5 3H4C3.59 3 3.25 3.34 3.25 3.75C3.25 4.16 3.59 4.5 4 4.5H4.5C4.91 4.5 5.25 4.16 5.25 3.75C5.25 3.34 4.91 3 4.5 3Z" fill="currentColor"/>
<path d="M7.5 3H7C6.59 3 6.25 3.34 6.25 3.75C6.25 4.16 6.59 4.5 7 4.5H7.5C7.91 4.5 8.25 4.16 8.25 3.75C8.25 3.34 7.91 3 7.5 3Z" fill="currentColor"/>
</svg>
