<svg viewBox="0 0 16 16" fill="none" xmlns="http://www.w3.org/2000/svg">
<path d="M13.25 1.5H2.75C1.79 1.5 1 2.29 1 3.25V4.5C1 5.17 1.38 5.75 1.94 6.04V12.75C1.94 13.71 2.73 14.5 3.69 14.5H12.31C13.27 14.5 14.06 13.71 14.06 12.75V6.04C14.61 5.75 15 5.17 15 4.5V3.25C15 2.29 14.21 1.5 13.25 1.5ZM2.5 3.25C2.5 3.11 2.61 3 2.75 3H13.25C13.39 3 13.5 3.11 13.5 3.25V4.5C13.5 4.64 13.39 4.75 13.25 4.75H2.75C2.61 4.75 2.5 4.64 2.5 4.5V3.25ZM12.56 12.75C12.56 12.89 12.45 13 12.31 13H3.69C3.55 13 3.44 12.89 3.44 12.75V6.25H12.56V12.75Z" fill="currentColor"/>
<path d="M6 8.75H10C10.41 8.75 10.75 8.41 10.75 8C10.75 7.59 10.41 7.25 10 7.25H6C5.59 7.25 5.25 7.59 5.25 8C5.25 8.41 5.59 8.75 6 8.75Z" fill="currentColor"/>
</svg>
