<svg viewBox="0 0 16 16" fill="none" xmlns="http://www.w3.org/2000/svg">
<g clip-path="url(#clip0_7873_6349)">
<path d="M3.05038 3.05033C5.77981 0.320901 10.2204 0.320901 12.9499 3.05033C15.6793 5.77977 15.6793 10.2204 12.9499 12.9498C10.2204 15.6793 5.77981 15.6793 3.05037 12.9498C0.320942 10.2204 0.320943 5.77977 3.05038 3.05033ZM11.8892 11.8892C14.0317 9.74663 14.0317 6.25353 11.8892 4.11099C9.74668 1.96846 6.25357 1.96846 4.11104 4.11099C1.9685 6.25353 1.9685 9.74663 4.11103 11.8892C6.25357 14.0317 9.74668 14.0317 11.8892 11.8892Z" fill="currentColor"/>
<path d="M5.18584 10.4042C5.15048 10.3123 5.12927 10.2204 5.12927 10.1214L5.12927 7.29297C5.12927 6.88285 5.46868 6.54344 5.8788 6.54344C6.28892 6.54344 6.62833 6.88285 6.62833 7.29297L6.62834 8.31121L9.59111 5.34843C9.88103 5.05852 10.3619 5.05852 10.6518 5.34843C10.9417 5.63834 10.9417 6.11918 10.6518 6.40909L7.689 9.37187L8.70723 9.37187C9.11735 9.37187 9.45676 9.71128 9.45676 10.1214C9.45676 10.3335 9.37191 10.5174 9.23756 10.6517C9.10321 10.7861 8.91936 10.8709 8.70723 10.8709H5.8788C5.77981 10.8709 5.68788 10.8497 5.59596 10.8144C5.41211 10.7437 5.26362 10.5952 5.19291 10.4113L5.18584 10.4042Z" fill="currentColor"/>
</g>
<defs>
<clipPath>
<rect fill="currentColor"/>
</clipPath>
</defs>
</svg>
