<svg viewBox="0 0 16 16" fill="none" xmlns="http://www.w3.org/2000/svg">
<path d="M12.9498 3.05025C15.6792 5.77968 15.6792 10.2203 12.9498 12.9497C10.2203 15.6792 5.7797 15.6792 3.05026 12.9497C0.320832 10.2203 0.320832 5.77968 3.05026 3.05025C5.7797 0.320821 10.2203 0.320821 12.9498 3.05025ZM5.18573 5.59584C5.15037 5.68776 5.12916 5.77969 5.12916 5.87868L5.12916 8.70711C5.12916 8.91924 5.21401 9.10309 5.34836 9.23744C5.48271 9.37179 5.66656 9.45664 5.87869 9.45664C6.28881 9.45664 6.62822 9.11723 6.62822 8.70711L6.62822 7.68887L9.591 10.6517C9.88091 10.9416 10.3617 10.9416 10.6517 10.6517C10.9416 10.3617 10.9416 9.8809 10.6517 9.59099L7.68888 6.62821H8.70712C9.11724 6.62821 9.45665 6.2888 9.45665 5.87868C9.45665 5.46856 9.11724 5.12915 8.70712 5.12915H5.87869C5.7797 5.12915 5.68777 5.15036 5.59585 5.18572C5.412 5.25643 5.26351 5.40492 5.1928 5.58877L5.18573 5.59584Z" fill="currentColor"/>
</svg>
