<svg viewBox="0 0 16 16" fill="none" xmlns="http://www.w3.org/2000/svg">
<path d="M8.73713 2.75063L8.73713 11.3378L10.4499 9.49625C10.7303 9.196 11.2111 9.17598 11.5115 9.45621C11.812 9.73645 11.832 10.2168 11.5516 10.5171L8.54683 13.7698C8.54683 13.7698 8.54683 13.7698 8.53681 13.7698C8.48673 13.8199 8.41662 13.8599 8.35653 13.8999C8.33649 13.9099 8.31646 13.9299 8.29643 13.94C8.20629 13.98 8.10613 14 7.99595 14L7.97592 14C7.87576 14 7.78562 13.98 7.70549 13.94C7.68546 13.9299 7.66543 13.9099 7.6454 13.8999C7.5853 13.8599 7.51519 13.8299 7.46511 13.7698C7.46511 13.7698 7.46511 13.7698 7.45509 13.7698L4.45032 10.5171C4.32011 10.377 4.25 10.1868 4.25 10.0067C4.25 9.80651 4.33013 9.60634 4.49038 9.45621C4.79086 9.17598 5.27162 9.196 5.55207 9.49625L7.25477 11.3378L7.25477 2.75063L7.24476 2.75063C7.24476 2.34028 7.5853 2 7.99595 2C8.4066 2 8.74715 2.33028 8.74715 2.75063L8.73713 2.75063Z" fill="currentColor"/>
</svg>
