<svg viewBox="0 0 16 16" fill="none" xmlns="http://www.w3.org/2000/svg">
<path d="M15 8C15 11.86 11.86 15 8 15C4.14 15 1 11.86 1 8C1 4.14 4.14 1 8 1C11.86 1 15 4.14 15 8ZM2.5 8C2.5 11.03 4.97 13.5 8 13.5C11.03 13.5 13.5 11.03 13.5 8C13.5 4.97 11.03 2.5 8 2.5C4.97 2.5 2.5 4.97 2.5 8Z" fill="currentColor"/>
<path d="M8.29 4.31C8.38 4.35 8.46 4.4 8.53 4.47L10.53 6.47C10.82 6.76 10.82 7.24 10.53 7.53C10.24 7.82 9.76 7.82 9.47 7.53L8.75 6.81L8.75 11C8.75 11.41 8.41 11.75 8 11.75C7.59 11.75 7.25 11.41 7.25 11L7.25 6.81L6.53 7.53C6.24 7.82 5.76 7.82 5.47 7.53C5.32 7.38 5.25 7.19 5.25 7C5.25 6.81 5.32 6.62 5.47 6.47L7.47 4.47C7.54 4.4 7.62 4.35 7.71 4.31C7.89 4.23 8.1 4.23 8.28 4.31L8.29 4.31Z" fill="currentColor"/>
</svg>
