<svg viewBox="0 0 16 16" fill="none" xmlns="http://www.w3.org/2000/svg">
<path d="M1 8C1 4.14 4.14 1 8 1C11.86 1 15 4.14 15 8C15 11.86 11.86 15 8 15C4.14 15 1 11.86 1 8ZM13.5 8C13.5 4.97 11.03 2.5 8 2.5C4.97 2.5 2.5 4.97 2.5 8C2.5 11.03 4.97 13.5 8 13.5C11.03 13.5 13.5 11.03 13.5 8Z" fill="currentColor"/>
<path d="M7.71 11.69C7.62 11.65 7.54 11.6 7.47 11.53L5.47 9.53C5.18 9.24 5.18 8.76 5.47 8.47C5.76 8.18 6.24 8.18 6.53 8.47L7.25 9.19L7.25 5C7.25 4.59 7.59 4.25 8 4.25C8.41 4.25 8.75 4.59 8.75 5L8.75 9.19L9.47 8.47C9.76 8.18 10.24 8.18 10.53 8.47C10.68 8.62 10.75 8.81 10.75 9C10.75 9.19 10.68 9.38 10.53 9.53L8.53 11.53C8.46 11.6 8.38 11.65 8.29 11.69C8.11 11.77 7.9 11.77 7.72 11.69L7.71 11.69Z" fill="currentColor"/>
</svg>
