<svg viewBox="0 0 16 16" fill="none" xmlns="http://www.w3.org/2000/svg">

<path d="M3.05031 3.05033C5.77975 0.320901 10.2204 0.320901 12.9498 3.05033C15.6792 5.77977 15.6792 10.2204 12.9498 12.9498C10.2204 15.6793 5.77975 15.6793 3.05031 12.9498C0.320882 10.2204 0.320882 5.77977 3.05031 3.05033ZM5.5959 10.8144C5.68782 10.8497 5.77975 10.8709 5.87874 10.8709L8.70717 10.8709C8.9193 10.8709 9.10315 10.7861 9.2375 10.6517C9.37185 10.5174 9.4567 10.3335 9.4567 10.1214C9.4567 9.71128 9.11729 9.37187 8.70717 9.37187L7.68893 9.37187L10.6517 6.40909C10.9416 6.11918 10.9416 5.63834 10.6517 5.34843C10.3618 5.05852 9.88097 5.05852 9.59105 5.34843L6.62827 8.31121V7.29297C6.62827 6.88285 6.28886 6.54344 5.87874 6.54344C5.46862 6.54344 5.12921 6.88285 5.12921 7.29297V10.1214C5.12921 10.2204 5.15042 10.3123 5.18578 10.4042C5.25649 10.5881 5.40498 10.7366 5.58883 10.8073L5.5959 10.8144Z" fill="currentColor"/>
</svg>
