<svg viewBox="0 0 16 16" fill="none" xmlns="http://www.w3.org/2000/svg">
<g clip-path="url(#clip0_7873_6394)">
<path d="M12.9498 3.05033C10.2204 0.320901 5.77975 0.320901 3.05031 3.05033C0.320882 5.77977 0.320882 10.2204 3.05031 12.9498C5.77975 15.6793 10.2204 15.6793 12.9498 12.9498C15.6792 10.2204 15.6792 5.77977 12.9498 3.05033ZM10.4042 10.8144C10.3123 10.8497 10.2204 10.8709 10.1214 10.8709L7.29295 10.8709C7.08082 10.8709 6.89697 10.7861 6.76262 10.6517C6.62827 10.5174 6.54342 10.3335 6.54342 10.1214C6.54342 9.71128 6.88283 9.37187 7.29295 9.37187L8.31119 9.37187L5.34841 6.40909C5.0585 6.11918 5.0585 5.63834 5.34841 5.34843C5.63832 5.05852 6.11916 5.05852 6.40907 5.34843L9.37185 8.31121V7.29297C9.37185 6.88285 9.71126 6.54344 10.1214 6.54344C10.5315 6.54344 10.8709 6.88285 10.8709 7.29297V10.1214C10.8709 10.2204 10.8497 10.3123 10.8143 10.4042C10.7436 10.5881 10.5951 10.7366 10.4113 10.8073L10.4042 10.8144Z" fill="currentColor"/>
</g>
<defs>
<clipPath>
<rect fill="currentColor"/>
</clipPath>
</defs>
</svg>
