<svg viewBox="0 0 16 16" fill="none" xmlns="http://www.w3.org/2000/svg">
<g clip-path="url(#clip0_7128_197622)">
<path d="M11.75 4.75C11.34 4.75 11 5.09 11 5.5V10.5C11 12.15 9.65 13.5 8 13.5C6.35 13.5 5 12.15 5 10.5V4.25C5 3.29 5.79 2.5 6.75 2.5C7.71 2.5 8.5 3.29 8.5 4.25V10.5C8.5 10.78 8.28 11 8 11C7.72 11 7.5 10.78 7.5 10.5V4.75C7.5 4.34 7.16 4 6.75 4C6.34 4 6 4.34 6 4.75V10.5C6 11.6 6.9 12.5 8 12.5C9.1 12.5 10 11.6 10 10.5V4.25C10 2.46 8.54 1 6.75 1C4.96 1 3.5 2.46 3.5 4.25V10.5C3.5 12.98 5.52 15 8 15C10.48 15 12.5 12.98 12.5 10.5V5.5C12.5 5.09 12.16 4.75 11.75 4.75Z" fill="currentColor"/>
</g>
<defs>
<clipPath>
<rect fill="currentColor" transform="translate(3.5 1)"/>
</clipPath>
</defs>
</svg>
