<svg viewBox="0 0 16 16" fill="none" xmlns="http://www.w3.org/2000/svg">
<path d="M13.69 1.14041C13.49 1.00041 13.24 0.960407 13.01 1.04041L5.65 3.54041C5.35 3.64041 5.14 3.93041 5.14 4.25041V10.5004C4.9 10.4004 4.62 10.3404 4.33 10.3404C3.05 10.3404 2 11.3804 2 12.6704C2 13.9604 3.05 15.0004 4.33 15.0004C5.61 15.0004 6.66 13.9604 6.66 12.6704L6.64 4.78041L12.5 2.79041V8.62041C12.24 8.52041 11.96 8.46041 11.67 8.46041C10.39 8.46041 9.34 9.50041 9.34 10.7904C9.34 12.0804 10.39 13.1204 11.67 13.1204C12.95 13.1204 14 12.0804 14 10.7904V1.75041C14 1.51041 13.88 1.28041 13.69 1.14041ZM4.33 13.5004C3.87 13.5004 3.5 13.1304 3.5 12.6704C3.5 12.2104 3.87 11.8404 4.33 11.8404C4.79 11.8404 5.16 12.2104 5.16 12.6704C5.16 13.1304 4.79 13.5004 4.33 13.5004ZM11.67 11.6304C11.21 11.6304 10.84 11.2604 10.84 10.8004C10.84 10.3404 11.21 9.97041 11.67 9.97041C12.13 9.97041 12.5 10.3404 12.5 10.8004C12.5 11.2604 12.13 11.6304 11.67 11.6304Z" fill="currentColor"/>
</svg>
