<svg viewBox="0 0 16 16" fill="none" xmlns="http://www.w3.org/2000/svg">
<path d="M12.9571 3.05277C10.3834 0.476116 6.30758 0.32514 3.56366 2.59984V2.34822C3.56366 1.93555 3.22318 1.59334 2.81259 1.59334C2.402 1.59334 2.06152 1.93555 2.06152 2.34822V4.53234C2.06152 4.53234 2.08155 4.59273 2.09156 4.61286C2.09156 4.65312 2.10157 4.69338 2.11159 4.73364C2.13162 4.79403 2.15165 4.84435 2.17167 4.89468C2.1917 4.92487 2.21173 4.95507 2.23176 4.98526C2.27182 5.03559 2.31187 5.07585 2.35193 5.10604C2.37196 5.11611 2.38197 5.13624 2.39199 5.1463C2.41202 5.15637 2.43205 5.15637 2.45207 5.16643C2.50215 5.19663 2.55222 5.21676 2.60229 5.22682C2.65236 5.23689 2.69242 5.24695 2.74249 5.25702C2.76252 5.25702 2.78255 5.26709 2.81259 5.26709H4.82546C5.23605 5.25702 5.57654 4.91481 5.57654 4.50214C5.57654 4.08947 5.23605 3.74726 4.82546 3.74726H4.55508C6.70815 1.97581 9.88269 2.07646 11.8956 4.08947C12.927 5.12617 13.4979 6.50509 13.4979 7.97459C13.4979 8.38725 13.8383 8.72947 14.2489 8.72947C14.6595 8.72947 15 8.38725 15 7.97459C15 6.11255 14.269 4.35116 12.9571 3.03264V3.05277Z" fill="currentColor"/>
<path d="M13.9185 11.3766C13.9185 11.3766 13.9084 11.2961 13.8984 11.2558C13.8784 11.1954 13.8584 11.1451 13.8383 11.0948C13.8183 11.0646 13.7983 11.0344 13.7783 11.0042C13.7382 10.9538 13.6981 10.9136 13.6581 10.8834C13.6381 10.8733 13.628 10.8532 13.618 10.8431C13.598 10.8331 13.578 10.8331 13.5579 10.823C13.5079 10.7928 13.4578 10.7727 13.4077 10.7626C13.3577 10.7525 13.3176 10.7425 13.2675 10.7324C13.2475 10.7324 13.2275 10.7223 13.1974 10.7223H11.1845C10.774 10.7324 10.4335 11.0746 10.4335 11.4873C10.4335 11.9 10.774 12.2422 11.1845 12.2422H11.4549C10.4735 13.0474 9.27182 13.5104 7.98999 13.5104C6.5279 13.5104 5.14592 12.9367 4.10443 11.8899C3.07296 10.8532 2.50215 9.47428 2.50215 8.00478C2.50215 7.59211 2.16166 7.2499 1.75107 7.2499C1.33047 7.23984 1 7.58205 1 8.00478C1 9.87688 1.73104 11.6282 3.04292 12.9467C4.36481 14.2753 6.11731 15 7.98999 15C9.63233 15 11.1946 14.4364 12.4363 13.3896V13.6412C12.4363 14.0539 12.7768 14.3961 13.1874 14.3961C13.598 14.3961 13.9385 14.0539 13.9385 13.6412V11.4571C13.9385 11.4571 13.9185 11.3967 13.9084 11.3766H13.9185Z" fill="currentColor"/>
<path d="M7.49928 10.7727C7.70959 10.7727 7.91989 10.6821 8.0701 10.511L11.3247 6.73658C11.5951 6.42457 11.5651 5.94144 11.2446 5.66969C10.9342 5.39793 10.4535 5.42813 10.1831 5.75021L7.39914 8.98109L5.70672 7.66257C5.37625 7.41094 4.90558 7.46127 4.65522 7.79342C4.40486 8.12556 4.45494 8.59862 4.78541 8.85025L7.03863 10.6116C7.17883 10.7223 7.33906 10.7727 7.49928 10.7727Z" fill="currentColor"/>
</svg>
