<svg viewBox="0 0 17 16" fill="none" xmlns="http://www.w3.org/2000/svg">
<path d="M13.8481 12.93C15.1081 11.66 15.8881 9.92 15.8881 8C15.8881 4.14 12.7481 1 8.88809 1C6.96809 1 5.21809 1.78 3.95809 3.04C3.95809 3.04 3.94809 3.04 3.93809 3.05C3.92809 3.06 3.93809 3.06 3.92809 3.07C2.66809 4.33 1.88809 6.08 1.88809 8C1.88809 11.86 5.02809 15 8.88809 15C10.8081 15 12.5581 14.22 13.8181 12.96C13.8181 12.96 13.8281 12.96 13.8381 12.95C13.8481 12.94 13.8381 12.94 13.8481 12.93ZM13.3881 8C13.3881 8.79 13.1681 9.51 12.8081 10.16L6.72809 4.08C7.36809 3.72 8.09809 3.5 8.88809 3.5C11.3681 3.5 13.3881 5.52 13.3881 8ZM4.38809 8C4.38809 7.21 4.60809 6.49 4.96809 5.84L11.0481 11.92C10.4081 12.28 9.67809 12.5 8.88809 12.5C6.40809 12.5 4.38809 10.48 4.38809 8Z" fill="currentColor"/>
</svg>
