<svg viewBox="0 0 17 16" fill="none" xmlns="http://www.w3.org/2000/svg">
<path d="M13.8881 1H3.88806C3.47806 1 3.13806 1.34 3.13806 1.75V13C3.13806 13.74 3.53806 14.41 4.18806 14.76C4.48806 14.92 4.80806 15 5.13806 15C5.51806 15 5.89806 14.89 6.23806 14.67L8.88806 12.93L11.5381 14.67C12.1481 15.07 12.9381 15.11 13.5881 14.76C14.2381 14.41 14.6381 13.74 14.6381 13V1.75C14.6381 1.34 14.2981 1 13.8881 1ZM13.1381 13C13.1381 13.27 12.9581 13.4 12.8781 13.44C12.7981 13.48 12.5881 13.57 12.3681 13.42L9.30806 11.41C9.18806 11.33 9.03806 11.29 8.89806 11.29C8.75806 11.29 8.60806 11.33 8.48806 11.41L5.42806 13.42C5.19806 13.57 4.99806 13.48 4.91806 13.44C4.83806 13.4 4.65806 13.27 4.65806 13V2.5H13.1581V13H13.1381Z" fill="currentColor"/>
</svg>
