<svg viewBox="0 0 17 16" fill="none" xmlns="http://www.w3.org/2000/svg">
<path d="M13.7989 10.9933C13.8489 10.7135 13.8888 10.4237 13.8888 10.124V9.13477C13.8888 8.40537 13.7191 7.71593 13.4295 7.09643C14.2483 6.8866 15.2668 6.41699 15.806 5.33786C15.9957 4.96816 15.8459 4.51853 15.4665 4.32868C15.097 4.14883 14.6477 4.29871 14.458 4.66841C14.0586 5.47775 13.0201 5.68758 12.5009 5.74753C12.421 5.6576 12.3311 5.58766 12.2412 5.50773C12.2812 5.2979 12.3111 5.08807 12.3111 4.86825C12.3111 4.28872 12.1514 3.74916 11.8918 3.26955L12.9003 2.29034C13.1998 2.00058 13.2098 1.53096 12.9202 1.2312C12.6307 0.931449 12.1614 0.921457 11.8618 1.21122L10.9132 2.13047C10.344 1.71081 9.64508 1.45103 8.8862 1.45103C8.12732 1.45103 7.42835 1.71081 6.85919 2.13047L5.9106 1.22121C5.61104 0.931449 5.14173 0.941441 4.85216 1.2412C4.56259 1.54095 4.57257 2.01057 4.87213 2.30033L5.88064 3.27954C5.62102 3.75915 5.46126 4.29871 5.46126 4.87824C5.46126 5.09806 5.49122 5.30789 5.53116 5.51772C5.44129 5.59765 5.35142 5.66759 5.27154 5.74753C4.75231 5.68758 3.71384 5.47775 3.31443 4.66841C3.12471 4.29871 2.67538 4.14883 2.30592 4.32868C1.93647 4.51853 1.78669 4.96816 1.96643 5.33786C2.50563 6.41699 3.52412 6.87661 4.34291 7.08644C4.05334 7.70594 3.88359 8.39537 3.88359 9.12478V10.114C3.88359 10.3937 3.92353 10.6635 3.96347 10.9333C3.34439 11.2331 2.44572 11.9325 1.92649 13.5012C1.79668 13.8909 2.00637 14.3206 2.39579 14.4504C2.47567 14.4804 2.55556 14.4904 2.63544 14.4904C2.94498 14.4904 3.24454 14.2906 3.34439 13.9808C3.66392 13.0316 4.12324 12.582 4.45275 12.3721C5.27154 13.9309 6.87917 15 8.75639 15H8.98605C10.8433 15 12.4409 13.9509 13.2597 12.4221C13.6292 12.6419 14.0985 13.0916 14.3981 13.9808C14.5079 14.2906 14.7975 14.4904 15.107 14.4904C15.1869 14.4904 15.2668 14.4804 15.3467 14.4504C15.7361 14.3206 15.9558 13.8909 15.816 13.5012C15.3167 12.0124 14.428 11.323 13.769 10.9933H13.7989ZM8.77636 5.75752H9.00602C10.7435 5.75752 12.1614 7.07645 12.3511 8.76507C10.5437 9.40455 7.24862 9.40455 5.43131 8.76507C5.62102 7.07645 7.03893 5.75752 8.77636 5.75752ZM8.89618 2.94981C9.86475 2.94981 10.6636 3.66922 10.7934 4.59846C10.2442 4.37864 9.64508 4.24875 9.01601 4.24875H8.78635C8.15728 4.24875 7.55816 4.37864 7.00897 4.59846C7.13878 3.66922 7.9376 2.94981 8.90617 2.94981H8.89618ZM9.64508 13.4413V12.7418C9.64508 12.3322 9.30558 11.9924 8.89618 11.9924C8.48679 11.9924 8.14729 12.3322 8.14729 12.7418V13.4413C6.6495 13.1615 5.52117 11.8825 5.42132 10.3338C6.42983 10.6136 7.65801 10.7634 8.89618 10.7634C10.1344 10.7634 11.3625 10.6236 12.371 10.3338C12.3511 10.5836 12.3111 10.8334 12.2412 11.0632C12.1913 11.1531 12.1514 11.2431 12.1314 11.353C12.1314 11.373 12.1314 11.3829 12.1314 11.4029C11.702 12.4421 10.7734 13.2314 9.63509 13.4413H9.64508Z" fill="currentColor"/>
</svg>
