<svg viewBox="0 0 16 16" fill="none" xmlns="http://www.w3.org/2000/svg">
<path d="M14.5 13.55V8.5C14.5 7.81 13.94 7.25 13.25 7.25H10.5V2.25C10.5 1.56 9.94 1 9.25 1H2.75C2.06 1 1.5 1.56 1.5 2.25V13.55C1.21 13.65 1 13.92 1 14.25C1 14.66 1.34 15 1.75 15H14.25C14.66 15 15 14.66 15 14.25C15 13.92 14.79 13.65 14.5 13.55ZM3 2.5H9V13.5H3V2.5ZM10.5 13.5V8.75H13V13.5H10.5Z" fill="currentColor"/>
<path d="M7.25 4H4.75C4.34 4 4 4.34 4 4.75C4 5.16 4.34 5.5 4.75 5.5H7.25C7.66 5.5 8 5.16 8 4.75C8 4.34 7.66 4 7.25 4Z" fill="currentColor"/>
<path d="M7.25 6.5H4.75C4.34 6.5 4 6.84 4 7.25C4 7.66 4.34 8 4.75 8H7.25C7.66 8 8 7.66 8 7.25C8 6.84 7.66 6.5 7.25 6.5Z" fill="currentColor"/>
</svg>
