<svg viewBox="0 0 16 16" fill="none" xmlns="http://www.w3.org/2000/svg">
  <path
    fill-rule="evenodd"
    clip-rule="evenodd"
    d="M4.5835 1.75C4.5835 1.33579 4.24771 1 3.8335 1C3.41928 1 3.0835 1.33579 3.0835 1.75V3H2.75019C1.78371 3 1.00021 3.78348 1.00019 4.74996L1.00015 6.73502L1 6.75L1.00015 6.76495L1 13.25C0.999978 14.2165 1.78349 15 2.75 15H5.91659C6.33081 15 6.66659 14.6642 6.66659 14.25C6.66659 13.8358 6.33081 13.5 5.91659 13.5H2.75C2.61193 13.5 2.5 13.3881 2.5 13.25L2.50013 7.5H13.5001V8.73915C13.5001 9.15336 13.8359 9.48915 14.2501 9.48915C14.6643 9.48915 15.0001 9.15336 15.0001 8.73915V4.75C15.0001 3.7835 14.2166 3 13.2501 3H12.9165V1.75C12.9165 1.33579 12.5807 1 12.1665 1C11.7523 1 11.4165 1.33579 11.4165 1.75V3H4.5835V1.75ZM13.5001 6V4.75C13.5001 4.61193 13.3881 4.5 13.2501 4.5H2.75019C2.61212 4.5 2.50019 4.61193 2.50019 4.74999L2.50016 6H13.5001Z"
    fill="currentColor"
  />
  <path
    d="M8.5 12.7305C8.5 12.3163 8.83579 11.9805 9.25 11.9805L12.0034 11.9805L11.7982 11.8263C11.467 11.5775 11.4002 11.1074 11.6489 10.7762C11.8977 10.445 12.3678 10.3782 12.699 10.6269L14.7006 12.1303C14.8893 12.2721 15.0003 12.4945 15.0001 12.7306C15.0001 12.7872 14.9936 12.843 14.9813 12.897C14.9397 13.0804 14.831 13.2382 14.6823 13.3433L12.698 14.8285C12.3664 15.0767 11.8963 15.0091 11.6481 14.6775C11.3999 14.3459 11.4676 13.8758 11.7992 13.6276L11.9958 13.4805L9.25 13.4805C8.83579 13.4805 8.5 13.1447 8.5 12.7305Z"
    fill="currentColor"
  />
</svg>
