<svg viewBox="0 0 16 16" fill="none" xmlns="http://www.w3.org/2000/svg">
<path d="M8 1C4.14 1 1 4.14 1 8C1 11.86 4.14 15 8 15C11.86 15 15 11.86 15 8C15 4.14 11.86 1 8 1ZM10.78 9.72C11.07 10.01 11.07 10.49 10.78 10.78C10.63 10.93 10.44 11 10.25 11C10.06 11 9.87 10.93 9.72 10.78L8 9.06L6.28 10.78C6.13 10.93 5.94 11 5.75 11C5.56 11 5.37 10.93 5.22 10.78C4.93 10.49 4.93 10.01 5.22 9.72L6.94 8L5.22 6.28C4.93 5.99 4.93 5.51 5.22 5.22C5.51 4.93 5.99 4.93 6.28 5.22L8 6.94L9.72 5.22C10.01 4.93 10.49 4.93 10.78 5.22C11.07 5.51 11.07 5.99 10.78 6.28L9.06 8L10.78 9.72Z" fill="currentColor"/>
</svg>
