<svg viewBox="0 0 16 16" fill="none" xmlns="http://www.w3.org/2000/svg">
  <path
    d="M10.5555 5.44611C10.8484 5.739 10.8484 6.21388 10.5555 6.50677L9.06433 7.99793L10.5355 9.46908C10.8284 9.76197 10.8284 10.2368 10.5355 10.5297C10.2426 10.8226 9.76771 10.8226 9.47482 10.5297L8.00367 9.05859L6.55021 10.512C6.25732 10.8049 5.78245 10.8049 5.48955 10.512C5.19666 10.2192 5.19666 9.74428 5.48955 9.45138L6.94301 7.99793L5.46955 6.52446C5.17665 6.23157 5.17665 5.7567 5.46955 5.4638C5.76244 5.17091 6.23731 5.17091 6.53021 5.4638L8.00367 6.93727L9.49483 5.44611C9.78772 5.15322 10.2626 5.15322 10.5555 5.44611Z"
    fill="currentColor"
  />
  <path
    fill-rule="evenodd"
    clip-rule="evenodd"
    d="M7.99988 15.9999C12.4182 15.9999 15.9999 12.4182 15.9999 7.99988C15.9999 3.5816 12.4182 -0.00012207 7.99988 -0.00012207C3.5816 -0.00012207 -0.00012207 3.5816 -0.00012207 7.99988C-0.00012207 12.4182 3.5816 15.9999 7.99988 15.9999ZM14.4999 7.99988C14.4999 11.5897 11.5897 14.4999 7.99988 14.4999C4.41003 14.4999 1.49988 11.5897 1.49988 7.99988C1.49988 4.41003 4.41003 1.49988 7.99988 1.49988C11.5897 1.49988 14.4999 4.41003 14.4999 7.99988Z"
    fill="currentColor"
  />
</svg>
