<svg viewBox="0 0 16 16" fill="none" xmlns="http://www.w3.org/2000/svg">
<path d="M5 6C4.45 6 4 6.45 4 7C4 7.55 4.45 8 5 8C5.55 8 6 7.55 6 7C6 6.45 5.55 6 5 6Z" fill="currentColor"/>
<path d="M8 8C8.55228 8 9 7.55228 9 7C9 6.44772 8.55228 6 8 6C7.44772 6 7 6.44772 7 7C7 7.55228 7.44772 8 8 8Z" fill="currentColor"/>
<path d="M11 6C10.45 6 10 6.45 10 7C10 7.55 10.45 8 11 8C11.55 8 12 7.55 12 7C12 6.45 11.55 6 11 6Z" fill="currentColor"/>
<path d="M11.75 1H4.25C2.46 1 1 2.46 1 4.25V9.87C1 11.66 2.46 13.12 4.25 13.12H7.2L10.79 14.92C10.9 14.97 11.01 15 11.13 15C11.27 15 11.4 14.96 11.52 14.89C11.74 14.75 11.88 14.51 11.88 14.25V13.12C13.61 13.05 15 11.62 15 9.87V4.25C15 2.46 13.54 1 11.75 1ZM13.5 9.88C13.5 10.84 12.71 11.63 11.75 11.63H11.13C10.72 11.63 10.38 11.97 10.38 12.38V13.04L7.72 11.71C7.62 11.66 7.5 11.63 7.38 11.63H4.26C3.3 11.63 2.51 10.84 2.51 9.88V4.25C2.51 3.29 3.3 2.5 4.26 2.5H11.76C12.72 2.5 13.51 3.29 13.51 4.25V9.87L13.5 9.88Z" fill="currentColor"/>
</svg>
