<svg viewBox="0 0 16 16" fill="none" xmlns="http://www.w3.org/2000/svg">
  <path
    d="M11.1022 6.45701C11.3546 6.12861 11.293 5.65775 10.9646 5.4053C10.6362 5.15286 10.1654 5.21443 9.91293 5.54282L7.3579 8.86656L6.03684 7.54956C5.74349 7.25712 5.26862 7.25785 4.97618 7.55119C4.68374 7.84453 4.68447 8.31941 4.97781 8.61185L6.90306 10.5312C7.05579 10.6834 7.26667 10.7626 7.48187 10.7484C7.69707 10.7342 7.89575 10.6281 8.02718 10.4571L11.1022 6.45701Z"
    fill="currentColor"
  />
  <path
    fill-rule="evenodd"
    clip-rule="evenodd"
    d="M8 15.9999C12.4183 15.9999 16 12.4182 16 7.99988C16 3.5816 12.4183 -0.00012207 8 -0.00012207C3.58172 -0.00012207 0 3.5816 0 7.99988C0 12.4182 3.58172 15.9999 8 15.9999ZM14.5 7.99988C14.5 11.5897 11.5899 14.4999 8 14.4999C4.41015 14.4999 1.5 11.5897 1.5 7.99988C1.5 4.41003 4.41015 1.49988 8 1.49988C11.5899 1.49988 14.5 4.41003 14.5 7.99988Z"
    fill="currentColor"
  />
</svg>
