<svg viewBox="0 0 16 16" fill="none" xmlns="http://www.w3.org/2000/svg">
<path d="M10.18 5.76L7.4 8.97L5.71 7.66C5.38 7.41 4.91 7.47 4.66 7.79C4.41 8.12 4.46 8.59 4.79 8.84L7.04 10.59C7.18 10.7 7.34 10.75 7.5 10.75C7.71 10.75 7.92 10.66 8.07 10.49L11.32 6.74C11.59 6.43 11.56 5.95 11.24 5.68C10.93 5.41 10.45 5.44 10.18 5.76Z" fill="currentColor"/>
<path d="M8 1C4.14 1 1 4.14 1 8C1 11.86 4.14 15 8 15C11.86 15 15 11.86 15 8C15 4.14 11.86 1 8 1ZM8 13.5C4.97 13.5 2.5 11.03 2.5 8C2.5 4.97 4.97 2.5 8 2.5C11.03 2.5 13.5 4.97 13.5 8C13.5 11.03 11.03 13.5 8 13.5Z" fill="currentColor"/>
</svg>
