<svg viewBox="0 0 16 16" fill="none" xmlns="http://www.w3.org/2000/svg">
  <path
    fill-rule="evenodd"
    clip-rule="evenodd"
    d="M8 16C12.4183 16 16 12.4183 16 8C16 3.58172 12.4183 0 8 0C3.58172 0 0 3.58172 0 8C0 12.4183 3.58172 16 8 16ZM11.477 6.27253C11.7279 5.95889 11.6771 5.50122 11.3634 5.2503C11.0498 4.99939 10.5921 5.05024 10.3412 5.36389L7.3417 9.11325L5.58832 7.46945C5.2953 7.19474 4.83505 7.20959 4.56034 7.50261C4.28563 7.79564 4.30047 8.25589 4.5935 8.5306L6.92077 10.7124C7.06871 10.8511 7.26784 10.9217 7.47011 10.9073C7.67237 10.8928 7.85941 10.7945 7.98609 10.6362L11.477 6.27253Z"
    fill="currentColor"
  />
</svg>
