<svg viewBox="0 0 16 16" fill="none" xmlns="http://www.w3.org/2000/svg">
<path d="M4.74994 11.501C4.54994 11.501 4.35994 11.421 4.21994 11.281L2.21994 9.28098C1.92994 8.99098 1.92994 8.51098 2.21994 8.22098C2.50994 7.93098 2.98994 7.93098 3.27994 8.22098L4.67994 9.62098L8.40994 4.79098C8.65994 4.46098 9.12994 4.40098 9.45994 4.66098C9.78994 4.91098 9.84994 5.39098 9.58994 5.71098L5.33994 11.211C5.20994 11.381 5.00994 11.491 4.79994 11.501C4.77994 11.501 4.76994 11.501 4.74994 11.501Z" fill="currentColor"/>
<path d="M8.99994 11.501C8.79994 11.501 8.60994 11.421 8.46994 11.281L7.46994 10.281C7.17994 9.99098 7.17994 9.51098 7.46994 9.22098C7.75994 8.93098 8.23994 8.93098 8.52994 9.22098L8.92994 9.62098L12.6599 4.79098C12.9099 4.46098 13.3799 4.40098 13.7099 4.66098C14.0399 4.91098 14.0999 5.39098 13.8399 5.71098L9.58994 11.211C9.45994 11.381 9.25994 11.491 9.04994 11.501C9.02994 11.501 9.01994 11.501 8.99994 11.501Z" fill="currentColor"/>
</svg>
