<svg viewBox="0 0 16 16" fill="none" xmlns="http://www.w3.org/2000/svg">
<path d="M8.55098 13.76L11.551 10.51C11.831 10.21 11.811 9.73 11.511 9.45C11.211 9.17 10.731 9.19 10.451 9.49L8.00098 12.14L5.55098 9.49C5.27098 9.19 4.79098 9.17 4.49098 9.45C4.33098 9.6 4.25098 9.8 4.25098 10C4.25098 10.18 4.32098 10.36 4.45098 10.51L7.45098 13.76C7.59098 13.91 7.79098 14 8.00098 14C8.21098 14 8.41098 13.91 8.55098 13.76Z" fill="currentColor"/>
<path d="M11.511 6.55C11.811 6.27 11.831 5.79 11.551 5.49L8.55098 2.24C8.41098 2.09 8.21098 2 8.00098 2C7.79098 2 7.59098 2.09 7.45098 2.24L4.45098 5.49C4.32098 5.63 4.25098 5.82 4.25098 6C4.25098 6.2 4.33098 6.4 4.49098 6.55C4.79098 6.83 5.27098 6.81 5.55098 6.51L8.00098 3.86L10.451 6.51C10.731 6.81 11.211 6.83 11.511 6.55Z" fill="currentColor"/>
</svg>
