<svg viewBox="0 0 16 16" fill="none" xmlns="http://www.w3.org/2000/svg">
<path d="M8 1C4.14 1 1 4.14 1 8C1 11.86 4.14 15 8 15C11.86 15 15 11.86 15 8C15 4.14 11.86 1 8 1ZM8 13.5C4.97 13.5 2.5 11.03 2.5 8C2.5 4.97 4.97 2.5 8 2.5C11.03 2.5 13.5 4.97 13.5 8C13.5 11.03 11.03 13.5 8 13.5Z" fill="currentColor"/>
<path d="M9.75 7.25H8.75V4.75C8.75 4.34 8.41 4 8 4C7.59 4 7.25 4.34 7.25 4.75V8C7.25 8.41 7.59 8.75 8 8.75H9.75C10.16 8.75 10.5 8.41 10.5 8C10.5 7.59 10.16 7.25 9.75 7.25Z" fill="currentColor"/>
</svg>
