<svg viewBox="0 0 16 16" fill="none" xmlns="http://www.w3.org/2000/svg">
<path d="M9.06294 7.99884L13.7849 3.27884C14.075 2.98884 14.075 2.50884 13.7849 2.21884C13.4948 1.92884 13.0146 1.92884 12.7245 2.21884L8.0025 6.93884L3.28053 2.21884C2.99041 1.92884 2.51021 1.92884 2.22009 2.21884C1.92997 2.50884 1.92997 2.98884 2.22009 3.27884L6.94206 7.99884L2.22009 12.7188C1.92997 13.0088 1.92997 13.4888 2.22009 13.7788C2.37015 13.9288 2.56023 13.9988 2.75031 13.9988C2.94039 13.9988 3.13047 13.9288 3.28053 13.7788L8.0025 9.05884L12.7245 13.7788C12.8745 13.9288 13.0646 13.9988 13.2547 13.9988C13.4448 13.9988 13.6348 13.9288 13.7849 13.7788C14.075 13.4888 14.075 13.0088 13.7849 12.7188L9.06294 7.99884Z" fill="currentColor"/>
</svg>
