<svg viewBox="0 0 16 16" fill="none" xmlns="http://www.w3.org/2000/svg">
<path d="M9.05994 7.99884L11.7799 5.27884C12.0699 4.98884 12.0699 4.50884 11.7799 4.21884C11.4899 3.92884 11.0099 3.92884 10.7199 4.21884L7.99994 6.93884L5.27994 4.21884C4.98994 3.92884 4.50994 3.92884 4.21994 4.21884C3.92994 4.50884 3.92994 4.98884 4.21994 5.27884L6.93994 7.99884L4.21994 10.7188C3.92994 11.0088 3.92994 11.4888 4.21994 11.7788C4.36994 11.9288 4.55994 11.9988 4.74994 11.9988C4.93994 11.9988 5.12994 11.9288 5.27994 11.7788L7.99994 9.05884L10.7199 11.7788C10.8699 11.9288 11.0599 11.9988 11.2499 11.9988C11.4399 11.9988 11.6299 11.9288 11.7799 11.7788C12.0699 11.4888 12.0699 11.0088 11.7799 10.7188L9.05994 7.99884Z" fill="currentColor"/>
</svg>
