<svg viewBox="0 0 17 16" fill="none" xmlns="http://www.w3.org/2000/svg">
<path d="M6.63806 9.11V1.75C6.63806 1.34 6.29806 1 5.88806 1C5.47806 1 5.13806 1.34 5.13806 1.75V9.11C3.84806 9.45 2.88806 10.61 2.88806 12C2.88806 13.65 4.23806 15 5.88806 15C7.53806 15 8.88806 13.65 8.88806 12C8.88806 10.61 7.92806 9.44 6.63806 9.11ZM5.88806 13.5C5.05806 13.5 4.38806 12.83 4.38806 12C4.38806 11.17 5.05806 10.5 5.88806 10.5C6.71806 10.5 7.38806 11.17 7.38806 12C7.38806 12.83 6.71806 13.5 5.88806 13.5Z" fill="currentColor"/>
<path d="M14.8881 4C14.8881 2.35 13.5381 1 11.8881 1C10.2381 1 8.88806 2.35 8.88806 4C8.88806 5.39 9.84806 6.56 11.1381 6.89V14.25C11.1381 14.66 11.4781 15 11.8881 15C12.2981 15 12.6381 14.66 12.6381 14.25V6.89C13.9281 6.55 14.8881 5.39 14.8881 4ZM11.8881 5.5C11.0581 5.5 10.3881 4.83 10.3881 4C10.3881 3.17 11.0581 2.5 11.8881 2.5C12.7181 2.5 13.3881 3.17 13.3881 4C13.3881 4.83 12.7181 5.5 11.8881 5.5Z" fill="currentColor"/>
</svg>
