<svg viewBox="0 0 16 16" fill="none" xmlns="http://www.w3.org/2000/svg">
<path d="M14.7628 4.49563C14.4732 4.20578 13.9938 4.20578 13.7041 4.49563L11.397 6.80439L9.17978 4.58558L11.4869 2.27682C11.7765 1.98697 11.7765 1.50723 11.4869 1.21738C11.1973 0.927539 10.7179 0.927539 10.4282 1.21738L8.1211 3.52615L7.37204 2.77655C7.09238 2.4967 6.59301 2.4967 6.31336 2.77655L3.3171 5.77494C2.68789 6.4046 2.34831 7.23416 2.34831 8.12368C2.34831 8.57344 2.4382 9.00321 2.60799 9.41299L1.64919 10.3725C1.22971 10.7923 1 11.352 1 11.9516C1 12.5513 1.22971 13.111 1.64919 13.5308L2.46816 14.3503C2.88764 14.7701 3.44694 15 4.04619 15C4.64544 15 5.20474 14.7701 5.62422 14.3503L6.59301 13.3809C7.0025 13.5508 7.43196 13.6407 7.87141 13.6407C8.72035 13.6407 9.56929 13.3209 10.2185 12.6712L13.2147 9.67285C13.5044 9.38301 13.5044 8.90327 13.2147 8.61342L12.4757 7.87382L14.7828 5.56505C15.0724 5.27521 15.0724 4.79547 14.7828 4.50562L14.7628 4.49563ZM4.56554 13.2809C4.29588 13.5508 3.80649 13.5608 3.53683 13.2809L2.71785 12.4614C2.57803 12.3214 2.50811 12.1415 2.50811 11.9416C2.50811 11.7417 2.58801 11.5618 2.71785 11.4219L3.50687 10.6323L5.35456 12.4813L4.56554 13.2709V13.2809ZM9.14981 11.5918C8.4407 12.3014 7.28215 12.3014 6.57303 11.5918L4.38577 9.403C4.04619 9.06318 3.85643 8.60343 3.85643 8.11369C3.85643 7.62395 4.04619 7.1642 4.38577 6.82438L6.8427 4.3557L11.6067 9.12315L9.14981 11.5918Z" fill="currentColor"/>
</svg>
