<svg viewBox="0 0 16 16" xmlns="http://www.w3.org/2000/svg">
<path d="M14.719 6.79512C14.519 6.53512 14.269 6.33512 13.979 6.19512C13.829 2.93512 11.679 0.995117 8.11899 0.995117C4.55899 0.995117 2.40899 2.93512 2.25899 6.19512C1.96899 6.33512 1.71899 6.53512 1.51899 6.79512C1.19899 7.22512 1.05899 7.75512 1.14899 8.28512L1.52899 10.7451C1.60899 11.2751 1.89899 11.7451 2.32899 12.0651C2.67899 12.3251 3.09899 12.4551 3.52899 12.4551C3.62899 12.4551 3.73899 12.4551 3.83899 12.4351L4.20899 12.3851C5.31899 12.2151 6.07899 11.1951 5.91899 10.0951L5.53899 7.63512C5.39899 6.71512 4.64899 6.04512 3.75899 5.94512C4.02899 3.09512 6.24899 2.47512 8.11899 2.47512C9.98899 2.47512 12.209 3.09512 12.479 5.94512C11.589 6.04512 10.839 6.71512 10.699 7.63512L10.319 10.0951C10.209 10.7951 10.489 11.4651 10.989 11.8951C10.489 12.8451 10.069 13.4451 9.47899 13.5051C9.41899 13.1551 9.12899 12.8851 8.74899 12.8851H7.45899C7.04899 12.8851 6.70899 13.2151 6.70899 13.6251V14.2651C6.70899 14.6751 7.04899 15.0051 7.45899 15.0051H9.38899C10.949 15.0051 11.759 13.6651 12.389 12.4451C12.489 12.4651 12.599 12.4651 12.699 12.4651C13.129 12.4651 13.549 12.3351 13.899 12.0751C14.339 11.7551 14.619 11.2851 14.699 10.7551L15.079 8.29512C15.159 7.76512 15.029 7.23512 14.709 6.80512L14.719 6.79512ZM4.05899 7.85512L4.43899 10.3151C4.47899 10.6051 4.27899 10.8751 3.98899 10.9151L3.61899 10.9651C3.46899 10.9851 3.33899 10.9551 3.21899 10.8651C3.09899 10.7851 3.02899 10.6551 3.00899 10.5151L2.62899 8.05512C2.60899 7.91512 2.63899 7.77512 2.72899 7.66512C2.81899 7.55512 2.93899 7.47512 3.07899 7.45512L3.44899 7.39512C3.44899 7.39512 3.49899 7.39512 3.52899 7.39512C3.78899 7.39512 4.01899 7.58512 4.05899 7.84512V7.85512ZM13.239 10.5251C13.219 10.6651 13.139 10.7851 13.029 10.8751C12.919 10.9551 12.779 10.9951 12.629 10.9751L12.259 10.9251C11.969 10.8851 11.769 10.6151 11.809 10.3251L12.189 7.86512C12.229 7.60512 12.459 7.41512 12.719 7.41512C12.749 7.41512 12.769 7.41512 12.799 7.41512L13.169 7.47512C13.309 7.49512 13.439 7.57512 13.519 7.68512C13.599 7.79512 13.639 7.93512 13.619 8.07512L13.239 10.5351V10.5251Z" fill="currentColor"/>
</svg>
