<svg viewBox="0 0 16 16" fill="none" xmlns="http://www.w3.org/2000/svg">
<path d="M10.5 6.54L9.28 6.98L8.61 6.06C8.47 5.87 8.24 5.75 8 5.75C7.76 5.75 7.54 5.87 7.39 6.06L6.72 6.98L5.5 6.54C5.24 6.45 4.94 6.51 4.74 6.7C4.53 6.89 4.45 7.18 4.53 7.45L5.28 10.2C5.37 10.53 5.67 10.75 6 10.75H10C10.34 10.75 10.63 10.52 10.72 10.2L11.47 7.45C11.54 7.18 11.47 6.89 11.26 6.7C11.05 6.51 10.76 6.45 10.5 6.54Z" fill="currentColor"/>
<path d="M8 1C4.14 1 1 4.14 1 8C1 11.86 4.14 15 8 15C11.86 15 15 11.86 15 8C15 4.14 11.86 1 8 1ZM8 13.5C4.97 13.5 2.5 11.03 2.5 8C2.5 4.97 4.97 2.5 8 2.5C11.03 2.5 13.5 4.97 13.5 8C13.5 11.03 11.03 13.5 8 13.5Z" fill="currentColor"/>
</svg>
