<svg viewBox="0 0 16 16" fill="none" xmlns="http://www.w3.org/2000/svg">
<path d="M13.3572 2.66488C12.4572 1.60488 11.1372 1.00488 9.74719 1.00488H5.51719C5.15719 1.00488 4.84719 1.25488 4.77719 1.60488L4.39719 3.50488H3.23719C2.82719 3.50488 2.48719 3.84488 2.48719 4.25488C2.48719 4.66488 2.82719 5.00488 3.23719 5.00488H4.09719L3.79719 6.50488H2.24719C1.83719 6.50488 1.49719 6.84488 1.49719 7.25488C1.49719 7.66488 1.83719 8.00488 2.24719 8.00488H3.50719L2.28719 14.1049C2.24719 14.3249 2.29719 14.5549 2.44719 14.7249C2.59719 14.8949 2.80719 14.9949 3.02719 14.9949H6.77719C7.13719 14.9949 7.44719 14.7449 7.51719 14.3949L8.29719 10.4949H9.75719C12.1172 10.4949 14.0872 8.80488 14.4472 6.47488C14.6572 5.10488 14.2672 3.70488 13.3672 2.65488L13.3572 2.66488ZM5.63719 5.00488H9.74719C10.1572 5.00488 10.4972 5.34488 10.4972 5.75488C10.4972 6.16488 10.1572 6.50488 9.74719 6.50488H5.33719L5.63719 5.00488ZM12.9572 6.25488C12.7072 7.84488 11.3572 9.00488 9.74719 9.00488H7.66719C7.30719 9.00488 6.99719 9.25488 6.92719 9.60488L6.14719 13.5049H3.92719L5.02719 8.00488H9.73719C10.9772 8.00488 11.9872 6.99488 11.9872 5.75488C11.9872 4.51488 10.9772 3.50488 9.73719 3.50488H5.92719L6.12719 2.50488H9.73719C10.6872 2.50488 11.5872 2.91488 12.2072 3.64488C12.8272 4.36488 13.0972 5.31488 12.9472 6.25488H12.9572Z" fill="currentColor"/>
</svg>
