<svg viewBox="0 0 16 16" fill="none" xmlns="http://www.w3.org/2000/svg">
<path d="M10.96 3.5C10.83 2.1 9.67 1 8.24 1H7.75C6.32 1 5.16 2.1 5.03 3.5H1.75C1.34 3.5 1 3.84 1 4.25C1 4.66 1.34 5 1.75 5H1.99L2.88 13C3.01 14.14 3.97 15 5.12 15H10.89C12.04 15 13 14.14 13.13 12.99L14 5H14.25C14.66 5 15 4.66 15 4.25C15 3.84 14.66 3.5 14.25 3.5H10.96ZM8.24 2.5C8.84 2.5 9.35 2.93 9.46 3.5H6.52C6.64 2.93 7.14 2.5 7.74 2.5H8.24ZM11.63 12.83C11.59 13.21 11.27 13.5 10.88 13.5H5.11C4.73 13.5 4.41 13.21 4.36 12.83L3.49 5H12.46L11.61 12.83H11.63Z" fill="currentColor"/>
</svg>
