<svg viewBox="0 0 16 16" fill="none" xmlns="http://www.w3.org/2000/svg">
<path d="M8.25 13.5H4.75C3.51 13.5 2.5 12.49 2.5 11.25V4.75C2.5 3.51 3.51 2.5 4.75 2.5H11.25C12.49 2.5 13.5 3.51 13.5 4.75V9.25C13.5 9.66 13.84 10 14.25 10C14.66 10 15 9.66 15 9.25V4.75C15 2.68 13.32 1 11.25 1H4.75C2.68 1 1 2.68 1 4.75V11.25C1 13.32 2.68 15 4.75 15H8.25C8.66 15 9 14.66 9 14.25C9 13.84 8.66 13.5 8.25 13.5Z" fill="currentColor"/>
<path d="M8.39 7.15C7.26 6.89 7.26 6.53 7.26 6.21C7.26 5.81 7.59 5.48 7.99 5.48C8.39 5.48 8.72 5.81 8.72 6.21C8.72 6.61 9.06 6.96 9.47 6.96C9.88 6.96 10.22 6.62 10.22 6.21C10.22 5.24 9.6 4.43 8.74 4.12V4C8.74 3.59 8.4 3.25 7.99 3.25C7.58 3.25 7.24 3.59 7.24 4V4.12C6.38 4.43 5.75 5.25 5.75 6.22C5.75 7.49 6.5 8.28 8.05 8.62C8.23 8.66 8.8 8.79 8.8 9.63C8.8 10.08 8.44 10.44 7.99 10.44C7.54 10.44 7.18 10.08 7.18 9.63C7.18 9.22 6.84 8.88 6.43 8.88C6.02 8.88 5.68 9.22 5.68 9.63C5.68 10.64 6.34 11.49 7.24 11.8V12C7.24 12.41 7.58 12.75 7.99 12.75C8.4 12.75 8.74 12.41 8.74 12V11.8C9.64 11.49 10.3 10.64 10.3 9.63C10.3 8.36 9.58 7.43 8.38 7.16L8.39 7.15Z" fill="currentColor"/>
<path d="M13.66 11.28L12.18 13.13L11.77 12.72C11.48 12.43 11 12.43 10.71 12.72C10.42 13.01 10.42 13.49 10.71 13.78L11.71 14.78C11.85 14.92 12.04 15 12.24 15C12.25 15 12.27 15 12.28 15C12.49 14.99 12.69 14.89 12.82 14.72L14.82 12.22C15.08 11.9 15.03 11.42 14.7 11.17C14.37 10.91 13.9 10.96 13.65 11.29L13.66 11.28Z" fill="currentColor"/>
</svg>
