<svg viewBox="0 0 16 16" fill="none" xmlns="http://www.w3.org/2000/svg">
<path d="M14.5948 8.93974L14.2149 8.08112C14.1949 8.0312 14.1949 7.96131 14.2149 7.91139L14.5948 7.05277C14.9546 6.25406 14.6447 5.31556 13.8851 4.88625L13.0754 4.41701C13.0254 4.38706 12.9854 4.33714 12.9754 4.27723L12.7755 3.35871C12.5956 2.50009 11.7959 1.931 10.9262 2.02086L9.99661 2.1207C9.93663 2.1207 9.87665 2.11071 9.83667 2.07078L9.13695 1.44179C8.48721 0.852737 7.4976 0.852737 6.84786 1.44179L6.14814 2.07078C6.14814 2.07078 6.04818 2.13068 5.98821 2.1207L5.04858 2.02086C4.17893 1.94099 3.37925 2.51007 3.19932 3.35871L2.9994 4.27723C2.98941 4.33714 2.94942 4.38706 2.89944 4.41701L2.08977 4.88625C1.35006 5.32555 1.04018 6.26404 1.40004 7.06276L1.77989 7.92138C1.79988 7.9713 1.79988 8.04118 1.77989 8.0911L1.40004 8.94972C1.04018 9.74844 1.35006 10.6869 2.10976 11.1162L2.91943 11.5855C2.96941 11.6154 3.0094 11.6654 3.01939 11.7253L3.21931 12.6438C3.39924 13.5024 4.18893 14.0715 5.06858 13.9816L5.9982 13.8818C6.05818 13.8818 6.11816 13.8918 6.15814 13.9317L6.85786 14.5607C7.18773 14.8502 7.59756 15 7.99741 15C8.39725 15 8.81708 14.8502 9.13695 14.5607L9.83667 13.9317C9.83667 13.9317 9.93663 13.8718 9.99661 13.8818L10.9362 13.9816C11.8059 14.0615 12.6056 13.4924 12.7855 12.6438L12.9854 11.7253C12.9954 11.6654 13.0354 11.6154 13.0854 11.5855L13.895 11.1162C14.6547 10.6769 14.9546 9.74844 14.6048 8.94972L14.5948 8.93974ZM4.9986 6.00446C4.9986 5.45534 5.44842 5.00606 5.9982 5.00606C6.54798 5.00606 6.9978 5.45534 6.9978 6.00446C6.9978 6.55358 6.54798 7.00285 5.9982 7.00285C5.44842 7.00285 4.9986 6.55358 4.9986 6.00446ZM6.52799 10.5272C6.37805 10.6769 6.18813 10.7468 5.9982 10.7468C5.80828 10.7468 5.61836 10.6769 5.46842 10.5272C5.17853 10.2377 5.17853 9.75842 5.46842 9.46889L9.46682 5.47531C9.7567 5.18577 10.2365 5.18577 10.5264 5.47531C10.8163 5.76484 10.8163 6.24407 10.5264 6.53361L6.52799 10.5272ZM9.99661 10.9964C9.44683 10.9964 8.99701 10.5472 8.99701 9.99804C8.99701 9.44892 9.44683 8.99964 9.99661 8.99964C10.5464 8.99964 10.9962 9.44892 10.9962 9.99804C10.9962 10.5472 10.5464 10.9964 9.99661 10.9964Z" fill="currentColor"/>
</svg>
