<svg viewBox="0 0 16 16" fill="none" xmlns="http://www.w3.org/2000/svg">
<path d="M8 1C4.14 1 1 4.14 1 8C1 11.86 4.14 15 8 15C11.86 15 15 11.86 15 8C15 4.14 11.86 1 8 1ZM8 13.5C4.97 13.5 2.5 11.03 2.5 8C2.5 4.97 4.97 2.5 8 2.5C11.03 2.5 13.5 4.97 13.5 8C13.5 11.03 11.03 13.5 8 13.5Z" fill="currentColor"/>
<path d="M8.46 7.33C7.93 7.15 7.6 6.84 7.6 6.66C7.6 6.35 7.89 6.26 8.04 6.26C8.34 6.26 8.67 6.45 8.77 6.52C9.1 6.77 9.57 6.7 9.82 6.36C10.07 6.03 10 5.56 9.66 5.31C9.61 5.27 9.27 5.03 8.79 4.88V4.74C8.79 4.33 8.45 3.99 8.04 3.99C7.63 3.99 7.29 4.33 7.29 4.74V4.9C6.58 5.18 6.09 5.85 6.09 6.65C6.09 7.55 6.81 8.35 7.97 8.74C8.34 8.86 8.48 9.12 8.48 9.25C8.48 9.5 8.28 9.7 8.03 9.7C7.72 9.7 7.33 9.45 7.22 9.36C6.9 9.1 6.43 9.15 6.17 9.48C5.91 9.8 5.96 10.27 6.28 10.53C6.34 10.58 6.74 10.88 7.28 11.06V11.23C7.28 11.64 7.62 11.98 8.03 11.98C8.44 11.98 8.78 11.64 8.78 11.23V11.04C9.48 10.75 9.98 10.05 9.98 9.24C9.98 8.39 9.36 7.61 8.45 7.31L8.46 7.33Z" fill="currentColor"/>
</svg>
