<svg viewBox="0 0 16 16" fill="none" xmlns="http://www.w3.org/2000/svg">
<path d="M8 1C4.14 1 1 4.14 1 8C1 11.86 4.14 15 8 15C11.86 15 15 11.86 15 8C15 4.14 11.86 1 8 1ZM8.79 11.06V11.25C8.79 11.66 8.45 12 8.04 12C7.63 12 7.29 11.66 7.29 11.25V11.08C6.75 10.9 6.35 10.59 6.29 10.55C5.97 10.29 5.92 9.82 6.18 9.5C6.44 9.18 6.91 9.13 7.23 9.38C7.34 9.47 7.73 9.72 8.04 9.72C8.29 9.72 8.49 9.52 8.49 9.27C8.49 9.14 8.35 8.88 7.98 8.76C6.82 8.37 6.1 7.57 6.1 6.67C6.1 5.87 6.59 5.2 7.3 4.92V4.76C7.3 4.35 7.64 4.01 8.05 4.01C8.46 4.01 8.8 4.35 8.8 4.76V4.9C9.28 5.05 9.62 5.29 9.67 5.33C10 5.58 10.07 6.05 9.83 6.38C9.58 6.71 9.11 6.78 8.78 6.54C8.68 6.47 8.35 6.28 8.05 6.28C7.9 6.28 7.61 6.36 7.61 6.68C7.61 6.86 7.94 7.17 8.47 7.35C9.39 7.66 10 8.43 10 9.28C10 10.13 9.51 10.78 8.8 11.08L8.79 11.06Z" fill="currentColor"/>
</svg>
