<svg viewBox="0 0 16 16" fill="none" xmlns="http://www.w3.org/2000/svg">
<path d="M7.45 10.76C7.45 10.76 7.45 10.76 7.46 10.76C7.51 10.81 7.58 10.85 7.64 10.89C7.66 10.9 7.68 10.92 7.7 10.93C7.79 10.97 7.89 10.99 8 10.99C8.11 10.99 8.21 10.97 8.3 10.93C8.32 10.93 8.34 10.9 8.36 10.89C8.43 10.85 8.49 10.81 8.54 10.76C8.54 10.76 8.54 10.76 8.55 10.76L11.3 7.76C11.58 7.45 11.56 6.98 11.25 6.7C10.95 6.42 10.47 6.44 10.19 6.75L8.74 8.33V1.75C8.74 1.34 8.4 1 7.99 1C7.58 1 7.24 1.34 7.24 1.75V8.32L5.79 6.74C5.51 6.44 5.04 6.41 4.73 6.69C4.42 6.97 4.4 7.44 4.68 7.75L7.43 10.75L7.45 10.76Z" fill="currentColor"/>
<path d="M14.25 9C13.84 9 13.5 9.34 13.5 9.75V12.75C13.5 13.16 13.16 13.5 12.75 13.5H3.25C2.84 13.5 2.5 13.16 2.5 12.75V9.75C2.5 9.34 2.16 9 1.75 9C1.34 9 1 9.34 1 9.75V12.75C1 13.99 2.01 15 3.25 15H12.75C13.99 15 15 13.99 15 12.75V9.75C15 9.34 14.66 9 14.25 9Z" fill="currentColor"/>
</svg>
