<svg viewBox="0 0 16 16" fill="none" xmlns="http://www.w3.org/2000/svg">
<path d="M12.75 2H3.25C2.01 2 1 3.01 1 4.25V11.75C1 12.99 2.01 14 3.25 14H12.75C13.99 14 15 12.99 15 11.75V4.25C15 3.01 13.99 2 12.75 2ZM2.5 4.25C2.5 3.84 2.84 3.5 3.25 3.5H12.75C13.16 3.5 13.5 3.84 13.5 4.25V4.39C13.5 4.65 13.36 4.9 13.14 5.03L8.39 7.89C8.15 8.03 7.85 8.03 7.62 7.89L2.86 5.04C2.64 4.9 2.5 4.66 2.5 4.4V4.25ZM12.75 12.5H3.25C2.84 12.5 2.5 12.16 2.5 11.75V6.57L6.84 9.18C7.2 9.4 7.6 9.5 8 9.5C8.4 9.5 8.8 9.39 9.16 9.18L13.5 6.57V11.75C13.5 12.16 13.16 12.5 12.75 12.5Z" fill="currentColor"/>
</svg>
