<svg viewBox="0 0 16 16" fill="none" xmlns="http://www.w3.org/2000/svg">
<path d="M8.88806 1C5.02806 1 1.88806 4.14 1.88806 8C1.88806 11.86 5.02806 15 8.88806 15C12.7481 15 15.8881 11.86 15.8881 8C15.8881 4.14 12.7481 1 8.88806 1ZM9.88806 5.5C9.88806 5.09 10.2281 4.75 10.6381 4.75C11.0481 4.75 11.3881 5.09 11.3881 5.5V6.75C11.3881 7.16 11.0481 7.5 10.6381 7.5C10.2281 7.5 9.88806 7.16 9.88806 6.75V5.5ZM6.38806 5.5C6.38806 5.09 6.72806 4.75 7.13806 4.75C7.54806 4.75 7.88806 5.09 7.88806 5.5V6.75C7.88806 7.16 7.54806 7.5 7.13806 7.5C6.72806 7.5 6.38806 7.16 6.38806 6.75V5.5ZM12.6981 9.55C12.0381 11.06 10.5381 12.04 8.88806 12.04C7.23806 12.04 5.73806 11.06 5.07806 9.55C4.90806 9.17 5.07806 8.73 5.46806 8.56C5.84806 8.4 6.28806 8.56 6.45806 8.95C6.87806 9.92 7.83806 10.55 8.89806 10.55C9.95806 10.55 10.9081 9.92 11.3381 8.95C11.5081 8.57 11.9481 8.4 12.3281 8.56C12.7081 8.73 12.8781 9.17 12.7181 9.55H12.6981Z" fill="currentColor"/>
</svg>
