<svg viewBox="0 0 16 16" fill="none" xmlns="http://www.w3.org/2000/svg">
<path d="M8 15C4.14 15 1 11.86 1 8C1 4.14 4.14 1 8 1C11.86 1 15 4.14 15 8C15 11.86 11.86 15 8 15ZM8 2.5C4.97 2.5 2.5 4.97 2.5 8C2.5 11.03 4.97 13.5 8 13.5C11.03 13.5 13.5 11.03 13.5 8C13.5 4.97 11.03 2.5 8 2.5Z" fill="currentColor"/>
<path d="M8 9C7.59 9 7.25 8.66 7.25 8.25V4.75C7.25 4.34 7.59 4 8 4C8.41 4 8.75 4.34 8.75 4.75V8.25C8.75 8.66 8.41 9 8 9Z" fill="currentColor"/>
<path d="M8 10C8.55228 10 9 10.4477 9 11C9 11.5523 8.55228 12 8 12C7.44772 12 7 11.5523 7 11C7 10.4477 7.44772 10 8 10Z" fill="currentColor"/>
</svg>
