<svg viewBox="0 0 16 16" fill="none" xmlns="http://www.w3.org/2000/svg">
<path d="M1 8C1 8.41 1.34 8.75 1.75 8.75H9.32L7.94 10.14C7.65 10.43 7.65 10.91 7.94 11.2C8.09 11.35 8.28 11.42 8.47 11.42C8.66 11.42 8.86 11.35 9 11.2L11.65 8.53C11.65 8.53 11.68 8.48 11.7 8.45C11.74 8.4 11.78 8.35 11.81 8.29C11.84 8.22 11.85 8.15 11.85 8.08C11.85 8.05 11.86 8.03 11.86 8.01C11.86 7.91 11.84 7.81 11.8 7.72C11.76 7.63 11.71 7.55 11.64 7.48L8.95 4.81C8.66 4.52 8.18 4.52 7.89 4.81C7.6 5.1 7.6 5.58 7.89 5.87L9.29 7.26H1.75C1.34 7.26 1 7.6 1 8.01V8Z" fill="currentColor"/>
<path d="M12.75 1H3.25C2.01 1 1 2.01 1 3.25V4.25C1 4.66 1.34 5 1.75 5C2.16 5 2.5 4.66 2.5 4.25V3.25C2.5 2.84 2.84 2.5 3.25 2.5H12.75C13.16 2.5 13.5 2.84 13.5 3.25V12.75C13.5 13.16 13.16 13.5 12.75 13.5H3.25C2.84 13.5 2.5 13.16 2.5 12.75V11.75C2.5 11.34 2.16 11 1.75 11C1.34 11 1 11.34 1 11.75V12.75C1 13.99 2.01 15 3.25 15H12.75C13.99 15 15 13.99 15 12.75V3.25C15 2.01 13.99 1 12.75 1Z" fill="currentColor"/>
</svg>
