<svg viewBox="0 0 16 16" fill="none" xmlns="http://www.w3.org/2000/svg">
<path d="M10.75 6.25H12.5V9.25C12.5 9.66 12.84 10 13.25 10C13.66 10 14 9.66 14 9.25V5.5C14 5.5 14 5.47 14 5.45C14 5.38 13.98 5.32 13.96 5.26C13.96 5.24 13.95 5.21 13.93 5.19C13.89 5.11 13.85 5.04 13.78 4.97L10.03 1.22C9.97 1.16 9.89 1.11 9.81 1.07C9.79 1.06 9.76 1.05 9.74 1.04C9.68 1.02 9.62 1.01 9.55 1C9.53 1 9.52 1 9.5 1H4C2.9 1 2 1.9 2 3V13C2 14.1 2.9 15 4 15H8.75C9.16 15 9.5 14.66 9.5 14.25C9.5 13.84 9.16 13.5 8.75 13.5H4C3.72 13.5 3.5 13.28 3.5 13V3C3.5 2.72 3.72 2.5 4 2.5H8.75V4.25C8.75 5.35 9.65 6.25 10.75 6.25ZM11.44 4.75H10.75C10.47 4.75 10.25 4.53 10.25 4.25V3.56L11.44 4.75Z" fill="currentColor"/>
<path d="M14.06 13L14.78 12.28C15.07 11.99 15.07 11.51 14.78 11.22C14.49 10.93 14.01 10.93 13.72 11.22L13 11.94L12.28 11.22C11.99 10.93 11.51 10.93 11.22 11.22C10.93 11.51 10.93 11.99 11.22 12.28L11.94 13L11.22 13.72C10.93 14.01 10.93 14.49 11.22 14.78C11.37 14.93 11.56 15 11.75 15C11.94 15 12.13 14.93 12.28 14.78L13 14.06L13.72 14.78C13.87 14.93 14.06 15 14.25 15C14.44 15 14.63 14.93 14.78 14.78C15.07 14.49 15.07 14.01 14.78 13.72L14.06 13Z" fill="currentColor"/>
</svg>
