<svg viewBox="0 0 16 16" fill="none" xmlns="http://www.w3.org/2000/svg">
<path d="M13 11C12.16 11 11.45 11.52 11.15 12.25H9.25C8.84 12.25 8.5 11.91 8.5 11.5V4.5C8.5 4.09 8.84 3.75 9.25 3.75H11.15C11.45 4.48 12.16 5 13 5C14.1 5 15 4.1 15 3C15 1.9 14.1 1 13 1C12.16 1 11.45 1.52 11.15 2.25H9.25C8.01 2.25 7 3.26 7 4.5V7.25H4.85C4.55 6.52 3.84 6 3 6C1.9 6 1 6.9 1 8C1 9.1 1.9 10 3 10C3.84 10 4.55 9.48 4.85 8.75H7V11.5C7 12.74 8.01 13.75 9.25 13.75H11.15C11.45 14.48 12.16 15 13 15C14.1 15 15 14.1 15 13C15 11.9 14.1 11 13 11Z" fill="currentColor"/>
</svg>
