<svg viewBox="0 0 16 16" fill="none" xmlns="http://www.w3.org/2000/svg">
<path d="M15 13C15 12.89 14.97 12.79 14.93 12.7C14.92 12.67 14.9 12.65 14.88 12.62C14.84 12.56 14.8 12.5 14.75 12.45C14.75 12.45 14.74 12.43 14.73 12.42L13.23 11.17C12.91 10.9 12.44 10.95 12.17 11.27C11.93 11.56 11.95 11.98 12.2 12.25H9.99C9.58 12.25 9.24 12.59 9.24 13C9.24 13.41 9.58 13.75 9.99 13.75H12.2C11.95 14.02 11.92 14.44 12.17 14.73C12.32 14.91 12.53 15 12.75 15C12.92 15 13.09 14.94 13.23 14.83L14.73 13.58C14.73 13.58 14.74 13.56 14.75 13.55C14.8 13.5 14.84 13.44 14.88 13.38C14.9 13.35 14.92 13.33 14.93 13.3C14.97 13.21 15 13.1 15 13Z" fill="currentColor"/>
<path d="M13.33 4.46C13.23 4.41 13.12 4.37 13 4.37H9.53C9.25 4.37 9 4.22 8.87 3.97L8.46 3.2C8.07 2.46 7.31 2 6.47 2H3.25C2.01 2 1 3.01 1 4.25V6.37C1 6.37 1.01 6.42 1.02 6.45C1.02 6.51 1 6.56 1 6.62V11.74C1 12.98 2.01 13.99 3.25 13.99H6.25C6.66 13.99 7 13.65 7 13.24C7 12.83 6.66 12.49 6.25 12.49H3.25C2.84 12.49 2.5 12.15 2.5 11.74V6.62C2.5 6.21 2.84 5.87 3.25 5.87H12.75C13.16 5.87 13.5 6.21 13.5 6.62V8.5C13.5 8.91 13.84 9.25 14.25 9.25C14.66 9.25 15 8.91 15 8.5V6.62C15 5.58 14.29 4.71 13.33 4.46ZM2.5 4.51V4.25C2.5 3.84 2.84 3.5 3.25 3.5H6.47C6.75 3.5 7 3.65 7.13 3.9L7.38 4.37H3.25C2.99 4.37 2.74 4.42 2.5 4.51Z" fill="currentColor"/>
</svg>
