<svg viewBox="0 0 16 16" fill="none" xmlns="http://www.w3.org/2000/svg">
<path d="M13.7 10.49L11.63 12.72L10.77 12.01C10.45 11.74 9.98 11.79 9.71 12.11C9.44 12.43 9.49 12.9 9.81 13.17L11.21 14.34C11.35 14.46 11.52 14.51 11.69 14.51C11.89 14.51 12.09 14.43 12.24 14.27L14.79 11.52C15.07 11.22 15.05 10.74 14.75 10.46C14.45 10.18 13.97 10.2 13.69 10.5L13.7 10.49Z" fill="currentColor"/>
<path d="M13.33 4.46C13.23 4.41 13.12 4.37 13 4.37H9.53C9.25 4.37 9 4.22 8.87 3.97L8.46 3.2C8.07 2.46 7.31 2 6.47 2H3.25C2.01 2 1 3.01 1 4.25V6.37C1 6.37 1.01 6.42 1.02 6.45C1.02 6.51 1 6.56 1 6.62V11.74C1 12.98 2.01 13.99 3.25 13.99H7.25C7.66 13.99 8 13.65 8 13.24C8 12.83 7.66 12.49 7.25 12.49H3.25C2.84 12.49 2.5 12.15 2.5 11.74V6.62C2.5 6.21 2.84 5.87 3.25 5.87H12.75C13.16 5.87 13.5 6.21 13.5 6.62V8C13.5 8.41 13.84 8.75 14.25 8.75C14.66 8.75 15 8.41 15 8V6.62C15 5.58 14.29 4.71 13.33 4.46ZM2.5 4.51V4.25C2.5 3.84 2.84 3.5 3.25 3.5H6.47C6.75 3.5 7 3.65 7.13 3.9L7.38 4.37H3.25C2.99 4.37 2.74 4.42 2.5 4.51Z" fill="currentColor"/>
</svg>
