<svg viewBox="0 0 16 16" fill="none" xmlns="http://www.w3.org/2000/svg">
<path d="M13.33 4.46C13.23 4.41 13.12 4.37 13 4.37H9.53C9.25 4.37 9 4.22 8.87 3.97L8.46 3.2C8.07 2.46 7.31 2 6.47 2H3.25C2.01 2 1 3.01 1 4.25V6.37C1 6.37 1.01 6.42 1.02 6.45C1.02 6.51 1 6.56 1 6.62V11.74C1 12.98 2.01 13.99 3.25 13.99H12.75C13.99 13.99 15 12.98 15 11.74V6.62C15 5.58 14.29 4.71 13.33 4.46ZM3.25 3.5H6.47C6.75 3.5 7 3.65 7.13 3.9L7.38 4.37H3.25C2.99 4.37 2.74 4.42 2.5 4.51V4.25C2.5 3.84 2.84 3.5 3.25 3.5ZM13.5 11.75C13.5 12.16 13.16 12.5 12.75 12.5H3.25C2.84 12.5 2.5 12.16 2.5 11.75V6.63C2.5 6.22 2.84 5.88 3.25 5.88H12.75C13.16 5.88 13.5 6.22 13.5 6.63V11.75Z" fill="currentColor"/>
</svg>
