<svg viewBox="0 0 16 16" fill="none" xmlns="http://www.w3.org/2000/svg">
<path d="M14.0564 1.59708C12.9359 0.677566 11.2752 0.837481 10.3548 1.95689L9.38434 3.13627C8.93414 3.67598 8.72405 4.36562 8.79408 5.06525C8.83409 5.50502 8.99416 5.9148 9.23427 6.26461L8.09377 7.6239L7.33344 6.69439C7.67359 6.24462 7.89368 5.70491 7.95371 5.12522C8.03374 4.30565 7.78363 3.49608 7.2534 2.85642L5.96284 1.29724C5.70272 0.977408 5.22251 0.937429 4.90237 1.19729C4.58223 1.45715 4.54221 1.9369 4.80233 2.25673L6.09289 3.81591C6.36301 4.14573 6.49307 4.55552 6.45305 4.98529C6.43304 5.1552 6.39302 5.31512 6.32299 5.46504L4.15204 2.78645C3.89193 2.46662 3.42172 2.41665 3.09158 2.67651C2.77144 2.93637 2.72142 3.40612 2.98153 3.73595L5.14248 6.38455C4.59224 6.4845 4.01198 6.2946 3.63182 5.84484L2.33125 4.27567C2.06113 3.95583 1.59092 3.91586 1.27078 4.17572C0.950642 4.43558 0.910625 4.91533 1.17074 5.23516L2.47131 6.80433C3.08158 7.54394 3.97197 7.92374 4.86235 7.92374C5.30255 7.92374 5.74274 7.82379 6.15292 7.63389L7.10334 8.80327L2.94151 13.7607C2.6714 14.0805 2.71141 14.5502 3.03155 14.8201C3.17161 14.94 3.34169 15 3.51176 15C3.72186 15 3.94195 14.91 4.08201 14.7301L8.06376 9.98265L11.9254 14.7201C12.0755 14.9001 12.2856 15 12.5057 15C12.6758 15 12.8358 14.95 12.9759 14.8301C13.296 14.5702 13.3461 14.1005 13.086 13.7706L9.04419 8.81327L10.3748 7.22411C10.7049 7.36403 11.0451 7.434 11.3952 7.434C12.1555 7.434 12.9059 7.10417 13.4261 6.4745L14.3965 5.29513C14.8467 4.75541 15.0568 4.06578 14.9868 3.36615C14.9168 2.66652 14.5866 2.03685 14.0364 1.58709L14.0564 1.59708ZM13.256 4.34563L12.2856 5.52501C11.8854 6.00475 11.1751 6.07471 10.6949 5.67493C10.4648 5.48503 10.3147 5.21517 10.2847 4.91533C10.2547 4.61549 10.3448 4.31564 10.5348 4.08577L11.5053 2.90639C11.7254 2.63653 12.0555 2.49661 12.3756 2.49661C12.6258 2.49661 12.8859 2.57656 13.096 2.75647C13.3261 2.94637 13.4761 3.21622 13.5061 3.51607C13.5362 3.81591 13.4461 4.11575 13.256 4.34563Z" fill="currentColor"/>
</svg>
