<svg viewBox="0 0 16 16" fill="none" xmlns="http://www.w3.org/2000/svg">
<path d="M8 1C4.14 1 1 4.14 1 8C1 11.86 4.14 15 8 15C11.86 15 15 11.86 15 8C15 4.14 11.86 1 8 1ZM8 13.5C4.97 13.5 2.5 11.03 2.5 8C2.5 4.97 4.97 2.5 8 2.5C11.03 2.5 13.5 4.97 13.5 8C13.5 11.03 11.03 13.5 8 13.5Z" fill="currentColor"/>
<path d="M11.25 4.75C10.84 4.75 10.5 5.09 10.5 5.5V9.25C10.5 9.66 10.16 10 9.75 10H8.5C8.09 10 7.75 9.66 7.75 9.25V7.5C7.75 7.09 7.41 6.75 7 6.75C6.59 6.75 6.25 7.09 6.25 7.5V9.25C6.25 10.49 7.26 11.5 8.5 11.5H9.75C10.99 11.5 12 10.49 12 9.25V5.5C12 5.09 11.66 4.75 11.25 4.75Z" fill="currentColor"/>
<path d="M7.5 6C7.91 6 8.25 6.34 8.25 6.75V8.5C8.25 8.91 8.59 9.25 9 9.25C9.41 9.25 9.75 8.91 9.75 8.5V6.75C9.75 5.51 8.74 4.5 7.5 4.5H6.25C5.01 4.5 4 5.51 4 6.75V10.5C4 10.91 4.34 11.25 4.75 11.25C5.16 11.25 5.5 10.91 5.5 10.5V6.75C5.5 6.34 5.84 6 6.25 6H7.5Z" fill="currentColor"/>
</svg>
