<svg viewBox="0 0 16 16" fill="none" xmlns="http://www.w3.org/2000/svg">
<path d="M8 1C4.14 1 1 4.14 1 8C1 11.86 4.14 15 8 15C11.86 15 15 11.86 15 8C15 4.14 11.86 1 8 1ZM8 13.5C4.97 13.5 2.5 11.03 2.5 8C2.5 4.97 4.97 2.5 8 2.5C11.03 2.5 13.5 4.97 13.5 8C13.5 11.03 11.03 13.5 8 13.5Z" fill="currentColor"/>
<path d="M9.91 10.06H7.86C8.05 9.62 8.13 9.19 8.11 8.76H9.6C10.01 8.76 10.35 8.42 10.35 8.01C10.35 7.6 10.01 7.26 9.6 7.26H7.64C7.38 6.7 7.29 6.35 7.51 6.1C8.28 5.23 9.3 6.07 9.42 6.17C9.73 6.44 10.21 6.41 10.48 6.1C10.75 5.79 10.72 5.31 10.41 5.04C9.3 4.07 7.56 3.78 6.39 5.11C5.76 5.82 5.82 6.61 6.02 7.26H5.54C5.13 7.26 4.79 7.6 4.79 8.01C4.79 8.42 5.13 8.76 5.54 8.76H6.62C6.65 9.06 6.58 9.57 5.91 10.31C5.71 10.53 5.66 10.85 5.79 11.12C5.91 11.39 6.18 11.56 6.47 11.56H9.91C10.32 11.56 10.66 11.22 10.66 10.81C10.66 10.4 10.32 10.06 9.91 10.06Z" fill="currentColor"/>
</svg>
