<svg viewBox="0 0 16 16" fill="none" xmlns="http://www.w3.org/2000/svg">
  <g clip-path="url(#clip0_12449_3059)">
    <path
      d="M7.69518 6.07543C6.8736 6.07543 6.15218 6.51733 5.74257 7.18306H8.12376C8.50182 7.18306 8.80829 7.49885 8.80829 7.88841C8.80829 8.27797 8.50182 8.59377 8.12376 8.59377H5.3849V9.29912H8.12401C8.50207 9.29912 8.80854 9.61492 8.80854 10.0045C8.80854 10.394 8.50207 10.7098 8.12401 10.7098H5.74078C6.15007 11.3772 6.87239 11.8204 7.69518 11.8204H8.12385C8.54916 11.8204 8.89394 12.1757 8.89394 12.6139C8.89394 13.0522 8.54916 13.4074 8.12385 13.4074H7.69518C5.99967 13.4074 4.56012 12.2782 4.04619 10.7098H3.67391C3.29585 10.7098 2.98938 10.394 2.98938 10.0045C2.98938 9.61492 3.29585 9.29912 3.67391 9.29912H3.84471V8.59377H3.67366C3.2956 8.59377 2.98913 8.27797 2.98913 7.88841C2.98913 7.49885 3.2956 7.18306 3.67366 7.18306H4.04715C4.56191 5.61619 6.00073 4.48838 7.69518 4.48838H8.12385C8.54916 4.48838 8.89394 4.84365 8.89394 5.2819C8.89394 5.72015 8.54916 6.07543 8.12385 6.07543H7.69518Z"
      fill="currentColor"
    />
    <path
      fill-rule="evenodd"
      clip-rule="evenodd"
      d="M2.607 3.40713C3.90668 1.35729 6.15534 0 8.71215 0C12.7371 0 16 3.36216 16 7.50959C16 10.5409 14.0618 13.2031 11.1793 14.4064C9.99899 15.4024 8.48987 16 6.84528 16C3.06474 16 0 12.842 0 8.94644C0 6.70002 1.01914 4.69887 2.607 3.40713ZM6.88349 1.893C7.45799 1.69452 8.07291 1.58705 8.71215 1.58705C11.8865 1.58705 14.4598 4.23866 14.4598 7.50959C14.4598 8.61214 14.1198 9.67795 13.5018 10.5982C13.6252 10.0684 13.6906 9.51527 13.6906 8.94644C13.6906 5.064 10.6465 1.91418 6.88349 1.893ZM6.84528 14.413C9.77521 14.413 12.1504 11.9655 12.1504 8.94644C12.1504 5.92738 9.77521 3.47994 6.84528 3.47994C3.91536 3.47994 1.54019 5.92738 1.54019 8.94644C1.54019 11.9655 3.91536 14.413 6.84528 14.413Z"
      fill="currentColor"
    />
  </g>
  <defs>
    <clipPath id="clip0_12449_3059">
      <rect width="16" height="16" fill="white" />
    </clipPath>
  </defs>
</svg>
