<svg viewBox="0 0 16 16" fill="none" xmlns="http://www.w3.org/2000/svg">
<path d="M14.72 7.41816L8.22 2.16816C7.99 1.98816 7.69 1.94816 7.43 2.07816C7.17 2.19816 7 2.46816 7 2.75816V5.61816C3.23 6.43816 1 8.88816 1 12.2482C1 12.5682 1.21 12.8582 1.51 12.9582C1.82 13.0582 2.15 12.9582 2.35 12.6982C3.81 10.7582 5.07 10.3382 7 10.4282V13.2482C7 13.5382 7.17 13.7982 7.43 13.9282C7.53 13.9782 7.64 13.9982 7.75 13.9982C7.92 13.9982 8.08 13.9382 8.22 13.8282L14.72 8.57816C14.9 8.43816 15 8.21816 15 7.99816C15 7.77816 14.9 7.55816 14.72 7.41816ZM8.5 11.6782V9.72816C8.5 9.33816 8.21 9.01816 7.82 8.97816C7.38 8.93816 6.95 8.90816 6.55 8.90816C5.25 8.90816 4.11 9.15816 3.03 9.90816C4.06 7.91816 6.36 7.20816 7.88 6.95816C8.24 6.89816 8.51 6.58816 8.51 6.21816V4.30816L13.07 7.98816L8.51 11.6682L8.5 11.6782Z" fill="currentColor"/>
</svg>
