<svg viewBox="0 0 16 16" fill="none" xmlns="http://www.w3.org/2000/svg">
<path d="M14.25 1H10.25C9.84 1 9.5 1.34 9.5 1.75C9.5 2.16 9.84 2.5 10.25 2.5H13.5V5.75C13.5 6.16 13.84 6.5 14.25 6.5C14.66 6.5 15 6.16 15 5.75V1.75C15 1.34 14.66 1 14.25 1Z" fill="currentColor"/>
<path d="M5.75 13.5H2.5V10.25C2.5 9.84 2.16 9.5 1.75 9.5C1.34 9.5 1 9.84 1 10.25V14.25C1 14.66 1.34 15 1.75 15H5.75C6.16 15 6.5 14.66 6.5 14.25C6.5 13.84 6.16 13.5 5.75 13.5Z" fill="currentColor"/>
<path d="M5.75 1H1.75C1.34 1 1 1.34 1 1.75V5.75C1 6.16 1.34 6.5 1.75 6.5C2.16 6.5 2.5 6.16 2.5 5.75V2.5H5.75C6.16 2.5 6.5 2.16 6.5 1.75C6.5 1.34 6.16 1 5.75 1Z" fill="currentColor"/>
<path d="M14.25 9.5C13.84 9.5 13.5 9.84 13.5 10.25V13.5H10.25C9.84 13.5 9.5 13.84 9.5 14.25C9.5 14.66 9.84 15 10.25 15H14.25C14.66 15 15 14.66 15 14.25V10.25C15 9.84 14.66 9.5 14.25 9.5Z" fill="currentColor"/>
</svg>
