<svg viewBox="0 0 16 16" fill="none" xmlns="http://www.w3.org/2000/svg">
<path d="M13.8623 10.057L12.8713 6.61196C12.571 5.57344 11.8402 4.6947 10.8692 4.2054L10.7191 4.12551C10.619 4.07558 10.5088 4.03564 10.4087 3.9957C10.9393 3.4365 11.2696 2.68757 11.2696 1.85875V1.73892C11.2696 1.32951 10.9293 0.98999 10.5188 0.98999H5.50361C5.09318 0.98999 4.75283 1.32951 4.75283 1.73892V1.85875C4.75283 2.68757 5.08317 3.4365 5.61373 3.9957C5.51362 4.03564 5.40351 4.07558 5.3034 4.12551L5.15325 4.2054C4.18223 4.6947 3.45147 5.56346 3.15116 6.61196L2.16012 10.057C1.81977 11.2354 2.05001 12.4736 2.79078 13.4522C3.53155 14.4308 4.66273 14.99 5.89402 14.99H10.1184C11.3497 14.99 12.4809 14.4308 13.2217 13.4522C13.9624 12.4736 14.1927 11.2354 13.8523 10.057H13.8623ZM9.64794 2.48785C9.39768 3.07701 8.81707 3.49641 8.13636 3.49641H7.89611C7.2154 3.49641 6.63479 3.07701 6.38453 2.48785H9.64794ZM12.0304 12.5535C11.58 13.1526 10.8792 13.5021 10.1284 13.5021H5.90403C5.15325 13.5021 4.45252 13.1526 4.00204 12.5535C3.55157 11.9543 3.40142 11.1954 3.61164 10.4665L4.60267 7.02137C4.78286 6.38229 5.23333 5.84306 5.83396 5.54348L5.98411 5.4636C6.61477 5.15404 7.3155 4.98428 8.02625 4.98428C8.73699 4.98428 9.43772 5.15404 10.0684 5.4636L10.2185 5.54348C10.8192 5.84306 11.2596 6.38229 11.4498 7.02137L12.4409 10.4665C12.6511 11.1954 12.5109 11.9543 12.0504 12.5535H12.0304Z" fill="currentColor"/>
<path d="M8.00623 8.17972C8.21644 8.17972 8.32656 8.27958 8.38662 8.36945C8.60685 8.71895 9.07734 8.81881 9.42771 8.58913C9.77808 8.35946 9.87818 7.90012 9.64794 7.55062C9.42771 7.2111 9.11739 6.98143 8.75701 6.83164V6.7917C8.75701 6.38229 8.41665 6.04277 8.00623 6.04277C7.5958 6.04277 7.25544 6.38229 7.25544 6.7917V6.8616C6.69486 7.1412 6.31446 7.71039 6.31446 8.36945C6.31446 8.82879 6.52468 9.67758 7.91613 10.1369C8.14637 10.2168 8.24648 10.4465 8.24648 10.5264C8.24648 10.6562 8.13636 10.766 8.00623 10.766C7.9862 10.766 7.86608 10.7461 7.68589 10.3866C7.49569 10.0171 7.04522 9.87729 6.67484 10.057C6.30445 10.2468 6.1643 10.6961 6.34449 11.0656C6.61477 11.5948 6.94512 11.9044 7.25544 12.0742V12.174C7.25544 12.5834 7.5958 12.9229 8.00623 12.9229C8.41665 12.9229 8.75701 12.5834 8.75701 12.174V12.0941C9.33762 11.8145 9.74804 11.2254 9.74804 10.5264C9.74804 9.82737 9.27755 9.00853 8.38662 8.71895C7.97619 8.57915 7.80602 8.41938 7.80602 8.36945C7.80602 8.2596 7.89611 8.17972 7.99622 8.17972H8.00623Z" fill="currentColor"/>
</svg>
