<svg viewBox="0 0 16 16" fill="none" xmlns="http://www.w3.org/2000/svg">
<path d="M10.75 7.5H12.75C13.99 7.5 15 6.49 15 5.25V3.25C15 2.01 13.99 1 12.75 1H10.75C9.51 1 8.5 2.01 8.5 3.25V5.25C8.5 6.49 9.51 7.5 10.75 7.5ZM10 3.25C10 2.84 10.34 2.5 10.75 2.5H12.75C13.16 2.5 13.5 2.84 13.5 3.25V5.25C13.5 5.66 13.16 6 12.75 6H10.75C10.34 6 10 5.66 10 5.25V3.25Z" fill="currentColor"/>
<path d="M5.25 1H3.25C2.01 1 1 2.01 1 3.25V5.25C1 6.49 2.01 7.5 3.25 7.5H5.25C6.49 7.5 7.5 6.49 7.5 5.25V3.25C7.5 2.01 6.49 1 5.25 1ZM6 5.25C6 5.66 5.66 6 5.25 6H3.25C2.84 6 2.5 5.66 2.5 5.25V3.25C2.5 2.84 2.84 2.5 3.25 2.5H5.25C5.66 2.5 6 2.84 6 3.25V5.25Z" fill="currentColor"/>
<path d="M12.75 8.45H10.75C9.51 8.45 8.5 9.46 8.5 10.7V12.75C8.5 13.99 9.51 15 10.75 15H12.75C13.99 15 15 13.99 15 12.75V10.7C15 9.46 13.99 8.45 12.75 8.45ZM13.5 12.75C13.5 13.16 13.16 13.5 12.75 13.5H10.75C10.34 13.5 10 13.16 10 12.75V10.7C10 10.29 10.34 9.95 10.75 9.95H12.75C13.16 9.95 13.5 10.29 13.5 10.7V12.75Z" fill="currentColor"/>
<path d="M5.25 8.45H3.25C2.01 8.45 1 9.46 1 10.7V12.75C1 13.99 2.01 15 3.25 15H5.25C6.49 15 7.5 13.99 7.5 12.75V10.7C7.5 9.46 6.49 8.45 5.25 8.45ZM6 12.75C6 13.16 5.66 13.5 5.25 13.5H3.25C2.84 13.5 2.5 13.16 2.5 12.75V10.7C2.5 10.29 2.84 9.95 3.25 9.95H5.25C5.66 9.95 6 10.29 6 10.7V12.75Z" fill="currentColor"/>
</svg>
