<svg viewBox="0 0 16 16" fill="none" xmlns="http://www.w3.org/2000/svg">
<path d="M13.75 3.5H13.42C13.35 2.11 12.21 1 10.81 1C9.41 1 8.7 1.98 8 2.99C7.3 1.98 6.53 1 5.19 1C3.85 1 2.64 2.11 2.58 3.5H2.25C1.56 3.5 1 4.06 1 4.75V5.75C1 6.44 1.56 7 2.25 7H7.25V5H8.75V7H13.75C14.44 7 15 6.44 15 5.75V4.75C15 4.06 14.44 3.5 13.75 3.5ZM4.07 3.5C4.13 2.94 4.61 2.5 5.19 2.5C5.68 2.5 6.06 2.87 6.53 3.5H4.07ZM9.48 3.5C9.95 2.87 10.32 2.5 10.82 2.5C11.4 2.5 11.88 2.94 11.94 3.5H9.48Z" fill="currentColor"/>
<path d="M1.94 13C1.94 14.1 2.84 15 3.94 15H7.25V8.5H1.94V13Z" fill="currentColor"/>
<path d="M8.75 15H12.06C13.16 15 14.06 14.1 14.06 13V8.5H8.75V15Z" fill="currentColor"/>
</svg>
