<svg viewBox="0 0 16 16" fill="none" xmlns="http://www.w3.org/2000/svg">
<path d="M13.75 3.5H13.42C13.35 2.11 12.21 1 10.81 1C9.41 1 8.7 1.98 8 2.99C7.3 1.98 6.53 1 5.19 1C3.85 1 2.64 2.11 2.58 3.5H2.25C1.56 3.5 1 4.06 1 4.75V7.25C1 7.83 1.4 8.29 1.94 8.44V13C1.94 14.1 2.84 15 3.94 15H12.06C13.16 15 14.06 14.1 14.06 13V8.44C14.59 8.3 15 7.83 15 7.25V4.75C15 4.06 14.44 3.5 13.75 3.5ZM13.5 7H8.75V5H13.5V7ZM10.81 2.5C11.39 2.5 11.87 2.94 11.93 3.5H9.47C9.94 2.87 10.31 2.5 10.81 2.5ZM5.19 2.5C5.68 2.5 6.06 2.87 6.53 3.5H4.07C4.13 2.94 4.61 2.5 5.19 2.5ZM2.5 5H7.25V7H2.5V5ZM3.44 13V8.5H7.25V13.5H3.94C3.66 13.5 3.44 13.28 3.44 13ZM12.06 13.5H8.75V8.5H12.56V13C12.56 13.28 12.34 13.5 12.06 13.5Z" fill="currentColor"/>
</svg>
