<svg viewBox="0 0 16 16" fill="none" xmlns="http://www.w3.org/2000/svg">
<path d="M13.4798 4.15004C13.6498 4.15004 13.8098 4.08003 13.9298 3.97004L14.8698 3.03004C15.1498 2.75004 14.9498 2.27003 14.5498 2.27003H13.7398V1.45003C13.7398 1.05003 13.2598 0.850035 12.9798 1.13003L12.0398 2.07003C11.9198 2.19003 11.8598 2.35003 11.8598 2.52003V3.09003L11.5398 3.41004C10.4298 2.53004 9.02976 2.00003 7.50976 2.00003C3.91976 2.00003 0.999756 4.92003 0.999756 8.50003C0.999756 12.08 3.91976 15 7.49976 15C11.0798 15 13.9998 12.08 13.9998 8.50003C13.9998 6.98003 13.4698 5.58004 12.5898 4.47004L12.9098 4.15004H13.4798ZM12.4998 8.50003C12.4998 11.26 10.2598 13.5 7.49976 13.5C4.73976 13.5 2.49976 11.26 2.49976 8.50003C2.49976 5.74004 4.73976 3.50004 7.49976 3.50004C8.60976 3.50004 9.61976 3.87004 10.4498 4.49004L9.55976 5.38003C8.96976 4.99004 8.25976 4.76004 7.49976 4.76004C5.42976 4.76004 3.74976 6.44003 3.74976 8.51004C3.74976 10.58 5.42976 12.26 7.49976 12.26C9.56976 12.26 11.2498 10.58 11.2498 8.51004C11.2498 7.75004 11.0198 7.04003 10.6298 6.45003L11.5198 5.56003C12.1298 6.39003 12.5098 7.40003 12.5098 8.51004L12.4998 8.50003ZM9.74976 8.50003C9.74976 9.74004 8.73976 10.75 7.49976 10.75C6.25976 10.75 5.24976 9.74004 5.24976 8.50003C5.24976 7.26003 6.25976 6.25003 7.49976 6.25003C7.84976 6.25003 8.16976 6.34003 8.45976 6.48003L6.96976 7.97003C6.67976 8.26003 6.67976 8.74004 6.96976 9.03004C7.11976 9.18003 7.30976 9.25004 7.49976 9.25004C7.68976 9.25004 7.87976 9.18003 8.02976 9.03004L9.51976 7.54003C9.65976 7.83003 9.74976 8.16003 9.74976 8.50003Z" fill="currentColor"/>
</svg>
