<svg viewBox="0 0 16 16" fill="none" xmlns="http://www.w3.org/2000/svg">
<path d="M14.94 2.96457C14.86 2.78473 14.72 2.63487 14.53 2.55494C14.44 2.51498 14.34 2.495 14.24 2.495H11.11C10.7 2.495 10.36 2.83469 10.36 3.24431C10.36 3.65394 10.7 3.99363 11.11 3.99363H12.42L8.98997 7.42052L4.88997 6.51134C4.55997 6.44141 4.22997 6.59127 4.06997 6.88101L1.08997 12.386C0.889967 12.7457 1.02997 13.2053 1.38997 13.4051C1.49997 13.465 1.62997 13.495 1.74997 13.495C2.01997 13.495 2.26997 13.3551 2.40997 13.1053L5.13997 8.10989L9.08997 8.98909C9.33997 9.03905 9.59997 8.96911 9.77997 8.78927L13.5 5.07265V6.38146C13.5 6.79109 13.84 7.13078 14.25 7.13078C14.66 7.13078 15 6.79109 15 6.38146V3.2543C15 3.1544 14.98 3.06448 14.94 2.96457Z" fill="currentColor"/>
</svg>
