<svg viewBox="0 0 16 16" fill="none" xmlns="http://www.w3.org/2000/svg">
<path d="M11.75 3.5H11.72C11.59 2.1 10.43 1 9 1H7C5.57 1 4.4 2.1 4.28 3.5H4.25C2.73 3.5 1.5 4.73 1.5 6.25V12.25C1.5 13.77 2.73 15 4.25 15H11.75C13.27 15 14.5 13.77 14.5 12.25V6.25C14.5 4.73 13.27 3.5 11.75 3.5ZM9 2.5C9.6 2.5 10.11 2.93 10.22 3.5H5.77C5.89 2.93 6.39 2.5 6.99 2.5H9ZM13 12.25C13 12.94 12.44 13.5 11.75 13.5H4.25C3.56 13.5 3 12.94 3 12.25V6.25C3 5.56 3.56 5 4.25 5H11.75C12.44 5 13 5.56 13 6.25V12.25Z" fill="currentColor"/>
<path d="M10 8.5H8.75V7.25C8.75 6.84 8.41 6.5 8 6.5C7.59 6.5 7.25 6.84 7.25 7.25V8.5H6C5.59 8.5 5.25 8.84 5.25 9.25C5.25 9.66 5.59 10 6 10H7.25V11.25C7.25 11.66 7.59 12 8 12C8.41 12 8.75 11.66 8.75 11.25V10H10C10.41 10 10.75 9.66 10.75 9.25C10.75 8.84 10.41 8.5 10 8.5Z" fill="currentColor"/>
</svg>
