<svg viewBox="0 0 17 16" fill="none" xmlns="http://www.w3.org/2000/svg">
<path d="M8.88806 1C5.02806 1 1.88806 4.14 1.88806 8C1.88806 11.86 5.02806 15 8.88806 15C12.7481 15 15.8881 11.86 15.8881 8C15.8881 4.14 12.7481 1 8.88806 1ZM11.4181 7.94C10.8881 9.22 8.88806 10.43 8.88806 10.43C8.88806 10.43 6.88806 9.22 6.35806 7.94C6.06806 7.23 6.39806 6.42 7.10806 6.13C7.79806 5.85 8.57806 6.16 8.88806 6.83C9.19806 6.16 9.97806 5.85 10.6681 6.13C11.3781 6.42 11.7081 7.23 11.4181 7.94Z" fill="currentColor"/>
</svg>
