<svg viewBox="0 0 16 16" fill="none" xmlns="http://www.w3.org/2000/svg">
<path d="M12.525 2.08053C10.905 1.38053 9.11503 1.84053 8.00503 3.12053C6.88503 1.84053 5.09503 1.37053 3.47503 2.08053C1.44503 2.97053 0.46503 5.42053 1.30503 7.55053C2.63503 10.9305 7.39503 14.0005 7.59503 14.1305C7.71503 14.2105 7.85503 14.2505 7.99503 14.2505C8.13503 14.2505 8.27503 14.2105 8.39503 14.1305C8.59503 14.0005 13.365 10.9305 14.695 7.55053C15.535 5.42053 14.555 2.96053 12.515 2.08053H12.525ZM13.305 7.00053C12.355 9.40053 9.13503 11.8005 7.99503 12.5905C6.85503 11.8005 3.64503 9.40053 2.69503 7.00053C2.14503 5.61053 2.76503 4.02053 4.07503 3.45053C4.38503 3.31053 4.70503 3.25053 5.02503 3.25053C5.97503 3.25053 6.88503 3.83053 7.31503 4.80053C7.55503 5.34053 8.44503 5.34053 8.68503 4.80053C9.25503 3.50053 10.685 2.90053 11.925 3.45053C13.235 4.02053 13.845 5.61053 13.305 7.00053Z" fill="currentColor"/>
</svg>
