<svg viewBox="0 0 16 16" fill="none" xmlns="http://www.w3.org/2000/svg">
<path d="M8 1C4.14 1 1 4.14 1 8C1 11.86 4.14 15 8 15C11.86 15 15 11.86 15 8C15 4.14 11.86 1 8 1ZM8 13.5C4.97 13.5 2.5 11.03 2.5 8C2.5 4.97 4.97 2.5 8 2.5C11.03 2.5 13.5 4.97 13.5 8C13.5 11.03 11.03 13.5 8 13.5Z" fill="currentColor"/>
<path d="M9.78 6.13C9.09 5.85 8.31 6.16 8 6.83C7.69 6.16 6.91 5.85 6.22 6.13C5.51 6.42 5.18 7.23 5.47 7.94C6 9.22 8 10.43 8 10.43C8 10.43 10.01 9.22 10.53 7.94C10.82 7.23 10.49 6.42 9.78 6.13Z" fill="currentColor"/>
</svg>
