<svg viewBox="0 0 16 16" fill="none" xmlns="http://www.w3.org/2000/svg">
  <path
    fill-rule="evenodd"
    clip-rule="evenodd"
    d="M16 8C16 12.4183 12.4183 16 8 16C3.58172 16 0 12.4183 0 8C0 3.58172 3.58172 0 8 0C12.4183 0 16 3.58172 16 8ZM9.49818 4.90182C9.08364 4.54545 8.54545 4.36364 8 4.36364C7.45455 4.36364 6.91636 4.54545 6.50182 4.90182C6.17455 5.17818 5.99273 5.49818 5.89818 5.81818C5.81818 6.10182 5.81818 6.36364 5.81818 6.52364V6.55273C5.81818 6.95273 6.13818 7.28 6.53818 7.28727C6.93818 7.28727 7.26545 6.96727 7.27273 6.56727C7.27273 6.38545 7.27273 6.30545 7.30182 6.22545C7.31636 6.17455 7.34545 6.10909 7.44727 6.01455C7.57818 5.90546 7.77455 5.82545 8 5.82545C8.22546 5.82545 8.42182 5.90546 8.55273 6.01455C8.67636 6.12364 8.72727 6.24727 8.72727 6.34182V6.45091C8.72727 6.55273 8.68364 6.67636 8.55273 6.78545L7.95636 7.30182C7.75273 7.47636 7.57818 7.69455 7.46182 7.94182C7.34546 8.18909 7.28 8.45818 7.28 8.73455C7.28 9.13455 7.60727 9.46182 8.00727 9.46182C8.40727 9.46182 8.73455 9.13455 8.73455 8.73455C8.73455 8.68364 8.74909 8.63273 8.77091 8.57455C8.8 8.51636 8.84364 8.45818 8.90182 8.40727L9.50546 7.89091C9.92 7.53455 10.1818 7.01818 10.1818 6.45818V6.34182C10.1818 5.77455 9.91273 5.26545 9.49818 4.90909V4.90182ZM8 11.6364C8.40166 11.6364 8.72727 11.3108 8.72727 10.9091C8.72727 10.5074 8.40166 10.1818 8 10.1818C7.59834 10.1818 7.27273 10.5074 7.27273 10.9091C7.27273 11.3108 7.59834 11.6364 8 11.6364Z"
    fill="currentColor"
  />
</svg>
