<svg viewBox="0 0 16 16" fill="none" xmlns="http://www.w3.org/2000/svg">
<path d="M8 1C4.14 1 1 4.14 1 8C1 11.86 4.14 15 8 15C11.86 15 15 11.86 15 8C15 4.14 11.86 1 8 1ZM8 12C7.45 12 7 11.55 7 11C7 10.45 7.45 10 8 10C8.55 10 9 10.45 9 11C9 11.55 8.55 12 8 12ZM9.12 7.85C8.92 7.98 8.75 8.29 8.75 8.54V8.74C8.75 9.15 8.41 9.49 8 9.49C7.59 9.49 7.25 9.15 7.25 8.74V8.54C7.25 7.77 7.68 6.98 8.31 6.58C8.49 6.47 8.65 6.23 8.56 5.91C8.51 5.72 8.35 5.56 8.16 5.51C7.9 5.44 7.72 5.54 7.63 5.61C7.48 5.72 7.4 5.89 7.4 6.08C7.4 6.49 7.06 6.83 6.65 6.83C6.24 6.83 5.9 6.49 5.9 6.08C5.9 5.43 6.2 4.83 6.71 4.43C7.23 4.03 7.89 3.9 8.53 4.06C9.24 4.24 9.82 4.82 10.01 5.54C10.24 6.43 9.88 7.36 9.11 7.85H9.12Z" fill="currentColor"/>
</svg>
