<svg viewBox="0 0 16 16" fill="none" xmlns="http://www.w3.org/2000/svg">
<path d="M14.9601 7.7C14.88 7.51 12.8276 3 8.01209 3C3.19655 3 1.15421 7.51 1.0641 7.7C0.963986 7.92 0.984009 8.17 1.10415 8.38C1.14419 8.46 1.74488 9.46 2.99632 10.39L2.33556 11.67C2.14535 12.04 2.29552 12.49 2.65593 12.68C2.76606 12.74 2.8862 12.76 2.99632 12.76C3.26664 12.76 3.52693 12.61 3.6671 12.35L4.26779 11.17C5.08873 11.57 6.07987 11.87 7.25122 11.97V13.25C7.25122 13.66 7.59161 14 8.00208 14C8.41255 14 8.75295 13.66 8.75295 13.25V11.97C9.92429 11.88 10.9154 11.57 11.7364 11.17L12.3371 12.35C12.4672 12.61 12.7375 12.76 13.0078 12.76C13.128 12.76 13.2381 12.73 13.3482 12.68C13.7187 12.49 13.8588 12.04 13.6686 11.67L13.0078 10.39C14.2493 9.46 14.85 8.46 14.9 8.38C15.0202 8.17 15.0302 7.92 14.9401 7.7H14.9601ZM8.01209 10.5C4.8885 10.5 3.19655 8.7 2.6259 7.95C3.15651 7 4.84845 4.5 8.01209 4.5C11.1757 4.5 12.8677 6.99 13.3983 7.95C12.8276 8.7 11.1357 10.5 8.01209 10.5Z" fill="currentColor"/>
</svg>
