<svg viewBox="0 0 17 16" fill="none" xmlns="http://www.w3.org/2000/svg">
<path d="M9.04106 3.99572C8.63053 3.99572 8.29009 4.33524 8.29009 4.74465V7.99001C8.29009 8.32953 8.52039 8.6291 8.86083 8.71897L10.8634 9.21826C10.9235 9.23823 10.9836 9.23823 11.0436 9.23823C11.3841 9.23823 11.6845 9.00856 11.7746 8.66904C11.8747 8.26961 11.6344 7.8602 11.2239 7.76034L9.79202 7.40086V4.73466C9.79202 4.32525 9.45158 3.98573 9.04106 3.98573V3.99572Z" fill="currentColor"/>
<path d="M9.04106 1C6.96839 1 5.03591 1.9087 3.72422 3.42653L3.52397 2.16833C3.45388 1.75892 3.06337 1.47932 2.66286 1.54922C2.25233 1.61912 1.97197 1.99857 2.03205 2.40799L2.55272 5.61341C2.55272 5.61341 2.57274 5.65335 2.57274 5.67332C2.58276 5.73324 2.60278 5.78317 2.63282 5.84308C2.65285 5.88302 2.67287 5.91298 2.6929 5.94294C2.72294 5.98288 2.76299 6.02282 2.80304 6.06277C2.82306 6.07275 2.83308 6.09272 2.84309 6.1127C2.87313 6.13267 2.90317 6.14265 2.92319 6.15264C2.94322 6.16262 2.95323 6.1826 2.97326 6.19258C2.98327 6.19258 2.99328 6.19258 3.0033 6.19258C3.09341 6.22254 3.18353 6.2525 3.27364 6.2525C3.31369 6.2525 3.35375 6.2525 3.3938 6.2525L6.35761 5.77318C6.76814 5.70328 7.0485 5.32382 6.9784 4.91441C6.90832 4.50499 6.51781 4.22539 6.1173 4.29529L4.75555 4.51498C5.78687 3.26676 7.32886 2.51783 9.001 2.51783C12.0349 2.51783 14.5081 4.98431 14.5081 8.00999C14.5081 11.0357 12.0349 13.5021 9.001 13.5021C6.14734 13.5021 3.73424 11.2853 3.50394 8.44936C3.4739 8.03994 3.12345 7.74037 2.6929 7.76034C2.28237 7.7903 1.97197 8.14979 2.00201 8.56919C2.29238 12.174 5.35632 15 8.99099 15C12.856 15 16 11.8645 16 8.00999C16 4.15549 12.906 1 9.04106 1Z" fill="currentColor"/>
</svg>
