<svg viewBox="0 0 16 16" fill="none" xmlns="http://www.w3.org/2000/svg">
<path d="M13.5 8.44045C14.03 7.71045 14.43 7.03045 14.69 6.41045C15.53 4.37045 14.6 2.17045 12.51 1.31045C10.9 0.65045 9.11 1.09045 8 2.31045C6.89 1.09045 5.1 0.64045 3.49 1.31045C1.4 2.18045 0.469998 4.37045 1.31 6.41045C1.57 7.05045 2 7.76045 2.56 8.52045C2.43 8.58045 2.3 8.62045 2.18 8.70045C1.45 9.18045 1.02 10.0005 1.02 10.8805V11.7505C1.02 12.1604 1.36 12.5005 1.77 12.5005C2.18 12.5005 2.52 12.1604 2.52 11.7505V10.8805C2.52 10.5005 2.71 10.1504 3.02 9.94045C3.4 9.69045 3.89 9.69045 4.31 9.97045C4.95 10.4005 5.69 10.6205 6.46 10.6205H8.32C8.42 10.6205 8.51 10.7005 8.51 10.8105C8.51 10.8905 8.45 10.9504 8.38 10.9804C8.3 10.9804 8.22 11.0005 8.14 11.0005H5.53C5.12 11.0005 4.78 11.3405 4.78 11.7505C4.78 12.1604 5.12 12.5005 5.53 12.5005H8.33C8.47 12.5005 8.6 12.4804 8.72 12.4504C9.41 12.3405 10.07 12.0605 10.61 11.6005L12.55 9.98045C12.78 9.79045 13.11 9.80045 13.33 10.0205C13.45 10.1405 13.51 10.2905 13.5 10.4504C13.5 10.6104 13.42 10.7605 13.3 10.8705L10.9 12.9305C10.47 13.3005 9.92 13.5005 9.36 13.5005H3.64C3.23 13.5005 2.89 13.8405 2.89 14.2505C2.89 14.6604 3.23 15.0005 3.64 15.0005H9.34C10.26 15.0005 11.16 14.6705 11.86 14.0704L14.26 12.0105C14.7 11.6305 14.96 11.0905 14.98 10.5105C15 9.93045 14.78 9.37045 14.37 8.96045C14.12 8.71045 13.82 8.54045 13.5 8.44045ZM8.31 9.13045H6.45C5.98 9.13045 5.53 8.99045 5.09 8.70045C4.85 8.54045 4.6 8.43045 4.33 8.36045C3.54 7.41045 2.98 6.56045 2.69 5.84045C2.16 4.56045 2.74 3.24045 4.06 2.69045C5.31 2.17045 6.74 2.73045 7.32 3.97045C7.57 4.50045 8.43 4.50045 8.68 3.97045C9.25 2.73045 10.68 2.18045 11.94 2.69045C13.26 3.24045 13.84 4.56045 13.31 5.84045C12.85 6.96045 11.76 8.40045 10.15 10.0205L9.9 10.2304C9.66 9.58045 9.05 9.12045 8.32 9.12045L8.31 9.13045Z" fill="currentColor"/>
</svg>
