<svg viewBox="0 0 16 16" fill="none" xmlns="http://www.w3.org/2000/svg">
<path d="M14.91 6.45763C14.89 6.3775 14.87 6.29738 14.84 6.22727L13.39 2.71186C13.08 1.97072 12.35 1.5 11.55 1.5H4.44C3.64 1.5 2.92 1.98074 2.6 2.72188L1.15 6.21726C1.12 6.29738 1.1 6.3775 1.08 6.45763C1.03 6.6379 1 6.81818 1 6.99846V12.4969C1 13.5986 1.9 14.5 3 14.5H13C14.1 14.5 15 13.5986 15 12.4969V6.99846C15 6.80817 14.97 6.62789 14.92 6.44761L14.91 6.45763ZM3.98 3.29276C4.06 3.11248 4.24 2.9923 4.44 2.9923H11.54C11.74 2.9923 11.92 3.11248 12 3.28274L13.12 5.99692H11.74C10.64 5.99692 9.74 6.89831 9.74 8C9.74 8.28043 9.52 8.50077 9.24 8.50077H6.74C6.46 8.50077 6.24 8.28043 6.24 8C6.24 6.89831 5.34 5.99692 4.24 5.99692H2.86L3.98 3.29276ZM12.99 13.0077H2.99C2.71 13.0077 2.49 12.7874 2.49 12.5069V7.49923H4.24C4.52 7.49923 4.74 7.71957 4.74 8C4.74 9.1017 5.64 10.0031 6.74 10.0031H9.24C10.34 10.0031 11.24 9.1017 11.24 8C11.24 7.71957 11.46 7.49923 11.74 7.49923H13.49V12.5069C13.49 12.7874 13.27 13.0077 12.99 13.0077Z" fill="currentColor"/>
</svg>
