<svg viewBox="0 0 16 16" fill="none" xmlns="http://www.w3.org/2000/svg">
<path d="M14.38 6.23V5.25C14.38 4.58 14 4 13.44 3.71V2.75C13.44 1.79 12.65 1 11.69 1H4.31C3.35 1 2.56 1.79 2.56 2.75V3.71C2.01 4 1.62 4.58 1.62 5.25V6.23C1.24 6.48 1 6.9 1 7.38V13C1 14.1 1.9 15 3 15H13C14.1 15 15 14.1 15 13V7.38C15 6.9 14.75 6.48 14.38 6.23ZM11.75 6C10.65 6 9.75 6.9 9.75 8C9.75 8.28 9.53 8.5 9.25 8.5H6.75C6.47 8.5 6.25 8.28 6.25 8C6.25 6.9 5.35 6 4.25 6H3.13V5.25C3.13 5.11 3.24 5 3.38 5H12.63C12.77 5 12.88 5.11 12.88 5.25V6H11.75ZM4.31 2.5H11.69C11.83 2.5 11.94 2.61 11.94 2.75V3.5H4.06V2.75C4.06 2.61 4.17 2.5 4.31 2.5ZM13.5 13C13.5 13.28 13.28 13.5 13 13.5H3C2.72 13.5 2.5 13.28 2.5 13V7.5H4.25C4.53 7.5 4.75 7.72 4.75 8C4.75 9.1 5.65 10 6.75 10H9.25C10.35 10 11.25 9.1 11.25 8C11.25 7.72 11.47 7.5 11.75 7.5H13.5V13Z" fill="currentColor"/>
</svg>
