<svg viewBox="0 0 16 16" fill="none" xmlns="http://www.w3.org/2000/svg">
<path d="M8.85577 13.5021H7.13673C6.98681 13.5021 6.86688 13.3823 6.86688 13.2325V12.6334C6.86688 12.3238 6.67698 12.0542 6.39714 11.9444C6.03734 11.7946 5.68753 11.5949 5.37771 11.3552C5.13784 11.1655 4.80802 11.1455 4.53817 11.2953L4.00847 11.5949C3.88853 11.6748 3.71863 11.6248 3.64867 11.495L2.78914 10.0071C2.73917 9.92725 2.74917 9.84736 2.75916 9.80742C2.76916 9.76748 2.79914 9.69758 2.87909 9.64765L3.39881 9.34807C3.66866 9.19829 3.80858 8.89872 3.7686 8.58916C3.73862 8.39943 3.71863 8.19971 3.71863 8C3.71863 7.80028 3.73862 7.61056 3.7686 7.41084C3.80858 7.11127 3.66866 6.8117 3.39881 6.65193L2.87909 6.35235C2.79914 6.30242 2.76916 6.23252 2.74917 6.19258C2.74917 6.15264 2.72918 6.07275 2.77915 5.99287L3.63867 4.50499C3.70863 4.37518 3.87854 4.33524 3.99847 4.40514L4.51818 4.70471C4.78803 4.85449 5.11785 4.83452 5.35772 4.64479C5.66755 4.40514 6.01735 4.20542 6.37715 4.05563C6.657 3.94579 6.84689 3.66619 6.84689 3.36662V2.76747C6.84689 2.61769 6.96682 2.49786 7.11674 2.49786H8.83579C8.9857 2.49786 9.10564 2.61769 9.10564 2.76747V3.36662C9.10564 3.67618 9.29553 3.94579 9.57537 4.05563C9.93517 4.20542 10.285 4.40514 10.5948 4.64479C10.8347 4.83452 11.1645 4.85449 11.4343 4.70471L11.964 4.40514C12.094 4.33524 12.2539 4.37518 12.3238 4.50499L13.1834 5.99287C13.2333 6.07275 13.2233 6.15264 13.2134 6.19258C13.2034 6.23252 13.1734 6.30242 13.0934 6.35235L12.5737 6.65193C12.2139 6.86163 12.094 7.32097 12.2939 7.67047C12.5037 8.02996 12.9635 8.14979 13.3233 7.95007L13.853 7.6505C14.2628 7.41084 14.5526 7.03138 14.6725 6.58203C14.7925 6.12268 14.7325 5.65335 14.4926 5.24394L13.6331 3.75606C13.1434 2.91726 12.064 2.62767 11.2145 3.10699L11.1045 3.1669C10.9446 3.06705 10.7847 2.96719 10.6148 2.8873V2.76747C10.6148 1.79886 9.82524 1 8.84578 1H7.12674C6.14728 1 5.35772 1.78887 5.35772 2.76747V2.8873C5.18781 2.97718 5.0279 3.06705 4.86799 3.1669L4.75805 3.10699C3.91852 2.61769 2.82912 2.90728 2.33939 3.75606L1.47987 5.24394C1.25999 5.66334 1.20003 6.14265 1.31996 6.59201C1.43989 7.05135 1.72973 7.43081 2.13951 7.66048L2.23945 7.7204C2.23945 7.81027 2.23945 7.91013 2.23945 8C2.23945 8.08987 2.23945 8.18973 2.23945 8.2796L2.12951 8.33951C1.71974 8.57917 1.4299 8.95863 1.30997 9.40799C1.19003 9.86733 1.25 10.3367 1.48987 10.7461L2.34939 12.234C2.83912 13.0728 3.91852 13.3623 4.76805 12.883L4.87798 12.8231C5.0379 12.923 5.19781 13.0228 5.36771 13.1027V13.2225C5.36771 14.1912 6.15727 14.99 7.13673 14.99H8.85577C9.26555 14.99 9.60536 14.6505 9.60536 14.2411C9.60536 13.8317 9.26555 13.4922 8.85577 13.4922V13.5021Z" fill="currentColor"/>
<path d="M7.99625 5.01427C6.33717 5.01427 4.99792 6.36234 4.99792 8.00999C4.99792 9.65763 6.34717 11.0057 7.99625 11.0057C9.64534 11.0057 10.9946 9.65763 10.9946 8.00999C10.9946 6.36234 9.64534 5.01427 7.99625 5.01427ZM7.99625 9.50785C7.16671 9.50785 6.49708 8.8388 6.49708 8.00999C6.49708 7.18117 7.16671 6.51213 7.99625 6.51213C8.82579 6.51213 9.49542 7.18117 9.49542 8.00999C9.49542 8.8388 8.82579 9.50785 7.99625 9.50785Z" fill="currentColor"/>
<path d="M14.5326 11.9743C14.2428 11.6847 13.763 11.6847 13.4732 11.9743L13.0035 12.4437V9.75749C13.0035 9.34807 12.6637 9.00856 12.2539 9.00856C11.8441 9.00856 11.5043 9.34807 11.5043 9.75749V12.4437L11.0346 11.9743C10.7447 11.6847 10.265 11.6847 9.97515 11.9743C9.68531 12.2639 9.68531 12.7432 9.97515 13.0328L11.7242 14.7803C11.7941 14.8502 11.8741 14.9001 11.964 14.9401C12.054 14.98 12.1539 15 12.2539 15C12.3538 15 12.4538 14.98 12.5437 14.9401C12.6337 14.9001 12.7136 14.8502 12.7836 14.7803L14.5326 13.0328C14.8225 12.7432 14.8225 12.2639 14.5326 11.9743Z" fill="currentColor"/>
</svg>
