<svg viewBox="0 0 16 16" fill="none" xmlns="http://www.w3.org/2000/svg">
<path d="M11.75 7.97C12.04 7.97 12.34 7.86 12.56 7.64C13.32 6.89 14.6 5.4 14.6 3.8C14.6 3.06 14.29 2.34 13.75 1.82C12.67 0.78 10.8 0.77 9.73 1.82C9.19 2.34 8.89 3.06 8.89 3.8C8.89 5.41 10.17 6.9 10.93 7.64C11.16 7.86 11.45 7.98 11.74 7.98L11.75 7.97ZM10.78 2.89C11.03 2.64 11.39 2.5 11.75 2.5C12.11 2.5 12.46 2.64 12.72 2.89C12.97 3.13 13.11 3.46 13.11 3.8C13.11 4.75 12.25 5.8 11.75 6.33C11.25 5.8 10.39 4.75 10.39 3.8C10.39 3.46 10.53 3.14 10.78 2.89Z" fill="currentColor"/>
<path d="M14.25 7.25C13.84 7.25 13.5 7.59 13.5 8C13.5 8.38 12.7 8.99 11.19 9.38C11.19 9.36 11.19 9.34 11.19 9.31C11.22 8.9 10.92 8.54 10.5 8.5C10.09 8.48 9.73 8.77 9.69 9.19C9.68 9.35 9.65 9.5 9.64 9.65C9.13 9.71 8.59 9.75 7.99 9.75C7.39 9.75 6.85 9.71 6.34 9.65C6.28 9.14 6.24 8.6 6.24 8C6.24 7.4 6.28 6.86 6.34 6.35C6.85 6.29 7.39 6.25 7.99 6.25C8.4 6.25 8.74 5.91 8.74 5.5C8.74 5.09 8.4 4.75 7.99 4.75C7.53 4.75 7.07 4.77 6.61 4.81C7 3.3 7.61 2.5 7.99 2.5C8.4 2.5 8.74 2.16 8.74 1.75C8.74 1.34 8.4 1 7.99 1C4.14 1 1 4.14 1 8C1 11.86 4.14 15 8 15C11.86 15 15 11.86 15 8C15 7.59 14.66 7.25 14.25 7.25ZM8 11.25C8.46 11.25 8.92 11.23 9.37 11.19C8.97 12.72 8.35 13.5 8 13.5C7.62 13.5 7.01 12.7 6.62 11.19C7.07 11.23 7.54 11.25 8 11.25ZM4.81 9.38C3.3 8.99 2.5 8.38 2.5 8C2.5 7.62 3.3 7.01 4.81 6.62C4.77 7.07 4.75 7.54 4.75 8C4.75 8.46 4.77 8.92 4.81 9.38ZM5.65 3.04C5.39 3.63 5.18 4.31 5.04 5.04C4.31 5.19 3.63 5.39 3.04 5.65C3.58 4.51 4.51 3.58 5.65 3.04ZM3.04 10.35C3.63 10.61 4.31 10.82 5.04 10.96C5.19 11.69 5.39 12.37 5.65 12.96C4.51 12.42 3.58 11.49 3.04 10.35ZM10.34 12.97C10.6 12.4 10.8 11.73 10.96 10.97C11.7 10.82 12.38 10.62 12.97 10.36C12.42 11.51 11.5 12.43 10.35 12.98L10.34 12.97Z" fill="currentColor"/>
</svg>
