<svg viewBox="0 0 16 16" fill="none" xmlns="http://www.w3.org/2000/svg">
<path d="M14.25 10.25H14V4.25C14 3.01 12.99 2 11.75 2H4.25C3.01 2 2 3.01 2 4.25V10.25H1.75C1.34 10.25 1 10.59 1 11V11.75C1 12.99 2.01 14 3.25 14H12.75C13.99 14 15 12.99 15 11.75V11C15 10.59 14.66 10.25 14.25 10.25ZM3.5 4.25C3.5 3.84 3.84 3.5 4.25 3.5H6.05C6.15 3.79 6.42 4 6.75 4H9.25C9.58 4 9.85 3.79 9.95 3.5H11.75C12.16 3.5 12.5 3.84 12.5 4.25V10.25H3.5V4.25ZM12.75 12.5H3.25C2.84 12.5 2.5 12.16 2.5 11.75H13.5C13.5 12.16 13.16 12.5 12.75 12.5Z" fill="currentColor"/>
</svg>
