<svg viewBox="0 0 16 16" fill="none" xmlns="http://www.w3.org/2000/svg">
<path d="M11.22 2.15385C10.06 1.19385 8.51996 0.803852 7.00996 1.09385C5.02996 1.47385 3.45996 3.03385 3.08996 4.98385C2.77996 6.62385 3.27996 8.23385 4.46996 9.39385C4.65996 9.57385 4.74996 9.82385 4.74996 10.1439V11.0039C4.74996 11.4139 5.08996 11.7539 5.49996 11.7539H7.24996V8.52385L6.16996 7.23385C5.89996 6.91385 5.94996 6.44385 6.26996 6.17385C6.58996 5.90385 7.05996 5.95385 7.32996 6.27385L7.99996 7.08385L8.66996 6.27385C8.93996 5.95385 9.40996 5.91385 9.72996 6.17385C10.05 6.44385 10.09 6.91385 9.82996 7.23385L8.74996 8.52385V11.7539H10.5C10.91 11.7539 11.25 11.4139 11.25 11.0039V10.1439C11.25 9.82385 11.34 9.58385 11.52 9.40385C12.48 8.47385 13 7.23385 13 5.91385C13 4.46385 12.35 3.09385 11.22 2.15385Z" fill="currentColor"/>
<path d="M5.74996 14.0039C5.74996 14.5539 6.19996 15.0039 6.74996 15.0039H9.24996C9.79996 15.0039 10.25 14.5539 10.25 14.0039V13.0039H5.74996V14.0039Z" fill="currentColor"/>
</svg>
