<svg viewBox="0 0 16 16" fill="none" xmlns="http://www.w3.org/2000/svg">
<path d="M8.18 9.94C7.61 10.51 6.63 10.51 6.06 9.94C5.78 9.66 5.62 9.28 5.62 8.88C5.62 8.48 5.78 8.1 6.06 7.82C6.34 7.54 6.35 7.05 6.06 6.76C5.77 6.47 5.29 6.47 5 6.76C4.43 7.33 4.12 8.08 4.12 8.88C4.12 9.68 4.43 10.43 5 11C5.57 11.57 6.32 11.88 7.12 11.88C7.92 11.88 8.67 11.57 9.24 11C9.53 10.71 9.53 10.23 9.24 9.94C8.95 9.65 8.47 9.65 8.18 9.94Z" fill="currentColor"/>
<path d="M6.76 5C6.47 5.29 6.47 5.77 6.76 6.06C7.05 6.35 7.53 6.35 7.82 6.06C8.39 5.49 9.37 5.49 9.94 6.06C10.22 6.34 10.38 6.72 10.38 7.12C10.38 7.52 10.22 7.9 9.94 8.18C9.66 8.46 9.65 8.95 9.94 9.24C10.09 9.39 10.28 9.46 10.47 9.46C10.66 9.46 10.85 9.39 11 9.24C11.57 8.67 11.88 7.92 11.88 7.12C11.88 6.32 11.57 5.57 11 5C9.87 3.87 7.89 3.87 6.76 5Z" fill="currentColor"/>
<path d="M8.35 6.59L6.58 8.36C6.29 8.65 6.29 9.13 6.58 9.42C6.73 9.57 6.92 9.64 7.11 9.64C7.3 9.64 7.49 9.57 7.64 9.42L9.41 7.65C9.7 7.36 9.7 6.88 9.41 6.59C9.12 6.3 8.64 6.3 8.35 6.59Z" fill="currentColor"/>
<path d="M8 1C4.14 1 1 4.14 1 8C1 11.86 4.14 15 8 15C11.86 15 15 11.86 15 8C15 4.14 11.86 1 8 1ZM8 13.5C4.97 13.5 2.5 11.03 2.5 8C2.5 4.97 4.97 2.5 8 2.5C11.03 2.5 13.5 4.97 13.5 8C13.5 11.03 11.03 13.5 8 13.5Z" fill="currentColor"/>
</svg>
