<svg viewBox="0 0 16 16" fill="none" xmlns="http://www.w3.org/2000/svg">
<path d="M8.39499 11.1535L7.36499 12.1847C6.41499 13.1357 4.77499 13.1257 3.82499 12.1847C3.35499 11.7142 3.09499 11.0835 3.09499 10.4127C3.09499 9.74196 3.35499 9.12127 3.82499 8.64074L4.85499 7.60959C5.14499 7.31927 5.14499 6.83873 4.85499 6.54841C4.56499 6.25809 4.08499 6.25809 3.79499 6.54841L2.76499 7.57956C2.00499 8.3404 1.59499 9.34152 1.59499 10.4127C1.59499 11.4839 2.01499 12.485 2.76499 13.2459C3.51499 14.0067 4.52499 14.4172 5.59499 14.4172C6.66499 14.4172 7.66499 13.9967 8.42499 13.2459L9.45499 12.2147C9.74499 11.9244 9.74499 11.4439 9.45499 11.1535C9.16499 10.8632 8.68499 10.8632 8.39499 11.1535Z" fill="currentColor"/>
<path d="M12.895 5.60737C12.895 6.27811 12.635 6.90881 12.165 7.37934L11.135 8.41048C10.845 8.7008 10.845 9.18134 11.135 9.47166C11.285 9.62183 11.475 9.69191 11.665 9.69191C11.855 9.69191 12.045 9.62183 12.195 9.47166L13.225 8.44052C13.985 7.67967 14.395 6.67856 14.395 5.60737C14.395 4.53618 13.975 3.53506 13.225 2.77422C11.715 1.26254 9.08499 1.26254 7.56499 2.77422L6.53499 3.80536C6.24499 4.09569 6.24499 4.57622 6.53499 4.86654C6.82499 5.15687 7.30499 5.15687 7.59499 4.86654L8.62499 3.8354C9.57499 2.88434 11.215 2.89435 12.165 3.8354C12.635 4.30592 12.895 4.93662 12.895 5.60737Z" fill="currentColor"/>
<path d="M4.55499 4.06565C4.55499 4.06565 4.65499 4.06565 4.70499 4.05564C5.11499 3.97555 5.37499 3.57511 5.29499 3.17466L4.98499 1.61293C4.90499 1.20247 4.50499 0.942183 4.10499 1.02227C3.69499 1.10236 3.43499 1.50281 3.51499 1.90325L3.82499 3.46499C3.89499 3.82539 4.20499 4.06565 4.55499 4.06565Z" fill="currentColor"/>
<path d="M3.16499 5.30703C3.16499 5.30703 3.26499 5.31704 3.31499 5.31704C3.66499 5.31704 3.97499 5.06677 4.04499 4.71638C4.12499 4.30592 3.86499 3.91549 3.45499 3.8354L1.89499 3.52505C1.48499 3.44496 1.09499 3.70525 1.01499 4.11571C0.934993 4.52617 1.19499 4.9166 1.60499 4.99669L3.16499 5.30703Z" fill="currentColor"/>
<path d="M11.285 11.9644C10.875 12.0445 10.615 12.445 10.695 12.8454L11.005 14.4071C11.075 14.7675 11.385 15.0078 11.735 15.0078C11.785 15.0078 11.835 15.0078 11.885 14.9978C12.295 14.9177 12.555 14.5173 12.475 14.1168L12.165 12.5551C12.085 12.1446 11.685 11.8843 11.285 11.9644Z" fill="currentColor"/>
<path d="M14.395 11.0234L12.835 10.713C12.425 10.633 12.035 10.8932 11.955 11.3037C11.875 11.7142 12.135 12.1046 12.545 12.1847L14.105 12.495C14.105 12.495 14.205 12.505 14.255 12.505C14.605 12.505 14.915 12.2548 14.985 11.9044C15.065 11.4939 14.805 11.1035 14.395 11.0234Z" fill="currentColor"/>
</svg>
