<svg viewBox="0 0 16 16" fill="none" xmlns="http://www.w3.org/2000/svg">
<path d="M7.99505 7.5C8.82348 7.5 9.49505 6.82843 9.49505 6C9.49505 5.17157 8.82348 4.5 7.99505 4.5C7.16662 4.5 6.49505 5.17157 6.49505 6C6.49505 6.82843 7.16662 7.5 7.99505 7.5Z" fill="currentColor"/>
<path d="M11.125 13.5H9.55505C11.125 11.89 13.325 9.1 13.325 6.19C13.325 4.8 12.765 3.49 11.755 2.51C10.755 1.54 9.41505 1 7.99505 1C6.57505 1 5.24505 1.54 4.24505 2.51C3.23505 3.49 2.67505 4.8 2.67505 6.19C2.67505 9.1 4.88505 11.89 6.44505 13.5H4.87505C4.46505 13.5 4.12505 13.84 4.12505 14.25C4.12505 14.66 4.46505 15 4.87505 15H11.125C11.535 15 11.875 14.66 11.875 14.25C11.875 13.84 11.535 13.5 11.125 13.5ZM5.28505 3.59C5.99505 2.9 6.98505 2.5 7.99505 2.5C9.00505 2.5 9.99505 2.9 10.705 3.59C11.425 4.29 11.815 5.21 11.815 6.19C11.815 8.9 9.21505 11.74 8.09505 12.83C8.03505 12.89 7.94505 12.89 7.88505 12.83C6.76505 11.74 4.16505 8.91 4.16505 6.19C4.16505 5.21 4.55505 4.28 5.27505 3.59H5.28505Z" fill="currentColor"/>
</svg>
