<svg viewBox="0 0 16 16" fill="none" xmlns="http://www.w3.org/2000/svg">
<path d="M12.75 6H11.75V4.75C11.75 2.68 10.07 1 8 1C5.93 1 4.25 2.68 4.25 4.75V6H3.25C2.29 6 1.5 6.79 1.5 7.75V13.25C1.5 14.21 2.29 15 3.25 15H12.75C13.71 15 14.5 14.21 14.5 13.25V7.75C14.5 6.79 13.71 6 12.75 6ZM5.75 4.75C5.75 3.51 6.76 2.5 8 2.5C9.24 2.5 10.25 3.51 10.25 4.75V6H5.75V4.75ZM13 13.25C13 13.39 12.89 13.5 12.75 13.5H3.25C3.11 13.5 3 13.39 3 13.25V7.75C3 7.61 3.11 7.5 3.25 7.5H12.75C12.89 7.5 13 7.61 13 7.75V13.25Z" fill="currentColor"/>
</svg>
