<svg viewBox="0 0 16 16" fill="none" xmlns="http://www.w3.org/2000/svg">
<path d="M14 7.55468V2.74124C14 1.78056 13.22 1 12.26 1H3.74C2.78 1 2 1.78056 2 2.74124V7.55468C1.42 7.7148 1 8.24517 1 8.87563V12.9986C1 14.0994 1.9 15 3 15H13C14.1 15 15 14.0994 15 12.9986V8.87563C15 8.24517 14.58 7.7248 14 7.55468ZM11.75 7.49464C10.65 7.49464 9.75 8.39528 9.75 9.49607C9.75 9.77627 9.53 9.99643 9.25 9.99643H6.75C6.47 9.99643 6.25 9.77627 6.25 9.49607C6.25 8.39528 5.35 7.49464 4.25 7.49464H3.5V4.65261L7 6.96426C7.3 7.17441 7.65 7.27448 8 7.27448C8.35 7.27448 8.69 7.17441 8.97 6.97427L12.49 4.65261V7.49464H11.74H11.75ZM12.25 2.49107C12.39 2.49107 12.49 2.60114 12.5 2.74124C12.5 2.81129 12.46 2.88134 12.42 2.91137L8.14 5.73338C8.06 5.79342 7.95 5.79342 7.85 5.72337L3.6 2.92137C3.54 2.88134 3.51 2.81129 3.51 2.74124C3.51 2.61115 3.62 2.50107 3.76 2.50107H12.26L12.25 2.49107ZM13.5 12.9986C13.5 13.2788 13.28 13.4989 13 13.4989H3C2.72 13.4989 2.5 13.2788 2.5 12.9986V8.99571H4.25C4.53 8.99571 4.75 9.21587 4.75 9.49607C4.75 10.5969 5.65 11.4975 6.75 11.4975H9.25C10.35 11.4975 11.25 10.5969 11.25 9.49607C11.25 9.21587 11.47 8.99571 11.75 8.99571H13.5V12.9986Z" fill="currentColor"/>
</svg>
