<svg viewBox="0 0 16 16" fill="none" xmlns="http://www.w3.org/2000/svg">
<path d="M10.87 6.64C10.73 6.49 10.55 6.36 10.35 6.28C10.15 6.2 9.91 6.15 9.66 6.15C9.41 6.15 9.18 6.2 8.97 6.28C8.77 6.37 8.59 6.49 8.45 6.64C8.31 6.79 8.2 6.98 8.12 7.2C8.04 7.42 8 7.66 8 7.91C8 8.16 8.04 8.41 8.12 8.62C8.2 8.84 8.31 9.02 8.45 9.18C8.59 9.33 8.77 9.46 8.97 9.54C9.17 9.63 9.4 9.67 9.66 9.67C9.92 9.67 10.14 9.62 10.35 9.54C10.55 9.45 10.73 9.33 10.87 9.18C11.01 9.03 11.12 8.84 11.2 8.62C11.28 8.4 11.32 8.16 11.32 7.91C11.32 7.66 11.28 7.41 11.2 7.2C11.12 6.98 11.01 6.8 10.87 6.64Z" fill="currentColor"/>
<path d="M12.42 1H3.58C2.16 1 1 2.16 1 3.58V12.42C1 13.85 2.16 15 3.58 15H12.42C13.85 15 15 13.84 15 12.42V3.58C15 2.15 13.84 1 12.42 1ZM5.72 10.69C5.72 10.75 5.67 10.8 5.61 10.8H4.44C4.38 10.8 4.33 10.75 4.33 10.69V5.13C4.33 5.07 4.38 5.02 4.44 5.02H5.61C5.67 5.02 5.72 5.07 5.72 5.13V10.69ZM5.95 4.24C5.91 4.29 5.84 4.32 5.78 4.32H4.29C4.22 4.32 4.16 4.29 4.12 4.24C4.06 4.16 4.07 4.05 4.13 3.98L4.86 3.18C4.93 3.1 5.06 3.07 5.16 3.13C5.18 3.14 5.21 3.16 5.23 3.18L5.95 3.98C6.02 4.05 6.02 4.16 5.96 4.24H5.95ZM10.57 12.02L9.84 12.82C9.77 12.9 9.64 12.93 9.54 12.87C9.52 12.86 9.49 12.84 9.47 12.82L8.75 12.02C8.68 11.95 8.68 11.84 8.74 11.76C8.78 11.71 8.85 11.68 8.91 11.68H10.4C10.47 11.68 10.53 11.71 10.57 11.76C10.63 11.84 10.62 11.95 10.56 12.02H10.57ZM12.49 9.11C12.33 9.48 12.11 9.81 11.84 10.08C11.57 10.35 11.24 10.57 10.87 10.73C10.5 10.89 10.09 10.97 9.67 10.97C9.25 10.97 8.84 10.89 8.47 10.73C8.1 10.57 7.77 10.35 7.5 10.08C7.23 9.81 7.01 9.48 6.85 9.11C6.69 8.74 6.61 8.34 6.61 7.91C6.61 7.48 6.69 7.08 6.85 6.72C7.01 6.35 7.23 6.03 7.5 5.75C7.77 5.47 8.1 5.25 8.47 5.09C8.84 4.93 9.25 4.85 9.67 4.85C10.09 4.85 10.5 4.93 10.87 5.09C11.24 5.25 11.57 5.47 11.84 5.75C12.11 6.03 12.33 6.35 12.49 6.72C12.65 7.09 12.73 7.49 12.73 7.91C12.73 8.33 12.65 8.74 12.49 9.11Z" fill="currentColor"/>
</svg>
