<svg viewBox="0 0 16 16" fill="none" xmlns="http://www.w3.org/2000/svg">
<path d="M8.5 7.5C6.85 7.5 5.5 8.85 5.5 10.5C5.5 11.18 5.74 11.8 6.12 12.3L4.72 13.72C4.43 14.01 4.43 14.49 4.72 14.78C4.87 14.92 5.06 15 5.25 15C5.44 15 5.64 14.93 5.78 14.78L7.29 13.25C7.66 13.41 8.07 13.51 8.49 13.51C10.14 13.51 11.49 12.16 11.49 10.51C11.49 8.86 10.14 7.51 8.49 7.51L8.5 7.5ZM8.5 12C7.67 12 7 11.33 7 10.5C7 9.67 7.67 9 8.5 9C9.33 9 10 9.67 10 10.5C10 11.33 9.33 12 8.5 12Z" fill="currentColor"/>
<path d="M12.75 1H3.25C2.01 1 1 2.01 1 3.25V9C1 10.24 2.01 11.25 3.25 11.25H4.25C4.66 11.25 5 10.91 5 10.5C5 10.09 4.66 9.75 4.25 9.75H3.25C2.84 9.75 2.5 9.41 2.5 9V3.25C2.5 2.84 2.84 2.5 3.25 2.5H12.75C13.16 2.5 13.5 2.84 13.5 3.25V9C13.5 9.41 13.16 9.75 12.75 9.75C12.34 9.75 12 10.09 12 10.5C12 10.91 12.34 11.25 12.75 11.25C13.99 11.25 15 10.24 15 9V3.25C15 2.01 13.99 1 12.75 1Z" fill="currentColor"/>
<path d="M8.24 4.5C8.24 4.09 7.9 3.75 7.49 3.75H4.49C4.08 3.75 3.74 4.09 3.74 4.5C3.74 4.91 4.08 5.25 4.49 5.25H7.49C7.9 5.25 8.24 4.91 8.24 4.5Z" fill="currentColor"/>
</svg>
