<svg viewBox="0 0 16 16" fill="none" xmlns="http://www.w3.org/2000/svg">
<path d="M3.25 4.5C3.94036 4.5 4.5 3.94036 4.5 3.25C4.5 2.55964 3.94036 2 3.25 2C2.55964 2 2 2.55964 2 3.25C2 3.94036 2.55964 4.5 3.25 4.5Z" fill="currentColor"/>
<path d="M3.25 14C3.94036 14 4.5 13.4404 4.5 12.75C4.5 12.0596 3.94036 11.5 3.25 11.5C2.55964 11.5 2 12.0596 2 12.75C2 13.4404 2.55964 14 3.25 14Z" fill="currentColor"/>
<path d="M3.25 9.25C3.94036 9.25 4.5 8.69036 4.5 8C4.5 7.30964 3.94036 6.75 3.25 6.75C2.55964 6.75 2 7.30964 2 8C2 8.69036 2.55964 9.25 3.25 9.25Z" fill="currentColor"/>
</svg>
