<svg viewBox="0 0 16 16" fill="none" xmlns="http://www.w3.org/2000/svg">
<path d="M12.75 3H3.25C2.01 3 1 4.01 1 5.25V10.75C1 11.99 2.01 13 3.25 13H5.75C6.16 13 6.5 12.66 6.5 12.25C6.5 11.84 6.16 11.5 5.75 11.5H3.25C2.84 11.5 2.5 11.16 2.5 10.75V7.25H13.5V9.75C13.5 10.16 13.84 10.5 14.25 10.5C14.66 10.5 15 10.16 15 9.75V5.25C15 4.01 13.99 3 12.75 3ZM2.5 5.75V5.25C2.5 4.84 2.84 4.5 3.25 4.5H12.75C13.16 4.5 13.5 4.84 13.5 5.25V5.75H2.5Z" fill="currentColor"/>
<path d="M12.98 11.19C12.58 11.21 12.22 11.51 12.21 11.92C12.2 12.56 11.8 13.13 11.21 13.37C10.81 13.53 10.38 13.53 9.98 13.37C9.58 13.2 9.28 12.89 9.12 12.49C8.84 11.8 9.08 11.04 9.64 10.61C9.45 10.96 9.56 11.4 9.9 11.61C10.02 11.68 10.15 11.72 10.29 11.72C10.54 11.72 10.79 11.59 10.93 11.36L11.85 9.84C11.85 9.84 11.85 9.84 11.85 9.83C11.87 9.79 11.88 9.75 11.89 9.71C11.91 9.66 11.93 9.61 11.94 9.55C11.94 9.52 11.94 9.49 11.94 9.46C11.94 9.4 11.94 9.33 11.92 9.27C11.91 9.23 11.88 9.19 11.86 9.15C11.84 9.1 11.82 9.06 11.79 9.01C11.76 8.97 11.71 8.94 11.67 8.9C11.64 8.87 11.62 8.84 11.58 8.82L10.06 7.9C9.71 7.69 9.24 7.8 9.03 8.15C8.83 8.48 8.92 8.89 9.22 9.12C7.78 9.83 7.1 11.55 7.71 13.06C8.2 14.27 9.36 15 10.59 15C10.98 15 11.37 14.93 11.76 14.77C12.91 14.3 13.67 13.2 13.7 11.96C13.7 11.55 13.38 11.2 12.97 11.19H12.98Z" fill="currentColor"/>
</svg>
