<svg viewBox="0 0 16 16" fill="none" xmlns="http://www.w3.org/2000/svg">
<path d="M12.2961 1H6.44778C4.95565 1 3.74392 2.21086 3.74392 3.70193V3.75197H3.70386C2.21173 3.75197 1 4.96283 1 6.4539V12.2981C1 13.7891 2.21173 15 3.70386 15H9.55222C11.0443 15 12.2561 13.7891 12.2561 12.2981V12.248H12.2961C13.7883 12.248 15 11.0372 15 9.5461V3.70193C15 2.21086 13.7883 1 12.2961 1ZM10.7539 12.2981C10.7539 12.9585 10.2132 13.4989 9.55222 13.4989H3.69385C3.0329 13.4989 2.49213 12.9585 2.49213 12.2981V6.4539C2.49213 5.79342 3.0329 5.25304 3.69385 5.25304H9.5422C10.2031 5.25304 10.7439 5.79342 10.7439 6.4539V12.2981H10.7539ZM13.4979 9.5461C13.4979 10.2066 12.9571 10.747 12.2961 10.747H12.2561V6.4539C12.2561 4.96283 11.0443 3.75197 9.55222 3.75197H5.24607V3.70193C5.24607 3.04146 5.78684 2.50107 6.44778 2.50107H12.2961C12.9571 2.50107 13.4979 3.04146 13.4979 3.70193V9.5461Z" fill="currentColor"/>
<path d="M8.12017 7.42459L6.06724 9.64618L5.04578 8.79557C4.72532 8.52537 4.25465 8.57541 3.98426 8.89564C3.71388 9.21587 3.76395 9.6862 4.08441 9.9564L5.65665 11.2573C5.79685 11.3774 5.9671 11.4274 6.13734 11.4274C6.33763 11.4274 6.53791 11.3474 6.68813 11.1873L9.22175 8.44532C9.50215 8.1451 9.48212 7.66476 9.18169 7.38456C8.88126 7.10436 8.40057 7.12437 8.12017 7.42459Z" fill="currentColor"/>
</svg>
