<svg viewBox="0 0 16 16" fill="none" xmlns="http://www.w3.org/2000/svg">
<path d="M11.75 1H4.25C2.46 1 1 2.46 1 4.25V11.75C1 13.54 2.46 15 4.25 15H11.75C13.54 15 15 13.54 15 11.75V4.25C15 2.46 13.54 1 11.75 1ZM13.5 4.25V4.75H10.6L11.35 2.5H11.75C12.71 2.5 13.5 3.29 13.5 4.25ZM6.23 4.75L6.98 2.5H9.77L9.02 4.75H6.23ZM4.25 2.5H5.4L4.65 4.75H2.5V4.25C2.5 3.29 3.29 2.5 4.25 2.5ZM11.75 13.5H4.25C3.29 13.5 2.5 12.71 2.5 11.75V6.25H13.5V11.75C13.5 12.71 12.71 13.5 11.75 13.5Z" fill="currentColor"/>
<path d="M9.62 8.91L7.37 7.64C7.14 7.51 6.85 7.51 6.62 7.64C6.39 7.77 6.25 8.02 6.25 8.29V10.83C6.25 11.1 6.39 11.34 6.62 11.48C6.74 11.55 6.87 11.58 7 11.58C7.13 11.58 7.25 11.55 7.37 11.48L9.62 10.21C9.86 10.08 10 9.83 10 9.56C10 9.29 9.85 9.04 9.62 8.91Z" fill="currentColor"/>
</svg>
