<svg viewBox="0 0 16 16" fill="none" xmlns="http://www.w3.org/2000/svg">
<path d="M8 10.5192C9.79064 10.5192 11.2512 9.05894 11.2512 7.26862V5.80836L14.7824 2.27773C15.0725 1.98768 15.0725 1.50759 14.7824 1.21754C14.4923 0.927487 14.0121 0.927487 13.722 1.21754L1.21758 13.7198C0.927474 14.0098 0.927474 14.4899 1.21758 14.78C1.36763 14.93 1.5577 15 1.74777 15C1.93783 15 2.1279 14.93 2.27796 14.78L5.06895 11.9895C5.73919 12.3895 6.47946 12.6496 7.24973 12.7496V13.4997H5.49911C5.08896 13.4997 4.74884 13.8398 4.74884 14.2499C4.74884 14.6599 5.08896 15 5.49911 15H10.5009C10.911 15 11.2512 14.6599 11.2512 14.2499C11.2512 13.8398 10.911 13.4997 10.5009 13.4997H8.75027V12.7596C11.5713 12.3895 13.7521 9.9791 13.7521 7.05858C13.7521 6.64851 13.4119 6.30845 13.0018 6.30845C12.5916 6.30845 12.2515 6.64851 12.2515 7.05858C12.2515 9.399 10.3408 11.3093 8 11.3093C7.35977 11.3093 6.73955 11.1593 6.16935 10.8893L6.77956 10.2792C7.1697 10.4392 7.57985 10.5192 8 10.5192ZM8.04001 9.01893L9.75063 7.30863C9.73062 8.23879 8.98035 8.98893 8.04001 9.01893Z" fill="currentColor"/>
<path d="M5.49911 8.01875C5.90925 8.01875 6.24937 7.67869 6.24937 7.26862V4.24808C6.24937 3.28791 7.03966 2.49777 8 2.49777C8.5702 2.49777 9.1104 2.77782 9.44051 3.2479C9.6806 3.58796 10.1408 3.66798 10.4809 3.43794C10.821 3.19789 10.901 2.73781 10.671 2.39775C10.0607 1.52759 9.06038 1.0075 8 1.0075C6.20936 1.0075 4.74884 2.46776 4.74884 4.25808V7.27862C4.74884 7.68869 5.08896 8.02876 5.49911 8.02876V8.01875Z" fill="currentColor"/>
<path d="M3.61843 10.2291C3.73848 10.2291 3.86852 10.1991 3.97856 10.1391C4.33869 9.9391 4.46874 9.47901 4.26867 9.11895C3.91854 8.48884 3.73848 7.77871 3.73848 7.05858C3.73848 6.64851 3.39836 6.30845 2.98821 6.30845C2.57806 6.30845 2.23794 6.64851 2.23794 7.05858C2.23794 8.02875 2.48803 8.99893 2.9582 9.83908C3.09825 10.0891 3.34834 10.2291 3.61843 10.2291Z" fill="currentColor"/>
</svg>
