<svg viewBox="0 0 16 16" fill="none" xmlns="http://www.w3.org/2000/svg">
<path d="M14.8468 4.37957L3.77678 1.05957C3.25678 0.909573 2.69678 1.04957 2.31678 1.42957C1.93678 1.80957 1.79678 2.36957 1.94678 2.88957L5.26678 13.9596C5.44678 14.5696 5.97678 14.9696 6.60678 14.9996C6.62678 14.9996 6.65678 14.9996 6.67678 14.9996C7.27678 14.9996 7.80678 14.6396 8.03678 14.0796L10.0068 9.12957L14.9668 7.13957C15.5568 6.90957 15.9168 6.34957 15.8868 5.71957C15.8568 5.08957 15.4468 4.55957 14.8468 4.37957ZM9.43678 7.73957C9.06678 7.88957 8.76678 8.18957 8.62678 8.55957L6.70678 13.5296L3.40678 2.51957L14.4068 5.75957L9.43678 7.74957V7.73957Z" fill="currentColor"/>
</svg>
