<svg viewBox="0 0 16 16" fill="none" xmlns="http://www.w3.org/2000/svg">
<path d="M8.89306 1C8.89306 1 8.88306 1 8.87305 1H8.85304C5.00028 1.03 1.88806 4.16 1.88806 8C1.88806 11.84 5.00028 14.97 8.84303 15H8.86304C8.86304 15 8.87305 15 8.88306 15C12.7458 15 15.8881 11.86 15.8881 8C15.8881 4.14 12.7558 1 8.89306 1ZM14.337 7.25H12.1254C12.0553 5.69 11.7551 4.18 11.2347 3.03C12.8859 3.81 14.0768 5.38 14.337 7.25ZM8.87305 13.5C8.31265 13.5 7.28191 11.81 7.13181 8.75H10.6243C10.4742 11.81 9.44346 13.49 8.88306 13.5H8.87305ZM7.1218 7.25C7.27191 4.19 8.30264 2.51 8.86304 2.5C9.42344 2.5 10.4542 4.19 10.6043 7.25H7.11179H7.1218ZM6.48134 3.06C5.97098 4.2 5.68077 5.7 5.61072 7.25H3.44918C3.69936 5.4 4.87019 3.85 6.49135 3.06H6.48134ZM5.61072 8.75C5.68077 10.29 5.98099 11.79 6.48134 12.94C4.87019 12.15 3.69936 10.6 3.43917 8.75H5.61072ZM11.2347 12.97C11.7551 11.82 12.0553 10.31 12.1254 8.75H14.337C14.0768 10.62 12.8859 12.19 11.2347 12.97Z" fill="currentColor"/>
</svg>
