<svg viewBox="0 0 16 16" fill="none" xmlns="http://www.w3.org/2000/svg">
<path d="M3.51177 8.47V2.5H11.8018L13.6818 1.15C13.5618 1.07 13.4218 1 13.2618 1H2.76177C2.35177 1 2.01177 1.34 2.01177 1.75V9.55L3.51177 8.47Z" fill="currentColor"/>
<path d="M5.51177 4.5C5.10177 4.5 4.76177 4.84 4.76177 5.25C4.76177 5.66 5.10177 6 5.51177 6H6.94177L9.02177 4.5H5.51177Z" fill="currentColor"/>
<path d="M14.0118 2.81V2.76L6.72177 8L4.96177 9.27L2.00177 11.4L1.31177 11.9C0.971767 12.14 0.901767 12.61 1.14177 12.95C1.29177 13.15 1.52177 13.26 1.75177 13.26C1.83177 13.26 1.92177 13.24 2.00177 13.21V14.26C2.00177 14.52 2.13177 14.76 2.36177 14.9C2.58177 15.04 2.86177 15.05 3.09177 14.93L5.27177 13.84L7.69177 14.94C7.89177 15.03 8.11177 15.03 8.31177 14.94L10.7318 13.84L12.9118 14.93C13.0218 14.98 13.1318 15.01 13.2518 15.01C13.3918 15.01 13.5218 14.97 13.6418 14.9C13.8618 14.76 14.0018 14.52 14.0018 14.26V4.6L14.6918 4.1C15.0318 3.86 15.1018 3.39 14.8618 3.05C14.6618 2.77 14.3118 2.69 14.0018 2.8L14.0118 2.81ZM12.5118 13.04L11.1018 12.33C10.9018 12.23 10.6618 12.22 10.4518 12.32L8.01177 13.43L5.57177 12.32C5.47177 12.28 5.37177 12.25 5.26177 12.25C5.14177 12.25 5.03177 12.28 4.92177 12.33L3.51177 13.04V12.17L7.21177 9.51H10.7618C11.1718 9.51 11.5118 9.17 11.5118 8.76C11.5118 8.35 11.1718 8.01 10.7618 8.01H9.29177L12.5118 5.69V13.04Z" fill="currentColor"/>
</svg>
