<svg viewBox="0 0 16 16" fill="none" xmlns="http://www.w3.org/2000/svg">
<path d="M15.5503 11.13C14.5911 10.49 14.0116 9.41 14.0116 8.25V6.13C14.0116 5.53 13.9117 4.95 13.7119 4.4L15.6902 2.26C15.9699 1.96 15.9499 1.48 15.6502 1.2C15.3505 0.92 14.8709 0.94 14.5911 1.24L3.03138 13.74C2.75163 14.04 2.77161 14.52 3.07135 14.8C3.21122 14.93 3.40106 15 3.5809 15C3.78072 15 3.98054 14.92 4.13041 14.76L6.21856 12.5H6.58823C6.58823 12.56 6.56825 12.62 6.56825 12.69C6.56825 13.97 7.60733 15 8.8762 15C10.1451 15 11.1842 13.96 11.1842 12.69C11.1842 12.63 11.1742 12.57 11.1642 12.5H15.1107C15.4404 12.5 15.7301 12.28 15.83 11.97C15.9299 11.65 15.8001 11.31 15.5303 11.13H15.5503ZM9.69547 12.69C9.69547 13.14 9.33579 13.5 8.88619 13.5C8.43659 13.5 8.07691 13.14 8.07691 12.69C8.07691 12.62 8.07691 12.56 8.09689 12.5H9.67549C9.68548 12.56 9.69547 12.62 9.69547 12.69ZM7.59733 11L12.463 5.74C12.473 5.87 12.503 5.99 12.503 6.13V8.25C12.503 9.25 12.8027 10.2 13.3322 11H7.59733Z" fill="currentColor"/>
<path d="M5.25941 8.25V6.13C5.25941 4.13 6.88796 2.51 8.8762 2.51C9.59556 2.51 10.2949 2.72 10.8944 3.12C11.2441 3.35 11.7037 3.26 11.9335 2.91C12.1633 2.57 12.0734 2.1 11.7237 1.87C10.8744 1.3 9.8953 1 8.8762 1C6.0587 1 3.76074 3.3 3.76074 6.12V8.24C3.76074 9.4 3.18125 10.48 2.2221 11.12C1.8824 11.35 1.78249 11.82 2.01229 12.16C2.15216 12.38 2.39195 12.49 2.63174 12.49C2.77161 12.49 2.92148 12.45 3.05137 12.36C4.43014 11.44 5.25941 9.9 5.25941 8.23V8.25Z" fill="currentColor"/>
</svg>
