<svg viewBox="0 0 16 16" fill="none" xmlns="http://www.w3.org/2000/svg">
<path d="M14.25 6.61653H12.41L14.76 4.26274C14.9 4.12252 14.98 3.93221 14.98 3.73189C14.98 3.53157 14.9 3.34126 14.76 3.20104L12.78 1.21785C12.49 0.927383 12.01 0.927383 11.72 1.21785L6.34 6.60651H1.75C1.34 6.60651 1 6.94706 1 7.35772V14.2488C1 14.6595 1.34 15 1.75 15H14.25C14.66 15 15 14.6595 15 14.2488V7.35772C15 6.94706 14.66 6.60651 14.25 6.60651V6.61653ZM12.25 2.82043L13.17 3.74191L8.32 8.59971L7.13 8.87015L7.4 7.67823L12.25 2.82043ZM2.5 13.5076V8.11894H5.76L5.4 9.70148C5.34 9.95189 5.42 10.2223 5.6 10.4026C5.74 10.5428 5.93 10.623 6.13 10.623C6.19 10.623 6.24 10.623 6.3 10.6029L8.87 10.012C9.01 9.98193 9.13 9.91182 9.23 9.81166L10.92 8.11894H13.51V13.5076H2.5Z" fill="currentColor"/>
</svg>
