<svg viewBox="0 0 40 40" fill="none" xmlns="http://www.w3.org/2000/svg">
  <circle cx="20" cy="19.9998" r="18.3333" fill="currentColor" />
  <path
    d="M17.5 13.3332C17.5 12.4127 16.7538 11.6665 15.8333 11.6665C14.9128 11.6665 14.1666 12.4127 14.1666 13.3332V26.6665C14.1666 27.587 14.9128 28.3332 15.8333 28.3332C16.7538 28.3332 17.5 27.587 17.5 26.6665L17.5 13.3332Z"
    fill="black"
  />
  <path
    d="M25.8333 13.3332C25.8333 12.4127 25.0871 11.6665 24.1666 11.6665C23.2462 11.6665 22.5 12.4127 22.5 13.3332L22.5 26.6665C22.5 27.587 23.2462 28.3332 24.1666 28.3332C25.0871 28.3332 25.8333 27.587 25.8333 26.6665L25.8333 13.3332Z"
    fill="black"
  />
</svg>
