<svg viewBox="0 0 16 16" fill="none" xmlns="http://www.w3.org/2000/svg">
<path d="M12.5 10.25V3.75C12.5 3.34 12.16 3 11.75 3H1.75C1.34 3 1 3.34 1 3.75V10.25C1 10.66 1.34 11 1.75 11H11.75C12.16 11 12.5 10.66 12.5 10.25ZM11 9.5H2.5V4.5H11V9.5Z" fill="currentColor"/>
<path d="M14.25 5.5C13.84 5.5 13.5 5.84 13.5 6.25V12H4.25C3.84 12 3.5 12.34 3.5 12.75C3.5 13.16 3.84 13.5 4.25 13.5H14.25C14.66 13.5 15 13.16 15 12.75V6.25C15 5.84 14.66 5.5 14.25 5.5Z" fill="currentColor"/>
<path d="M6.75 8.25C7.44 8.25 8 7.69 8 7C8 6.31 7.44 5.75 6.75 5.75C6.06 5.75 5.5 6.31 5.5 7C5.5 7.69 6.06 8.25 6.75 8.25Z" fill="currentColor"/>
</svg>
