<svg id="paypal-small" viewBox="0 0 16 16" xmlns="http://www.w3.org/2000/svg">
<path fill-rule="evenodd" clip-rule="evenodd" d="M5.92993 2.5C5.7395 2.5 5.57296 2.6302 5.52754 2.8119L5.52706 2.81382L3.54605 10.65H5.01188L6.36232 5.3081L6.3626 5.30699C6.57756 4.4493 7.35073 3.86 8.21993 3.86H10.9138C10.5961 3.07523 9.82844 2.5 8.89993 2.5H5.92993ZM12.5297 4.11104C12.2642 2.38829 10.7758 1 8.89993 1H5.92993C5.06071 1 4.28753 1.58932 4.07259 2.44704L4.07232 2.4481L2.06532 10.3871C2.0514 10.4213 2.03997 10.4566 2.03118 10.4927C1.82777 11.329 2.45786 12.15 3.32993 12.15H4.63267L4.35532 13.2471C4.3414 13.2813 4.32997 13.3166 4.32118 13.3527C4.11777 14.189 4.74786 15.01 5.61993 15.01H7.42993C8.04584 15.01 8.56776 14.5958 8.72414 14.015L9.43508 11.21H11.1899C12.8763 11.21 14.3332 10.064 14.7469 8.43453C15.2198 6.57289 14.186 4.75997 12.5297 4.11104ZM10.9578 5.36C10.6631 6.24681 9.83993 6.85 8.89993 6.85H7.51971L7.81706 5.67382L7.81754 5.6719C7.86296 5.4902 8.0295 5.36 8.21993 5.36H10.9578ZM6.41524 11.2189L5.83605 13.51H7.30478L8.01564 10.705C8.17202 10.1241 8.69402 9.71 9.30993 9.71H11.1899C12.1836 9.71 13.0466 9.036 13.293 8.06547C13.5289 7.13669 13.1307 6.22787 12.412 5.7361C11.9457 7.27924 10.53 8.35 8.89993 8.35H7.14508L6.43422 11.155C6.42842 11.1766 6.42203 11.1979 6.41524 11.2189Z" fill="currentColor"/>
</svg>
