<svg viewBox="0 0 17 16" fill="none" xmlns="http://www.w3.org/2000/svg">
<path d="M15.6917 4.09C15.3517 3.51 14.4917 2.95 12.3517 3.41C11.3817 2.68 10.1917 2.25 8.89171 2.25C5.70171 2.25 3.11171 4.83 3.11171 8C3.11171 8.24 3.13171 8.47 3.16171 8.7C1.70171 10.3 1.75171 11.33 2.09171 11.91C2.44171 12.51 3.13171 12.76 4.01171 12.76C4.44171 12.76 4.92171 12.7 5.43171 12.59C6.40171 13.31 7.59171 13.75 8.89171 13.75C12.0717 13.75 14.6617 11.17 14.6617 8C14.6617 7.77 14.6417 7.53 14.6117 7.31C15.2417 6.62 15.6617 5.96 15.8117 5.39C15.9717 4.78 15.8317 4.35 15.6817 4.09H15.6917ZM8.89171 3.75C10.8417 3.75 12.4617 5.06 12.9817 6.83C12.2217 7.55 11.1417 8.4 9.63171 9.26C8.11171 10.13 6.84171 10.64 5.82171 10.94C5.08171 10.18 4.62171 9.14 4.62171 8C4.62171 5.66 6.54171 3.75 8.89171 3.75ZM3.39171 11.17C3.37171 11.11 3.41171 10.87 3.68171 10.46C3.82171 10.75 3.97171 11.02 4.15171 11.28C3.75171 11.3 3.47171 11.26 3.39171 11.18V11.17ZM8.89171 12.25C8.37171 12.25 7.88171 12.14 7.43171 11.98C8.41171 11.6 9.43171 11.12 10.3817 10.57C11.4017 9.99 12.3117 9.36 13.1017 8.73C12.7517 10.73 11.0117 12.26 8.90171 12.26L8.89171 12.25ZM13.6317 4.73C14.1217 4.71 14.3517 4.79 14.3917 4.83C14.4217 4.94 14.3217 5.2 14.1017 5.54C13.9617 5.26 13.8117 4.98 13.6317 4.73Z" fill="currentColor"/>
</svg>
