<svg viewBox="0 0 16 16" fill="none" xmlns="http://www.w3.org/2000/svg">
<path d="M8.88809 1C5.02809 1 1.88809 4.14 1.88809 8C1.88809 11.86 5.02809 15 8.88809 15C12.7481 15 15.8881 11.86 15.8881 8C15.8881 4.14 12.7481 1 8.88809 1ZM11.0381 8.63L8.28809 10.38C8.16809 10.46 8.02809 10.5 7.88809 10.5C7.76809 10.5 7.63809 10.47 7.52809 10.41C7.28809 10.28 7.13809 10.03 7.13809 9.75V6.25C7.13809 5.98 7.28809 5.72 7.52809 5.59C7.76809 5.46 8.05809 5.47 8.28809 5.61L11.0381 7.36C11.2581 7.5 11.3881 7.74 11.3881 7.99C11.3881 8.24 11.2581 8.49 11.0381 8.62V8.63Z" fill="currentColor"/>
</svg>
