<svg viewBox="0 0 16 16" fill="none" xmlns="http://www.w3.org/2000/svg">
  <path
    d="M6.63048 5.84735C6.86561 5.71422 7.15417 5.71786 7.38587 5.85688L9.88587 7.35688C10.1118 7.49242 10.25 7.73655 10.25 8C10.25 8.26345 10.1118 8.50758 9.88587 8.64312L7.38587 10.1431C7.15417 10.2821 6.86561 10.2858 6.63048 10.1526C6.39534 10.0195 6.25 9.7702 6.25 9.5V6.5C6.25 6.2298 6.39534 5.98048 6.63048 5.84735Z"
    fill="currentColor"
  />
  <path
    fill-rule="evenodd"
    clip-rule="evenodd"
    d="M8 16C12.4183 16 16 12.4183 16 8C16 3.58172 12.4183 0 8 0C3.58172 0 0 3.58172 0 8C0 12.4183 3.58172 16 8 16ZM14.5 8C14.5 11.5899 11.5899 14.5 8 14.5C4.41015 14.5 1.5 11.5898 1.5 8C1.5 4.41015 4.41015 1.5 8 1.5C11.5899 1.5 14.5 4.41015 14.5 8Z"
    fill="currentColor"
  />

  <defs>
    <clipPath id="clip0_10678_566533">
      <rect width="16" height="16" fill="white" />
    </clipPath>
  </defs>
</svg>
