<svg viewBox="0 0 16 16" fill="none" xmlns="http://www.w3.org/2000/svg">
<path d="M8 1C4.14 1 1 4.14 1 8C1 11.86 4.14 15 8 15C11.86 15 15 11.86 15 8C15 4.14 11.86 1 8 1ZM8 13.5C4.97 13.5 2.5 11.03 2.5 8C2.5 4.97 4.97 2.5 8 2.5C11.03 2.5 13.5 4.97 13.5 8C13.5 11.03 11.03 13.5 8 13.5Z" fill="currentColor"/>
<path d="M7.4 5.62C7.17 5.47 6.88 5.46 6.64 5.6C6.4 5.73 6.25 5.98 6.25 6.26V9.76C6.25 10.03 6.4 10.29 6.64 10.42C6.75 10.48 6.88 10.51 7 10.51C7.14 10.51 7.28 10.47 7.4 10.39L10.15 8.64C10.37 8.5 10.5 8.26 10.5 8.01C10.5 7.76 10.37 7.51 10.15 7.38L7.4 5.63V5.62Z" fill="currentColor"/>
</svg>
