<svg fill="none" xmlns="http://www.w3.org/2000/svg" viewBox="0 0 16 16">
  <path
    fill-rule="evenodd"
    clip-rule="evenodd"
    d="M8 2C8.28724 2 8.5511 2.1593 8.68627 2.41432L10.9577 6.69974L13.6722 3.96835C13.9106 3.72845 14.2755 3.67044 14.5758 3.82471C14.8761 3.97897 15.0435 4.31037 14.9902 4.64538L13.6075 13.341C13.5471 13.7207 13.2216 14 12.8395 14H3.16052C2.7784 14 2.45289 13.7207 2.39252 13.341L1.00981 4.64538C0.956537 4.31037 1.12386 3.97897 1.42417 3.82471C1.72447 3.67044 2.08936 3.72845 2.32778 3.96835L5.04229 6.69974L7.31373 2.41432C7.4489 2.1593 7.71276 2 8 2ZM8 4.44565L5.92085 8.36829C5.8049 8.58705 5.59278 8.73759 5.34906 8.77409C5.10534 8.81058 4.85885 8.72871 4.68462 8.55339L2.92502 6.78286L3.82374 12.4348H12.1763L13.075 6.78286L11.3154 8.55339C11.1412 8.72871 10.8947 8.81058 10.6509 8.77409C10.4072 8.73759 10.1951 8.58705 10.0791 8.36829L8 4.44565Z"
    fill="currentColor"
  />
</svg>
