<svg viewBox="0 0 16 16" fill="none" xmlns="http://www.w3.org/2000/svg">
<path d="M15 6.58C15 6.58 14.98 6.49 14.97 6.45C14.97 6.02 14.88 5.58 14.66 5.2L13.39 3C13.03 2.38 12.37 2 11.67 2H4.34C3.63 2 2.97 2.38 2.62 3L1.33 5.22C1.1 5.61 1.01 6.05 1.02 6.48C1.02 6.51 1 6.55 1 6.58C1 6.69 1.03 6.8 1.07 6.89C1.14 7.26 1.28 7.63 1.52 7.93L6.58 14.31C6.93 14.75 7.44 15 7.99 15C8.54 15 9.05 14.75 9.4 14.32L14.45 7.96C14.7 7.65 14.83 7.28 14.91 6.9C14.96 6.8 14.99 6.69 14.99 6.58H15ZM4.37 7.33C4.37 7.33 4.37 7.35 4.37 7.36L5.85 10.99L2.95 7.34H4.37V7.33ZM9.06 3.5L10.01 5.83H5.99L6.94 3.5H9.06ZM10.01 7.33L8 12.26L5.99 7.33H10.01ZM11.62 7.36V7.34H13.04L10.13 11L11.61 7.36H11.62ZM12.09 3.75L13.3 5.83H11.63V5.81L10.69 3.5H11.67C11.85 3.5 12 3.59 12.1 3.75H12.09ZM3.91 3.75C4 3.59 4.16 3.5 4.34 3.5H5.32L4.38 5.81V5.83H2.71L3.91 3.75Z" fill="currentColor"/>
</svg>
