<svg viewBox="0 0 16 16" xmlns="http://www.w3.org/2000/svg">
<path d="M13 4.03217V1.75054C13 1.34024 12.66 1 12.25 1H3.75C3.34 1 3 1.34024 3 1.75054V4.03217C1.88 4.16226 1 5.10293 1 6.25375V10.3467C1 11.4975 1.88 12.4482 3 12.5683V14.2495C3 14.6598 3.34 15 3.75 15H12.25C12.66 15 13 14.6598 13 14.2495V12.5683C14.12 12.4382 15 11.4975 15 10.3467V6.25375C15 5.09292 14.12 4.15225 13 4.03217ZM4.5 2.50107H11.5V4.00214H4.5V2.50107ZM11.5 13.5089H4.5V10.757H11.5V13.5089ZM13.5 10.3467C13.5 10.6769 13.29 10.9471 13 11.0472V10.0064C13 9.59614 12.66 9.2559 12.25 9.2559H3.75C3.34 9.2559 3 9.59614 3 10.0064V11.0472C2.71 10.9471 2.5 10.6769 2.5 10.3467V6.25375C2.5 5.84346 2.84 5.50322 3.25 5.50322H12.75C13.16 5.50322 13.5 5.84346 13.5 6.25375V10.3467Z" fill="currentColor"/>
</svg>
