<svg viewBox="0 0 16 16" fill="none" xmlns="http://www.w3.org/2000/svg">
<path d="M15 7.50149C15 6.21149 14.17 5.11149 13 4.69149V1.75149C13 1.49149 12.87 1.25149 12.64 1.11149C12.42 0.97149 12.14 0.96149 11.91 1.08149L6.07 4.00149H3.25C2.01 4.00149 1 5.01149 1 6.25149V8.50149C1 9.48149 1.63 10.3015 2.5 10.6115V14.2515C2.5 14.6615 2.84 15.0015 3.25 15.0015H6.25C6.66 15.0015 7 14.6615 7 14.2515V11.2615L11.89 13.9115C12 13.9715 12.12 14.0015 12.25 14.0015C12.38 14.0015 12.52 13.9615 12.63 13.8915C12.86 13.7515 13 13.5115 13 13.2515V10.3115C14.17 9.90149 15 8.79149 15 7.50149ZM2.5 6.25149C2.5 5.84149 2.84 5.50149 3.25 5.50149H5.5V9.25149H3.25C2.84 9.25149 2.5 8.91149 2.5 8.50149V6.25149ZM4 13.5015V10.7515H5.5V13.5015H4ZM11.5 11.9915L7 9.55149V5.21149L11.5 2.96149V11.9915Z" fill="currentColor"/>
</svg>
