<svg viewBox="0 0 16 16" fill="none" xmlns="http://www.w3.org/2000/svg">
<path d="M10.72 1.08313L6 4.18622V9.63651L10.71 12.9485C11.04 13.1772 11.5 12.9485 11.5 12.5407V1.50086C11.5 1.10303 11.06 0.864327 10.72 1.08313Z" fill="currentColor"/>
<path d="M1 5.79744V8.03524C1 8.86074 1.67 9.52711 2.5 9.52711H5V4.30557H2.5C1.67 4.30557 1 4.97194 1 5.79744Z" fill="currentColor"/>
<path d="M2 14.0027C2 14.2812 2.22 14.5 2.5 14.5H4.5C4.78 14.5 5 14.2812 5 14.0027V10.7703H2V14.0027Z" fill="currentColor"/>
<path d="M13 4.8327V9.25857C14.12 9.12928 15 8.19437 15 7.05061C15 5.90684 14.12 4.96199 13 4.84264V4.8327Z" fill="currentColor"/>
</svg>
