<svg viewBox="0 0 16 16" fill="none" xmlns="http://www.w3.org/2000/svg">
<path d="M14.25 7.50003C13.84 7.50003 13.5 7.84003 13.5 8.25003V8.50003C13.5 9.74003 12.49 10.75 11.25 10.75H4L5.2 9.85003C5.53 9.60003 5.6 9.13003 5.35 8.80003C5.1 8.47003 4.63 8.40003 4.3 8.65003L1.3 10.9C1.3 10.9 1.28 10.93 1.27 10.94C1.21 10.99 1.17 11.05 1.13 11.11C1.11 11.14 1.09 11.16 1.08 11.19C1.03 11.29 1.01 11.39 1.01 11.5C1.01 11.61 1.04 11.72 1.08 11.81C1.09 11.84 1.12 11.86 1.13 11.89C1.17 11.95 1.22 12.01 1.27 12.06C1.28 12.07 1.29 12.09 1.3 12.1L4.3 14.35C4.43 14.45 4.59 14.5 4.75 14.5C4.98 14.5 5.2 14.4 5.35 14.2C5.6 13.87 5.53 13.4 5.2 13.15L4 12.25H11.25C13.32 12.25 15 10.57 15 8.50003V8.25003C15 7.84003 14.66 7.50003 14.25 7.50003Z" fill="currentColor"/>
<path d="M1.75 8.50003C2.16 8.50003 2.5 8.16003 2.5 7.75003V7.50003C2.5 6.26003 3.51 5.25003 4.75 5.25003H12L10.8 6.15003C10.47 6.40003 10.4 6.87003 10.65 7.20003C10.8 7.40003 11.02 7.50003 11.25 7.50003C11.41 7.50003 11.56 7.45003 11.7 7.35003L14.7 5.10003C14.7 5.10003 14.72 5.07003 14.73 5.06003C14.79 5.01003 14.83 4.95003 14.87 4.89003C14.89 4.86003 14.91 4.84003 14.92 4.81003C14.97 4.71003 14.99 4.61003 14.99 4.50003C14.99 4.39003 14.96 4.28003 14.92 4.19003C14.91 4.16003 14.88 4.14003 14.87 4.11003C14.83 4.05003 14.78 3.99003 14.73 3.94003C14.72 3.93003 14.71 3.91003 14.7 3.90003L11.7 1.65003C11.37 1.40003 10.9 1.47003 10.65 1.80003C10.4 2.13003 10.47 2.60003 10.8 2.85003L12 3.75003H4.75C2.68 3.75003 1 5.43003 1 7.50003V7.75003C1 8.16003 1.34 8.50003 1.75 8.50003Z" fill="currentColor"/>
</svg>
