<svg viewBox="0 0 16 16" fill="none" xmlns="http://www.w3.org/2000/svg">
<path d="M8 1C4.14 1 1 4.14 1 8C1 11.86 4.14 15 8 15C11.86 15 15 11.86 15 8C15 4.14 11.86 1 8 1ZM8 13.5C4.97 13.5 2.5 11.03 2.5 8C2.5 4.97 4.97 2.5 8 2.5C11.03 2.5 13.5 4.97 13.5 8C13.5 11.03 11.03 13.5 8 13.5Z" fill="currentColor"/>
<path d="M11.7 4.97C11.66 4.56 11.29 4.24 10.88 4.3L9.32 4.45C9.32 4.45 9.25 4.47 9.22 4.48C9.18 4.48 9.15 4.5 9.12 4.51C9.07 4.53 9.02 4.56 8.97 4.59C8.94 4.61 8.91 4.64 8.88 4.67C8.86 4.69 8.84 4.7 8.82 4.72C8.8 4.74 8.79 4.78 8.78 4.8C8.76 4.82 8.74 4.84 8.73 4.86C8.73 4.88 8.73 4.9 8.71 4.92C8.69 4.96 8.68 5.01 8.67 5.06C8.66 5.11 8.65 5.17 8.65 5.22C8.65 5.24 8.65 5.25 8.65 5.27L8.8 6.83C8.84 7.22 9.16 7.51 9.55 7.51C9.57 7.51 9.6 7.51 9.62 7.51C9.87 7.49 10.07 7.33 10.19 7.13C10.3 7.41 10.38 7.7 10.38 8.01C10.38 9.02 9.74 9.92 8.8 10.25C8.41 10.39 8.2 10.82 8.34 11.21C8.45 11.52 8.74 11.71 9.05 11.71C9.13 11.71 9.22 11.7 9.3 11.67C10.85 11.12 11.88 9.66 11.88 8.02C11.88 7.19 11.61 6.42 11.16 5.77C11.5 5.67 11.74 5.36 11.71 4.99L11.7 4.97Z" fill="currentColor"/>
<path d="M6.71 4.35C5.16 4.9 4.13 6.36 4.13 8C4.13 8.83 4.4 9.6 4.85 10.25C4.51 10.35 4.27 10.66 4.3 11.03C4.34 11.42 4.66 11.71 5.05 11.71C5.07 11.71 5.1 11.71 5.12 11.71L6.68 11.56C6.68 11.56 6.72 11.55 6.74 11.54C6.79 11.53 6.85 11.51 6.9 11.49C6.93 11.48 6.96 11.47 6.98 11.45C7.05 11.41 7.11 11.36 7.17 11.3C7.17 11.3 7.18 11.3 7.19 11.29C7.2 11.28 7.2 11.26 7.21 11.25C7.23 11.22 7.26 11.19 7.28 11.15C7.28 11.13 7.28 11.11 7.3 11.09C7.32 11.05 7.33 11 7.34 10.95C7.35 10.9 7.36 10.84 7.36 10.79C7.36 10.77 7.36 10.76 7.36 10.74L7.21 9.18C7.17 8.77 6.79 8.46 6.39 8.51C6.14 8.53 5.94 8.69 5.82 8.89C5.71 8.61 5.63 8.32 5.63 8.01C5.63 7 6.27 6.1 7.21 5.77C7.6 5.63 7.81 5.2 7.67 4.81C7.53 4.42 7.1 4.22 6.71 4.35Z" fill="currentColor"/>
</svg>
