<svg viewBox="0 0 16 16" fill="none" xmlns="http://www.w3.org/2000/svg">
<path d="M14.9846 3.21C15.0046 2.79 14.6848 2.44 14.2751 2.41L11.3074 2.25C11.3074 2.25 11.2275 2.26 11.1875 2.27C11.1476 2.27 11.1176 2.27 11.0876 2.28C11.0177 2.3 10.9577 2.32 10.8978 2.36C10.8778 2.37 10.8578 2.38 10.8378 2.4C10.7778 2.44 10.7279 2.49 10.6879 2.55C10.6779 2.56 10.6579 2.57 10.6479 2.59C10.6479 2.59 10.6479 2.61 10.638 2.62C10.608 2.67 10.588 2.73 10.568 2.79C10.558 2.83 10.538 2.87 10.538 2.92C10.538 2.94 10.528 2.95 10.528 2.97L10.3882 5.74C10.3682 6.16 10.6879 6.51 11.0976 6.54C11.1076 6.54 11.1276 6.54 11.1376 6.54C11.5373 6.54 11.867 6.23 11.887 5.82L11.9469 4.66C13.6356 6.71 13.5557 9.77 11.6472 11.7C10.6779 12.68 9.37894 13.23 8.00001 13.23C7.59033 13.23 7.25059 13.57 7.25059 13.99C7.25059 14.41 7.59033 14.75 8.00001 14.75C9.77862 14.75 11.4473 14.04 12.6964 12.77C13.9554 11.5 14.6548 9.8 14.6548 8C14.6548 6.49 14.1552 5.05 13.2559 3.88L14.2052 3.93C14.6049 3.93 14.9746 3.63 14.9946 3.21H14.9846Z" fill="currentColor"/>
<path d="M4.90242 9.46C4.48274 9.44 4.13302 9.76 4.11303 10.18L4.05308 11.34C2.36439 9.29 2.44433 6.23 4.35284 4.3C5.32209 3.32 6.62108 2.77 8.00001 2.77C8.40969 2.77 8.74943 2.43 8.74943 2.01C8.74943 1.59 8.40969 1.25 8.00001 1.25C6.22139 1.25 4.55269 1.96 3.30366 3.23C2.02466 4.5 1.33519 6.2 1.33519 8C1.33519 9.51 1.8348 10.95 2.7341 12.12L1.78484 12.07C1.37516 12.05 1.01544 12.37 0.995456 12.79C0.975472 13.21 1.29522 13.56 1.7049 13.59L4.6726 13.75C4.6726 13.75 4.70257 13.75 4.71256 13.75C4.83247 13.75 4.94239 13.72 5.04231 13.67C5.06229 13.67 5.08228 13.65 5.10226 13.63C5.1822 13.58 5.25215 13.52 5.30211 13.44C5.3121 13.43 5.33208 13.42 5.34208 13.41C5.34208 13.4 5.34208 13.38 5.36206 13.37C5.39204 13.32 5.41202 13.27 5.43201 13.21C5.442 13.17 5.46198 13.13 5.46198 13.09C5.46198 13.07 5.47197 13.06 5.47197 13.04L5.61187 10.27C5.63185 9.85 5.3121 9.5 4.90242 9.47V9.46Z" fill="currentColor"/>
</svg>
