<svg viewBox="0 0 16 16" fill="none" xmlns="http://www.w3.org/2000/svg">
<path d="M8 1C4.14 1 1 4.14 1 8C1 11.86 4.14 15 8 15C11.86 15 15 11.86 15 8C15 4.14 11.86 1 8 1ZM7.28 5.03C6.74 5.16 6.24 5.44 5.85 5.84C5.27 6.42 4.95 7.18 4.95 8C4.95 8.46 5.06 8.9 5.25 9.3C5.3 8.92 5.63 8.61 6.02 8.65C6.43 8.67 6.75 9.02 6.73 9.44L6.64 11.2C6.64 11.2 6.63 11.23 6.63 11.25C6.63 11.29 6.61 11.34 6.6 11.38C6.58 11.43 6.57 11.48 6.54 11.53C6.54 11.54 6.54 11.56 6.52 11.57C6.51 11.59 6.49 11.59 6.48 11.61C6.45 11.64 6.44 11.68 6.4 11.71C6.36 11.74 6.32 11.76 6.28 11.78C6.26 11.79 6.24 11.81 6.21 11.82C6.11 11.87 6 11.9 5.89 11.9C5.88 11.9 5.86 11.9 5.85 11.9L3.94 11.8C3.53 11.78 3.21 11.43 3.23 11.01C3.25 10.59 3.6 10.26 4.02 10.3H4.1C3.68 9.61 3.45 8.81 3.45 7.98C3.45 6.76 3.92 5.62 4.78 4.76C5.37 4.17 6.11 3.75 6.92 3.55C7.32 3.45 7.73 3.7 7.83 4.1C7.93 4.5 7.68 4.91 7.28 5.01V5.03ZM12.54 8C12.54 9.22 12.07 10.36 11.21 11.22C10.63 11.8 9.89 12.22 9.1 12.42C9.04 12.44 8.98 12.44 8.92 12.44C8.58 12.44 8.28 12.21 8.19 11.87C8.09 11.47 8.33 11.06 8.74 10.96C9.28 10.83 9.77 10.55 10.16 10.16C10.74 9.58 11.06 8.81 11.06 8C11.06 7.54 10.95 7.1 10.76 6.7C10.71 7.07 10.4 7.35 10.03 7.35C10.02 7.35 10 7.35 9.99 7.35C9.58 7.33 9.26 6.98 9.28 6.56L9.37 4.8C9.37 4.8 9.38 4.77 9.38 4.75C9.38 4.71 9.4 4.66 9.41 4.62C9.43 4.57 9.44 4.52 9.47 4.47C9.47 4.46 9.47 4.44 9.49 4.43C9.51 4.41 9.53 4.4 9.55 4.37C9.57 4.34 9.59 4.31 9.61 4.28C9.63 4.26 9.65 4.26 9.67 4.24C9.7 4.22 9.73 4.2 9.76 4.18C9.82 4.15 9.87 4.13 9.93 4.11C9.97 4.11 10 4.1 10.04 4.1C10.08 4.1 10.11 4.08 10.15 4.09L12.06 4.19C12.47 4.21 12.79 4.56 12.77 4.98C12.75 5.39 12.39 5.71 11.98 5.69H11.9C12.32 6.38 12.55 7.18 12.55 8.01L12.54 8Z" fill="currentColor"/>
</svg>
