<svg viewBox="0 0 16 16" fill="none" xmlns="http://www.w3.org/2000/svg">
<path d="M3.75 3C2.23 3 1 4.23 1 5.75V10.25C1 11.77 2.23 13 3.75 13H4.87C5.28 13 5.62 12.66 5.62 12.25C5.62 11.84 5.28 11.5 4.87 11.5H3.75C3.06 11.5 2.5 10.94 2.5 10.25V5.75C2.5 5.06 3.06 4.5 3.75 4.5H12.25C12.94 4.5 13.5 5.06 13.5 5.75V10.25C13.5 10.94 12.94 11.5 12.25 11.5H9.89L10.72 10.84C11.04 10.58 11.1 10.11 10.84 9.79C10.58 9.47 10.11 9.41 9.79 9.67L7.29 11.67C7.29 11.67 7.28 11.69 7.27 11.7C7.21 11.75 7.17 11.81 7.13 11.87C7.11 11.9 7.09 11.92 7.08 11.95C7.04 12.04 7.01 12.15 7.01 12.26C7.01 12.37 7.04 12.47 7.08 12.57C7.09 12.6 7.12 12.62 7.13 12.65C7.17 12.71 7.21 12.77 7.27 12.82C7.27 12.82 7.28 12.84 7.29 12.85L9.79 14.85C9.93 14.96 10.09 15.01 10.26 15.01C10.48 15.01 10.7 14.91 10.85 14.73C11.11 14.41 11.06 13.93 10.73 13.68L9.9 13.02H12.26C13.78 13.02 15.01 11.79 15.01 10.27V5.75C15.01 4.23 13.78 3 12.26 3H3.75Z" fill="currentColor"/>
</svg>
