<svg viewBox="0 0 16 16" fill="none" xmlns="http://www.w3.org/2000/svg">
<path d="M14.76 7.44808L11.26 4.19808C10.96 3.91808 10.48 3.93808 10.2 4.23808C9.92 4.53808 9.94 5.01808 10.24 5.29808L13.15 7.99808L10.24 10.6981C9.94 10.9781 9.92 11.4581 10.2 11.7581C10.35 11.9181 10.55 11.9981 10.75 11.9981C10.93 11.9981 11.12 11.9281 11.26 11.7981L14.76 8.54808C14.91 8.40808 15 8.20808 15 7.99808C15 7.78808 14.91 7.58808 14.76 7.44808Z" fill="currentColor"/>
<path d="M5.8 4.23808C5.52 3.93808 5.04 3.91808 4.74 4.19808L1.24 7.44808C1.09 7.58808 1 7.78808 1 7.99808C1 8.20808 1.09 8.40808 1.24 8.54808L4.74 11.7981C4.88 11.9281 5.07 11.9981 5.25 11.9981C5.45 11.9981 5.65 11.9181 5.8 11.7581C6.08 11.4581 6.06 10.9781 5.76 10.6981L2.85 7.99808L5.76 5.29808C6.06 5.01808 6.08 4.53808 5.8 4.23808Z" fill="currentColor"/>
</svg>
