<svg viewBox="0 0 16 16" fill="none" xmlns="http://www.w3.org/2000/svg">
<path d="M14.54 4.67L12.08 1.72C11.7 1.26 11.14 1 10.54 1H3C1.9 1 1 1.9 1 3V13C1 14.1 1.9 15 3 15H13C14.1 15 15 14.1 15 13V5.95C15 5.48 14.84 5.03 14.54 4.67ZM5 13.5V10.25C5 9.84 5.34 9.5 5.75 9.5H10.25C10.66 9.5 11 9.84 11 10.25V13.5H5ZM13.5 13C13.5 13.28 13.28 13.5 13 13.5H12.5V10.25C12.5 9.01 11.49 8 10.25 8H5.75C4.51 8 3.5 9.01 3.5 10.25V13.5H3C2.72 13.5 2.5 13.28 2.5 13V3C2.5 2.72 2.72 2.5 3 2.5H10.54C10.69 2.5 10.83 2.57 10.92 2.68L13.38 5.63C13.45 5.72 13.5 5.83 13.5 5.95V13Z" fill="currentColor"/>
<path d="M10.5 4.25H4.88C4.47 4.25 4.13 4.59 4.13 5C4.13 5.41 4.47 5.75 4.88 5.75H10.5C10.91 5.75 11.25 5.41 11.25 5C11.25 4.59 10.91 4.25 10.5 4.25Z" fill="currentColor"/>
</svg>
