<svg viewBox="0 0 16 16" fill="none" xmlns="http://www.w3.org/2000/svg">
<path d="M14.9938 1.64C14.9938 1.64 14.9838 1.56 14.9738 1.53C14.9638 1.49 14.9438 1.45 14.9238 1.41C14.9238 1.39 14.9138 1.37 14.9038 1.35C14.9038 1.33 14.8738 1.32 14.8638 1.31C14.8438 1.28 14.8138 1.24 14.7838 1.21C14.7538 1.18 14.7238 1.15 14.6838 1.13C14.6638 1.12 14.6538 1.1 14.6438 1.09C14.6238 1.08 14.6038 1.08 14.5838 1.07C14.5438 1.05 14.5038 1.04 14.4638 1.02C14.4238 1.01 14.3838 1 14.3538 1C14.3138 1 14.2738 1 14.2338 1C14.1938 1 14.1538 1 14.1138 1.02C14.0938 1.02 14.0738 1.02 14.0538 1.02L1.53379 4.77C1.24379 4.86 1.03379 5.11 1.00379 5.41C0.973792 5.71 1.12379 6 1.38379 6.15L6.14379 8.79L9.72379 5.21C10.0138 4.92 10.4938 4.92 10.7838 5.21C11.0738 5.5 11.0738 5.98 10.7838 6.27L7.20379 9.85L9.84379 14.61C9.97379 14.85 10.2238 15 10.5038 15C10.5338 15 10.5538 15 10.5838 15C10.8838 14.97 11.1338 14.76 11.2238 14.47L14.9838 1.95C14.9838 1.95 14.9838 1.91 14.9838 1.89C14.9838 1.85 14.9938 1.81 15.0038 1.77C15.0038 1.73 15.0038 1.69 15.0038 1.65L14.9938 1.64Z" fill="currentColor"/>
</svg>
