<svg viewBox="0 0 16 16" fill="none" xmlns="http://www.w3.org/2000/svg">
<path d="M13.86 8.34049L13.76 8.2804C13.76 8.19027 13.76 8.09013 13.76 8C13.76 7.90987 13.76 7.80973 13.76 7.7196L13.86 7.65951C14.71 7.16881 15 6.08727 14.51 5.24607L13.65 3.75393C13.41 3.34335 13.03 3.05293 12.57 2.93276C12.11 2.81259 11.64 2.87268 11.23 3.11302L11.12 3.1731C10.96 3.07296 10.8 2.97282 10.63 2.8927V2.77253C10.63 1.80114 9.83 1 8.86 1H7.14C6.16 1 5.37 1.79113 5.37 2.77253V2.8927C5.2 2.98283 5.04 3.07296 4.88 3.1731L4.77 3.11302C4.36 2.87268 3.88 2.81259 3.43 2.93276C2.97 3.05293 2.59 3.34335 2.35 3.75393L1.49 5.24607C1 6.08727 1.29 7.17883 2.14 7.65951L2.24 7.7196C2.24 7.80973 2.24 7.90987 2.24 8C2.24 8.09013 2.24 8.19027 2.24 8.2804L2.14 8.34049C1.29 8.83119 1 9.91273 1.49 10.7539L2.35 12.2461C2.59 12.6567 2.97 12.9471 3.43 13.0672C3.89 13.1874 4.36 13.1273 4.77 12.887L4.88 12.8269C5.04 12.927 5.2 13.0272 5.37 13.1073V13.2275C5.37 14.1989 6.17 15 7.14 15H8.86C9.84 15 10.63 14.2089 10.63 13.2275V13.1073C10.8 13.0172 10.96 12.927 11.12 12.8269L11.23 12.887C12.08 13.3777 13.16 13.0873 13.65 12.2361L14.51 10.7439C15 9.90272 14.71 8.81116 13.86 8.33047V8.34049ZM12.26 8C12.26 8.20029 12.24 8.40057 12.21 8.59084C12.17 8.89127 12.31 9.1917 12.58 9.34192L13.1 9.64235C13.23 9.71245 13.27 9.88269 13.2 10.0029L12.34 11.495C12.29 11.5751 12.22 11.6052 12.18 11.6152C12.14 11.6252 12.06 11.6352 11.98 11.5851L11.46 11.2847C11.19 11.1345 10.86 11.1545 10.62 11.3448C10.3 11.5951 9.96 11.7854 9.6 11.9356C9.32 12.0458 9.13 12.3262 9.13 12.6266V13.2275C9.13 13.3777 9.01 13.4979 8.86 13.4979H7.14C6.99 13.4979 6.87 13.3777 6.87 13.2275V12.6266C6.87 12.3162 6.68 12.0458 6.4 11.9356C6.04 11.7854 5.69 11.5851 5.38 11.3448C5.24 11.2446 5.08 11.1845 4.92 11.1845C4.79 11.1845 4.66 11.2146 4.54 11.2847L4.02 11.5851C3.94 11.6352 3.86 11.6252 3.82 11.6152C3.78 11.6052 3.71 11.5751 3.66 11.495L2.8 10.0029C2.73 9.87267 2.77 9.71245 2.9 9.64235L3.43 9.34192C3.7 9.1917 3.84 8.89127 3.8 8.59084C3.77 8.40057 3.75 8.20029 3.75 8C3.75 7.79971 3.77 7.59943 3.8 7.40916C3.84 7.10873 3.7 6.8083 3.43 6.65808L2.91 6.35765C2.78 6.28755 2.74 6.11731 2.81 5.99714L3.67 4.50501C3.72 4.42489 3.79 4.39485 3.83 4.38484C3.87 4.38484 3.95 4.36481 4.03 4.41488L4.55 4.71531C4.82 4.86552 5.15 4.84549 5.39 4.65522C5.71 4.40486 6.05 4.21459 6.41 4.06438C6.69 3.95422 6.88 3.67382 6.88 3.37339V2.77253C6.88 2.62232 7 2.50215 7.15 2.50215H8.87C9.02 2.50215 9.14 2.62232 9.14 2.77253V3.37339C9.14 3.68383 9.33 3.95422 9.61 4.06438C9.97 4.21459 10.32 4.41488 10.63 4.65522C10.87 4.84549 11.2 4.86552 11.47 4.71531L12 4.41488C12.08 4.36481 12.16 4.37482 12.2 4.38484C12.24 4.39485 12.31 4.42489 12.36 4.50501L13.22 5.99714C13.29 6.12732 13.25 6.28755 13.12 6.35765L12.59 6.65808C12.32 6.8083 12.18 7.10873 12.22 7.40916C12.25 7.59943 12.27 7.79971 12.27 8H12.26Z" fill="currentColor"/>
<path d="M8 5.49642C6.62 5.49642 5.49 6.61803 5.49 8C5.49 9.38197 6.62 10.5036 8 10.5036C9.38 10.5036 10.51 9.38197 10.51 8C10.51 6.61803 9.38 5.49642 8 5.49642ZM8 9.00143C7.45 9.00143 7 8.55079 7 8C7 7.44921 7.45 6.99857 8 6.99857C8.55 6.99857 9 7.44921 9 8C9 8.55079 8.55 9.00143 8 9.00143Z" fill="currentColor"/>
</svg>
