<svg viewBox="0 0 16 16" fill="none" xmlns="http://www.w3.org/2000/svg">
<path d="M13.1381 9.49393C12.3381 9.49393 11.6181 9.84368 11.1181 10.3933L7.33806 8.50464C7.36806 8.33476 7.38806 8.16488 7.38806 7.995C7.38806 7.82513 7.36806 7.65525 7.33806 7.48537L11.1181 5.59672C11.1181 5.59672 11.1681 5.66667 11.1981 5.68665C11.7181 6.20628 12.4081 6.49607 13.1381 6.49607C14.6581 6.49607 15.8881 5.26695 15.8881 3.74804C15.8881 2.22912 14.6581 1 13.1381 1C11.6181 1 10.3881 2.22912 10.3881 3.74804C10.3881 3.91792 10.4081 4.08779 10.4381 4.25767L6.65806 6.14632C6.15806 5.59672 5.43806 5.24697 4.63806 5.24697C3.11806 5.24697 1.88806 6.47609 1.88806 7.995C1.88806 9.51392 3.11806 10.743 4.63806 10.743C5.43806 10.743 6.15806 10.3933 6.65806 9.84368L10.4381 11.7323C10.4081 11.9022 10.3881 12.0621 10.3881 12.242C10.3881 12.9814 10.6781 13.6709 11.1881 14.1906C11.7081 14.7102 12.3981 15 13.1281 15C14.6481 15 15.8781 13.7709 15.8781 12.252C15.8781 10.733 14.6481 9.50393 13.1281 9.50393L13.1381 9.49393ZM11.8881 3.74804C11.8881 3.05853 12.4481 2.49893 13.1381 2.49893C13.8281 2.49893 14.3881 3.05853 14.3881 3.74804C14.3881 4.43754 13.8281 4.99714 13.1381 4.99714C12.8081 4.99714 12.4881 4.86724 12.2581 4.62741C12.0281 4.38758 11.8881 4.0778 11.8881 3.74804ZM4.63806 9.24411C3.94806 9.24411 3.38806 8.68451 3.38806 7.995C3.38806 7.3055 3.94806 6.7459 4.63806 6.7459C5.32806 6.7459 5.88806 7.3055 5.88806 7.995C5.88806 8.68451 5.32806 9.24411 4.63806 9.24411ZM13.1381 13.4911C12.8081 13.4911 12.4881 13.3612 12.2581 13.1213C12.0281 12.8815 11.8881 12.5717 11.8881 12.242C11.8881 11.5525 12.4481 10.9929 13.1381 10.9929C13.8281 10.9929 14.3881 11.5525 14.3881 12.242C14.3881 12.9315 13.8281 13.4911 13.1381 13.4911Z" fill="currentColor"/>
</svg>
