<svg viewBox="0 0 16 16" fill="none" xmlns="http://www.w3.org/2000/svg">
<path d="M14.445 2.78488L8.21499 1.03488C8.08499 0.994883 7.945 0.994883 7.815 1.03488L1.545 2.78488C1.225 2.87488 0.994995 3.17488 0.994995 3.50488V7.51488C0.994995 10.3949 2.72499 12.9449 5.40499 14.0149L7.73499 14.9449C7.825 14.9849 7.915 14.9949 8.015 14.9949C8.115 14.9949 8.205 14.9749 8.295 14.9449L10.605 14.0149C13.275 12.9449 15.005 10.3949 15.005 7.51488V3.50488C15.005 3.16488 14.785 2.87488 14.455 2.78488H14.445ZM13.495 7.52488C13.495 9.78488 12.135 11.7849 10.045 12.6249L8.015 13.4449L5.96499 12.6249C3.865 11.7849 2.505 9.78488 2.505 7.51488V4.06488L8.015 2.52488L13.505 4.06488V7.51488L13.495 7.52488Z" fill="currentColor"/>
<path d="M5.73499 7.69488C5.42499 7.42488 4.94499 7.45488 4.67499 7.76488C4.40499 8.07488 4.435 8.55488 4.745 8.82488L6.745 10.5749C6.88499 10.6949 7.06499 10.7649 7.23499 10.7649C7.43499 10.7649 7.63499 10.6849 7.785 10.5249L11.285 6.77488C11.565 6.47488 11.555 5.99488 11.245 5.71488C10.945 5.43488 10.465 5.44488 10.185 5.75488L7.17499 8.97488L5.725 7.70488L5.73499 7.69488Z" fill="currentColor"/>
</svg>
