<svg viewBox="0 0 16 16" fill="none" xmlns="http://www.w3.org/2000/svg">
<path d="M14.8794 3.8C14.7392 3.61 14.519 3.5 14.2788 3.5H3.86913L3.48877 1.6C3.41871 1.25 3.10842 1 2.74809 1H1.75717C1.34679 1 1.00647 1.34 1.00647 1.75C1.00647 2.16 1.34679 2.5 1.75717 2.5H2.12751L3.76903 10.65C3.76903 10.65 3.78905 10.71 3.80907 10.74C3.82909 10.79 3.8391 10.85 3.86913 10.89C3.88915 10.92 3.90916 10.94 3.92918 10.96C3.95921 11 3.98924 11.04 4.02928 11.08C4.0593 11.1 4.08933 11.11 4.11936 11.13C4.1594 11.15 4.19943 11.18 4.24948 11.2C4.32956 11.23 4.41964 11.24 4.49971 11.24H12.5071C12.8475 11.24 13.1377 11.02 13.2278 10.69L14.9794 4.44C15.0395 4.21 14.9995 3.97 14.8593 3.78L14.8794 3.8ZM11.9566 9.75H5.1303L4.17942 5H13.2879L11.9566 9.75Z" fill="currentColor"/>
<path d="M5.20036 12.21C4.42965 12.21 3.80907 12.83 3.80907 13.6C3.80907 14.37 4.42965 14.99 5.20036 14.99C5.97108 14.99 6.59166 14.37 6.59166 13.6C6.59166 12.83 5.97108 12.21 5.20036 12.21Z" fill="currentColor"/>
<path d="M12.1768 15C12.9452 15 13.5681 14.3777 13.5681 13.61C13.5681 12.8423 12.9452 12.22 12.1768 12.22C11.4085 12.22 10.7856 12.8423 10.7856 13.61C10.7856 14.3777 11.4085 15 12.1768 15Z" fill="currentColor"/>
</svg>
