<svg viewBox="0 0 16 16" fill="none" xmlns="http://www.w3.org/2000/svg">
<path d="M8 9.99301C9.10339 9.99301 9.99786 9.09847 9.99786 7.995C9.99786 6.89154 9.10339 5.997 8 5.997C6.89661 5.997 6.00214 6.89154 6.00214 7.995C6.00214 9.09847 6.89661 9.99301 8 9.99301Z" fill="currentColor"/>
<path d="M14.9326 7.6953C14.8527 7.50549 12.8049 3 8 3C3.19515 3 1.15733 7.50549 1.06743 7.6953C0.977524 7.88511 0.977524 8.1049 1.06743 8.3047C1.14734 8.49451 3.19515 13 8 13C12.8049 13 14.8427 8.5045 14.9326 8.3047C15.0225 8.11488 15.0225 7.8951 14.9326 7.6953ZM8 11.4915C4.78345 11.4915 3.09526 8.9041 2.59579 7.995C3.09526 7.08591 4.78345 4.4985 8 4.4985C11.2166 4.4985 12.9047 7.08591 13.4042 7.995C12.9047 8.9041 11.2166 11.4915 8 11.4915Z" fill="currentColor"/>
</svg>
