<svg viewBox="0 0 16 16" fill="none" xmlns="http://www.w3.org/2000/svg">
<path d="M10.5068 11C10.0965 11 9.75625 11.34 9.75625 11.75V13C9.75625 13.28 9.5361 13.5 9.2559 13.5H3.00143C2.72123 13.5 2.50107 13.28 2.50107 13V3C2.50107 2.72 2.72123 2.5 3.00143 2.5H9.2559C9.5361 2.5 9.75625 2.72 9.75625 3V4.25C9.75625 4.66 10.0965 5 10.5068 5C10.9171 5 11.2573 4.66 11.2573 4.25V3C11.2573 1.9 10.3567 1 9.2559 1H3.00143C1.90064 1 1 1.9 1 3V13C1 14.1 1.90064 15 3.00143 15H9.2559C10.3567 15 11.2573 14.1 11.2573 13V11.75C11.2573 11.34 10.9171 11 10.5068 11Z" fill="currentColor"/>
<path d="M14.2595 7.25H7.82487L8.79557 6.28C9.08578 5.99 9.09578 5.51 8.79557 5.22C8.50536 4.93 8.02502 4.92 7.73481 5.22L5.4732 7.47C5.40314 7.54 5.35311 7.62 5.31308 7.71C5.27305 7.8 5.25304 7.9 5.25304 8C5.25304 8.02 5.25304 8.03 5.25304 8.05C5.25304 8.13 5.27305 8.21 5.30307 8.29C5.3331 8.37 5.38313 8.43 5.43317 8.49C5.44317 8.5 5.45318 8.52 5.46319 8.53L7.70479 10.78C7.8549 10.93 8.04503 11 8.23517 11C8.4253 11 8.61544 10.93 8.76555 10.78C9.05575 10.49 9.06576 10.01 8.76555 9.72L7.79485 8.75H14.2495C14.6598 8.75 15 8.41 15 8C15 7.59 14.6598 7.25 14.2495 7.25H14.2595Z" fill="currentColor"/>
</svg>
