<svg viewBox="0 0 16 16" fill="none" xmlns="http://www.w3.org/2000/svg">
<path d="M14.2824 3.98L11.5314 1.22C11.5314 1.22 11.5114 1.21 11.5013 1.2C11.4413 1.14 11.3713 1.09 11.2913 1.06C11.2012 1.02 11.1012 1 11.0012 1C10.9011 1 10.8011 1.02 10.711 1.06C10.621 1.1 10.541 1.15 10.471 1.22L7.71989 3.97C7.42978 4.26 7.42978 4.74 7.71989 5.03C8.01 5.32 8.49019 5.32 8.7803 5.03L10.2509 3.56V14.25C10.2509 14.66 10.591 15 11.0012 15C11.4113 15 11.7514 14.66 11.7514 14.25V3.56L13.222 5.03C13.3721 5.18 13.5621 5.25 13.7522 5.25C13.9423 5.25 14.1324 5.18 14.2824 5.03C14.5725 4.74 14.5725 4.26 14.2824 3.97V3.98Z" fill="currentColor"/>
<path d="M7.2197 10.97L5.74913 12.44V1.75C5.74913 1.34 5.409 1 4.99885 1C4.58869 1 4.24856 1.34 4.24856 1.75V12.44L2.77799 10.97C2.48788 10.68 2.0077 10.68 1.71758 10.97C1.42747 11.26 1.42747 11.74 1.71758 12.03L4.46864 14.78C4.46864 14.78 4.48865 14.79 4.49865 14.8C4.55868 14.86 4.6287 14.91 4.70873 14.94C4.79877 14.98 4.89881 15 4.99885 15C5.09888 15 5.19892 14.98 5.28896 14.94C5.37899 14.9 5.45902 14.85 5.52905 14.78L8.28011 12.03C8.57022 11.74 8.57022 11.26 8.28011 10.97C7.99 10.68 7.50981 10.68 7.2197 10.97Z" fill="currentColor"/>
</svg>
