<svg viewBox="0 0 16 16" fill="none" xmlns="http://www.w3.org/2000/svg">
<path d="M7.75 10.52C9.54 10.52 11 9.06 11 7.27V4.25C11 2.46 9.54 1 7.75 1C5.96 1 4.5 2.46 4.5 4.25V7.27C4.5 9.06 5.96 10.52 7.75 10.52ZM6 4.25C6 3.29 6.79 2.5 7.75 2.5C8.71 2.5 9.5 3.29 9.5 4.25V7.27C9.5 8.23 8.71 9.02 7.75 9.02C6.79 9.02 6 8.23 6 7.27V4.25Z" fill="currentColor"/>
<path d="M13.5 7.06C13.5 6.65 13.16 6.31 12.75 6.31C12.34 6.31 12 6.65 12 7.06C12 9.4 10.09 11.31 7.75 11.31C5.41 11.31 3.5 9.41 3.5 7.06C3.5 6.65 3.16 6.31 2.75 6.31C2.34 6.31 2 6.65 2 7.06C2 9.98 4.18 12.39 7 12.76V13.5H5.25C4.84 13.5 4.5 13.84 4.5 14.25C4.5 14.66 4.84 15 5.25 15H10.25C10.66 15 11 14.66 11 14.25C11 13.84 10.66 13.5 10.25 13.5H8.5V12.76C11.32 12.39 13.5 9.98 13.5 7.06Z" fill="currentColor"/>
</svg>
