<svg viewBox="0 0 16 16" fill="none" xmlns="http://www.w3.org/2000/svg">
  <path
    d="M5 1.3999C4.58579 1.3999 4.25 1.73569 4.25 2.1499C4.25 2.56412 4.58579 2.8999 5 2.8999L11 2.8999C11.4142 2.8999 11.75 2.56412 11.75 2.1499C11.75 1.73569 11.4142 1.3999 11 1.3999H5Z"
    fill="currentColor"
  />
  <path
    fill-rule="evenodd"
    clip-rule="evenodd"
    d="M8 14.6499C11.0376 14.6499 13.5 12.1875 13.5 9.1499C13.5 6.11234 11.0376 3.6499 8 3.6499C4.96243 3.6499 2.5 6.11234 2.5 9.1499C2.5 12.1875 4.96243 14.6499 8 14.6499ZM8 5.40186C8.41421 5.40186 8.75 5.73764 8.75 6.15186V8.3999H10.5C10.9142 8.3999 11.25 8.73569 11.25 9.1499C11.25 9.56412 10.9142 9.8999 10.5 9.8999H8C7.80109 9.8999 7.61032 9.82088 7.46967 9.68023C7.32902 9.53958 7.25 9.34881 7.25 9.1499V6.15186C7.25 5.73764 7.58579 5.40186 8 5.40186Z"
    fill="currentColor"
  />
</svg>
