<svg viewBox="0 0 16 16" fill="none" xmlns="http://www.w3.org/2000/svg">
<path d="M8 3C4.69 3 2 5.69 2 9C2 12.31 4.69 15 8 15C11.31 15 14 12.31 14 9C14 5.69 11.31 3 8 3ZM8 13.5C5.52 13.5 3.5 11.48 3.5 9C3.5 6.52 5.52 4.5 8 4.5C10.48 4.5 12.5 6.52 12.5 9C12.5 11.48 10.48 13.5 8 13.5Z" fill="currentColor"/>
<path d="M9.5 8.25H8.75V6.25C8.75 5.84 8.41 5.5 8 5.5C7.59 5.5 7.25 5.84 7.25 6.25V9C7.25 9.41 7.59 9.75 8 9.75H9.5C9.91 9.75 10.25 9.41 10.25 9C10.25 8.59 9.91 8.25 9.5 8.25Z" fill="currentColor"/>
<path d="M5 2.5H11C11.41 2.5 11.75 2.16 11.75 1.75C11.75 1.34 11.41 1 11 1H5C4.59 1 4.25 1.34 4.25 1.75C4.25 2.16 4.59 2.5 5 2.5Z" fill="currentColor"/>
</svg>
