<svg viewBox="0 0 16 16" fill="none" xmlns="http://www.w3.org/2000/svg">
  <path
    d="M4.08696 1.77778C4.08696 1.34822 4.43734 1 4.86957 1H11.1304C11.5627 1 11.913 1.34822 11.913 1.77778C11.913 2.20733 11.5627 2.55556 11.1304 2.55556L4.86957 2.55556C4.43734 2.55556 4.08696 2.20733 4.08696 1.77778Z"
    fill="currentColor"
  />
  <path
    d="M8.78261 6.44445C8.78261 6.01489 8.43222 5.66667 8 5.66667C7.56778 5.66667 7.21739 6.01489 7.21739 6.44445V9.03704C7.21739 9.24332 7.29984 9.44115 7.44661 9.58701C7.59338 9.73287 7.79244 9.81482 8 9.81482H10.6087C11.0409 9.81482 11.3913 9.46659 11.3913 9.03704C11.3913 8.60748 11.0409 8.25926 10.6087 8.25926H8.78261V6.44445Z"
    fill="currentColor"
  />
  <path
    fill-rule="evenodd"
    clip-rule="evenodd"
    d="M2 9.03704C2 5.74378 4.68629 3.07407 8 3.07407C11.3137 3.07407 14 5.74378 14 9.03704C14 12.3303 11.3137 15 8 15C4.68629 15 2 12.3303 2 9.03704ZM8 4.62963C5.55074 4.62963 3.56522 6.60289 3.56522 9.03704C3.56522 11.4712 5.55074 13.4444 8 13.4444C10.4493 13.4444 12.4348 11.4712 12.4348 9.03704C12.4348 6.60289 10.4493 4.62963 8 4.62963Z"
    fill="currentColor"
  />
</svg>
