<svg viewBox="0 0 16 16" fill="none" xmlns="http://www.w3.org/2000/svg">
<path d="M14.8999 8.35862C14.8999 8.35862 14.9299 8.31862 14.94 8.29862C14.98 8.20862 15 8.10862 15 7.99862C15 7.88862 14.98 7.78862 14.94 7.69862C14.9299 7.67862 14.9099 7.65862 14.8999 7.63862C14.8599 7.56862 14.8199 7.50862 14.7698 7.45862C14.7698 7.45862 14.7698 7.45862 14.7698 7.44862L11.7577 4.69862C11.4575 4.41862 10.9771 4.43862 10.6969 4.74862C10.4167 5.05862 10.4367 5.52862 10.747 5.80862L12.3281 7.25862H3.67191L5.25304 5.80862C5.56326 5.52862 5.58327 5.05862 5.30307 4.74862C5.02287 4.43862 4.55254 4.41862 4.24232 4.69862L1.23016 7.44862C1.23016 7.44862 1.23016 7.44862 1.23016 7.45862C1.18013 7.50862 1.1401 7.57862 1.10007 7.63862C1.09006 7.65862 1.07005 7.67862 1.06004 7.69862C1.02001 7.78862 1 7.88862 1 7.99862C1 8.10862 1.02001 8.20862 1.06004 8.29862C1.07005 8.31862 1.09006 8.33862 1.10007 8.35862C1.1401 8.42862 1.18013 8.48862 1.23016 8.53862C1.23016 8.53862 1.23016 8.53862 1.23016 8.54862L4.23231 11.2986C4.37241 11.4286 4.56254 11.4986 4.74267 11.4986C4.94282 11.4986 5.15297 11.4186 5.29307 11.2586C5.57327 10.9486 5.55325 10.4786 5.24303 10.1986L3.6619 8.74862H12.3081L10.7269 10.1986C10.4167 10.4786 10.3967 10.9486 10.6769 11.2586C10.827 11.4186 11.0272 11.4986 11.2273 11.4986C11.4074 11.4986 11.5876 11.4386 11.7377 11.2986L14.7398 8.54862C14.7398 8.54862 14.7398 8.54862 14.7398 8.53862C14.7898 8.48862 14.8299 8.41862 14.8699 8.35862H14.8999Z" fill="currentColor"/>
</svg>
