<svg viewBox="0 0 16 16" fill="none" xmlns="http://www.w3.org/2000/svg">
<path d="M12.75 2H3.25C2.01 2 1 3.01 1 4.25V11.75C1 12.99 2.01 14 3.25 14H12.75C13.99 14 15 12.99 15 11.75V4.25C15 3.01 13.99 2 12.75 2ZM2.5 7H7.25V9H2.5V7ZM8.75 7H13.5V9H8.75V7ZM13.5 4.25V5.5H8.75V3.5H12.75C13.16 3.5 13.5 3.84 13.5 4.25ZM2.5 4.25C2.5 3.84 2.84 3.5 3.25 3.5H7.25V5.5H2.5V4.25ZM2.5 11.75V10.5H7.25V12.5H3.25C2.84 12.5 2.5 12.16 2.5 11.75ZM13.5 11.75C13.5 12.16 13.16 12.5 12.75 12.5H8.75V10.5H13.5V11.75Z" fill="currentColor"/>
</svg>
