<svg viewBox="0 0 16 16" fill="none" xmlns="http://www.w3.org/2000/svg">
<path d="M14.3013 10.94L11.2213 7.85999C11.8413 5.97999 11.3613 3.93999 9.95127 2.51999C8.39127 0.959989 5.99127 0.559989 3.99127 1.50999C3.77127 1.61999 3.61127 1.81999 3.57127 2.05999C3.53127 2.29999 3.61127 2.54999 3.78127 2.71999L6.49127 5.42999L5.43127 6.48999L2.72127 3.77999C2.55127 3.60999 2.30127 3.52999 2.06127 3.56999C1.82127 3.60999 1.61127 3.76999 1.51127 3.98999C0.56127 5.98999 0.96127 8.38999 2.52127 9.94999C3.93127 11.37 5.98127 11.84 7.86127 11.22L10.9413 14.3C11.3913 14.75 11.9813 15 12.6213 15C13.2613 15 13.8513 14.75 14.3013 14.3C15.2313 13.37 15.2313 11.87 14.3013 10.94ZM13.2413 13.24C12.9113 13.57 12.3313 13.57 12.0013 13.24L8.58127 9.81999C8.44127 9.67999 8.24127 9.59999 8.05127 9.59999C7.95127 9.59999 7.84127 9.61999 7.75127 9.65999C6.32127 10.29 4.69127 9.98999 3.59127 8.88999C2.75127 8.04999 2.38127 6.86999 2.54127 5.71999L4.90127 8.07999C5.19127 8.36999 5.67127 8.36999 5.96127 8.07999L8.08127 5.95999C8.37127 5.66999 8.37127 5.18999 8.08127 4.89999L5.72127 2.53999C6.87127 2.36999 8.05127 2.74999 8.89127 3.58999C9.99127 4.68999 10.2913 6.31999 9.66127 7.74999C9.54127 8.02999 9.60127 8.35999 9.82127 8.57999L13.2413 12C13.5813 12.34 13.5813 12.9 13.2413 13.24Z" fill="currentColor"/>
</svg>
