<svg viewBox="0 0 16 16" fill="none" xmlns="http://www.w3.org/2000/svg">
<path d="M14.38 6.9237C13.88 6.3337 13.15 5.9937 12.38 5.9937H10.8L11.07 5.2037C11.57 3.7037 10.97 2.0937 9.62 1.2837C9.1 0.973702 8.47 0.913702 7.89 1.1237C7.31 1.3337 6.87 1.7937 6.68 2.3737L5.47 6.0037H1.75C1.34 6.0037 1 6.3437 1 6.7537V14.2537C1 14.6637 1.34 15.0037 1.75 15.0037H11.22C12.82 15.0037 14.16 13.8637 14.43 12.2837L14.97 9.0537C15.1 8.2937 14.88 7.5137 14.38 6.9237ZM2.5 7.4937H4V13.4937H2.5V7.4937ZM12.95 12.0337C12.81 12.8837 12.08 13.4937 11.22 13.4937H5.5V7.4937H6C6.32 7.4937 6.61 7.2837 6.71 6.9837L8.09 2.8437C8.16 2.6437 8.31 2.5537 8.4 2.5237C8.48 2.4937 8.65 2.4537 8.84 2.5637C9.57 3.0037 9.91 3.9137 9.64 4.7237L9.05 6.5037C8.97 6.7337 9.01 6.9837 9.15 7.1837C9.29 7.3837 9.52 7.4937 9.76 7.4937H12.39C12.72 7.4937 13.03 7.6337 13.25 7.8937C13.47 8.1537 13.56 8.4837 13.5 8.8037L12.96 12.0337H12.95Z" fill="currentColor"/>
</svg>
