<svg viewBox="0 0 16 16" fill="none" xmlns="http://www.w3.org/2000/svg">
<path d="M14.3602 1H13.1406C12.7872 1 12.5008 1.28641 12.5008 1.63971V9.35616C12.5008 9.70946 12.7872 9.99586 13.1406 9.99586H14.3602C14.7135 9.99586 15 9.70946 15 9.35616V1.63971C15 1.28641 14.7135 1 14.3602 1Z" fill="currentColor"/>
<path d="M2.31381 9.67601C2.70369 9.89591 3.14356 9.99586 3.59342 9.99586H5.91273C5.91273 9.99586 5.94272 9.99586 5.95272 9.99586H6.55254L6.08268 11.3053C5.63281 12.6446 6.20264 14.124 7.44227 14.8136C8.24203 15.2634 9.17175 14.8636 9.46166 13.994L10.8412 9.84593C10.9412 9.52608 11.0012 9.19623 11.0012 8.86638C11.0012 7.25712 11.0012 2.27941 11.0012 2.27941C11.0012 1.57973 10.4314 1.01 9.73158 1.01H4.72308C3.17355 1 1.84395 2.11949 1.58403 3.65878L1.03419 7.03722C0.864243 8.06675 1.3341 9.12626 2.30381 9.68601L2.31381 9.67601Z" fill="currentColor"/>
</svg>
