<svg viewBox="0 0 16 16" fill="none" xmlns="http://www.w3.org/2000/svg">
<path d="M2.85944 6.00414H1.63981C1.28645 6.00414 1 6.29054 1 6.64384V14.3603C1 14.7136 1.28645 15 1.63981 15H2.85944C3.2128 15 3.49925 14.7136 3.49925 14.3603V6.64384C3.49925 6.29054 3.2128 6.00414 2.85944 6.00414Z" fill="currentColor"/>
<path d="M13.6862 6.32399C13.2963 6.10409 12.8564 6.00414 12.4066 6.00414H10.0873C10.0873 6.00414 10.0573 6.00414 10.0473 6.00414H9.44746L9.91732 4.69474C10.3672 3.35535 9.79736 1.87603 8.55773 1.18635C7.75797 0.736557 6.82825 1.13637 6.53834 2.00597L5.15875 6.15407C5.05878 6.47392 4.9988 6.80377 4.9988 7.13362C4.9988 8.74288 4.9988 13.7206 4.9988 13.7206C4.9988 14.4203 5.56863 14.99 6.26842 14.99H11.2769C12.8364 14.99 14.1561 13.8705 14.416 12.3312L14.9658 8.95278C15.1358 7.92325 14.6659 6.86374 13.6962 6.304L13.6862 6.32399Z" fill="currentColor"/>
</svg>
