<svg viewBox="0 0 16 16" fill="none" xmlns="http://www.w3.org/2000/svg">
<path d="M13.9424 5.44317C13.8223 5.17298 13.5521 5.00286 13.2618 5.00286H10.6193L11.9406 2.06076C12.0406 1.83059 12.0206 1.5604 11.8905 1.34024C11.7504 1.13009 11.5202 1 11.2599 1H5.75471C5.44442 1 5.17416 1.19014 5.05405 1.47034L2.05121 8.9757C1.96113 9.20586 1.99116 9.46605 2.13129 9.6762C2.27142 9.88635 2.50164 10.0064 2.75188 10.0064H5.48446L5.004 14.1694C4.96396 14.4996 5.14413 14.8099 5.44442 14.94C5.54451 14.98 5.64461 15 5.7447 15C5.9549 15 6.1651 14.9099 6.30523 14.7498L13.8123 6.24375C14.0125 6.02359 14.0525 5.70336 13.9324 5.44317H13.9424ZM6.77568 11.9678L7.07596 9.33595C7.09598 9.1258 7.03592 8.90565 6.88578 8.75554C6.74565 8.59543 6.53545 8.50536 6.32525 8.50536H3.86292L6.26519 2.50107H10.0988L8.77757 5.44317C8.67747 5.67334 8.69749 5.94353 8.82761 6.16369C8.96775 6.37384 9.19796 6.50393 9.45821 6.50393H11.6002L6.77568 11.9678Z" fill="currentColor"/>
</svg>
