<svg viewBox="0 0 16 16" fill="none" xmlns="http://www.w3.org/2000/svg">
<path d="M9.34 7.04L7.39 9.16L6.6 8.5C6.28 8.23 5.81 8.28 5.54 8.6C5.27 8.92 5.32 9.39 5.64 9.66L6.98 10.78C7.12 10.9 7.29 10.95 7.46 10.95C7.66 10.95 7.86 10.87 8.01 10.71L10.45 8.07C10.73 7.77 10.71 7.29 10.41 7.01C10.1 6.73 9.63 6.75 9.35 7.05L9.34 7.04Z" fill="currentColor"/>
<path d="M12 1.75H11.35C11.05 1.02 10.34 0.5 9.5 0.5H6.5C5.66 0.5 4.95 1.02 4.65 1.75H4C2.9 1.75 2 2.65 2 3.75V13.5C2 14.6 2.9 15.5 4 15.5H12C13.1 15.5 14 14.6 14 13.5V3.75C14 2.65 13.1 1.75 12 1.75ZM6.5 2H9.5C9.78 2 10 2.22 10 2.5C10 2.78 9.78 3 9.5 3H6.5C6.22 3 6 2.78 6 2.5C6 2.22 6.22 2 6.5 2ZM12.5 13.5C12.5 13.78 12.28 14 12 14H4C3.72 14 3.5 13.78 3.5 13.5V3.75C3.5 3.47 3.72 3.25 4 3.25H4.65C4.95 3.98 5.66 4.5 6.5 4.5H9.5C10.34 4.5 11.05 3.98 11.35 3.25H12C12.28 3.25 12.5 3.47 12.5 3.75V13.5Z" fill="currentColor"/>
</svg>
