<svg viewBox="0 0 16 16" fill="none" xmlns="http://www.w3.org/2000/svg">
<path d="M14.7598 7.62474L13.0286 4.73235C12.8885 4.50216 12.6483 4.37205 12.3881 4.37205H11.2673V3.75154C11.2673 2.79075 10.4768 2.00009 9.51608 2.00009H2.75125C1.79056 1.99009 1 2.78074 1 3.74153V10.4371C1 11.3979 1.79056 12.1885 2.75125 12.1885H2.89135C2.99142 13.1993 3.83202 14 4.87277 14C5.91351 14 6.75411 13.1993 6.85418 12.1885H9.76626C9.86633 13.1993 10.7069 14 11.7477 14C12.7884 14 13.629 13.1993 13.7291 12.1885H14.2495C14.6598 12.1885 15 11.8482 15 11.4379V8.52548C15 8.20522 14.9099 7.89496 14.7498 7.62474H14.7598ZM11.9578 5.87329L13.4689 8.39537C13.4689 8.39537 13.5089 8.47544 13.5089 8.52548V10.6873H13.2588C12.8885 10.2669 12.3581 9.99669 11.7577 9.99669C11.5876 9.99669 11.4174 10.0267 11.2573 10.0668V5.87329H11.9578ZM2.50107 10.4371V3.74153C2.50107 3.60142 2.61115 3.49132 2.75125 3.49132H9.50608C9.64618 3.49132 9.75625 3.60142 9.75625 3.74153V10.6873H6.37384C6.00357 10.2669 5.4732 9.99669 4.87277 9.99669C4.27234 9.99669 3.74196 10.2669 3.37169 10.6873H2.74124C2.60114 10.6873 2.49107 10.5772 2.49107 10.4371H2.50107ZM4.88277 12.4988C4.60257 12.4988 4.38242 12.2786 4.38242 11.9983C4.38242 11.7181 4.60257 11.4979 4.88277 11.4979C5.16297 11.4979 5.38313 11.7181 5.38313 11.9983C5.38313 12.2786 5.16297 12.4988 4.88277 12.4988ZM11.7577 12.4988C11.4775 12.4988 11.2573 12.2786 11.2573 11.9983C11.2573 11.7181 11.4775 11.4979 11.7577 11.4979C12.0379 11.4979 12.258 11.7181 12.258 11.9983C12.258 12.2786 12.0379 12.4988 11.7577 12.4988Z" fill="currentColor"/>
</svg>
