<svg viewBox="0 0 16 16" fill="none" xmlns="http://www.w3.org/2000/svg">
<path d="M7.69124 1.25C5.89124 1.25 4.24124 1.92 3.00124 3.06V2C3.00124 1.59 2.66124 1.25 2.25124 1.25C1.84124 1.25 1.50124 1.59 1.50124 2V5.25C1.50124 5.25 1.52124 5.32 1.52124 5.36C1.52124 5.41 1.53124 5.46 1.55124 5.51C1.57124 5.55 1.59124 5.59 1.62124 5.63C1.65124 5.67 1.67124 5.72 1.71124 5.76C1.71124 5.76 1.71124 5.78 1.73124 5.79C1.76124 5.82 1.80124 5.83 1.83124 5.86C1.86124 5.88 1.88124 5.91 1.92124 5.93C1.92124 5.93 1.94124 5.93 1.95124 5.93C2.00124 5.95 2.05124 5.96 2.10124 5.97C2.15124 5.98 2.19124 6 2.24124 6H5.51124C5.92124 6 6.26124 5.66 6.26124 5.25C6.26124 4.84 5.92124 4.5 5.51124 4.5H3.68124C4.67124 3.4 6.11124 2.75 7.69124 2.75C10.6212 2.75 13.0012 5.11 13.0012 8C13.0012 10.89 10.6212 13.25 7.69124 13.25C5.63124 13.25 3.80124 12.16 2.92124 10.41C2.74124 10.04 2.29124 9.89 1.91124 10.08C1.54124 10.27 1.39124 10.72 1.58124 11.09C2.71124 13.35 5.05124 14.75 7.69124 14.75C11.4512 14.75 14.5012 11.72 14.5012 8C14.5012 4.28 11.4412 1.25 7.69124 1.25Z" fill="currentColor"/>
</svg>
