<svg viewBox="0 0 16 16" fill="none" xmlns="http://www.w3.org/2000/svg">
<path d="M5.8 5.25304L7.25 3.67191V10.2466C7.25 10.6569 7.59 10.9971 8 10.9971C8.41 10.9971 8.75 10.6569 8.75 10.2466V3.67191L10.2 5.25304C10.35 5.41315 10.55 5.49321 10.75 5.49321C10.93 5.49321 11.11 5.43317 11.26 5.29307C11.57 5.01287 11.59 4.54253 11.31 4.23231L8.55 1.23016C8.55 1.23016 8.55 1.23016 8.54 1.23016C8.4 1.09006 8.21 1 8 1C7.79 1 7.6 1.09006 7.46 1.23016C7.46 1.23016 7.46 1.23016 7.45 1.23016L4.7 4.23231C4.42 4.54253 4.44 5.01287 4.75 5.29307C5.06 5.57327 5.53 5.55325 5.81 5.24303L5.8 5.25304Z" fill="currentColor"/>
<path d="M14.25 8.99571C13.84 8.99571 13.5 9.33595 13.5 9.74625V12.7484C13.5 13.1587 13.16 13.4989 12.75 13.4989H3.25C2.84 13.4989 2.5 13.1587 2.5 12.7484V9.74625C2.5 9.33595 2.16 8.99571 1.75 8.99571C1.34 8.99571 1 9.33595 1 9.74625V12.7484C1 13.9893 2.01 15 3.25 15H12.75C13.99 15 15 13.9893 15 12.7484V9.74625C15 9.33595 14.66 8.99571 14.25 8.99571Z" fill="currentColor"/>
</svg>
