<svg viewBox="0 0 16 16" fill="none" xmlns="http://www.w3.org/2000/svg">
<path d="M8.88806 1C5.02806 1 1.88806 4.13776 1.88806 7.995C1.88806 10.0735 2.80806 11.9322 4.24806 13.2213C4.26806 13.2413 4.29806 13.2612 4.31806 13.2912C5.54806 14.3505 7.13806 15 8.88806 15C12.7481 15 15.8881 11.8622 15.8881 8.005C15.8881 4.14775 12.7481 1 8.88806 1ZM5.73806 12.4918C5.89806 12.202 6.08806 11.9222 6.32806 11.6824C7.69806 10.3133 10.0881 10.3133 11.4581 11.6824C11.6981 11.9222 11.8881 12.202 12.0481 12.4918C11.1581 13.1213 10.0681 13.4911 8.89806 13.4911C7.72806 13.4911 6.63806 13.1213 5.74806 12.4918H5.73806ZM8.88806 8.49465C8.09806 8.49465 7.44806 7.8551 7.44806 7.05567C7.44806 6.25625 8.09806 5.6167 8.88806 5.6167C9.67806 5.6167 10.3281 6.25625 10.3281 7.05567C10.3281 7.8551 9.67806 8.49465 8.88806 8.49465ZM13.1681 11.4325C12.9781 11.1428 12.7581 10.863 12.5081 10.6131C11.9581 10.0635 11.3081 9.67381 10.5981 9.42398C11.3381 8.89436 11.8181 8.02498 11.8181 7.04568C11.8181 5.42684 10.4981 4.10778 8.87806 4.10778C7.25806 4.10778 5.93806 5.42684 5.93806 7.04568C5.93806 8.02498 6.42806 8.88437 7.15806 9.41399C6.44806 9.66381 5.79806 10.0535 5.24806 10.6031C4.99806 10.853 4.77806 11.1228 4.58806 11.4226C3.82806 10.4832 3.36806 9.28408 3.36806 7.98501C3.38806 4.96717 5.85806 2.49893 8.88806 2.49893C11.9181 2.49893 14.3881 4.96717 14.3881 7.995C14.3881 9.29408 13.9281 10.4932 13.1681 11.4325Z" fill="currentColor"/>
</svg>
