<svg viewBox="0 0 16 16" fill="none" xmlns="http://www.w3.org/2000/svg">
<path d="M9.76 8.01C10.8 7.4 11.5 6.29 11.5 5C11.5 3.07 9.93 1.5 8 1.5C6.07 1.5 4.5 3.07 4.5 5C4.5 6.29 5.21 7.4 6.24 8.01C3.79 8.76 2 11.05 2 13.75C2 14.16 2.34 14.5 2.75 14.5C3.16 14.5 3.5 14.16 3.5 13.75C3.5 11.27 5.52 9.25 8 9.25C10.48 9.25 12.5 11.27 12.5 13.75C12.5 14.16 12.84 14.5 13.25 14.5C13.66 14.5 14 14.16 14 13.75C14 11.05 12.21 8.76 9.76 8.01ZM8 3C9.1 3 10 3.9 10 5C10 6.1 9.1 7 8 7C6.9 7 6 6.1 6 5C6 3.9 6.9 3 8 3Z" fill="currentColor"/>
</svg>
