<svg viewBox="0 0 16 16" fill="none" xmlns="http://www.w3.org/2000/svg">
<path d="M14.76 10.4331C14.46 10.1533 13.98 10.1733 13.7 10.4731L11.63 12.7014L10.77 11.9919C10.45 11.7221 9.98 11.7721 9.71 12.0918C9.45 12.4116 9.49 12.8812 9.81 13.151L11.21 14.3201C11.35 14.44 11.52 14.49 11.69 14.49C11.89 14.49 12.09 14.4101 12.24 14.2502L14.8 11.5023C15.08 11.2025 15.06 10.7229 14.76 10.4431V10.4331Z" fill="currentColor"/>
<path d="M12.21 10.513C12.5 10.2133 12.5 9.74364 12.21 9.45386C11.51 8.77439 10.68 8.27477 9.77 7.99499C10.81 7.38546 11.51 6.27631 11.51 4.9873C11.51 3.05878 9.94 1.48999 8.01 1.48999C6.08 1.48999 4.51 3.05878 4.51 4.9873C4.51 6.27631 5.22 7.38546 6.25 7.99499C3.79 8.74441 2 11.0326 2 13.7306C2 14.1403 2.34 14.48 2.75 14.48C3.16 14.48 3.5 14.1403 3.5 13.7306C3.5 11.2525 5.52 9.23403 8 9.23403C9.19 9.23403 10.31 9.69368 11.15 10.523C11.45 10.8128 11.92 10.8128 12.21 10.523V10.513ZM8 2.98884C9.1 2.98884 10 3.88815 10 4.9873C10 6.08645 9.1 6.98576 8 6.98576C6.9 6.98576 6 6.08645 6 4.9873C6 3.88815 6.9 2.98884 8 2.98884Z" fill="currentColor"/>
</svg>
