<svg viewBox="0 0 16 16" fill="none" xmlns="http://www.w3.org/2000/svg">
<path d="M14.25 11.5077H11.25C10.84 11.5077 10.5 11.848 10.5 12.2583C10.5 12.6686 10.84 13.0089 11.25 13.0089H14.25C14.66 13.0089 15 12.6686 15 12.2583C15 11.848 14.66 11.5077 14.25 11.5077Z" fill="currentColor"/>
<path d="M11.62 9.87645C11.86 9.53618 11.77 9.06582 11.43 8.83564C10.91 8.47537 10.35 8.20516 9.76 8.02502C10.8 7.41455 11.5 6.3037 11.5 5.0127C11.5 3.08122 9.93 1.51001 8 1.51001C6.07 1.51001 4.5 3.08122 4.5 5.0127C4.5 6.3037 5.21 7.41455 6.24 8.02502C3.79 8.76559 2 11.0574 2 13.7594C2 14.1697 2.34 14.51 2.75 14.51C3.16 14.51 3.5 14.1697 3.5 13.7594C3.5 11.2775 5.52 9.25597 8 9.25597C8.93 9.25597 9.81 9.53618 10.57 10.0666C10.91 10.2968 11.38 10.2167 11.61 9.87645H11.62ZM8 3.00116C9.1 3.00116 10 3.90185 10 5.0027C10 6.10354 9.1 7.00424 8 7.00424C6.9 7.00424 6 6.10354 6 5.0027C6 3.90185 6.9 3.00116 8 3.00116Z" fill="currentColor"/>
</svg>
