<svg viewBox="0 0 16 16" fill="none" xmlns="http://www.w3.org/2000/svg">
<path d="M14.7297 11.51C14.3303 11.11 13.851 10.83 13.3417 10.65C13.9209 10.23 14.3003 9.55 14.3003 8.78C14.3003 7.5 13.2618 6.47 11.9936 6.47C10.7254 6.47 9.68692 7.51 9.68692 8.78C9.68692 9.55 10.0664 10.23 10.6456 10.65C10.1363 10.83 9.65696 11.11 9.25753 11.51C9.11773 11.65 8.98792 11.82 8.87808 11.98C8.75825 11.82 8.63842 11.66 8.49862 11.51C8.09919 11.11 7.61987 10.83 7.1106 10.65C7.68977 10.23 8.06923 9.55 8.06923 8.78C8.06923 7.5 7.03071 6.47 5.76253 6.47C4.49434 6.47 3.45582 7.51 3.45582 8.78C3.45582 9.55 3.83528 10.23 4.41445 10.65C3.90518 10.83 3.42586 11.11 3.02644 11.51C2.29748 12.24 1.88806 13.22 1.88806 14.25C1.88806 14.66 2.22758 15 2.63699 15C3.04641 15 3.38592 14.66 3.38592 14.25C3.38592 13.62 3.63557 13.02 4.08492 12.57C4.98364 11.67 6.54141 11.67 7.44013 12.57C7.88949 13.02 8.13913 13.62 8.13913 14.25C8.13913 14.66 8.47865 15 8.88806 15C9.29748 15 9.63699 14.66 9.63699 14.25C9.63699 13.62 9.88663 13.02 10.336 12.57C11.2347 11.67 12.7925 11.67 13.6912 12.57C14.1406 13.02 14.3902 13.62 14.3902 14.25C14.3902 14.66 14.7297 15 15.1391 15C15.5485 15 15.8881 14.66 15.8881 14.25C15.8881 13.21 15.4886 12.24 14.7497 11.51H14.7297ZM5.76253 7.97C6.21188 7.97 6.57137 8.34 6.57137 8.78C6.57137 9.22 6.2019 9.59 5.76253 9.59C5.32315 9.59 4.95368 9.22 4.95368 8.78C4.95368 8.34 5.32315 7.97 5.76253 7.97ZM11.9936 7.97C12.443 7.97 12.8025 8.34 12.8025 8.78C12.8025 9.22 12.433 9.59 11.9936 9.59C11.5543 9.59 11.1848 9.22 11.1848 8.78C11.1848 8.34 11.5543 7.97 11.9936 7.97Z" fill="currentColor"/>
<path d="M7.00076 4.37H8.11916V5.49C8.11916 5.9 8.45867 6.24 8.86809 6.24C9.2775 6.24 9.61702 5.9 9.61702 5.49V4.37H10.7354C11.1448 4.37 11.4844 4.03 11.4844 3.62C11.4844 3.21 11.1448 2.87 10.7354 2.87H9.61702V1.75C9.61702 1.34 9.2775 1 8.86809 1C8.45867 1 8.11916 1.34 8.11916 1.75V2.87H7.00076C6.59134 2.87 6.25183 3.21 6.25183 3.62C6.25183 4.03 6.59134 4.37 7.00076 4.37Z" fill="currentColor"/>
</svg>
