<svg viewBox="0 0 16 16" fill="none" xmlns="http://www.w3.org/2000/svg">
<path d="M14.89 5.99C14.89 5.99 14.87 5.94 14.86 5.92C14.81 5.8 14.77 5.68 14.71 5.59L12.75 1.89C12.38 1.33 11.76 1 11.09 1H4.92C4.25 1 3.63 1.33 3.22 1.96L1.31 5.56C1.24 5.67 1.2 5.79 1.15 5.91C1.13 5.94 1.12 5.97 1.11 6.01C1.04 6.21 1 6.42 1 6.63V13C1 14.1 1.9 15 3 15H13C14.1 15 15 14.1 15 13V6.63C15 6.4 14.95 6.19 14.89 5.99ZM11.46 2.66L12.97 5.5H8.75V2.5H11.08C11.25 2.5 11.4 2.58 11.46 2.66ZM4.5 2.72C4.59 2.58 4.75 2.5 4.92 2.5H7.25V5.5H3.04L4.51 2.72H4.5ZM13 13.5H3C2.72 13.5 2.5 13.28 2.5 13V7H7.25V9C7.25 9.41 7.59 9.75 8 9.75C8.41 9.75 8.75 9.41 8.75 9V7H13.5V13C13.5 13.28 13.28 13.5 13 13.5Z" fill="currentColor"/>
</svg>
