<svg viewBox="0 0 16 16" fill="none" xmlns="http://www.w3.org/2000/svg">
<path d="M7.995 15C7.58529 15 7.17557 14.8501 6.85579 14.5604L6.15627 13.931C6.15627 13.931 6.05634 13.871 5.99638 13.881L5.06702 13.9809C4.19762 14.0708 3.39817 13.4913 3.21829 12.6421L3.01843 11.7229C3.00844 11.663 2.96847 11.613 2.9185 11.5831L2.10906 11.1135C1.34958 10.6739 1.04979 9.74469 1.39955 8.94541L1.77929 8.08617C1.79927 8.03622 1.79927 7.96628 1.77929 7.91632L1.39955 7.05709C1.0398 6.25781 1.34958 5.32864 2.10906 4.88903L2.9185 4.41945C2.96847 4.38947 3.00844 4.33952 3.01843 4.27957L3.21829 3.36039C3.39817 2.50116 4.18763 1.94166 5.06702 2.02159L5.99638 2.1215C6.05634 2.1215 6.1163 2.11151 6.15627 2.07154L6.85579 1.44211C7.50534 0.852632 8.49466 0.852632 9.14421 1.44211L9.84373 2.07154C9.84373 2.07154 9.94366 2.13149 10.0036 2.1215L10.933 2.02159C11.8024 1.93167 12.6018 2.51115 12.7817 3.36039L12.9816 4.27957C12.9916 4.33952 13.0315 4.38947 13.0815 4.41945L13.8909 4.88903C14.6504 5.32864 14.9502 6.25781 14.6005 7.05709L14.2207 7.91632C14.2007 7.96628 14.2007 8.03622 14.2207 8.08617L14.6005 8.94541C14.9602 9.74469 14.6504 10.6739 13.8909 11.1135L13.0815 11.5831C13.0315 11.613 12.9916 11.663 12.9816 11.7229L12.7817 12.6421C12.6018 13.5013 11.8024 14.0708 10.933 13.9809L10.0036 13.881C9.94366 13.881 9.8837 13.891 9.84373 13.931L9.14421 14.5604C8.81444 14.8501 8.41471 15 8.005 15H7.995ZM6.01637 12.3823C6.43608 12.3823 6.8458 12.5422 7.15558 12.8219L7.8551 13.4514C7.93504 13.5213 8.05496 13.5213 8.13491 13.4514L8.83442 12.8219C9.19418 12.5022 9.67385 12.3424 10.1535 12.3923L11.0829 12.4922C11.1828 12.5022 11.2827 12.4323 11.3127 12.3324L11.5126 11.4132C11.6125 10.9436 11.9123 10.534 12.332 10.2942L13.1415 9.82462C13.2314 9.77466 13.2714 9.65477 13.2314 9.55486L12.8517 8.69563C12.6518 8.25602 12.6518 7.74648 12.8517 7.30687L13.2314 6.44764C13.2714 6.34773 13.2314 6.23782 13.1415 6.17788L12.332 5.7083C11.9123 5.46851 11.6125 5.05888 11.5126 4.5893L11.3127 3.67012C11.2927 3.56021 11.1828 3.49028 11.0829 3.51026L10.1535 3.61017C9.67385 3.66012 9.19418 3.50027 8.83442 3.18055L8.13491 2.55112C8.05496 2.48118 7.93504 2.48118 7.8551 2.55112L7.15558 3.18055C6.79583 3.50027 6.30617 3.66012 5.83649 3.61017L4.90713 3.51026C4.79721 3.49028 4.70727 3.57021 4.67729 3.67012L4.47743 4.5893C4.3775 5.05888 4.0777 5.46851 3.65799 5.7083L2.84855 6.17788C2.75861 6.22783 2.71864 6.34773 2.75861 6.44764L3.13835 7.30687C3.33821 7.74648 3.33821 8.25602 3.13835 8.69563L2.75861 9.55486C2.71864 9.65477 2.75861 9.76467 2.84855 9.82462L3.65799 10.2942C4.0777 10.534 4.3775 10.9436 4.47743 11.4132L4.67729 12.3324C4.69728 12.4323 4.79721 12.5022 4.90713 12.4922L5.83649 12.3923C5.89645 12.3923 5.95641 12.3923 6.01637 12.3923V12.3823Z" fill="currentColor"/>
<path d="M7.24552 10.7538C7.07564 10.7538 6.89576 10.6938 6.75586 10.574L5.00706 9.07529C4.69728 8.80553 4.6573 8.33595 4.92712 8.01624C5.19693 7.70651 5.66661 7.66655 5.98639 7.93631L7.18556 8.96539L9.94366 5.99804C10.2235 5.6983 10.7031 5.67832 11.0029 5.95807C11.3027 6.23782 11.3227 6.7174 11.0429 7.01713L7.79514 10.504C7.64524 10.6639 7.44538 10.7438 7.24552 10.7438V10.7538Z" fill="currentColor"/>
</svg>
