<svg viewBox="0 0 16 16" fill="none" xmlns="http://www.w3.org/2000/svg">
<path d="M8 1C7.59 1 7.25 1.34 7.25 1.75V14.25C7.25 14.66 7.59 15 8 15C8.41 15 8.75 14.66 8.75 14.25V1.75C8.75 1.34 8.41 1 8 1Z" fill="currentColor"/>
<path d="M11.25 4.12C10.84 4.12 10.5 4.46 10.5 4.87V11.12C10.5 11.53 10.84 11.87 11.25 11.87C11.66 11.87 12 11.53 12 11.12V4.88C12 4.47 11.66 4.13 11.25 4.13V4.12Z" fill="currentColor"/>
<path d="M4.75 4.12C4.34 4.12 4 4.46 4 4.87V11.12C4 11.53 4.34 11.87 4.75 11.87C5.16 11.87 5.5 11.53 5.5 11.12V4.88C5.5 4.47 5.16 4.13 4.75 4.13V4.12Z" fill="currentColor"/>
<path d="M14.25 6.68C13.84 6.68 13.5 7.02 13.5 7.43V8.57C13.5 8.98 13.84 9.32 14.25 9.32C14.66 9.32 15 8.98 15 8.57V7.43C15 7.02 14.66 6.68 14.25 6.68Z" fill="currentColor"/>
<path d="M1.75 6.68C1.34 6.68 1 7.02 1 7.43V8.57C1 8.98 1.34 9.32 1.75 9.32C2.16 9.32 2.5 8.98 2.5 8.57V7.43C2.5 7.02 2.16 6.68 1.75 6.68Z" fill="currentColor"/>
</svg>
