<svg viewBox="0 0 16 16" fill="none" xmlns="http://www.w3.org/2000/svg">
<path d="M14.99 9.39794C14.99 8.7477 14.7502 8.14747 14.3705 7.6773V6.14674C14.3705 5.29642 13.8308 4.56615 13.0814 4.28605V2.99558C13.0814 2.42537 12.8415 1.88517 12.4118 1.50503C11.9921 1.12489 11.4226 0.94482 10.853 1.01485L2.75874 1.9652C1.75946 2.08524 1 2.93555 1 3.94593V12.9993C1 14.0997 1.88936 15 2.99857 15H12.3819C13.4811 15 14.3804 14.0997 14.3804 12.9993V11.4687C14.7602 10.9985 15 10.3983 15 9.74806V9.38793L14.99 9.39794ZM13.4911 9.39794V9.75807C13.4911 10.4483 12.9315 11.0085 12.242 11.0085H10.0136C9.32405 11.0085 8.76445 10.4483 8.76445 9.75807V9.39794C8.76445 8.70768 9.32405 8.14747 10.0136 8.14747H12.242C12.9315 8.14747 13.4911 8.70768 13.4911 9.39794ZM2.93862 3.45575L11.0228 2.50539C11.2127 2.48539 11.3526 2.57542 11.4126 2.62544C11.4725 2.68546 11.5824 2.80551 11.5824 2.99558V4.156H2.99857C2.82869 4.156 2.65882 4.18601 2.49893 4.22603V3.94593C2.49893 3.69583 2.68879 3.48576 2.93862 3.45575ZM12.3719 13.4994H2.99857C2.72877 13.4994 2.49893 13.2794 2.49893 12.9993V6.14674C2.49893 5.87664 2.71877 5.64655 2.99857 5.64655H12.3819C12.6517 5.64655 12.8815 5.86663 12.8815 6.14674V6.71695C12.6817 6.66693 12.4718 6.63692 12.252 6.63692H10.0236C8.50464 6.63692 7.27552 7.86737 7.27552 9.38793V9.74806C7.27552 11.2686 8.50464 12.4991 10.0236 12.4991H12.252C12.4718 12.4991 12.6817 12.4691 12.8815 12.419V12.9893C12.8815 13.2594 12.6617 13.4894 12.3819 13.4894L12.3719 13.4994Z" fill="currentColor"/>
</svg>
