<svg viewBox="0 0 16 16" fill="none" xmlns="http://www.w3.org/2000/svg">
<path d="M14.77 11.85L9.94998 2.2C9.57998 1.46 8.82998 1 7.99998 1C7.16998 1 6.41998 1.46 6.04998 2.2L1.22998 11.85C0.889981 12.53 0.929981 13.32 1.32998 13.97C1.72998 14.62 2.41998 15 3.17998 15H12.82C13.58 15 14.27 14.61 14.67 13.97C15.07 13.32 15.11 12.53 14.77 11.85ZM7.24998 5.75C7.24998 5.34 7.58998 5 7.99998 5C8.40998 5 8.74998 5.34 8.74998 5.75V8.75C8.74998 9.16 8.40998 9.5 7.99998 9.5C7.58998 9.5 7.24998 9.16 7.24998 8.75V5.75ZM7.99998 13C7.44998 13 6.99998 12.55 6.99998 12C6.99998 11.45 7.44998 11 7.99998 11C8.54998 11 8.99998 11.45 8.99998 12C8.99998 12.55 8.54998 13 7.99998 13Z" fill="currentColor"/>
</svg>
