<svg viewBox="0 0 40 40" fill="none" xmlns="http://www.w3.org/2000/svg">
  <path
    d="M20.2225 3.3335H19.8094C19.4086 3.33276 19.0143 3.45715 18.6639 3.69486C18.3135 3.93256 18.0187 4.27569 17.8075 4.69166L3.6988 32.2623C3.4608 32.7207 3.3341 33.2522 3.33337 33.795C3.33335 34.1754 3.3952 34.552 3.51536 34.903C3.63551 35.2539 3.81156 35.5722 4.03329 35.8394C4.25502 36.1065 4.51801 36.3172 4.80698 36.4592C5.09595 36.6012 5.40514 36.6717 5.7166 36.6666H34.3153C34.9389 36.6666 35.537 36.364 35.978 35.8255C36.419 35.287 36.6667 34.5566 36.6667 33.795C36.666 33.2522 36.5393 32.7207 36.3013 32.2623L22.2244 4.69166C22.0132 4.27569 21.7184 3.93256 21.368 3.69486C21.0176 3.45715 20.6233 3.33276 20.2225 3.3335Z"
    fill="currentColor"
  />
  <path
    d="M18.3334 23.3335C18.3334 24.254 19.0796 25.0002 20 25.0002C20.9205 25.0002 21.6667 24.254 21.6667 23.3335V15.0002C21.6667 14.0797 20.9205 13.3335 20 13.3335C19.0796 13.3335 18.3334 14.0797 18.3334 15.0002V23.3335Z"
    fill="black"
  />
  <path
    d="M18.3334 28.3335C18.3334 27.413 19.0796 26.6668 20 26.6668C20.9205 26.6668 21.6667 27.413 21.6667 28.3335C21.6667 29.254 20.9205 30.0002 20 30.0002C19.0796 30.0002 18.3334 29.254 18.3334 28.3335Z"
    fill="black"
  />
</svg>
