<svg viewBox="0 0 16 16" fill="none" xmlns="http://www.w3.org/2000/svg">
  <path
    d="M7.29994 9.4C7.29994 9.7866 7.61334 10.1 7.99994 10.1C8.38654 10.1 8.69994 9.7866 8.69994 9.4V5.9C8.69994 5.5134 8.38654 5.2 7.99994 5.2C7.61334 5.2 7.29994 5.5134 7.29994 5.9V9.4Z"
    fill="currentColor"
  />
  <path
    d="M7.99994 10.8C7.61334 10.8 7.29994 11.1134 7.29994 11.5C7.29994 11.8866 7.61334 12.2 7.99994 12.2C8.38654 12.2 8.69994 11.8866 8.69994 11.5C8.69994 11.1134 8.38654 10.8 7.99994 10.8Z"
    fill="currentColor"
  />
  <path
    fill-rule="evenodd"
    clip-rule="evenodd"
    d="M7.99994 1C7.65177 1 7.3163 1.10399 7.02685 1.2921C6.7385 1.47949 6.50822 1.74182 6.34918 2.04447L6.34751 2.04767L1.24023 11.8895L1.23551 11.8987C1.08022 12.2092 1.00079 12.5549 0.999946 12.9024C0.999103 13.25 1.07686 13.5961 1.23054 13.9073C1.38431 14.2187 1.61214 14.4907 1.90101 14.6869C2.191 14.8838 2.53005 14.9955 2.88377 14.9999L2.89265 15H13.1072L13.1161 14.9999C13.4698 14.9955 13.8089 14.8838 14.0989 14.6869C14.3877 14.4907 14.6156 14.2187 14.7693 13.9073C14.923 13.5961 15.0008 13.25 14.9999 12.9024C14.9991 12.5549 14.9197 12.2092 14.7644 11.8987L14.7597 11.8895L9.65237 2.04767L9.6507 2.04447C9.49166 1.74182 9.26138 1.47949 8.97303 1.2921C8.68358 1.10399 8.34811 1 7.99994 1ZM7.78974 2.46598C7.86151 2.41934 7.93358 2.4 7.99994 2.4C8.0663 2.4 8.13837 2.41934 8.21014 2.46598C8.2827 2.51314 8.35483 2.58861 8.41069 2.69438L8.41139 2.69572L13.5142 12.529C13.5683 12.6387 13.5996 12.7689 13.5999 12.9058C13.6003 13.0444 13.5689 13.1763 13.514 13.2874C13.4593 13.3984 13.3864 13.4784 13.3123 13.5287C13.2404 13.5775 13.1681 13.5985 13.1016 13.6H2.89831C2.8318 13.5985 2.75945 13.5775 2.68762 13.5287C2.61351 13.4784 2.54063 13.3984 2.48584 13.2874C2.43097 13.1763 2.39961 13.0444 2.39994 12.9058C2.40027 12.7689 2.43153 12.6387 2.48565 12.529L7.58849 2.69572L7.58919 2.69438C7.64504 2.58861 7.71717 2.51314 7.78974 2.46598Z"
    fill="currentColor"
  />
</svg>
