<svg viewBox="0 0 16 16" fill="none" xmlns="http://www.w3.org/2000/svg">
<path d="M7.98 1C4.35 1 1.34 3.73 1 7.35C1 7.35 1 7.35 1 7.36C1 7.46 1 7.55 1.04 7.64C1.04 7.66 1.06 7.68 1.06 7.7C1.1 7.79 1.14 7.87 1.22 7.95L8.05 14.78C8.12 14.85 8.2 14.91 8.29 14.94C8.38 14.98 8.48 15 8.58 15C8.6 15 8.63 15 8.65 15C12.27 14.66 15 11.66 15 8.02C15 4.15 11.85 1 7.98 1ZM3.8 8.34C3.98 8.39 4.15 8.44 4.32 8.51C4.36 8.53 4.41 8.54 4.45 8.56C4.65 8.64 4.85 8.74 5.04 8.85C5.09 8.88 5.13 8.9 5.17 8.93C5.32 9.02 5.46 9.12 5.6 9.22C5.65 9.26 5.7 9.29 5.75 9.33C6.09 9.6 6.41 9.91 6.68 10.26C6.72 10.31 6.75 10.36 6.79 10.41C6.89 10.55 6.99 10.69 7.08 10.84C7.11 10.89 7.14 10.93 7.16 10.97C7.27 11.16 7.36 11.36 7.45 11.56C7.47 11.6 7.48 11.64 7.5 11.68C7.57 11.85 7.62 12.03 7.67 12.21C7.67 12.24 7.69 12.27 7.69 12.3L3.71 8.32C3.71 8.32 3.77 8.34 3.8 8.34ZM9.35 13.36C9.35 13.28 9.33 13.21 9.33 13.13C9.33 13.03 9.31 12.93 9.3 12.83C9.28 12.7 9.26 12.57 9.24 12.45C9.22 12.35 9.21 12.25 9.19 12.16C9.16 12.03 9.13 11.91 9.09 11.79C9.06 11.7 9.04 11.6 9.01 11.51C8.97 11.39 8.92 11.27 8.88 11.14C8.85 11.05 8.81 10.97 8.78 10.88C8.73 10.76 8.67 10.64 8.61 10.52C8.57 10.44 8.53 10.36 8.49 10.28C8.42 10.16 8.35 10.04 8.28 9.93C8.24 9.86 8.19 9.79 8.15 9.72C8.07 9.6 7.97 9.48 7.88 9.36C7.84 9.3 7.8 9.25 7.75 9.19C7.61 9.02 7.46 8.86 7.31 8.71C7.16 8.56 6.99 8.41 6.82 8.27C6.76 8.22 6.7 8.18 6.64 8.13C6.53 8.04 6.41 7.95 6.3 7.87C6.23 7.82 6.15 7.77 6.07 7.73C5.96 7.66 5.85 7.59 5.74 7.53C5.66 7.48 5.57 7.44 5.48 7.4C5.37 7.34 5.26 7.29 5.14 7.24C5.05 7.2 4.95 7.17 4.86 7.13C4.75 7.09 4.63 7.04 4.52 7C4.42 6.97 4.32 6.94 4.22 6.91C4.1 6.88 3.99 6.85 3.87 6.82C3.77 6.8 3.66 6.78 3.56 6.76C3.44 6.74 3.32 6.72 3.2 6.7C3.09 6.69 2.98 6.68 2.87 6.67C2.8 6.67 2.72 6.65 2.65 6.65C3.25 4.23 5.41 2.5 7.98 2.5C11.02 2.5 13.5 4.97 13.5 8.02C13.5 10.59 11.77 12.75 9.35 13.36Z" fill="currentColor"/>
</svg>
