<svg viewBox="0 0 16 16" fill="none" xmlns="http://www.w3.org/2000/svg">
<path d="M2.77805 7C3.18703 7 3.52618 6.66 3.52618 6.25V3.25C3.52618 2.84 3.86534 2.5 4.27431 2.5H11.7556C12.1646 2.5 12.5037 2.84 12.5037 3.25C12.5037 3.66 12.8429 4 13.2519 4C13.6608 4 14 3.66 14 3.25C14 2.01 12.9925 1 11.7556 1H4.27431C3.03741 1 2.02993 2.01 2.02993 3.25V6.25C2.02993 6.66 2.36908 7 2.77805 7Z" fill="currentColor"/>
<path d="M13.2519 9C12.8429 9 12.5037 9.34 12.5037 9.75V12.75C12.5037 13.16 12.1646 13.5 11.7556 13.5H4.27431C3.86534 13.5 3.52618 13.16 3.52618 12.75C3.52618 12.34 3.18703 12 2.77805 12C2.36908 12 2.02993 12.34 2.02993 12.75C2.02993 13.99 3.03741 15 4.27431 15H11.7556C12.9925 15 14 13.99 14 12.75V9.75C14 9.34 13.6608 9 13.2519 9Z" fill="currentColor"/>
<path d="M13.8903 6.13C13.8504 6.07 13.8105 6 13.7606 5.95C13.7606 5.95 13.7606 5.94 13.7506 5.93L11.7556 4.18C11.4464 3.91 10.9776 3.94 10.6983 4.25C10.4289 4.56 10.4589 5.04 10.7681 5.31L11.2668 5.75H7.77556C7.36658 5.75 7.02743 6.09 7.02743 6.5C7.02743 6.91 7.36658 7.25 7.77556 7.25H11.2668L10.7681 7.69C10.4589 7.96 10.4289 8.44 10.6983 8.75C10.8479 8.92 11.0574 9.01 11.2569 9.01C11.4364 9.01 11.606 8.95 11.7456 8.82L13.7406 7.07C13.7406 7.07 13.7406 7.06 13.7506 7.05C13.8005 7 13.8404 6.94 13.8803 6.87C13.8903 6.85 13.9102 6.83 13.9302 6.8C13.9701 6.71 14 6.61 14 6.5C14 6.39 13.9801 6.29 13.9302 6.2C13.9202 6.17 13.9002 6.16 13.8803 6.13H13.8903Z" fill="currentColor"/>
<path d="M2.02993 9.53C2.02993 9.63 2.04988 9.72 2.08978 9.8C2.09975 9.83 2.12968 9.85 2.13965 9.88C2.17955 9.94 2.20948 10 2.25935 10.05C2.25935 10.05 2.25935 10.06 2.26933 10.07L4.26434 11.83C4.40399 11.96 4.58354 12.02 4.76309 12.02C4.97257 12.02 5.18204 11.93 5.3217 11.77C5.59102 11.46 5.5611 10.99 5.25187 10.71L4.74314 10.26H8.24439C8.65337 10.26 8.99252 9.92 8.99252 9.51C8.99252 9.1 8.66334 8.76 8.24439 8.76H4.72319L5.23192 8.3C5.54115 8.03 5.57107 7.55 5.29177 7.24C5.01247 6.93 4.54364 6.9 4.23441 7.18L2.24938 8.94C2.24938 8.94 2.24938 8.95 2.2394 8.96C2.17955 9.01 2.13965 9.08 2.09975 9.15C2.08978 9.17 2.06983 9.19 2.05985 9.21C2.01995 9.3 2 9.4 2 9.51C2 9.51 2 9.53 2 9.54L2.02993 9.53Z" fill="currentColor"/>
</svg>
