<svg viewBox="0 0 16 16" fill="none" xmlns="http://www.w3.org/2000/svg">
<path d="M14.7923 13.7191L11.3192 10.2466C12.0699 9.27591 12.5103 8.06505 12.5103 6.75411C12.5103 3.58184 9.92797 1 6.75514 1C3.58231 1 1 3.57184 1 6.7441C1 9.91637 3.58231 12.4982 6.75514 12.4982C8.07632 12.4982 9.2874 12.0479 10.2483 11.3074L13.7214 14.7798C13.8715 14.9299 14.0617 15 14.2518 15C14.442 15 14.6322 14.9299 14.7823 14.7798C15.0726 14.4896 15.0726 14.0093 14.7823 13.7191H14.7923ZM2.50134 6.7441C2.50134 4.40243 4.41305 2.49107 6.75514 2.49107C9.09723 2.49107 11.0089 4.40243 11.0089 6.7441C11.0089 9.08578 9.09723 10.9971 6.75514 10.9971C4.41305 10.9971 2.50134 9.08578 2.50134 6.7441Z" fill="currentColor"/>
<path d="M8.62681 5.99357H7.4958V4.87277C7.4958 4.46247 7.1555 4.12223 6.74513 4.12223C6.33476 4.12223 5.99446 4.46247 5.99446 4.87277V5.99357H4.86345C4.45308 5.99357 4.11278 6.33381 4.11278 6.7441C4.11278 7.1544 4.45308 7.49464 4.86345 7.49464H5.99446V8.62545C5.99446 9.03574 6.33476 9.37598 6.74513 9.37598C7.1555 9.37598 7.4958 9.03574 7.4958 8.62545V7.49464H8.62681C9.03718 7.49464 9.37748 7.1544 9.37748 6.7441C9.37748 6.33381 9.03718 5.99357 8.62681 5.99357Z" fill="currentColor"/>
</svg>
